G04 ================== begin FILE IDENTIFICATION RECORD ==================*
G04 Layout Name:  E:/GitHub/39_CUITBIKE/v1.2/PCB/CUITBIKE_V1.1_MSP430.brd*
G04 Film Name:    BOTTOM*
G04 File Format:  Gerber RS274X*
G04 File Origin:  Cadence Allegro 16.6-2015-S071*
G04 Origin Date:  Tue Nov 22 19:44:42 2016*
G04 *
G04 Layer:  BOARD GEOMETRY/OUTLINE*
G04 Layer:  ETCH/BOTTOM*
G04 Layer:  PIN/BOTTOM*
G04 Layer:  VIA CLASS/BOTTOM*
G04 *
G04 Offset:    (0.0000 0.0000)*
G04 Mirror:    No*
G04 Mode:      Positive*
G04 Rotation:  0*
G04 FullContactRelief:  No*
G04 UndefLineWidth:     0.1524*
G04 ================== end FILE IDENTIFICATION RECORD ====================*
%FSLAX55Y55*MOMM*%
%IR0*IPPOS*OFA0.00000B0.00000*MIA0B0*SFA1.00000B1.00000*%
%ADD17C,.762*%
%ADD13C,.6096*%
%ADD22R,1.8X1.*%
%ADD16R,1.X1.8*%
%ADD21C,2.2*%
%ADD19C,2.032*%
%ADD15R,1.27X1.27*%
%ADD23R,1.016X1.2192*%
%ADD20C,1.524*%
%ADD10C,6.35*%
%ADD18R,1.524X1.524*%
%ADD12C,1.778*%
%ADD14R,.9144X.9144*%
%ADD24R,1.1938X1.1938*%
%ADD11R,1.778X1.778*%
%ADD25C,.2032*%
%ADD26C,.17*%
%ADD27C,.254*%
%ADD28C,.1524*%
%ADD29C,.508*%
%ADD30C,.4572*%
%ADD31C,1.27*%
%ADD32C,1.0202*%
%ADD34C,3.3024*%
%ADD33C,1.0774*%
G75*
%LPD*%
G75*
G36*
G01X46210Y556670D02*
G02X10000Y569340I-15888J12670D01*
G01Y1270000D01*
X319340D01*
Y1170160D01*
G02X281460Y1159940I-20319J2D01*
G03X61550Y1006150I-116360J-67737D01*
G02X45920Y972840I-15627J-12989D01*
G01X30460D01*
Y703560D01*
X180260D01*
G02X188210Y664540I3J-20319D01*
G03X46210Y556670I142002J-334331D01*
G37*
G36*
G01X403360Y3489910D02*
Y3507900D01*
X484370Y3588900D01*
X487900Y3589300D01*
G03X409300Y3667900I-7900J70700D01*
G01X408900Y3664370D01*
X296640Y3552100D01*
Y2727900D01*
X388900Y2635630D01*
X389300Y2632100D01*
G03X392710Y2616910I70701J7894D01*
G02X373490Y2590000I-19221J-6591D01*
G01X10000D01*
Y4370960D01*
G02X46210Y4383630I20322J0D01*
G03X658720Y4455130I283991J226473D01*
G02X697420Y4446460I18379J-8668D01*
G01Y4423620D01*
X707890D01*
X712940Y4406900D01*
Y4307050D01*
G03X819660I53360J-47050D01*
G01Y4393270D01*
X847430Y4423620D01*
X855680D01*
G02X872190Y4391460I-3J-20320D01*
G03X977050Y4296640I57809J-41461D01*
G01X1053000D01*
X1067420Y4289320D01*
Y4273620D01*
X1099110D01*
G02X1113660Y4239120I-6J-20321D01*
G01X876640Y4002100D01*
Y3747050D01*
G03X890740Y3640670I53359J-47052D01*
G02X894080Y3609540I-11211J-16947D01*
G01X757900Y3473360D01*
X694140D01*
X686840Y3480660D01*
X658820D01*
X657720Y3480720D01*
G03X642280I-7720J-70720D01*
G01X641730Y3480660D01*
X578820D01*
X577720Y3480720D01*
G03X562280I-7720J-70720D01*
G01X561730Y3480660D01*
X488820D01*
X487720Y3480720D01*
G03X472280I-7720J-70720D01*
G01X471730Y3480660D01*
X443160D01*
X437880Y3475380D01*
G02X403360Y3489910I-14199J14536D01*
G37*
G36*
G01X557050Y816640D02*
X637900D01*
X686640Y767900D01*
Y747180D01*
X684420Y744400D01*
G03X746830Y629190I55582J-44400D01*
G03X793360Y747050I-6828J70810D01*
G01Y812100D01*
X682100Y923360D01*
X557050D01*
G03X550020Y928820I-47068J-53346D01*
G01Y1073620D01*
X662580D01*
Y1078590D01*
G02X681900Y1098890I20323J2D01*
G03X684340Y1098990I-1693J71119D01*
G03X686160Y1099120I-4158J71021D01*
G01X686360Y1099140D01*
X686800Y1099160D01*
G02X697420Y1089010I460J-10149D01*
G01Y1073620D01*
X870180D01*
Y1189340D01*
X886840D01*
X950660Y1253160D01*
Y1742790D01*
G02X985180Y1757320I20321J-6D01*
G01X1009340Y1733160D01*
Y836840D01*
X993160Y820660D01*
X928820D01*
X927720Y820720D01*
G03X912280I-7720J-70720D01*
G01X911730Y820660D01*
X893160D01*
X883650Y811150D01*
G03X858850Y786350I36350J-61150D01*
G01X839340Y766840D01*
Y633160D01*
X899000Y573500D01*
G02X900240Y546500I-14538J-14196D01*
G01X875370Y538980D01*
X840080D01*
G02X820890Y523720I-19681J5053D01*
G03X810340Y522680I1685J-71120D01*
G03X786590Y391250I12260J-70076D01*
G02X782880Y354930I-10737J-17253D01*
G03X734130Y326710I57136J-154920D01*
G03X727440Y320810I105831J-126744D01*
G02X693400Y335500I-13722J14987D01*
G03X494040Y654390I-363201J-5300D01*
G01X488460Y657210D01*
Y673620D01*
X520180D01*
Y799150D01*
X527800Y801120D01*
G03X557050Y816640I-17804J68877D01*
G37*
G36*
G01X426370Y849030D02*
X388080Y805720D01*
X433800Y756820D01*
X479520Y805720D01*
X441230Y849030D01*
G03X426370I-7430J-10300D01*
G37*
G36*
G01X544120Y878980D02*
X531540Y891540D01*
X506820Y870000D01*
X531540Y848460D01*
X544120Y861020D01*
G03Y878980I-8980J8980D01*
G37*
G36*
G01X886380Y1246380D02*
X697420D01*
Y1238970D01*
G03X662580I-17420J-68970D01*
G01Y1246380D01*
X489820D01*
Y1199820D01*
X480000Y1190000D01*
Y1150000D01*
X360000D01*
Y1248130D01*
X451050Y1339180D01*
X520050D01*
G03X528330Y1339860I-6J50824D01*
G01X529160Y1340000D01*
X740000D01*
X770000Y1370000D01*
Y1980000D01*
X850000D01*
X910000Y1920000D01*
Y1432700D01*
X909860Y1431860D01*
G03Y1408140I70140J-11860D01*
G01X910000Y1407300D01*
Y1362700D01*
X909860Y1361860D01*
G03Y1338140I70140J-11860D01*
G01X910000Y1337300D01*
Y1292700D01*
X909860Y1291860D01*
G03X909100Y1274170I70140J-11875D01*
G01X909480Y1269480D01*
X886380Y1246380D01*
G37*
G36*
G01X429520Y2657780D02*
Y2640000D01*
X462250Y2637750D01*
X460000Y2670480D01*
X442220D01*
G03X429520Y2657780I0J-12700D01*
G37*
G36*
G01X540820Y2541050D02*
X520000Y2561870D01*
Y2601780D01*
G03Y2678220I-60000J38220D01*
G01Y3240000D01*
X440000Y3320000D01*
Y3420000D01*
X460000Y3440000D01*
X670000D01*
X690000Y3420000D01*
Y3246380D01*
X637420D01*
Y2923040D01*
G02X652850Y2904790I-4836J-19737D01*
G03X690000Y2847400I70950J5209D01*
G01Y2708760D01*
X645940D01*
Y2447440D01*
X675440D01*
X690000Y2438800D01*
Y2430000D01*
X1170000Y1950000D01*
X1390000D01*
Y1740000D01*
X1180000D01*
Y1423520D01*
X1179860Y1421850D01*
Y1421830D01*
G03Y1398170I70140J-11830D01*
G01Y1398160D01*
X1180000Y1397320D01*
Y1353520D01*
X1179860Y1351850D01*
Y1351830D01*
G03Y1328170I70140J-11830D01*
G01Y1328160D01*
X1180000Y1327320D01*
Y1282670D01*
X1179860Y1281830D01*
G03X1178910Y1267430I70140J-11859D01*
G02X1158600Y1246380I-20308J-729D01*
G01X1157420D01*
Y1089680D01*
X1155520D01*
Y916920D01*
X1180000D01*
Y910000D01*
X1240000D01*
Y560000D01*
X1195460D01*
X1162100Y593360D01*
X977900D01*
X957270Y572730D01*
X880000Y650000D01*
Y750000D01*
X910000Y780000D01*
X1010000D01*
X1050000Y820000D01*
Y1266480D01*
X1050140Y1268150D01*
Y1268170D01*
G03Y1291830I-70140J11830D01*
G01Y1291840D01*
X1050000Y1292680D01*
Y1336480D01*
X1050140Y1338150D01*
Y1338170D01*
G03Y1361830I-70140J11830D01*
G01Y1361840D01*
X1050000Y1362680D01*
Y1406480D01*
X1050140Y1408150D01*
Y1408170D01*
G03Y1431830I-70140J11830D01*
G01Y1431840D01*
X1050000Y1432680D01*
Y1750000D01*
X950660Y1849340D01*
Y1936840D01*
X866840Y2020660D01*
X779340D01*
X540820Y2259180D01*
Y2541050D01*
G37*
G36*
G01X462220Y3629520D02*
X480000D01*
X482250Y3662250D01*
X449520Y3660000D01*
Y3642220D01*
G03X462220Y3629520I12700J0D01*
G37*
G36*
G01X2697420Y333620D02*
X2697500D01*
G02X2714970Y302940I-8J-20319D01*
G01X2632000D01*
G03X2515630Y43700I0J-155739D01*
G02X2500340Y10000I-15295J-13379D01*
G01X569340D01*
G02X556670Y46210I0J20322D01*
G03X646380Y151390I-226462J284001D01*
G02X683210Y148210I17689J-10002D01*
G03X782880Y45070I156791J51787D01*
G03X961420Y88090I57123J154927D01*
G02X988080Y90920I14942J-13768D01*
G03X1077220Y95190I41919J57479D01*
G03X1100700Y140500I-47220J53208D01*
G01X1101100Y144030D01*
X1132860Y175800D01*
Y354130D01*
X1143540Y366220D01*
X1320260D01*
X1330940Y354130D01*
Y190400D01*
X1426300Y95040D01*
X1442820D01*
X1445600Y92820D01*
G03X1560240Y137110I44402J55581D01*
G03X1465440Y215170I-70239J11294D01*
G01X1459340Y212920D01*
X1437660Y234600D01*
Y354130D01*
X1448340Y366220D01*
X1470680D01*
Y538980D01*
X1280660D01*
Y950660D01*
X1220660D01*
Y1699340D01*
X1281180D01*
X1282280Y1699280D01*
G03X1297720I7720J70720D01*
G01X1298270Y1699340D01*
X1351180D01*
X1352280Y1699280D01*
G03X1367720I7720J70720D01*
G01X1368270Y1699340D01*
X1430660D01*
Y1761180D01*
X1430720Y1762280D01*
G03Y1777720I-70720J7720D01*
G01X1430660Y1778270D01*
Y1831180D01*
X1430720Y1832280D01*
G03Y1847720I-70720J7720D01*
G01X1430660Y1848270D01*
Y1901180D01*
X1430720Y1902280D01*
G03Y1917720I-70720J7720D01*
G01X1430660Y1918270D01*
Y1976640D01*
X2602100D01*
X2682230Y2056770D01*
G02X2716660Y2045650I14370J-14370D01*
G03X2716890Y2044240I70324J10747D01*
G03X2812810Y1990640I70009J12657D01*
G01X2814590Y1991340D01*
X2871020D01*
Y1971020D01*
X2900720D01*
X2960080Y1936500D01*
X2972320Y1924260D01*
G02X2957740Y1889780I-14576J-14159D01*
G01X2871020D01*
Y1867430D01*
X2858410Y1856260D01*
X2537050D01*
G03X2437310Y1755100I-47054J-53356D01*
G02Y1727800I-15050J-13650D01*
G03X2421270Y1661630I52689J-47801D01*
G02X2401640Y1636060I-19629J-5251D01*
G01X1912640D01*
X1687240Y1410660D01*
X1676840D01*
X1426840Y1660660D01*
X1358820D01*
X1357720Y1660720D01*
G03X1342280I-7720J-70720D01*
G01X1341730Y1660660D01*
X1313160D01*
X1269340Y1616840D01*
Y1493160D01*
X1323160Y1439340D01*
X1343160D01*
X1519340Y1263160D01*
Y1157200D01*
G02X1499430Y1154330I-10161J-5D01*
G01X1482580Y1211580D01*
Y1246380D01*
X1309820D01*
Y1089680D01*
X1307920D01*
Y916920D01*
X1417620D01*
X1429310Y905230D01*
X1431200Y901880D01*
X1431530Y900710D01*
G03X1547870Y867370I68475J19289D01*
G02X1575680Y866820I13612J-15086D01*
G01X1628770Y813730D01*
G02X1628880Y799480I-7188J-7181D01*
G03X1615440Y720110I51117J-49479D01*
G03X1678100Y678890I64554J29894D01*
G02X1697420Y658590I-1003J-20298D01*
G01Y644180D01*
X1687250D01*
X1684240Y644640D01*
X1684230D01*
G03X1613420Y648870I-43933J-140639D01*
G03X1589670Y365630I26877J-144869D01*
G03X1634850Y356760I50626J138371D01*
G02X1651300Y325640I-752J-20305D01*
G03X1755650Y119710I113997J-71638D01*
G03X1899940Y254000I9653J134290D01*
G01Y313460D01*
X1965620Y333620D01*
X2000180D01*
Y483620D01*
X2152580D01*
Y521650D01*
X2162370Y596910D01*
X2182100Y616640D01*
X2200350D01*
G02X2217310Y585130I-2J-20320D01*
G03X2219240Y420020I122991J-81129D01*
G02X2204220Y388180I-16695J-11587D01*
G03X2329300Y325640I11084J-134182D01*
G02X2345750Y356760I17202J10815D01*
G03X2434320Y617440I-5451J147239D01*
G02X2432730Y647270I12965J15648D01*
G01X2478970Y693510D01*
G02X2509080Y691570I14180J-14557D01*
G03X2632000Y631460I122920J95626D01*
G01X2691390D01*
G02X2697420Y617020I-14290J-14446D01*
G01Y333620D01*
G37*
G36*
G01X673040Y1179770D02*
X621920Y1205720D01*
X573040Y1159640D01*
X621920Y1114280D01*
X674980Y1162240D01*
G03X673040Y1179770I-10051J7760D01*
G37*
G36*
G01X714120Y1178980D02*
X701540Y1191540D01*
X676820Y1170000D01*
X701540Y1148460D01*
X714120Y1161020D01*
G03Y1178980I-8980J8980D01*
G37*
G36*
G01X645880Y1161020D02*
X658460Y1148460D01*
X683180Y1170000D01*
X658460Y1191540D01*
X645880Y1178980D01*
G03Y1161020I8980J-8980D01*
G37*
G36*
G01X510000Y1380660D02*
Y2183440D01*
G02X544690Y2197810I20320J3D01*
G01X729340Y2013160D01*
Y1938270D01*
X729280Y1937720D01*
G03Y1922280I70720J-7720D01*
G01X729340Y1921730D01*
Y1858270D01*
X729280Y1857720D01*
G03Y1842280I70720J-7720D01*
G01X729340Y1841730D01*
Y1788270D01*
X729280Y1787720D01*
G03Y1772280I70720J-7720D01*
G01X729340Y1771730D01*
Y1386840D01*
X723160Y1380660D01*
X510000D01*
G37*
G36*
G01X651120Y2795050D02*
X678080Y2767550D01*
X726340Y2800000D01*
X678080Y2832450D01*
X651120Y2804950D01*
G03Y2795050I8880J-4950D01*
G37*
G36*
G01X1068260Y4701230D02*
X1064450Y4700930D01*
G03X1054780Y4699500I5548J-70928D01*
G01X1049580Y4698360D01*
X1022580Y4723450D01*
Y4896380D01*
X849820D01*
Y4746380D01*
X697420D01*
Y4709190D01*
X679740D01*
X677540Y4716380D01*
G03X557030Y4893810I-347344J-106275D01*
G02X569720Y4930000I12690J15870D01*
G01X3445490D01*
G02X3459850Y4895310I-7J-20320D01*
G01X3442680Y4878140D01*
G03X3259500Y4842050I-72835J-113240D01*
G02X3226200I-16650J11639D01*
G03X3005500I-110350J-77150D01*
G02X2972200I-16650J11639D01*
G03X2751500I-110350J-77150D01*
G02X2718200I-16650J11639D01*
G03X2497500I-110350J-77150D01*
G02X2464200I-16650J11639D01*
G03X2296790Y4886850I-110345J-77149D01*
G03X2219210Y4764900I57058J-121950D01*
G01Y4743820D01*
G02X2199670Y4729080I-19540J5581D01*
G01X2103860D01*
G02X2083600Y4750910I4J20320D01*
G03X1853140Y4814940I-121600J9088D01*
G02X1816860I-18140J9160D01*
G03X1599140I-108860J-54940D01*
G02X1562980Y4814720I-18136J9162D01*
G03X1406370Y4872250I-108973J-54722D01*
G03X1358220Y4835470I47624J-112254D01*
G02X1321940Y4848040I-15961J12575D01*
G01Y4881940D01*
X1078060D01*
Y4711270D01*
X1068260Y4701230D01*
G37*
G36*
G01X858520Y459780D02*
X844150Y474150D01*
X820060Y452600D01*
X844150Y431050D01*
X858520Y445420D01*
G03Y459780I-7180J7180D01*
G37*
G36*
G01X837810Y446360D02*
X881380Y406880D01*
X929640Y452600D01*
X881380Y498320D01*
X837810Y458840D01*
G03Y446360I8020J-6240D01*
G37*
G36*
G01X731020Y734120D02*
X718460Y721540D01*
X740000Y696820D01*
X761540Y721540D01*
X748980Y734120D01*
G03X731020I-8980J-8980D01*
G37*
G36*
G01X685020Y1162240D02*
X738080Y1114280D01*
X786960Y1159640D01*
X738080Y1205720D01*
X686960Y1179770D01*
G03X685020Y1162240I8111J-9770D01*
G37*
G36*
G01X799300Y2443400D02*
X786600Y2668100D01*
X732180Y2590010D01*
X686600Y2488100D01*
X781420Y2431810D01*
G03X799300Y2443400I5184J11590D01*
G37*
G36*
G01X894190Y2440630D02*
X936600Y2488100D01*
X886600Y2581280D01*
X836600Y2488100D01*
X879010Y2440630D01*
G03X894190I7590J10180D01*
G37*
G36*
G01X1262100Y2133360D02*
X965370Y2430100D01*
G02X972560Y2447440I7188J7180D01*
G01X977260D01*
Y2708760D01*
X810180D01*
Y2833100D01*
G02X841310Y2850300I20320J-6D01*
G03X924770Y2854710I38692J59699D01*
G03X950950Y2904790I-44770J55287D01*
G02X962580Y2921690I20263J-1493D01*
G01Y2969830D01*
G02X994470Y2986530I20318J-1D01*
G03X1084480Y2993880I40531J58468D01*
G01X1091660Y3000830D01*
X1113160Y2979340D01*
X1141180D01*
X1142280Y2979280D01*
G03X1157720I7720J70720D01*
G01X1158270Y2979340D01*
X1183160D01*
X1189340Y2973160D01*
Y2403160D01*
X1249340Y2343160D01*
Y2183160D01*
X1255580Y2176920D01*
X1281790Y2150700D01*
G02X1274600Y2133360I-7188J-7180D01*
G01X1262100D01*
G37*
G36*
G01X868770Y3099030D02*
X830480Y3055720D01*
X876200Y3006820D01*
X921920Y3055720D01*
X883630Y3099030D01*
G03X868770I-7430J-10300D01*
G37*
G36*
G01X883630Y2920970D02*
X921920Y2964280D01*
X876200Y3013180D01*
X830480Y2964280D01*
X868770Y2920970D01*
G03X883630I7430J10300D01*
G37*
G36*
G01X714820Y2944120D02*
X702260Y2931540D01*
X723800Y2906820D01*
X745340Y2931540D01*
X732780Y2944120D01*
G03X714820I-8980J-8980D01*
G37*
G36*
G01X731230Y2920970D02*
X769520Y2964280D01*
X723800Y3013180D01*
X678080Y2964280D01*
X716370Y2920970D01*
G03X731230I7430J10300D01*
G37*
G36*
G01X1312100Y3313360D02*
X1052100D01*
X1001100Y3364370D01*
X1000700Y3367900D01*
G03X922100Y3289300I-70700J-7900D01*
G01X925630Y3288900D01*
X933660Y3280880D01*
G02X919110Y3246380I-14556J-14179D01*
G01X789820D01*
Y3096380D01*
X730660D01*
Y3366640D01*
X802100D01*
X1072100Y3636640D01*
X1648620D01*
G02X1668910Y3617420I-2J-20322D01*
G03X1745220Y3549050I71093J2578D01*
G01X1749460Y3549360D01*
X1759380Y3540680D01*
X1760020Y3537200D01*
G03X1769980Y3511810I69979J12803D01*
G01Y3325840D01*
X1978300D01*
Y3534160D01*
X1921340D01*
X1921280D01*
X1906120Y3549290D01*
G02X1913290Y3566640I7174J7192D01*
G01X2112100D01*
X2172100Y3626640D01*
X2279820D01*
Y3522480D01*
G02X2251070Y3503990I-20323J4D01*
G03X2154390Y3467490I-31071J-63993D01*
G03X2149050Y3445210I65605J-27504D01*
G02X2128790Y3426380I-20265J1489D01*
G01X2127420D01*
Y3156060D01*
X2001440D01*
X1976840Y3180660D01*
X1739340D01*
Y2533360D01*
X1592100D01*
X1563360Y2562100D01*
Y3062100D01*
X1312100Y3313360D01*
G37*
G36*
G01X883630Y3070970D02*
X921920Y3114280D01*
X876200Y3163180D01*
X830480Y3114280D01*
X868770Y3070970D01*
G03X883630I7430J10300D01*
G37*
G36*
G01X757320Y4294120D02*
X744760Y4281540D01*
X766300Y4256820D01*
X787840Y4281540D01*
X775280Y4294120D01*
G03X757320I-8980J-8980D01*
G37*
G36*
G01X774230Y4403850D02*
X829520Y4464280D01*
X784370Y4513120D01*
X738080Y4464280D01*
X755210Y4407580D01*
G03X774230Y4403850I11090J6190D01*
G37*
G36*
G01X970830Y525360D02*
X881380Y498320D01*
X925180Y450070D01*
X972820Y406880D01*
X985520Y512820D01*
G03X970830Y525360I-12697J0D01*
G37*
G36*
G01X865010Y2944940D02*
X856240Y2928560D01*
X880410Y2906850D01*
X901540Y2931540D01*
X885180Y2947920D01*
G03X865010Y2944940I-8978J-8981D01*
G37*
G36*
G01X960480Y3342220D02*
Y3360000D01*
X927750Y3362250D01*
X930000Y3329520D01*
X947780D01*
G03X960480Y3342220I0J12700D01*
G37*
G36*
G01X921020Y3734120D02*
X908460Y3721540D01*
X930000Y3696820D01*
X951540Y3721540D01*
X938980Y3734120D01*
G03X921020I-8980J-8980D01*
G37*
G36*
G01X1044120Y3868980D02*
X1031540Y3881540D01*
X1006820Y3860000D01*
X1031540Y3838460D01*
X1044120Y3851020D01*
G03Y3868980I-8980J8980D01*
G37*
G36*
G01X1324220Y3743360D02*
X1319560Y3748020D01*
Y3761530D01*
X1330240Y3773620D01*
X1352580D01*
Y3946380D01*
X1026790D01*
G02X1008100Y3931110I-19692J5029D01*
G03X1005280Y3930980I1865J-71113D01*
G03X1005080Y3930970I3452J-71054D01*
G02X983360Y3951240I-1400J20271D01*
G01Y3957900D01*
X1286560Y4261100D01*
X1355580Y4273620D01*
X1392580D01*
Y4446380D01*
X1240180D01*
Y4461840D01*
X1250180Y4544720D01*
X1282100Y4576640D01*
X1346100D01*
X1407520Y4638060D01*
X1506470D01*
X1519740Y4624800D01*
X1526640Y4617900D01*
Y3847900D01*
X1596680Y3777860D01*
G02X1582130Y3743360I-14556J-14179D01*
G01X1324220D01*
G37*
G36*
G01X964120Y4358980D02*
X951540Y4371540D01*
X926820Y4350000D01*
X951540Y4328460D01*
X964120Y4341020D01*
G03Y4358980I-8980J8980D01*
G37*
G36*
G01X875380Y4555390D02*
X890480Y4464280D01*
X938500Y4507810D01*
X981920Y4555720D01*
X888080Y4568420D01*
G03X875380Y4555390I0J-12704D01*
G37*
G36*
G01X943630Y4720970D02*
X981920Y4764280D01*
X936200Y4813180D01*
X890480Y4764280D01*
X928770Y4720970D01*
G03X943630I7430J10300D01*
G37*
G36*
G01X928770Y4749030D02*
X890480Y4705720D01*
X936200Y4656820D01*
X981920Y4705720D01*
X943630Y4749030D01*
G03X928770I-7430J-10300D01*
G37*
G36*
G01X1054690Y4638120D02*
X981920Y4705720D01*
X933140Y4660840D01*
X981920Y4614280D01*
X1048000Y4617680D01*
G03X1054690Y4638120I-3072J12320D01*
G37*
G36*
G01X1047780Y178880D02*
X1030000D01*
X1027750Y146150D01*
X1060480Y148400D01*
Y166180D01*
G03X1047780Y178880I-12700J0D01*
G37*
G36*
G01X1086930Y363570D02*
X1125220Y406880D01*
X1079500Y455780D01*
X1033780Y406880D01*
X1072070Y363570D01*
G03X1086930I7430J10300D01*
G37*
G36*
G01X1169000Y497700D02*
X1186180Y406880D01*
X1234250Y450460D01*
X1277620Y498320D01*
X1181680Y511020D01*
G03X1169000Y497700I0J-12695D01*
G37*
G36*
G01X1127160Y3061700D02*
Y3063100D01*
X1137070Y3073620D01*
X1160180D01*
Y3100180D01*
X1180000Y3120000D01*
Y3206640D01*
X1267900D01*
X1400000Y3074540D01*
Y2452700D01*
X1399860Y2451860D01*
G03Y2428140I70140J-11860D01*
G01X1400000Y2427300D01*
Y2180000D01*
X1310000D01*
X1290000Y2200000D01*
Y2360000D01*
X1230000Y2420000D01*
Y2990000D01*
X1200020Y3019980D01*
Y3024160D01*
X1125840D01*
X1120000Y3030000D01*
Y3054540D01*
X1127160Y3061700D01*
G37*
G36*
G01X1052780Y3075480D02*
X1035000D01*
X1032750Y3042750D01*
X1065480Y3045000D01*
Y3062780D01*
G03X1052780Y3075480I-12700J0D01*
G37*
G36*
G01X1080840Y3073230D02*
X1119520Y3114280D01*
X1073800Y3163180D01*
X1028080Y3114280D01*
X1066760Y3073230D01*
G03X1080840I7040J10570D01*
G37*
G36*
G01X1024770Y3852570D02*
X1068080Y3814280D01*
X1116980Y3860000D01*
X1068080Y3905720D01*
X1024770Y3867430D01*
G03Y3852570I10300J-7430D01*
G37*
G36*
G01X1056960Y4340230D02*
X1108080Y4314280D01*
X1156960Y4360360D01*
X1108080Y4405720D01*
X1055020Y4357760D01*
G03X1056960Y4340230I10051J-7760D01*
G37*
G36*
G01X1197620Y4582080D02*
X1108080Y4555720D01*
X1151870Y4507480D01*
X1199520Y4464280D01*
X1212220Y4569520D01*
G03X1197620Y4582080I-12703J0D01*
G37*
G36*
G01X1104280Y4451580D02*
X1199520Y4464280D01*
X1156130Y4512150D01*
X1108080Y4555720D01*
X1091590Y4464810D01*
G03X1104280Y4451580I12690J-529D01*
G37*
G36*
G01X1071220Y4451880D02*
X1058640Y4464440D01*
X1033920Y4442900D01*
X1058640Y4421360D01*
X1071220Y4433920D01*
G03Y4451880I-8980J8980D01*
G37*
G36*
G01X1035880Y4621020D02*
X1048460Y4608460D01*
X1073180Y4630000D01*
X1048460Y4651540D01*
X1035880Y4638980D01*
G03Y4621020I8980J-8980D01*
G37*
G36*
G01X1391730Y363570D02*
X1430020Y406880D01*
X1384300Y455780D01*
X1338580Y406880D01*
X1376870Y363570D01*
G03X1391730I7430J10300D01*
G37*
G36*
G01X1468280Y1116180D02*
X1441920Y1205720D01*
X1393680Y1161930D01*
X1350480Y1114280D01*
X1455720Y1101580D01*
G03X1468280Y1116180I0J12703D01*
G37*
G36*
G01X1651700Y995840D02*
X1804160D01*
X1820000Y980000D01*
Y850000D01*
X1650000D01*
X1570590Y929410D01*
X1570020Y932550D01*
G03X1558390Y960640I-70025J-12540D01*
G03X1570820Y994590I-58394J40630D01*
G03X1560000Y1039500I-70822J6695D01*
G01Y1280000D01*
X1385520Y1454480D01*
G03X1374480Y1465520I-55520J-44480D01*
G01X1360000Y1480000D01*
X1342680D01*
G03X1339500Y1480500I-12637J-70007D01*
G01X1310000Y1510000D01*
Y1600000D01*
X1330000Y1620000D01*
X1410000D01*
X1660000Y1370000D01*
X1750000D01*
X1770000Y1350000D01*
Y1204160D01*
X1651700D01*
Y995840D01*
G37*
G36*
G01X1257220Y3734900D02*
X1221300Y3698980D01*
X1253500Y3686820D01*
X1278900D01*
X1311100Y3698980D01*
X1275180Y3734900D01*
G03X1257220I-8980J-8980D01*
G37*
G36*
G01X1273630Y3770970D02*
X1311920Y3814280D01*
X1266200Y3863180D01*
X1220480Y3814280D01*
X1258770Y3770970D01*
G03X1273630I7430J10300D01*
G37*
G36*
G01X1261010Y4297790D02*
X1351920Y4314280D01*
X1308350Y4362330D01*
X1260480Y4405720D01*
X1247780Y4310480D01*
G03X1261010Y4297790I12701J0D01*
G37*
G36*
G01X1455880Y139420D02*
X1468460Y126860D01*
X1493180Y148400D01*
X1468460Y169940D01*
X1455880Y157380D01*
G03Y139420I8980J-8980D01*
G37*
G36*
G01X1461150Y931550D02*
X1471160Y913780D01*
X1502670Y918290D01*
X1500000Y950480D01*
X1472220D01*
G03X1461150Y931550I0J-12702D01*
G37*
G36*
G01X1491020Y1035400D02*
X1478460Y1022820D01*
X1500000Y998100D01*
X1521540Y1022820D01*
X1508980Y1035400D01*
G03X1491020I-8980J-8980D01*
G37*
G36*
G01X2408540Y2326060D02*
G02X2393960Y2360540I-4J20321D01*
G01X2452660Y2419240D01*
Y2443530D01*
X2455860Y2447440D01*
X2477260D01*
Y2663620D01*
X2530180D01*
Y2836380D01*
X2357420D01*
Y2757040D01*
X2320540Y2720160D01*
Y2712670D01*
X2317340Y2708760D01*
X2295940D01*
Y2449360D01*
X2262000Y2415420D01*
X2260340Y2414660D01*
G03X2218930Y2346830I29659J-64662D01*
G02X2198620Y2326060I-20316J-449D01*
G01X1440660D01*
Y2484830D01*
G02X1475160Y2499380I20321J-6D01*
G01X1547900Y2426640D01*
X2112950D01*
G03X2230810Y2473170I47050J53358D01*
G03X2115600Y2535580I-70810J6828D01*
G01X2112820Y2533360D01*
X2080660D01*
Y2611180D01*
X2080720Y2612280D01*
G03Y2627720I-70720J7720D01*
G01X2080660Y2628270D01*
Y2691180D01*
X2080720Y2692280D01*
G03Y2707720I-70720J7720D01*
G01X2080660Y2708270D01*
Y2775650D01*
G02X2104800Y2795600I20321J-8D01*
G03X2188490Y2845870I15197J69498D01*
G01X2190300Y2852310D01*
X2292050Y2865840D01*
X2330020D01*
Y2999060D01*
G02X2352210Y3019290I20321J-5D01*
G03X2424660Y3060340I7790J70711D01*
G01X2425420Y3062000D01*
X2432260Y3068840D01*
Y3103620D01*
X2630180D01*
Y3139850D01*
X2649100Y3225670D01*
X2667360Y3243940D01*
X3173540D01*
X3175250Y3243310D01*
G03X3224750I24750J66690D01*
G01X3226460Y3243940D01*
X3235540D01*
X3257420Y3225420D01*
Y3203620D01*
X3285300D01*
X3343630Y3162950D01*
X3413940Y3092640D01*
Y2881240D01*
G02X3395040Y2860970I-20319J-1D01*
G03X3346640Y2742950I4959J-70968D01*
G01Y2634720D01*
X3310430Y2598510D01*
G02X3281530Y2599050I-14183J14551D01*
G03X3182950Y2603360I-51529J-49049D01*
G01X3007900D01*
X2982960Y2578420D01*
G02X2948460Y2592970I-14179J14556D01*
G01Y2868050D01*
G03X2888320Y2985920I-53359J47052D01*
G02X2866060Y3006140I-1942J20225D01*
G01Y3013550D01*
X2866690Y3015260D01*
G03X2733310I-66690J24740D01*
G01X2733940Y3013550D01*
Y2527360D01*
X2532640Y2326060D01*
X2408540D01*
G37*
G36*
G01X1536140Y4697690D02*
X1530130Y4761190D01*
X1451660Y4762140D01*
X1454000Y4683800D01*
X1523500D01*
G03X1536140Y4697690I0J12696D01*
G37*
G36*
G01X1390500Y4683800D02*
X1454000D01*
X1456250Y4762250D01*
X1377800Y4760000D01*
Y4696500D01*
G03X1390500Y4683800I12700J0D01*
G37*
G36*
G01X1714120Y758980D02*
X1701540Y771540D01*
X1676820Y750000D01*
X1701540Y728460D01*
X1714120Y741020D01*
G03Y758980I-8980J8980D01*
G37*
G36*
G01X1694770Y742570D02*
X1738080Y704280D01*
X1786980Y750000D01*
X1738080Y795720D01*
X1694770Y757430D01*
G03Y742570I10300J-7430D01*
G37*
G36*
G01X1724120Y3858980D02*
X1711540Y3871540D01*
X1686820Y3850000D01*
X1711540Y3828460D01*
X1724120Y3841020D01*
G03Y3858980I-8980J8980D01*
G37*
G36*
G01X1659520Y3777780D02*
Y3760000D01*
X1692250Y3757750D01*
X1690000Y3790480D01*
X1672220D01*
G03X1659520Y3777780I0J-12700D01*
G37*
G36*
G01X1963050Y4604000D02*
X1746640Y4387580D01*
Y4002100D01*
X1728190Y3983650D01*
X1726830Y3982930D01*
G03X1688870Y3921130I33170J-62932D01*
G03X1661650Y3915250I1121J-71132D01*
G02X1633360Y3933940I-7971J18690D01*
G01Y4628520D01*
G02X1661440Y4647300I20320J0D01*
G03X1816860Y4705060I46559J112700D01*
G02X1853140I18140J-9160D01*
G03X1950590Y4638600I108858J54943D01*
G02X1963050Y4604000I-1906J-20230D01*
G37*
G36*
G01X1844040Y342900D02*
X1765300D01*
X1763500Y252200D01*
X1854200Y254000D01*
Y332740D01*
G03X1844040Y342900I-10160J0D01*
G37*
G36*
G01X1827420Y663620D02*
Y467610D01*
X1820050Y388640D01*
X1773450D01*
G02X1761170Y419740I4605J19793D01*
G03X1722220Y626460I-120870J84255D01*
G02X1733600Y663620I11377J16838D01*
G01X1827420D01*
G37*
G36*
G01X1869990Y346800D02*
X1959520Y374280D01*
X1915290Y422060D01*
X1868080Y465720D01*
X1857920Y356780D01*
G03X1869990Y346800I10161J0D01*
G37*
G36*
G01X1870180Y656380D02*
Y836380D01*
X1860660D01*
Y989340D01*
X2100660D01*
Y1400660D01*
X1983160D01*
X1953650Y1371150D01*
G03X1928850Y1346350I36350J-61150D01*
G01X1859340Y1276840D01*
Y1024160D01*
X1833340D01*
X1810660Y1046840D01*
Y1347240D01*
X1967360Y1503940D01*
X2179430D01*
G02X2193980Y1469440I-6J-20321D01*
G01X2183240Y1458700D01*
Y1425370D01*
X2168400Y1408760D01*
X2145940D01*
Y1147440D01*
X2153310D01*
X2159170Y1137280D01*
X2156240Y1132200D01*
G03X2383200Y987750I116609J-67309D01*
G02X2416500I16650J-11639D01*
G03X2426320Y975330I110345J77153D01*
G01X2432710Y968170D01*
X2396640Y932100D01*
Y762100D01*
X2357900Y723360D01*
X2200180D01*
Y837020D01*
G02X2184940Y856590I5081J19676D01*
G03X2042660I-71140J-390D01*
G02X2027420Y837020I-20321J106D01*
G01Y658700D01*
X2016290Y656380D01*
X1870180D01*
G37*
G36*
G01X1851200Y1105990D02*
X1819350Y1138600D01*
X1752680Y1100000D01*
X1819350Y1061400D01*
X1851200Y1094010D01*
G03Y1105990I-11200J5990D01*
G37*
G36*
G01X1834120Y2158980D02*
X1821540Y2171540D01*
X1796820Y2150000D01*
X1821540Y2128460D01*
X1834120Y2141020D01*
G03Y2158980I-8980J8980D01*
G37*
G36*
G01X1780000Y2590000D02*
Y3140000D01*
X1960000D01*
X1990000Y3110000D01*
X2040000D01*
Y2590000D01*
X1780000D01*
G37*
G36*
G01X1838980Y3515880D02*
X1851540Y3528460D01*
X1830000Y3553180D01*
X1808460Y3528460D01*
X1821020Y3515880D01*
G03X1838980I8980J8980D01*
G37*
G36*
G01X1817700Y3553160D02*
X1812480Y3481710D01*
X1875240Y3427020D01*
X1904470Y3493500D01*
X1837680Y3560120D01*
G03X1817700Y3553160I-7678J-10118D01*
G37*
G36*
G01X1774120Y3628980D02*
X1761540Y3641540D01*
X1736820Y3620000D01*
X1761540Y3598460D01*
X1774120Y3611020D01*
G03Y3628980I-8980J8980D01*
G37*
G36*
G01X1777780Y3957780D02*
X1760000Y3940000D01*
X1758650Y3917130D01*
X1790480Y3920000D01*
Y3957780D01*
X1777780D01*
G37*
G36*
G01X1837950Y3954120D02*
X1825390Y3941540D01*
X1846930Y3916820D01*
X1868470Y3941540D01*
X1855910Y3954120D01*
G03X1837950I-8980J-8980D01*
G37*
G36*
G01X1907560Y509290D02*
X1868080Y465720D01*
X1913800Y417460D01*
X1959520Y465720D01*
X1920040Y509290D01*
G03X1907560I-6240J-8020D01*
G37*
G36*
G01X1920040Y480710D02*
X1959520Y524280D01*
X1913800Y572540D01*
X1868080Y524280D01*
X1907560Y480710D01*
G03X1920040I6240J8020D01*
G37*
G36*
G01X2111060Y634590D02*
X2020480Y615720D01*
X2064100Y567620D01*
X2111920Y524280D01*
X2124620Y621920D01*
G03X2111060Y634590I-12699J0D01*
G37*
G36*
G01X2000000Y1360000D02*
X2060000D01*
Y1030000D01*
X1900000D01*
Y1260000D01*
X2000000Y1360000D01*
G37*
G36*
G01X1970720Y3954120D02*
X1958160Y3941540D01*
X1979700Y3916820D01*
X2001240Y3941540D01*
X1988680Y3954120D01*
G03X1970720I-8980J-8980D01*
G37*
G36*
G01X2106370Y839030D02*
X2068080Y795720D01*
X2113800Y746820D01*
X2159520Y795720D01*
X2121230Y839030D01*
G03X2106370I-7430J-10300D01*
G37*
G36*
G01X2122780Y822080D02*
X2135340Y834660D01*
X2113800Y859380D01*
X2092260Y834660D01*
X2104820Y822080D01*
G03X2122780I8980J8980D01*
G37*
G36*
G01X2229010Y1415570D02*
X2186600Y1368100D01*
X2236600Y1274920D01*
X2286600Y1368100D01*
X2244190Y1415570D01*
G03X2229010I-7590J-10180D01*
G37*
G36*
G01X2125880Y2471020D02*
X2138460Y2458460D01*
X2163180Y2480000D01*
X2138460Y2501540D01*
X2125880Y2488980D01*
G03Y2471020I8980J-8980D01*
G37*
G36*
G01X2142880Y2895580D02*
X2120000D01*
X2117490Y2863150D01*
X2149980Y2861600D01*
X2155090Y2879380D01*
G03X2142880Y2895580I-12210J3499D01*
G37*
G36*
G01X2162770Y2889670D02*
X2289360Y2906500D01*
X2228030Y2972310D01*
X2162360Y3033500D01*
X2149660Y2902360D01*
G03X2162770Y2889670I12697J0D01*
G37*
G36*
G01X2206370Y3279030D02*
X2168080Y3235720D01*
X2213800Y3186820D01*
X2259520Y3235720D01*
X2221230Y3279030D01*
G03X2206370I-7430J-10300D01*
G37*
G36*
G01X2212350Y3435060D02*
X2168080Y3385720D01*
X2213570Y3336830D01*
X2259520Y3385720D01*
X2228940Y3433950D01*
G03X2212350Y3435060I-8936J-9022D01*
G37*
G36*
G01X2221230Y3250970D02*
X2259520Y3294280D01*
X2213800Y3343180D01*
X2168080Y3294280D01*
X2206370Y3250970D01*
G03X2221230I7430J10300D01*
G37*
G36*
G01X2228980Y3405880D02*
X2241540Y3418460D01*
X2220000Y3443180D01*
X2198460Y3418460D01*
X2211020Y3405880D01*
G03X2228980I8980J8980D01*
G37*
G36*
G01X2174120Y3768980D02*
X2161540Y3781540D01*
X2136820Y3760000D01*
X2161540Y3738460D01*
X2174120Y3751020D01*
G03Y3768980I-8980J8980D01*
G37*
G36*
G01X3207050Y4526640D02*
X3310680Y4630260D01*
X3369640D01*
G03X3418920Y4639520I210J134640D01*
G02X3446640Y4620600I7400J-18924D01*
G01Y4259990D01*
G02X3422690Y4240000I-20319J2D01*
G03X3356640Y4122950I-12691J-69999D01*
G01Y3962100D01*
X3267900Y3873360D01*
X3021380D01*
G02X3001090Y3892580I2J20322D01*
G03X3000030Y3902520I-71093J-2555D01*
G01X2999110Y3907660D01*
X3026530Y3935840D01*
X3050020D01*
Y4093590D01*
X3059400Y4103620D01*
X3063090Y4104050D01*
G03X3071160Y4243910I-8383J70647D01*
G03X3063200Y4245330I-16453J-69211D01*
G01X3059710Y4245750D01*
X3012100Y4293360D01*
X2407900D01*
X2070270Y3955740D01*
G02X2039120Y3959120I-14179J14552D01*
G03X2033060Y3967050I-59416J-39125D01*
G01Y4382940D01*
X2052140Y4402020D01*
G02X2086640Y4387470I14179J-14556D01*
G01Y4337050D01*
G03X2068960Y4293770I53358J-47048D01*
G03X2190180Y4239580I71039J-3767D01*
G02X2204520I7170J-7205D01*
G03X2325740Y4293770I50181J50423D01*
G03X2308060Y4337050I-71038J-3768D01*
G01Y4416640D01*
X2762100D01*
X2872100Y4526640D01*
X3207050D01*
G37*
G36*
G01X2131020Y4324120D02*
X2118460Y4311540D01*
X2140000Y4286820D01*
X2161540Y4311540D01*
X2148980Y4324120D01*
G03X2131020I-8980J-8980D01*
G37*
G36*
G01X3916640Y1067900D02*
X4014540Y970000D01*
X3767900Y723360D01*
X3262600D01*
G02X3242910Y748700I-2J20318D01*
G03X2982170Y897620I-150907J38502D01*
G01X2974990Y890470D01*
X2832100Y1033360D01*
X2681400D01*
G02X2661140Y1055150I5J20319D01*
G03X2416500Y1142050I-134289J9755D01*
G02X2383200I-16650J11639D01*
G03X2327260Y1188060I-110347J-77151D01*
G01Y1409670D01*
G02X2318720Y1443260I6017J19410D01*
G01X2322100Y1446640D01*
X2787900D01*
X2877900Y1356640D01*
X3499340D01*
Y1046380D01*
X3290660D01*
Y1250660D01*
X2939340D01*
Y1019340D01*
X3309820D01*
Y873620D01*
X3348040D01*
X3430920Y863620D01*
X3438900Y855630D01*
X3439300Y852100D01*
G03X3467540Y802920I70700J7899D01*
G03X3556830Y806450I42458J57080D01*
G02X3570200I6685J-7653D01*
G03X3613830Y788930I46835J53548D01*
G03X3681180Y890760I3203J71069D01*
G01X3680180Y892850D01*
Y1019340D01*
X3710660D01*
Y1241750D01*
G03Y1258250I-70660J8250D01*
G01Y1315410D01*
G03Y1331910I-70660J8250D01*
G01Y1356640D01*
X3817900D01*
X3916640Y1257900D01*
Y1067900D01*
G37*
G36*
G01X2397810Y2440720D02*
X2436600Y2488100D01*
X2386600Y2584450D01*
X2336600Y2488100D01*
X2375390Y2440720D01*
G03X2397810I11210J22790D01*
G37*
G36*
G01X2375390Y2715480D02*
X2336600Y2668100D01*
X2386600Y2571750D01*
X2436600Y2668100D01*
X2397810Y2715480D01*
G03X2375390I-11210J-22790D01*
G37*
G36*
G01X2348240Y3121340D02*
X2338460Y3111540D01*
X2357330Y3084240D01*
X2366200Y3096200D01*
Y3103380D01*
X2348240Y3121340D01*
G37*
G36*
G01X2455440Y3200310D02*
X2411920Y3235720D01*
X2359850Y3190000D01*
X2411920Y3144280D01*
X2455440Y3179690D01*
G03Y3200310I-23210J10310D01*
G37*
G36*
G01X2376510Y3100760D02*
X2411920Y3144280D01*
X2366200Y3196350D01*
X2320480Y3144280D01*
X2355890Y3100760D01*
G03X2376510I10310J23210D01*
G37*
G36*
G01X2351060Y3433950D02*
X2320480Y3385720D01*
X2366430Y3336830D01*
X2411920Y3385720D01*
X2367650Y3435060D01*
G03X2351060Y3433950I-7654J-10132D01*
G37*
G36*
G01X2357220Y3480320D02*
X2338460Y3461540D01*
X2359380Y3436890D01*
X2384590Y3456650D01*
X2378230Y3475420D01*
G03X2357220Y3480320I-12028J-4080D01*
G37*
G36*
G01X2368980Y3405880D02*
X2381540Y3418460D01*
X2360000Y3443180D01*
X2338460Y3418460D01*
X2351020Y3405880D01*
G03X2368980I8980J8980D01*
G37*
G36*
G01X2373630Y3460970D02*
X2411920Y3504280D01*
X2366200Y3553180D01*
X2320480Y3504280D01*
X2358770Y3460970D01*
G03X2373630I7430J10300D01*
G37*
G36*
G01X2609980Y3935840D02*
X2638760D01*
X2660780Y3913940D01*
Y3913760D01*
X2666680Y3907860D01*
G02X2652130Y3873360I-14556J-14179D01*
G01X2392100D01*
X2375800Y3889670D01*
X2375400Y3893200D01*
G03X2368530Y3916720I-70702J-7888D01*
G03X2334010Y3950120I-63824J-31425D01*
G02X2328330Y3982860I8685J18369D01*
G01X2467400Y4121940D01*
X2609980D01*
Y3935840D01*
G37*
G36*
G01X2335180Y3867520D02*
Y3885300D01*
X2302450Y3887550D01*
X2304700Y3854820D01*
X2322480D01*
G03X2335180Y3867520I0J12700D01*
G37*
G36*
G01X2245720Y4324120D02*
X2233160Y4311540D01*
X2254700Y4286820D01*
X2276240Y4311540D01*
X2263680Y4324120D01*
G03X2245720I-8980J-8980D01*
G37*
G36*
G01X2277650Y4676000D02*
X2353850D01*
X2356100Y4767150D01*
X2264950Y4764900D01*
Y4688700D01*
G03X2277650Y4676000I12700J0D01*
G37*
G36*
G01X2528220Y1684880D02*
X2511540Y1701540D01*
X2486860Y1680440D01*
X2508320Y1656120D01*
X2524990Y1664580D01*
G03X2528220Y1684880I-5751J11322D01*
G37*
G36*
G01X2524120Y1811880D02*
X2511540Y1824440D01*
X2486820Y1802900D01*
X2511540Y1781360D01*
X2524120Y1793920D01*
G03Y1811880I-8980J8980D01*
G37*
G36*
G01X2583120Y3284100D02*
X2498080Y3235720D01*
X2540310Y3184690D01*
X2589520Y3144280D01*
X2614920Y3259520D01*
G03X2583120Y3284100I-25400J0D01*
G37*
G36*
G01X2454560Y3179690D02*
X2498080Y3144280D01*
X2550150Y3190000D01*
X2498080Y3235720D01*
X2454560Y3200310D01*
G03Y3179690I23210J-10310D01*
G37*
G36*
G01X2452580Y3276380D02*
Y3426380D01*
X2451210D01*
G02X2430950Y3445210I5J20319D01*
G03X2430160Y3451780I-70951J-5199D01*
G01X2430020Y3452610D01*
Y3463620D01*
X2452580D01*
Y3626640D01*
X2537900D01*
X2586640Y3577900D01*
Y3350060D01*
X2546790Y3310210D01*
X2487320Y3276380D01*
X2452580D01*
G37*
G36*
G01X2531650Y4676000D02*
X2607850D01*
X2610100Y4767150D01*
X2518950Y4764900D01*
Y4688700D01*
G03X2531650Y4676000I12700J0D01*
G37*
G36*
G01X2731840Y257200D02*
X2632000D01*
X2630200Y145400D01*
X2742000Y147200D01*
Y247040D01*
G03X2731840Y257200I-10160J0D01*
G37*
G36*
G01X2742000Y687360D02*
Y787200D01*
X2630200Y789000D01*
X2632000Y677200D01*
X2731840D01*
G03X2742000Y687360I0J10160D01*
G37*
G36*
G01X2665590Y1622540D02*
X2833080D01*
X2871020Y1587490D01*
Y1564620D01*
X3029820D01*
Y1463360D01*
X2922100D01*
X2832100Y1553360D01*
X2671380D01*
G02X2651080Y1572860I4J20321D01*
G03X2646580Y1595060I-71082J-2852D01*
G02X2665590Y1622540I19016J7160D01*
G37*
G36*
G01X2730480Y3672220D02*
Y3690000D01*
X2697750Y3692250D01*
X2700000Y3659520D01*
X2717780D01*
G03X2730480Y3672220I0J12700D01*
G37*
G36*
G01X2721380Y3925420D02*
X2772750Y3976500D01*
X2714140Y4043180D01*
X2655530Y3976500D01*
X2706900Y3925420D01*
G03X2721380I7240J10440D01*
G37*
G36*
G01X3198470Y43810D02*
G03X2965530I-116470J103390D01*
G02X2950340Y10000I-15196J-13490D01*
G01X2763660D01*
G02X2748370Y43700I5J20321D01*
G03X2787740Y147200I-116361J103500D01*
G01Y231070D01*
X2834620Y277950D01*
Y319350D01*
X2847550Y333620D01*
X2870180D01*
Y483620D01*
X3022580D01*
Y505960D01*
X3034670Y516640D01*
X3162100D01*
X3187280Y541820D01*
G02X3221650Y524880I14187J-14552D01*
G03X3330270Y361440I145852J-20882D01*
G03X3362050Y356760I37228J142558D01*
G02X3378500Y325640I-752J-20305D01*
G03X3482850Y119710I113997J-71638D01*
G03X3627140Y254000I9653J134290D01*
G01Y310300D01*
X3687140Y333620D01*
X3720180D01*
Y483620D01*
X3872580D01*
Y656380D01*
X3869570D01*
X3864380Y668920D01*
X4092100Y896640D01*
X4194110D01*
G02X4211810Y866350I-3J-20318D01*
G03X4347790Y634160I135687J-76449D01*
G01X4412560D01*
G02X4417420Y620970I-15460J-13187D01*
G01Y333620D01*
X4440050D01*
X4450020Y322620D01*
G02X4442490Y305640I-7530J-6820D01*
G01X4347790D01*
G03X4233190Y44120I-294J-155741D01*
G02X4218280Y10000I-14911J-13802D01*
G01X3213660D01*
G02X3198470Y43810I6J20320D01*
G37*
G36*
G01X2790040Y330710D02*
X2829520Y374280D01*
X2783800Y422540D01*
X2738080Y374280D01*
X2777560Y330710D01*
G03X2790040I6240J8020D01*
G37*
G36*
G01X2777560Y509290D02*
X2738080Y465720D01*
X2783800Y417460D01*
X2829520Y465720D01*
X2790040Y509290D01*
G03X2777560I-6240J-8020D01*
G37*
G36*
G01X2790040Y480710D02*
X2829520Y524280D01*
X2783800Y572540D01*
X2738080Y524280D01*
X2777560Y480710D01*
G03X2790040I6240J8020D01*
G37*
G36*
G01X2778720Y644200D02*
X2749750Y615720D01*
X2783800Y567460D01*
X2817850Y615720D01*
X2788880Y644200D01*
G03X2778720I-5080J-8800D01*
G37*
G36*
G01X2843950Y1667850D02*
X2911680Y1605280D01*
X2960490Y1650260D01*
X2911680Y1696720D01*
X2849470Y1687850D01*
G03X2843950Y1667850I4301J-11949D01*
G37*
G36*
G01X2867970Y1795340D02*
X2911680Y1757680D01*
X2960570Y1803420D01*
X2911680Y1849120D01*
X2867890Y1810350D01*
G03X2867970Y1795340I10282J-7450D01*
G37*
G36*
G01X2868160Y2047090D02*
X2911680Y2011680D01*
X2963750Y2057400D01*
X2911680Y2103120D01*
X2868160Y2067710D01*
G03Y2047090I23210J-10310D01*
G37*
G36*
G01X2904080Y2880980D02*
X2916640Y2893560D01*
X2895100Y2918280D01*
X2873560Y2893560D01*
X2886120Y2880980D01*
G03X2904080I8980J8980D01*
G37*
G36*
G01X2910480Y3672220D02*
Y3690000D01*
X2877750Y3692250D01*
X2880000Y3659520D01*
X2897780D01*
G03X2910480Y3672220I0J12700D01*
G37*
G36*
G01X2820480D02*
Y3690000D01*
X2787750Y3692250D01*
X2790000Y3659520D01*
X2807780D01*
G03X2820480Y3672220I0J12700D01*
G37*
G36*
G01X2795880Y3881020D02*
X2808460Y3868460D01*
X2833180Y3890000D01*
X2808460Y3911540D01*
X2795880Y3898980D01*
G03Y3881020I8980J-8980D01*
G37*
G36*
G01X2785650Y4676000D02*
X2861850D01*
X2864100Y4767150D01*
X2772950Y4764900D01*
Y4688700D01*
G03X2785650Y4676000I12700J0D01*
G37*
G36*
G01X2928770Y659030D02*
X2890480Y615720D01*
X2936200Y566820D01*
X2981920Y615720D01*
X2943630Y659030D01*
G03X2928770I-7430J-10300D01*
G37*
G36*
G01X3025230Y577430D02*
X2981920Y615720D01*
X2933020Y570000D01*
X2981920Y524280D01*
X3025230Y562570D01*
G03Y577430I-10300J7430D01*
G37*
G36*
G01X2980000Y1210000D02*
X3250000D01*
Y1060000D01*
X2980000D01*
Y1210000D01*
G37*
G36*
G01X3028520Y1986880D02*
X3003120Y2103120D01*
X2953950Y2062730D01*
X2911680Y2011680D01*
X2996470Y1962370D01*
G03X3028520Y1986880I6653J24510D01*
G37*
G36*
G01X4909820Y2070150D02*
X4890900Y1984330D01*
X4839540Y1932960D01*
X4366280D01*
Y2105680D01*
X4191540D01*
X4180860Y2117770D01*
Y2160260D01*
G03X4181840Y2258720I-50860J49741D01*
G03X4082950Y2263360I-51840J-48719D01*
G01X3830600D01*
X3825900Y2258660D01*
X3813360Y2263850D01*
Y2802630D01*
G03X3820180Y2811490I-52790J47690D01*
G03X3731150Y2915100I-59601J38842D01*
G03X3696320Y2880860I29428J-64770D01*
G03X3619300Y2817900I-6319J-70859D01*
G01X3618900Y2814370D01*
X3566640Y2762100D01*
Y2482110D01*
X3196640Y2112110D01*
Y1889780D01*
X3175860D01*
Y1907560D01*
X3062760Y2020670D01*
X3043780Y2107510D01*
Y2143780D01*
X3023460D01*
Y2270040D01*
X3077360Y2323940D01*
X3287360D01*
X3546060Y2582640D01*
Y3029140D01*
X3570860Y3053940D01*
X3602640D01*
X3712640Y2943940D01*
X3842640D01*
X3933420Y2853160D01*
X3952220Y2769180D01*
Y2733020D01*
X4093340D01*
Y2433240D01*
X4442640Y2083940D01*
X4909820D01*
Y2070150D01*
G37*
G36*
G01X2947090Y2146640D02*
X2911680Y2103120D01*
X2957400Y2051050D01*
X3003120Y2103120D01*
X2967710Y2146640D01*
G03X2947090I-10310J-23210D01*
G37*
G36*
G01X3004120Y3698980D02*
X2991540Y3711540D01*
X2966820Y3690000D01*
X2991540Y3668460D01*
X3004120Y3681020D01*
G03Y3698980I-8980J8980D01*
G37*
G36*
G01X2921020Y3924120D02*
X2908460Y3911540D01*
X2930000Y3886820D01*
X2951540Y3911540D01*
X2938980Y3924120D01*
G03X2921020I-8980J-8980D01*
G37*
G36*
G01X2937930Y3903080D02*
X3009360Y3976500D01*
X2946250Y4043150D01*
X2882360Y3976500D01*
X2919840Y3905380D01*
G03X2937930Y3903080I10160J7620D01*
G37*
G36*
G01X2920580Y4166320D02*
X2933160Y4153760D01*
X2957880Y4175300D01*
X2933160Y4196840D01*
X2920580Y4184280D01*
G03Y4166320I8980J-8980D01*
G37*
G36*
G01X3024220Y4193080D02*
Y4174700D01*
X3056910Y4172420D01*
X3055130Y4205160D01*
X3037350Y4205770D01*
G03X3024220Y4193080I-433J-12690D01*
G37*
G36*
G01X3039650Y4676000D02*
X3115850D01*
X3118100Y4767150D01*
X3026950Y4764900D01*
Y4688700D01*
G03X3039650Y4676000I12700J0D01*
G37*
G36*
G01X3205230Y1507430D02*
X3161920Y1545720D01*
X3113020Y1500000D01*
X3161920Y1454280D01*
X3205230Y1492570D01*
G03Y1507430I-10300J7430D01*
G37*
G36*
G01X3205880Y1491020D02*
X3218460Y1478460D01*
X3243180Y1500000D01*
X3218460Y1521540D01*
X3205880Y1508980D01*
G03Y1491020I8980J-8980D01*
G37*
G36*
G01X3099490Y1740240D02*
X3064080Y1696720D01*
X3109800Y1644650D01*
X3155520Y1696720D01*
X3120110Y1740240D01*
G03X3099490I-10310J-23210D01*
G37*
G36*
G01Y1892640D02*
X3064080Y1849120D01*
X3109800Y1797050D01*
X3155520Y1849120D01*
X3120110Y1892640D01*
G03X3099490I-10310J-23210D01*
G37*
G36*
G01X3120110Y1714160D02*
X3155520Y1757680D01*
X3109800Y1809750D01*
X3064080Y1757680D01*
X3099490Y1714160D01*
G03X3120110I10310J23210D01*
G37*
G36*
G01X3195880Y2541020D02*
X3208460Y2528460D01*
X3233180Y2550000D01*
X3208460Y2571540D01*
X3195880Y2558980D01*
G03Y2541020I8980J-8980D01*
G37*
G36*
G01X3140480Y3422220D02*
Y3440000D01*
X3107750Y3442250D01*
X3110000Y3409520D01*
X3127780D01*
G03X3140480Y3422220I0J12700D01*
G37*
G36*
G01X3244120Y3448980D02*
X3231540Y3461540D01*
X3206820Y3440000D01*
X3231540Y3418460D01*
X3244120Y3431020D01*
G03Y3448980I-8980J8980D01*
G37*
G36*
G01X3468280Y916180D02*
X3441920Y1005720D01*
X3393680Y961930D01*
X3350480Y914280D01*
X3455720Y901580D01*
G03X3468280Y916180I0J12703D01*
G37*
G36*
G01X3311020Y1454900D02*
X3275100Y1418980D01*
X3307300Y1406820D01*
X3332700D01*
X3364900Y1418980D01*
X3328980Y1454900D01*
G03X3311020I-8980J-8980D01*
G37*
G36*
G01X3364120Y1684880D02*
X3351540Y1697440D01*
X3326820Y1675900D01*
X3351540Y1654360D01*
X3364120Y1666920D01*
G03Y1684880I-8980J8980D01*
G37*
G36*
G01X3364820Y1667890D02*
X3429880Y1607980D01*
X3478700Y1653020D01*
X3429880Y1699420D01*
X3369690Y1687580D01*
G03X3364820Y1667890I4982J-11679D01*
G37*
G36*
G01X3364120Y1811880D02*
X3351540Y1824440D01*
X3326820Y1802900D01*
X3351540Y1781360D01*
X3364120Y1793920D01*
G03Y1811880I-8980J8980D01*
G37*
G36*
G01X3384000Y1794670D02*
X3429880Y1760380D01*
X3478770Y1806220D01*
X3429880Y1851820D01*
X3383460Y1810460D01*
G03X3384000Y1794670I10209J-7555D01*
G37*
G36*
G01X3913940Y1737940D02*
X3925680Y1726190D01*
X3953780Y1698090D01*
G02X3954000Y1669580I-14366J-14367D01*
G03X3936450Y1638780I51085J-49509D01*
G03X3934000Y1617190I68631J-18722D01*
G02X3913690Y1596380I-20315J-489D01*
G01X3714380D01*
Y1892480D01*
X3389220D01*
Y1885670D01*
G02X3360540Y1867150I-20321J2D01*
G03X3328560Y1874030I-30552J-64247D01*
G03X3325080Y1873870I1526J-71124D01*
G02X3303360Y1894140I-1400J20271D01*
G01Y1966160D01*
G02X3325080Y1986430I20320J-1D01*
G03X3326820Y1986330I4951J70966D01*
G03X3354750Y1990710I3163J71068D01*
G01X3356460Y1991340D01*
X3389220D01*
Y1971020D01*
X3561980D01*
Y2007030D01*
X3580530Y2087110D01*
X3612660Y2119230D01*
G02X3643040Y2117380I14372J-14364D01*
G03X3744930Y2104850I56957J42622D01*
G02X3757770I6420J-7880D01*
G03X3810390Y2089280I44932J55151D01*
G03X3853390Y2110080I-7680J70723D01*
G02X3886710Y2103420I14476J-14257D01*
G03X3899340Y2082950I65988J26583D01*
G01Y2019600D01*
X3983920Y1935020D01*
G02X3971730Y1900660I-14556J-14178D01*
G03X3913310Y1805260I8275J-70655D01*
G01X3913940Y1803550D01*
Y1737940D01*
G37*
G36*
G01X3386360Y2047090D02*
X3429880Y2011680D01*
X3481950Y2057400D01*
X3429880Y2103120D01*
X3386360Y2067710D01*
G03Y2047090I23210J-10310D01*
G37*
G36*
G01X3408980Y2755880D02*
X3421540Y2768460D01*
X3400000Y2793180D01*
X3378460Y2768460D01*
X3391020Y2755880D01*
G03X3408980I8980J8980D01*
G37*
G36*
G01X3414920Y3210480D02*
X3389520Y3335720D01*
X3340630Y3295500D01*
X3298080Y3244280D01*
X3380710Y3186660D01*
G03X3414920Y3210480I8812J23820D01*
G37*
G36*
G01X3236120Y3296720D02*
X3298080Y3244280D01*
X3349990Y3288560D01*
X3298080Y3335720D01*
X3244110Y3331410D01*
G03X3236120Y3296720I13661J-21412D01*
G37*
G36*
G01X3293650Y4676000D02*
X3369850D01*
X3372100Y4767150D01*
X3280950Y4764900D01*
Y4688700D01*
G03X3293650Y4676000I12700J0D01*
G37*
G36*
G01X3571240Y342900D02*
X3492500D01*
X3490700Y252200D01*
X3581400Y254000D01*
Y332740D01*
G03X3571240Y342900I-10160J0D01*
G37*
G36*
G01X3547420Y616640D02*
Y467500D01*
X3540520Y388640D01*
X3500650D01*
G02X3488370Y419740I4605J19793D01*
G03X3490360Y585330I-120870J84260D01*
G02X3507450Y616640I17092J10990D01*
G01X3547420D01*
G37*
G36*
G01X3479520Y877780D02*
Y860000D01*
X3512250Y857750D01*
X3510000Y890480D01*
X3492220D01*
G03X3479520Y877780I0J-12700D01*
G37*
G36*
G01X3628760Y855140D02*
X3639520Y914280D01*
X3593080Y963090D01*
X3548080Y914280D01*
X3609170Y850020D01*
G03X3628760Y855140I7856J9979D01*
G37*
G36*
G01X3542920Y1060000D02*
X3540600Y1066940D01*
G03X3540540Y1067120I-50652J-16784D01*
G01X3540000Y1068710D01*
Y1350000D01*
X3546640Y1356640D01*
X3663360D01*
X3670000Y1350000D01*
Y1060000D01*
X3542920D01*
G37*
G36*
G01X3516360Y2146230D02*
X3429880Y2103120D01*
X3471910Y2052240D01*
X3521320Y2011680D01*
X3546720Y2121320D01*
G03X3516360Y2146230I-25399J0D01*
G37*
G36*
G01X3497960Y3038540D02*
X3563900Y3104490D01*
X3480000Y3120000D01*
Y3056500D01*
X3497960Y3038540D01*
G37*
G36*
G01X5409800Y3497120D02*
X5251310Y3338640D01*
G03X5231720Y3329960I18695J-68639D01*
G01X4946730D01*
X4930160Y3343840D01*
Y3365520D01*
X4544040D01*
Y3162280D01*
X4561820D01*
Y2999720D01*
X4714220D01*
Y2847320D01*
X4886980D01*
Y2854710D01*
G02X4906370Y2875000I20319J-8D01*
G03X4928650Y2879410I-2496J71095D01*
G01X4930360Y2880040D01*
X5203940D01*
Y2476060D01*
X5102640D01*
X4842640Y2216060D01*
X4497360D01*
X4225460Y2487960D01*
Y2792940D01*
X4226090Y2794650D01*
G03X4166550Y2890180I-66693J24752D01*
G03X4148430Y2889690I-7153J-70778D01*
G02X4125370Y2905780I-3134J20078D01*
G01X4094700D01*
X4035080Y2938350D01*
X3897360Y3076060D01*
X3891240D01*
G02X3870970Y3094960I-1J20319D01*
G03X3807900Y3160700I-70968J-4961D01*
G01X3804370Y3161100D01*
X3741140Y3224320D01*
Y3229600D01*
G03X3738630Y3248720I-71139J386D01*
G03X3601870Y3250470I-68631J-18722D01*
G03X3601270Y3211630I68130J-20477D01*
G02X3581640Y3186060I-19629J-5251D01*
G01X3507360D01*
X3449660Y3243770D01*
X3438500Y3298780D01*
G02X3458410Y3323140I19914J4040D01*
G01X3921400D01*
X4665360Y2579180D01*
Y2357050D01*
G03X4759360Y2251610I53359J-47051D01*
G03X4853360Y2357050I40641J58389D01*
G01Y2617050D01*
X4038270Y3432140D01*
G02X4052820Y3466640I14556J14179D01*
G01X5042100D01*
X5253360Y3677900D01*
Y4588580D01*
X5254110Y4590430D01*
G03X5256450Y4597360I-54092J22125D01*
G01X5262680Y4630260D01*
X5282490D01*
Y4899540D01*
X5013210D01*
Y4884070D01*
G02X4979900Y4868450I-20321J7D01*
G03X4783500Y4842050I-86055J-103550D01*
G02X4750200I-16650J11639D01*
G03X4529500I-110350J-77150D01*
G02X4496200I-16650J11639D01*
G03X4275500I-110350J-77150D01*
G02X4242200I-16650J11639D01*
G03X4052090Y4873370I-110345J-77150D01*
G01X4030150Y4895310D01*
G02X4044510Y4930000I14367J14370D01*
G01X6940610D01*
G02X6953290Y4893800I-1J-20321D01*
G03X6882390Y4401750I226712J-283800D01*
G02X6862240Y4370080I-16648J-11653D01*
G03X6785340Y4329660I-12238J-70079D01*
G01X6784580Y4328000D01*
X6712640Y4256060D01*
X5799630D01*
X5784490Y4268700D01*
Y4290350D01*
X5375510D01*
Y4089650D01*
X5397160D01*
X5409800Y4074510D01*
Y3497120D01*
G37*
G36*
G01X3963850Y4058000D02*
X3979570Y4073750D01*
X3983490Y4073940D01*
G03X4050700Y4152880I-3493J71056D01*
G03X3947210Y4208130I-70701J-7881D01*
G03X3932950Y4198360I32781J-63138D01*
G01X3889100D01*
X3881990Y4191260D01*
X3818910Y4186380D01*
X3779820D01*
Y4040660D01*
X3719340D01*
Y3832190D01*
X3718920Y3830770D01*
G03Y3790070I68160J-20350D01*
G01X3719340Y3788650D01*
Y3743360D01*
X3477870D01*
G02X3463320Y3777860I6J20321D01*
G01X3553360Y3867900D01*
Y4215840D01*
X3750020D01*
Y4424160D01*
X3668760D01*
Y4637970D01*
G03X3734200Y4687750I-44904J126933D01*
G02X3767500I16650J-11639D01*
G03X3928590Y4640190I110344J77151D01*
G02X3956570Y4621370I7659J-18822D01*
G01Y4617970D01*
X3964360Y4610170D01*
X3988570Y4585960D01*
X3978780Y4576190D01*
X3975130Y4575850D01*
G03X3965240Y4574230I6526J-70841D01*
G03X3965090Y4574200I13868J-69728D01*
G01X3963930Y4573920D01*
X3942420D01*
Y4576380D01*
X3779820D01*
Y4403620D01*
X3952580D01*
Y4413960D01*
G02X3974830Y4434180I20319J-7D01*
G03X4036820Y4460140I6773J70819D01*
G03X4052160Y4514080I-55220J44855D01*
G02X4072350Y4536640I20196J2240D01*
G01X4114100D01*
X4149820Y4500920D01*
Y4403620D01*
X4199340D01*
Y4259230D01*
G03X4175060Y4206480I46858J-53531D01*
G02X4159820Y4187020I-20318J215D01*
G01Y4013620D01*
X4199340D01*
Y3868760D01*
X3992250D01*
G03X3990660Y3870080I-51099J-59933D01*
G01Y4040660D01*
X3971030D01*
G02X3963850Y4058000I6J10159D01*
G37*
G36*
G01X3418980Y4135880D02*
X3431540Y4148460D01*
X3410000Y4173180D01*
X3388460Y4148460D01*
X3401020Y4135880D01*
G03X3418980I8980J8980D01*
G37*
G36*
G01X3590730Y339770D02*
X3679520Y374280D01*
X3635180Y422130D01*
X3588080Y465720D01*
X3577920Y349580D01*
G03X3590730Y339770I10161J0D01*
G37*
G36*
G01X3627560Y509290D02*
X3588080Y465720D01*
X3633800Y417460D01*
X3679520Y465720D01*
X3640040Y509290D01*
G03X3627560I-6240J-8020D01*
G37*
G36*
G01X3640040Y480710D02*
X3679520Y524280D01*
X3633800Y572540D01*
X3588080Y524280D01*
X3627560Y480710D01*
G03X3640040I6240J8020D01*
G37*
G36*
G01X3608050Y894120D02*
X3595490Y881540D01*
X3617030Y856820D01*
X3638570Y881540D01*
X3626010Y894120D01*
G03X3608050I-8980J-8980D01*
G37*
G36*
G01X3675180Y1522030D02*
X3738080Y1464280D01*
X3786910Y1509370D01*
X3738080Y1555720D01*
X3679530Y1541430D01*
G03X3675180Y1522030I5539J-11430D01*
G37*
G36*
G01X3694120Y1538980D02*
X3681540Y1551540D01*
X3656820Y1530000D01*
X3681540Y1508460D01*
X3694120Y1521020D01*
G03Y1538980I-8980J8980D01*
G37*
G36*
G01X3617690Y1742940D02*
X3582280Y1699420D01*
X3628000Y1647350D01*
X3673720Y1699420D01*
X3638310Y1742940D01*
G03X3617690I-10310J-23210D01*
G37*
G36*
G01X3638310Y1716860D02*
X3673720Y1760380D01*
X3628000Y1812450D01*
X3582280Y1760380D01*
X3617690Y1716860D01*
G03X3638310I10310J23210D01*
G37*
G36*
G01X3717780Y2190480D02*
X3700000D01*
X3697750Y2157750D01*
X3730480Y2160000D01*
Y2177780D01*
G03X3717780Y2190480I-12700J0D01*
G37*
G36*
G01X3672220Y2779520D02*
X3690000D01*
X3692250Y2812250D01*
X3659520Y2810000D01*
Y2792220D01*
G03X3672220Y2779520I12700J0D01*
G37*
G36*
G01X3700480Y3202220D02*
Y3230000D01*
X3668290Y3232670D01*
X3663780Y3201160D01*
X3681550Y3191150D01*
G03X3700480Y3202220I6228J11070D01*
G37*
G36*
G01X3778770Y659030D02*
X3740480Y615720D01*
X3786200Y566820D01*
X3831920Y615720D01*
X3793630Y659030D01*
G03X3778770I-7430J-10300D01*
G37*
G36*
G01X3943630Y1420970D02*
X3981920Y1464280D01*
X3936200Y1513180D01*
X3890480Y1464280D01*
X3928770Y1420970D01*
G03X3943630I7430J10300D01*
G37*
G36*
G01X3820480Y2190480D02*
X3802700D01*
X3800450Y2157750D01*
X3833180Y2160000D01*
Y2177780D01*
G03X3820480Y2190480I-12700J0D01*
G37*
G36*
G01X3768980Y2815630D02*
X3782120Y2828790D01*
X3760650Y2853500D01*
X3738630Y2829210D01*
X3750620Y2816050D01*
G03X3768980Y2815630I9381J8560D01*
G37*
G36*
G01X3769520Y3107780D02*
Y3090000D01*
X3802250Y3087750D01*
X3800000Y3120480D01*
X3782220D01*
G03X3769520Y3107780I0J-12700D01*
G37*
G36*
G01X3760000Y4000000D02*
X3950000D01*
Y3770000D01*
X3760000D01*
Y4000000D01*
G37*
G36*
G01X3975480Y4157700D02*
X3820480Y4145720D01*
X3863260Y4098790D01*
X3904660Y4056270D01*
X3985350Y4137080D01*
G03X3975480Y4157700I-9929J7920D01*
G37*
G36*
G01X3966770Y4515700D02*
X3911920Y4535720D01*
X3863060Y4489500D01*
X3911920Y4444280D01*
X3969890Y4497120D01*
G03X3966770Y4515700I-9960J7879D01*
G37*
G36*
G01X4089120Y1143980D02*
X4076540Y1156540D01*
X4051820Y1135000D01*
X4076540Y1113460D01*
X4089120Y1126020D01*
G03Y1143980I-8980J8980D01*
G37*
G36*
G01X5033940Y1462640D02*
X5263170Y1233400D01*
G02X5246710Y1198820I-14368J-14368D01*
G03X5122500Y1142050I-13869J-133924D01*
G02X5089200I-16650J11639D01*
G03X4844450Y1072920I-110348J-77147D01*
G01X4843880Y1063360D01*
X4193170D01*
G02X4178620Y1097860I6J20321D01*
G01X4208880Y1128120D01*
X4306180D01*
Y1300880D01*
X4133420D01*
Y1203580D01*
X4118200Y1188360D01*
X4102180D01*
X4099400Y1190580D01*
G03X4045920Y1205560I-44406J-55579D01*
G02X4023360Y1225750I-2240J20196D01*
G01Y1302100D01*
X4006750Y1318710D01*
X4016970Y1328920D01*
G03X4091070Y1396900I3027J71076D01*
G02X4111340Y1415840I20275J-1382D01*
G01X4260020D01*
Y1624160D01*
X4226580D01*
Y1663450D01*
X4243960Y1728530D01*
X4272590Y1757170D01*
X4333180Y1780520D01*
X4366280D01*
Y1800840D01*
X4894260D01*
X4993210Y1899790D01*
X5052680Y1933620D01*
X5082580D01*
Y1955800D01*
X5116870Y1985730D01*
X5120630Y1985760D01*
G03X5178480Y2016380I-626J71140D01*
G03X5184560Y2027020I-58500J40486D01*
G01X5203940Y2022750D01*
Y2007360D01*
X5033940Y1837360D01*
Y1462640D01*
G37*
G36*
G01X3985880Y1391020D02*
X3998460Y1378460D01*
X4023180Y1400000D01*
X3998460Y1421540D01*
X3985880Y1408980D01*
G03Y1391020I8980J-8980D01*
G37*
G36*
G01X4039260Y1628980D02*
X4026620Y1641600D01*
X4001910Y1620070D01*
X4026580Y1598470D01*
X4039220Y1610980D01*
G03X4039260Y1628980I-8940J9020D01*
G37*
G36*
G01X4050960Y1704190D02*
X4094480Y1668780D01*
X4146550Y1714500D01*
X4094480Y1760220D01*
X4050960Y1724810D01*
G03Y1704190I23210J-10310D01*
G37*
G36*
G01X3961680Y2095880D02*
X3974240Y2108460D01*
X3952700Y2133180D01*
X3931160Y2108460D01*
X3943720Y2095880D01*
G03X3961680I8980J8980D01*
G37*
G36*
G01X3967480Y2887120D02*
X3992880Y2773680D01*
X4042150Y2814140D01*
X4084320Y2865120D01*
X3998820Y2911820D01*
G03X3967480Y2887120I-5937J-24700D01*
G37*
G36*
G01X4127840Y2829710D02*
X4084320Y2865120D01*
X4032250Y2819400D01*
X4084320Y2773680D01*
X4127840Y2809090D01*
G03Y2829710I-23210J10310D01*
G37*
G36*
G01X3945880Y4136020D02*
X3958460Y4123460D01*
X3983180Y4145000D01*
X3958460Y4166540D01*
X3945880Y4153980D01*
G03Y4136020I8980J-8980D01*
G37*
G36*
G01X3947480Y4496020D02*
X3960060Y4483460D01*
X3984780Y4505000D01*
X3960060Y4526540D01*
X3947480Y4513980D01*
G03Y4496020I8980J-8980D01*
G37*
G36*
G01X4079660Y1593400D02*
X4092360Y1456500D01*
X4157940Y1517600D01*
X4219360Y1583500D01*
X4093350Y1606060D01*
G03X4079660Y1593400I-991J-12660D01*
G37*
G36*
G01X4184890Y1789300D02*
X4094480Y1760220D01*
X4135890Y1709840D01*
X4185920Y1668780D01*
X4211320Y1763920D01*
G03X4184890Y1789300I-25401J0D01*
G37*
G36*
G01X4236670Y1786900D02*
X4325620Y1821180D01*
X4283970Y1871770D01*
X4234180Y1912620D01*
X4208780Y1812180D01*
G03X4236670Y1786900I25402J0D01*
G37*
G36*
G01X4120070Y2108330D02*
X4081780Y2065020D01*
X4127500Y2016120D01*
X4173220Y2065020D01*
X4134930Y2108330D01*
G03X4120070I-7430J-10300D01*
G37*
G36*
G01X4095880Y2201020D02*
X4108460Y2188460D01*
X4133180Y2210000D01*
X4108460Y2231540D01*
X4095880Y2218980D01*
G03Y2201020I8980J-8980D01*
G37*
G36*
G01X4136480Y2173380D02*
X4151540Y2188460D01*
X4130290Y2213160D01*
X4106880Y2190380D01*
X4116940Y2175300D01*
G03X4136480Y2173380I10558J7060D01*
G37*
G36*
G01X4238770Y4189030D02*
X4200480Y4145720D01*
X4246200Y4096820D01*
X4291920Y4145720D01*
X4253630Y4189030D01*
G03X4238770I-7430J-10300D01*
G37*
G36*
G01X4255180Y4171580D02*
X4267740Y4184160D01*
X4246200Y4208880D01*
X4224660Y4184160D01*
X4237220Y4171580D01*
G03X4255180I8980J8980D01*
G37*
G36*
G01X4325230Y4497430D02*
X4281920Y4535720D01*
X4233020Y4490000D01*
X4281920Y4444280D01*
X4325230Y4482570D01*
G03Y4497430I-10300J7430D01*
G37*
G36*
G01X4469740Y259900D02*
X4347500D01*
X4345530Y148290D01*
X4457240Y147680D01*
X4479650Y247520D01*
G03X4469740Y259900I-9910J2224D01*
G37*
G36*
G01X4457500Y690060D02*
Y789900D01*
X4345700Y791700D01*
X4347500Y679900D01*
X4447340D01*
G03X4457500Y690060I0J10160D01*
G37*
G36*
G01X4369140Y1877210D02*
X4325620Y1912620D01*
X4273550Y1866900D01*
X4325620Y1821180D01*
X4369140Y1856590D01*
G03Y1877210I-23210J10310D01*
G37*
G36*
G01X4269590Y1956140D02*
X4234180Y1912620D01*
X4279900Y1860550D01*
X4325620Y1912620D01*
X4290210Y1956140D01*
G03X4269590I-10310J-23210D01*
G37*
G36*
G01X4290210Y1930060D02*
X4325620Y1973580D01*
X4279900Y2025650D01*
X4234180Y1973580D01*
X4269590Y1930060D01*
G03X4290210I10310J23210D01*
G37*
G36*
G01X4240000Y3868760D02*
Y4013620D01*
X4332580D01*
Y4187020D01*
G02X4317340Y4206480I5078J19675D01*
G03X4253310Y4276490I-71139J-777D01*
G01X4249560Y4276870D01*
X4240000Y4286910D01*
Y4390000D01*
X4421240D01*
Y3902620D01*
X4387380Y3868760D01*
X4240000D01*
G37*
G36*
G01X4305880Y4481020D02*
X4318460Y4468460D01*
X4343180Y4490000D01*
X4318460Y4511540D01*
X4305880Y4498980D01*
G03Y4481020I8980J-8980D01*
G37*
G36*
G01X4474750Y4688700D02*
Y4764900D01*
X4383600Y4767150D01*
X4385850Y4676000D01*
X4462050D01*
G03X4474750Y4688700I0J12700D01*
G37*
G36*
G01X4503100Y143120D02*
X4522810Y230940D01*
X4554620Y262750D01*
Y319350D01*
X4567550Y333620D01*
X4590180D01*
Y473620D01*
X4742580D01*
Y495960D01*
X4754670Y506640D01*
X4852100D01*
X4905330Y559870D01*
G02X4939200Y540300I14178J-14557D01*
G03X5076550Y356760I142799J-36300D01*
G02X5093000Y325640I-752J-20305D01*
G03X5197350Y119710I113997J-71638D01*
G03X5341640Y254000I9653J134290D01*
G01Y312640D01*
X5405980Y333620D01*
X5440180D01*
Y483620D01*
X5592580D01*
Y616640D01*
X5642050D01*
G02X5659010Y585130I-2J-20320D01*
G03X5660940Y420020I122991J-81129D01*
G02X5645920Y388180I-16695J-11587D01*
G03X5771000Y325640I11084J-134182D01*
G02X5787450Y356760I17202J10815D01*
G03X5851470Y374070I-5461J147238D01*
G02X5881360Y356720I9578J-17922D01*
G03X5972080Y289110I71136J782D01*
G03X5999550Y304140I-19574J68393D01*
G01X6033400D01*
X6072880Y343620D01*
X6322580D01*
Y365960D01*
X6334670Y376640D01*
X6375330D01*
X6387420Y365960D01*
Y343620D01*
X6419460D01*
X6479710Y316870D01*
X6542640Y253940D01*
X6787360D01*
X6792030Y258610D01*
G02X6826000Y248590I14165J-14570D01*
G03X6953290Y46200I353997J81417D01*
G02X6940610Y10000I-12681J-15879D01*
G01X4926720D01*
G02X4911810Y44120I1J20318D01*
G03X4683190I-114310J105780D01*
G02X4668280Y10000I-14911J-13802D01*
G01X4476720D01*
G02X4461810Y44120I1J20318D01*
G03X4503050Y142250I-114312J105772D01*
G01X4503100Y143120D01*
G37*
G36*
G01X4510040Y330710D02*
X4549520Y374280D01*
X4503800Y422540D01*
X4458080Y374280D01*
X4497560Y330710D01*
G03X4510040I6240J8020D01*
G37*
G36*
G01X4497560Y509290D02*
X4458080Y465720D01*
X4503800Y417460D01*
X4549520Y465720D01*
X4510040Y509290D01*
G03X4497560I-6240J-8020D01*
G37*
G36*
G01X4510040Y470710D02*
X4549520Y514280D01*
X4503800Y562540D01*
X4458080Y514280D01*
X4497560Y470710D01*
G03X4510040I6240J8020D01*
G37*
G36*
G01X4498210Y642080D02*
X4461540Y605720D01*
X4503800Y557460D01*
X4546060Y605720D01*
X4509390Y642080D01*
G03X4498210I-5590J-8480D01*
G37*
G36*
G01X4533800Y3743360D02*
G02X4519210Y3777820I1J20319D01*
G01X4561240Y3819860D01*
G02X4589740Y3819650I14143J-14591D01*
G03X4645520Y3799070I50262J50348D01*
G02X4666840Y3783620I1580J-20255D01*
G01X4840180D01*
Y3956380D01*
X4666840D01*
G02X4645520Y3940930I-19740J4805D01*
G03X4619920Y3938250I-5515J-70928D01*
G03X4618840Y3937920I20248J-68198D01*
G01X4617360Y3937460D01*
X4614040D01*
X4612000Y3935420D01*
X4610340Y3934660D01*
G03X4607960Y3933520I29537J-64719D01*
G02X4578760Y3951790I-8881J18276D01*
G01Y4221250D01*
G02X4604630Y4240800I20321J1D01*
G01X4619930Y4236450D01*
X4621460Y4230950D01*
G03X4655520Y4187770I68544J19044D01*
G02Y4152230I-9847J-17770D01*
G03X4628160Y4125170I34483J-62226D01*
G03X4731880Y4032490I61838J-35173D01*
G03X4737050Y4036640I-41901J57494D01*
G01X4842100D01*
X4923360Y4117900D01*
Y4382130D01*
G02X4958050Y4396490I20320J-7D01*
G01X4996640Y4357900D01*
Y3792100D01*
X4947900Y3743360D01*
X4533800D01*
G37*
G36*
G01X4672120Y4280580D02*
X4659420Y4384920D01*
X4611750Y4341700D01*
X4567980Y4293480D01*
X4657650Y4268000D01*
G03X4672120Y4280580I1767J12580D01*
G37*
G36*
G01X4606270Y4428230D02*
X4567980Y4384920D01*
X4613700Y4336020D01*
X4659420Y4384920D01*
X4621130Y4428230D01*
G03X4606270I-7430J-10300D01*
G37*
G36*
G01X4621130Y4402570D02*
X4659420Y4445880D01*
X4613700Y4494780D01*
X4567980Y4445880D01*
X4606270Y4402570D01*
G03X4621130I7430J10300D01*
G37*
G36*
G01X4745230Y567430D02*
X4701920Y605720D01*
X4653020Y560000D01*
X4701920Y514280D01*
X4745230Y552570D01*
G03Y567430I-10300J7430D01*
G37*
G36*
G01X4648770Y649030D02*
X4610480Y605720D01*
X4656200Y556820D01*
X4701920Y605720D01*
X4663630Y649030D01*
G03X4648770I-7430J-10300D01*
G37*
G36*
G01X4709740Y2344120D02*
X4697180Y2331540D01*
X4718720Y2306820D01*
X4740260Y2331540D01*
X4727700Y2344120D01*
G03X4709740I-8980J-8980D01*
G37*
G36*
G01X4666160Y3146890D02*
X4686290Y3202940D01*
X4634690Y3270200D01*
X4584700Y3202940D01*
X4635130Y3143070D01*
G03X4666160Y3146890I13069J21780D01*
G37*
G36*
G01X4637890Y3175340D02*
X4602480Y3131820D01*
X4648200Y3079750D01*
X4693920Y3131820D01*
X4658510Y3175340D01*
G03X4637890I-10310J-23210D01*
G37*
G36*
G01X4663300Y3860770D02*
X4708080Y3824280D01*
X4760150Y3869870D01*
X4708080Y3915720D01*
X4663560Y3882570D01*
G03X4663300Y3860770I22810J-11174D01*
G37*
G36*
G01X4716770Y4315910D02*
G03X4714270Y4316870I-26747J-65919D01*
G01X4708400Y4319000D01*
X4700080Y4387390D01*
Y4405220D01*
X4777020D01*
X4816640Y4365600D01*
Y4162100D01*
X4797900Y4143360D01*
X4737050D01*
G03X4724480Y4152230I-47062J-53351D01*
G02Y4187770I9847J17770D01*
G03X4716770Y4315910I-34478J62227D01*
G37*
G36*
G01X4724120Y4098980D02*
X4711540Y4111540D01*
X4686820Y4090000D01*
X4711540Y4068460D01*
X4724120Y4081020D01*
G03Y4098980I-8980J8980D01*
G37*
G36*
G01X4659520Y4267780D02*
Y4250000D01*
X4692250Y4247750D01*
X4690000Y4280480D01*
X4672220D01*
G03X4659520Y4267780I0J-12700D01*
G37*
G36*
G01X4728750Y4688700D02*
Y4764900D01*
X4637600Y4767150D01*
X4639850Y4676000D01*
X4716050D01*
G03X4728750Y4688700I0J12700D01*
G37*
G36*
G01X4791020Y2344120D02*
X4778460Y2331540D01*
X4800000Y2306820D01*
X4821540Y2331540D01*
X4808980Y2344120D01*
G03X4791020I-8980J-8980D01*
G37*
G36*
G01X4889840Y3096410D02*
X4846320Y3131820D01*
X4794250Y3086100D01*
X4846320Y3040380D01*
X4889840Y3075790D01*
G03Y3096410I-23210J10310D01*
G37*
G36*
G01X4897160Y2963890D02*
X4846320Y2979420D01*
X4794330Y2932710D01*
X4846320Y2887980D01*
X4901170Y2933640D01*
G03X4897160Y2963890I-22138J12456D01*
G37*
G36*
G01X4946990Y3276700D02*
X4889500Y3324860D01*
X4832350Y3263900D01*
X4889500Y3202940D01*
X4946990Y3251100D01*
G03Y3276700I-21940J12800D01*
G37*
G36*
G01X4982750Y4688700D02*
Y4764900D01*
X4891600Y4767150D01*
X4893850Y4676000D01*
X4970050D01*
G03X4982750Y4688700I0J12700D01*
G37*
G36*
G01X5092100Y823360D02*
X5012320Y903140D01*
G02X5020420Y936840I14368J14370D01*
G03X5089200Y987750I-41561J128066D01*
G02X5122500I16650J-11639D01*
G03X5303030Y950000I110345J77151D01*
G02X5333940Y932660I10589J-17343D01*
G01Y912640D01*
X5388530Y858050D01*
G02X5374160Y823360I-14368J-14370D01*
G01X5092100D01*
G37*
G36*
G01X5100630Y2082260D02*
X4950480Y2065720D01*
X4990220Y2017860D01*
X5041920Y1974280D01*
X5120010Y2042440D01*
G03X5100630Y2082260I-20881J14464D01*
G37*
G36*
G01X4956880Y1925900D02*
X5041920Y1974280D01*
X4999690Y2025310D01*
X4950480Y2065720D01*
X4925080Y1950480D01*
G03X4956880Y1925900I25400J0D01*
G37*
G36*
G01X5203940Y2122610D02*
G02X5169490Y2108010I-20318J-1D01*
G03X5139970Y2125180I-49482J-51112D01*
G03X5095250Y2123590I-19961J-68281D01*
G01X5093540Y2122960D01*
X5005740D01*
X4994220Y2111440D01*
X4961340Y2107820D01*
G02X4954280Y2140860I7517J18880D01*
G01X5157360Y2343940D01*
X5203940D01*
Y2122610D01*
G37*
G36*
G01X5285740Y342900D02*
X5207000D01*
X5205200Y252200D01*
X5295900Y254000D01*
Y332740D01*
G03X5285740Y342900I-10160J0D01*
G37*
G36*
G01X5267420Y616640D02*
Y467580D01*
X5260170Y388640D01*
X5215150D01*
G02X5202870Y419740I4605J19793D01*
G03X5204860Y585330I-120870J84260D01*
G02X5221950Y616640I17092J10990D01*
G01X5267420D01*
G37*
G36*
G01X5336060Y2498120D02*
Y3236540D01*
X5541920Y3442400D01*
Y4074510D01*
X5554560Y4089650D01*
X5784490D01*
Y4111300D01*
X5799630Y4123940D01*
X6767360D01*
X6878000Y4234580D01*
X6879660Y4235340D01*
G03X6920710Y4307840I-29658J64664D01*
G02X6953570Y4325970I20194J2242D01*
G03X7131200Y4250050I226434J284028D01*
G01X7140000Y4248860D01*
Y3930000D01*
X7000000D01*
Y3810000D01*
X6940000D01*
Y2260000D01*
X7500000D01*
Y2130000D01*
X6940000D01*
Y750000D01*
X7500000D01*
Y569390D01*
G02X7463800Y556710I-20321J1D01*
G03X6911400Y574540I-283805J-226710D01*
G02X6876060Y588220I-15021J13682D01*
G01Y747360D01*
X6717360Y906060D01*
X5527360D01*
X5466060Y967360D01*
Y1217360D01*
X5166060Y1517360D01*
Y1782640D01*
X5298870Y1915440D01*
G02X5332510Y1907500I14366J-14367D01*
G03X5346640Y1882950I67488J22502D01*
G01Y1847050D01*
G03X5340120Y1838420I53339J-47076D01*
G03X5331290Y1781550I59879J-38418D01*
G02X5311560Y1756380I-19732J-4850D01*
G01X5279820D01*
Y1583580D01*
G02X5298920Y1562900I-1216J-20284D01*
G03X5441080I71080J-2900D01*
G02X5452580Y1581610I20318J401D01*
G01Y1620620D01*
X5464980Y1688980D01*
G02X5496640Y1672130I11341J-16860D01*
G01Y1442100D01*
X5475630Y1421100D01*
X5472100Y1420700D01*
G03X5550700Y1342100I7900J-70700D01*
G01X5551100Y1345630D01*
X5603360Y1397900D01*
Y1987900D01*
X5622100Y2006640D01*
X6022100D01*
X6112100Y2096640D01*
X6202100D01*
X6283360Y2177900D01*
Y2952100D01*
X6181100Y3054370D01*
X6180700Y3057900D01*
G03X6102100Y2979300I-70700J-7900D01*
G01X6105630Y2978900D01*
X6176640Y2907900D01*
Y2222100D01*
X6157900Y2203360D01*
X6067900D01*
X6063200Y2198660D01*
X6050660Y2203850D01*
Y2330660D01*
X6040180D01*
Y2476380D01*
X5867340D01*
G02X5848430Y2457890I-20239J1784D01*
G03X5812560Y2445360I4674J-70988D01*
G02X5780660Y2462050I-11581J16696D01*
G01Y2530660D01*
X5529340D01*
Y2515550D01*
X5356810D01*
Y2493770D01*
X5352780Y2490360D01*
G02X5336060Y2498120I-6560J7759D01*
G37*
G36*
G01X5211940Y4608170D02*
X5226720Y4686150D01*
X5146820Y4767900D01*
X5118540Y4676010D01*
X5192190Y4602480D01*
G03X5211940Y4608170I7808J10018D01*
G37*
G36*
G01X5310170Y345140D02*
X5399520Y374280D01*
X5355260Y422080D01*
X5308080Y465720D01*
X5297920Y355080D01*
G03X5310170Y345140I10158J0D01*
G37*
G36*
G01X5347560Y509290D02*
X5308080Y465720D01*
X5353800Y417460D01*
X5399520Y465720D01*
X5360040Y509290D01*
G03X5347560I-6240J-8020D01*
G37*
G36*
G01X5360040Y480710D02*
X5399520Y524280D01*
X5353800Y572540D01*
X5308080Y524280D01*
X5347560Y480710D01*
G03X5360040I6240J8020D01*
G37*
G36*
G01X5361020Y1594120D02*
X5348460Y1581540D01*
X5370000Y1556820D01*
X5391540Y1581540D01*
X5378980Y1594120D01*
G03X5361020I-8980J-8980D01*
G37*
G36*
G01X5415720Y1728420D02*
X5320480Y1715720D01*
X5363870Y1667850D01*
X5411920Y1624280D01*
X5428410Y1715190D01*
G03X5415720Y1728420I-12690J529D01*
G37*
G36*
G01X5378380Y1577930D02*
X5411920Y1624280D01*
X5366050Y1673170D01*
X5320480Y1624280D01*
X5362420Y1577280D01*
G03X5378380Y1577930I7578J10190D01*
G37*
G36*
G01X5391020Y1834120D02*
X5378460Y1821540D01*
X5400000Y1796820D01*
X5421540Y1821540D01*
X5408980Y1834120D01*
G03X5391020I-8980J-8980D01*
G37*
G36*
G01X5366070Y1992530D02*
G02X5336060Y2010390I-9691J17859D01*
G01Y2328430D01*
G02X5351810Y2336910I10159J-3D01*
G01X5356810Y2333620D01*
Y2314850D01*
X5525720D01*
Y2226480D01*
X5436640Y2137400D01*
Y2019990D01*
G02X5412690Y2000000I-20319J2D01*
G03X5366070Y1992530I-12692J-70000D01*
G37*
G36*
G01X5408980Y1895880D02*
X5421540Y1908460D01*
X5400000Y1933180D01*
X5378460Y1908460D01*
X5391020Y1895880D01*
G03X5408980I8980J8980D01*
G37*
G36*
G01X5337420Y2395100D02*
X5397470Y2355510D01*
X5463500Y2415530D01*
X5397470Y2474890D01*
X5336290Y2423200D01*
G03X5337420Y2395100I21700J-13200D01*
G37*
G36*
G01X5488510Y4074000D02*
X5535550Y4130310D01*
X5475860Y4196350D01*
X5416170Y4130310D01*
X5463210Y4074000D01*
G03X5488510I12650J22030D01*
G37*
G36*
G01X5498770Y659030D02*
X5460480Y615720D01*
X5506200Y566820D01*
X5551920Y615720D01*
X5513630Y659030D01*
G03X5498770I-7430J-10300D01*
G37*
G36*
G01X5497780Y1380480D02*
X5480000D01*
X5477750Y1347750D01*
X5510480Y1350000D01*
Y1367780D01*
G03X5497780Y1380480I-12700J0D01*
G37*
G36*
G01X6010000Y2290000D02*
Y2145460D01*
X5977900Y2113360D01*
X5776640D01*
X5700000Y2190000D01*
X5570000D01*
Y2490000D01*
X5740000D01*
Y2350000D01*
X5800000Y2290000D01*
X6010000D01*
G37*
G36*
G01X5800140Y4202650D02*
X5743830Y4249690D01*
X5677790Y4190000D01*
X5743830Y4130310D01*
X5800140Y4177350D01*
G03Y4202650I-22030J12650D01*
G37*
G36*
G01X5977900Y616640D02*
X5987630Y606910D01*
X5997420Y531650D01*
Y445590D01*
G02X5971630Y426020I-20320J-1D01*
G03X5942830Y427980I-19130J-68520D01*
G02X5920910Y454880I-2760J20132D01*
G03X5904990Y585130I-138910J49119D01*
G02X5921950Y616640I16962J11190D01*
G01X5977900D01*
G37*
G36*
G01X5887220Y2395880D02*
X5874640Y2408440D01*
X5849920Y2386900D01*
X5874640Y2365360D01*
X5887220Y2377920D01*
G03Y2395880I-8980J8980D01*
G37*
G36*
G01X5862280Y2378690D02*
X5908080Y2344280D01*
X5956970Y2390120D01*
X5908080Y2435720D01*
X5861760Y2394450D01*
G03X5862280Y2378690I10210J-7552D01*
G37*
G36*
G01X5986620Y366480D02*
X5974040Y379040D01*
X5949320Y357500D01*
X5974040Y335960D01*
X5986620Y348520D01*
G03Y366480I-8980J8980D01*
G37*
G36*
G01X6025380Y631920D02*
X6038080Y534280D01*
X6085900Y577620D01*
X6129520Y625720D01*
X6038940Y644590D01*
G03X6025380Y631920I-861J-12670D01*
G37*
G36*
G01X6144620Y534610D02*
X6129520Y625720D01*
X6081500Y582190D01*
X6038080Y534280D01*
X6131920Y521580D01*
G03X6144620Y534610I0J12704D01*
G37*
G36*
G01X6325230Y437430D02*
X6281920Y475720D01*
X6233020Y430000D01*
X6281920Y384280D01*
X6325230Y422570D01*
G03Y437430I-10300J7430D01*
G37*
G36*
G01X6290880Y653980D02*
X6303440Y666560D01*
X6281900Y691280D01*
X6260360Y666560D01*
X6272920Y653980D01*
G03X6290880I8980J8980D01*
G37*
G36*
G01X6273980Y698030D02*
X6193390Y617550D01*
X6234960Y577080D01*
X6281920Y534280D01*
X6294600Y688100D01*
G03X6273980Y698030I-12701J0D01*
G37*
G36*
G01X6140480Y3032220D02*
Y3050000D01*
X6107750Y3052250D01*
X6110000Y3019520D01*
X6127780D01*
G03X6140480Y3032220I0J12700D01*
G37*
G36*
G01X6544920Y370480D02*
X6519520Y475720D01*
X6469930Y435040D01*
X6428080Y384280D01*
X6515730Y345360D01*
G03X6544920Y370480I3786J25120D01*
G37*
G36*
G01X6384770Y422570D02*
X6428080Y384280D01*
X6476980Y430000D01*
X6428080Y475720D01*
X6384770Y437430D01*
G03Y422570I10300J-7430D01*
G37*
G36*
G01X6477310Y680060D02*
X6428080Y625720D01*
X6473400Y576850D01*
X6519520Y625720D01*
X6495130Y677820D01*
G03X6477310Y680060I-10030J-7790D01*
G37*
G36*
G01X6618770Y669030D02*
X6580480Y625720D01*
X6626200Y576820D01*
X6671920Y625720D01*
X6633630Y669030D01*
G03X6618770I-7430J-10300D01*
G37*
G36*
G01X6494080Y650980D02*
X6506640Y663560D01*
X6485100Y688280D01*
X6463560Y663560D01*
X6476120Y650980D01*
G03X6494080I8980J8980D01*
G37*
G36*
G01X6695880Y471020D02*
X6708460Y458460D01*
X6733180Y480000D01*
X6708460Y501540D01*
X6695880Y488980D01*
G03Y471020I8980J-8980D01*
G37*
%LPC*%
G75*
G36*
G01X4072950Y356760D02*
G03X4056500Y325640I752J-20305D01*
G02X3931420Y388180I-113996J-71642D01*
G03X3946440Y420020I-1675J20253D01*
G02X4072950Y356760I121064J83979D01*
G37*
G36*
G01X5665360Y4640820D02*
G03X5632050Y4656450I-20321J3D01*
G02Y4863550I-86050J103550D01*
G03X5665360Y4879180I12989J15627D01*
G01Y4894640D01*
X5934640D01*
Y4625360D01*
X5665360D01*
Y4640820D01*
G37*
G54D32*
X390000Y3910000D03*
G54D34*
X6121400Y4622800D03*
G54D33*
X110000Y3910000D03*
%LPD*%
G75*
G36*
G01X5960560Y2150290D02*
X5999520Y2194280D01*
X5953830Y2243170D01*
X5908080Y2194280D01*
X5945490Y2150400D01*
G03X5960560Y2150290I7610J10169D01*
G37*
G36*
G01X5944120Y2171020D02*
X5931560Y2158440D01*
X5953100Y2133720D01*
X5974640Y2158440D01*
X5962080Y2171020D01*
G03X5944120I-8980J-8980D01*
G37*
G54D10*
X330200Y330200D03*
Y4610100D03*
X7180000Y330000D03*
Y4610000D03*
G54D11*
X165100Y838200D03*
X5147850Y4764900D03*
X5800000Y4760000D03*
G54D20*
X1454000D03*
X1708000D03*
X1962000D03*
G54D30*
G01X20300Y1092200D02*
X165100D01*
G01D02*
Y1237000D01*
G01X1200000Y4760000D02*
Y4892100D01*
G01X1067900Y4760000D02*
X1200000D01*
G01X1482800Y504000D02*
X1640300D01*
G01Y346500D02*
Y504000D01*
G01D02*
Y661500D01*
G01Y504000D02*
X1797800D01*
G01X2215300Y109200D02*
Y254000D01*
G01D02*
Y398800D01*
G01X2070500Y254000D02*
X2215300D01*
G01D02*
X2360100D01*
G01X2182800Y504000D02*
X2340300D01*
G01X2128050Y1064900D02*
X2272850D01*
G01X2340300Y346500D02*
Y504000D01*
G01D02*
X2497800D01*
G01X2272850Y920100D02*
Y1064900D01*
G01X2526850D02*
Y1209700D01*
G01Y1064900D02*
X2671650D01*
G01X2916100Y147200D02*
X3082000D01*
G01D02*
Y313100D01*
G01Y147200D02*
X3247900D01*
G01X3210000Y504000D02*
X3367500D01*
G01X3092000Y787200D02*
Y953100D01*
G01Y787200D02*
X3257900D01*
G01X3367500Y346500D02*
Y504000D01*
G01D02*
X3525000D01*
G01X3797700Y254000D02*
X3942500D01*
G01X3910000Y504000D02*
X4067500D01*
G01X3877850Y4620100D02*
Y4764900D01*
G01X3942500Y109200D02*
Y254000D01*
G01X4067500Y346500D02*
Y504000D01*
G01X3942500Y254000D02*
Y398800D01*
G01Y254000D02*
X4087300D01*
G01X4067500Y504000D02*
Y661500D01*
G01Y504000D02*
X4225000D01*
G01X4631600Y149900D02*
X4797500D01*
G01D02*
Y315800D01*
G01Y149900D02*
X4963400D01*
G01X4924500Y504000D02*
X5082000D01*
G01Y346500D02*
Y504000D01*
G01D02*
X5239500D01*
G01X4978850Y1064900D02*
Y1209700D01*
G01X5232850Y920100D02*
Y1064900D01*
G01D02*
Y1209700D01*
G01X5512200Y254000D02*
X5657000D01*
G01Y109200D02*
Y254000D01*
G01D02*
Y398800D01*
G01Y254000D02*
X5801800D01*
G01X5624500Y504000D02*
X5782000D01*
G01Y346500D02*
Y504000D01*
G01D02*
X5939500D01*
G54D12*
X165100Y1092200D03*
X1765300Y254000D03*
X2215300D03*
X2272850Y1064900D03*
X2353850Y4764900D03*
X2526850Y1064900D03*
X2607850Y4764900D03*
X2861850D03*
X3115850D03*
X3369850D03*
X3492500Y254000D03*
X3623850Y4764900D03*
X3942500Y254000D03*
X3877850Y4764900D03*
X4131850D03*
X4385850D03*
X4639850D03*
X4978850Y1064900D03*
X4893850Y4764900D03*
X5207000Y254000D03*
X5232850Y1064900D03*
X5657000Y254000D03*
X5546000Y4760000D03*
G54D21*
X2632000Y147200D03*
Y787200D03*
X3082000Y147200D03*
X3092000Y787200D03*
X4347500Y149900D03*
Y789900D03*
X4797500Y149900D03*
X4807500Y789900D03*
G54D31*
G01X350000Y990000D02*
X198200Y838200D01*
X165100D01*
G01X445860Y990000D02*
X350000D01*
G01X423800Y1063800D02*
Y1012060D01*
X445860Y990000D01*
G01X423800Y1063800D02*
X350000Y990000D01*
G01X423800Y1160000D02*
Y1063800D01*
G54D22*
X2711600Y1403100D03*
G54D13*
X60000Y2640000D03*
Y2780000D03*
Y2910000D03*
Y3100000D03*
Y3240000D03*
Y3370000D03*
Y3500000D03*
Y3640000D03*
Y3770000D03*
Y4030000D03*
Y4170000D03*
Y4300000D03*
X510000Y870000D03*
X410000D03*
X460000Y2640000D03*
X480000Y3410000D03*
Y3340000D03*
Y3660000D03*
X660000Y60000D03*
X680000Y1170000D03*
X560000Y1470000D03*
Y1600000D03*
Y1870000D03*
Y1740000D03*
Y2000000D03*
X680000Y2250000D03*
X610000D03*
X680000Y2330000D03*
X610000D03*
X570000Y3410000D03*
X650000D03*
Y3340000D03*
X570000D03*
Y3270000D03*
X650000D03*
X670000Y3520000D03*
Y3690000D03*
X660000Y4890000D03*
X822600Y452600D03*
X740000Y700000D03*
X870000Y1780000D03*
X800000D03*
X870000Y1850000D03*
X800000D03*
Y1930000D03*
X750000Y2330000D03*
Y2250000D03*
X880000Y2910000D03*
X723800D03*
X766300Y4260000D03*
X1030000Y50000D03*
Y148400D03*
X1010000Y680000D03*
X920000D03*
X960860Y618710D03*
X920000Y750000D03*
X1010000D03*
X980000Y1280000D03*
Y1350000D03*
Y1420000D03*
X1030000Y2440000D03*
Y2510000D03*
X1035000Y3045000D03*
X930000Y3360000D03*
Y3700000D03*
X1010000Y3860000D03*
X930000Y4350000D03*
X1037100Y4442900D03*
X1090000Y1760000D03*
Y1910000D03*
X1150000Y3050000D03*
X1210000D03*
X1100000Y3370000D03*
Y3500000D03*
X1070000Y4630000D03*
X1250000Y1270000D03*
X1330000Y1340000D03*
X1250000D03*
X1330000Y1410000D03*
X1250000D03*
X1350000Y1520000D03*
Y1590000D03*
X1360000Y1840000D03*
X1290000D03*
X1360000Y1770000D03*
X1290000D03*
Y1910000D03*
X1360000D03*
X1350000Y2210000D03*
Y2360000D03*
Y2286340D03*
X1270000Y2440000D03*
X1350000D03*
X1280000Y3050000D03*
X1360000Y3400000D03*
Y3470000D03*
X1490000Y148400D03*
X1500000Y920000D03*
Y1001280D03*
X1470000Y2440000D03*
Y3200000D03*
Y4510000D03*
X1650000Y50000D03*
X1680000Y750000D03*
X1720000Y1260000D03*
Y1330000D03*
Y1510000D03*
Y1710000D03*
Y1600000D03*
Y1820000D03*
Y1930000D03*
X1690000Y3760000D03*
Y3850000D03*
X1710000Y4000000D03*
Y4250000D03*
X1670000Y4510000D03*
X1880000Y50000D03*
X1800000Y2150000D03*
X1760000Y2370000D03*
X1850000Y2620000D03*
X1830000Y3550000D03*
X1740000Y3620000D03*
X1760000Y3920000D03*
X1846930D03*
X1800000Y4510000D03*
X2020000Y270000D03*
X1990000Y1240000D03*
Y1310000D03*
X2010000Y2620000D03*
Y2700000D03*
X1930000Y2620000D03*
X1979700Y3920000D03*
X2130000Y50000D03*
X2113800Y856200D03*
X2120000Y1450000D03*
X2160000Y2480000D03*
X2120000Y2865100D03*
X2220000Y3440000D03*
X2140000Y3760000D03*
X2110000Y4110000D03*
X2080000Y4190000D03*
X2140000Y4290000D03*
X2370000Y50000D03*
X2270000Y860000D03*
X2400000Y1230000D03*
X2290000Y2350000D03*
X2360000Y3090000D03*
Y3440000D03*
X2304700Y3885300D03*
X2254700Y4290000D03*
X2490000Y1680000D03*
Y1570000D03*
Y1802900D03*
X2510000Y3330000D03*
Y3420000D03*
X2530000Y4380000D03*
X2580000Y1570000D03*
X2600000Y2890000D03*
X2690000Y2980000D03*
X2600000D03*
Y3070000D03*
X2700000Y3690000D03*
X2620000Y3890000D03*
X2750000Y1590000D03*
X2790000Y1930000D03*
X2786900Y2056900D03*
X2895100Y2915100D03*
X2800000Y3040000D03*
X2880000Y3690000D03*
X2790000D03*
X2830000Y3890000D03*
X2870000Y4450000D03*
X3020000Y1163660D03*
Y1100000D03*
X2980000Y1330000D03*
X3050000Y3050000D03*
Y3180000D03*
X2970000Y3690000D03*
X2930000Y3890000D03*
X2954700Y4175300D03*
X3054700Y4174700D03*
X3230000Y1330000D03*
X3240000Y1500000D03*
X3230000Y2550000D03*
X3180000Y3050000D03*
Y3180000D03*
X3200000Y3310000D03*
X3110000Y3440000D03*
X3210000D03*
X3190000Y4170000D03*
X3350000Y60000D03*
X3390000Y830000D03*
X3330000Y1675900D03*
Y1802900D03*
Y2057400D03*
X3400000Y2790000D03*
X3300000Y4070000D03*
Y4170000D03*
X3410000D03*
Y4600000D03*
X3340000D03*
X3500000Y60000D03*
X3510000Y860000D03*
X3570000Y2810000D03*
X3590000Y4050000D03*
X3670000Y60000D03*
X3617030Y860000D03*
X3640000Y1250000D03*
Y1323660D03*
X3660000Y1530000D03*
X3700000Y2160000D03*
X3690000Y2710000D03*
Y2810000D03*
X3760580Y2850330D03*
X3670000Y3230000D03*
X3840000Y60000D03*
X3780000Y830000D03*
X3880000Y930000D03*
X3910000Y1900000D03*
X3802700Y2160000D03*
X3800000Y3090000D03*
X3860740Y3809920D03*
X3787080Y3810420D03*
X4010000Y60000D03*
X4055000Y1135000D03*
X4020000Y1400000D03*
X4005080Y1620060D03*
X3980000Y1830000D03*
X3952700Y2130000D03*
X4010000Y2290000D03*
X3980000Y4145000D03*
X3981600Y4505000D03*
X4140000Y870000D03*
X4260000Y1360000D03*
X4130000Y2210000D03*
X4180000Y2290000D03*
X4159400Y2819400D03*
X4246200Y4205700D03*
X4380000Y580000D03*
X4290000Y2820000D03*
X4370000Y4060000D03*
Y4130000D03*
Y4200000D03*
X4340000Y4490000D03*
X4480000Y1360000D03*
Y1260000D03*
X4520000Y2290000D03*
X4510000Y3180000D03*
Y3410000D03*
X4740000Y1110000D03*
Y1360000D03*
Y1240000D03*
X4660000Y2040000D03*
X4718720Y2310000D03*
X4640000Y3870000D03*
X4690000Y4090000D03*
X4610000Y4170000D03*
X4690000Y4250000D03*
X4840000Y440000D03*
X4800000Y2310000D03*
X4905920Y2820000D03*
X4903900Y2946100D03*
X4880000Y3970000D03*
X4780000Y4170000D03*
X5080000Y60000D03*
X4980000Y1240000D03*
Y1540000D03*
X5020000Y2150000D03*
X5260000Y60000D03*
X5180000Y1240000D03*
X5120000Y2056900D03*
X5180000Y2620000D03*
X5190000Y3056100D03*
X5270000Y3270000D03*
Y3450000D03*
Y3600000D03*
X5420000Y60000D03*
X5390000Y1440000D03*
X5370000Y1560000D03*
X5400000Y1800000D03*
Y1930000D03*
Y2570000D03*
X5430000Y2940000D03*
X5350000Y4720000D03*
Y4860000D03*
X5480000Y1350000D03*
X5590000Y3280000D03*
Y3520000D03*
Y3750000D03*
Y4030000D03*
X5750000Y2210000D03*
Y2280000D03*
X5710000Y2570000D03*
Y2940000D03*
X5952500Y357500D03*
X5870000Y940000D03*
Y1080000D03*
Y1210000D03*
X5953100Y2136900D03*
X5853100Y2386900D03*
X5890000Y2510000D03*
Y2780000D03*
X5830000Y3280000D03*
X6060000Y2600000D03*
X6110000Y3050000D03*
X6040000Y3140000D03*
X6090000Y3280000D03*
X6100000Y3580000D03*
Y3690000D03*
Y3920000D03*
Y3810000D03*
Y4030000D03*
Y4300000D03*
X5970000Y4880000D03*
X6090000D03*
X6281900Y688100D03*
X6230000Y990000D03*
Y1110000D03*
Y1230000D03*
Y1350000D03*
X6140000Y2510000D03*
X6150000Y3470000D03*
X6270000D03*
X6290000Y4340000D03*
Y4450000D03*
X6230000Y4880000D03*
X6400000Y950000D03*
Y1330000D03*
X6440000Y1730000D03*
X6460000Y2170000D03*
X6390000D03*
X6380000Y3470000D03*
Y4880000D03*
X6485100Y685100D03*
X6610000Y960000D03*
X6550000Y1330000D03*
X6580000Y1730000D03*
X6510000D03*
X6530000Y2170000D03*
X6500000Y3470000D03*
X6620000D03*
X6730000Y480000D03*
X6800000Y870000D03*
X6680000Y1330000D03*
Y1480000D03*
Y1620000D03*
X6790000Y1730000D03*
X6720000D03*
X6650000D03*
X6710000Y3500000D03*
Y3600000D03*
Y3700000D03*
Y3790000D03*
X6770000Y3850000D03*
X6760000Y4340000D03*
Y4450000D03*
X6790000Y4670000D03*
X6810000Y4880000D03*
X6670000D03*
X6910000Y690000D03*
Y760000D03*
Y830000D03*
Y900000D03*
Y970000D03*
Y1040000D03*
Y1110000D03*
Y1180000D03*
Y1390000D03*
Y1320000D03*
Y1250000D03*
Y1530000D03*
Y1460000D03*
Y1600000D03*
Y1670000D03*
X6860000Y1730000D03*
X6910000Y2170000D03*
Y2380000D03*
Y2310000D03*
Y2240000D03*
Y2450000D03*
Y2520000D03*
Y2660000D03*
Y2590000D03*
Y2730000D03*
Y2870000D03*
Y2800000D03*
Y2940000D03*
Y3010000D03*
Y3080000D03*
Y3220000D03*
Y3150000D03*
Y3290000D03*
Y3360000D03*
Y3500000D03*
Y3430000D03*
Y3570000D03*
Y3640000D03*
Y3710000D03*
X6840000Y3850000D03*
X6910000Y3780000D03*
X6970000Y3930000D03*
Y3860000D03*
X6850000Y4300000D03*
X7000000Y720000D03*
X7070000D03*
X7140000D03*
X7110000Y2190000D03*
X7040000D03*
X7110000Y3960000D03*
X7040000D03*
X7210000Y720000D03*
X7280000D03*
X7180000Y2190000D03*
X7250000D03*
X7420000Y720000D03*
X7350000D03*
X7320000Y2190000D03*
X7460000D03*
X7390000D03*
G54D14*
X433800Y760000D03*
X423800Y1160000D03*
X586200Y760000D03*
X576200Y1160000D03*
X783800D03*
X723800Y2800000D03*
X876200D03*
X723800Y3010000D03*
X876200D03*
Y3160000D03*
X723800D03*
X783800Y4510000D03*
Y4660000D03*
Y4810000D03*
X927100Y452600D03*
X936200Y1160000D03*
Y4510000D03*
Y4660000D03*
Y4810000D03*
X1079500Y452600D03*
X1226200Y3160000D03*
X1073800D03*
X1113800Y3860000D03*
X1153800Y4360000D03*
Y4510000D03*
X1384300Y452600D03*
X1231900D03*
X1394300Y1003300D03*
X1241900D03*
X1396200Y1160000D03*
X1243800D03*
X1266200Y3860000D03*
X1306200Y4360000D03*
Y4510000D03*
X1683800Y3090000D03*
X1783800Y750000D03*
X1836200Y3090000D03*
X2066200Y420000D03*
X1913800D03*
X2066200Y570000D03*
X1913800D03*
X1936200Y750000D03*
X2113800D03*
X2213800Y3190000D03*
Y3340000D03*
Y3550000D03*
X2266200Y750000D03*
X2366200Y3190000D03*
Y3340000D03*
Y3550000D03*
X2443800Y2750000D03*
X2543800Y3190000D03*
X2596200Y2750000D03*
X2696200Y3190000D03*
X2783800Y420000D03*
Y570000D03*
X2936200Y420000D03*
Y570000D03*
X2963800Y1500000D03*
X2957400Y1651000D03*
Y1803400D03*
Y2057400D03*
X3243800Y960000D03*
X3116200Y1500000D03*
X3109800Y1651000D03*
Y1803400D03*
Y2057400D03*
X3396200Y960000D03*
X3343800Y3290000D03*
X3593800Y960000D03*
X3475600Y1653700D03*
Y1806100D03*
Y2057400D03*
X3496200Y3290000D03*
X3633800Y420000D03*
Y570000D03*
X3746200Y960000D03*
X3628000Y1653700D03*
Y1806100D03*
Y2057400D03*
X3713800Y4100000D03*
Y4490000D03*
X3786200Y420000D03*
Y570000D03*
X3783800Y1510000D03*
X3936200D03*
X3886200Y2819400D03*
X3866200Y4100000D03*
Y4490000D03*
X4038600Y2819400D03*
X4093800Y4100000D03*
X4083800Y4490000D03*
X4219800Y1214500D03*
X4140200Y1714500D03*
X4127500Y1866900D03*
Y2019300D03*
X4246200Y4100000D03*
X4236200Y4490000D03*
X4372200Y1214500D03*
X4292600Y1714500D03*
X4279900Y1866900D03*
Y2019300D03*
X4503800Y420000D03*
Y560000D03*
X4613700Y4339200D03*
Y4491600D03*
X4656200Y420000D03*
Y560000D03*
X4648200Y2933700D03*
Y3086100D03*
X4753800Y3870000D03*
X4766100Y4339200D03*
Y4491600D03*
X4843800Y2020000D03*
X4800600Y2933700D03*
Y3086100D03*
X4906200Y3870000D03*
X4996200Y2020000D03*
X5213800Y1670000D03*
X5353800Y420000D03*
Y570000D03*
X5366200Y1670000D03*
X5459700Y2237400D03*
X5506200Y420000D03*
Y570000D03*
X5612100Y2237400D03*
X5953800Y2240000D03*
Y2390000D03*
X6083800Y430000D03*
Y580000D03*
X6106200Y2240000D03*
Y2390000D03*
X6236200Y430000D03*
Y580000D03*
X6473800Y430000D03*
Y580000D03*
X6626200Y430000D03*
Y580000D03*
G54D23*
X4635500Y3263900D03*
X4838700D03*
G54D24*
X5457160Y2415200D03*
X5475860Y4190000D03*
X5665440Y2415200D03*
X5684140Y4190000D03*
G54D15*
X445860Y990000D03*
X654140D03*
X1164050Y652700D03*
X1163160Y838200D03*
X1095860Y2730000D03*
Y2920000D03*
X1372330Y652700D03*
X1371440Y838200D03*
X1304140Y2730000D03*
Y2920000D03*
X1755860Y920000D03*
Y1100000D03*
X1655860Y2740000D03*
Y2920000D03*
X1665860Y3430000D03*
X1864140Y2740000D03*
Y2920000D03*
X1874140Y3430000D03*
X1964140Y920000D03*
Y1100000D03*
X2225860Y2970000D03*
X2434140D03*
X2505860Y4040000D03*
X2714140D03*
X2945860D03*
X3175860Y1130000D03*
X3154140Y4040000D03*
X3384140Y1130000D03*
X3605860D03*
X3645860Y3930000D03*
Y4320000D03*
X3814140Y1130000D03*
X3854140Y3930000D03*
Y4320000D03*
X4105860Y3930000D03*
X4095860Y4320000D03*
X4155860Y1520000D03*
X4304140Y4320000D03*
X4364140Y1520000D03*
X4314140Y3930000D03*
G54D25*
G01X290000Y1250000D02*
X430000Y1390000D01*
X520000D01*
G01X360000Y2600000D02*
X410000D01*
X490000Y2520000D01*
Y2230000D01*
X530000Y2190000D01*
G01X723800Y2800000D02*
X660000D01*
G01X927100Y452600D02*
X822600D01*
G01X1913800Y420000D02*
Y402500D01*
X1765300Y254000D01*
G01X1913800Y570000D02*
Y420000D01*
G01X2783800D02*
Y299000D01*
X2632000Y147200D01*
G01X2783800Y570000D02*
Y635400D01*
X2632000Y787200D01*
G01X2783800Y570000D02*
Y420000D01*
G01X3633800D02*
Y395300D01*
X3492500Y254000D01*
G01X3633800Y570000D02*
Y420000D01*
G01X4503800D02*
Y283800D01*
X4359900Y139900D01*
X4357500D01*
X4347500Y149900D01*
G01X4503800Y560000D02*
Y633600D01*
X4347500Y789900D01*
G01X4503800Y560000D02*
Y420000D01*
G01X5353800D02*
Y400800D01*
X5207000Y254000D01*
G01X5353800Y570000D02*
Y420000D01*
G01X6850000Y4400000D02*
X6970000Y4280000D01*
G01D02*
X7010000D01*
G54D16*
X736600Y2578100D03*
X886600D03*
X2236600Y1278100D03*
X2386600Y2578100D03*
X2536600Y1278100D03*
Y2578100D03*
G54D26*
G01X478000Y2848000D02*
G03I-30000J0D01*
G01Y3248000D02*
G03I-30000J0D01*
G54D17*
G01X3623850Y4764900D02*
X3590000Y4731050D01*
Y4375860D01*
X3645860Y4320000D01*
G01X3941280Y3808720D02*
X3960000Y3790000D01*
X4420000D01*
X4500000Y3870000D01*
Y4520000D01*
X4420000Y4600000D01*
X4269990D01*
X4131850Y4738140D01*
Y4764900D01*
G01X6770000Y4610000D02*
X7170000D01*
G01D02*
X6920000Y4360000D01*
G01X6910000Y4890000D02*
X7180000Y4620000D01*
Y4610000D01*
G01X7170000D02*
X7180000D01*
X890000Y900000D03*
Y980000D03*
X5753100Y1866900D03*
X5690000Y1800000D03*
Y1940000D03*
X5820000Y1800000D03*
Y1940000D03*
G54D27*
G01X150200Y3908300D02*
G03I-40000J0D01*
G01X480000Y3660000D02*
X350000Y3530000D01*
Y2750000D01*
X460000Y2640000D01*
G01X425200Y3908300D02*
G03I-40000J0D01*
G01X433800Y760000D02*
Y846200D01*
X410000Y870000D01*
G01X740000Y700000D02*
Y790000D01*
X660000Y870000D01*
X510000D01*
G01X680000Y1170000D02*
X586200D01*
X576200Y1160000D01*
G01X680000Y1170000D02*
X773800D01*
X783800Y1160000D01*
G01X650000Y3410000D02*
X660000Y3420000D01*
G01D02*
X780000D01*
X1050000Y3690000D01*
X1266200D01*
G01X3400000Y2790000D02*
Y2612620D01*
X3267380Y2480000D01*
X3030000D01*
X2580000Y2030000D01*
X1200000D01*
X736600Y2493400D01*
Y2578100D01*
G01X723800Y3010000D02*
Y2910000D01*
G01X766300Y4260000D02*
Y4474700D01*
X783800Y4492200D01*
Y4510000D01*
G01Y4660000D02*
X933800Y4510000D01*
X936200D01*
G01X1030000Y148400D02*
X1079500Y197900D01*
Y452600D01*
G01X927100D02*
Y467100D01*
X1000000Y540000D01*
X1140000D01*
X1227400Y452600D01*
X1231900D01*
G01X3230000Y2550000D02*
X3030000D01*
X2560000Y2080000D01*
X1240000D01*
X886600Y2433400D01*
Y2578100D01*
G01X920000Y3270000D02*
X970000Y3220000D01*
Y2970000D01*
G01X876200Y3010000D02*
Y2913800D01*
X880000Y2910000D01*
G01X876200Y3160000D02*
Y3010000D01*
G01X2160000Y2480000D02*
X1570000D01*
X1510000Y2540000D01*
Y3040000D01*
X1290000Y3260000D01*
X1030000D01*
X930000Y3360000D01*
G01Y3700000D02*
Y3980000D01*
X1306200Y4356200D01*
Y4360000D01*
G01X1113800Y3860000D02*
X1010000D01*
G01X930000Y4350000D02*
X1143800D01*
X1153800Y4360000D01*
G01X936200Y4510000D02*
X1003300Y4442900D01*
X1037100D01*
G01X936200Y4660000D02*
Y4810000D01*
G01X1070000Y4630000D02*
X977900D01*
X947900Y4660000D01*
X936200D01*
G01X1073800Y3160000D02*
Y3083800D01*
X1035000Y3045000D01*
G01X1454000Y4760000D02*
X1324000Y4630000D01*
X1260000D01*
X1153800Y4523800D01*
Y4510000D01*
G01X1037100Y4442900D02*
X1082900D01*
X1150000Y4510000D01*
X1153800D01*
G01X1266200Y3860000D02*
Y3690000D01*
G01D02*
X1960000D01*
X2445300Y4175300D01*
X2954700D01*
G01X1490000Y148400D02*
X1448400D01*
X1384300Y212500D01*
Y452600D01*
G01X1394300Y1003300D02*
X1406700D01*
X1490000Y920000D01*
X1500000D01*
G01Y1001280D02*
Y1070000D01*
X1410000Y1160000D01*
X1396200D01*
G01X1690000Y3760000D02*
X1580000Y3870000D01*
Y4640000D01*
X1460000Y4760000D01*
X1454000D01*
G01X1680000Y750000D02*
X1783800D01*
G01X1690000Y3850000D02*
X2040000D01*
X2430000Y4240000D01*
X2990000D01*
X3054700Y4175300D01*
Y4174700D01*
G01X1755860Y1100000D02*
X1840000D01*
G01X1800000Y2150000D02*
X2550000D01*
X2895100Y2495100D01*
Y2915100D01*
G01X1830000Y3550000D02*
Y3474140D01*
X1874140Y3430000D01*
G01X2640000Y3310000D02*
Y3600000D01*
X2560000Y3680000D01*
X2150000D01*
X2090000Y3620000D01*
X1740000D01*
G01X2353850Y4764900D02*
X2264670Y4675720D01*
X2110240D01*
X1800000Y4365480D01*
Y3980000D01*
X1760000Y3940000D01*
Y3920000D01*
G01X1846930D02*
Y4336930D01*
X2140000Y4630000D01*
X2472950D01*
X2607850Y4764900D01*
G01X1979700Y3920000D02*
Y4405040D01*
X2154660Y4580000D01*
X2676950D01*
X2861850Y4764900D01*
G01X2936200Y570000D02*
Y853800D01*
X2810000Y980000D01*
X2620000D01*
X2580000Y940000D01*
X2480000D01*
X2450000Y910000D01*
Y740000D01*
X2380000Y670000D01*
X2160000D01*
X2066200Y576200D01*
Y570000D01*
G01X2113800Y750000D02*
Y856200D01*
G01X2120000Y2865100D02*
X2125100D01*
X2220000Y2960000D01*
Y2964140D01*
X2225860Y2970000D01*
G01X2213800Y3190000D02*
Y3340000D01*
G01X2220000Y3440000D02*
Y3346200D01*
X2213800Y3340000D01*
G01X2140000Y3760000D02*
X3370000D01*
X3500000Y3890000D01*
Y4860000D01*
X3540000Y4900000D01*
X3950000D01*
X4009930Y4840070D01*
Y4640070D01*
X4060000Y4590000D01*
X4136200D01*
X4236200Y4490000D01*
G01X2140000Y4290000D02*
Y4480000D01*
X2180000Y4520000D01*
X2710000D01*
X2820000Y4630000D01*
X2980950D01*
X3115850Y4764900D01*
G01X2236600Y1278100D02*
Y1436600D01*
X2300000Y1500000D01*
X2810000D01*
X2900000Y1410000D01*
X3320000D01*
G01X2360000Y3440000D02*
Y3346200D01*
X2366200Y3340000D01*
G01Y3550000D02*
Y3446200D01*
X2360000Y3440000D01*
G01X3410000Y4170000D02*
Y3940000D01*
X3290000Y3820000D01*
X2370000D01*
X2304700Y3885300D01*
G01X2254700Y4290000D02*
Y4444600D01*
X2280100Y4470000D01*
X2740000D01*
X2850000Y4580000D01*
X3184950D01*
X3369850Y4764900D01*
G01X2490000Y1680000D02*
X2494100Y1675900D01*
X2932500D01*
X2957400Y1651000D01*
G01X2490000Y1802900D02*
X2956900D01*
X2957400Y1803400D01*
G01X5147850Y4764900D02*
X5200000Y4712750D01*
Y3700000D01*
X5020000Y3520000D01*
X2870000D01*
X2700000Y3690000D01*
G01X2830000Y3890000D02*
X2760000D01*
X2714140Y3935860D01*
Y4040000D01*
G01X4639850Y4764900D02*
X4774750Y4630000D01*
X4870000D01*
X5100000Y4400000D01*
Y3750000D01*
X4970000Y3620000D01*
X2950000D01*
X2880000Y3690000D01*
G01X4893850Y4764900D02*
X5150000Y4508750D01*
Y3720000D01*
X5000000Y3570000D01*
X2910000D01*
X2790000Y3690000D01*
G01X3790000Y670000D02*
X3240000D01*
X3140000Y570000D01*
X2936200D01*
G01X4385850Y4764900D02*
X4570750Y4580000D01*
X4850000D01*
X5050000Y4380000D01*
Y3770000D01*
X4970000Y3690000D01*
X2970000D01*
G01X2930000Y3890000D02*
Y4024140D01*
X2945860Y4040000D01*
G01X3116200Y1500000D02*
X3240000D01*
G01X4718720Y2310000D02*
Y2601280D01*
X3943500Y3376500D01*
X3173500D01*
X3110000Y3440000D01*
G01X4800000Y2310000D02*
Y2594950D01*
X3954950Y3440000D01*
X3210000D01*
G01X3510000Y860000D02*
X3410000Y960000D01*
X3396200D01*
G01X3690000Y2810000D02*
X3620000Y2740000D01*
Y2460010D01*
X3250000Y2090010D01*
Y1620000D01*
X3320000Y1550000D01*
Y1410000D01*
G01D02*
X3840000D01*
X3970000Y1280000D01*
Y1090000D01*
X4050000Y1010000D01*
X4830000D01*
X5070000Y770000D01*
X6560000D01*
X6626200Y703800D01*
Y580000D01*
G01X3330000Y1675900D02*
X3453400D01*
X3475600Y1653700D01*
G01Y1806100D02*
X3472400Y1802900D01*
X3330000D01*
G01X3490000Y1010000D02*
Y1050000D01*
G01D02*
X3480000Y1060000D01*
G01X3617030Y860000D02*
Y936770D01*
X3593800Y960000D01*
G01X3660000Y1530000D02*
X3763800D01*
X3783800Y1510000D01*
G01X3760580Y2850330D02*
X3760000Y2849750D01*
Y2220000D01*
X3700000Y2160000D01*
G01X3800000Y3090000D02*
X3670000Y3220000D01*
Y3230000D01*
G01X3790000Y670000D02*
X4070000Y950000D01*
X4460000D01*
X4656200Y753800D01*
Y560000D01*
G01X3786200Y570000D02*
Y666200D01*
X3790000Y670000D01*
G01X4130000Y2210000D02*
X3852700D01*
X3802700Y2160000D01*
G01X3980000Y4145000D02*
X3911200D01*
X3866200Y4100000D01*
G01Y4490000D02*
X3881200Y4505000D01*
X3981600D01*
G01X4055000Y1135000D02*
X4140300D01*
X4219800Y1214500D01*
G01X4020000Y1400000D02*
X3961600D01*
X3936200Y1425400D01*
Y1510000D01*
G01X4155860Y1520000D02*
Y1529900D01*
X4065760Y1620000D01*
X4005140D01*
X4005080Y1620060D01*
G01X3952700Y2130000D02*
Y2041700D01*
X4127500Y1866900D01*
G01X4130000Y2210000D02*
X4127500Y2207500D01*
Y2019300D01*
G01X4236200Y4490000D02*
X4340000D01*
G01X4246200Y4205700D02*
Y4100000D01*
G01X4656200Y560000D02*
X4830000D01*
X4940000Y670000D01*
X5500000D01*
G01X4690000Y4090000D02*
X4820000D01*
X4870000Y4140000D01*
Y4387700D01*
X4766100Y4491600D01*
G01X4690000Y4250000D02*
X4613700Y4326300D01*
Y4339200D01*
G01D02*
Y4491600D01*
G01X4970000Y2130000D02*
X4940000D01*
X4880000Y2070000D01*
G01X5190000Y2140000D02*
Y2020000D01*
G01D02*
X5120000Y1950000D01*
G01X5612100Y2237400D02*
X5490000Y2115300D01*
Y1790000D01*
X5370000Y1670000D01*
X5366200D01*
G01X5370000Y1560000D02*
Y1666200D01*
X5366200Y1670000D01*
G01X5400000Y1800000D02*
Y1930000D01*
G01X5310000Y1920000D02*
X5330000Y1940000D01*
Y1990000D01*
X5360000Y2020000D01*
G01X5500000Y670000D02*
X6000000D01*
X6083800Y586200D01*
Y580000D01*
G01X5506200Y570000D02*
Y663800D01*
X5500000Y670000D01*
G01X6110000Y3050000D02*
X6230000Y2930000D01*
Y2200000D01*
X6180000Y2150000D01*
X6090000D01*
X6000000Y2060000D01*
X5600000D01*
X5550000Y2010000D01*
Y1420000D01*
X5480000Y1350000D01*
G01X5853100Y2386900D02*
X5950700D01*
X5953800Y2390000D01*
G01X6083800Y430000D02*
X6011300Y357500D01*
X5952500D01*
G01X6083800Y580000D02*
X6086200D01*
X6236200Y430000D01*
G01X5953100Y2136900D02*
Y2239300D01*
X5953800Y2240000D01*
G01X6236200Y430000D02*
X6473800D01*
G01X6281900Y688100D02*
Y625700D01*
X6236200Y580000D01*
G01X6485100Y685100D02*
Y591300D01*
X6473800Y580000D01*
G01X6730000Y480000D02*
X6676200D01*
X6626200Y430000D01*
G54D18*
X1200000Y4760000D03*
G54D28*
G01X330010Y4940290D02*
X7180010Y4940010D01*
G02X7510000Y4610010I-9J-329999D01*
G01Y330000D01*
G02X7180000Y0I-330000J0D01*
G01X330000D01*
G02X0Y330000I0J330000D01*
G01Y4610290D01*
G02X330010Y4940290I330001J-1D01*
G54D19*
X1640300Y504000D03*
X2340300D03*
X3367500D03*
X4067500D03*
X5082000D03*
X5782000D03*
G54D29*
G01X60000Y610000D02*
X330200Y339800D01*
Y330200D01*
G01X660000Y60000D02*
X389800Y330200D01*
X340200D01*
G01D02*
X600000Y590000D01*
G01X340200Y330200D02*
X330200D01*
G01Y4220200D02*
Y4610100D01*
G01X330000Y4220000D02*
X330200Y4220200D01*
G01X630000Y4350000D02*
X369900Y4610100D01*
X330200D01*
G01X610000Y4890000D02*
X330200Y4610200D01*
Y4610100D01*
G01X740000Y3160000D02*
X723800D01*
G01X750000Y3170000D02*
X740000Y3160000D01*
G01X1320000Y2260000D02*
X2560000D01*
X2800000Y2500000D01*
Y3040000D01*
G01X2490000Y1570000D02*
X1940000D01*
X1720000Y1350000D01*
G01D02*
Y1330000D01*
G01X1990800Y3090000D02*
X1940000Y3039200D01*
Y2970000D01*
G01X2360000Y3090000D02*
X1990800D01*
G01X2290000Y2350000D02*
X2386600Y2446600D01*
Y2578100D01*
G01D02*
Y2692800D01*
X2443800Y2750000D01*
G01X2366200Y3190000D02*
Y3096200D01*
X2360000Y3090000D01*
G01X2366200Y3190000D02*
X2543800D01*
G01X2580000Y1570000D02*
X2490000D01*
G01X2543800Y3190000D02*
Y3213800D01*
X2640000Y3310000D01*
G01D02*
X3200000D01*
G01X2957400Y2057400D02*
X2787400D01*
X2786900Y2056900D01*
G01X3109800Y1803400D02*
Y1880200D01*
X2957400Y2032600D01*
Y2057400D01*
G01X3480000Y3120000D02*
Y2610000D01*
X3260000Y2390000D01*
X3050000D01*
X2957400Y2297400D01*
Y2057400D01*
G01X3109800Y1651000D02*
Y1803400D01*
G01X3343800Y3290000D02*
X3323800Y3310000D01*
X3200000D01*
G01X3475600Y2057400D02*
X3330000D01*
G01X3480000Y3120000D02*
X3343800Y3256200D01*
Y3290000D01*
G01X3690000Y2710000D02*
Y2290000D01*
X3475600Y2075600D01*
Y2057400D01*
G01X3480000Y3120000D02*
X3630000D01*
X3740000Y3010000D01*
X3870000D01*
X4038600Y2841400D01*
Y2819400D01*
G01X3628000Y1653700D02*
Y1806100D01*
G01X3980000Y1830000D02*
Y1765300D01*
X4030800Y1714500D01*
X4140200D01*
G01X4038600Y2819400D02*
X4159400D01*
G01X4140200Y1714500D02*
Y1718200D01*
X4279900Y1857900D01*
Y1866900D01*
G01X5270000Y2410000D02*
X5130000D01*
X4870000Y2150000D01*
X4470000D01*
X4159400Y2460600D01*
Y2819400D01*
G01X4279900Y2019300D02*
Y1866900D01*
G01X4996200Y2020000D02*
Y1996200D01*
X4866900Y1866900D01*
X4279900D01*
G01X4648200Y3086100D02*
Y3251200D01*
X4635500Y3263900D01*
G01X4640000Y3870000D02*
X4641400Y3871400D01*
X4752400D01*
X4753800Y3870000D01*
G01X4903900Y2946100D02*
X4813000D01*
X4800600Y2933700D01*
G01X4903900Y2946100D02*
X5266100D01*
X5270000Y2950000D01*
G01X5190000Y3056100D02*
X5160000Y3086100D01*
X4800600D01*
G01X4838700Y3263900D02*
X5270000D01*
G01Y2410000D02*
Y1980000D01*
X5100000Y1810000D01*
Y1490000D01*
X5400000Y1190000D01*
Y940000D01*
X5500000Y840000D01*
X6690000D01*
X6810000Y720000D01*
Y370000D01*
X6760000Y320000D01*
X6570000D01*
X6473800Y416200D01*
Y430000D01*
G01X5120000Y2056900D02*
X5033100D01*
X4996200Y2020000D01*
G01X5457160Y2415200D02*
X5451960Y2410000D01*
X5270000D01*
G01D02*
Y2950000D01*
G01D02*
Y3263900D01*
G01D02*
X5475860Y3469760D01*
Y4190000D01*
G01X5270000Y3270000D02*
Y3263900D01*
G01X5684140Y4190000D02*
X6740000D01*
X6850000Y4300000D01*
G01X6910000Y40000D02*
X7180000Y310000D01*
Y330000D01*
G01D02*
Y690000D01*
X7210000Y720000D01*
M02*
