G04 ================== begin FILE IDENTIFICATION RECORD ==================*
G04 Layout Name:  E:/GitHub/39_CUITBIKE/v1.2/PCB/CUITBIKE_V1.1_MSP430.brd*
G04 Film Name:    SilkScreen_Bottom*
G04 File Format:  Gerber RS274X*
G04 File Origin:  Cadence Allegro 16.6-2015-S071*
G04 Origin Date:  Tue Nov 22 19:44:42 2016*
G04 *
G04 Layer:  BOARD GEOMETRY/OUTLINE*
G04 Layer:  REF DES/SILKSCREEN_BOTTOM*
G04 Layer:  PACKAGE GEOMETRY/SILKSCREEN_BOTTOM*
G04 Layer:  BOARD GEOMETRY/SILKSCREEN_BOTTOM*
G04 *
G04 Offset:    (0.0000 0.0000)*
G04 Mirror:    No*
G04 Mode:      Positive*
G04 Rotation:  0*
G04 FullContactRelief:  No*
G04 UndefLineWidth:     0.1524*
G04 ================== end FILE IDENTIFICATION RECORD ====================*
%FSLAX55Y55*MOMM*%
%IR0*IPPOS*OFA0.00000B0.00000*MIA0B0*SFA1.00000B1.00000*%
%ADD10C,.2032*%
%ADD11C,.17*%
%ADD12C,.127*%
%ADD13C,.254*%
%ADD14C,.1524*%
G75*
%LPD*%
G75*
G36*
G01X516600Y2568100D02*
X2706600D01*
Y1288100D01*
X516600D01*
Y2568100D01*
G37*
G54D10*
G01X251530Y2721600D02*
Y2648790D01*
X247300Y2633540D01*
X238830Y2623390D01*
X228250Y2620000D01*
X217670Y2623390D01*
X209200Y2633540D01*
X204970Y2648790D01*
Y2721600D01*
G01X144430Y2620000D02*
Y2721600D01*
X157130Y2701280D01*
G01Y2620000D02*
X131730D01*
G01X60610D02*
X53200Y2621690D01*
X44740Y2626770D01*
X39440Y2635240D01*
X37330Y2647090D01*
X39440Y2658940D01*
X45790Y2669110D01*
X55320Y2674190D01*
X65900D01*
X72250Y2677570D01*
X77540Y2686040D01*
X79660Y2697890D01*
X76480Y2709750D01*
X69080Y2718210D01*
X60610Y2721600D01*
X52140Y2718210D01*
X44740Y2709750D01*
X41560Y2697890D01*
X43680Y2686040D01*
X48970Y2677570D01*
X55320Y2674190D01*
X65900D01*
X75430Y2669110D01*
X81780Y2658940D01*
X83890Y2647090D01*
X81780Y2635240D01*
X76480Y2626770D01*
X68020Y2621690D01*
X60610Y2620000D01*
G01X364580Y908720D02*
G02Y1071280I106888J81280D01*
G01X298400Y2628470D02*
X371210D01*
X386460Y2632700D01*
X396610Y2641170D01*
X400000Y2651750D01*
X396610Y2662330D01*
X386460Y2670800D01*
X371210Y2675030D01*
X298400D01*
G01X306870Y2758850D02*
X301790Y2752500D01*
X298400Y2745100D01*
Y2736630D01*
X303480Y2727100D01*
X311950Y2719700D01*
X322110Y2714400D01*
X339040Y2710170D01*
X354280Y2709110D01*
X369520Y2711230D01*
X379680Y2714400D01*
X389840Y2720750D01*
X396610Y2728160D01*
X400000Y2735570D01*
Y2742980D01*
X396610Y2750390D01*
X391540Y2756740D01*
X384760Y2762030D01*
G01X400000Y2792930D02*
X298400Y2819390D01*
X400000Y2845850D01*
G01X364440Y2836320D02*
Y2802460D01*
G01X298400Y2903210D02*
X301790Y2894740D01*
X310250Y2888390D01*
X320410Y2884160D01*
X333960Y2880980D01*
X349200Y2879930D01*
X364440Y2880980D01*
X377990Y2884160D01*
X388150Y2888390D01*
X396610Y2894740D01*
X400000Y2903210D01*
X396610Y2911680D01*
X388150Y2918030D01*
X377990Y2922260D01*
X364440Y2925440D01*
X349200Y2926490D01*
X333960Y2925440D01*
X320410Y2922260D01*
X310250Y2918030D01*
X301790Y2911680D01*
X298400Y2903210D01*
G01X366130Y2973270D02*
Y3000790D01*
G01X400000Y3049680D02*
X298400D01*
Y3076140D01*
X303480Y3084610D01*
X310250Y3089900D01*
X323800Y3092020D01*
X337350Y3089900D01*
X345810Y3083550D01*
X350890Y3076140D01*
Y3049680D01*
G01Y3076140D02*
X400000Y3092020D01*
G01Y3132440D02*
X298400Y3176900D01*
G01Y3132440D02*
X400000Y3176900D01*
G01X649700Y823500D02*
X370300D01*
Y696500D01*
X649700D01*
G01X735420Y908720D02*
X364580D01*
G01Y1071280D02*
X735420D01*
G01X360300Y1223500D02*
Y1096500D01*
G01D02*
X639700D01*
Y1223500D01*
X360300D01*
G01X508400Y2628470D02*
X581210D01*
X596460Y2632700D01*
X606610Y2641170D01*
X610000Y2651750D01*
X606610Y2662330D01*
X596460Y2670800D01*
X581210Y2675030D01*
X508400D01*
G01X516870Y2758850D02*
X511790Y2752500D01*
X508400Y2745100D01*
Y2736630D01*
X513480Y2727100D01*
X521950Y2719700D01*
X532110Y2714400D01*
X549040Y2710170D01*
X564280Y2709110D01*
X579520Y2711230D01*
X589680Y2714400D01*
X599840Y2720750D01*
X606610Y2728160D01*
X610000Y2735570D01*
Y2742980D01*
X606610Y2750390D01*
X601540Y2756740D01*
X594760Y2762030D01*
G01X610000Y2792930D02*
X508400Y2819390D01*
X610000Y2845850D01*
G01X574440Y2836320D02*
Y2802460D01*
G01X508400Y2903210D02*
X511790Y2894740D01*
X520250Y2888390D01*
X530410Y2884160D01*
X543960Y2880980D01*
X559200Y2879930D01*
X574440Y2880980D01*
X587990Y2884160D01*
X598150Y2888390D01*
X606610Y2894740D01*
X610000Y2903210D01*
X606610Y2911680D01*
X598150Y2918030D01*
X587990Y2922260D01*
X574440Y2925440D01*
X559200Y2926490D01*
X543960Y2925440D01*
X530410Y2922260D01*
X520250Y2918030D01*
X511790Y2911680D01*
X508400Y2903210D01*
G01X576130Y2973270D02*
Y3000790D01*
G01X508400Y3070850D02*
X610000D01*
G01X508400Y3046510D02*
Y3095190D01*
G01X610000Y3132440D02*
X508400Y3176900D01*
G01Y3132440D02*
X610000Y3176900D01*
G01X839420Y470000D02*
Y571600D01*
X812960D01*
X804490Y566520D01*
X799200Y559750D01*
X797080Y546200D01*
X799200Y532650D01*
X805550Y524190D01*
X812960Y519110D01*
X839420D01*
G01X812960D02*
X797080Y470000D01*
G01X734430D02*
Y571600D01*
X747130Y551280D01*
G01Y470000D02*
X721730D01*
G01X670720Y554670D02*
X664370Y564830D01*
X656960Y569910D01*
X648490Y571600D01*
X637910Y568210D01*
X630500Y559750D01*
X628380Y549590D01*
X629440Y539420D01*
X633680Y530960D01*
X654840Y514030D01*
X664370Y502170D01*
X670720Y485240D01*
X672840Y470000D01*
X628380D01*
G01X649700Y696500D02*
Y823500D01*
G01X939700Y2863500D02*
X660300D01*
Y2736500D01*
X939700D01*
G01Y3073500D02*
X660300D01*
Y2946500D01*
X939700D01*
G01X660300Y3223500D02*
Y3096500D01*
G01D02*
X939700D01*
Y3223500D01*
X660300D01*
G01X804970Y693130D02*
X811320Y698210D01*
X818720Y701600D01*
X827190D01*
X836720Y696520D01*
X844120Y688050D01*
X849420Y677890D01*
X853650Y660960D01*
X854710Y645720D01*
X852590Y630480D01*
X849420Y620320D01*
X843070Y610160D01*
X835660Y603390D01*
X828250Y600000D01*
X820840D01*
X813430Y603390D01*
X807080Y608460D01*
X801790Y615240D01*
G01X767710D02*
X761360Y606770D01*
X753960Y601690D01*
X744430Y600000D01*
X734900Y603390D01*
X727500Y610160D01*
X722200Y622010D01*
X721150Y635560D01*
X723260Y649110D01*
X728560Y657570D01*
X735960Y664350D01*
X743370Y666040D01*
X750780Y664350D01*
X760300Y657570D01*
X757130Y701600D01*
X728560D01*
G01X839420Y730000D02*
Y831600D01*
X812960D01*
X804490Y826520D01*
X799200Y819750D01*
X797080Y806200D01*
X799200Y792650D01*
X805550Y784190D01*
X812960Y779110D01*
X839420D01*
G01X812960D02*
X797080Y730000D01*
G01X752420Y741850D02*
X745010Y733390D01*
X736550Y730000D01*
X728080Y733390D01*
X720670Y743540D01*
X715380Y758790D01*
X713260Y774030D01*
Y792650D01*
X715380Y807890D01*
X720670Y821440D01*
X727020Y828210D01*
X734430Y831600D01*
X742900Y828210D01*
X749250Y821440D01*
X753480Y811280D01*
X755600Y797730D01*
X753480Y785880D01*
X748190Y774030D01*
X741840Y767250D01*
X734430Y765560D01*
X725960Y768940D01*
X719610Y777410D01*
X713260Y792650D01*
G01X737960Y908720D02*
G03Y1071280I-106888J81280D01*
G01X720300Y1223500D02*
Y1096500D01*
G01D02*
X999700D01*
Y1223500D01*
X720300D01*
G01X909420Y3250000D02*
Y3351600D01*
X882960D01*
X874490Y3346520D01*
X869200Y3339750D01*
X867080Y3326200D01*
X869200Y3312650D01*
X875550Y3304190D01*
X882960Y3299110D01*
X909420D01*
G01X882960D02*
X867080Y3250000D01*
G01X804430D02*
Y3351600D01*
X817130Y3331280D01*
G01Y3250000D02*
X791730D01*
G01X743890Y3270320D02*
X737540Y3258460D01*
X729080Y3251690D01*
X719550Y3250000D01*
X711080Y3251690D01*
X702620Y3260160D01*
X697330Y3270320D01*
X696270Y3280480D01*
X698380Y3292330D01*
X705790Y3300800D01*
X713200Y3304190D01*
X722730D01*
G01X713200D02*
X706850Y3309270D01*
X701560Y3317730D01*
X699440Y3327890D01*
X701560Y3338050D01*
X706850Y3346520D01*
X716380Y3351600D01*
X725900Y3349910D01*
X735430Y3343130D01*
G01X909420Y3380000D02*
Y3481600D01*
X882960D01*
X874490Y3476520D01*
X869200Y3469750D01*
X867080Y3456200D01*
X869200Y3442650D01*
X875550Y3434190D01*
X882960Y3429110D01*
X909420D01*
G01X882960D02*
X867080Y3380000D01*
G01X804430D02*
Y3481600D01*
X817130Y3461280D01*
G01Y3380000D02*
X791730D01*
G01X743890Y3395240D02*
X737540Y3386770D01*
X730140Y3381690D01*
X720610Y3380000D01*
X711080Y3383390D01*
X703680Y3390160D01*
X698380Y3402010D01*
X697330Y3415560D01*
X699440Y3429110D01*
X704740Y3437570D01*
X712140Y3444350D01*
X719550Y3446040D01*
X726960Y3444350D01*
X736480Y3437570D01*
X733310Y3481600D01*
X704740D01*
G01X909420Y3520000D02*
Y3621600D01*
X882960D01*
X874490Y3616520D01*
X869200Y3609750D01*
X867080Y3596200D01*
X869200Y3582650D01*
X875550Y3574190D01*
X882960Y3569110D01*
X909420D01*
G01X882960D02*
X867080Y3520000D01*
G01X804430D02*
Y3621600D01*
X817130Y3601280D01*
G01Y3520000D02*
X791730D01*
G01X720610D02*
X713200Y3521690D01*
X704740Y3526770D01*
X699440Y3535240D01*
X697330Y3547090D01*
X699440Y3558940D01*
X705790Y3569110D01*
X715320Y3574190D01*
X725900D01*
X732250Y3577570D01*
X737540Y3586040D01*
X739660Y3597890D01*
X736480Y3609750D01*
X729080Y3618210D01*
X720610Y3621600D01*
X712140Y3618210D01*
X704740Y3609750D01*
X701560Y3597890D01*
X703680Y3586040D01*
X708970Y3577570D01*
X715320Y3574190D01*
X725900D01*
X735430Y3569110D01*
X741780Y3558940D01*
X743890Y3547090D01*
X741780Y3535240D01*
X736480Y3526770D01*
X728020Y3521690D01*
X720610Y3520000D01*
G01X989420Y4020000D02*
Y4121600D01*
X962960D01*
X954490Y4116520D01*
X949200Y4109750D01*
X947080Y4096200D01*
X949200Y4082650D01*
X955550Y4074190D01*
X962960Y4069110D01*
X989420D01*
G01X962960D02*
X947080Y4020000D01*
G01X904540Y4104670D02*
X898190Y4114830D01*
X890780Y4119910D01*
X882310Y4121600D01*
X871730Y4118210D01*
X864320Y4109750D01*
X862200Y4099590D01*
X863260Y4089420D01*
X867500Y4080960D01*
X888660Y4064030D01*
X898190Y4052170D01*
X904540Y4035240D01*
X906660Y4020000D01*
X862200D01*
G01X787910D02*
Y4121600D01*
X827070Y4048790D01*
X774150D01*
G01X989420Y4160000D02*
Y4261600D01*
X962960D01*
X954490Y4256520D01*
X949200Y4249750D01*
X947080Y4236200D01*
X949200Y4222650D01*
X955550Y4214190D01*
X962960Y4209110D01*
X989420D01*
G01X962960D02*
X947080Y4160000D01*
G01X904540Y4244670D02*
X898190Y4254830D01*
X890780Y4259910D01*
X882310Y4261600D01*
X871730Y4258210D01*
X864320Y4249750D01*
X862200Y4239590D01*
X863260Y4229420D01*
X867500Y4220960D01*
X888660Y4204030D01*
X898190Y4192170D01*
X904540Y4175240D01*
X906660Y4160000D01*
X862200D01*
G01X823890Y4175240D02*
X817540Y4166770D01*
X810140Y4161690D01*
X800610Y4160000D01*
X791080Y4163390D01*
X783680Y4170160D01*
X778380Y4182010D01*
X777330Y4195560D01*
X779440Y4209110D01*
X784740Y4217570D01*
X792140Y4224350D01*
X799550Y4226040D01*
X806960Y4224350D01*
X816480Y4217570D01*
X813310Y4261600D01*
X784740D01*
G01X944970Y4403130D02*
X951320Y4408210D01*
X958720Y4411600D01*
X967190D01*
X976720Y4406520D01*
X984120Y4398050D01*
X989420Y4387890D01*
X993650Y4370960D01*
X994710Y4355720D01*
X992590Y4340480D01*
X989420Y4330320D01*
X983070Y4320160D01*
X975660Y4313390D01*
X968250Y4310000D01*
X960840D01*
X953430Y4313390D01*
X947080Y4318460D01*
X941790Y4325240D01*
G01X907710Y4330320D02*
X901360Y4318460D01*
X892900Y4311690D01*
X883370Y4310000D01*
X874900Y4311690D01*
X866440Y4320160D01*
X861150Y4330320D01*
X860090Y4340480D01*
X862200Y4352330D01*
X869610Y4360800D01*
X877020Y4364190D01*
X886550D01*
G01X877020D02*
X870670Y4369270D01*
X865380Y4377730D01*
X863260Y4387890D01*
X865380Y4398050D01*
X870670Y4406520D01*
X880200Y4411600D01*
X889720Y4409910D01*
X899250Y4403130D01*
G01X787910Y4310000D02*
Y4411600D01*
X827070Y4338790D01*
X774150D01*
G01X720300Y4573500D02*
Y4446500D01*
G01D02*
X999700D01*
Y4573500D01*
X720300D01*
G01X999700Y4746500D02*
X720300D01*
G01D02*
G02Y4873500I71651J63500D01*
G01X999700Y4723500D02*
X720300D01*
Y4596500D01*
X999700D01*
G01X720300Y4873500D02*
X999700D01*
G01X1139420Y250000D02*
Y351600D01*
X1112960D01*
X1104490Y346520D01*
X1099200Y339750D01*
X1097080Y326200D01*
X1099200Y312650D01*
X1105550Y304190D01*
X1112960Y299110D01*
X1139420D01*
G01X1112960D02*
X1097080Y250000D01*
G01X1036550D02*
X1034430Y272010D01*
X1031250Y290640D01*
X1027020Y307570D01*
X1021730Y326200D01*
X1013260Y351600D01*
X1055600D01*
G01X863600Y516100D02*
Y389100D01*
G01D02*
X1143000D01*
Y516100D01*
X863600D01*
G01X1009420Y730000D02*
Y831600D01*
X982960D01*
X974490Y826520D01*
X969200Y819750D01*
X967080Y806200D01*
X969200Y792650D01*
X975550Y784190D01*
X982960Y779110D01*
X1009420D01*
G01X982960D02*
X967080Y730000D01*
G01X924540Y772330D02*
X917130Y784190D01*
X910780Y790960D01*
X902310Y794350D01*
X894900Y790960D01*
X889610Y784190D01*
X885380Y774030D01*
X884320Y762170D01*
X885380Y752010D01*
X889610Y741850D01*
X895960Y733390D01*
X903370Y730000D01*
X911840Y733390D01*
X919250Y743540D01*
X923480Y758790D01*
X924540Y775720D01*
X922420Y797730D01*
X919250Y809590D01*
X913960Y821440D01*
X906550Y829910D01*
X899140Y831600D01*
X891730Y828210D01*
X886440Y819750D01*
G01X1385420Y2648720D02*
X1014580D01*
G01X1012040Y2811280D02*
G03Y2648720I106888J-81280D01*
G01X1385420Y2838720D02*
X1014580D01*
G01X1012040Y3001280D02*
G03Y2838720I106888J-81280D01*
G01X1014580Y2811280D02*
X1385420D01*
G01X939700Y2736500D02*
Y2863500D01*
G01X1014580Y3001280D02*
X1385420D01*
G01X939700Y2946500D02*
Y3073500D01*
G01X1010300Y3223500D02*
Y3096500D01*
G01D02*
X1289700D01*
Y3223500D01*
X1010300D01*
G01X1002240Y4746500D02*
G03Y4873500I-73330J63500D01*
G01X999700Y4596500D02*
Y4723500D01*
G01X1168400Y516100D02*
Y389100D01*
G01D02*
X1447800D01*
Y516100D01*
X1168400D01*
G01X1453610Y571420D02*
X1082770D01*
G01D02*
G02Y733980I106888J81280D01*
G01X1452720Y756920D02*
X1081880D01*
G01D02*
G02Y919480I106888J81280D01*
G01X1082770Y733980D02*
X1453610D01*
G01X1081880Y919480D02*
X1452720D01*
G01X1178400Y1066800D02*
Y939800D01*
G01D02*
X1457800D01*
Y1066800D01*
X1178400D01*
G01X1180300Y1223500D02*
Y1096500D01*
G01D02*
X1459700D01*
Y1223500D01*
X1180300D01*
G01X1244970Y3343130D02*
X1251320Y3348210D01*
X1258720Y3351600D01*
X1267190D01*
X1276720Y3346520D01*
X1284120Y3338050D01*
X1289420Y3327890D01*
X1293650Y3310960D01*
X1294710Y3295720D01*
X1292590Y3280480D01*
X1289420Y3270320D01*
X1283070Y3260160D01*
X1275660Y3253390D01*
X1268250Y3250000D01*
X1260840D01*
X1253430Y3253390D01*
X1247080Y3258460D01*
X1241790Y3265240D01*
G01X1204540Y3292330D02*
X1197130Y3304190D01*
X1190780Y3310960D01*
X1182310Y3314350D01*
X1174900Y3310960D01*
X1169610Y3304190D01*
X1165380Y3294030D01*
X1164320Y3282170D01*
X1165380Y3272010D01*
X1169610Y3261850D01*
X1175960Y3253390D01*
X1183370Y3250000D01*
X1191840Y3253390D01*
X1199250Y3263540D01*
X1203480Y3278790D01*
X1204540Y3295720D01*
X1202420Y3317730D01*
X1199250Y3329590D01*
X1193960Y3341440D01*
X1186550Y3349910D01*
X1179140Y3351600D01*
X1171730Y3348210D01*
X1166440Y3339750D01*
G01X1244970Y3473130D02*
X1251320Y3478210D01*
X1258720Y3481600D01*
X1267190D01*
X1276720Y3476520D01*
X1284120Y3468050D01*
X1289420Y3457890D01*
X1293650Y3440960D01*
X1294710Y3425720D01*
X1292590Y3410480D01*
X1289420Y3400320D01*
X1283070Y3390160D01*
X1275660Y3383390D01*
X1268250Y3380000D01*
X1260840D01*
X1253430Y3383390D01*
X1247080Y3388460D01*
X1241790Y3395240D01*
G01X1186550Y3380000D02*
X1184430Y3402010D01*
X1181250Y3420640D01*
X1177020Y3437570D01*
X1171730Y3456200D01*
X1163260Y3481600D01*
X1205600D01*
G01X1279420Y3520000D02*
Y3621600D01*
X1252960D01*
X1244490Y3616520D01*
X1239200Y3609750D01*
X1237080Y3596200D01*
X1239200Y3582650D01*
X1245550Y3574190D01*
X1252960Y3569110D01*
X1279420D01*
G01X1252960D02*
X1237080Y3520000D01*
G01X1174430D02*
Y3621600D01*
X1187130Y3601280D01*
G01Y3520000D02*
X1161730D01*
G01X1077910D02*
Y3621600D01*
X1117070Y3548790D01*
X1064150D01*
G01X1329700Y3923500D02*
X1050300D01*
Y3796500D01*
X1329700D01*
G01X1369700Y4423500D02*
X1090300D01*
Y4296500D01*
X1369700D01*
G01X1090300Y4573500D02*
X1369700D01*
G01Y4446500D02*
X1090300D01*
G01X1087760Y4573500D02*
G03Y4446500I73330J-63500D01*
G01X1349420Y250000D02*
Y351600D01*
X1322960D01*
X1314490Y346520D01*
X1309200Y339750D01*
X1307080Y326200D01*
X1309200Y312650D01*
X1315550Y304190D01*
X1322960Y299110D01*
X1349420D01*
G01X1322960D02*
X1307080Y250000D01*
G01X1244430D02*
X1237020Y251690D01*
X1228560Y256770D01*
X1223260Y265240D01*
X1221150Y277090D01*
X1223260Y288940D01*
X1229610Y299110D01*
X1239140Y304190D01*
X1249720D01*
X1256070Y307570D01*
X1261360Y316040D01*
X1263480Y327890D01*
X1260300Y339750D01*
X1252900Y348210D01*
X1244430Y351600D01*
X1235960Y348210D01*
X1228560Y339750D01*
X1225380Y327890D01*
X1227500Y316040D01*
X1232790Y307570D01*
X1239140Y304190D01*
X1249720D01*
X1259250Y299110D01*
X1265600Y288940D01*
X1267710Y277090D01*
X1265600Y265240D01*
X1260300Y256770D01*
X1251840Y251690D01*
X1244430Y250000D01*
G01X1499420Y3810000D02*
Y3911600D01*
X1472960D01*
X1464490Y3906520D01*
X1459200Y3899750D01*
X1457080Y3886200D01*
X1459200Y3872650D01*
X1465550Y3864190D01*
X1472960Y3859110D01*
X1499420D01*
G01X1472960D02*
X1457080Y3810000D01*
G01X1417710Y3825240D02*
X1411360Y3816770D01*
X1403960Y3811690D01*
X1394430Y3810000D01*
X1384900Y3813390D01*
X1377500Y3820160D01*
X1372200Y3832010D01*
X1371150Y3845560D01*
X1373260Y3859110D01*
X1378560Y3867570D01*
X1385960Y3874350D01*
X1393370Y3876040D01*
X1400780Y3874350D01*
X1410300Y3867570D01*
X1407130Y3911600D01*
X1378560D01*
G01X1329700Y3796500D02*
Y3923500D01*
G01X1639420Y20000D02*
Y121600D01*
X1612960D01*
X1604490Y116520D01*
X1599200Y109750D01*
X1597080Y96200D01*
X1599200Y82650D01*
X1605550Y74190D01*
X1612960Y69110D01*
X1639420D01*
G01X1612960D02*
X1597080Y20000D01*
G01X1534430D02*
Y121600D01*
X1547130Y101280D01*
G01Y20000D02*
X1521730D01*
G01X1452730D02*
X1450610Y42010D01*
X1447430Y60640D01*
X1443200Y77570D01*
X1437910Y96200D01*
X1429440Y121600D01*
X1471780D01*
G01X1594970Y243130D02*
X1601320Y248210D01*
X1608720Y251600D01*
X1617190D01*
X1626720Y246520D01*
X1634120Y238050D01*
X1639420Y227890D01*
X1643650Y210960D01*
X1644710Y195720D01*
X1642590Y180480D01*
X1639420Y170320D01*
X1633070Y160160D01*
X1625660Y153390D01*
X1618250Y150000D01*
X1610840D01*
X1603430Y153390D01*
X1597080Y158460D01*
X1591790Y165240D01*
G01X1534430Y150000D02*
Y251600D01*
X1547130Y231280D01*
G01Y150000D02*
X1521730D01*
G01X1450610Y251600D02*
X1459080Y248210D01*
X1465430Y239750D01*
X1469660Y229590D01*
X1472840Y216040D01*
X1473890Y200800D01*
X1472840Y185560D01*
X1469660Y172010D01*
X1465430Y161850D01*
X1459080Y153390D01*
X1450610Y150000D01*
X1442140Y153390D01*
X1435790Y161850D01*
X1431560Y172010D01*
X1428380Y185560D01*
X1427330Y200800D01*
X1428380Y216040D01*
X1431560Y229590D01*
X1435790Y239750D01*
X1442140Y248210D01*
X1450610Y251600D01*
G01X1594970Y373130D02*
X1601320Y378210D01*
X1608720Y381600D01*
X1617190D01*
X1626720Y376520D01*
X1634120Y368050D01*
X1639420Y357890D01*
X1643650Y340960D01*
X1644710Y325720D01*
X1642590Y310480D01*
X1639420Y300320D01*
X1633070Y290160D01*
X1625660Y283390D01*
X1618250Y280000D01*
X1610840D01*
X1603430Y283390D01*
X1597080Y288460D01*
X1591790Y295240D01*
G01X1534430Y280000D02*
Y381600D01*
X1547130Y361280D01*
G01Y280000D02*
X1521730D01*
G01X1450610D02*
Y381600D01*
X1463310Y361280D01*
G01Y280000D02*
X1437910D01*
G01X1584970Y753130D02*
X1591320Y758210D01*
X1598720Y761600D01*
X1607190D01*
X1616720Y756520D01*
X1624120Y748050D01*
X1629420Y737890D01*
X1633650Y720960D01*
X1634710Y705720D01*
X1632590Y690480D01*
X1629420Y680320D01*
X1623070Y670160D01*
X1615660Y663390D01*
X1608250Y660000D01*
X1600840D01*
X1593430Y663390D01*
X1587080Y668460D01*
X1581790Y675240D01*
G01X1547710Y680320D02*
X1541360Y668460D01*
X1532900Y661690D01*
X1523370Y660000D01*
X1514900Y661690D01*
X1506440Y670160D01*
X1501150Y680320D01*
X1500090Y690480D01*
X1502200Y702330D01*
X1509610Y710800D01*
X1517020Y714190D01*
X1526550D01*
G01X1517020D02*
X1510670Y719270D01*
X1505380Y727730D01*
X1503260Y737890D01*
X1505380Y748050D01*
X1510670Y756520D01*
X1520200Y761600D01*
X1529720Y759910D01*
X1539250Y753130D01*
G01X1456150Y571420D02*
G03Y733980I-106888J81280D01*
G01X1584970Y883130D02*
X1591320Y888210D01*
X1598720Y891600D01*
X1607190D01*
X1616720Y886520D01*
X1624120Y878050D01*
X1629420Y867890D01*
X1633650Y850960D01*
X1634710Y835720D01*
X1632590Y820480D01*
X1629420Y810320D01*
X1623070Y800160D01*
X1615660Y793390D01*
X1608250Y790000D01*
X1600840D01*
X1593430Y793390D01*
X1587080Y798460D01*
X1581790Y805240D01*
G01X1511730Y790000D02*
Y891600D01*
X1550890Y818790D01*
X1497970D01*
G01X1455260Y756920D02*
G03Y919480I-106888J81280D01*
G01X1674520Y964900D02*
Y1066500D01*
X1648060D01*
X1639590Y1061420D01*
X1634300Y1054650D01*
X1632180Y1041100D01*
X1634300Y1027550D01*
X1640650Y1019090D01*
X1648060Y1014010D01*
X1674520D01*
G01X1648060D02*
X1632180Y964900D01*
G01X1569530D02*
Y1066500D01*
X1582230Y1046180D01*
G01Y964900D02*
X1556830D01*
G01X1485710Y1066500D02*
X1494180Y1063110D01*
X1500530Y1054650D01*
X1504760Y1044490D01*
X1507940Y1030940D01*
X1508990Y1015700D01*
X1507940Y1000460D01*
X1504760Y986910D01*
X1500530Y976750D01*
X1494180Y968290D01*
X1485710Y964900D01*
X1477240Y968290D01*
X1470890Y976750D01*
X1466660Y986910D01*
X1463480Y1000460D01*
X1462430Y1015700D01*
X1463480Y1030940D01*
X1466660Y1044490D01*
X1470890Y1054650D01*
X1477240Y1063110D01*
X1485710Y1066500D01*
G01X1676420Y1121600D02*
Y1223200D01*
X1649960D01*
X1641490Y1218120D01*
X1636200Y1211350D01*
X1634080Y1197800D01*
X1636200Y1184250D01*
X1642550Y1175790D01*
X1649960Y1170710D01*
X1676420D01*
G01X1649960D02*
X1634080Y1121600D01*
G01X1571430D02*
Y1223200D01*
X1584130Y1202880D01*
G01Y1121600D02*
X1558730D01*
G01X1487610D02*
Y1223200D01*
X1500310Y1202880D01*
G01Y1121600D02*
X1474910D01*
G01X1385420Y2811280D02*
G02Y2648720I-106888J-81280D01*
G01Y3001280D02*
G02Y2838720I-106888J-81280D01*
G01X1609420Y4310000D02*
Y4411600D01*
X1582960D01*
X1574490Y4406520D01*
X1569200Y4399750D01*
X1567080Y4386200D01*
X1569200Y4372650D01*
X1575550Y4364190D01*
X1582960Y4359110D01*
X1609420D01*
G01X1582960D02*
X1567080Y4310000D01*
G01X1527710Y4330320D02*
X1521360Y4318460D01*
X1512900Y4311690D01*
X1503370Y4310000D01*
X1494900Y4311690D01*
X1486440Y4320160D01*
X1481150Y4330320D01*
X1480090Y4340480D01*
X1482200Y4352330D01*
X1489610Y4360800D01*
X1497020Y4364190D01*
X1506550D01*
G01X1497020D02*
X1490670Y4369270D01*
X1485380Y4377730D01*
X1483260Y4387890D01*
X1485380Y4398050D01*
X1490670Y4406520D01*
X1500200Y4411600D01*
X1509720Y4409910D01*
X1519250Y4403130D01*
G01X1420610Y4310000D02*
Y4411600D01*
X1433310Y4391280D01*
G01Y4310000D02*
X1407910D01*
G01X1369700Y4296500D02*
Y4423500D01*
G01X1594970Y4543130D02*
X1601320Y4548210D01*
X1608720Y4551600D01*
X1617190D01*
X1626720Y4546520D01*
X1634120Y4538050D01*
X1639420Y4527890D01*
X1643650Y4510960D01*
X1644710Y4495720D01*
X1642590Y4480480D01*
X1639420Y4470320D01*
X1633070Y4460160D01*
X1625660Y4453390D01*
X1618250Y4450000D01*
X1610840D01*
X1603430Y4453390D01*
X1597080Y4458460D01*
X1591790Y4465240D01*
G01X1557710Y4470320D02*
X1551360Y4458460D01*
X1542900Y4451690D01*
X1533370Y4450000D01*
X1524900Y4451690D01*
X1516440Y4460160D01*
X1511150Y4470320D01*
X1510090Y4480480D01*
X1512200Y4492330D01*
X1519610Y4500800D01*
X1527020Y4504190D01*
X1536550D01*
G01X1527020D02*
X1520670Y4509270D01*
X1515380Y4517730D01*
X1513260Y4527890D01*
X1515380Y4538050D01*
X1520670Y4546520D01*
X1530200Y4551600D01*
X1539720Y4549910D01*
X1549250Y4543130D01*
G01X1473890Y4465240D02*
X1467540Y4456770D01*
X1460140Y4451690D01*
X1450610Y4450000D01*
X1441080Y4453390D01*
X1433680Y4460160D01*
X1428380Y4472010D01*
X1427330Y4485560D01*
X1429440Y4499110D01*
X1434740Y4507570D01*
X1442140Y4514350D01*
X1449550Y4516040D01*
X1456960Y4514350D01*
X1466480Y4507570D01*
X1463310Y4551600D01*
X1434740D01*
G01X1369700Y4573500D02*
G02Y4446500I-71651J-63500D01*
G01X2045420Y838720D02*
X1674580D01*
G01D02*
G02Y1001280I106888J81280D01*
G01X2045420Y1018720D02*
X1674580D01*
G01X1672040Y1181280D02*
G03Y1018720I106888J-81280D01*
G01X1674580Y1001280D02*
X2045420D01*
G01X1674580Y1181280D02*
X2045420D01*
G01X1945420Y2658720D02*
X1574580D01*
G01X1572040Y2821280D02*
G03Y2658720I106888J-81280D01*
G01X1945420Y2838720D02*
X1574580D01*
G01X1572040Y3001280D02*
G03Y2838720I106888J-81280D01*
G01X1574580Y2821280D02*
X1945420D01*
G01X1899700Y3026500D02*
X1620300D01*
G01X1617760Y3153500D02*
G03Y3026500I73330J-63500D01*
G01X1574580Y3001280D02*
X1945420D01*
G01X1620300Y3153500D02*
X1899700D01*
G01X1955420Y3348720D02*
X1584580D01*
G01X1582040Y3511280D02*
G03Y3348720I106888J-81280D01*
G01X1584580Y3511280D02*
X1955420D01*
G01X2044970Y143130D02*
X2051320Y148210D01*
X2058720Y151600D01*
X2067190D01*
X2076720Y146520D01*
X2084120Y138050D01*
X2089420Y127890D01*
X2093650Y110960D01*
X2094710Y95720D01*
X2092590Y80480D01*
X2089420Y70320D01*
X2083070Y60160D01*
X2075660Y53390D01*
X2068250Y50000D01*
X2060840D01*
X2053430Y53390D01*
X2047080Y58460D01*
X2041790Y65240D01*
G01X2007710Y70320D02*
X2001360Y58460D01*
X1992900Y51690D01*
X1983370Y50000D01*
X1974900Y51690D01*
X1966440Y60160D01*
X1961150Y70320D01*
X1960090Y80480D01*
X1962200Y92330D01*
X1969610Y100800D01*
X1977020Y104190D01*
X1986550D01*
G01X1977020D02*
X1970670Y109270D01*
X1965380Y117730D01*
X1963260Y127890D01*
X1965380Y138050D01*
X1970670Y146520D01*
X1980200Y151600D01*
X1989720Y149910D01*
X1999250Y143130D01*
G01X1920720Y92330D02*
X1913310Y104190D01*
X1906960Y110960D01*
X1898490Y114350D01*
X1891080Y110960D01*
X1885790Y104190D01*
X1881560Y94030D01*
X1880500Y82170D01*
X1881560Y72010D01*
X1885790Y61850D01*
X1892140Y53390D01*
X1899550Y50000D01*
X1908020Y53390D01*
X1915430Y63540D01*
X1919660Y78790D01*
X1920720Y95720D01*
X1918600Y117730D01*
X1915430Y129590D01*
X1910140Y141440D01*
X1902730Y149910D01*
X1895320Y151600D01*
X1887910Y148210D01*
X1882620Y139750D01*
G01X2089420Y190000D02*
Y291600D01*
X2062960D01*
X2054490Y286520D01*
X2049200Y279750D01*
X2047080Y266200D01*
X2049200Y252650D01*
X2055550Y244190D01*
X2062960Y239110D01*
X2089420D01*
G01X2062960D02*
X2047080Y190000D01*
G01X2004540Y274670D02*
X1998190Y284830D01*
X1990780Y289910D01*
X1982310Y291600D01*
X1971730Y288210D01*
X1964320Y279750D01*
X1962200Y269590D01*
X1963260Y259420D01*
X1967500Y250960D01*
X1988660Y234030D01*
X1998190Y222170D01*
X2004540Y205240D01*
X2006660Y190000D01*
X1962200D01*
G01X1920720Y232330D02*
X1913310Y244190D01*
X1906960Y250960D01*
X1898490Y254350D01*
X1891080Y250960D01*
X1885790Y244190D01*
X1881560Y234030D01*
X1880500Y222170D01*
X1881560Y212010D01*
X1885790Y201850D01*
X1892140Y193390D01*
X1899550Y190000D01*
X1908020Y193390D01*
X1915430Y203540D01*
X1919660Y218790D01*
X1920720Y235720D01*
X1918600Y257730D01*
X1915430Y269590D01*
X1910140Y281440D01*
X1902730Y289910D01*
X1895320Y291600D01*
X1887910Y288210D01*
X1882620Y279750D01*
G01X2129700Y356500D02*
X1850300D01*
G01Y483500D02*
X2129700D01*
G01X1850300Y356500D02*
G02Y483500I71651J63500D01*
G01Y633500D02*
Y506500D01*
G01D02*
X2129700D01*
Y633500D01*
X1850300D01*
G01X1999700Y813500D02*
X1720300D01*
Y686500D01*
X1999700D01*
G01X1914970Y3643130D02*
X1921320Y3648210D01*
X1928720Y3651600D01*
X1937190D01*
X1946720Y3646520D01*
X1954120Y3638050D01*
X1959420Y3627890D01*
X1963650Y3610960D01*
X1964710Y3595720D01*
X1962590Y3580480D01*
X1959420Y3570320D01*
X1953070Y3560160D01*
X1945660Y3553390D01*
X1938250Y3550000D01*
X1930840D01*
X1923430Y3553390D01*
X1917080Y3558460D01*
X1911790Y3565240D01*
G01X1854430Y3550000D02*
Y3651600D01*
X1867130Y3631280D01*
G01Y3550000D02*
X1841730D01*
G01X1757910D02*
Y3651600D01*
X1797070Y3578790D01*
X1744150D01*
G01X1914370Y3780130D02*
X1920720Y3785210D01*
X1928120Y3788600D01*
X1936590D01*
X1946120Y3783520D01*
X1953520Y3775050D01*
X1958820Y3764890D01*
X1963050Y3747960D01*
X1964110Y3732720D01*
X1961990Y3717480D01*
X1958820Y3707320D01*
X1952470Y3697160D01*
X1945060Y3690390D01*
X1937650Y3687000D01*
X1930240D01*
X1922830Y3690390D01*
X1916480Y3695460D01*
X1911190Y3702240D01*
G01X1853830Y3687000D02*
Y3788600D01*
X1866530Y3768280D01*
G01Y3687000D02*
X1841130D01*
G01X1793290Y3702240D02*
X1786940Y3693770D01*
X1779540Y3688690D01*
X1770010Y3687000D01*
X1760480Y3690390D01*
X1753080Y3697160D01*
X1747780Y3709010D01*
X1746730Y3722560D01*
X1748840Y3736110D01*
X1754140Y3744570D01*
X1761540Y3751350D01*
X1768950Y3753040D01*
X1776360Y3751350D01*
X1785880Y3744570D01*
X1782710Y3788600D01*
X1754140D01*
G01X1914970Y3913130D02*
X1921320Y3918210D01*
X1928720Y3921600D01*
X1937190D01*
X1946720Y3916520D01*
X1954120Y3908050D01*
X1959420Y3897890D01*
X1963650Y3880960D01*
X1964710Y3865720D01*
X1962590Y3850480D01*
X1959420Y3840320D01*
X1953070Y3830160D01*
X1945660Y3823390D01*
X1938250Y3820000D01*
X1930840D01*
X1923430Y3823390D01*
X1917080Y3828460D01*
X1911790Y3835240D01*
G01X1854430Y3820000D02*
Y3921600D01*
X1867130Y3901280D01*
G01Y3820000D02*
X1841730D01*
G01X1790720Y3862330D02*
X1783310Y3874190D01*
X1776960Y3880960D01*
X1768490Y3884350D01*
X1761080Y3880960D01*
X1755790Y3874190D01*
X1751560Y3864030D01*
X1750500Y3852170D01*
X1751560Y3842010D01*
X1755790Y3831850D01*
X1762140Y3823390D01*
X1769550Y3820000D01*
X1778020Y3823390D01*
X1785430Y3833540D01*
X1789660Y3848790D01*
X1790720Y3865720D01*
X1788600Y3887730D01*
X1785430Y3899590D01*
X1780140Y3911440D01*
X1772730Y3919910D01*
X1765320Y3921600D01*
X1757910Y3918210D01*
X1752620Y3909750D01*
G01X1914970Y4053130D02*
X1921320Y4058210D01*
X1928720Y4061600D01*
X1937190D01*
X1946720Y4056520D01*
X1954120Y4048050D01*
X1959420Y4037890D01*
X1963650Y4020960D01*
X1964710Y4005720D01*
X1962590Y3990480D01*
X1959420Y3980320D01*
X1953070Y3970160D01*
X1945660Y3963390D01*
X1938250Y3960000D01*
X1930840D01*
X1923430Y3963390D01*
X1917080Y3968460D01*
X1911790Y3975240D01*
G01X1874540Y4044670D02*
X1868190Y4054830D01*
X1860780Y4059910D01*
X1852310Y4061600D01*
X1841730Y4058210D01*
X1834320Y4049750D01*
X1832200Y4039590D01*
X1833260Y4029420D01*
X1837500Y4020960D01*
X1858660Y4004030D01*
X1868190Y3992170D01*
X1874540Y3975240D01*
X1876660Y3960000D01*
X1832200D01*
G01X1772730D02*
X1770610Y3982010D01*
X1767430Y4000640D01*
X1763200Y4017570D01*
X1757910Y4036200D01*
X1749440Y4061600D01*
X1791780D01*
G01X1999700Y686500D02*
Y813500D01*
G01X2050300Y686500D02*
G02Y813500I71651J63500D01*
G01X1945420Y2821280D02*
G02Y2658720I-106888J-81280D01*
G01Y3001280D02*
G02Y2838720I-106888J-81280D01*
G01X1899700Y3153500D02*
G02Y3026500I-71651J-63500D01*
G01X1955420Y3511280D02*
G02Y3348720I-106888J-81280D01*
G01X2132240Y356500D02*
G03Y483500I-73330J63500D01*
G01X2329700Y686500D02*
X2050300D01*
G01Y813500D02*
X2329700D01*
G01X2047960Y838720D02*
G03Y1001280I-106888J81280D01*
G01X2045420Y1181280D02*
G02Y1018720I-106888J-81280D01*
G01X2515420Y2888720D02*
X2144580D01*
G01Y3051280D02*
X2515420D01*
G01X2144580Y2888720D02*
G02Y3051280I106888J81280D01*
G01X2429700Y3253500D02*
X2150300D01*
Y3126500D01*
X2429700D01*
G01Y3276500D02*
X2150300D01*
G01X2147760Y3403500D02*
G03Y3276500I73330J-63500D01*
G01X2150300Y3403500D02*
X2429700D01*
G01X2150300Y3613500D02*
Y3486500D01*
G01D02*
X2429700D01*
Y3613500D01*
X2150300D01*
G01X2332240Y686500D02*
G03Y813500I-73330J63500D01*
G01X2394970Y933130D02*
X2401320Y938210D01*
X2408720Y941600D01*
X2417190D01*
X2426720Y936520D01*
X2434120Y928050D01*
X2439420Y917890D01*
X2443650Y900960D01*
X2444710Y885720D01*
X2442590Y870480D01*
X2439420Y860320D01*
X2433070Y850160D01*
X2425660Y843390D01*
X2418250Y840000D01*
X2410840D01*
X2403430Y843390D01*
X2397080Y848460D01*
X2391790Y855240D01*
G01X2334430Y840000D02*
Y941600D01*
X2347130Y921280D01*
G01Y840000D02*
X2321730D01*
G01X2273890Y860320D02*
X2267540Y848460D01*
X2259080Y841690D01*
X2249550Y840000D01*
X2241080Y841690D01*
X2232620Y850160D01*
X2227330Y860320D01*
X2226270Y870480D01*
X2228380Y882330D01*
X2235790Y890800D01*
X2243200Y894190D01*
X2252730D01*
G01X2243200D02*
X2236850Y899270D01*
X2231560Y907730D01*
X2229440Y917890D01*
X2231560Y928050D01*
X2236850Y936520D01*
X2246380Y941600D01*
X2255900Y939910D01*
X2265430Y933130D01*
G01X2659700Y2686500D02*
X2380300D01*
G01X2377760Y2813500D02*
G03Y2686500I73330J-63500D01*
G01X2380300Y2813500D02*
X2659700D01*
G01X2634970Y453130D02*
X2641320Y458210D01*
X2648720Y461600D01*
X2657190D01*
X2666720Y456520D01*
X2674120Y448050D01*
X2679420Y437890D01*
X2683650Y420960D01*
X2684710Y405720D01*
X2682590Y390480D01*
X2679420Y380320D01*
X2673070Y370160D01*
X2665660Y363390D01*
X2658250Y360000D01*
X2650840D01*
X2643430Y363390D01*
X2637080Y368460D01*
X2631790Y375240D01*
G01X2597710Y380320D02*
X2591360Y368460D01*
X2582900Y361690D01*
X2573370Y360000D01*
X2564900Y361690D01*
X2556440Y370160D01*
X2551150Y380320D01*
X2550090Y390480D01*
X2552200Y402330D01*
X2559610Y410800D01*
X2567020Y414190D01*
X2576550D01*
G01X2567020D02*
X2560670Y419270D01*
X2555380Y427730D01*
X2553260Y437890D01*
X2555380Y448050D01*
X2560670Y456520D01*
X2570200Y461600D01*
X2579720Y459910D01*
X2589250Y453130D01*
G01X2508600Y371850D02*
X2501190Y363390D01*
X2492730Y360000D01*
X2484260Y363390D01*
X2476850Y373540D01*
X2471560Y388790D01*
X2469440Y404030D01*
Y422650D01*
X2471560Y437890D01*
X2476850Y451440D01*
X2483200Y458210D01*
X2490610Y461600D01*
X2499080Y458210D01*
X2505430Y451440D01*
X2509660Y441280D01*
X2511780Y427730D01*
X2509660Y415880D01*
X2504370Y404030D01*
X2498020Y397250D01*
X2490610Y395560D01*
X2482140Y398940D01*
X2475790Y407410D01*
X2469440Y422650D01*
G01X2679420Y510000D02*
Y611600D01*
X2652960D01*
X2644490Y606520D01*
X2639200Y599750D01*
X2637080Y586200D01*
X2639200Y572650D01*
X2645550Y564190D01*
X2652960Y559110D01*
X2679420D01*
G01X2652960D02*
X2637080Y510000D01*
G01X2594540Y594670D02*
X2588190Y604830D01*
X2580780Y609910D01*
X2572310Y611600D01*
X2561730Y608210D01*
X2554320Y599750D01*
X2552200Y589590D01*
X2553260Y579420D01*
X2557500Y570960D01*
X2578660Y554030D01*
X2588190Y542170D01*
X2594540Y525240D01*
X2596660Y510000D01*
X2552200D01*
G01X2508600Y521850D02*
X2501190Y513390D01*
X2492730Y510000D01*
X2484260Y513390D01*
X2476850Y523540D01*
X2471560Y538790D01*
X2469440Y554030D01*
Y572650D01*
X2471560Y587890D01*
X2476850Y601440D01*
X2483200Y608210D01*
X2490610Y611600D01*
X2499080Y608210D01*
X2505430Y601440D01*
X2509660Y591280D01*
X2511780Y577730D01*
X2509660Y565880D01*
X2504370Y554030D01*
X2498020Y547250D01*
X2490610Y545560D01*
X2482140Y548940D01*
X2475790Y557410D01*
X2469440Y572650D01*
G01X2517960Y2888720D02*
G03Y3051280I-106888J81280D01*
G01X2759700Y3126500D02*
X2480300D01*
G01X2477760Y3253500D02*
G03Y3126500I73330J-63500D01*
G01X2429700D02*
Y3253500D01*
G01X2480300D02*
X2759700D01*
G01X2664970Y3383130D02*
X2671320Y3388210D01*
X2678720Y3391600D01*
X2687190D01*
X2696720Y3386520D01*
X2704120Y3378050D01*
X2709420Y3367890D01*
X2713650Y3350960D01*
X2714710Y3335720D01*
X2712590Y3320480D01*
X2709420Y3310320D01*
X2703070Y3300160D01*
X2695660Y3293390D01*
X2688250Y3290000D01*
X2680840D01*
X2673430Y3293390D01*
X2667080Y3298460D01*
X2661790Y3305240D01*
G01X2627710Y3310320D02*
X2621360Y3298460D01*
X2612900Y3291690D01*
X2603370Y3290000D01*
X2594900Y3291690D01*
X2586440Y3300160D01*
X2581150Y3310320D01*
X2580090Y3320480D01*
X2582200Y3332330D01*
X2589610Y3340800D01*
X2597020Y3344190D01*
X2606550D01*
G01X2597020D02*
X2590670Y3349270D01*
X2585380Y3357730D01*
X2583260Y3367890D01*
X2585380Y3378050D01*
X2590670Y3386520D01*
X2600200Y3391600D01*
X2609720Y3389910D01*
X2619250Y3383130D01*
G01X2540720Y3374670D02*
X2534370Y3384830D01*
X2526960Y3389910D01*
X2518490Y3391600D01*
X2507910Y3388210D01*
X2500500Y3379750D01*
X2498380Y3369590D01*
X2499440Y3359420D01*
X2503680Y3350960D01*
X2524840Y3334030D01*
X2534370Y3322170D01*
X2540720Y3305240D01*
X2542840Y3290000D01*
X2498380D01*
G01X2429700Y3403500D02*
G02Y3276500I-71651J-63500D01*
G01X2699420Y3510000D02*
Y3611600D01*
X2672960D01*
X2664490Y3606520D01*
X2659200Y3599750D01*
X2657080Y3586200D01*
X2659200Y3572650D01*
X2665550Y3564190D01*
X2672960Y3559110D01*
X2699420D01*
G01X2672960D02*
X2657080Y3510000D01*
G01X2617710Y3525240D02*
X2611360Y3516770D01*
X2603960Y3511690D01*
X2594430Y3510000D01*
X2584900Y3513390D01*
X2577500Y3520160D01*
X2572200Y3532010D01*
X2571150Y3545560D01*
X2573260Y3559110D01*
X2578560Y3567570D01*
X2585960Y3574350D01*
X2593370Y3576040D01*
X2600780Y3574350D01*
X2610300Y3567570D01*
X2607130Y3611600D01*
X2578560D01*
G01X2510610D02*
X2519080Y3608210D01*
X2525430Y3599750D01*
X2529660Y3589590D01*
X2532840Y3576040D01*
X2533890Y3560800D01*
X2532840Y3545560D01*
X2529660Y3532010D01*
X2525430Y3521850D01*
X2519080Y3513390D01*
X2510610Y3510000D01*
X2502140Y3513390D01*
X2495790Y3521850D01*
X2491560Y3532010D01*
X2488380Y3545560D01*
X2487330Y3560800D01*
X2488380Y3576040D01*
X2491560Y3589590D01*
X2495790Y3599750D01*
X2502140Y3608210D01*
X2510610Y3611600D01*
G01X2795420Y3958720D02*
X2424580D01*
G01D02*
G02Y4121280I106888J81280D01*
G01D02*
X2795420D01*
G01X2720300Y356500D02*
G02Y483500I71651J63500D01*
G01X2659700Y2813500D02*
G02Y2686500I-71651J-63500D01*
G01X2734970Y3013130D02*
X2741320Y3018210D01*
X2748720Y3021600D01*
X2757190D01*
X2766720Y3016520D01*
X2774120Y3008050D01*
X2779420Y2997890D01*
X2783650Y2980960D01*
X2784710Y2965720D01*
X2782590Y2950480D01*
X2779420Y2940320D01*
X2773070Y2930160D01*
X2765660Y2923390D01*
X2758250Y2920000D01*
X2750840D01*
X2743430Y2923390D01*
X2737080Y2928460D01*
X2731790Y2935240D01*
G01X2697710Y2940320D02*
X2691360Y2928460D01*
X2682900Y2921690D01*
X2673370Y2920000D01*
X2664900Y2921690D01*
X2656440Y2930160D01*
X2651150Y2940320D01*
X2650090Y2950480D01*
X2652200Y2962330D01*
X2659610Y2970800D01*
X2667020Y2974190D01*
X2676550D01*
G01X2667020D02*
X2660670Y2979270D01*
X2655380Y2987730D01*
X2653260Y2997890D01*
X2655380Y3008050D01*
X2660670Y3016520D01*
X2670200Y3021600D01*
X2679720Y3019910D01*
X2689250Y3013130D01*
G01X2590610Y2920000D02*
Y3021600D01*
X2603310Y3001280D01*
G01Y2920000D02*
X2577910D01*
G01X2754970Y3923130D02*
X2761320Y3928210D01*
X2768720Y3931600D01*
X2777190D01*
X2786720Y3926520D01*
X2794120Y3918050D01*
X2799420Y3907890D01*
X2803650Y3890960D01*
X2804710Y3875720D01*
X2802590Y3860480D01*
X2799420Y3850320D01*
X2793070Y3840160D01*
X2785660Y3833390D01*
X2778250Y3830000D01*
X2770840D01*
X2763430Y3833390D01*
X2757080Y3838460D01*
X2751790Y3845240D01*
G01X2714540Y3914670D02*
X2708190Y3924830D01*
X2700780Y3929910D01*
X2692310Y3931600D01*
X2681730Y3928210D01*
X2674320Y3919750D01*
X2672200Y3909590D01*
X2673260Y3899420D01*
X2677500Y3890960D01*
X2698660Y3874030D01*
X2708190Y3862170D01*
X2714540Y3845240D01*
X2716660Y3830000D01*
X2672200D01*
G01X2633890Y3850320D02*
X2627540Y3838460D01*
X2619080Y3831690D01*
X2609550Y3830000D01*
X2601080Y3831690D01*
X2592620Y3840160D01*
X2587330Y3850320D01*
X2586270Y3860480D01*
X2588380Y3872330D01*
X2595790Y3880800D01*
X2603200Y3884190D01*
X2612730D01*
G01X2603200D02*
X2596850Y3889270D01*
X2591560Y3897730D01*
X2589440Y3907890D01*
X2591560Y3918050D01*
X2596850Y3926520D01*
X2606380Y3931600D01*
X2615900Y3929910D01*
X2625430Y3923130D01*
G01X2999700Y356500D02*
X2720300D01*
G01Y483500D02*
X2999700D01*
G01X2720300Y633500D02*
Y506500D01*
G01D02*
X2999700D01*
Y633500D01*
X2720300D01*
G01X3029420Y930000D02*
Y1031600D01*
X3002960D01*
X2994490Y1026520D01*
X2989200Y1019750D01*
X2987080Y1006200D01*
X2989200Y992650D01*
X2995550Y984190D01*
X3002960Y979110D01*
X3029420D01*
G01X3002960D02*
X2987080Y930000D01*
G01X2924430D02*
Y1031600D01*
X2937130Y1011280D01*
G01Y930000D02*
X2911730D01*
G01X2860720Y972330D02*
X2853310Y984190D01*
X2846960Y990960D01*
X2838490Y994350D01*
X2831080Y990960D01*
X2825790Y984190D01*
X2821560Y974030D01*
X2820500Y962170D01*
X2821560Y952010D01*
X2825790Y941850D01*
X2832140Y933390D01*
X2839550Y930000D01*
X2848020Y933390D01*
X2855430Y943540D01*
X2859660Y958790D01*
X2860720Y975720D01*
X2858600Y997730D01*
X2855430Y1009590D01*
X2850140Y1021440D01*
X2842730Y1029910D01*
X2835320Y1031600D01*
X2827910Y1028210D01*
X2822620Y1019750D01*
G01X2914970Y1163130D02*
X2921320Y1168210D01*
X2928720Y1171600D01*
X2937190D01*
X2946720Y1166520D01*
X2954120Y1158050D01*
X2959420Y1147890D01*
X2963650Y1130960D01*
X2964710Y1115720D01*
X2962590Y1100480D01*
X2959420Y1090320D01*
X2953070Y1080160D01*
X2945660Y1073390D01*
X2938250Y1070000D01*
X2930840D01*
X2923430Y1073390D01*
X2917080Y1078460D01*
X2911790Y1085240D01*
G01X2854430Y1070000D02*
X2847020Y1071690D01*
X2838560Y1076770D01*
X2833260Y1085240D01*
X2831150Y1097090D01*
X2833260Y1108940D01*
X2839610Y1119110D01*
X2849140Y1124190D01*
X2859720D01*
X2866070Y1127570D01*
X2871360Y1136040D01*
X2873480Y1147890D01*
X2870300Y1159750D01*
X2862900Y1168210D01*
X2854430Y1171600D01*
X2845960Y1168210D01*
X2838560Y1159750D01*
X2835380Y1147890D01*
X2837500Y1136040D01*
X2842790Y1127570D01*
X2849140Y1124190D01*
X2859720D01*
X2869250Y1119110D01*
X2875600Y1108940D01*
X2877710Y1097090D01*
X2875600Y1085240D01*
X2870300Y1076770D01*
X2861840Y1071690D01*
X2854430Y1070000D01*
G01X2897760Y1563500D02*
G03Y1436500I73330J-63500D01*
G01X2893900Y1993900D02*
G02Y2120900I71651J63500D01*
G01X2904970Y2813130D02*
X2911320Y2818210D01*
X2918720Y2821600D01*
X2927190D01*
X2936720Y2816520D01*
X2944120Y2808050D01*
X2949420Y2797890D01*
X2953650Y2780960D01*
X2954710Y2765720D01*
X2952590Y2750480D01*
X2949420Y2740320D01*
X2943070Y2730160D01*
X2935660Y2723390D01*
X2928250Y2720000D01*
X2920840D01*
X2913430Y2723390D01*
X2907080Y2728460D01*
X2901790Y2735240D01*
G01X2867710D02*
X2861360Y2726770D01*
X2853960Y2721690D01*
X2844430Y2720000D01*
X2834900Y2723390D01*
X2827500Y2730160D01*
X2822200Y2742010D01*
X2821150Y2755560D01*
X2823260Y2769110D01*
X2828560Y2777570D01*
X2835960Y2784350D01*
X2843370Y2786040D01*
X2850780Y2784350D01*
X2860300Y2777570D01*
X2857130Y2821600D01*
X2828560D01*
G01X2760610Y2720000D02*
X2753200Y2721690D01*
X2744740Y2726770D01*
X2739440Y2735240D01*
X2737330Y2747090D01*
X2739440Y2758940D01*
X2745790Y2769110D01*
X2755320Y2774190D01*
X2765900D01*
X2772250Y2777570D01*
X2777540Y2786040D01*
X2779660Y2797890D01*
X2776480Y2809750D01*
X2769080Y2818210D01*
X2760610Y2821600D01*
X2752140Y2818210D01*
X2744740Y2809750D01*
X2741560Y2797890D01*
X2743680Y2786040D01*
X2748970Y2777570D01*
X2755320Y2774190D01*
X2765900D01*
X2775430Y2769110D01*
X2781780Y2758940D01*
X2783890Y2747090D01*
X2781780Y2735240D01*
X2776480Y2726770D01*
X2768020Y2721690D01*
X2760610Y2720000D01*
G01X2759700Y3253500D02*
G02Y3126500I-71651J-63500D01*
G01X3019420Y3130000D02*
Y3231600D01*
X2992960D01*
X2984490Y3226520D01*
X2979200Y3219750D01*
X2977080Y3206200D01*
X2979200Y3192650D01*
X2985550Y3184190D01*
X2992960Y3179110D01*
X3019420D01*
G01X2992960D02*
X2977080Y3130000D01*
G01X2901730D02*
Y3231600D01*
X2940890Y3158790D01*
X2887970D01*
G01X2848600Y3141850D02*
X2841190Y3133390D01*
X2832730Y3130000D01*
X2824260Y3133390D01*
X2816850Y3143540D01*
X2811560Y3158790D01*
X2809440Y3174030D01*
Y3192650D01*
X2811560Y3207890D01*
X2816850Y3221440D01*
X2823200Y3228210D01*
X2830610Y3231600D01*
X2839080Y3228210D01*
X2845430Y3221440D01*
X2849660Y3211280D01*
X2851780Y3197730D01*
X2849660Y3185880D01*
X2844370Y3174030D01*
X2838020Y3167250D01*
X2830610Y3165560D01*
X2822140Y3168940D01*
X2815790Y3177410D01*
X2809440Y3192650D01*
G01X3235420Y3958720D02*
X2864580D01*
G01X2862040Y4121280D02*
G03Y3958720I106888J-81280D01*
G01X2797960D02*
G03Y4121280I-106888J81280D01*
G01X2864580D02*
X3235420D01*
G01X3002240Y356500D02*
G03Y483500I-73330J63500D01*
G01X3179700Y1436500D02*
X2900300D01*
G01Y1563500D02*
X3179700D01*
G01X2893900Y1714500D02*
Y1587500D01*
G01D02*
X3173300D01*
Y1714500D01*
X2893900D01*
G01Y1866900D02*
Y1739900D01*
G01D02*
X3173300D01*
Y1866900D01*
X2893900D01*
G01X3173300Y1993900D02*
X2893900D01*
G01Y2120900D02*
X3173300D01*
G01X3114970Y2253130D02*
X3121320Y2258210D01*
X3128720Y2261600D01*
X3137190D01*
X3146720Y2256520D01*
X3154120Y2248050D01*
X3159420Y2237890D01*
X3163650Y2220960D01*
X3164710Y2205720D01*
X3162590Y2190480D01*
X3159420Y2180320D01*
X3153070Y2170160D01*
X3145660Y2163390D01*
X3138250Y2160000D01*
X3130840D01*
X3123430Y2163390D01*
X3117080Y2168460D01*
X3111790Y2175240D01*
G01X3041730Y2160000D02*
Y2261600D01*
X3080890Y2188790D01*
X3027970D01*
G01X2972730Y2160000D02*
X2970610Y2182010D01*
X2967430Y2200640D01*
X2963200Y2217570D01*
X2957910Y2236200D01*
X2949440Y2261600D01*
X2991780D01*
G01X3149420Y2290000D02*
Y2391600D01*
X3122960D01*
X3114490Y2386520D01*
X3109200Y2379750D01*
X3107080Y2366200D01*
X3109200Y2352650D01*
X3115550Y2344190D01*
X3122960Y2339110D01*
X3149420D01*
G01X3122960D02*
X3107080Y2290000D01*
G01X3067710Y2310320D02*
X3061360Y2298460D01*
X3052900Y2291690D01*
X3043370Y2290000D01*
X3034900Y2291690D01*
X3026440Y2300160D01*
X3021150Y2310320D01*
X3020090Y2320480D01*
X3022200Y2332330D01*
X3029610Y2340800D01*
X3037020Y2344190D01*
X3046550D01*
G01X3037020D02*
X3030670Y2349270D01*
X3025380Y2357730D01*
X3023260Y2367890D01*
X3025380Y2378050D01*
X3030670Y2386520D01*
X3040200Y2391600D01*
X3049720Y2389910D01*
X3059250Y2383130D01*
G01X2980720Y2332330D02*
X2973310Y2344190D01*
X2966960Y2350960D01*
X2958490Y2354350D01*
X2951080Y2350960D01*
X2945790Y2344190D01*
X2941560Y2334030D01*
X2940500Y2322170D01*
X2941560Y2312010D01*
X2945790Y2301850D01*
X2952140Y2293390D01*
X2959550Y2290000D01*
X2968020Y2293390D01*
X2975430Y2303540D01*
X2979660Y2318790D01*
X2980720Y2335720D01*
X2978600Y2357730D01*
X2975430Y2369590D01*
X2970140Y2381440D01*
X2962730Y2389910D01*
X2955320Y2391600D01*
X2947910Y2388210D01*
X2942620Y2379750D01*
G01X3104970Y2653130D02*
X3111320Y2658210D01*
X3118720Y2661600D01*
X3127190D01*
X3136720Y2656520D01*
X3144120Y2648050D01*
X3149420Y2637890D01*
X3153650Y2620960D01*
X3154710Y2605720D01*
X3152590Y2590480D01*
X3149420Y2580320D01*
X3143070Y2570160D01*
X3135660Y2563390D01*
X3128250Y2560000D01*
X3120840D01*
X3113430Y2563390D01*
X3107080Y2568460D01*
X3101790Y2575240D01*
G01X3031730Y2560000D02*
Y2661600D01*
X3070890Y2588790D01*
X3017970D01*
G01X2960610Y2560000D02*
Y2661600D01*
X2973310Y2641280D01*
G01Y2560000D02*
X2947910D01*
G01X3150020Y2425000D02*
Y2526600D01*
X3123560D01*
X3115090Y2521520D01*
X3109800Y2514750D01*
X3107680Y2501200D01*
X3109800Y2487650D01*
X3116150Y2479190D01*
X3123560Y2474110D01*
X3150020D01*
G01X3123560D02*
X3107680Y2425000D01*
G01X3068310Y2445320D02*
X3061960Y2433460D01*
X3053500Y2426690D01*
X3043970Y2425000D01*
X3035500Y2426690D01*
X3027040Y2435160D01*
X3021750Y2445320D01*
X3020690Y2455480D01*
X3022800Y2467330D01*
X3030210Y2475800D01*
X3037620Y2479190D01*
X3047150D01*
G01X3037620D02*
X3031270Y2484270D01*
X3025980Y2492730D01*
X3023860Y2502890D01*
X3025980Y2513050D01*
X3031270Y2521520D01*
X3040800Y2526600D01*
X3050320Y2524910D01*
X3059850Y2518130D01*
G01X2984490Y2440240D02*
X2978140Y2431770D01*
X2970740Y2426690D01*
X2961210Y2425000D01*
X2951680Y2428390D01*
X2944280Y2435160D01*
X2938980Y2447010D01*
X2937930Y2460560D01*
X2940040Y2474110D01*
X2945340Y2482570D01*
X2952740Y2489350D01*
X2960150Y2491040D01*
X2967560Y2489350D01*
X2977080Y2482570D01*
X2973910Y2526600D01*
X2945340D01*
G01X3224970Y3223130D02*
X3231320Y3228210D01*
X3238720Y3231600D01*
X3247190D01*
X3256720Y3226520D01*
X3264120Y3218050D01*
X3269420Y3207890D01*
X3273650Y3190960D01*
X3274710Y3175720D01*
X3272590Y3160480D01*
X3269420Y3150320D01*
X3263070Y3140160D01*
X3255660Y3133390D01*
X3248250Y3130000D01*
X3240840D01*
X3233430Y3133390D01*
X3227080Y3138460D01*
X3221790Y3145240D01*
G01X3187710Y3150320D02*
X3181360Y3138460D01*
X3172900Y3131690D01*
X3163370Y3130000D01*
X3154900Y3131690D01*
X3146440Y3140160D01*
X3141150Y3150320D01*
X3140090Y3160480D01*
X3142200Y3172330D01*
X3149610Y3180800D01*
X3157020Y3184190D01*
X3166550D01*
G01X3157020D02*
X3150670Y3189270D01*
X3145380Y3197730D01*
X3143260Y3207890D01*
X3145380Y3218050D01*
X3150670Y3226520D01*
X3160200Y3231600D01*
X3169720Y3229910D01*
X3179250Y3223130D01*
G01X3103890Y3150320D02*
X3097540Y3138460D01*
X3089080Y3131690D01*
X3079550Y3130000D01*
X3071080Y3131690D01*
X3062620Y3140160D01*
X3057330Y3150320D01*
X3056270Y3160480D01*
X3058380Y3172330D01*
X3065790Y3180800D01*
X3073200Y3184190D01*
X3082730D01*
G01X3073200D02*
X3066850Y3189270D01*
X3061560Y3197730D01*
X3059440Y3207890D01*
X3061560Y3218050D01*
X3066850Y3226520D01*
X3076380Y3231600D01*
X3085900Y3229910D01*
X3095430Y3223130D01*
G01X3164970Y3923130D02*
X3171320Y3928210D01*
X3178720Y3931600D01*
X3187190D01*
X3196720Y3926520D01*
X3204120Y3918050D01*
X3209420Y3907890D01*
X3213650Y3890960D01*
X3214710Y3875720D01*
X3212590Y3860480D01*
X3209420Y3850320D01*
X3203070Y3840160D01*
X3195660Y3833390D01*
X3188250Y3830000D01*
X3180840D01*
X3173430Y3833390D01*
X3167080Y3838460D01*
X3161790Y3845240D01*
G01X3124540Y3914670D02*
X3118190Y3924830D01*
X3110780Y3929910D01*
X3102310Y3931600D01*
X3091730Y3928210D01*
X3084320Y3919750D01*
X3082200Y3909590D01*
X3083260Y3899420D01*
X3087500Y3890960D01*
X3108660Y3874030D01*
X3118190Y3862170D01*
X3124540Y3845240D01*
X3126660Y3830000D01*
X3082200D01*
G01X3007910D02*
Y3931600D01*
X3047070Y3858790D01*
X2994150D01*
G01X3193570Y4534730D02*
X3199920Y4539810D01*
X3207320Y4543200D01*
X3215790D01*
X3225320Y4538120D01*
X3232720Y4529650D01*
X3238020Y4519490D01*
X3242250Y4502560D01*
X3243310Y4487320D01*
X3241190Y4472080D01*
X3238020Y4461920D01*
X3231670Y4451760D01*
X3224260Y4444990D01*
X3216850Y4441600D01*
X3209440D01*
X3202030Y4444990D01*
X3195680Y4450060D01*
X3190390Y4456840D01*
G01X3133030Y4441600D02*
Y4543200D01*
X3145730Y4522880D01*
G01Y4441600D02*
X3120330D01*
G01X3067200Y4453450D02*
X3059790Y4444990D01*
X3051330Y4441600D01*
X3042860Y4444990D01*
X3035450Y4455140D01*
X3030160Y4470390D01*
X3028040Y4485630D01*
Y4504250D01*
X3030160Y4519490D01*
X3035450Y4533040D01*
X3041800Y4539810D01*
X3049210Y4543200D01*
X3057680Y4539810D01*
X3064030Y4533040D01*
X3068260Y4522880D01*
X3070380Y4509330D01*
X3068260Y4497480D01*
X3062970Y4485630D01*
X3056620Y4478850D01*
X3049210Y4477160D01*
X3040740Y4480540D01*
X3034390Y4489010D01*
X3028040Y4504250D01*
G01X3194970Y4383130D02*
X3201320Y4388210D01*
X3208720Y4391600D01*
X3217190D01*
X3226720Y4386520D01*
X3234120Y4378050D01*
X3239420Y4367890D01*
X3243650Y4350960D01*
X3244710Y4335720D01*
X3242590Y4320480D01*
X3239420Y4310320D01*
X3233070Y4300160D01*
X3225660Y4293390D01*
X3218250Y4290000D01*
X3210840D01*
X3203430Y4293390D01*
X3197080Y4298460D01*
X3191790Y4305240D01*
G01X3134430Y4290000D02*
Y4391600D01*
X3147130Y4371280D01*
G01Y4290000D02*
X3121730D01*
G01X3050610D02*
X3043200Y4291690D01*
X3034740Y4296770D01*
X3029440Y4305240D01*
X3027330Y4317090D01*
X3029440Y4328940D01*
X3035790Y4339110D01*
X3045320Y4344190D01*
X3055900D01*
X3062250Y4347570D01*
X3067540Y4356040D01*
X3069660Y4367890D01*
X3066480Y4379750D01*
X3059080Y4388210D01*
X3050610Y4391600D01*
X3042140Y4388210D01*
X3034740Y4379750D01*
X3031560Y4367890D01*
X3033680Y4356040D01*
X3038970Y4347570D01*
X3045320Y4344190D01*
X3055900D01*
X3065430Y4339110D01*
X3071780Y4328940D01*
X3073890Y4317090D01*
X3071780Y4305240D01*
X3066480Y4296770D01*
X3058020Y4291690D01*
X3050610Y4290000D01*
G01X3180300Y1023500D02*
Y896500D01*
G01D02*
X3459700D01*
Y1023500D01*
X3180300D01*
G01X3465420Y1048720D02*
X3094580D01*
G01D02*
G02Y1211280I106888J81280D01*
G01D02*
X3465420D01*
G01X3179700Y1563500D02*
G02Y1436500I-71651J-63500D01*
G01X3175840Y1993900D02*
G03Y2120900I-73330J63500D01*
G01X3412100Y1993900D02*
G02Y2120900I71651J63500D01*
G01X3559700Y3226500D02*
X3280300D01*
G01D02*
G02Y3353500I71651J63500D01*
G01D02*
X3559700D01*
G01X3235420Y4121280D02*
G02Y3958720I-106888J-81280D01*
G01X3464970Y4383130D02*
X3471320Y4388210D01*
X3478720Y4391600D01*
X3487190D01*
X3496720Y4386520D01*
X3504120Y4378050D01*
X3509420Y4367890D01*
X3513650Y4350960D01*
X3514710Y4335720D01*
X3512590Y4320480D01*
X3509420Y4310320D01*
X3503070Y4300160D01*
X3495660Y4293390D01*
X3488250Y4290000D01*
X3480840D01*
X3473430Y4293390D01*
X3467080Y4298460D01*
X3461790Y4305240D01*
G01X3404430Y4290000D02*
Y4391600D01*
X3417130Y4371280D01*
G01Y4290000D02*
X3391730D01*
G01X3322730D02*
X3320610Y4312010D01*
X3317430Y4330640D01*
X3313200Y4347570D01*
X3307910Y4366200D01*
X3299440Y4391600D01*
X3341780D01*
G01X3506420Y4441600D02*
Y4543200D01*
X3479960D01*
X3471490Y4538120D01*
X3466200Y4531350D01*
X3464080Y4517800D01*
X3466200Y4504250D01*
X3472550Y4495790D01*
X3479960Y4490710D01*
X3506420D01*
G01X3479960D02*
X3464080Y4441600D01*
G01X3401430D02*
Y4543200D01*
X3414130Y4522880D01*
G01Y4441600D02*
X3388730D01*
G01X3335600Y4453450D02*
X3328190Y4444990D01*
X3319730Y4441600D01*
X3311260Y4444990D01*
X3303850Y4455140D01*
X3298560Y4470390D01*
X3296440Y4485630D01*
Y4504250D01*
X3298560Y4519490D01*
X3303850Y4533040D01*
X3310200Y4539810D01*
X3317610Y4543200D01*
X3326080Y4539810D01*
X3332430Y4533040D01*
X3336660Y4522880D01*
X3338780Y4509330D01*
X3336660Y4497480D01*
X3331370Y4485630D01*
X3325020Y4478850D01*
X3317610Y4477160D01*
X3309140Y4480540D01*
X3302790Y4489010D01*
X3296440Y4504250D01*
G01X3570300Y356500D02*
G02Y483500I71651J63500D01*
G01X3809700Y896500D02*
X3530300D01*
G01Y1023500D02*
X3809700D01*
G01X3530300Y896500D02*
G02Y1023500I71651J63500D01*
G01X3895420Y1048720D02*
X3524580D01*
G01D02*
G02Y1211280I106888J81280D01*
G01X3467960Y1048720D02*
G03Y1211280I-106888J81280D01*
G01X3524580D02*
X3895420D01*
G01X3594970Y1543130D02*
X3601320Y1548210D01*
X3608720Y1551600D01*
X3617190D01*
X3626720Y1546520D01*
X3634120Y1538050D01*
X3639420Y1527890D01*
X3643650Y1510960D01*
X3644710Y1495720D01*
X3642590Y1480480D01*
X3639420Y1470320D01*
X3633070Y1460160D01*
X3625660Y1453390D01*
X3618250Y1450000D01*
X3610840D01*
X3603430Y1453390D01*
X3597080Y1458460D01*
X3591790Y1465240D01*
G01X3557710D02*
X3551360Y1456770D01*
X3543960Y1451690D01*
X3534430Y1450000D01*
X3524900Y1453390D01*
X3517500Y1460160D01*
X3512200Y1472010D01*
X3511150Y1485560D01*
X3513260Y1499110D01*
X3518560Y1507570D01*
X3525960Y1514350D01*
X3533370Y1516040D01*
X3540780Y1514350D01*
X3550300Y1507570D01*
X3547130Y1551600D01*
X3518560D01*
G01X3470720Y1492330D02*
X3463310Y1504190D01*
X3456960Y1510960D01*
X3448490Y1514350D01*
X3441080Y1510960D01*
X3435790Y1504190D01*
X3431560Y1494030D01*
X3430500Y1482170D01*
X3431560Y1472010D01*
X3435790Y1461850D01*
X3442140Y1453390D01*
X3449550Y1450000D01*
X3458020Y1453390D01*
X3465430Y1463540D01*
X3469660Y1478790D01*
X3470720Y1495720D01*
X3468600Y1517730D01*
X3465430Y1529590D01*
X3460140Y1541440D01*
X3452730Y1549910D01*
X3445320Y1551600D01*
X3437910Y1548210D01*
X3432620Y1539750D01*
G01X3412100Y1717200D02*
Y1590200D01*
G01D02*
X3691500D01*
Y1717200D01*
X3412100D01*
G01Y1869600D02*
Y1742600D01*
G01D02*
X3691500D01*
Y1869600D01*
X3412100D01*
G01X3691500Y1993900D02*
X3412100D01*
G01Y2120900D02*
X3691500D01*
G01X3562240Y3226500D02*
G03Y3353500I-73330J63500D01*
G01X3935420Y3848720D02*
X3564580D01*
G01X3562040Y4011280D02*
G03Y3848720I106888J-81280D01*
G01X3564580Y4011280D02*
X3935420D01*
G01Y4238720D02*
X3564580D01*
G01Y4401280D02*
X3935420D01*
G01X3564580Y4238720D02*
G02Y4401280I106888J81280D01*
G01X3774970Y133130D02*
X3781320Y138210D01*
X3788720Y141600D01*
X3797190D01*
X3806720Y136520D01*
X3814120Y128050D01*
X3819420Y117890D01*
X3823650Y100960D01*
X3824710Y85720D01*
X3822590Y70480D01*
X3819420Y60320D01*
X3813070Y50160D01*
X3805660Y43390D01*
X3798250Y40000D01*
X3790840D01*
X3783430Y43390D01*
X3777080Y48460D01*
X3771790Y55240D01*
G01X3737710Y60320D02*
X3731360Y48460D01*
X3722900Y41690D01*
X3713370Y40000D01*
X3704900Y41690D01*
X3696440Y50160D01*
X3691150Y60320D01*
X3690090Y70480D01*
X3692200Y82330D01*
X3699610Y90800D01*
X3707020Y94190D01*
X3716550D01*
G01X3707020D02*
X3700670Y99270D01*
X3695380Y107730D01*
X3693260Y117890D01*
X3695380Y128050D01*
X3700670Y136520D01*
X3710200Y141600D01*
X3719720Y139910D01*
X3729250Y133130D01*
G01X3632730Y40000D02*
X3630610Y62010D01*
X3627430Y80640D01*
X3623200Y97570D01*
X3617910Y116200D01*
X3609440Y141600D01*
X3651780D01*
G01X3809420Y190000D02*
Y291600D01*
X3782960D01*
X3774490Y286520D01*
X3769200Y279750D01*
X3767080Y266200D01*
X3769200Y252650D01*
X3775550Y244190D01*
X3782960Y239110D01*
X3809420D01*
G01X3782960D02*
X3767080Y190000D01*
G01X3724540Y274670D02*
X3718190Y284830D01*
X3710780Y289910D01*
X3702310Y291600D01*
X3691730Y288210D01*
X3684320Y279750D01*
X3682200Y269590D01*
X3683260Y259420D01*
X3687500Y250960D01*
X3708660Y234030D01*
X3718190Y222170D01*
X3724540Y205240D01*
X3726660Y190000D01*
X3682200D01*
G01X3622730D02*
X3620610Y212010D01*
X3617430Y230640D01*
X3613200Y247570D01*
X3607910Y266200D01*
X3599440Y291600D01*
X3641780D01*
G01X3849700Y356500D02*
X3570300D01*
G01Y483500D02*
X3849700D01*
G01X3570300Y633500D02*
Y506500D01*
G01D02*
X3849700D01*
Y633500D01*
X3570300D01*
G01X3999700Y1446500D02*
X3720300D01*
G01X3717760Y1573500D02*
G03Y1446500I73330J-63500D01*
G01X3720300Y1573500D02*
X3999700D01*
G01X3938220Y1605300D02*
Y1706900D01*
X3911760D01*
X3903290Y1701820D01*
X3898000Y1695050D01*
X3895880Y1681500D01*
X3898000Y1667950D01*
X3904350Y1659490D01*
X3911760Y1654410D01*
X3938220D01*
G01X3911760D02*
X3895880Y1605300D01*
G01X3856510Y1625620D02*
X3850160Y1613760D01*
X3841700Y1606990D01*
X3832170Y1605300D01*
X3823700Y1606990D01*
X3815240Y1615460D01*
X3809950Y1625620D01*
X3808890Y1635780D01*
X3811000Y1647630D01*
X3818410Y1656100D01*
X3825820Y1659490D01*
X3835350D01*
G01X3825820D02*
X3819470Y1664570D01*
X3814180Y1673030D01*
X3812060Y1683190D01*
X3814180Y1693350D01*
X3819470Y1701820D01*
X3829000Y1706900D01*
X3838520Y1705210D01*
X3848050Y1698430D01*
G01X3767400Y1617150D02*
X3759990Y1608690D01*
X3751530Y1605300D01*
X3743060Y1608690D01*
X3735650Y1618840D01*
X3730360Y1634090D01*
X3728240Y1649330D01*
Y1667950D01*
X3730360Y1683190D01*
X3735650Y1696740D01*
X3742000Y1703510D01*
X3749410Y1706900D01*
X3757880Y1703510D01*
X3764230Y1696740D01*
X3768460Y1686580D01*
X3770580Y1673030D01*
X3768460Y1661180D01*
X3763170Y1649330D01*
X3756820Y1642550D01*
X3749410Y1640860D01*
X3740940Y1644240D01*
X3734590Y1652710D01*
X3728240Y1667950D01*
G01X3938220Y1757700D02*
Y1859300D01*
X3911760D01*
X3903290Y1854220D01*
X3898000Y1847450D01*
X3895880Y1833900D01*
X3898000Y1820350D01*
X3904350Y1811890D01*
X3911760Y1806810D01*
X3938220D01*
G01X3911760D02*
X3895880Y1757700D01*
G01X3820530D02*
Y1859300D01*
X3859690Y1786490D01*
X3806770D01*
G01X3749410Y1859300D02*
X3757880Y1855910D01*
X3764230Y1847450D01*
X3768460Y1837290D01*
X3771640Y1823740D01*
X3772690Y1808500D01*
X3771640Y1793260D01*
X3768460Y1779710D01*
X3764230Y1769550D01*
X3757880Y1761090D01*
X3749410Y1757700D01*
X3740940Y1761090D01*
X3734590Y1769550D01*
X3730360Y1779710D01*
X3727180Y1793260D01*
X3726130Y1808500D01*
X3727180Y1823740D01*
X3730360Y1837290D01*
X3734590Y1847450D01*
X3740940Y1855910D01*
X3749410Y1859300D01*
G01X3694040Y1993900D02*
G03Y2120900I-73330J63500D01*
G01X3794970Y3333130D02*
X3801320Y3338210D01*
X3808720Y3341600D01*
X3817190D01*
X3826720Y3336520D01*
X3834120Y3328050D01*
X3839420Y3317890D01*
X3843650Y3300960D01*
X3844710Y3285720D01*
X3842590Y3270480D01*
X3839420Y3260320D01*
X3833070Y3250160D01*
X3825660Y3243390D01*
X3818250Y3240000D01*
X3810840D01*
X3803430Y3243390D01*
X3797080Y3248460D01*
X3791790Y3255240D01*
G01X3754540Y3324670D02*
X3748190Y3334830D01*
X3740780Y3339910D01*
X3732310Y3341600D01*
X3721730Y3338210D01*
X3714320Y3329750D01*
X3712200Y3319590D01*
X3713260Y3309420D01*
X3717500Y3300960D01*
X3738660Y3284030D01*
X3748190Y3272170D01*
X3754540Y3255240D01*
X3756660Y3240000D01*
X3712200D01*
G01X3650610D02*
X3643200Y3241690D01*
X3634740Y3246770D01*
X3629440Y3255240D01*
X3627330Y3267090D01*
X3629440Y3278940D01*
X3635790Y3289110D01*
X3645320Y3294190D01*
X3655900D01*
X3662250Y3297570D01*
X3667540Y3306040D01*
X3669660Y3317890D01*
X3666480Y3329750D01*
X3659080Y3338210D01*
X3650610Y3341600D01*
X3642140Y3338210D01*
X3634740Y3329750D01*
X3631560Y3317890D01*
X3633680Y3306040D01*
X3638970Y3297570D01*
X3645320Y3294190D01*
X3655900D01*
X3665430Y3289110D01*
X3671780Y3278940D01*
X3673890Y3267090D01*
X3671780Y3255240D01*
X3666480Y3246770D01*
X3658020Y3241690D01*
X3650610Y3240000D01*
G01X3929700Y4036500D02*
X3650300D01*
G01X3647760Y4163500D02*
G03Y4036500I73330J-63500D01*
G01X3650300Y4163500D02*
X3929700D01*
G01X3650300Y4553500D02*
X3929700D01*
G01Y4426500D02*
X3650300D01*
G01X3647760Y4553500D02*
G03Y4426500I73330J-63500D01*
G01X3852240Y356500D02*
G03Y483500I-73330J63500D01*
G01X4066370Y1001530D02*
X4072720Y1006610D01*
X4080120Y1010000D01*
X4088590D01*
X4098120Y1004920D01*
X4105520Y996450D01*
X4110820Y986290D01*
X4115050Y969360D01*
X4116110Y954120D01*
X4113990Y938880D01*
X4110820Y928720D01*
X4104470Y918560D01*
X4097060Y911790D01*
X4089650Y908400D01*
X4082240D01*
X4074830Y911790D01*
X4068480Y916860D01*
X4063190Y923640D01*
G01X4005830Y908400D02*
Y1010000D01*
X4018530Y989680D01*
G01Y908400D02*
X3993130D01*
G01X3942120Y993070D02*
X3935770Y1003230D01*
X3928360Y1008310D01*
X3919890Y1010000D01*
X3909310Y1006610D01*
X3901900Y998150D01*
X3899780Y987990D01*
X3900840Y977820D01*
X3905080Y969360D01*
X3926240Y952430D01*
X3935770Y940570D01*
X3942120Y923640D01*
X3944240Y908400D01*
X3899780D01*
G01X3812240Y896500D02*
G03Y1023500I-73330J63500D01*
G01X3897960Y1048720D02*
G03Y1211280I-106888J81280D01*
G01X3914970Y2103130D02*
X3921320Y2108210D01*
X3928720Y2111600D01*
X3937190D01*
X3946720Y2106520D01*
X3954120Y2098050D01*
X3959420Y2087890D01*
X3963650Y2070960D01*
X3964710Y2055720D01*
X3962590Y2040480D01*
X3959420Y2030320D01*
X3953070Y2020160D01*
X3945660Y2013390D01*
X3938250Y2010000D01*
X3930840D01*
X3923430Y2013390D01*
X3917080Y2018460D01*
X3911790Y2025240D01*
G01X3841730Y2010000D02*
Y2111600D01*
X3880890Y2038790D01*
X3827970D01*
G01X3770610Y2010000D02*
X3763200Y2011690D01*
X3754740Y2016770D01*
X3749440Y2025240D01*
X3747330Y2037090D01*
X3749440Y2048940D01*
X3755790Y2059110D01*
X3765320Y2064190D01*
X3775900D01*
X3782250Y2067570D01*
X3787540Y2076040D01*
X3789660Y2087890D01*
X3786480Y2099750D01*
X3779080Y2108210D01*
X3770610Y2111600D01*
X3762140Y2108210D01*
X3754740Y2099750D01*
X3751560Y2087890D01*
X3753680Y2076040D01*
X3758970Y2067570D01*
X3765320Y2064190D01*
X3775900D01*
X3785430Y2059110D01*
X3791780Y2048940D01*
X3793890Y2037090D01*
X3791780Y2025240D01*
X3786480Y2016770D01*
X3778020Y2011690D01*
X3770610Y2010000D01*
G01X3822700Y2882900D02*
X4102100D01*
G01Y2755900D02*
X3822700D01*
G01X3820160Y2882900D02*
G03Y2755900I73330J-63500D01*
G01X3934370Y3640130D02*
X3940720Y3645210D01*
X3948120Y3648600D01*
X3956590D01*
X3966120Y3643520D01*
X3973520Y3635050D01*
X3978820Y3624890D01*
X3983050Y3607960D01*
X3984110Y3592720D01*
X3981990Y3577480D01*
X3978820Y3567320D01*
X3972470Y3557160D01*
X3965060Y3550390D01*
X3957650Y3547000D01*
X3950240D01*
X3942830Y3550390D01*
X3936480Y3555460D01*
X3931190Y3562240D01*
G01X3893940Y3631670D02*
X3887590Y3641830D01*
X3880180Y3646910D01*
X3871710Y3648600D01*
X3861130Y3645210D01*
X3853720Y3636750D01*
X3851600Y3626590D01*
X3852660Y3616420D01*
X3856900Y3607960D01*
X3878060Y3591030D01*
X3887590Y3579170D01*
X3893940Y3562240D01*
X3896060Y3547000D01*
X3851600D01*
G01X3790010D02*
Y3648600D01*
X3802710Y3628280D01*
G01Y3547000D02*
X3777310D01*
G01X3923570Y3784730D02*
X3929920Y3789810D01*
X3937320Y3793200D01*
X3945790D01*
X3955320Y3788120D01*
X3962720Y3779650D01*
X3968020Y3769490D01*
X3972250Y3752560D01*
X3973310Y3737320D01*
X3971190Y3722080D01*
X3968020Y3711920D01*
X3961670Y3701760D01*
X3954260Y3694990D01*
X3946850Y3691600D01*
X3939440D01*
X3932030Y3694990D01*
X3925680Y3700060D01*
X3920390Y3706840D01*
G01X3883140Y3776270D02*
X3876790Y3786430D01*
X3869380Y3791510D01*
X3860910Y3793200D01*
X3850330Y3789810D01*
X3842920Y3781350D01*
X3840800Y3771190D01*
X3841860Y3761020D01*
X3846100Y3752560D01*
X3867260Y3735630D01*
X3876790Y3723770D01*
X3883140Y3706840D01*
X3885260Y3691600D01*
X3840800D01*
G01X3799320Y3776270D02*
X3792970Y3786430D01*
X3785560Y3791510D01*
X3777090Y3793200D01*
X3766510Y3789810D01*
X3759100Y3781350D01*
X3756980Y3771190D01*
X3758040Y3761020D01*
X3762280Y3752560D01*
X3783440Y3735630D01*
X3792970Y3723770D01*
X3799320Y3706840D01*
X3801440Y3691600D01*
X3756980D01*
G01X4055570Y1146130D02*
X4061920Y1151210D01*
X4069320Y1154600D01*
X4077790D01*
X4087320Y1149520D01*
X4094720Y1141050D01*
X4100020Y1130890D01*
X4104250Y1113960D01*
X4105310Y1098720D01*
X4103190Y1083480D01*
X4100020Y1073320D01*
X4093670Y1063160D01*
X4086260Y1056390D01*
X4078850Y1053000D01*
X4071440D01*
X4064030Y1056390D01*
X4057680Y1061460D01*
X4052390Y1068240D01*
G01X4013020Y1064850D02*
X4005610Y1056390D01*
X3997150Y1053000D01*
X3988680Y1056390D01*
X3981270Y1066540D01*
X3975980Y1081790D01*
X3973860Y1097030D01*
Y1115650D01*
X3975980Y1130890D01*
X3981270Y1144440D01*
X3987620Y1151210D01*
X3995030Y1154600D01*
X4003500Y1151210D01*
X4009850Y1144440D01*
X4014080Y1134280D01*
X4016200Y1120730D01*
X4014080Y1108880D01*
X4008790Y1097030D01*
X4002440Y1090250D01*
X3995030Y1088560D01*
X3986560Y1091940D01*
X3980210Y1100410D01*
X3973860Y1115650D01*
G01X3999700Y1573500D02*
G02Y1446500I-71651J-63500D01*
G01X4074580Y1438720D02*
G02Y1601280I106888J81280D01*
G01X4074160Y1778000D02*
G03Y1651000I73330J-63500D01*
G01X4064000Y1930400D02*
Y1803400D01*
G01D02*
X4343400D01*
Y1930400D01*
X4064000D01*
G01Y2082800D02*
Y1955800D01*
G01D02*
X4343400D01*
Y2082800D01*
X4064000D01*
G01X4204970Y3643130D02*
X4211320Y3648210D01*
X4218720Y3651600D01*
X4227190D01*
X4236720Y3646520D01*
X4244120Y3638050D01*
X4249420Y3627890D01*
X4253650Y3610960D01*
X4254710Y3595720D01*
X4252590Y3580480D01*
X4249420Y3570320D01*
X4243070Y3560160D01*
X4235660Y3553390D01*
X4228250Y3550000D01*
X4220840D01*
X4213430Y3553390D01*
X4207080Y3558460D01*
X4201790Y3565240D01*
G01X4164540Y3634670D02*
X4158190Y3644830D01*
X4150780Y3649910D01*
X4142310Y3651600D01*
X4131730Y3648210D01*
X4124320Y3639750D01*
X4122200Y3629590D01*
X4123260Y3619420D01*
X4127500Y3610960D01*
X4148660Y3594030D01*
X4158190Y3582170D01*
X4164540Y3565240D01*
X4166660Y3550000D01*
X4122200D01*
G01X4060610Y3651600D02*
X4069080Y3648210D01*
X4075430Y3639750D01*
X4079660Y3629590D01*
X4082840Y3616040D01*
X4083890Y3600800D01*
X4082840Y3585560D01*
X4079660Y3572010D01*
X4075430Y3561850D01*
X4069080Y3553390D01*
X4060610Y3550000D01*
X4052140Y3553390D01*
X4045790Y3561850D01*
X4041560Y3572010D01*
X4038380Y3585560D01*
X4037330Y3600800D01*
X4038380Y3616040D01*
X4041560Y3629590D01*
X4045790Y3639750D01*
X4052140Y3648210D01*
X4060610Y3651600D01*
G01X4246420Y3691600D02*
Y3793200D01*
X4219960D01*
X4211490Y3788120D01*
X4206200Y3781350D01*
X4204080Y3767800D01*
X4206200Y3754250D01*
X4212550Y3745790D01*
X4219960Y3740710D01*
X4246420D01*
G01X4219960D02*
X4204080Y3691600D01*
G01X4161540Y3776270D02*
X4155190Y3786430D01*
X4147780Y3791510D01*
X4139310Y3793200D01*
X4128730Y3789810D01*
X4121320Y3781350D01*
X4119200Y3771190D01*
X4120260Y3761020D01*
X4124500Y3752560D01*
X4145660Y3735630D01*
X4155190Y3723770D01*
X4161540Y3706840D01*
X4163660Y3691600D01*
X4119200D01*
G01X4057610Y3793200D02*
X4066080Y3789810D01*
X4072430Y3781350D01*
X4076660Y3771190D01*
X4079840Y3757640D01*
X4080890Y3742400D01*
X4079840Y3727160D01*
X4076660Y3713610D01*
X4072430Y3703450D01*
X4066080Y3694990D01*
X4057610Y3691600D01*
X4049140Y3694990D01*
X4042790Y3703450D01*
X4038560Y3713610D01*
X4035380Y3727160D01*
X4034330Y3742400D01*
X4035380Y3757640D01*
X4038560Y3771190D01*
X4042790Y3781350D01*
X4049140Y3789810D01*
X4057610Y3793200D01*
G01X3935420Y4011280D02*
G02Y3848720I-106888J-81280D01*
G01X4395420D02*
X4024580D01*
G01X4022040Y4011280D02*
G03Y3848720I106888J-81280D01*
G01X3929700Y4163500D02*
G02Y4036500I-71651J-63500D01*
G01X4024580Y4011280D02*
X4395420D01*
G01X4030300Y4163500D02*
Y4036500D01*
G01D02*
X4309700D01*
Y4163500D01*
X4030300D01*
G01X3937960Y4238720D02*
G03Y4401280I-106888J81280D01*
G01X4385420Y4238720D02*
X4014580D01*
G01X4012040Y4401280D02*
G03Y4238720I106888J-81280D01*
G01X4014580Y4401280D02*
X4385420D01*
G01X3929700Y4553500D02*
G02Y4426500I-71651J-63500D01*
G01X4020300Y4553500D02*
Y4426500D01*
G01D02*
X4299700D01*
Y4553500D01*
X4020300D01*
G01X4354970Y453130D02*
X4361320Y458210D01*
X4368720Y461600D01*
X4377190D01*
X4386720Y456520D01*
X4394120Y448050D01*
X4399420Y437890D01*
X4403650Y420960D01*
X4404710Y405720D01*
X4402590Y390480D01*
X4399420Y380320D01*
X4393070Y370160D01*
X4385660Y363390D01*
X4378250Y360000D01*
X4370840D01*
X4363430Y363390D01*
X4357080Y368460D01*
X4351790Y375240D01*
G01X4281730Y360000D02*
Y461600D01*
X4320890Y388790D01*
X4267970D01*
G01X4210610Y461600D02*
X4219080Y458210D01*
X4225430Y449750D01*
X4229660Y439590D01*
X4232840Y426040D01*
X4233890Y410800D01*
X4232840Y395560D01*
X4229660Y382010D01*
X4225430Y371850D01*
X4219080Y363390D01*
X4210610Y360000D01*
X4202140Y363390D01*
X4195790Y371850D01*
X4191560Y382010D01*
X4188380Y395560D01*
X4187330Y410800D01*
X4188380Y426040D01*
X4191560Y439590D01*
X4195790Y449750D01*
X4202140Y458210D01*
X4210610Y461600D01*
G01X4399420Y500000D02*
Y601600D01*
X4372960D01*
X4364490Y596520D01*
X4359200Y589750D01*
X4357080Y576200D01*
X4359200Y562650D01*
X4365550Y554190D01*
X4372960Y549110D01*
X4399420D01*
G01X4372960D02*
X4357080Y500000D01*
G01X4317710Y520320D02*
X4311360Y508460D01*
X4302900Y501690D01*
X4293370Y500000D01*
X4284900Y501690D01*
X4276440Y510160D01*
X4271150Y520320D01*
X4270090Y530480D01*
X4272200Y542330D01*
X4279610Y550800D01*
X4287020Y554190D01*
X4296550D01*
G01X4287020D02*
X4280670Y559270D01*
X4275380Y567730D01*
X4273260Y577890D01*
X4275380Y588050D01*
X4280670Y596520D01*
X4290200Y601600D01*
X4299720Y599910D01*
X4309250Y593130D01*
G01X4210610Y601600D02*
X4219080Y598210D01*
X4225430Y589750D01*
X4229660Y579590D01*
X4232840Y566040D01*
X4233890Y550800D01*
X4232840Y535560D01*
X4229660Y522010D01*
X4225430Y511850D01*
X4219080Y503390D01*
X4210610Y500000D01*
X4202140Y503390D01*
X4195790Y511850D01*
X4191560Y522010D01*
X4188380Y535560D01*
X4187330Y550800D01*
X4188380Y566040D01*
X4191560Y579590D01*
X4195790Y589750D01*
X4202140Y598210D01*
X4210610Y601600D01*
G01X4435700Y1151000D02*
X4156300D01*
G01X4153760Y1278000D02*
G03Y1151000I73330J-63500D01*
G01X4156300Y1278000D02*
X4435700D01*
G01X4445420Y1438720D02*
X4074580D01*
G01X4356100Y1651000D02*
X4076700D01*
G01X4074580Y1601280D02*
X4445420D01*
G01X4076700Y1778000D02*
X4356100D01*
G01X4324970Y2863130D02*
X4331320Y2868210D01*
X4338720Y2871600D01*
X4347190D01*
X4356720Y2866520D01*
X4364120Y2858050D01*
X4369420Y2847890D01*
X4373650Y2830960D01*
X4374710Y2815720D01*
X4372590Y2800480D01*
X4369420Y2790320D01*
X4363070Y2780160D01*
X4355660Y2773390D01*
X4348250Y2770000D01*
X4340840D01*
X4333430Y2773390D01*
X4327080Y2778460D01*
X4321790Y2785240D01*
G01X4287710D02*
X4281360Y2776770D01*
X4273960Y2771690D01*
X4264430Y2770000D01*
X4254900Y2773390D01*
X4247500Y2780160D01*
X4242200Y2792010D01*
X4241150Y2805560D01*
X4243260Y2819110D01*
X4248560Y2827570D01*
X4255960Y2834350D01*
X4263370Y2836040D01*
X4270780Y2834350D01*
X4280300Y2827570D01*
X4277130Y2871600D01*
X4248560D01*
G01X4203890Y2790320D02*
X4197540Y2778460D01*
X4189080Y2771690D01*
X4179550Y2770000D01*
X4171080Y2771690D01*
X4162620Y2780160D01*
X4157330Y2790320D01*
X4156270Y2800480D01*
X4158380Y2812330D01*
X4165790Y2820800D01*
X4173200Y2824190D01*
X4182730D01*
G01X4173200D02*
X4166850Y2829270D01*
X4161560Y2837730D01*
X4159440Y2847890D01*
X4161560Y2858050D01*
X4166850Y2866520D01*
X4176380Y2871600D01*
X4185900Y2869910D01*
X4195430Y2863130D01*
G01X4102100Y2882900D02*
G02Y2755900I-71651J-63500D01*
G01X4356100Y1778000D02*
G02Y1651000I-71651J-63500D01*
G01X4629420Y1830000D02*
Y1931600D01*
X4602960D01*
X4594490Y1926520D01*
X4589200Y1919750D01*
X4587080Y1906200D01*
X4589200Y1892650D01*
X4595550Y1884190D01*
X4602960Y1879110D01*
X4629420D01*
G01X4602960D02*
X4587080Y1830000D01*
G01X4547710Y1850320D02*
X4541360Y1838460D01*
X4532900Y1831690D01*
X4523370Y1830000D01*
X4514900Y1831690D01*
X4506440Y1840160D01*
X4501150Y1850320D01*
X4500090Y1860480D01*
X4502200Y1872330D01*
X4509610Y1880800D01*
X4517020Y1884190D01*
X4526550D01*
G01X4517020D02*
X4510670Y1889270D01*
X4505380Y1897730D01*
X4503260Y1907890D01*
X4505380Y1918050D01*
X4510670Y1926520D01*
X4520200Y1931600D01*
X4529720Y1929910D01*
X4539250Y1923130D01*
G01X4440610Y1830000D02*
X4433200Y1831690D01*
X4424740Y1836770D01*
X4419440Y1845240D01*
X4417330Y1857090D01*
X4419440Y1868940D01*
X4425790Y1879110D01*
X4435320Y1884190D01*
X4445900D01*
X4452250Y1887570D01*
X4457540Y1896040D01*
X4459660Y1907890D01*
X4456480Y1919750D01*
X4449080Y1928210D01*
X4440610Y1931600D01*
X4432140Y1928210D01*
X4424740Y1919750D01*
X4421560Y1907890D01*
X4423680Y1896040D01*
X4428970Y1887570D01*
X4435320Y1884190D01*
X4445900D01*
X4455430Y1879110D01*
X4461780Y1868940D01*
X4463890Y1857090D01*
X4461780Y1845240D01*
X4456480Y1836770D01*
X4448020Y1831690D01*
X4440610Y1830000D01*
G01X4629420Y1970000D02*
Y2071600D01*
X4602960D01*
X4594490Y2066520D01*
X4589200Y2059750D01*
X4587080Y2046200D01*
X4589200Y2032650D01*
X4595550Y2024190D01*
X4602960Y2019110D01*
X4629420D01*
G01X4602960D02*
X4587080Y1970000D01*
G01X4547710Y1990320D02*
X4541360Y1978460D01*
X4532900Y1971690D01*
X4523370Y1970000D01*
X4514900Y1971690D01*
X4506440Y1980160D01*
X4501150Y1990320D01*
X4500090Y2000480D01*
X4502200Y2012330D01*
X4509610Y2020800D01*
X4517020Y2024190D01*
X4526550D01*
G01X4517020D02*
X4510670Y2029270D01*
X4505380Y2037730D01*
X4503260Y2047890D01*
X4505380Y2058050D01*
X4510670Y2066520D01*
X4520200Y2071600D01*
X4529720Y2069910D01*
X4539250Y2063130D01*
G01X4442730Y1970000D02*
X4440610Y1992010D01*
X4437430Y2010640D01*
X4433200Y2027570D01*
X4427910Y2046200D01*
X4419440Y2071600D01*
X4461780D01*
G01X4395420Y4011280D02*
G02Y3848720I-106888J-81280D01*
G01X4385420Y4401280D02*
G02Y4238720I-106888J-81280D01*
G01X4719700Y356500D02*
X4440300D01*
G01Y483500D02*
X4719700D01*
G01X4440300Y356500D02*
G02Y483500I71651J63500D01*
G01Y623500D02*
Y496500D01*
G01D02*
X4719700D01*
Y623500D01*
X4440300D01*
G01X4674970Y1263130D02*
X4681320Y1268210D01*
X4688720Y1271600D01*
X4697190D01*
X4706720Y1266520D01*
X4714120Y1258050D01*
X4719420Y1247890D01*
X4723650Y1230960D01*
X4724710Y1215720D01*
X4722590Y1200480D01*
X4719420Y1190320D01*
X4713070Y1180160D01*
X4705660Y1173390D01*
X4698250Y1170000D01*
X4690840D01*
X4683430Y1173390D01*
X4677080Y1178460D01*
X4671790Y1185240D01*
G01X4637710D02*
X4631360Y1176770D01*
X4623960Y1171690D01*
X4614430Y1170000D01*
X4604900Y1173390D01*
X4597500Y1180160D01*
X4592200Y1192010D01*
X4591150Y1205560D01*
X4593260Y1219110D01*
X4598560Y1227570D01*
X4605960Y1234350D01*
X4613370Y1236040D01*
X4620780Y1234350D01*
X4630300Y1227570D01*
X4627130Y1271600D01*
X4598560D01*
G01X4517910Y1170000D02*
Y1271600D01*
X4557070Y1198790D01*
X4504150D01*
G01X4435700Y1278000D02*
G02Y1151000I-71651J-63500D01*
G01X4684970Y1563130D02*
X4691320Y1568210D01*
X4698720Y1571600D01*
X4707190D01*
X4716720Y1566520D01*
X4724120Y1558050D01*
X4729420Y1547890D01*
X4733650Y1530960D01*
X4734710Y1515720D01*
X4732590Y1500480D01*
X4729420Y1490320D01*
X4723070Y1480160D01*
X4715660Y1473390D01*
X4708250Y1470000D01*
X4700840D01*
X4693430Y1473390D01*
X4687080Y1478460D01*
X4681790Y1485240D01*
G01X4647710D02*
X4641360Y1476770D01*
X4633960Y1471690D01*
X4624430Y1470000D01*
X4614900Y1473390D01*
X4607500Y1480160D01*
X4602200Y1492010D01*
X4601150Y1505560D01*
X4603260Y1519110D01*
X4608560Y1527570D01*
X4615960Y1534350D01*
X4623370Y1536040D01*
X4630780Y1534350D01*
X4640300Y1527570D01*
X4637130Y1571600D01*
X4608560D01*
G01X4563890Y1485240D02*
X4557540Y1476770D01*
X4550140Y1471690D01*
X4540610Y1470000D01*
X4531080Y1473390D01*
X4523680Y1480160D01*
X4518380Y1492010D01*
X4517330Y1505560D01*
X4519440Y1519110D01*
X4524740Y1527570D01*
X4532140Y1534350D01*
X4539550Y1536040D01*
X4546960Y1534350D01*
X4556480Y1527570D01*
X4553310Y1571600D01*
X4524740D01*
G01X4447960Y1438720D02*
G03Y1601280I-106888J81280D01*
G01X4594970Y1773130D02*
X4601320Y1778210D01*
X4608720Y1781600D01*
X4617190D01*
X4626720Y1776520D01*
X4634120Y1768050D01*
X4639420Y1757890D01*
X4643650Y1740960D01*
X4644710Y1725720D01*
X4642590Y1710480D01*
X4639420Y1700320D01*
X4633070Y1690160D01*
X4625660Y1683390D01*
X4618250Y1680000D01*
X4610840D01*
X4603430Y1683390D01*
X4597080Y1688460D01*
X4591790Y1695240D01*
G01X4521730Y1680000D02*
Y1781600D01*
X4560890Y1708790D01*
X4507970D01*
G01X4473890Y1695240D02*
X4467540Y1686770D01*
X4460140Y1681690D01*
X4450610Y1680000D01*
X4441080Y1683390D01*
X4433680Y1690160D01*
X4428380Y1702010D01*
X4427330Y1715560D01*
X4429440Y1729110D01*
X4434740Y1737570D01*
X4442140Y1744350D01*
X4449550Y1746040D01*
X4456960Y1744350D01*
X4466480Y1737570D01*
X4463310Y1781600D01*
X4434740D01*
G01X4582160Y2997200D02*
G03Y2870200I73330J-63500D01*
G01X4559300Y3352800D02*
X4533900D01*
Y3175000D01*
X4559300D01*
G01Y3352800D02*
X4914900D01*
Y3175000D01*
X4559300D01*
Y3352800D01*
G01X4550200Y4402700D02*
Y4275700D01*
G01D02*
X4829600D01*
Y4402700D01*
X4550200D01*
G01Y4555100D02*
Y4428100D01*
G01D02*
X4829600D01*
Y4555100D01*
X4550200D01*
G01X4722240Y356500D02*
G03Y483500I-73330J63500D01*
G01X4864100Y2870200D02*
X4584700D01*
G01Y2997200D02*
X4864100D01*
G01Y3149600D02*
X4584700D01*
Y3022600D01*
X4864100D01*
G01X4711700Y3314700D02*
Y3213100D01*
G01X4762500Y3314700D02*
Y3213100D01*
X4711700Y3263900D01*
X4762500Y3314700D01*
G01X4969700Y3806500D02*
X4690300D01*
G01D02*
G02Y3933500I71651J63500D01*
G01D02*
X4969700D01*
G01X5059700Y1956500D02*
X4780300D01*
G01D02*
G02Y2083500I71651J63500D01*
G01D02*
X5059700D01*
G01X5094970Y2963130D02*
X5101320Y2968210D01*
X5108720Y2971600D01*
X5117190D01*
X5126720Y2966520D01*
X5134120Y2958050D01*
X5139420Y2947890D01*
X5143650Y2930960D01*
X5144710Y2915720D01*
X5142590Y2900480D01*
X5139420Y2890320D01*
X5133070Y2880160D01*
X5125660Y2873390D01*
X5118250Y2870000D01*
X5110840D01*
X5103430Y2873390D01*
X5097080Y2878460D01*
X5091790Y2885240D01*
G01X5057710D02*
X5051360Y2876770D01*
X5043960Y2871690D01*
X5034430Y2870000D01*
X5024900Y2873390D01*
X5017500Y2880160D01*
X5012200Y2892010D01*
X5011150Y2905560D01*
X5013260Y2919110D01*
X5018560Y2927570D01*
X5025960Y2934350D01*
X5033370Y2936040D01*
X5040780Y2934350D01*
X5050300Y2927570D01*
X5047130Y2971600D01*
X5018560D01*
G01X4952730Y2870000D02*
X4950610Y2892010D01*
X4947430Y2910640D01*
X4943200Y2927570D01*
X4937910Y2946200D01*
X4929440Y2971600D01*
X4971780D01*
G01X4864100Y2997200D02*
G02Y2870200I-71651J-63500D01*
G01X5139420Y3040000D02*
Y3141600D01*
X5112960D01*
X5104490Y3136520D01*
X5099200Y3129750D01*
X5097080Y3116200D01*
X5099200Y3102650D01*
X5105550Y3094190D01*
X5112960Y3089110D01*
X5139420D01*
G01X5112960D02*
X5097080Y3040000D01*
G01X5021730D02*
Y3141600D01*
X5060890Y3068790D01*
X5007970D01*
G01X4970720Y3124670D02*
X4964370Y3134830D01*
X4956960Y3139910D01*
X4948490Y3141600D01*
X4937910Y3138210D01*
X4930500Y3129750D01*
X4928380Y3119590D01*
X4929440Y3109420D01*
X4933680Y3100960D01*
X4954840Y3084030D01*
X4964370Y3072170D01*
X4970720Y3055240D01*
X4972840Y3040000D01*
X4928380D01*
G01X4864100Y3022600D02*
Y3149600D01*
G01X5086320Y4290800D02*
Y4392400D01*
X5059860D01*
X5051390Y4387320D01*
X5046100Y4380550D01*
X5043980Y4367000D01*
X5046100Y4353450D01*
X5052450Y4344990D01*
X5059860Y4339910D01*
X5086320D01*
G01X5059860D02*
X5043980Y4290800D01*
G01X4968630D02*
Y4392400D01*
X5007790Y4319590D01*
X4954870D01*
G01X4897510Y4290800D02*
X4890100Y4292490D01*
X4881640Y4297570D01*
X4876340Y4306040D01*
X4874230Y4317890D01*
X4876340Y4329740D01*
X4882690Y4339910D01*
X4892220Y4344990D01*
X4902800D01*
X4909150Y4348370D01*
X4914440Y4356840D01*
X4916560Y4368690D01*
X4913380Y4380550D01*
X4905980Y4389010D01*
X4897510Y4392400D01*
X4889040Y4389010D01*
X4881640Y4380550D01*
X4878460Y4368690D01*
X4880580Y4356840D01*
X4885870Y4348370D01*
X4892220Y4344990D01*
X4902800D01*
X4912330Y4339910D01*
X4918680Y4329740D01*
X4920790Y4317890D01*
X4918680Y4306040D01*
X4913380Y4297570D01*
X4904920Y4292490D01*
X4897510Y4290800D01*
G01X5086320Y4443200D02*
Y4544800D01*
X5059860D01*
X5051390Y4539720D01*
X5046100Y4532950D01*
X5043980Y4519400D01*
X5046100Y4505850D01*
X5052450Y4497390D01*
X5059860Y4492310D01*
X5086320D01*
G01X5059860D02*
X5043980Y4443200D01*
G01X4968630D02*
Y4544800D01*
X5007790Y4471990D01*
X4954870D01*
G01X4899630Y4443200D02*
X4897510Y4465210D01*
X4894330Y4483840D01*
X4890100Y4500770D01*
X4884810Y4519400D01*
X4876340Y4544800D01*
X4918680D01*
G01X5062240Y1956500D02*
G03Y2083500I-73330J63500D01*
G01X5131530Y3220000D02*
Y3321600D01*
X5110370D01*
X5101900Y3316520D01*
X5095550Y3309750D01*
X5090260Y3299590D01*
X5086020Y3287730D01*
X5084970Y3270800D01*
X5086020Y3253870D01*
X5090260Y3242010D01*
X5095550Y3231850D01*
X5101900Y3225080D01*
X5110370Y3220000D01*
X5131530D01*
G01X5042420Y3231850D02*
X5035010Y3223390D01*
X5026550Y3220000D01*
X5018080Y3223390D01*
X5010670Y3233540D01*
X5005380Y3248790D01*
X5003260Y3264030D01*
Y3282650D01*
X5005380Y3297890D01*
X5010670Y3311440D01*
X5017020Y3318210D01*
X5024430Y3321600D01*
X5032900Y3318210D01*
X5039250Y3311440D01*
X5043480Y3301280D01*
X5045600Y3287730D01*
X5043480Y3275880D01*
X5038190Y3264030D01*
X5031840Y3257250D01*
X5024430Y3255560D01*
X5015960Y3258940D01*
X5009610Y3267410D01*
X5003260Y3282650D01*
G01X5194970Y3913130D02*
X5201320Y3918210D01*
X5208720Y3921600D01*
X5217190D01*
X5226720Y3916520D01*
X5234120Y3908050D01*
X5239420Y3897890D01*
X5243650Y3880960D01*
X5244710Y3865720D01*
X5242590Y3850480D01*
X5239420Y3840320D01*
X5233070Y3830160D01*
X5225660Y3823390D01*
X5218250Y3820000D01*
X5210840D01*
X5203430Y3823390D01*
X5197080Y3828460D01*
X5191790Y3835240D01*
G01X5154540Y3862330D02*
X5147130Y3874190D01*
X5140780Y3880960D01*
X5132310Y3884350D01*
X5124900Y3880960D01*
X5119610Y3874190D01*
X5115380Y3864030D01*
X5114320Y3852170D01*
X5115380Y3842010D01*
X5119610Y3831850D01*
X5125960Y3823390D01*
X5133370Y3820000D01*
X5141840Y3823390D01*
X5149250Y3833540D01*
X5153480Y3848790D01*
X5154540Y3865720D01*
X5152420Y3887730D01*
X5149250Y3899590D01*
X5143960Y3911440D01*
X5136550Y3919910D01*
X5129140Y3921600D01*
X5121730Y3918210D01*
X5116440Y3909750D01*
G01X5050610Y3820000D02*
Y3921600D01*
X5063310Y3901280D01*
G01Y3820000D02*
X5037910D01*
G01X4972240Y3806500D02*
G03Y3933500I-73330J63500D01*
G01X5429700Y1606500D02*
X5150300D01*
G01D02*
G02Y1733500I71651J63500D01*
G01D02*
X5429700D01*
G01X5304970Y2063130D02*
X5311320Y2068210D01*
X5318720Y2071600D01*
X5327190D01*
X5336720Y2066520D01*
X5344120Y2058050D01*
X5349420Y2047890D01*
X5353650Y2030960D01*
X5354710Y2015720D01*
X5352590Y2000480D01*
X5349420Y1990320D01*
X5343070Y1980160D01*
X5335660Y1973390D01*
X5328250Y1970000D01*
X5320840D01*
X5313430Y1973390D01*
X5307080Y1978460D01*
X5301790Y1985240D01*
G01X5267710D02*
X5261360Y1976770D01*
X5253960Y1971690D01*
X5244430Y1970000D01*
X5234900Y1973390D01*
X5227500Y1980160D01*
X5222200Y1992010D01*
X5221150Y2005560D01*
X5223260Y2019110D01*
X5228560Y2027570D01*
X5235960Y2034350D01*
X5243370Y2036040D01*
X5250780Y2034350D01*
X5260300Y2027570D01*
X5257130Y2071600D01*
X5228560D01*
G01X5180720Y2054670D02*
X5174370Y2064830D01*
X5166960Y2069910D01*
X5158490Y2071600D01*
X5147910Y2068210D01*
X5140500Y2059750D01*
X5138380Y2049590D01*
X5139440Y2039420D01*
X5143680Y2030960D01*
X5164840Y2014030D01*
X5174370Y2002170D01*
X5180720Y1985240D01*
X5182840Y1970000D01*
X5138380D01*
G01X5274970Y2283130D02*
X5281320Y2288210D01*
X5288720Y2291600D01*
X5297190D01*
X5306720Y2286520D01*
X5314120Y2278050D01*
X5319420Y2267890D01*
X5323650Y2250960D01*
X5324710Y2235720D01*
X5322590Y2220480D01*
X5319420Y2210320D01*
X5313070Y2200160D01*
X5305660Y2193390D01*
X5298250Y2190000D01*
X5290840D01*
X5283430Y2193390D01*
X5277080Y2198460D01*
X5271790Y2205240D01*
G01X5201730Y2190000D02*
Y2291600D01*
X5240890Y2218790D01*
X5187970D01*
G01X5150720Y2274670D02*
X5144370Y2284830D01*
X5136960Y2289910D01*
X5128490Y2291600D01*
X5117910Y2288210D01*
X5110500Y2279750D01*
X5108380Y2269590D01*
X5109440Y2259420D01*
X5113680Y2250960D01*
X5134840Y2234030D01*
X5144370Y2222170D01*
X5150720Y2205240D01*
X5152840Y2190000D01*
X5108380D01*
G01X5319420Y2461600D02*
Y2360000D01*
X5277080D01*
G01X5234540Y2444670D02*
X5228190Y2454830D01*
X5220780Y2459910D01*
X5212310Y2461600D01*
X5201730Y2458210D01*
X5194320Y2449750D01*
X5192200Y2439590D01*
X5193260Y2429420D01*
X5197500Y2420960D01*
X5218660Y2404030D01*
X5228190Y2392170D01*
X5234540Y2375240D01*
X5236660Y2360000D01*
X5192200D01*
G01X5494970Y133130D02*
X5501320Y138210D01*
X5508720Y141600D01*
X5517190D01*
X5526720Y136520D01*
X5534120Y128050D01*
X5539420Y117890D01*
X5543650Y100960D01*
X5544710Y85720D01*
X5542590Y70480D01*
X5539420Y60320D01*
X5533070Y50160D01*
X5525660Y43390D01*
X5518250Y40000D01*
X5510840D01*
X5503430Y43390D01*
X5497080Y48460D01*
X5491790Y55240D01*
G01X5457710Y60320D02*
X5451360Y48460D01*
X5442900Y41690D01*
X5433370Y40000D01*
X5424900Y41690D01*
X5416440Y50160D01*
X5411150Y60320D01*
X5410090Y70480D01*
X5412200Y82330D01*
X5419610Y90800D01*
X5427020Y94190D01*
X5436550D01*
G01X5427020D02*
X5420670Y99270D01*
X5415380Y107730D01*
X5413260Y117890D01*
X5415380Y128050D01*
X5420670Y136520D01*
X5430200Y141600D01*
X5439720Y139910D01*
X5449250Y133130D01*
G01X5350610Y40000D02*
X5343200Y41690D01*
X5334740Y46770D01*
X5329440Y55240D01*
X5327330Y67090D01*
X5329440Y78940D01*
X5335790Y89110D01*
X5345320Y94190D01*
X5355900D01*
X5362250Y97570D01*
X5367540Y106040D01*
X5369660Y117890D01*
X5366480Y129750D01*
X5359080Y138210D01*
X5350610Y141600D01*
X5342140Y138210D01*
X5334740Y129750D01*
X5331560Y117890D01*
X5333680Y106040D01*
X5338970Y97570D01*
X5345320Y94190D01*
X5355900D01*
X5365430Y89110D01*
X5371780Y78940D01*
X5373890Y67090D01*
X5371780Y55240D01*
X5366480Y46770D01*
X5358020Y41690D01*
X5350610Y40000D01*
G01X5539420Y190000D02*
Y291600D01*
X5512960D01*
X5504490Y286520D01*
X5499200Y279750D01*
X5497080Y266200D01*
X5499200Y252650D01*
X5505550Y244190D01*
X5512960Y239110D01*
X5539420D01*
G01X5512960D02*
X5497080Y190000D01*
G01X5454540Y274670D02*
X5448190Y284830D01*
X5440780Y289910D01*
X5432310Y291600D01*
X5421730Y288210D01*
X5414320Y279750D01*
X5412200Y269590D01*
X5413260Y259420D01*
X5417500Y250960D01*
X5438660Y234030D01*
X5448190Y222170D01*
X5454540Y205240D01*
X5456660Y190000D01*
X5412200D01*
G01X5350610D02*
X5343200Y191690D01*
X5334740Y196770D01*
X5329440Y205240D01*
X5327330Y217090D01*
X5329440Y228940D01*
X5335790Y239110D01*
X5345320Y244190D01*
X5355900D01*
X5362250Y247570D01*
X5367540Y256040D01*
X5369660Y267890D01*
X5366480Y279750D01*
X5359080Y288210D01*
X5350610Y291600D01*
X5342140Y288210D01*
X5334740Y279750D01*
X5331560Y267890D01*
X5333680Y256040D01*
X5338970Y247570D01*
X5345320Y244190D01*
X5355900D01*
X5365430Y239110D01*
X5371780Y228940D01*
X5373890Y217090D01*
X5371780Y205240D01*
X5366480Y196770D01*
X5358020Y191690D01*
X5350610Y190000D01*
G01X5569700Y356500D02*
X5290300D01*
G01Y483500D02*
X5569700D01*
G01X5290300Y356500D02*
G02Y483500I71651J63500D01*
G01Y633500D02*
Y506500D01*
G01D02*
X5569700D01*
Y633500D01*
X5290300D01*
G01X5675600Y2173900D02*
X5396200D01*
G01X5393660Y2300900D02*
G03Y2173900I73330J-63500D01*
G01X5396200Y2300900D02*
X5675600D01*
G01X5572240Y356500D02*
G03Y483500I-73330J63500D01*
G01X5644970Y1673130D02*
X5651320Y1678210D01*
X5658720Y1681600D01*
X5667190D01*
X5676720Y1676520D01*
X5684120Y1668050D01*
X5689420Y1657890D01*
X5693650Y1640960D01*
X5694710Y1625720D01*
X5692590Y1610480D01*
X5689420Y1600320D01*
X5683070Y1590160D01*
X5675660Y1583390D01*
X5668250Y1580000D01*
X5660840D01*
X5653430Y1583390D01*
X5647080Y1588460D01*
X5641790Y1595240D01*
G01X5571730Y1580000D02*
Y1681600D01*
X5610890Y1608790D01*
X5557970D01*
G01X5518600Y1591850D02*
X5511190Y1583390D01*
X5502730Y1580000D01*
X5494260Y1583390D01*
X5486850Y1593540D01*
X5481560Y1608790D01*
X5479440Y1624030D01*
Y1642650D01*
X5481560Y1657890D01*
X5486850Y1671440D01*
X5493200Y1678210D01*
X5500610Y1681600D01*
X5509080Y1678210D01*
X5515430Y1671440D01*
X5519660Y1661280D01*
X5521780Y1647730D01*
X5519660Y1635880D01*
X5514370Y1624030D01*
X5508020Y1617250D01*
X5500610Y1615560D01*
X5492140Y1618940D01*
X5485790Y1627410D01*
X5479440Y1642650D01*
G01X5432240Y1606500D02*
G03Y1733500I-73330J63500D01*
G01X5675600Y2300900D02*
G02Y2173900I-71651J-63500D01*
G01X5747220Y4418600D02*
Y4317000D01*
X5704880D01*
G01X5642230D02*
X5634820Y4318690D01*
X5626360Y4323770D01*
X5621060Y4332240D01*
X5618950Y4344090D01*
X5621060Y4355940D01*
X5627410Y4366110D01*
X5636940Y4371190D01*
X5647520D01*
X5653870Y4374570D01*
X5659160Y4383040D01*
X5661280Y4394890D01*
X5658100Y4406750D01*
X5650700Y4415210D01*
X5642230Y4418600D01*
X5633760Y4415210D01*
X5626360Y4406750D01*
X5623180Y4394890D01*
X5625300Y4383040D01*
X5630590Y4374570D01*
X5636940Y4371190D01*
X5647520D01*
X5657050Y4366110D01*
X5663400Y4355940D01*
X5665510Y4344090D01*
X5663400Y4332240D01*
X5658100Y4323770D01*
X5649640Y4318690D01*
X5642230Y4317000D01*
G01X6104970Y1973130D02*
X6111320Y1978210D01*
X6118720Y1981600D01*
X6127190D01*
X6136720Y1976520D01*
X6144120Y1968050D01*
X6149420Y1957890D01*
X6153650Y1940960D01*
X6154710Y1925720D01*
X6152590Y1910480D01*
X6149420Y1900320D01*
X6143070Y1890160D01*
X6135660Y1883390D01*
X6128250Y1880000D01*
X6120840D01*
X6113430Y1883390D01*
X6107080Y1888460D01*
X6101790Y1895240D01*
G01X6031730Y1880000D02*
Y1981600D01*
X6070890Y1908790D01*
X6017970D01*
G01X5983890Y1900320D02*
X5977540Y1888460D01*
X5969080Y1881690D01*
X5959550Y1880000D01*
X5951080Y1881690D01*
X5942620Y1890160D01*
X5937330Y1900320D01*
X5936270Y1910480D01*
X5938380Y1922330D01*
X5945790Y1930800D01*
X5953200Y1934190D01*
X5962730D01*
G01X5953200D02*
X5946850Y1939270D01*
X5941560Y1947730D01*
X5939440Y1957890D01*
X5941560Y1968050D01*
X5946850Y1976520D01*
X5956380Y1981600D01*
X5965900Y1979910D01*
X5975430Y1973130D01*
G01X6149420Y2040000D02*
Y2141600D01*
X6122960D01*
X6114490Y2136520D01*
X6109200Y2129750D01*
X6107080Y2116200D01*
X6109200Y2102650D01*
X6115550Y2094190D01*
X6122960Y2089110D01*
X6149420D01*
G01X6122960D02*
X6107080Y2040000D01*
G01X6067710Y2060320D02*
X6061360Y2048460D01*
X6052900Y2041690D01*
X6043370Y2040000D01*
X6034900Y2041690D01*
X6026440Y2050160D01*
X6021150Y2060320D01*
X6020090Y2070480D01*
X6022200Y2082330D01*
X6029610Y2090800D01*
X6037020Y2094190D01*
X6046550D01*
G01X6037020D02*
X6030670Y2099270D01*
X6025380Y2107730D01*
X6023260Y2117890D01*
X6025380Y2128050D01*
X6030670Y2136520D01*
X6040200Y2141600D01*
X6049720Y2139910D01*
X6059250Y2133130D01*
G01X5947910Y2040000D02*
Y2141600D01*
X5987070Y2068790D01*
X5934150D01*
G01X6169700Y2176500D02*
X5890300D01*
G01X5887760Y2303500D02*
G03Y2176500I73330J-63500D01*
G01X5890300Y2303500D02*
X6169700D01*
G01Y2453500D02*
X5890300D01*
Y2326500D01*
X6169700D01*
G01X6289420Y70000D02*
Y171600D01*
X6262960D01*
X6254490Y166520D01*
X6249200Y159750D01*
X6247080Y146200D01*
X6249200Y132650D01*
X6255550Y124190D01*
X6262960Y119110D01*
X6289420D01*
G01X6262960D02*
X6247080Y70000D01*
G01X6207710Y90320D02*
X6201360Y78460D01*
X6192900Y71690D01*
X6183370Y70000D01*
X6174900Y71690D01*
X6166440Y80160D01*
X6161150Y90320D01*
X6160090Y100480D01*
X6162200Y112330D01*
X6169610Y120800D01*
X6177020Y124190D01*
X6186550D01*
G01X6177020D02*
X6170670Y129270D01*
X6165380Y137730D01*
X6163260Y147890D01*
X6165380Y158050D01*
X6170670Y166520D01*
X6180200Y171600D01*
X6189720Y169910D01*
X6199250Y163130D01*
G01X6120720Y154670D02*
X6114370Y164830D01*
X6106960Y169910D01*
X6098490Y171600D01*
X6087910Y168210D01*
X6080500Y159750D01*
X6078380Y149590D01*
X6079440Y139420D01*
X6083680Y130960D01*
X6104840Y114030D01*
X6114370Y102170D01*
X6120720Y85240D01*
X6122840Y70000D01*
X6078380D01*
G01X6299420Y220000D02*
Y321600D01*
X6272960D01*
X6264490Y316520D01*
X6259200Y309750D01*
X6257080Y296200D01*
X6259200Y282650D01*
X6265550Y274190D01*
X6272960Y269110D01*
X6299420D01*
G01X6272960D02*
X6257080Y220000D01*
G01X6217710Y240320D02*
X6211360Y228460D01*
X6202900Y221690D01*
X6193370Y220000D01*
X6184900Y221690D01*
X6176440Y230160D01*
X6171150Y240320D01*
X6170090Y250480D01*
X6172200Y262330D01*
X6179610Y270800D01*
X6187020Y274190D01*
X6196550D01*
G01X6187020D02*
X6180670Y279270D01*
X6175380Y287730D01*
X6173260Y297890D01*
X6175380Y308050D01*
X6180670Y316520D01*
X6190200Y321600D01*
X6199720Y319910D01*
X6209250Y313130D01*
G01X6133890Y240320D02*
X6127540Y228460D01*
X6119080Y221690D01*
X6109550Y220000D01*
X6101080Y221690D01*
X6092620Y230160D01*
X6087330Y240320D01*
X6086270Y250480D01*
X6088380Y262330D01*
X6095790Y270800D01*
X6103200Y274190D01*
X6112730D01*
G01X6103200D02*
X6096850Y279270D01*
X6091560Y287730D01*
X6089440Y297890D01*
X6091560Y308050D01*
X6096850Y316520D01*
X6106380Y321600D01*
X6115900Y319910D01*
X6125430Y313130D01*
G01X6299700Y643500D02*
X6020300D01*
Y516500D01*
X6299700D01*
G01X6020300Y493500D02*
Y366500D01*
G01D02*
X6299700D01*
Y493500D01*
X6020300D01*
G01X6169700Y2303500D02*
G02Y2176500I-71651J-63500D01*
G01Y2326500D02*
Y2453500D01*
G01X6689700Y493500D02*
X6410300D01*
Y366500D01*
X6689700D01*
G01X6410300Y643500D02*
Y516500D01*
G01D02*
X6689700D01*
Y643500D01*
X6410300D01*
G01X6299700Y516500D02*
Y643500D01*
G01X6679420Y70000D02*
Y171600D01*
X6652960D01*
X6644490Y166520D01*
X6639200Y159750D01*
X6637080Y146200D01*
X6639200Y132650D01*
X6645550Y124190D01*
X6652960Y119110D01*
X6679420D01*
G01X6652960D02*
X6637080Y70000D01*
G01X6561730D02*
Y171600D01*
X6600890Y98790D01*
X6547970D01*
G01X6513890Y90320D02*
X6507540Y78460D01*
X6499080Y71690D01*
X6489550Y70000D01*
X6481080Y71690D01*
X6472620Y80160D01*
X6467330Y90320D01*
X6466270Y100480D01*
X6468380Y112330D01*
X6475790Y120800D01*
X6483200Y124190D01*
X6492730D01*
G01X6483200D02*
X6476850Y129270D01*
X6471560Y137730D01*
X6469440Y147890D01*
X6471560Y158050D01*
X6476850Y166520D01*
X6486380Y171600D01*
X6495900Y169910D01*
X6505430Y163130D01*
G01X6686420Y221600D02*
Y323200D01*
X6659960D01*
X6651490Y318120D01*
X6646200Y311350D01*
X6644080Y297800D01*
X6646200Y284250D01*
X6652550Y275790D01*
X6659960Y270710D01*
X6686420D01*
G01X6659960D02*
X6644080Y221600D01*
G01X6568730D02*
Y323200D01*
X6607890Y250390D01*
X6554970D01*
G01X6497610Y221600D02*
Y323200D01*
X6510310Y302880D01*
G01Y221600D02*
X6484910D01*
G01X6689700Y366500D02*
Y493500D01*
G01X7014190Y2520220D02*
X7019270Y2524450D01*
X7027730Y2527620D01*
X7039590Y2529740D01*
X7049750Y2527620D01*
X7056520Y2523390D01*
X7061600Y2515980D01*
Y2487410D01*
X6960000D01*
Y2522330D01*
X6966770Y2529740D01*
X6976930Y2533980D01*
X6988790Y2536090D01*
X7000640Y2533980D01*
X7010800Y2527620D01*
X7014190Y2520220D01*
Y2487410D01*
G01X6960000Y2595570D02*
X7005720D01*
X7061600Y2574400D01*
G01Y2616740D02*
X7005720Y2595570D01*
G01X6956610Y2679390D02*
X6958310Y2677270D01*
X6961690D01*
X6963390Y2679390D01*
X6961690Y2681510D01*
X6958310D01*
X6956610Y2679390D01*
G01X7002330D02*
X7004030Y2677270D01*
X7007410D01*
X7009110Y2679390D01*
X7007410Y2681510D01*
X7004030D01*
X7002330Y2679390D01*
G01X6960000Y2740980D02*
X7061600Y2785440D01*
G01Y2740980D02*
X6960000Y2785440D01*
G01Y2824800D02*
X7061600Y2869260D01*
G01Y2824800D02*
X6960000Y2869260D01*
G01Y2908620D02*
X7061600Y2953080D01*
G01Y2908620D02*
X6960000Y2953080D01*
G01X7061600Y2993500D02*
X6960000D01*
Y3035840D01*
G01X7061600Y3078380D02*
Y3118600D01*
X6960000Y3078380D01*
Y3118600D01*
G01X6980320Y3161140D02*
X6970160Y3166440D01*
X6963390Y3172780D01*
X6960000Y3180190D01*
X6963390Y3188660D01*
X6970160Y3195010D01*
X6980320Y3201360D01*
X6993870Y3203480D01*
X7061600D01*
G01X6960000Y3243900D02*
X7061600Y3288360D01*
G01Y3243900D02*
X6960000Y3288360D01*
G01Y3327720D02*
X7061600Y3372180D01*
G01Y3327720D02*
X6960000Y3372180D01*
G01Y3411540D02*
X7061600Y3456000D01*
G01Y3411540D02*
X6960000Y3456000D01*
G01X7140000Y2488470D02*
X7241600D01*
Y2509630D01*
X7236520Y2518100D01*
X7229750Y2524450D01*
X7219590Y2529740D01*
X7207730Y2533980D01*
X7190800Y2535030D01*
X7173870Y2533980D01*
X7162010Y2529740D01*
X7151850Y2524450D01*
X7145080Y2518100D01*
X7140000Y2509630D01*
Y2488470D01*
G01Y2569110D02*
X7241600Y2595570D01*
X7140000Y2622030D01*
G01X7175560Y2612500D02*
Y2578640D01*
G01X7241600Y2679390D02*
X7140000D01*
G01X7241600Y2655050D02*
Y2703730D01*
G01X7140000Y2784380D02*
Y2742040D01*
X7241600D01*
Y2784380D01*
G01X7192490Y2767440D02*
Y2742040D01*
G01X7136610Y2847030D02*
X7138310Y2844910D01*
X7141690D01*
X7143390Y2847030D01*
X7141690Y2849150D01*
X7138310D01*
X7136610Y2847030D01*
G01X7182330D02*
X7184030Y2844910D01*
X7187410D01*
X7189110Y2847030D01*
X7187410Y2849150D01*
X7184030D01*
X7182330Y2847030D01*
G01X7224670Y2910740D02*
X7234830Y2917090D01*
X7239910Y2924500D01*
X7241600Y2932970D01*
X7238210Y2943550D01*
X7229750Y2950960D01*
X7219590Y2953080D01*
X7209420Y2952020D01*
X7200960Y2947780D01*
X7184030Y2926620D01*
X7172170Y2917090D01*
X7155240Y2910740D01*
X7140000Y2908620D01*
Y2953080D01*
G01X7241600Y3014670D02*
X7238210Y3006200D01*
X7229750Y2999850D01*
X7219590Y2995620D01*
X7206040Y2992440D01*
X7190800Y2991390D01*
X7175560Y2992440D01*
X7162010Y2995620D01*
X7151850Y2999850D01*
X7143390Y3006200D01*
X7140000Y3014670D01*
X7143390Y3023140D01*
X7151850Y3029490D01*
X7162010Y3033720D01*
X7175560Y3036900D01*
X7190800Y3037950D01*
X7206040Y3036900D01*
X7219590Y3033720D01*
X7229750Y3029490D01*
X7238210Y3023140D01*
X7241600Y3014670D01*
G01X7140000Y3098490D02*
X7241600D01*
X7221280Y3085790D01*
G01X7140000D02*
Y3111190D01*
G01X7182330Y3162200D02*
X7194190Y3169610D01*
X7200960Y3175960D01*
X7204350Y3184430D01*
X7200960Y3191840D01*
X7194190Y3197130D01*
X7184030Y3201360D01*
X7172170Y3202420D01*
X7162010Y3201360D01*
X7151850Y3197130D01*
X7143390Y3190780D01*
X7140000Y3183370D01*
X7143390Y3174900D01*
X7153540Y3167490D01*
X7168790Y3163260D01*
X7185720Y3162200D01*
X7207730Y3164320D01*
X7219590Y3167490D01*
X7231440Y3172780D01*
X7239910Y3180190D01*
X7241600Y3187600D01*
X7238210Y3195010D01*
X7229750Y3200300D01*
G01X7106130Y3234380D02*
Y3297880D01*
G01X7140000Y3349950D02*
X7241600D01*
X7221280Y3337250D01*
G01X7140000D02*
Y3362650D01*
G01Y3433770D02*
X7241600D01*
X7221280Y3421070D01*
G01X7140000D02*
Y3446470D01*
G01X7106130Y3485840D02*
Y3549340D01*
G01X7224670Y3581300D02*
X7234830Y3587650D01*
X7239910Y3595060D01*
X7241600Y3603530D01*
X7238210Y3614110D01*
X7229750Y3621520D01*
X7219590Y3623640D01*
X7209420Y3622580D01*
X7200960Y3618340D01*
X7184030Y3597180D01*
X7172170Y3587650D01*
X7155240Y3581300D01*
X7140000Y3579180D01*
Y3623640D01*
G01X7224670Y3665120D02*
X7234830Y3671470D01*
X7239910Y3678880D01*
X7241600Y3687350D01*
X7238210Y3697930D01*
X7229750Y3705340D01*
X7219590Y3707460D01*
X7209420Y3706400D01*
X7200960Y3702160D01*
X7184030Y3681000D01*
X7172170Y3671470D01*
X7155240Y3665120D01*
X7140000Y3663000D01*
Y3707460D01*
G01X7350000Y1877410D02*
X7451600D01*
X7350000Y1926090D01*
X7451600D01*
G01X7350000Y1959110D02*
X7451600Y1985570D01*
X7350000Y2012030D01*
G01X7385560Y2002500D02*
Y1968640D01*
G01X7350000Y2041870D02*
X7451600D01*
X7366930Y2069390D01*
X7451600Y2096910D01*
X7350000D01*
G01Y2174380D02*
Y2132040D01*
X7451600D01*
Y2174380D01*
G01X7402490Y2157440D02*
Y2132040D01*
G01X7346610Y2237030D02*
X7348310Y2234910D01*
X7351690D01*
X7353390Y2237030D01*
X7351690Y2239150D01*
X7348310D01*
X7346610Y2237030D01*
G01X7392330D02*
X7394030Y2234910D01*
X7397410D01*
X7399110Y2237030D01*
X7397410Y2239150D01*
X7394030D01*
X7392330Y2237030D01*
G01X7443130Y2344130D02*
X7448210Y2337780D01*
X7451600Y2330380D01*
Y2321910D01*
X7446520Y2312380D01*
X7438050Y2304980D01*
X7427890Y2299680D01*
X7410960Y2295450D01*
X7395720Y2294390D01*
X7380480Y2296510D01*
X7370320Y2299680D01*
X7360160Y2306030D01*
X7353390Y2313440D01*
X7350000Y2320850D01*
Y2328260D01*
X7353390Y2335670D01*
X7358460Y2342020D01*
X7365240Y2347310D01*
G01X7451600Y2381390D02*
X7378790D01*
X7363540Y2385620D01*
X7353390Y2394090D01*
X7350000Y2404670D01*
X7353390Y2415250D01*
X7363540Y2423720D01*
X7378790Y2427950D01*
X7451600D01*
G01Y2475790D02*
Y2501190D01*
G01Y2488490D02*
X7350000D01*
G01Y2475790D02*
Y2501190D01*
G01X7451600Y2572310D02*
X7350000D01*
G01X7451600Y2547970D02*
Y2596650D01*
G01X7404190Y2664600D02*
X7409270Y2668830D01*
X7417730Y2672000D01*
X7429590Y2674120D01*
X7439750Y2672000D01*
X7446520Y2667770D01*
X7451600Y2660360D01*
Y2631790D01*
X7350000D01*
Y2666710D01*
X7356770Y2674120D01*
X7366930Y2678360D01*
X7378790Y2680470D01*
X7390640Y2678360D01*
X7400800Y2672000D01*
X7404190Y2664600D01*
Y2631790D01*
G01X7451600Y2727250D02*
Y2752650D01*
G01Y2739950D02*
X7350000D01*
G01Y2727250D02*
Y2752650D01*
G01Y2800490D02*
X7451600D01*
G01Y2840700D02*
X7388940Y2800490D01*
G01X7350000Y2847050D02*
X7417730Y2818480D01*
G01X7350000Y2928760D02*
Y2886420D01*
X7451600D01*
Y2928760D01*
G01X7402490Y2911820D02*
Y2886420D01*
G01X7316130Y2959660D02*
Y3023160D01*
G01X7451600Y3048770D02*
X7350000Y3075230D01*
X7451600Y3101690D01*
G01X7350000Y3159050D02*
X7451600D01*
X7431280Y3146350D01*
G01X7350000D02*
Y3171750D01*
G01X7346610Y3242870D02*
X7348310Y3240750D01*
X7351690D01*
X7353390Y3242870D01*
X7351690Y3244990D01*
X7348310D01*
X7346610Y3242870D01*
G01X7434670Y3306580D02*
X7444830Y3312930D01*
X7449910Y3320340D01*
X7451600Y3328810D01*
X7448210Y3339390D01*
X7439750Y3346800D01*
X7429590Y3348920D01*
X7419420Y3347860D01*
X7410960Y3343620D01*
X7394030Y3322460D01*
X7382170Y3312930D01*
X7365240Y3306580D01*
X7350000Y3304460D01*
Y3348920D01*
G01X7316130Y3378760D02*
Y3442260D01*
G01X7350000Y3466810D02*
X7451600D01*
X7366930Y3494330D01*
X7451600Y3521850D01*
X7350000D01*
G01X7363540Y3555920D02*
X7355080Y3564390D01*
X7350000Y3573920D01*
Y3582380D01*
X7355080Y3590850D01*
X7363540Y3597200D01*
X7375400Y3600380D01*
X7387250Y3598260D01*
X7397410Y3592970D01*
X7404190Y3583440D01*
X7407570Y3570740D01*
X7414350Y3563330D01*
X7426200Y3560160D01*
X7438050Y3562280D01*
X7446520Y3567570D01*
X7451600Y3574970D01*
Y3582380D01*
X7448210Y3589790D01*
X7439750Y3596140D01*
G01X7350000Y3640800D02*
X7451600D01*
Y3666200D01*
X7446520Y3674670D01*
X7434670Y3681020D01*
X7421120Y3683140D01*
X7407570Y3681020D01*
X7397410Y3675730D01*
X7392330Y3666200D01*
Y3640800D01*
G01X7350000Y3758490D02*
X7451600D01*
X7378790Y3719330D01*
Y3772250D01*
G01X7370320Y3806330D02*
X7358460Y3812680D01*
X7351690Y3821140D01*
X7350000Y3830670D01*
X7351690Y3839140D01*
X7360160Y3847600D01*
X7370320Y3852890D01*
X7380480Y3853950D01*
X7392330Y3851840D01*
X7400800Y3844430D01*
X7404190Y3837020D01*
Y3827490D01*
G01Y3837020D02*
X7409270Y3843370D01*
X7417730Y3848660D01*
X7427890Y3850780D01*
X7438050Y3848660D01*
X7446520Y3843370D01*
X7451600Y3833840D01*
X7449910Y3824320D01*
X7443130Y3814790D01*
G01X7451600Y3913430D02*
X7448210Y3904960D01*
X7439750Y3898610D01*
X7429590Y3894380D01*
X7416040Y3891200D01*
X7400800Y3890150D01*
X7385560Y3891200D01*
X7372010Y3894380D01*
X7361850Y3898610D01*
X7353390Y3904960D01*
X7350000Y3913430D01*
X7353390Y3921900D01*
X7361850Y3928250D01*
X7372010Y3932480D01*
X7385560Y3935660D01*
X7400800Y3936710D01*
X7416040Y3935660D01*
X7429590Y3932480D01*
X7439750Y3928250D01*
X7448210Y3921900D01*
X7451600Y3913430D01*
G01X7346610Y3997250D02*
X7348310Y3995130D01*
X7351690D01*
X7353390Y3997250D01*
X7351690Y3999370D01*
X7348310D01*
X7346610Y3997250D01*
G01X7404190Y4089540D02*
X7409270Y4093770D01*
X7417730Y4096940D01*
X7429590Y4099060D01*
X7439750Y4096940D01*
X7446520Y4092710D01*
X7451600Y4085300D01*
Y4056730D01*
X7350000D01*
Y4091650D01*
X7356770Y4099060D01*
X7366930Y4103300D01*
X7378790Y4105410D01*
X7390640Y4103300D01*
X7400800Y4096940D01*
X7404190Y4089540D01*
Y4056730D01*
G01X7350000Y4143720D02*
X7451600D01*
Y4170180D01*
X7446520Y4178650D01*
X7439750Y4183940D01*
X7426200Y4186060D01*
X7412650Y4183940D01*
X7404190Y4177590D01*
X7399110Y4170180D01*
Y4143720D01*
G01Y4170180D02*
X7350000Y4186060D01*
G01Y4225430D02*
X7451600D01*
Y4246590D01*
X7446520Y4255060D01*
X7439750Y4261410D01*
X7429590Y4266700D01*
X7417730Y4270940D01*
X7400800Y4271990D01*
X7383870Y4270940D01*
X7372010Y4266700D01*
X7361850Y4261410D01*
X7355080Y4255060D01*
X7350000Y4246590D01*
Y4225430D01*
G54D11*
G01X478000Y2848000D02*
G03I-30000J0D01*
G01Y3248000D02*
G03I-30000J0D01*
G54D12*
G01X6560020Y1012420D02*
Y1022580D01*
G01X6557480Y1009880D02*
Y1111480D01*
G01X6554940Y1007340D02*
Y1111480D01*
G01X6552400Y1004800D02*
Y1108940D01*
G01X6549860Y1004800D02*
Y1032740D01*
G01X6547320Y1004800D02*
Y1017500D01*
G01X6544780Y1004800D02*
Y1009880D01*
G01X6587960Y1149580D02*
Y1157200D01*
G01X6585420Y1149580D02*
Y1159740D01*
G01X6582880Y1149580D02*
Y1159740D01*
G01X6580340Y1147040D02*
Y1157200D01*
G01Y1174980D02*
Y1187680D01*
G01X6577800Y1147040D02*
Y1157200D01*
G01Y1172440D02*
Y1238480D01*
G01X6575260Y1131800D02*
Y1238480D01*
G01X6572720Y1131800D02*
Y1180060D01*
G01Y1190220D02*
Y1200380D01*
G01X6570180Y1131800D02*
Y1169900D01*
G01Y1190220D02*
Y1197840D01*
G01X6567640Y1131800D02*
Y1134340D01*
G01Y1141960D02*
Y1152120D01*
G01Y1190220D02*
Y1197840D01*
G01X6565100Y1141960D02*
Y1149580D01*
G01Y1154660D02*
Y1159740D01*
G01Y1174980D02*
Y1177520D01*
G01Y1190220D02*
Y1200380D01*
G01X6562560Y1139420D02*
Y1149580D01*
G01Y1152120D02*
Y1159740D01*
G01Y1172440D02*
Y1228320D01*
G01X6560020Y1139420D02*
Y1147040D01*
G01Y1152120D02*
Y1159740D01*
G01Y1172440D02*
Y1230860D01*
G01X6557480Y1136880D02*
Y1147040D01*
G01Y1152120D02*
Y1159740D01*
G01Y1174980D02*
Y1185140D01*
G01Y1190220D02*
Y1230860D01*
G01X6554940Y1136880D02*
Y1162280D01*
G01Y1174980D02*
Y1182600D01*
G01Y1190220D02*
Y1197840D01*
G01X6552400Y1134340D02*
Y1172440D01*
G01Y1174980D02*
Y1182600D01*
G01Y1190220D02*
Y1197840D01*
G01X6549860Y1047980D02*
Y1106400D01*
G01Y1134340D02*
Y1172440D01*
G01Y1174980D02*
Y1182600D01*
G01Y1190220D02*
Y1197840D01*
G01X6547320Y1073380D02*
Y1106400D01*
G01Y1134340D02*
Y1141960D01*
G01Y1152120D02*
Y1162280D01*
G01Y1174980D02*
Y1182600D01*
G01Y1187680D02*
Y1197840D01*
G01X6544780Y1088620D02*
Y1103860D01*
G01Y1152120D02*
Y1159740D01*
G01Y1174980D02*
Y1182600D01*
G01Y1187680D02*
Y1215620D01*
G01X6542240Y1096240D02*
Y1098780D01*
G01Y1152120D02*
Y1159740D01*
G01Y1174980D02*
Y1182600D01*
G01Y1185140D02*
Y1192760D01*
G01X6539700Y1149580D02*
Y1164820D01*
G01Y1174980D02*
Y1190220D01*
G01X6537160Y1131800D02*
Y1169900D01*
G01Y1174980D02*
Y1187680D01*
G01X6534620Y1129260D02*
Y1164820D01*
G01Y1174980D02*
Y1182600D01*
G01X6532080Y1126720D02*
Y1139420D01*
G01Y1152120D02*
Y1159740D01*
G01Y1172440D02*
Y1182600D01*
G01X6529540Y1152120D02*
Y1159740D01*
G01Y1172440D02*
Y1180060D01*
G01X6527000Y1152120D02*
Y1159740D01*
G01Y1169900D02*
Y1180060D01*
G01X6524460Y1152120D02*
Y1159740D01*
G01Y1167360D02*
Y1180060D01*
G01X6521920Y1152120D02*
Y1159740D01*
G01Y1164820D02*
Y1177520D01*
G01X6519380Y1152120D02*
Y1159740D01*
G01Y1164820D02*
Y1172440D01*
G01X6516840Y1152120D02*
Y1159740D01*
G01X6587960Y1312140D02*
Y1319760D01*
G01X6585420Y1312140D02*
Y1322300D01*
G01X6582880Y1309600D02*
Y1322300D01*
G01X6580340Y1195300D02*
Y1230860D01*
G01Y1309600D02*
Y1322300D01*
G01X6577800Y1279120D02*
Y1355320D01*
G01X6575260Y1276580D02*
Y1355320D01*
G01X6572720Y1205460D02*
Y1215620D01*
G01Y1218160D02*
Y1235940D01*
G01Y1276580D02*
Y1291820D01*
G01Y1304520D02*
Y1317220D01*
G01X6570180Y1205460D02*
Y1213080D01*
G01Y1228320D02*
Y1230860D01*
G01Y1304520D02*
Y1314680D01*
G01X6567640Y1205460D02*
Y1213080D01*
G01Y1301980D02*
Y1309600D01*
G01Y1312140D02*
Y1322300D01*
G01X6565100Y1205460D02*
Y1215620D01*
G01Y1223240D02*
Y1225780D01*
G01Y1299440D02*
Y1307060D01*
G01Y1312140D02*
Y1324840D01*
G01X6562560Y1296900D02*
Y1304520D01*
G01Y1312140D02*
Y1324840D01*
G01X6560020Y1291820D02*
Y1301980D01*
G01Y1312140D02*
Y1324840D01*
G01X6557480Y1289280D02*
Y1299440D01*
G01Y1312140D02*
Y1324840D01*
G01X6554940Y1205460D02*
Y1213080D01*
G01Y1220700D02*
Y1230860D01*
G01Y1286740D02*
Y1301980D01*
G01Y1312140D02*
Y1335000D01*
G01X6552400Y1205460D02*
Y1213080D01*
G01Y1220700D02*
Y1230860D01*
G01Y1286740D02*
Y1350240D01*
G01X6549860Y1205460D02*
Y1213080D01*
G01Y1220700D02*
Y1230860D01*
G01Y1286740D02*
Y1350240D01*
G01X6547320Y1202920D02*
Y1213080D01*
G01Y1220700D02*
Y1230860D01*
G01Y1289280D02*
Y1299440D01*
G01Y1312140D02*
Y1324840D01*
G01X6544780Y1220700D02*
Y1230860D01*
G01Y1312140D02*
Y1324840D01*
G01X6542240Y1197840D02*
Y1218160D01*
G01Y1220700D02*
Y1230860D01*
G01Y1268960D02*
Y1274040D01*
G01Y1312140D02*
Y1324840D01*
G01X6539700Y1200380D02*
Y1208000D01*
G01Y1213080D02*
Y1230860D01*
G01Y1266420D02*
Y1373100D01*
G01X6537160Y1197840D02*
Y1205460D01*
G01Y1215620D02*
Y1230860D01*
G01Y1263880D02*
Y1373100D01*
G01X6534620Y1195300D02*
Y1205460D01*
G01Y1220700D02*
Y1230860D01*
G01Y1261340D02*
Y1370560D01*
G01X6532080Y1195300D02*
Y1202920D01*
G01Y1220700D02*
Y1230860D01*
G01Y1261340D02*
Y1281660D01*
G01Y1284200D02*
Y1286740D01*
G01Y1312140D02*
Y1324840D01*
G01Y1340080D02*
Y1368020D01*
G01X6529540Y1192760D02*
Y1197840D01*
G01Y1220700D02*
Y1230860D01*
G01Y1261340D02*
Y1268960D01*
G01Y1312140D02*
Y1324840D01*
G01Y1352780D02*
Y1365480D01*
G01X6527000Y1220700D02*
Y1230860D01*
G01Y1312140D02*
Y1324840D01*
G01X6524460Y1220700D02*
Y1230860D01*
G01Y1312140D02*
Y1324840D01*
G01X6521920Y1220700D02*
Y1230860D01*
G01Y1312140D02*
Y1324840D01*
G01X6519380Y1220700D02*
Y1230860D01*
G01Y1312140D02*
Y1324840D01*
G01X6516840Y1220700D02*
Y1228320D01*
G01Y1312140D02*
Y1324840D01*
G01X6560020Y1507720D02*
Y1517880D01*
G01X6557480Y1505180D02*
Y1606780D01*
G01X6554940Y1502640D02*
Y1606780D01*
G01X6552400Y1500100D02*
Y1604240D01*
G01X6549860Y1500100D02*
Y1528040D01*
G01X6547320Y1500100D02*
Y1512800D01*
G01X6544780Y1500100D02*
Y1507720D01*
G01X6587960Y1675360D02*
Y1682980D01*
G01X6585420Y1672820D02*
Y1685520D01*
G01X6582880Y1670280D02*
Y1682980D01*
G01X6580340Y1665200D02*
Y1682980D01*
G01X6577800Y1662660D02*
Y1688060D01*
G01X6575260Y1660120D02*
Y1695680D01*
G01X6572720Y1655040D02*
Y1675360D01*
G01Y1680440D02*
Y1703300D01*
G01X6570180Y1649960D02*
Y1672820D01*
G01Y1685520D02*
Y1710920D01*
G01X6567640Y1647420D02*
Y1667740D01*
G01Y1690600D02*
Y1718540D01*
G01X6565100Y1639800D02*
Y1662660D01*
G01Y1672820D02*
Y1682980D01*
G01Y1695680D02*
Y1726160D01*
G01X6562560Y1627100D02*
Y1660120D01*
G01Y1670280D02*
Y1682980D01*
G01Y1698220D02*
Y1736320D01*
G01X6560020Y1624560D02*
Y1655040D01*
G01Y1670280D02*
Y1685520D01*
G01X6557480Y1624560D02*
Y1649960D01*
G01Y1670280D02*
Y1685520D01*
G01X6554940Y1629640D02*
Y1644880D01*
G01Y1670280D02*
Y1682980D01*
G01X6552400Y1632180D02*
Y1637260D01*
G01Y1670280D02*
Y1682980D01*
G01X6549860Y1545820D02*
Y1601700D01*
G01Y1670280D02*
Y1682980D01*
G01X6547320Y1568680D02*
Y1601700D01*
G01Y1670280D02*
Y1685520D01*
G01X6544780Y1583920D02*
Y1599160D01*
G01Y1670280D02*
Y1685520D01*
G01X6542240Y1670280D02*
Y1685520D01*
G01X6539700Y1672820D02*
Y1685520D01*
G01X6537160Y1672820D02*
Y1685520D01*
G01X6534620Y1672820D02*
Y1685520D01*
G01X6532080Y1672820D02*
Y1685520D01*
G01X6529540Y1672820D02*
Y1685520D01*
G01X6527000Y1672820D02*
Y1685520D01*
G01X6524460Y1672820D02*
Y1685520D01*
G01X6521920Y1670280D02*
Y1685520D01*
G01X6519380Y1670280D02*
Y1685520D01*
G01X6516840Y1670280D02*
Y1682980D01*
G01X6514300Y1672820D02*
Y1682980D01*
G01X6587960Y1830300D02*
Y1832840D01*
G01X6585420Y1802360D02*
Y1809980D01*
G01Y1827760D02*
Y1837920D01*
G01X6582880Y1802360D02*
Y1812520D01*
G01Y1825220D02*
Y1837920D01*
G01X6580340Y1779500D02*
Y1787120D01*
G01Y1802360D02*
Y1812520D01*
G01Y1825220D02*
Y1837920D01*
G01X6577800Y1779500D02*
Y1789660D01*
G01Y1802360D02*
Y1812520D01*
G01Y1827760D02*
Y1837920D01*
G01X6575260Y1779500D02*
Y1789660D01*
G01Y1802360D02*
Y1812520D01*
G01Y1827760D02*
Y1837920D01*
G01X6572720Y1779500D02*
Y1789660D01*
G01Y1802360D02*
Y1812520D01*
G01Y1827760D02*
Y1837920D01*
G01X6570180Y1779500D02*
Y1789660D01*
G01Y1802360D02*
Y1812520D01*
G01Y1827760D02*
Y1837920D01*
G01X6567640Y1779500D02*
Y1789660D01*
G01Y1802360D02*
Y1812520D01*
G01Y1827760D02*
Y1837920D01*
G01X6565100Y1761720D02*
Y1863320D01*
G01X6562560Y1759180D02*
Y1870940D01*
G01X6560020Y1703300D02*
Y1736320D01*
G01Y1759180D02*
Y1870940D01*
G01X6557480Y1708380D02*
Y1733780D01*
G01Y1756640D02*
Y1789660D01*
G01Y1802360D02*
Y1812520D01*
G01Y1825220D02*
Y1868400D01*
G01X6554940Y1710920D02*
Y1733780D01*
G01Y1759180D02*
Y1764260D01*
G01Y1779500D02*
Y1789660D01*
G01Y1802360D02*
Y1812520D01*
G01Y1827760D02*
Y1837920D01*
G01Y1848080D02*
Y1865860D01*
G01X6552400Y1716000D02*
Y1731240D01*
G01Y1779500D02*
Y1789660D01*
G01Y1802360D02*
Y1812520D01*
G01Y1827760D02*
Y1837920D01*
G01Y1855700D02*
Y1860780D01*
G01X6549860Y1718540D02*
Y1726160D01*
G01Y1779500D02*
Y1789660D01*
G01Y1802360D02*
Y1812520D01*
G01Y1827760D02*
Y1837920D01*
G01X6547320Y1782040D02*
Y1789660D01*
G01Y1802360D02*
Y1812520D01*
G01Y1825220D02*
Y1837920D01*
G01X6544780Y1782040D02*
Y1789660D01*
G01Y1802360D02*
Y1817600D01*
G01Y1820140D02*
Y1837920D01*
G01X6542240Y1782040D02*
Y1792200D01*
G01Y1804900D02*
Y1837920D01*
G01X6539700Y1782040D02*
Y1792200D01*
G01Y1804900D02*
Y1837920D01*
G01X6537160Y1782040D02*
Y1792200D01*
G01Y1804900D02*
Y1812520D01*
G01Y1827760D02*
Y1835380D01*
G01X6534620Y1782040D02*
Y1792200D01*
G01X6532080Y1782040D02*
Y1792200D01*
G01X6529540Y1782040D02*
Y1794740D01*
G01X6527000Y1779500D02*
Y1853160D01*
G01X6524460Y1779500D02*
Y1853160D01*
G01X6521920Y1779500D02*
Y1853160D01*
G01X6519380Y1782040D02*
Y1787120D01*
G01Y1802360D02*
Y1848080D01*
G01X6587960Y1911580D02*
Y1919200D01*
G01X6585420Y1909040D02*
Y1934440D01*
G01Y1939520D02*
Y1942060D01*
G01Y1944600D02*
Y1972540D01*
G01X6582880Y1909040D02*
Y1972540D01*
G01X6580340Y1909040D02*
Y1919200D01*
G01Y1936980D02*
Y1947140D01*
G01Y1962380D02*
Y1972540D01*
G01X6577800Y1909040D02*
Y1919200D01*
G01Y1936980D02*
Y1947140D01*
G01Y1962380D02*
Y1972540D01*
G01X6575260Y1909040D02*
Y1921740D01*
G01Y1931900D02*
Y1949680D01*
G01Y1959840D02*
Y1972540D01*
G01X6572720Y1909040D02*
Y1972540D01*
G01X6570180Y1911580D02*
Y1972540D01*
G01X6567640Y1911580D02*
Y1921740D01*
G01Y1936980D02*
Y1947140D01*
G01Y1962380D02*
Y1972540D01*
G01X6565100Y1911580D02*
Y1921740D01*
G01Y1936980D02*
Y1947140D01*
G01Y1962380D02*
Y1970000D01*
G01X6562560Y1911580D02*
Y1970000D01*
G01X6560020Y1911580D02*
Y1970000D01*
G01X6557480Y1914120D02*
Y1924280D01*
G01Y1929360D02*
Y1954760D01*
G01Y1959840D02*
Y1970000D01*
G01X6554940Y1926820D02*
Y1939520D01*
G01Y1947140D02*
Y1959840D01*
G01X6552400Y1921740D02*
Y1936980D01*
G01Y1949680D02*
Y1967460D01*
G01X6549860Y1916660D02*
Y1931900D01*
G01Y1957300D02*
Y1972540D01*
G01X6547320Y1906500D02*
Y1929360D01*
G01Y1959840D02*
Y1982700D01*
G01X6544780Y1888720D02*
Y1934440D01*
G01Y1952220D02*
Y1959840D01*
G01Y1964920D02*
Y1992860D01*
G01X6542240Y1886180D02*
Y1919200D01*
G01Y1926820D02*
Y1934440D01*
G01Y1949680D02*
Y1962380D01*
G01Y1970000D02*
Y1997940D01*
G01X6539700Y1886180D02*
Y1914120D01*
G01Y1924280D02*
Y1936980D01*
G01Y1949680D02*
Y1962380D01*
G01Y1972540D02*
Y1997940D01*
G01X6537160Y1888720D02*
Y1906500D01*
G01Y1924280D02*
Y1934440D01*
G01Y1949680D02*
Y1962380D01*
G01Y1977620D02*
Y1997940D01*
G01X6534620Y1924280D02*
Y1934440D01*
G01Y1949680D02*
Y1962380D01*
G01Y1980160D02*
Y1995400D01*
G01X6532080Y1924280D02*
Y1934440D01*
G01Y1952220D02*
Y1962380D01*
G01Y1985240D02*
Y1992860D01*
G01X6529540Y1921740D02*
Y1934440D01*
G01Y1952220D02*
Y1959840D01*
G01X6527000Y1919200D02*
Y1931900D01*
G01Y1949680D02*
Y1962380D01*
G01X6524460Y1916660D02*
Y1931900D01*
G01Y1949680D02*
Y1962380D01*
G01X6521920Y1903960D02*
Y1929360D01*
G01Y1949680D02*
Y1962380D01*
G01X6519380Y1903960D02*
Y1924280D01*
G01Y1949680D02*
Y1962380D01*
G01X6516840Y1911580D02*
Y1916660D01*
G01Y1949680D02*
Y1962380D01*
G01X6514300Y1952220D02*
Y1959840D01*
G01X6778460Y682220D02*
Y700000D01*
G01X6775920Y682220D02*
Y700000D01*
G01X6773380Y682220D02*
Y753340D01*
G01X6770840Y682220D02*
Y753340D01*
G01X6768300Y679680D02*
Y753340D01*
G01X6765760Y679680D02*
Y727940D01*
G01X6763220Y679680D02*
Y684760D01*
G01X6760680Y677140D02*
Y684760D01*
G01X6758140Y677140D02*
Y684760D01*
G01X6755600Y677140D02*
Y684760D01*
G01X6753060Y677140D02*
Y684760D01*
G01X6750520Y677140D02*
Y684760D01*
G01X6747980Y677140D02*
Y684760D01*
G01X6745440Y674600D02*
Y684760D01*
G01X6742900Y674600D02*
Y684760D01*
G01X6740360Y677140D02*
Y702540D01*
G01X6737820Y677140D02*
Y702540D01*
G01X6735280Y677140D02*
Y702540D01*
G01X6732740Y677140D02*
Y702540D01*
G01X6730200Y677140D02*
Y700000D01*
G01X6727660Y679680D02*
Y700000D01*
G01X6725120Y679680D02*
Y700000D01*
G01X6722580Y679680D02*
Y700000D01*
G01X6720040Y679680D02*
Y697460D01*
G01X6717500Y679680D02*
Y694920D01*
G01X6714960Y682220D02*
Y692380D01*
G01X6712420Y682220D02*
Y689840D01*
G01X6778460Y710160D02*
Y753340D01*
G01Y763500D02*
Y791440D01*
G01X6775920Y707620D02*
Y753340D01*
G01Y763500D02*
Y791440D01*
G01X6773380Y766040D02*
Y788900D01*
G01X6770840Y766040D02*
Y788900D01*
G01X6768300Y766040D02*
Y786360D01*
G01X6765760Y733020D02*
Y750800D01*
G01Y766040D02*
Y783820D01*
G01X6763220Y687300D02*
Y725400D01*
G01Y733020D02*
Y750800D01*
G01Y763500D02*
Y783820D01*
G01X6760680Y687300D02*
Y707620D01*
G01Y712700D02*
Y722860D01*
G01Y730480D02*
Y750800D01*
G01Y763500D02*
Y783820D01*
G01X6758140Y687300D02*
Y702540D01*
G01Y705080D02*
Y710160D01*
G01Y730480D02*
Y748260D01*
G01Y760960D02*
Y786360D01*
G01X6755600Y687300D02*
Y702540D01*
G01Y705080D02*
Y712700D01*
G01Y730480D02*
Y748260D01*
G01Y758420D02*
Y786360D01*
G01X6753060Y687300D02*
Y702540D01*
G01Y705080D02*
Y712700D01*
G01Y730480D02*
Y748260D01*
G01Y755880D02*
Y788900D01*
G01X6750520Y687300D02*
Y702540D01*
G01Y707620D02*
Y715240D01*
G01Y730480D02*
Y748260D01*
G01Y755880D02*
Y788900D01*
G01X6747980Y687300D02*
Y702540D01*
G01Y707620D02*
Y720320D01*
G01Y727940D02*
Y745720D01*
G01Y750800D02*
Y773660D01*
G01Y776200D02*
Y791440D01*
G01X6745440Y687300D02*
Y702540D01*
G01Y710160D02*
Y722860D01*
G01Y727940D02*
Y768580D01*
G01Y778740D02*
Y791440D01*
G01X6742900Y687300D02*
Y702540D01*
G01Y710160D02*
Y766040D01*
G01Y778740D02*
Y793980D01*
G01X6740360Y712700D02*
Y753340D01*
G01Y778740D02*
Y793980D01*
G01X6737820Y712700D02*
Y743180D01*
G01Y781280D02*
Y796520D01*
G01X6735280Y715240D02*
Y743180D01*
G01Y781280D02*
Y799060D01*
G01X6732740Y715240D02*
Y740640D01*
G01Y783820D02*
Y799060D01*
G01X6730200Y717780D02*
Y740640D01*
G01Y783820D02*
Y801600D01*
G01X6727660Y717780D02*
Y738100D01*
G01Y786360D02*
Y801600D01*
G01Y827000D02*
Y832080D01*
G01X6725120Y717780D02*
Y735560D01*
G01Y786360D02*
Y804140D01*
G01Y827000D02*
Y832080D01*
G01X6722580Y720320D02*
Y735560D01*
G01Y788900D02*
Y806680D01*
G01Y827000D02*
Y832080D01*
G01X6720040Y722860D02*
Y733020D01*
G01Y791440D02*
Y806680D01*
G01Y827000D02*
Y832080D01*
G01X6717500Y722860D02*
Y730480D01*
G01Y791440D02*
Y809220D01*
G01Y827000D02*
Y832080D01*
G01X6714960Y793980D02*
Y811760D01*
G01Y824460D02*
Y832080D01*
G01X6712420Y793980D02*
Y811760D01*
G01Y824460D02*
Y832080D01*
G01X6709880Y684760D02*
Y689840D01*
G01Y796520D02*
Y814300D01*
G01Y824460D02*
Y832080D01*
G01X6707340Y799060D02*
Y816840D01*
G01Y821920D02*
Y832080D01*
G01X6704800Y799060D02*
Y834620D01*
G01X6702260Y801600D02*
Y834620D01*
G01X6699720Y804140D02*
Y834620D01*
G01X6697180Y806680D02*
Y834620D01*
G01X6694640Y809220D02*
Y834620D01*
G01X6692100Y809220D02*
Y834620D01*
G01X6689560Y811760D02*
Y834620D01*
G01X6687020Y814300D02*
Y834620D01*
G01X6684480Y819380D02*
Y834620D01*
G01X6681940Y821920D02*
Y834620D01*
G01X6679400Y824460D02*
Y834620D01*
G01X6676860Y829540D02*
Y834620D01*
G01X6778460Y905740D02*
Y923520D01*
G01Y941300D02*
Y956540D01*
G01Y1004800D02*
Y1063220D01*
G01X6775920Y908280D02*
Y923520D01*
G01Y941300D02*
Y956540D01*
G01Y999720D02*
Y1065760D01*
G01X6773380Y908280D02*
Y918440D01*
G01Y941300D02*
Y956540D01*
G01Y989560D02*
Y1065760D01*
G01X6770840Y908280D02*
Y915900D01*
G01Y941300D02*
Y956540D01*
G01Y987020D02*
Y1063220D01*
G01X6768300Y941300D02*
Y956540D01*
G01Y984480D02*
Y1060680D01*
G01X6765760Y941300D02*
Y956540D01*
G01Y984480D02*
Y1042900D01*
G01X6763220Y941300D02*
Y956540D01*
G01Y984480D02*
Y1027660D01*
G01X6760680Y941300D02*
Y956540D01*
G01Y987020D02*
Y1022580D01*
G01X6758140Y941300D02*
Y956540D01*
G01Y989560D02*
Y1014960D01*
G01X6755600Y941300D02*
Y956540D01*
G01Y992100D02*
Y1012420D01*
G01X6753060Y941300D02*
Y956540D01*
G01Y997180D02*
Y1007340D01*
G01X6750520Y941300D02*
Y956540D01*
G01Y997180D02*
Y1002260D01*
G01X6747980Y941300D02*
Y956540D01*
G01Y997180D02*
Y1002260D01*
G01Y1020040D02*
Y1063220D01*
G01X6745440Y941300D02*
Y956540D01*
G01Y994640D02*
Y1002260D01*
G01Y1012420D02*
Y1065760D01*
G01X6742900Y941300D02*
Y956540D01*
G01Y994640D02*
Y1065760D01*
G01X6740360Y938760D02*
Y956540D01*
G01Y994640D02*
Y1065760D01*
G01X6737820Y938760D02*
Y956540D01*
G01Y994640D02*
Y1068300D01*
G01X6735280Y938760D02*
Y956540D01*
G01Y994640D02*
Y1037820D01*
G01X6732740Y938760D02*
Y956540D01*
G01Y994640D02*
Y1030200D01*
G01X6730200Y938760D02*
Y956540D01*
G01Y994640D02*
Y1025120D01*
G01X6727660Y938760D02*
Y956540D01*
G01Y997180D02*
Y1014960D01*
G01X6725120Y938760D02*
Y954000D01*
G01Y997180D02*
Y1014960D01*
G01X6722580Y936220D02*
Y954000D01*
G01Y997180D02*
Y1014960D01*
G01X6720040Y936220D02*
Y954000D01*
G01Y997180D02*
Y1014960D01*
G01X6717500Y936220D02*
Y954000D01*
G01Y999720D02*
Y1014960D01*
G01X6714960Y936220D02*
Y954000D01*
G01Y999720D02*
Y1014960D01*
G01X6712420Y936220D02*
Y954000D01*
G01Y999720D02*
Y1058140D01*
G01X6709880Y936220D02*
Y954000D01*
G01Y999720D02*
Y1058140D01*
G01X6707340Y936220D02*
Y954000D01*
G01Y999720D02*
Y1060680D01*
G01X6704800Y938760D02*
Y954000D01*
G01Y1002260D02*
Y1063220D01*
G01X6702260Y938760D02*
Y954000D01*
G01Y1002260D02*
Y1063220D01*
G01X6699720Y941300D02*
Y954000D01*
G01Y1002260D02*
Y1060680D01*
G01X6697180Y941300D02*
Y954000D01*
G01Y1004800D02*
Y1030200D01*
G01X6694640Y943840D02*
Y954000D01*
G01Y1004800D02*
Y1022580D01*
G01X6692100Y943840D02*
Y951460D01*
G01Y1007340D02*
Y1017500D01*
G01X6689560Y946380D02*
Y951460D01*
G01Y1009880D02*
Y1017500D01*
G01X6763220Y1032740D02*
Y1037820D01*
G01X6755600Y1040360D02*
Y1050520D01*
G01Y1187680D02*
Y1322300D01*
G01X6753060Y1037820D02*
Y1058140D01*
G01Y1180060D02*
Y1261340D01*
G01X6750520Y1027660D02*
Y1060680D01*
G01Y1174980D02*
Y1235940D01*
G01X6747980Y1162280D02*
Y1223240D01*
G01X6745440Y1159740D02*
Y1215620D01*
G01X6742900Y1159740D02*
Y1208000D01*
G01X6740360Y1159740D02*
Y1202920D01*
G01X6737820Y1159740D02*
Y1197840D01*
G01X6735280Y1042900D02*
Y1065760D01*
G01Y1162280D02*
Y1190220D01*
G01X6732740Y1042900D02*
Y1065760D01*
G01Y1162280D02*
Y1187680D01*
G01X6730200Y1042900D02*
Y1063220D01*
G01Y1167360D02*
Y1182600D01*
G01X6727660Y1042900D02*
Y1063220D01*
G01Y1174980D02*
Y1177520D01*
G01X6725120Y1042900D02*
Y1063220D01*
G01X6722580Y1040360D02*
Y1060680D01*
G01X6720040Y1037820D02*
Y1060680D01*
G01X6717500Y1035280D02*
Y1058140D01*
G01X6714960Y1032740D02*
Y1058140D01*
G01X6697180Y1042900D02*
Y1058140D01*
G01X6778460Y1205460D02*
Y1228320D01*
G01Y1233400D02*
Y1263880D01*
G01X6775920Y1208000D02*
Y1223240D01*
G01Y1230860D02*
Y1263880D01*
G01X6773380Y1213080D02*
Y1215620D01*
G01Y1228320D02*
Y1263880D01*
G01X6770840Y1223240D02*
Y1263880D01*
G01X6768300Y1220700D02*
Y1312140D01*
G01X6765760Y1215620D02*
Y1314680D01*
G01X6763220Y1210540D02*
Y1317220D01*
G01X6760680Y1202920D02*
Y1319760D01*
G01X6758140Y1195300D02*
Y1319760D01*
G01X6753060Y1279120D02*
Y1322300D01*
G01X6750520Y1241020D02*
Y1261340D01*
G01Y1294360D02*
Y1322300D01*
G01X6747980Y1243560D02*
Y1261340D01*
G01Y1301980D02*
Y1322300D01*
G01X6745440Y1241020D02*
Y1261340D01*
G01Y1307060D02*
Y1322300D01*
G01X6742900Y1241020D02*
Y1261340D01*
G01X6740360Y1241020D02*
Y1261340D01*
G01X6737820Y1241020D02*
Y1261340D01*
G01X6735280Y1241020D02*
Y1261340D01*
G01X6732740Y1241020D02*
Y1261340D01*
G01X6730200Y1241020D02*
Y1261340D01*
G01X6727660Y1241020D02*
Y1261340D01*
G01X6725120Y1241020D02*
Y1261340D01*
G01X6722580Y1241020D02*
Y1261340D01*
G01X6720040Y1241020D02*
Y1258800D01*
G01X6717500Y1241020D02*
Y1258800D01*
G01X6714960Y1241020D02*
Y1258800D01*
G01X6712420Y1241020D02*
Y1258800D01*
G01X6709880Y1241020D02*
Y1258800D01*
G01X6707340Y1241020D02*
Y1258800D01*
G01X6704800Y1241020D02*
Y1258800D01*
G01X6702260Y1241020D02*
Y1258800D01*
G01X6699720Y1243560D02*
Y1256260D01*
G01X6697180Y1243560D02*
Y1256260D01*
G01X6694640Y1243560D02*
Y1256260D01*
G01X6692100Y1243560D02*
Y1256260D01*
G01X6689560Y1243560D02*
Y1256260D01*
G01X6687020Y1243560D02*
Y1253720D01*
G01X6684480Y1243560D02*
Y1253720D01*
G01X6681940Y1243560D02*
Y1253720D01*
G01X6679400Y1246100D02*
Y1253720D01*
G01X6676860Y1246100D02*
Y1251180D01*
G01X6674320Y1246100D02*
Y1251180D01*
G01X6671780Y1246100D02*
Y1251180D01*
G01X6778460Y1395960D02*
Y1444220D01*
G01Y1462000D02*
Y1528040D01*
G01X6775920Y1395960D02*
Y1444220D01*
G01Y1459460D02*
Y1482320D01*
G01Y1500100D02*
Y1530580D01*
G01X6773380Y1395960D02*
Y1411200D01*
G01Y1416280D02*
Y1444220D01*
G01Y1459460D02*
Y1479780D01*
G01Y1505180D02*
Y1535660D01*
G01X6770840Y1395960D02*
Y1411200D01*
G01Y1418820D02*
Y1444220D01*
G01Y1456920D02*
Y1479780D01*
G01Y1510260D02*
Y1538200D01*
G01X6768300Y1395960D02*
Y1411200D01*
G01Y1421360D02*
Y1441680D01*
G01Y1454380D02*
Y1477240D01*
G01Y1512800D02*
Y1540740D01*
G01X6765760Y1395960D02*
Y1411200D01*
G01Y1421360D02*
Y1439140D01*
G01Y1454380D02*
Y1477240D01*
G01Y1512800D02*
Y1545820D01*
G01X6763220Y1395960D02*
Y1411200D01*
G01Y1423900D02*
Y1439140D01*
G01Y1451840D02*
Y1474700D01*
G01Y1515340D02*
Y1548360D01*
G01X6760680Y1395960D02*
Y1411200D01*
G01Y1423900D02*
Y1436600D01*
G01Y1451840D02*
Y1474700D01*
G01Y1517880D02*
Y1553440D01*
G01X6758140Y1395960D02*
Y1411200D01*
G01Y1421360D02*
Y1434060D01*
G01Y1449300D02*
Y1472160D01*
G01Y1520420D02*
Y1558520D01*
G01X6755600Y1395960D02*
Y1411200D01*
G01Y1421360D02*
Y1431520D01*
G01Y1449300D02*
Y1469620D01*
G01Y1520420D02*
Y1563600D01*
G01X6753060Y1395960D02*
Y1411200D01*
G01Y1418820D02*
Y1428980D01*
G01Y1446760D02*
Y1467080D01*
G01Y1522960D02*
Y1568680D01*
G01X6750520Y1393420D02*
Y1408660D01*
G01Y1418820D02*
Y1428980D01*
G01Y1444220D02*
Y1467080D01*
G01Y1525500D02*
Y1573760D01*
G01X6747980Y1393420D02*
Y1408660D01*
G01Y1416280D02*
Y1426440D01*
G01Y1441680D02*
Y1464540D01*
G01Y1528040D02*
Y1578840D01*
G01X6745440Y1393420D02*
Y1408660D01*
G01Y1416280D02*
Y1426440D01*
G01Y1441680D02*
Y1462000D01*
G01X6742900Y1395960D02*
Y1408660D01*
G01Y1413740D02*
Y1423900D01*
G01Y1439140D02*
Y1456920D01*
G01X6740360Y1395960D02*
Y1408660D01*
G01Y1413740D02*
Y1423900D01*
G01Y1436600D02*
Y1454380D01*
G01X6737820Y1395960D02*
Y1408660D01*
G01Y1411200D02*
Y1423900D01*
G01Y1431520D02*
Y1449300D01*
G01X6735280Y1395960D02*
Y1421360D01*
G01Y1428980D02*
Y1446760D01*
G01X6732740Y1395960D02*
Y1421360D01*
G01Y1428980D02*
Y1441680D01*
G01X6730200Y1395960D02*
Y1421360D01*
G01X6727660Y1395960D02*
Y1421360D01*
G01X6725120Y1395960D02*
Y1421360D01*
G01X6722580Y1395960D02*
Y1421360D01*
G01X6720040Y1395960D02*
Y1418820D01*
G01X6717500Y1395960D02*
Y1418820D01*
G01X6714960Y1395960D02*
Y1418820D01*
G01X6712420Y1398500D02*
Y1418820D01*
G01X6709880Y1398500D02*
Y1418820D01*
G01X6707340Y1398500D02*
Y1418820D01*
G01X6704800Y1401040D02*
Y1418820D01*
G01X6702260Y1401040D02*
Y1418820D01*
G01X6699720Y1403580D02*
Y1418820D01*
G01X6697180Y1406120D02*
Y1418820D01*
G01X6694640Y1406120D02*
Y1418820D01*
G01X6692100Y1408660D02*
Y1418820D01*
G01X6689560Y1413740D02*
Y1418820D01*
G01X6778460Y1660120D02*
Y1677900D01*
G01X6775920Y1660120D02*
Y1675360D01*
G01X6773380Y1660120D02*
Y1675360D01*
G01Y1698220D02*
Y1718540D01*
G01X6770840Y1657580D02*
Y1675360D01*
G01Y1698220D02*
Y1718540D01*
G01X6768300Y1657580D02*
Y1672820D01*
G01Y1695680D02*
Y1716000D01*
G01X6765760Y1657580D02*
Y1672820D01*
G01Y1695680D02*
Y1716000D01*
G01X6763220Y1655040D02*
Y1672820D01*
G01Y1695680D02*
Y1716000D01*
G01X6760680Y1655040D02*
Y1672820D01*
G01Y1695680D02*
Y1716000D01*
G01X6758140Y1655040D02*
Y1672820D01*
G01Y1695680D02*
Y1716000D01*
G01X6755600Y1655040D02*
Y1672820D01*
G01Y1695680D02*
Y1716000D01*
G01X6753060Y1655040D02*
Y1672820D01*
G01Y1695680D02*
Y1716000D01*
G01X6750520Y1655040D02*
Y1672820D01*
G01Y1695680D02*
Y1716000D01*
G01X6747980Y1655040D02*
Y1672820D01*
G01Y1695680D02*
Y1716000D01*
G01X6745440Y1530580D02*
Y1586460D01*
G01Y1655040D02*
Y1672820D01*
G01Y1698220D02*
Y1718540D01*
G01X6742900Y1533120D02*
Y1594080D01*
G01Y1655040D02*
Y1672820D01*
G01Y1698220D02*
Y1718540D01*
G01X6740360Y1533120D02*
Y1596620D01*
G01Y1655040D02*
Y1672820D01*
G01X6737820Y1535660D02*
Y1599160D01*
G01Y1655040D02*
Y1672820D01*
G01X6735280Y1538200D02*
Y1601700D01*
G01Y1655040D02*
Y1672820D01*
G01X6732740Y1540740D02*
Y1601700D01*
G01Y1657580D02*
Y1672820D01*
G01X6730200Y1543280D02*
Y1604240D01*
G01Y1657580D02*
Y1672820D01*
G01X6727660Y1545820D02*
Y1601700D01*
G01Y1657580D02*
Y1672820D01*
G01X6725120Y1548360D02*
Y1601700D01*
G01Y1660120D02*
Y1675360D01*
G01X6722580Y1550900D02*
Y1596620D01*
G01Y1660120D02*
Y1675360D01*
G01X6720040Y1555980D02*
Y1586460D01*
G01Y1660120D02*
Y1675360D01*
G01X6717500Y1558520D02*
Y1563600D01*
G01Y1662660D02*
Y1677900D01*
G01X6714960Y1662660D02*
Y1677900D01*
G01X6712420Y1665200D02*
Y1677900D01*
G01X6709880Y1665200D02*
Y1680440D01*
G01X6707340Y1667740D02*
Y1680440D01*
G01X6704800Y1675360D02*
Y1677900D01*
G01X6778460Y1700760D02*
Y1759180D01*
G01Y1779500D02*
Y1797280D01*
G01Y1820140D02*
Y1840460D01*
G01Y1860780D02*
Y1881100D01*
G01X6775920Y1700760D02*
Y1723620D01*
G01Y1736320D02*
Y1759180D01*
G01Y1779500D02*
Y1797280D01*
G01Y1820140D02*
Y1840460D01*
G01Y1860780D02*
Y1881100D01*
G01X6773380Y1738860D02*
Y1761720D01*
G01Y1779500D02*
Y1797280D01*
G01Y1820140D02*
Y1840460D01*
G01Y1860780D02*
Y1881100D01*
G01X6770840Y1741400D02*
Y1756640D01*
G01Y1779500D02*
Y1797280D01*
G01Y1820140D02*
Y1840460D01*
G01Y1860780D02*
Y1881100D01*
G01X6768300Y1779500D02*
Y1797280D01*
G01Y1820140D02*
Y1840460D01*
G01Y1860780D02*
Y1881100D01*
G01X6765760Y1779500D02*
Y1797280D01*
G01Y1820140D02*
Y1840460D01*
G01Y1860780D02*
Y1881100D01*
G01X6763220Y1779500D02*
Y1797280D01*
G01Y1820140D02*
Y1840460D01*
G01Y1860780D02*
Y1881100D01*
G01X6760680Y1779500D02*
Y1797280D01*
G01Y1820140D02*
Y1840460D01*
G01Y1860780D02*
Y1881100D01*
G01X6758140Y1779500D02*
Y1797280D01*
G01Y1820140D02*
Y1840460D01*
G01Y1860780D02*
Y1881100D01*
G01X6755600Y1779500D02*
Y1797280D01*
G01Y1820140D02*
Y1840460D01*
G01Y1860780D02*
Y1881100D01*
G01X6753060Y1741400D02*
Y1746480D01*
G01Y1779500D02*
Y1797280D01*
G01Y1820140D02*
Y1840460D01*
G01Y1860780D02*
Y1881100D01*
G01X6750520Y1741400D02*
Y1751560D01*
G01Y1779500D02*
Y1797280D01*
G01Y1820140D02*
Y1840460D01*
G01Y1860780D02*
Y1881100D01*
G01X6747980Y1741400D02*
Y1761720D01*
G01Y1779500D02*
Y1797280D01*
G01Y1820140D02*
Y1840460D01*
G01Y1860780D02*
Y1881100D01*
G01X6745440Y1738860D02*
Y1761720D01*
G01Y1779500D02*
Y1799820D01*
G01Y1817600D02*
Y1837920D01*
G01Y1860780D02*
Y1881100D01*
G01X6742900Y1736320D02*
Y1759180D01*
G01Y1779500D02*
Y1799820D01*
G01Y1817600D02*
Y1837920D01*
G01Y1860780D02*
Y1881100D01*
G01X6740360Y1700760D02*
Y1723620D01*
G01Y1733780D02*
Y1759180D01*
G01Y1779500D02*
Y1802360D01*
G01Y1815060D02*
Y1837920D01*
G01Y1860780D02*
Y1881100D01*
G01X6737820Y1700760D02*
Y1756640D01*
G01Y1782040D02*
Y1835380D01*
G01Y1860780D02*
Y1881100D01*
G01X6735280Y1703300D02*
Y1756640D01*
G01Y1782040D02*
Y1835380D01*
G01Y1860780D02*
Y1881100D01*
G01X6732740Y1705840D02*
Y1754100D01*
G01Y1784580D02*
Y1832840D01*
G01Y1860780D02*
Y1881100D01*
G01X6730200Y1708380D02*
Y1751560D01*
G01Y1787120D02*
Y1830300D01*
G01Y1860780D02*
Y1881100D01*
G01X6727660Y1710920D02*
Y1746480D01*
G01Y1792200D02*
Y1827760D01*
G01Y1860780D02*
Y1881100D01*
G01X6725120Y1721080D02*
Y1741400D01*
G01Y1797280D02*
Y1820140D01*
G01Y1860780D02*
Y1881100D01*
G01X6778460Y1896340D02*
Y1957300D01*
G01X6775920Y1916660D02*
Y1936980D01*
G01X6773380Y1916660D02*
Y1936980D01*
G01X6770840Y1916660D02*
Y1936980D01*
G01X6768300Y1916660D02*
Y1936980D01*
G01X6765760Y1916660D02*
Y1936980D01*
G01X6763220Y1916660D02*
Y1936980D01*
G01X6760680Y1916660D02*
Y1936980D01*
G01X6758140Y1916660D02*
Y1936980D01*
G01Y1962380D02*
Y2056360D01*
G01X6755600Y1916660D02*
Y1936980D01*
G01Y1962380D02*
Y1972540D01*
G01Y1975080D02*
Y2041120D01*
G01X6753060Y1916660D02*
Y1936980D01*
G01X6750520Y1916660D02*
Y1936980D01*
G01X6747980Y1916660D02*
Y1936980D01*
G01X6745440Y1916660D02*
Y1936980D01*
G01X6742900Y1916660D02*
Y1936980D01*
G01X6740360Y1916660D02*
Y1936980D01*
G01X6737820Y1916660D02*
Y1936980D01*
G01X6735280Y1916660D02*
Y1936980D01*
G01X6732740Y1916660D02*
Y1936980D01*
G01X6730200Y1916660D02*
Y1936980D01*
G01X6727660Y1916660D02*
Y1936980D01*
G01X6725120Y1916660D02*
Y1936980D01*
G01X6778460Y2061440D02*
Y2119860D01*
G01Y2140180D02*
Y2160500D01*
G01Y2180820D02*
Y2201140D01*
G01X6775920Y2061440D02*
Y2081760D01*
G01Y2099540D02*
Y2119860D01*
G01Y2140180D02*
Y2160500D01*
G01Y2180820D02*
Y2201140D01*
G01X6773380Y2061440D02*
Y2081760D01*
G01Y2099540D02*
Y2119860D01*
G01Y2140180D02*
Y2160500D01*
G01Y2180820D02*
Y2201140D01*
G01Y2206220D02*
Y2231620D01*
G01X6770840Y2061440D02*
Y2081760D01*
G01Y2102080D02*
Y2119860D01*
G01Y2140180D02*
Y2160500D01*
G01Y2180820D02*
Y2201140D01*
G01Y2206220D02*
Y2229080D01*
G01X6768300Y2061440D02*
Y2081760D01*
G01Y2099540D02*
Y2119860D01*
G01Y2140180D02*
Y2160500D01*
G01Y2180820D02*
Y2201140D01*
G01Y2203680D02*
Y2226540D01*
G01X6765760Y2061440D02*
Y2084300D01*
G01Y2089380D02*
Y2091920D01*
G01Y2097000D02*
Y2117320D01*
G01Y2140180D02*
Y2160500D01*
G01Y2180820D02*
Y2226540D01*
G01X6763220Y2061440D02*
Y2117320D01*
G01Y2140180D02*
Y2160500D01*
G01Y2180820D02*
Y2226540D01*
G01X6760680Y2061440D02*
Y2112240D01*
G01Y2140180D02*
Y2160500D01*
G01Y2180820D02*
Y2229080D01*
G01X6758140Y2061440D02*
Y2114780D01*
G01Y2140180D02*
Y2160500D01*
G01Y2180820D02*
Y2229080D01*
G01X6755600Y2046200D02*
Y2051280D01*
G01Y2061440D02*
Y2117320D01*
G01Y2140180D02*
Y2160500D01*
G01Y2180820D02*
Y2231620D01*
G01X6753060Y2061440D02*
Y2119860D01*
G01Y2140180D02*
Y2160500D01*
G01Y2180820D02*
Y2211300D01*
G01X6750520Y2061440D02*
Y2081760D01*
G01Y2099540D02*
Y2122400D01*
G01Y2140180D02*
Y2160500D01*
G01Y2180820D02*
Y2208760D01*
G01X6747980Y2061440D02*
Y2081760D01*
G01Y2102080D02*
Y2122400D01*
G01Y2140180D02*
Y2160500D01*
G01Y2180820D02*
Y2206220D01*
G01X6745440Y2061440D02*
Y2081760D01*
G01Y2104620D02*
Y2122400D01*
G01Y2140180D02*
Y2160500D01*
G01Y2180820D02*
Y2203680D01*
G01X6742900Y2061440D02*
Y2081760D01*
G01Y2102080D02*
Y2122400D01*
G01Y2140180D02*
Y2160500D01*
G01Y2180820D02*
Y2201140D01*
G01X6740360Y2061440D02*
Y2081760D01*
G01Y2099540D02*
Y2122400D01*
G01Y2140180D02*
Y2160500D01*
G01Y2180820D02*
Y2201140D01*
G01X6737820Y2061440D02*
Y2122400D01*
G01Y2140180D02*
Y2160500D01*
G01Y2180820D02*
Y2201140D01*
G01X6735280Y2061440D02*
Y2122400D01*
G01Y2140180D02*
Y2160500D01*
G01Y2180820D02*
Y2201140D01*
G01X6732740Y2061440D02*
Y2119860D01*
G01Y2140180D02*
Y2160500D01*
G01Y2180820D02*
Y2201140D01*
G01X6730200Y2061440D02*
Y2117320D01*
G01Y2140180D02*
Y2160500D01*
G01Y2180820D02*
Y2201140D01*
G01X6727660Y2061440D02*
Y2114780D01*
G01Y2140180D02*
Y2160500D01*
G01Y2180820D02*
Y2201140D01*
G01X6725120Y2061440D02*
Y2107160D01*
G01Y2140180D02*
Y2160500D01*
G01Y2180820D02*
Y2201140D01*
G01X6778460Y2211300D02*
Y2236700D01*
G01Y2267180D02*
Y2320520D01*
G01Y2340840D02*
Y2356080D01*
G01X6775920Y2208760D02*
Y2236700D01*
G01Y2267180D02*
Y2284960D01*
G01Y2340840D02*
Y2358620D01*
G01X6773380Y2267180D02*
Y2284960D01*
G01Y2343380D02*
Y2358620D01*
G01X6770840Y2267180D02*
Y2284960D01*
G01Y2343380D02*
Y2361160D01*
G01X6768300Y2267180D02*
Y2284960D01*
G01Y2343380D02*
Y2361160D01*
G01X6765760Y2267180D02*
Y2287500D01*
G01Y2295120D02*
Y2302740D01*
G01Y2312900D02*
Y2315440D01*
G01Y2345920D02*
Y2361160D01*
G01X6763220Y2267180D02*
Y2317980D01*
G01Y2345920D02*
Y2363700D01*
G01X6760680Y2267180D02*
Y2317980D01*
G01Y2345920D02*
Y2363700D01*
G01X6758140Y2267180D02*
Y2317980D01*
G01Y2345920D02*
Y2363700D01*
G01X6755600Y2267180D02*
Y2317980D01*
G01Y2345920D02*
Y2363700D01*
G01X6753060Y2213840D02*
Y2234160D01*
G01Y2267180D02*
Y2317980D01*
G01Y2345920D02*
Y2363700D01*
G01X6750520Y2216380D02*
Y2234160D01*
G01Y2267180D02*
Y2287500D01*
G01Y2345920D02*
Y2363700D01*
G01X6747980Y2216380D02*
Y2236700D01*
G01Y2267180D02*
Y2284960D01*
G01Y2345920D02*
Y2363700D01*
G01X6745440Y2218920D02*
Y2239240D01*
G01Y2267180D02*
Y2284960D01*
G01Y2345920D02*
Y2363700D01*
G01X6742900Y2218920D02*
Y2239240D01*
G01Y2267180D02*
Y2284960D01*
G01Y2345920D02*
Y2363700D01*
G01X6740360Y2221460D02*
Y2241780D01*
G01Y2267180D02*
Y2287500D01*
G01Y2345920D02*
Y2363700D01*
G01X6737820Y2224000D02*
Y2244320D01*
G01Y2267180D02*
Y2320520D01*
G01Y2345920D02*
Y2363700D01*
G01X6735280Y2224000D02*
Y2244320D01*
G01Y2267180D02*
Y2320520D01*
G01Y2345920D02*
Y2361160D01*
G01X6732740Y2226540D02*
Y2246860D01*
G01Y2267180D02*
Y2320520D01*
G01Y2345920D02*
Y2361160D01*
G01X6730200Y2226540D02*
Y2246860D01*
G01Y2267180D02*
Y2320520D01*
G01Y2343380D02*
Y2361160D01*
G01X6727660Y2229080D02*
Y2249400D01*
G01Y2267180D02*
Y2320520D01*
G01Y2343380D02*
Y2361160D01*
G01X6725120Y2229080D02*
Y2251940D01*
G01Y2267180D02*
Y2320520D01*
G01Y2343380D02*
Y2358620D01*
G01X6722580Y2343380D02*
Y2358620D01*
G01X6720040Y2340840D02*
Y2358620D01*
G01X6717500Y2340840D02*
Y2356080D01*
G01X6714960Y2340840D02*
Y2356080D01*
G01X6712420Y2338300D02*
Y2353540D01*
G01X6709880Y2338300D02*
Y2351000D01*
G01X6707340Y2338300D02*
Y2351000D01*
G01X6704800Y2338300D02*
Y2348460D01*
G01X6814020Y682220D02*
Y700000D01*
G01X6811480Y682220D02*
Y700000D01*
G01X6808940Y682220D02*
Y710160D01*
G01X6806400Y682220D02*
Y705080D01*
G01X6803860Y682220D02*
Y702540D01*
G01X6801320Y682220D02*
Y705080D01*
G01X6798780Y682220D02*
Y705080D01*
G01X6796240Y682220D02*
Y705080D01*
G01X6793700Y682220D02*
Y702540D01*
G01X6791160Y682220D02*
Y702540D01*
G01X6788620Y682220D02*
Y700000D01*
G01X6786080Y682220D02*
Y700000D01*
G01X6783540Y682220D02*
Y697460D01*
G01X6781000Y682220D02*
Y697460D01*
G01X6880060Y702540D02*
Y710160D01*
G01X6877520Y702540D02*
Y712700D01*
G01X6874980Y702540D02*
Y727940D01*
G01X6872440Y705080D02*
Y733020D01*
G01X6869900Y707620D02*
Y738100D01*
G01X6867360Y710160D02*
Y740640D01*
G01X6864820Y712700D02*
Y743180D01*
G01Y776200D02*
Y793980D01*
G01X6862280Y717780D02*
Y745720D01*
G01Y768580D02*
Y796520D01*
G01X6859740Y720320D02*
Y745720D01*
G01Y768580D02*
Y799060D01*
G01X6857200Y722860D02*
Y748260D01*
G01Y771120D02*
Y801600D01*
G01X6854660Y727940D02*
Y748260D01*
G01Y776200D02*
Y804140D01*
G01X6852120Y730480D02*
Y750800D01*
G01Y778740D02*
Y806680D01*
G01X6849580Y733020D02*
Y750800D01*
G01Y781280D02*
Y806680D01*
G01X6847040Y733020D02*
Y750800D01*
G01Y760960D02*
Y766040D01*
G01Y786360D02*
Y806680D01*
G01X6844500Y735560D02*
Y753340D01*
G01Y755880D02*
Y771120D01*
G01Y786360D02*
Y806680D01*
G01X6841960Y738100D02*
Y776200D01*
G01Y791440D02*
Y804140D01*
G01X6839420Y738100D02*
Y778740D01*
G01X6836880Y740640D02*
Y781280D01*
G01X6834340Y738100D02*
Y781280D01*
G01X6831800Y687300D02*
Y689840D01*
G01Y733020D02*
Y781280D01*
G01X6829260Y687300D02*
Y692380D01*
G01Y727940D02*
Y781280D01*
G01X6826720Y687300D02*
Y692380D01*
G01Y725400D02*
Y776200D01*
G01X6824180Y687300D02*
Y694920D01*
G01Y720320D02*
Y771120D01*
G01X6821640Y684760D02*
Y697460D01*
G01Y717780D02*
Y766040D01*
G01X6819100Y684760D02*
Y697460D01*
G01Y715240D02*
Y763500D01*
G01X6816560Y684760D02*
Y697460D01*
G01Y710160D02*
Y760960D01*
G01X6814020Y707620D02*
Y763500D01*
G01X6811480Y705080D02*
Y745720D01*
G01Y750800D02*
Y763500D01*
G01Y781280D02*
Y786360D01*
G01X6808940Y715240D02*
Y743180D01*
G01Y750800D02*
Y763500D01*
G01Y778740D02*
Y793980D01*
G01X6806400Y722860D02*
Y738100D01*
G01Y753340D02*
Y766040D01*
G01Y778740D02*
Y793980D01*
G01X6803860Y727940D02*
Y733020D01*
G01Y753340D02*
Y766040D01*
G01Y781280D02*
Y796520D01*
G01X6801320Y753340D02*
Y766040D01*
G01Y781280D02*
Y799060D01*
G01X6798780Y755880D02*
Y768580D01*
G01Y781280D02*
Y799060D01*
G01X6796240Y730480D02*
Y738100D01*
G01Y755880D02*
Y768580D01*
G01Y778740D02*
Y799060D01*
G01X6793700Y727940D02*
Y745720D01*
G01Y755880D02*
Y768580D01*
G01Y778740D02*
Y799060D01*
G01X6791160Y725400D02*
Y748260D01*
G01Y758420D02*
Y771120D01*
G01Y778740D02*
Y799060D01*
G01X6788620Y722860D02*
Y750800D01*
G01Y758420D02*
Y771120D01*
G01Y776200D02*
Y799060D01*
G01X6786080Y720320D02*
Y750800D01*
G01Y760960D02*
Y773660D01*
G01Y776200D02*
Y796520D01*
G01X6783540Y717780D02*
Y753340D01*
G01Y760960D02*
Y796520D01*
G01X6781000Y712700D02*
Y753340D01*
G01Y760960D02*
Y793980D01*
G01X6872440Y948920D02*
Y954000D01*
G01Y1007340D02*
Y1012420D01*
G01Y1014960D02*
Y1030200D01*
G01X6869900Y948920D02*
Y961620D01*
G01Y1004800D02*
Y1035280D01*
G01X6867360Y948920D02*
Y964160D01*
G01Y1004800D02*
Y1040360D01*
G01X6864820Y951460D02*
Y969240D01*
G01Y1007340D02*
Y1042900D01*
G01X6862280Y951460D02*
Y969240D01*
G01Y1009880D02*
Y1042900D01*
G01X6859740Y951460D02*
Y971780D01*
G01Y1009880D02*
Y1045440D01*
G01X6857200Y948920D02*
Y974320D01*
G01Y1012420D02*
Y1045440D01*
G01X6854660Y948920D02*
Y974320D01*
G01Y1014960D02*
Y1047980D01*
G01X6852120Y946380D02*
Y974320D01*
G01Y1017500D02*
Y1045440D01*
G01X6849580Y946380D02*
Y974320D01*
G01Y1017500D02*
Y1045440D01*
G01X6847040Y946380D02*
Y974320D01*
G01Y1020040D02*
Y1045440D01*
G01X6844500Y943840D02*
Y971780D01*
G01Y1020040D02*
Y1045440D01*
G01X6841960Y941300D02*
Y971780D01*
G01Y1017500D02*
Y1083540D01*
G01X6839420Y941300D02*
Y969240D01*
G01Y1012420D02*
Y1083540D01*
G01X6836880Y938760D02*
Y966700D01*
G01Y1009880D02*
Y1086080D01*
G01X6834340Y938760D02*
Y966700D01*
G01Y1004800D02*
Y1086080D01*
G01X6831800Y936220D02*
Y964160D01*
G01Y999720D02*
Y1088620D01*
G01X6829260Y933680D02*
Y961620D01*
G01Y992100D02*
Y1040360D01*
G01X6826720Y933680D02*
Y961620D01*
G01Y987020D02*
Y1035280D01*
G01X6824180Y931140D02*
Y959080D01*
G01Y981940D02*
Y1027660D01*
G01X6821640Y928600D02*
Y956540D01*
G01Y969240D02*
Y1022580D01*
G01X6819100Y928600D02*
Y956540D01*
G01Y966700D02*
Y1017500D01*
G01X6816560Y926060D02*
Y954000D01*
G01Y966700D02*
Y1012420D01*
G01X6814020Y923520D02*
Y954000D01*
G01Y969240D02*
Y1007340D01*
G01X6811480Y920980D02*
Y951460D01*
G01Y971780D02*
Y1004800D01*
G01Y1017500D02*
Y1030200D01*
G01X6808940Y920980D02*
Y948920D01*
G01Y974320D02*
Y999720D01*
G01X6806400Y918440D02*
Y948920D01*
G01Y976860D02*
Y997180D01*
G01X6803860Y913360D02*
Y951460D01*
G01Y1017500D02*
Y1055600D01*
G01X6801320Y908280D02*
Y954000D01*
G01Y1009880D02*
Y1058140D01*
G01X6798780Y908280D02*
Y954000D01*
G01Y994640D02*
Y1055600D01*
G01X6796240Y905740D02*
Y954000D01*
G01Y994640D02*
Y1055600D01*
G01X6793700Y905740D02*
Y956540D01*
G01Y994640D02*
Y1050520D01*
G01X6791160Y905740D02*
Y956540D01*
G01Y994640D02*
Y1045440D01*
G01X6788620Y905740D02*
Y933680D01*
G01Y938760D02*
Y956540D01*
G01Y999720D02*
Y1040360D01*
G01X6786080Y905740D02*
Y931140D01*
G01Y941300D02*
Y956540D01*
G01Y1007340D02*
Y1035280D01*
G01X6783540Y905740D02*
Y928600D01*
G01Y941300D02*
Y956540D01*
G01Y1014960D02*
Y1032740D01*
G01X6781000Y905740D02*
Y926060D01*
G01Y941300D02*
Y956540D01*
G01Y1009880D02*
Y1030200D01*
G01X6852120Y1190220D02*
Y1192760D01*
G01X6849580Y1187680D02*
Y1289280D01*
G01X6847040Y1190220D02*
Y1291820D01*
G01X6844500Y1058140D02*
Y1078460D01*
G01X6829260Y1050520D02*
Y1088620D01*
G01X6826720Y1047980D02*
Y1088620D01*
G01X6824180Y1042900D02*
Y1086080D01*
G01X6821640Y1037820D02*
Y1073380D01*
G01X6819100Y1032740D02*
Y1063220D01*
G01X6816560Y1027660D02*
Y1053060D01*
G01X6814020Y1022580D02*
Y1047980D01*
G01X6811480Y1032740D02*
Y1047980D01*
G01X6808940Y1032740D02*
Y1053060D01*
G01X6806400Y1025120D02*
Y1055600D01*
G01X6783540Y1045440D02*
Y1058140D01*
G01X6781000Y1037820D02*
Y1060680D01*
G01X6885140Y1246100D02*
Y1253720D01*
G01X6882600Y1241020D02*
Y1256260D01*
G01X6880060Y1238480D02*
Y1261340D01*
G01X6877520Y1235940D02*
Y1263880D01*
G01X6874980Y1235940D02*
Y1266420D01*
G01X6872440Y1233400D02*
Y1251180D01*
G01Y1258800D02*
Y1268960D01*
G01X6869900Y1233400D02*
Y1248640D01*
G01Y1261340D02*
Y1271500D01*
G01X6867360Y1230860D02*
Y1248640D01*
G01Y1263880D02*
Y1274040D01*
G01X6864820Y1230860D02*
Y1248640D01*
G01Y1263880D02*
Y1276580D01*
G01X6862280Y1230860D02*
Y1248640D01*
G01Y1266420D02*
Y1279120D01*
G01X6859740Y1228320D02*
Y1248640D01*
G01Y1266420D02*
Y1281660D01*
G01X6857200Y1228320D02*
Y1251180D01*
G01Y1256260D02*
Y1284200D01*
G01X6854660Y1228320D02*
Y1286740D01*
G01X6852120Y1225780D02*
Y1289280D01*
G01X6844500Y1192760D02*
Y1289280D01*
G01X6841960Y1195300D02*
Y1284200D01*
G01X6839420Y1197840D02*
Y1279120D01*
G01X6836880Y1200380D02*
Y1268960D01*
G01X6834340Y1202920D02*
Y1256260D01*
G01X6831800Y1205460D02*
Y1251180D01*
G01X6829260Y1213080D02*
Y1246100D01*
G01X6826720Y1215620D02*
Y1243560D01*
G01Y1248640D02*
Y1258800D01*
G01X6824180Y1215620D02*
Y1241020D01*
G01Y1246100D02*
Y1261340D01*
G01X6821640Y1213080D02*
Y1241020D01*
G01Y1246100D02*
Y1263880D01*
G01X6819100Y1210540D02*
Y1238480D01*
G01Y1246100D02*
Y1263880D01*
G01X6816560Y1208000D02*
Y1238480D01*
G01Y1246100D02*
Y1263880D01*
G01X6814020Y1205460D02*
Y1235940D01*
G01Y1246100D02*
Y1268960D01*
G01X6811480Y1202920D02*
Y1235940D01*
G01Y1246100D02*
Y1271500D01*
G01X6808940Y1200380D02*
Y1233400D01*
G01Y1246100D02*
Y1276580D01*
G01X6806400Y1200380D02*
Y1233400D01*
G01Y1241020D02*
Y1279120D01*
G01X6803860Y1200380D02*
Y1281660D01*
G01X6801320Y1197840D02*
Y1281660D01*
G01X6798780Y1197840D02*
Y1281660D01*
G01X6796240Y1197840D02*
Y1279120D01*
G01X6793700Y1197840D02*
Y1276580D01*
G01X6791160Y1197840D02*
Y1274040D01*
G01X6788620Y1200380D02*
Y1271500D01*
G01X6786080Y1200380D02*
Y1268960D01*
G01X6783540Y1200380D02*
Y1266420D01*
G01X6781000Y1202920D02*
Y1233400D01*
G01Y1235940D02*
Y1266420D01*
G01X6864820Y1426440D02*
Y1428980D01*
G01X6862280Y1423900D02*
Y1434060D01*
G01X6859740Y1421360D02*
Y1439140D01*
G01X6857200Y1421360D02*
Y1444220D01*
G01X6854660Y1418820D02*
Y1446760D01*
G01Y1479780D02*
Y1489940D01*
G01X6852120Y1413740D02*
Y1446760D01*
G01Y1474700D02*
Y1497560D01*
G01X6849580Y1411200D02*
Y1446760D01*
G01Y1472160D02*
Y1477240D01*
G01Y1487400D02*
Y1500100D01*
G01X6847040Y1408660D02*
Y1446760D01*
G01Y1472160D02*
Y1474700D01*
G01Y1489940D02*
Y1505180D01*
G01X6844500Y1403580D02*
Y1446760D01*
G01Y1469620D02*
Y1472160D01*
G01Y1489940D02*
Y1505180D01*
G01X6841960Y1401040D02*
Y1446760D01*
G01Y1467080D02*
Y1469620D01*
G01Y1489940D02*
Y1507720D01*
G01X6839420Y1395960D02*
Y1444220D01*
G01Y1467080D02*
Y1469620D01*
G01Y1489940D02*
Y1510260D01*
G01X6836880Y1398500D02*
Y1444220D01*
G01Y1464540D02*
Y1469620D01*
G01Y1489940D02*
Y1510260D01*
G01X6834340Y1401040D02*
Y1441680D01*
G01Y1464540D02*
Y1469620D01*
G01Y1489940D02*
Y1510260D01*
G01X6831800Y1403580D02*
Y1441680D01*
G01Y1462000D02*
Y1467080D01*
G01Y1487400D02*
Y1510260D01*
G01X6829260Y1408660D02*
Y1441680D01*
G01Y1462000D02*
Y1464540D01*
G01Y1487400D02*
Y1510260D01*
G01X6826720Y1421360D02*
Y1439140D01*
G01Y1459460D02*
Y1464540D01*
G01Y1484860D02*
Y1507720D01*
G01X6824180Y1421360D02*
Y1439140D01*
G01Y1459460D02*
Y1464540D01*
G01Y1484860D02*
Y1505180D01*
G01X6821640Y1395960D02*
Y1401040D01*
G01Y1421360D02*
Y1439140D01*
G01Y1456920D02*
Y1462000D01*
G01Y1484860D02*
Y1505180D01*
G01X6819100Y1393420D02*
Y1403580D01*
G01Y1421360D02*
Y1439140D01*
G01Y1456920D02*
Y1462000D01*
G01Y1482320D02*
Y1502640D01*
G01X6816560Y1393420D02*
Y1406120D01*
G01Y1421360D02*
Y1441680D01*
G01Y1454380D02*
Y1459460D01*
G01Y1482320D02*
Y1502640D01*
G01X6814020Y1395960D02*
Y1406120D01*
G01Y1421360D02*
Y1441680D01*
G01Y1454380D02*
Y1459460D01*
G01Y1479780D02*
Y1500100D01*
G01X6811480Y1395960D02*
Y1408660D01*
G01Y1423900D02*
Y1441680D01*
G01Y1451840D02*
Y1456920D01*
G01Y1479780D02*
Y1500100D01*
G01X6808940Y1395960D02*
Y1408660D01*
G01Y1423900D02*
Y1444220D01*
G01Y1449300D02*
Y1456920D01*
G01Y1477240D02*
Y1500100D01*
G01X6806400Y1395960D02*
Y1411200D01*
G01Y1426440D02*
Y1444220D01*
G01Y1449300D02*
Y1454380D01*
G01Y1477240D02*
Y1497560D01*
G01X6803860Y1395960D02*
Y1411200D01*
G01Y1426440D02*
Y1454380D01*
G01Y1474700D02*
Y1497560D01*
G01X6801320Y1395960D02*
Y1411200D01*
G01Y1428980D02*
Y1451840D01*
G01Y1474700D02*
Y1495020D01*
G01X6798780Y1395960D02*
Y1411200D01*
G01Y1428980D02*
Y1449300D01*
G01Y1472160D02*
Y1495020D01*
G01X6796240Y1395960D02*
Y1413740D01*
G01Y1431520D02*
Y1449300D01*
G01Y1469620D02*
Y1500100D01*
G01X6793700Y1395960D02*
Y1416280D01*
G01Y1431520D02*
Y1449300D01*
G01Y1469620D02*
Y1505180D01*
G01X6791160Y1395960D02*
Y1416280D01*
G01Y1428980D02*
Y1446760D01*
G01Y1467080D02*
Y1507720D01*
G01X6788620Y1395960D02*
Y1446760D01*
G01Y1467080D02*
Y1512800D01*
G01X6786080Y1395960D02*
Y1446760D01*
G01Y1464540D02*
Y1517880D01*
G01X6783540Y1395960D02*
Y1446760D01*
G01Y1464540D02*
Y1520420D01*
G01X6781000Y1395960D02*
Y1446760D01*
G01Y1462000D02*
Y1525500D01*
G01X6791160Y1667740D02*
Y1680440D01*
G01X6788620Y1665200D02*
Y1680440D01*
G01X6786080Y1665200D02*
Y1680440D01*
G01X6783540Y1662660D02*
Y1677900D01*
G01X6781000Y1662660D02*
Y1677900D01*
G01X6791160Y1718540D02*
Y1741400D01*
G01Y1779500D02*
Y1797280D01*
G01Y1820140D02*
Y1840460D01*
G01Y1860780D02*
Y1881100D01*
G01X6788620Y1710920D02*
Y1749020D01*
G01Y1779500D02*
Y1797280D01*
G01Y1820140D02*
Y1840460D01*
G01Y1860780D02*
Y1881100D01*
G01X6786080Y1708380D02*
Y1751560D01*
G01Y1779500D02*
Y1797280D01*
G01Y1820140D02*
Y1840460D01*
G01Y1860780D02*
Y1881100D01*
G01X6783540Y1703300D02*
Y1754100D01*
G01Y1779500D02*
Y1797280D01*
G01Y1820140D02*
Y1840460D01*
G01Y1860780D02*
Y1881100D01*
G01X6781000Y1703300D02*
Y1756640D01*
G01Y1779500D02*
Y1797280D01*
G01Y1820140D02*
Y1840460D01*
G01Y1860780D02*
Y1881100D01*
G01X6791160Y1893800D02*
Y1957300D01*
G01X6788620Y1893800D02*
Y1957300D01*
G01X6786080Y1893800D02*
Y1957300D01*
G01X6783540Y1893800D02*
Y1957300D01*
G01X6781000Y1893800D02*
Y1957300D01*
G01X6791160Y2061440D02*
Y2109700D01*
G01Y2140180D02*
Y2160500D01*
G01Y2180820D02*
Y2201140D01*
G01X6788620Y2061440D02*
Y2114780D01*
G01Y2140180D02*
Y2160500D01*
G01Y2180820D02*
Y2201140D01*
G01X6786080Y2061440D02*
Y2117320D01*
G01Y2140180D02*
Y2160500D01*
G01Y2180820D02*
Y2201140D01*
G01X6783540Y2061440D02*
Y2119860D01*
G01Y2140180D02*
Y2160500D01*
G01Y2180820D02*
Y2201140D01*
G01X6781000Y2061440D02*
Y2119860D01*
G01Y2140180D02*
Y2160500D01*
G01Y2180820D02*
Y2201140D01*
G01X6791160Y2224000D02*
Y2249400D01*
G01Y2267180D02*
Y2320520D01*
G01Y2338300D02*
Y2348460D01*
G01X6788620Y2221460D02*
Y2249400D01*
G01Y2267180D02*
Y2320520D01*
G01Y2338300D02*
Y2351000D01*
G01X6786080Y2218920D02*
Y2246860D01*
G01Y2267180D02*
Y2320520D01*
G01Y2338300D02*
Y2353540D01*
G01X6783540Y2216380D02*
Y2244320D01*
G01Y2267180D02*
Y2320520D01*
G01Y2340840D02*
Y2353540D01*
G01X6781000Y2213840D02*
Y2239240D01*
G01Y2267180D02*
Y2320520D01*
G01Y2340840D02*
Y2356080D01*
G01X7116280Y1068300D02*
Y1093700D01*
G01X7113740Y1068300D02*
Y1096240D01*
G01X7111200Y1070840D02*
Y1096240D01*
G01X7108660Y1070840D02*
Y1096240D01*
G01X7106120Y1070840D02*
Y1096240D01*
G01X7103580Y1070840D02*
Y1096240D01*
G01X7101040Y1070840D02*
Y1096240D01*
G01X7098500Y1070840D02*
Y1096240D01*
G01X7095960Y1070840D02*
Y1096240D01*
G01X7093420Y1073380D02*
Y1098780D01*
G01X7090880Y1073380D02*
Y1098780D01*
G01X7088340Y1075920D02*
Y1098780D01*
G01X7085800Y1075920D02*
Y1101320D01*
G01X7083260Y1078460D02*
Y1101320D01*
G01X7080720Y1078460D02*
Y1101320D01*
G01X7078180Y1078460D02*
Y1106400D01*
G01X7075640Y1081000D02*
Y1106400D01*
G01X7073100Y1081000D02*
Y1106400D01*
G01X7070560Y1083540D02*
Y1108940D01*
G01X7068020Y1083540D02*
Y1111480D01*
G01X7065480Y1086080D02*
Y1114020D01*
G01X7062940Y1088620D02*
Y1114020D01*
G01X7060400Y1088620D02*
Y1116560D01*
G01X7057860Y1091160D02*
Y1119100D01*
G01X7055320Y1093700D02*
Y1119100D01*
G01X7052780Y1096240D02*
Y1124180D01*
G01X7050240Y1096240D02*
Y1126720D01*
G01X7047700Y1101320D02*
Y1131800D01*
G01X7045160Y1101320D02*
Y1134340D01*
G01X7042620Y1106400D02*
Y1139420D01*
G01X7040080Y1106400D02*
Y1141960D01*
G01X7037540Y1111480D02*
Y1149580D01*
G01X7035000Y1114020D02*
Y1154660D01*
G01X7032460Y1119100D02*
Y1167360D01*
G01X7029920Y1121640D02*
Y1177520D01*
G01X7027380Y1129260D02*
Y1296900D01*
G01X7024840Y1131800D02*
Y1291820D01*
G01X7022300Y1134340D02*
Y1286740D01*
G01X7019760Y1141960D02*
Y1276580D01*
G01X7017220Y1147040D02*
Y1271500D01*
G01X7014680Y1159740D02*
Y1256260D01*
G01X7012140Y1167360D02*
Y1243560D01*
G01X7009600Y1174980D02*
Y1230860D01*
G01X7116280Y1312140D02*
Y1340080D01*
G01Y1350240D02*
Y1362940D01*
G01X7113740Y1312140D02*
Y1340080D01*
G01Y1347700D02*
Y1362940D01*
G01X7111200Y1312140D02*
Y1340080D01*
G01Y1347700D02*
Y1362940D01*
G01X7108660Y1312140D02*
Y1337540D01*
G01Y1345160D02*
Y1360400D01*
G01X7106120Y1312140D02*
Y1335000D01*
G01Y1345160D02*
Y1357860D01*
G01X7103580Y1309600D02*
Y1335000D01*
G01Y1345160D02*
Y1357860D01*
G01X7101040Y1309600D02*
Y1335000D01*
G01Y1342620D02*
Y1357860D01*
G01X7098500Y1307060D02*
Y1335000D01*
G01Y1342620D02*
Y1355320D01*
G01X7095960Y1307060D02*
Y1332460D01*
G01Y1340080D02*
Y1352780D01*
G01X7093420Y1307060D02*
Y1332460D01*
G01Y1340080D02*
Y1352780D01*
G01X7090880Y1304520D02*
Y1329920D01*
G01Y1337540D02*
Y1352780D01*
G01X7088340Y1301980D02*
Y1329920D01*
G01Y1335000D02*
Y1350240D01*
G01X7085800Y1299440D02*
Y1327380D01*
G01Y1335000D02*
Y1347700D01*
G01Y1360400D02*
Y1370560D01*
G01X7083260Y1299440D02*
Y1324840D01*
G01Y1332460D02*
Y1345160D01*
G01Y1357860D02*
Y1370560D01*
G01X7080720Y1296900D02*
Y1324840D01*
G01Y1329920D02*
Y1342620D01*
G01Y1355320D02*
Y1368020D01*
G01X7078180Y1294360D02*
Y1322300D01*
G01Y1329920D02*
Y1342620D01*
G01Y1352780D02*
Y1362940D01*
G01X7075640Y1294360D02*
Y1322300D01*
G01Y1327380D02*
Y1340080D01*
G01Y1350240D02*
Y1362940D01*
G01X7073100Y1291820D02*
Y1319760D01*
G01Y1324840D02*
Y1337540D01*
G01Y1347700D02*
Y1360400D01*
G01X7070560Y1289280D02*
Y1317220D01*
G01Y1322300D02*
Y1335000D01*
G01Y1345160D02*
Y1357860D01*
G01X7068020Y1289280D02*
Y1314680D01*
G01Y1319760D02*
Y1332460D01*
G01Y1342620D02*
Y1355320D01*
G01X7065480Y1284200D02*
Y1312140D01*
G01Y1317220D02*
Y1329920D01*
G01Y1337540D02*
Y1352780D01*
G01X7062940Y1281660D02*
Y1312140D01*
G01Y1317220D02*
Y1329920D01*
G01Y1335000D02*
Y1352780D01*
G01X7060400Y1279120D02*
Y1307060D01*
G01Y1312140D02*
Y1324840D01*
G01Y1329920D02*
Y1347700D01*
G01X7057860Y1276580D02*
Y1307060D01*
G01Y1312140D02*
Y1322300D01*
G01Y1327380D02*
Y1345160D01*
G01X7055320Y1274040D02*
Y1304520D01*
G01Y1307060D02*
Y1319760D01*
G01Y1324840D02*
Y1342620D01*
G01X7052780Y1268960D02*
Y1299440D01*
G01Y1304520D02*
Y1340080D01*
G01X7050240Y1266420D02*
Y1299440D01*
G01Y1301980D02*
Y1314680D01*
G01Y1317220D02*
Y1337540D01*
G01X7047700Y1261340D02*
Y1294360D01*
G01Y1299440D02*
Y1332460D01*
G01X7045160Y1258800D02*
Y1291820D01*
G01Y1294360D02*
Y1329920D01*
G01X7042620Y1251180D02*
Y1289280D01*
G01Y1291820D02*
Y1324840D01*
G01X7040080Y1248640D02*
Y1284200D01*
G01Y1289280D02*
Y1322300D01*
G01X7037540Y1241020D02*
Y1319760D01*
G01X7035000Y1235940D02*
Y1279120D01*
G01Y1281660D02*
Y1314680D01*
G01X7032460Y1220700D02*
Y1309600D01*
G01X7029920Y1215620D02*
Y1304520D01*
G01X7106120Y1375640D02*
Y1383260D01*
G01X7103580Y1375640D02*
Y1380720D01*
G01X7101040Y1375640D02*
Y1380720D01*
G01X7098500Y1370560D02*
Y1380720D01*
G01X7095960Y1370560D02*
Y1378180D01*
G01X7093420Y1368020D02*
Y1375640D01*
G01X7090880Y1365480D02*
Y1375640D01*
G01X7088340Y1362940D02*
Y1373100D01*
G01X7116280Y1558520D02*
Y1591540D01*
G01Y1619480D02*
Y1644880D01*
G01X7113740Y1558520D02*
Y1591540D01*
G01Y1619480D02*
Y1644880D01*
G01X7111200Y1563600D02*
Y1596620D01*
G01Y1619480D02*
Y1644880D01*
G01X7108660Y1563600D02*
Y1599160D01*
G01Y1619480D02*
Y1644880D01*
G01X7106120Y1566140D02*
Y1601700D01*
G01Y1619480D02*
Y1644880D01*
G01X7103580Y1568680D02*
Y1604240D01*
G01Y1619480D02*
Y1644880D01*
G01X7101040Y1568680D02*
Y1609320D01*
G01Y1619480D02*
Y1644880D01*
G01X7098500Y1573760D02*
Y1614400D01*
G01Y1622020D02*
Y1644880D01*
G01X7095960Y1576300D02*
Y1616940D01*
G01Y1619480D02*
Y1647420D01*
G01X7093420Y1581380D02*
Y1647420D01*
G01X7090880Y1583920D02*
Y1647420D01*
G01X7088340Y1586460D02*
Y1649960D01*
G01X7085800Y1591540D02*
Y1649960D01*
G01X7083260Y1596620D02*
Y1662660D01*
G01X7080720Y1604240D02*
Y1670280D01*
G01X7078180Y1611860D02*
Y1705840D01*
G01X7075640Y1616940D02*
Y1713460D01*
G01X7073100Y1622020D02*
Y1713460D01*
G01X7070560Y1632180D02*
Y1710920D01*
G01X7068020Y1634720D02*
Y1662660D01*
G01Y1665200D02*
Y1688060D01*
G01X7065480Y1637260D02*
Y1662660D01*
G01X7062940Y1637260D02*
Y1662660D01*
G01X7060400Y1637260D02*
Y1667740D01*
G01X7057860Y1639800D02*
Y1667740D01*
G01X7055320Y1642340D02*
Y1670280D01*
G01X7052780Y1644880D02*
Y1672820D01*
G01X7050240Y1647420D02*
Y1677900D01*
G01X7047700Y1649960D02*
Y1680440D01*
G01X7045160Y1649960D02*
Y1685520D01*
G01X7042620Y1655040D02*
Y1690600D01*
G01X7040080Y1657580D02*
Y1693140D01*
G01X7037540Y1660120D02*
Y1698220D01*
G01X7035000Y1662660D02*
Y1705840D01*
G01X7032460Y1667740D02*
Y1716000D01*
G01X7029920Y1670280D02*
Y1723620D01*
G01X7027380Y1677900D02*
Y1848080D01*
G01X7024840Y1680440D02*
Y1845540D01*
G01X7022300Y1682980D02*
Y1840460D01*
G01X7019760Y1690600D02*
Y1830300D01*
G01X7017220Y1695680D02*
Y1822680D01*
G01X7116280Y1863320D02*
Y1891260D01*
G01X7113740Y1860780D02*
Y1891260D01*
G01X7111200Y1860780D02*
Y1888720D01*
G01X7108660Y1860780D02*
Y1886180D01*
G01X7106120Y1860780D02*
Y1886180D01*
G01X7103580Y1860780D02*
Y1886180D01*
G01X7101040Y1858240D02*
Y1883640D01*
G01X7098500Y1858240D02*
Y1883640D01*
G01X7095960Y1855700D02*
Y1883640D01*
G01X7093420Y1855700D02*
Y1881100D01*
G01X7090880Y1853160D02*
Y1878560D01*
G01X7088340Y1850620D02*
Y1878560D01*
G01X7085800Y1850620D02*
Y1878560D01*
G01X7083260Y1848080D02*
Y1876020D01*
G01X7080720Y1848080D02*
Y1873480D01*
G01X7078180Y1845540D02*
Y1873480D01*
G01X7075640Y1843000D02*
Y1870940D01*
G01X7073100Y1843000D02*
Y1868400D01*
G01X7070560Y1840460D02*
Y1865860D01*
G01X7068020Y1837920D02*
Y1865860D01*
G01X7065480Y1832840D02*
Y1860780D01*
G01X7062940Y1832840D02*
Y1860780D01*
G01X7060400Y1827760D02*
Y1858240D01*
G01X7057860Y1827760D02*
Y1855700D01*
G01X7055320Y1822680D02*
Y1855700D01*
G01X7052780Y1820140D02*
Y1850620D01*
G01X7050240Y1815060D02*
Y1848080D01*
G01Y1868400D02*
Y1888720D01*
G01X7047700Y1809980D02*
Y1845540D01*
G01Y1863320D02*
Y1883640D01*
G01X7045160Y1807440D02*
Y1843000D01*
G01Y1858240D02*
Y1881100D01*
G01X7042620Y1799820D02*
Y1837920D01*
G01Y1850620D02*
Y1876020D01*
G01X7040080Y1797280D02*
Y1837920D01*
G01Y1848080D02*
Y1873480D01*
G01X7037540Y1789660D02*
Y1830300D01*
G01Y1837920D02*
Y1870940D01*
G01X7035000Y1784580D02*
Y1827760D01*
G01Y1835380D02*
Y1865860D01*
G01X7032460Y1771880D02*
Y1820140D01*
G01Y1825220D02*
Y1860780D01*
G01X7029920Y1761720D02*
Y1820140D01*
G01Y1822680D02*
Y1855700D01*
G01X7014680Y1705840D02*
Y1809980D01*
G01X7012140Y1713460D02*
Y1797280D01*
G01X7009600Y1723620D02*
Y1782040D01*
G01X7108660Y1931900D02*
Y1934440D01*
G01X7106120Y1929360D02*
Y1936980D01*
G01X7103580Y1926820D02*
Y1936980D01*
G01X7101040Y1924280D02*
Y1931900D01*
G01X7098500Y1924280D02*
Y1931900D01*
G01X7095960Y1921740D02*
Y1929360D01*
G01X7093420Y1916660D02*
Y1926820D01*
G01X7090880Y1916660D02*
Y1926820D01*
G01X7088340Y1914120D02*
Y1924280D01*
G01X7085800Y1911580D02*
Y1924280D01*
G01X7083260Y1909040D02*
Y1919200D01*
G01X7080720Y1906500D02*
Y1916660D01*
G01X7078180Y1903960D02*
Y1914120D01*
G01X7075640Y1901420D02*
Y1914120D01*
G01X7073100Y1898880D02*
Y1911580D01*
G01X7070560Y1896340D02*
Y1909040D01*
G01X7068020Y1893800D02*
Y1906500D01*
G01X7065480Y1888720D02*
Y1903960D01*
G01X7062940Y1886180D02*
Y1901420D01*
G01X7060400Y1881100D02*
Y1898880D01*
G01X7057860Y1878560D02*
Y1896340D01*
G01X7055320Y1876020D02*
Y1893800D01*
G01X7052780Y1870940D02*
Y1891260D01*
G01X7286460Y1106400D02*
Y1169900D01*
G01X7283920Y1103860D02*
Y1167360D01*
G01X7281380Y1101320D02*
Y1164820D01*
G01X7278840Y1101320D02*
Y1164820D01*
G01X7276300Y1098780D02*
Y1159740D01*
G01X7273760Y1096240D02*
Y1159740D01*
G01X7271220Y1096240D02*
Y1154660D01*
G01X7268680Y1093700D02*
Y1154660D01*
G01X7266140Y1091160D02*
Y1152120D01*
G01X7263600Y1088620D02*
Y1149580D01*
G01X7261060Y1088620D02*
Y1147040D01*
G01X7258520Y1086080D02*
Y1147040D01*
G01Y1182600D02*
Y1258800D01*
G01X7255980Y1086080D02*
Y1144500D01*
G01Y1172440D02*
Y1174980D01*
G01Y1177520D02*
Y1266420D01*
G01X7253440Y1083540D02*
Y1129260D01*
G01Y1131800D02*
Y1139420D01*
G01Y1167360D02*
Y1271500D01*
G01X7250900Y1083540D02*
Y1139420D01*
G01Y1162280D02*
Y1276580D01*
G01X7248360Y1081000D02*
Y1126720D01*
G01Y1129260D02*
Y1139420D01*
G01Y1154660D02*
Y1281660D01*
G01X7245820Y1081000D02*
Y1124180D01*
G01Y1129260D02*
Y1136880D01*
G01Y1149580D02*
Y1286740D01*
G01X7243280Y1078460D02*
Y1121640D01*
G01Y1126720D02*
Y1134340D01*
G01Y1144500D02*
Y1291820D01*
G01X7240740Y1078460D02*
Y1119100D01*
G01Y1124180D02*
Y1134340D01*
G01Y1139420D02*
Y1294360D01*
G01X7238200Y1075920D02*
Y1116560D01*
G01Y1124180D02*
Y1131800D01*
G01Y1134340D02*
Y1299440D01*
G01X7235660Y1073380D02*
Y1116560D01*
G01Y1121640D02*
Y1129260D01*
G01Y1131800D02*
Y1301980D01*
G01X7233120Y1073380D02*
Y1114020D01*
G01Y1129260D02*
Y1304520D01*
G01X7230580Y1070840D02*
Y1111480D01*
G01Y1124180D02*
Y1192760D01*
G01X7228040Y1070840D02*
Y1111480D01*
G01Y1124180D02*
Y1182600D01*
G01X7225500Y1070840D02*
Y1106400D01*
G01Y1119100D02*
Y1172440D01*
G01X7222960Y1068300D02*
Y1091160D01*
G01Y1093700D02*
Y1106400D01*
G01Y1116560D02*
Y1167360D01*
G01X7220420Y1068300D02*
Y1088620D01*
G01Y1093700D02*
Y1101320D01*
G01Y1114020D02*
Y1159740D01*
G01X7217880Y1068300D02*
Y1088620D01*
G01Y1091160D02*
Y1101320D01*
G01Y1111480D02*
Y1157200D01*
G01X7215340Y1068300D02*
Y1101320D01*
G01Y1108940D02*
Y1152120D01*
G01X7212800Y1065760D02*
Y1086080D01*
G01Y1088620D02*
Y1098780D01*
G01Y1106400D02*
Y1147040D01*
G01X7210260Y1065760D02*
Y1083540D01*
G01Y1088620D02*
Y1096240D01*
G01Y1103860D02*
Y1144500D01*
G01X7207720Y1065760D02*
Y1083540D01*
G01Y1086080D02*
Y1096240D01*
G01Y1101320D02*
Y1139420D01*
G01X7205180Y1063220D02*
Y1093700D01*
G01Y1098780D02*
Y1136880D01*
G01X7202640Y1063220D02*
Y1081000D01*
G01Y1086080D02*
Y1088620D01*
G01Y1096240D02*
Y1134340D01*
G01X7200100Y1063220D02*
Y1081000D01*
G01Y1086080D02*
Y1088620D01*
G01Y1096240D02*
Y1131800D01*
G01X7197560Y1063220D02*
Y1078460D01*
G01Y1096240D02*
Y1129260D01*
G01X7195020Y1063220D02*
Y1078460D01*
G01Y1091160D02*
Y1126720D01*
G01X7192480Y1063220D02*
Y1078460D01*
G01Y1088620D02*
Y1124180D01*
G01X7189940Y1063220D02*
Y1075920D01*
G01Y1088620D02*
Y1119100D01*
G01X7187400Y1063220D02*
Y1073380D01*
G01Y1086080D02*
Y1119100D01*
G01X7184860Y1063220D02*
Y1073380D01*
G01Y1086080D02*
Y1116560D01*
G01X7182320Y1063220D02*
Y1073380D01*
G01Y1083540D02*
Y1114020D01*
G01X7179780Y1063220D02*
Y1070840D01*
G01Y1083540D02*
Y1114020D01*
G01X7177240Y1063220D02*
Y1070840D01*
G01Y1083540D02*
Y1114020D01*
G01X7174700Y1063220D02*
Y1070840D01*
G01Y1078460D02*
Y1108940D01*
G01X7172160Y1063220D02*
Y1070840D01*
G01Y1078460D02*
Y1108940D01*
G01X7169620Y1063220D02*
Y1070840D01*
G01Y1078460D02*
Y1106400D01*
G01X7167080Y1063220D02*
Y1068300D01*
G01Y1078460D02*
Y1106400D01*
G01X7164540Y1063220D02*
Y1068300D01*
G01Y1078460D02*
Y1103860D01*
G01X7162000Y1075920D02*
Y1101320D01*
G01X7159460Y1073380D02*
Y1101320D01*
G01X7156920Y1073380D02*
Y1101320D01*
G01X7154380Y1073380D02*
Y1098780D01*
G01X7151840Y1070840D02*
Y1098780D01*
G01X7149300Y1070840D02*
Y1098780D01*
G01X7146760Y1070840D02*
Y1096240D01*
G01X7144220Y1070840D02*
Y1096240D01*
G01X7141680Y1070840D02*
Y1096240D01*
G01X7139140Y1070840D02*
Y1096240D01*
G01X7136600Y1070840D02*
Y1096240D01*
G01X7134060Y1068300D02*
Y1096240D01*
G01X7131520Y1068300D02*
Y1096240D01*
G01X7128980Y1068300D02*
Y1096240D01*
G01X7126440Y1068300D02*
Y1096240D01*
G01X7123900Y1068300D02*
Y1093700D01*
G01X7121360Y1068300D02*
Y1093700D01*
G01X7118820Y1068300D02*
Y1093700D01*
G01X7261060Y1197840D02*
Y1241020D01*
G01X7230580Y1238480D02*
Y1309600D01*
G01Y1327380D02*
Y1335000D01*
G01X7228040Y1246100D02*
Y1312140D01*
G01Y1327380D02*
Y1337540D01*
G01X7225500Y1258800D02*
Y1314680D01*
G01Y1329920D02*
Y1342620D01*
G01X7222960Y1261340D02*
Y1314680D01*
G01Y1332460D02*
Y1347700D01*
G01X7220420Y1268960D02*
Y1317220D01*
G01Y1335000D02*
Y1357860D01*
G01X7217880Y1274040D02*
Y1319760D01*
G01Y1337540D02*
Y1362940D01*
G01X7215340Y1276580D02*
Y1322300D01*
G01Y1337540D02*
Y1370560D01*
G01X7212800Y1281660D02*
Y1324840D01*
G01Y1340080D02*
Y1385800D01*
G01X7210260Y1284200D02*
Y1324840D01*
G01Y1342620D02*
Y1393420D01*
G01X7207720Y1286740D02*
Y1327380D01*
G01Y1342620D02*
Y1502640D01*
G01X7205180Y1289280D02*
Y1329920D01*
G01Y1345160D02*
Y1500100D01*
G01X7202640Y1291820D02*
Y1329920D01*
G01Y1345160D02*
Y1495020D01*
G01X7200100Y1294360D02*
Y1332460D01*
G01Y1347700D02*
Y1489940D01*
G01X7197560Y1296900D02*
Y1335000D01*
G01Y1347700D02*
Y1487400D01*
G01X7195020Y1299440D02*
Y1335000D01*
G01Y1350240D02*
Y1479780D01*
G01X7192480Y1299440D02*
Y1335000D01*
G01Y1352780D02*
Y1474700D01*
G01X7189940Y1301980D02*
Y1335000D01*
G01Y1352780D02*
Y1469620D01*
G01X7187400Y1304520D02*
Y1337540D01*
G01Y1352780D02*
Y1462000D01*
G01X7184860Y1307060D02*
Y1340080D01*
G01Y1352780D02*
Y1454380D01*
G01X7182320Y1307060D02*
Y1340080D01*
G01Y1352780D02*
Y1449300D01*
G01X7179780Y1307060D02*
Y1340080D01*
G01Y1355320D02*
Y1403580D01*
G01X7177240Y1309600D02*
Y1342620D01*
G01Y1355320D02*
Y1406120D01*
G01X7174700Y1312140D02*
Y1342620D01*
G01Y1355320D02*
Y1472160D01*
G01X7172160Y1312140D02*
Y1342620D01*
G01Y1355320D02*
Y1469620D01*
G01X7169620Y1312140D02*
Y1342620D01*
G01Y1355320D02*
Y1464540D01*
G01X7167080Y1312140D02*
Y1342620D01*
G01Y1357860D02*
Y1456920D01*
G01X7164540Y1312140D02*
Y1342620D01*
G01Y1357860D02*
Y1454380D01*
G01X7162000Y1314680D02*
Y1345160D01*
G01Y1357860D02*
Y1446760D01*
G01X7159460Y1314680D02*
Y1345160D01*
G01Y1357860D02*
Y1439140D01*
G01X7156920Y1317220D02*
Y1345160D01*
G01Y1357860D02*
Y1426440D01*
G01X7154380Y1317220D02*
Y1345160D01*
G01Y1357860D02*
Y1393420D01*
G01X7151840Y1317220D02*
Y1345160D01*
G01Y1357860D02*
Y1393420D01*
G01X7149300Y1317220D02*
Y1345160D01*
G01Y1355320D02*
Y1408660D01*
G01X7146760Y1317220D02*
Y1345160D01*
G01Y1355320D02*
Y1441680D01*
G01X7144220Y1317220D02*
Y1345160D01*
G01Y1355320D02*
Y1436600D01*
G01X7141680Y1317220D02*
Y1345160D01*
G01Y1355320D02*
Y1431520D01*
G01X7139140Y1317220D02*
Y1345160D01*
G01Y1355320D02*
Y1421360D01*
G01X7136600Y1317220D02*
Y1342620D01*
G01Y1355320D02*
Y1418820D01*
G01X7134060Y1317220D02*
Y1345160D01*
G01Y1355320D02*
Y1408660D01*
G01X7131520Y1317220D02*
Y1342620D01*
G01Y1352780D02*
Y1393420D01*
G01X7128980Y1317220D02*
Y1342620D01*
G01Y1352780D02*
Y1370560D01*
G01X7126440Y1317220D02*
Y1342620D01*
G01Y1352780D02*
Y1368020D01*
G01X7123900Y1317220D02*
Y1342620D01*
G01Y1352780D02*
Y1368020D01*
G01X7121360Y1314680D02*
Y1342620D01*
G01Y1352780D02*
Y1365480D01*
G01X7118820Y1314680D02*
Y1342620D01*
G01Y1350240D02*
Y1365480D01*
G01X7243280Y1525500D02*
Y1545820D01*
G01X7240740Y1520420D02*
Y1543280D01*
G01X7238200Y1512800D02*
Y1540740D01*
G01X7235660Y1510260D02*
Y1538200D01*
G01X7233120Y1507720D02*
Y1535660D01*
G01X7230580Y1500100D02*
Y1533120D01*
G01X7228040Y1495020D02*
Y1530580D01*
G01X7225500Y1487400D02*
Y1525500D01*
G01X7222960Y1482320D02*
Y1522960D01*
G01X7220420Y1472160D02*
Y1520420D01*
G01X7217880Y1467080D02*
Y1517880D01*
G01X7215340Y1459460D02*
Y1515340D01*
G01X7212800Y1441680D02*
Y1510260D01*
G01X7210260Y1431520D02*
Y1507720D01*
G01X7192480Y1489940D02*
Y1495020D01*
G01X7189940Y1484860D02*
Y1495020D01*
G01X7187400Y1479780D02*
Y1489940D01*
G01X7184860Y1474700D02*
Y1489940D01*
G01X7182320Y1472160D02*
Y1487400D01*
G01X7179780Y1462000D02*
Y1479780D01*
G01X7177240Y1454380D02*
Y1477240D01*
G01X7154380Y1403580D02*
Y1418820D01*
G01Y1444220D02*
Y1449300D01*
G01X7151840Y1436600D02*
Y1449300D01*
G01X7149300Y1423900D02*
Y1446760D01*
G01X7286460Y1644880D02*
Y1690600D01*
G01X7283920Y1642340D02*
Y1690600D01*
G01X7281380Y1642340D02*
Y1690600D01*
G01X7278840Y1642340D02*
Y1690600D01*
G01X7276300Y1639800D02*
Y1690600D01*
G01X7273760Y1639800D02*
Y1690600D01*
G01X7271220Y1637260D02*
Y1690600D01*
G01X7268680Y1637260D02*
Y1688060D01*
G01X7266140Y1634720D02*
Y1688060D01*
G01X7263600Y1558520D02*
Y1561060D01*
G01Y1634720D02*
Y1688060D01*
G01X7261060Y1555980D02*
Y1563600D01*
G01Y1632180D02*
Y1688060D01*
G01X7258520Y1550900D02*
Y1561060D01*
G01Y1629640D02*
Y1685520D01*
G01X7255980Y1548360D02*
Y1558520D01*
G01Y1627100D02*
Y1682980D01*
G01X7253440Y1543280D02*
Y1555980D01*
G01Y1624560D02*
Y1682980D01*
G01X7250900Y1540740D02*
Y1553440D01*
G01Y1622020D02*
Y1682980D01*
G01X7248360Y1535660D02*
Y1550900D01*
G01Y1619480D02*
Y1680440D01*
G01X7245820Y1530580D02*
Y1548360D01*
G01Y1614400D02*
Y1677900D01*
G01X7243280Y1609320D02*
Y1677900D01*
G01Y1693140D02*
Y1843000D01*
G01X7240740Y1604240D02*
Y1675360D01*
G01Y1688060D02*
Y1845540D01*
G01X7238200Y1599160D02*
Y1672820D01*
G01Y1682980D02*
Y1848080D01*
G01X7235660Y1594080D02*
Y1670280D01*
G01Y1682980D02*
Y1853160D01*
G01X7233120Y1591540D02*
Y1667740D01*
G01Y1680440D02*
Y1855700D01*
G01X7230580Y1586460D02*
Y1662660D01*
G01Y1672820D02*
Y1741400D01*
G01X7228040Y1583920D02*
Y1660120D01*
G01Y1670280D02*
Y1733780D01*
G01X7225500Y1581380D02*
Y1652500D01*
G01Y1667740D02*
Y1723620D01*
G01X7222960Y1578840D02*
Y1649960D01*
G01Y1665200D02*
Y1718540D01*
G01X7220420Y1573760D02*
Y1642340D01*
G01Y1662660D02*
Y1710920D01*
G01X7217880Y1573760D02*
Y1639800D01*
G01Y1660120D02*
Y1705840D01*
G01X7215340Y1571220D02*
Y1637260D01*
G01Y1657580D02*
Y1703300D01*
G01X7212800Y1568680D02*
Y1632180D01*
G01Y1655040D02*
Y1695680D01*
G01X7210260Y1566140D02*
Y1627100D01*
G01Y1652500D02*
Y1695680D01*
G01X7207720Y1563600D02*
Y1624560D01*
G01Y1649960D02*
Y1688060D01*
G01X7205180Y1563600D02*
Y1622020D01*
G01Y1649960D02*
Y1688060D01*
G01X7202640Y1561060D02*
Y1616940D01*
G01Y1644880D02*
Y1682980D01*
G01X7200100Y1558520D02*
Y1614400D01*
G01Y1644880D02*
Y1680440D01*
G01X7197560Y1558520D02*
Y1611860D01*
G01Y1644880D02*
Y1677900D01*
G01X7195020Y1555980D02*
Y1609320D01*
G01Y1642340D02*
Y1675360D01*
G01X7192480Y1555980D02*
Y1604240D01*
G01Y1639800D02*
Y1672820D01*
G01X7189940Y1553440D02*
Y1604240D01*
G01Y1637260D02*
Y1670280D01*
G01X7187400Y1553440D02*
Y1601700D01*
G01Y1637260D02*
Y1667740D01*
G01X7184860Y1553440D02*
Y1599160D01*
G01Y1634720D02*
Y1667740D01*
G01X7182320Y1553440D02*
Y1596620D01*
G01Y1634720D02*
Y1665200D01*
G01X7179780Y1550900D02*
Y1594080D01*
G01Y1632180D02*
Y1662660D01*
G01X7177240Y1550900D02*
Y1591540D01*
G01Y1632180D02*
Y1662660D01*
G01X7174700Y1548360D02*
Y1589000D01*
G01Y1629640D02*
Y1660120D01*
G01X7172160Y1548360D02*
Y1589000D01*
G01Y1627100D02*
Y1657580D01*
G01X7169620Y1548360D02*
Y1586460D01*
G01Y1627100D02*
Y1655040D01*
G01X7167080Y1548360D02*
Y1586460D01*
G01Y1627100D02*
Y1655040D01*
G01X7164540Y1548360D02*
Y1586460D01*
G01Y1624560D02*
Y1655040D01*
G01X7162000Y1548360D02*
Y1583920D01*
G01Y1624560D02*
Y1652500D01*
G01X7159460Y1548360D02*
Y1583920D01*
G01Y1624560D02*
Y1652500D01*
G01X7156920Y1548360D02*
Y1581380D01*
G01Y1622020D02*
Y1649960D01*
G01X7154380Y1548360D02*
Y1581380D01*
G01Y1622020D02*
Y1649960D01*
G01X7151840Y1548360D02*
Y1581380D01*
G01Y1622020D02*
Y1649960D01*
G01X7149300Y1548360D02*
Y1581380D01*
G01Y1619480D02*
Y1647420D01*
G01X7146760Y1548360D02*
Y1581380D01*
G01Y1619480D02*
Y1647420D01*
G01X7144220Y1548360D02*
Y1581380D01*
G01Y1619480D02*
Y1644880D01*
G01X7141680Y1550900D02*
Y1581380D01*
G01Y1619480D02*
Y1644880D01*
G01X7139140Y1550900D02*
Y1581380D01*
G01Y1619480D02*
Y1644880D01*
G01X7136600Y1550900D02*
Y1581380D01*
G01Y1619480D02*
Y1644880D01*
G01X7134060Y1550900D02*
Y1581380D01*
G01Y1619480D02*
Y1644880D01*
G01X7131520Y1553440D02*
Y1581380D01*
G01Y1619480D02*
Y1644880D01*
G01X7128980Y1553440D02*
Y1583920D01*
G01Y1616940D02*
Y1644880D01*
G01X7126440Y1553440D02*
Y1583920D01*
G01Y1616940D02*
Y1644880D01*
G01X7123900Y1553440D02*
Y1586460D01*
G01Y1616940D02*
Y1644880D01*
G01X7121360Y1555980D02*
Y1586460D01*
G01Y1616940D02*
Y1644880D01*
G01X7118820Y1558520D02*
Y1586460D01*
G01Y1619480D02*
Y1644880D01*
G01X7261060Y1746480D02*
Y1794740D01*
G01X7258520Y1731240D02*
Y1807440D01*
G01X7255980Y1721080D02*
Y1723620D01*
G01Y1726160D02*
Y1812520D01*
G01Y1815060D02*
Y1817600D01*
G01X7253440Y1716000D02*
Y1822680D01*
G01X7250900Y1710920D02*
Y1827760D01*
G01X7248360Y1703300D02*
Y1832840D01*
G01X7245820Y1700760D02*
Y1837920D01*
G01X7230580Y1789660D02*
Y1858240D01*
G01X7228040Y1794740D02*
Y1860780D01*
G01X7225500Y1807440D02*
Y1863320D01*
G01X7222960Y1809980D02*
Y1865860D01*
G01X7220420Y1820140D02*
Y1868400D01*
G01X7217880Y1820140D02*
Y1870940D01*
G01X7215340Y1825220D02*
Y1873480D01*
G01X7212800Y1830300D02*
Y1873480D01*
G01X7210260Y1832840D02*
Y1876020D01*
G01X7207720Y1837920D02*
Y1878560D01*
G01X7205180Y1840460D02*
Y1878560D01*
G01X7202640Y1843000D02*
Y1881100D01*
G01X7200100Y1843000D02*
Y1881100D01*
G01X7197560Y1845540D02*
Y1883640D01*
G01X7195020Y1848080D02*
Y1883640D01*
G01X7192480Y1850620D02*
Y1886180D01*
G01X7189940Y1853160D02*
Y1886180D01*
G01X7187400Y1855700D02*
Y1886180D01*
G01X7184860Y1855700D02*
Y1888720D01*
G01X7182320Y1855700D02*
Y1891260D01*
G01X7179780Y1858240D02*
Y1891260D01*
G01X7177240Y1858240D02*
Y1891260D01*
G01X7174700Y1860780D02*
Y1891260D01*
G01X7172160Y1860780D02*
Y1891260D01*
G01X7169620Y1860780D02*
Y1891260D01*
G01X7167080Y1860780D02*
Y1893800D01*
G01X7164540Y1863320D02*
Y1893800D01*
G01X7162000Y1863320D02*
Y1893800D01*
G01X7159460Y1865860D02*
Y1893800D01*
G01X7156920Y1865860D02*
Y1893800D01*
G01X7154380Y1865860D02*
Y1893800D01*
G01X7151840Y1865860D02*
Y1896340D01*
G01X7149300Y1865860D02*
Y1896340D01*
G01X7146760Y1865860D02*
Y1896340D01*
G01X7144220Y1865860D02*
Y1893800D01*
G01X7141680Y1865860D02*
Y1893800D01*
G01X7139140Y1865860D02*
Y1893800D01*
G01X7136600Y1865860D02*
Y1893800D01*
G01X7134060Y1865860D02*
Y1893800D01*
G01X7131520Y1865860D02*
Y1893800D01*
G01X7128980Y1865860D02*
Y1893800D01*
G01X7126440Y1865860D02*
Y1891260D01*
G01X7123900Y1865860D02*
Y1891260D01*
G01X7121360Y1865860D02*
Y1891260D01*
G01X7118820Y1865860D02*
Y1891260D01*
G01X7456640Y1167360D02*
Y1248640D01*
G01X7454100Y1159740D02*
Y1235940D01*
G01X7451560Y1157200D02*
Y1230860D01*
G01X7449020Y1152120D02*
Y1223240D01*
G01X7446480Y1144500D02*
Y1261340D01*
G01X7443940Y1139420D02*
Y1248640D01*
G01X7441400Y1136880D02*
Y1243560D01*
G01X7438860Y1134340D02*
Y1241020D01*
G01X7436320Y1129260D02*
Y1271500D01*
G01X7433780Y1124180D02*
Y1266420D01*
G01X7431240Y1119100D02*
Y1258800D01*
G01X7428700Y1116560D02*
Y1248640D01*
G01X7426160Y1114020D02*
Y1241020D01*
G01X7423620Y1111480D02*
Y1235940D01*
G01X7421080Y1106400D02*
Y1230860D01*
G01X7418540Y1103860D02*
Y1223240D01*
G01X7416000Y1103860D02*
Y1220700D01*
G01X7413460Y1101320D02*
Y1215620D01*
G01X7410920Y1101320D02*
Y1210540D01*
G01X7408380Y1096240D02*
Y1205460D01*
G01X7405840Y1096240D02*
Y1200380D01*
G01X7403300Y1093700D02*
Y1195300D01*
G01X7400760Y1093700D02*
Y1192760D01*
G01X7398220Y1091160D02*
Y1187680D01*
G01X7395680Y1088620D02*
Y1185140D01*
G01X7393140Y1088620D02*
Y1182600D01*
G01X7390600Y1088620D02*
Y1177520D01*
G01X7388060Y1088620D02*
Y1174980D01*
G01X7385520Y1086080D02*
Y1169900D01*
G01X7382980Y1083540D02*
Y1167360D01*
G01X7380440Y1083540D02*
Y1162280D01*
G01X7377900Y1083540D02*
Y1159740D01*
G01X7375360Y1083540D02*
Y1159740D01*
G01X7372820Y1083540D02*
Y1154660D01*
G01X7370280Y1083540D02*
Y1152120D01*
G01X7367740Y1081000D02*
Y1147040D01*
G01Y1187680D02*
Y1263880D01*
G01X7365200Y1081000D02*
Y1147040D01*
G01Y1185140D02*
Y1261340D01*
G01X7362660Y1081000D02*
Y1144500D01*
G01Y1182600D02*
Y1256260D01*
G01X7360120Y1081000D02*
Y1141960D01*
G01Y1180060D02*
Y1253720D01*
G01X7357580Y1081000D02*
Y1139420D01*
G01Y1177520D02*
Y1248640D01*
G01X7355040Y1081000D02*
Y1139420D01*
G01Y1172440D02*
Y1246100D01*
G01X7352500Y1081000D02*
Y1136880D01*
G01Y1167360D02*
Y1241020D01*
G01X7349960Y1081000D02*
Y1134340D01*
G01Y1164820D02*
Y1238480D01*
G01X7347420Y1081000D02*
Y1131800D01*
G01Y1162280D02*
Y1233400D01*
G01X7344880Y1081000D02*
Y1129260D01*
G01Y1159740D02*
Y1233400D01*
G01X7342340Y1081000D02*
Y1129260D01*
G01Y1157200D02*
Y1230860D01*
G01X7339800Y1083540D02*
Y1126720D01*
G01Y1152120D02*
Y1225780D01*
G01X7337260Y1083540D02*
Y1126720D01*
G01Y1152120D02*
Y1223240D01*
G01X7334720Y1083540D02*
Y1124180D01*
G01Y1147040D02*
Y1220700D01*
G01X7332180Y1086080D02*
Y1124180D01*
G01Y1147040D02*
Y1218160D01*
G01X7329640Y1088620D02*
Y1121640D01*
G01Y1144500D02*
Y1215620D01*
G01X7327100Y1088620D02*
Y1119100D01*
G01Y1139420D02*
Y1210540D01*
G01X7324560Y1091160D02*
Y1119100D01*
G01Y1139420D02*
Y1210540D01*
G01X7322020Y1096240D02*
Y1114020D01*
G01Y1134340D02*
Y1205460D01*
G01X7319480Y1098780D02*
Y1111480D01*
G01Y1134340D02*
Y1202920D01*
G01X7316940Y1129260D02*
Y1197840D01*
G01X7314400Y1129260D02*
Y1197840D01*
G01X7311860Y1126720D02*
Y1195300D01*
G01X7309320Y1124180D02*
Y1192760D01*
G01X7306780Y1121640D02*
Y1190220D01*
G01X7304240Y1119100D02*
Y1185140D01*
G01X7301700Y1116560D02*
Y1185140D01*
G01X7299160Y1114020D02*
Y1182600D01*
G01X7296620Y1114020D02*
Y1180060D01*
G01X7294080Y1111480D02*
Y1177520D01*
G01X7291540Y1108940D02*
Y1174980D01*
G01X7289000Y1106400D02*
Y1169900D01*
G01X7454100Y1256260D02*
Y1271500D01*
G01X7451560Y1246100D02*
Y1274040D01*
G01X7449020Y1225780D02*
Y1263880D01*
G01Y1289280D02*
Y1324840D01*
G01X7446480Y1274040D02*
Y1324840D01*
G01X7443940Y1256260D02*
Y1307060D01*
G01X7441400Y1248640D02*
Y1299440D01*
G01X7438860Y1243560D02*
Y1286740D01*
G01X7433780Y1352780D02*
Y1477240D01*
G01X7431240Y1332460D02*
Y1497560D01*
G01X7428700Y1324840D02*
Y1507720D01*
G01X7426160Y1307060D02*
Y1515340D01*
G01X7423620Y1304520D02*
Y1522960D01*
G01X7421080Y1296900D02*
Y1525500D01*
G01X7418540Y1286740D02*
Y1388340D01*
G01X7416000Y1276580D02*
Y1380720D01*
G01X7413460Y1274040D02*
Y1365480D01*
G01X7410920Y1266420D02*
Y1357860D01*
G01X7408380Y1258800D02*
Y1345160D01*
G01Y1350240D02*
Y1505180D01*
G01X7405840Y1256260D02*
Y1340080D01*
G01Y1347700D02*
Y1505180D01*
G01X7403300Y1248640D02*
Y1332460D01*
G01Y1337540D02*
Y1370560D01*
G01X7400760Y1243560D02*
Y1324840D01*
G01Y1337540D02*
Y1355320D01*
G01X7398220Y1235940D02*
Y1317220D01*
G01X7395680Y1233400D02*
Y1314680D01*
G01X7393140Y1230860D02*
Y1312140D01*
G01X7390600Y1223240D02*
Y1301980D01*
G01X7388060Y1220700D02*
Y1299440D01*
G01X7385520Y1215620D02*
Y1294360D01*
G01X7382980Y1213080D02*
Y1289280D01*
G01X7380440Y1208000D02*
Y1284200D01*
G01X7377900Y1202920D02*
Y1281660D01*
G01X7375360Y1202920D02*
Y1279120D01*
G01X7372820Y1197840D02*
Y1271500D01*
G01X7370280Y1192760D02*
Y1268960D01*
G01X7438860Y1406120D02*
Y1421360D01*
G01X7436320Y1362940D02*
Y1467080D01*
G01X7421080Y1528040D02*
Y1530580D01*
G01X7418540Y1456920D02*
Y1538200D01*
G01X7416000Y1393420D02*
Y1398500D01*
G01Y1406120D02*
Y1444220D01*
G01Y1456920D02*
Y1548360D01*
G01X7413460Y1380720D02*
Y1472160D01*
G01Y1487400D02*
Y1550900D01*
G01X7410920Y1370560D02*
Y1484860D01*
G01Y1497560D02*
Y1555980D01*
G01X7408380Y1510260D02*
Y1563600D01*
G01X7405840Y1515340D02*
Y1566140D01*
G01X7403300Y1456920D02*
Y1517880D01*
G01Y1528040D02*
Y1573760D01*
G01X7400760Y1472160D02*
Y1522960D01*
G01X7398220Y1489940D02*
Y1533120D01*
G01X7395680Y1497560D02*
Y1535660D01*
G01X7393140Y1505180D02*
Y1540740D01*
G01X7390600Y1517880D02*
Y1550900D01*
G01X7388060Y1520420D02*
Y1553440D01*
G01X7400760Y1533120D02*
Y1578840D01*
G01X7398220Y1540740D02*
Y1586460D01*
G01X7395680Y1545820D02*
Y1589000D01*
G01X7393140Y1550900D02*
Y1591540D01*
G01X7390600Y1558520D02*
Y1599160D01*
G01X7388060Y1561060D02*
Y1604240D01*
G01X7385520Y1530580D02*
Y1561060D01*
G01Y1566140D02*
Y1609320D01*
G01X7382980Y1535660D02*
Y1566140D01*
G01Y1568680D02*
Y1609320D01*
G01X7380440Y1543280D02*
Y1571220D01*
G01Y1573760D02*
Y1616940D01*
G01X7377900Y1548360D02*
Y1573760D01*
G01Y1578840D02*
Y1619480D01*
G01X7375360Y1550900D02*
Y1576300D01*
G01Y1581380D02*
Y1622020D01*
G01X7372820Y1555980D02*
Y1581380D01*
G01Y1586460D02*
Y1627100D01*
G01X7370280Y1561060D02*
Y1632180D01*
G01X7367740Y1566140D02*
Y1589000D01*
G01Y1591540D02*
Y1634720D01*
G01X7365200Y1568680D02*
Y1591540D01*
G01Y1596620D02*
Y1637260D01*
G01X7362660Y1573760D02*
Y1594080D01*
G01Y1599160D02*
Y1642340D01*
G01X7360120Y1576300D02*
Y1596620D01*
G01Y1601700D02*
Y1644880D01*
G01X7357580Y1581380D02*
Y1599160D01*
G01Y1604240D02*
Y1649960D01*
G01X7355040Y1586460D02*
Y1601700D01*
G01Y1606780D02*
Y1649960D01*
G01X7352500Y1589000D02*
Y1604240D01*
G01Y1609320D02*
Y1652500D01*
G01X7349960Y1591540D02*
Y1604240D01*
G01Y1611860D02*
Y1655040D01*
G01X7347420Y1594080D02*
Y1606780D01*
G01Y1614400D02*
Y1660120D01*
G01X7344880Y1596620D02*
Y1606780D01*
G01Y1616940D02*
Y1662660D01*
G01X7342340Y1599160D02*
Y1604240D01*
G01Y1616940D02*
Y1662660D01*
G01X7339800Y1619480D02*
Y1667740D01*
G01X7337260Y1622020D02*
Y1667740D01*
G01X7334720Y1624560D02*
Y1670280D01*
G01X7332180Y1627100D02*
Y1672820D01*
G01X7329640Y1627100D02*
Y1672820D01*
G01X7327100Y1632180D02*
Y1675360D01*
G01X7324560Y1632180D02*
Y1677900D01*
G01X7322020Y1634720D02*
Y1680440D01*
G01X7319480Y1637260D02*
Y1680440D01*
G01X7316940Y1637260D02*
Y1682980D01*
G01X7314400Y1637260D02*
Y1682980D01*
G01X7311860Y1637260D02*
Y1682980D01*
G01X7309320Y1639800D02*
Y1685520D01*
G01X7306780Y1642340D02*
Y1688060D01*
G01X7304240Y1642340D02*
Y1688060D01*
G01X7301700Y1642340D02*
Y1688060D01*
G01X7299160Y1644880D02*
Y1688060D01*
G01X7296620Y1644880D02*
Y1688060D01*
G01X7294080Y1642340D02*
Y1690600D01*
G01X7291540Y1642340D02*
Y1690600D01*
G01X7289000Y1644880D02*
Y1690600D01*
G01X7464260Y1185140D02*
Y1268960D01*
G01X7461720Y1177520D02*
Y1258800D01*
G01X7459180Y1172440D02*
Y1251180D01*
G01X7487120Y1304520D02*
Y1393420D01*
G01X7484580Y1276580D02*
Y1393420D01*
G01X7482040Y1256260D02*
Y1385800D01*
G01X7479500Y1248640D02*
Y1357860D01*
G01X7476960Y1230860D02*
Y1329920D01*
G01X7474420Y1220700D02*
Y1317220D01*
G01X7471880Y1208000D02*
Y1307060D01*
G01X7469340Y1202920D02*
Y1291820D01*
G01X7466800Y1192760D02*
Y1281660D01*
G54D13*
G01X686600Y1278100D02*
X11600D01*
Y2578100D01*
X2711600D01*
Y1278100D01*
X686600D01*
G01X431800Y1409700D02*
X76200D01*
Y1562100D01*
X228600D01*
Y1714500D01*
X76200D01*
Y1866900D01*
X228600D01*
Y2019300D01*
X76200D01*
Y2171700D01*
X228600D01*
Y2324100D01*
X76200D01*
Y2476500D01*
G01X150200Y3908300D02*
G03I-40000J0D01*
G01X425200D02*
G03I-40000J0D01*
G01X511600Y2578100D02*
Y1278100D01*
G01X1680000Y350000D02*
X1790000Y460000D01*
Y630000D01*
X1750000D01*
X1790000Y670000D01*
X1830000Y630000D01*
X1770000D01*
X1790000Y650000D01*
G54D14*
G01X330010Y4940290D02*
X7180010Y4940010D01*
G02X7510000Y4610010I-9J-329999D01*
G01Y330000D01*
G02X7180000Y0I-330000J0D01*
G01X330000D01*
G02X0Y330000I0J330000D01*
G01Y4610290D01*
G02X330010Y4940290I330001J-1D01*
G01X5375880Y2506640D02*
Y2323760D01*
X5746720D01*
Y2506640D01*
X5375880D01*
G01X5765420Y4098560D02*
Y4281440D01*
X5394580D01*
Y4098560D01*
X5765420D01*
G01X5561300Y2364400D02*
Y2466000D01*
G01X5580000Y4240800D02*
Y4139200D01*
M02*
