G04 ================== begin FILE IDENTIFICATION RECORD ==================*
G04 Layout Name:  E:/GitHub/39_CUITBIKE/v1.2/PCB/CUITBIKE_V1.1_MSP430.brd*
G04 Film Name:    SilkScreen_Top*
G04 File Format:  Gerber RS274X*
G04 File Origin:  Cadence Allegro 16.6-2015-S071*
G04 Origin Date:  Tue Nov 22 19:55:17 2016*
G04 *
G04 Layer:  BOARD GEOMETRY/OUTLINE*
G04 Layer:  REF DES/SILKSCREEN_TOP*
G04 Layer:  PACKAGE GEOMETRY/SILKSCREEN_TOP*
G04 Layer:  BOARD GEOMETRY/SILKSCREEN_TOP*
G04 *
G04 Offset:    (0.0000 0.0000)*
G04 Mirror:    No*
G04 Mode:      Positive*
G04 Rotation:  0*
G04 FullContactRelief:  No*
G04 UndefLineWidth:     0.1524*
G04 ================== end FILE IDENTIFICATION RECORD ====================*
%FSLAX55Y55*MOMM*%
%IR0*IPPOS*OFA0.00000B0.00000*MIA0B0*SFA1.00000B1.00000*%
%ADD10C,.2032*%
%ADD11C,.17*%
%ADD12C,.127*%
%ADD13C,.254*%
%ADD14C,.1524*%
%ADD15C,.2029*%
%ADD16C,.1778*%
G75*
%LPD*%
G75*
G36*
G01X241300Y711200D02*
X292100D01*
Y762000D01*
X241300D01*
Y711200D01*
G37*
G36*
G01X582200Y3923500D02*
G03I-25400J0D01*
G37*
G36*
G01X796700Y4612640D02*
G03I-29620J0D01*
G37*
G36*
G01X980000Y2935000D02*
G03I-20000J0D01*
G37*
G36*
G01X1070000Y4680000D02*
Y4630000D01*
X1120000D01*
Y4680000D01*
X1070000D01*
G37*
G36*
G01X1269000Y839800D02*
G03I-30000J0D01*
G37*
G36*
G01X1755000Y1227640D02*
G03I-29620J0D01*
G37*
G36*
G01X1889700Y3815100D02*
G03I-20000J0D01*
G37*
G36*
G01X2136920Y2136300D02*
G03I-35920J0D01*
G37*
G36*
G01X2157980Y3890100D02*
G03I-28280J0D01*
G37*
G36*
G01X2740000Y30000D02*
X2960000D01*
X2850000Y140000D01*
X2740000Y30000D01*
G37*
G36*
G01X2975120Y2136300D02*
G03I-35920J0D01*
G37*
G36*
G01X3405000Y1227640D02*
G03I-29620J0D01*
G37*
G36*
G01X3930000Y1155000D02*
G03I-25000J0D01*
G37*
G36*
G01X3843930Y1606550D02*
G03I-41230J0D01*
G37*
G36*
G01X4114240Y3882360D02*
G03I-29620J0D01*
G37*
G36*
G01Y4242360D02*
G03I-29620J0D01*
G37*
G36*
G01X4283120Y3950800D02*
G03I-35920J0D01*
G37*
G36*
G01X4680000Y130000D02*
X4460000D01*
X4570000Y20000D01*
X4680000Y130000D01*
G37*
G36*
G01X4486320Y2136300D02*
G03I-35920J0D01*
G37*
G36*
G01X4787900Y2730500D02*
G03I-50800J0D01*
G37*
G36*
G01X6261100Y2742100D02*
Y4342100D01*
X5041100D01*
Y2742100D01*
X6261100D01*
G37*
G36*
G01X5493100Y1966900D02*
G03I-30000J0D01*
G37*
G36*
G01X5927000Y4836200D02*
Y4887000D01*
X5876200D01*
Y4836200D01*
X5927000D01*
G37*
G36*
G01X6452330Y2828100D02*
G03I-41230J0D01*
G37*
G36*
G01X7385910Y1715000D02*
G03I-70710J0D01*
G37*
G36*
G01X7208500Y4039400D02*
G03I-30000J0D01*
G37*
G54D10*
G01X372740Y1164190D02*
X376970Y1169270D01*
X380140Y1177730D01*
X382260Y1189590D01*
X380140Y1199750D01*
X375910Y1206520D01*
X368500Y1211600D01*
X339930D01*
Y1110000D01*
X374850D01*
X382260Y1116770D01*
X386500Y1126930D01*
X388610Y1138790D01*
X386500Y1150640D01*
X380140Y1160800D01*
X372740Y1164190D01*
X339930D01*
G01X421630Y1110000D02*
X448090Y1211600D01*
X474550Y1110000D01*
G01X465020Y1145560D02*
X431160D01*
G01X531910Y1211600D02*
Y1110000D01*
G01X507570Y1211600D02*
X556250D01*
G01X615730Y1110000D02*
Y1211600D01*
X603030Y1191280D01*
G01Y1110000D02*
X628430D01*
G01X458470Y3861600D02*
Y3788790D01*
X462700Y3773540D01*
X471170Y3763390D01*
X481750Y3760000D01*
X492330Y3763390D01*
X500800Y3773540D01*
X505030Y3788790D01*
Y3861600D01*
G01X565570Y3760000D02*
Y3861600D01*
X552870Y3841280D01*
G01Y3760000D02*
X578270D01*
G01X459520Y4093540D02*
X467990Y4085080D01*
X477520Y4080000D01*
X485980D01*
X494450Y4085080D01*
X500800Y4093540D01*
X503980Y4105400D01*
X501860Y4117250D01*
X496570Y4127410D01*
X487040Y4134190D01*
X474340Y4137570D01*
X466930Y4144350D01*
X463760Y4156200D01*
X465880Y4168050D01*
X471170Y4176520D01*
X478570Y4181600D01*
X485980D01*
X493390Y4178210D01*
X499740Y4169750D01*
G01X533820Y4181600D02*
X548640Y4080000D01*
X565570Y4181600D01*
X582500Y4080000D01*
X597320Y4181600D01*
G01X629280Y4122330D02*
X636690Y4134190D01*
X643040Y4140960D01*
X651510Y4144350D01*
X658920Y4140960D01*
X664210Y4134190D01*
X668440Y4124030D01*
X669500Y4112170D01*
X668440Y4102010D01*
X664210Y4091850D01*
X657860Y4083390D01*
X650450Y4080000D01*
X641980Y4083390D01*
X634570Y4093540D01*
X630340Y4108790D01*
X629280Y4125720D01*
X631400Y4147730D01*
X634570Y4159590D01*
X639860Y4171440D01*
X647270Y4179910D01*
X654680Y4181600D01*
X662090Y4178210D01*
X667380Y4169750D01*
G01X574230Y610000D02*
Y711600D01*
X601750Y626930D01*
X629270Y711600D01*
Y610000D01*
G01X663340D02*
Y711600D01*
G01X707800D02*
Y610000D01*
G01Y660800D02*
X663340D01*
G01X769390Y610000D02*
Y711600D01*
X756690Y691280D01*
G01Y610000D02*
X782090D01*
G01X701750Y1880000D02*
X693280Y1881690D01*
X685880Y1888460D01*
X679520Y1898630D01*
X675290Y1910480D01*
X673170Y1924030D01*
Y1937570D01*
X675290Y1951120D01*
X679520Y1962970D01*
X685880Y1973130D01*
X693280Y1979910D01*
X701750Y1981600D01*
X710220Y1979910D01*
X717620Y1973130D01*
X723980Y1962970D01*
X728210Y1951120D01*
X730330Y1937570D01*
Y1924030D01*
X728210Y1910480D01*
X723980Y1898630D01*
X717620Y1888460D01*
X710220Y1881690D01*
X701750Y1880000D01*
G01X710220Y1907090D02*
X722920Y1880000D01*
G01X785570D02*
Y1981600D01*
X772870Y1961280D01*
G01Y1880000D02*
X798270D01*
G01X548470Y3411600D02*
Y3338790D01*
X552700Y3323540D01*
X561170Y3313390D01*
X571750Y3310000D01*
X582330Y3313390D01*
X590800Y3323540D01*
X595030Y3338790D01*
Y3411600D01*
G01X633340Y3323540D02*
X641810Y3315080D01*
X651340Y3310000D01*
X659800D01*
X668270Y3315080D01*
X674620Y3323540D01*
X677800Y3335400D01*
X675680Y3347250D01*
X670390Y3357410D01*
X660860Y3364190D01*
X648160Y3367570D01*
X640750Y3374350D01*
X637580Y3386200D01*
X639700Y3398050D01*
X644990Y3406520D01*
X652390Y3411600D01*
X659800D01*
X667210Y3408210D01*
X673560Y3399750D01*
G01X747860Y3364190D02*
X752090Y3369270D01*
X755260Y3377730D01*
X757380Y3389590D01*
X755260Y3399750D01*
X751030Y3406520D01*
X743620Y3411600D01*
X715050D01*
Y3310000D01*
X749970D01*
X757380Y3316770D01*
X761620Y3326930D01*
X763730Y3338790D01*
X761620Y3350640D01*
X755260Y3360800D01*
X747860Y3364190D01*
X715050D01*
G01X823210Y3310000D02*
Y3411600D01*
X810510Y3391280D01*
G01Y3310000D02*
X835910D01*
G01X575030Y3683130D02*
X568680Y3688210D01*
X561280Y3691600D01*
X552810D01*
X543280Y3686520D01*
X535880Y3678050D01*
X530580Y3667890D01*
X526350Y3650960D01*
X525290Y3635720D01*
X527410Y3620480D01*
X530580Y3610320D01*
X536930Y3600160D01*
X544340Y3593390D01*
X551750Y3590000D01*
X559160D01*
X566570Y3593390D01*
X572920Y3598460D01*
X578210Y3605240D01*
G01X612290Y3610320D02*
X618640Y3598460D01*
X627100Y3591690D01*
X636630Y3590000D01*
X645100Y3591690D01*
X653560Y3600160D01*
X658850Y3610320D01*
X659910Y3620480D01*
X657800Y3632330D01*
X650390Y3640800D01*
X642980Y3644190D01*
X633450D01*
G01X642980D02*
X649330Y3649270D01*
X654620Y3657730D01*
X656740Y3667890D01*
X654620Y3678050D01*
X649330Y3686520D01*
X639800Y3691600D01*
X630280Y3689910D01*
X620750Y3683130D01*
G01X719390Y3691600D02*
X710920Y3688210D01*
X704570Y3679750D01*
X700340Y3669590D01*
X697160Y3656040D01*
X696110Y3640800D01*
X697160Y3625560D01*
X700340Y3612010D01*
X704570Y3601850D01*
X710920Y3593390D01*
X719390Y3590000D01*
X727860Y3593390D01*
X734210Y3601850D01*
X738440Y3612010D01*
X741620Y3625560D01*
X742670Y3640800D01*
X741620Y3656040D01*
X738440Y3669590D01*
X734210Y3679750D01*
X727860Y3688210D01*
X719390Y3691600D01*
G01X600000Y3970000D02*
X960000D01*
Y3750000D01*
X600000D01*
Y3970000D01*
G01X674230Y4810000D02*
Y4911600D01*
X701750Y4826930D01*
X729270Y4911600D01*
Y4810000D01*
G01X763340D02*
Y4911600D01*
G01X807800D02*
Y4810000D01*
G01Y4860800D02*
X763340D01*
G01X882090Y4810000D02*
Y4911600D01*
X842930Y4838790D01*
X895850D01*
G01X724230Y400000D02*
Y501600D01*
X751750Y416930D01*
X779270Y501600D01*
Y400000D01*
G01X814400D02*
Y501600D01*
X839800D01*
X848270Y496520D01*
X854620Y484670D01*
X856740Y471120D01*
X854620Y457570D01*
X849330Y447410D01*
X839800Y442330D01*
X814400D01*
G01X919390Y400000D02*
Y501600D01*
X906690Y481280D01*
G01Y400000D02*
X932090D01*
G01X798470Y1251600D02*
Y1178790D01*
X802700Y1163540D01*
X811170Y1153390D01*
X821750Y1150000D01*
X832330Y1153390D01*
X840800Y1163540D01*
X845030Y1178790D01*
Y1251600D01*
G01X885460Y1234670D02*
X891810Y1244830D01*
X899220Y1249910D01*
X907690Y1251600D01*
X918270Y1248210D01*
X925680Y1239750D01*
X927800Y1229590D01*
X926740Y1219420D01*
X922500Y1210960D01*
X901340Y1194030D01*
X891810Y1182170D01*
X885460Y1165240D01*
X883340Y1150000D01*
X927800D01*
G01X817670Y1697000D02*
Y1798600D01*
X838830D01*
X847300Y1793520D01*
X853650Y1786750D01*
X858940Y1776590D01*
X863180Y1764730D01*
X864230Y1747800D01*
X863180Y1730870D01*
X858940Y1719010D01*
X853650Y1708850D01*
X847300Y1702080D01*
X838830Y1697000D01*
X817670D01*
G01X901490Y1717320D02*
X907840Y1705460D01*
X916300Y1698690D01*
X925830Y1697000D01*
X934300Y1698690D01*
X942760Y1707160D01*
X948050Y1717320D01*
X949110Y1727480D01*
X947000Y1739330D01*
X939590Y1747800D01*
X932180Y1751190D01*
X922650D01*
G01X932180D02*
X938530Y1756270D01*
X943820Y1764730D01*
X945940Y1774890D01*
X943820Y1785050D01*
X938530Y1793520D01*
X929000Y1798600D01*
X919480Y1796910D01*
X909950Y1790130D01*
G01X827670Y2417000D02*
Y2518600D01*
X848830D01*
X857300Y2513520D01*
X863650Y2506750D01*
X868940Y2496590D01*
X873180Y2484730D01*
X874230Y2467800D01*
X873180Y2450870D01*
X868940Y2439010D01*
X863650Y2428850D01*
X857300Y2422080D01*
X848830Y2417000D01*
X827670D01*
G01X947470D02*
Y2518600D01*
X908310Y2445790D01*
X961230D01*
G01X835030Y3683130D02*
X828680Y3688210D01*
X821280Y3691600D01*
X812810D01*
X803280Y3686520D01*
X795880Y3678050D01*
X790580Y3667890D01*
X786350Y3650960D01*
X785290Y3635720D01*
X787410Y3620480D01*
X790580Y3610320D01*
X796930Y3600160D01*
X804340Y3593390D01*
X811750Y3590000D01*
X819160D01*
X826570Y3593390D01*
X832920Y3598460D01*
X838210Y3605240D01*
G01X875460Y3674670D02*
X881810Y3684830D01*
X889220Y3689910D01*
X897690Y3691600D01*
X908270Y3688210D01*
X915680Y3679750D01*
X917800Y3669590D01*
X916740Y3659420D01*
X912500Y3650960D01*
X891340Y3634030D01*
X881810Y3622170D01*
X875460Y3605240D01*
X873340Y3590000D01*
X917800D01*
G01X961400Y3601850D02*
X968810Y3593390D01*
X977270Y3590000D01*
X985740Y3593390D01*
X993150Y3603540D01*
X998440Y3618790D01*
X1000560Y3634030D01*
Y3652650D01*
X998440Y3667890D01*
X993150Y3681440D01*
X986800Y3688210D01*
X979390Y3691600D01*
X970920Y3688210D01*
X964570Y3681440D01*
X960340Y3671280D01*
X958220Y3657730D01*
X960340Y3645880D01*
X965630Y3634030D01*
X971980Y3627250D01*
X979390Y3625560D01*
X987860Y3628940D01*
X994210Y3637410D01*
X1000560Y3652650D01*
G01X805400Y3936200D02*
X830800D01*
Y3783800D01*
X729200D01*
Y3936200D01*
X754600D01*
G01D02*
G03X805400I25400J0D01*
G01X838470Y4731600D02*
Y4658790D01*
X842700Y4643540D01*
X851170Y4633390D01*
X861750Y4630000D01*
X872330Y4633390D01*
X880800Y4643540D01*
X885030Y4658790D01*
Y4731600D01*
G01X927580Y4641850D02*
X934990Y4633390D01*
X943450Y4630000D01*
X951920Y4633390D01*
X959330Y4643540D01*
X964620Y4658790D01*
X966740Y4674030D01*
Y4692650D01*
X964620Y4707890D01*
X959330Y4721440D01*
X952980Y4728210D01*
X945570Y4731600D01*
X937100Y4728210D01*
X930750Y4721440D01*
X926520Y4711280D01*
X924400Y4697730D01*
X926520Y4685880D01*
X931810Y4674030D01*
X938160Y4667250D01*
X945570Y4665560D01*
X954040Y4668940D01*
X960390Y4677410D01*
X966740Y4692650D01*
G01X983800Y1889200D02*
Y1762200D01*
X1110800D01*
Y2117800D01*
X983800D01*
Y1990800D01*
G01X958400Y1996300D02*
X856800D01*
Y2025940D01*
X861880Y2037790D01*
X868650Y2046680D01*
X878810Y2054090D01*
X890670Y2060020D01*
X907600Y2061500D01*
X924530Y2060020D01*
X936390Y2054090D01*
X946550Y2046680D01*
X953320Y2037790D01*
X958400Y2025940D01*
Y1996300D01*
G01X1018470Y3111600D02*
Y3038790D01*
X1022700Y3023540D01*
X1031170Y3013390D01*
X1041750Y3010000D01*
X1052330Y3013390D01*
X1060800Y3023540D01*
X1065030Y3038790D01*
Y3111600D01*
G01X1102290Y3030320D02*
X1108640Y3018460D01*
X1117100Y3011690D01*
X1126630Y3010000D01*
X1135100Y3011690D01*
X1143560Y3020160D01*
X1148850Y3030320D01*
X1149910Y3040480D01*
X1147800Y3052330D01*
X1140390Y3060800D01*
X1132980Y3064190D01*
X1123450D01*
G01X1132980D02*
X1139330Y3069270D01*
X1144620Y3077730D01*
X1146740Y3087890D01*
X1144620Y3098050D01*
X1139330Y3106520D01*
X1129800Y3111600D01*
X1120280Y3109910D01*
X1110750Y3103130D01*
G01X979520Y3390000D02*
X1023980Y3491600D01*
G01X979520D02*
X1023980Y3390000D01*
G01X1065460Y3474670D02*
X1071810Y3484830D01*
X1079220Y3489910D01*
X1087690Y3491600D01*
X1098270Y3488210D01*
X1105680Y3479750D01*
X1107800Y3469590D01*
X1106740Y3459420D01*
X1102500Y3450960D01*
X1081340Y3434030D01*
X1071810Y3422170D01*
X1065460Y3405240D01*
X1063340Y3390000D01*
X1107800D01*
G01X930580Y4830320D02*
X935880Y4820160D01*
X942220Y4813390D01*
X949630Y4810000D01*
X958100Y4813390D01*
X964450Y4820160D01*
X970800Y4830320D01*
X972920Y4843870D01*
Y4911600D01*
G01X1035570Y4810000D02*
Y4911600D01*
X1022870Y4891280D01*
G01Y4810000D02*
X1048270D01*
G01X1071100Y427800D02*
Y72200D01*
X1248900D01*
Y427800D01*
X1071100D01*
G01X1091470Y452200D02*
Y553800D01*
X1112630D01*
X1121100Y548720D01*
X1127450Y541950D01*
X1132740Y531790D01*
X1136980Y519930D01*
X1138030Y503000D01*
X1136980Y486070D01*
X1132740Y474210D01*
X1127450Y464050D01*
X1121100Y457280D01*
X1112630Y452200D01*
X1091470D01*
G01X1198570D02*
Y553800D01*
X1185870Y533480D01*
G01Y452200D02*
X1211270D01*
G01X1106870Y645030D02*
X1101790Y638680D01*
X1098400Y631280D01*
Y622810D01*
X1103480Y613280D01*
X1111950Y605880D01*
X1122110Y600580D01*
X1139040Y596350D01*
X1154280Y595290D01*
X1169520Y597410D01*
X1179680Y600580D01*
X1189840Y606930D01*
X1196610Y614340D01*
X1200000Y621750D01*
Y629160D01*
X1196610Y636570D01*
X1191540Y642920D01*
X1184760Y648210D01*
G01X1200000Y683340D02*
X1098400D01*
G01Y727800D02*
X1200000D01*
G01X1149200D02*
Y683340D01*
G01Y795740D02*
Y816910D01*
X1179680D01*
X1189840Y810560D01*
X1196610Y803150D01*
X1200000Y792570D01*
X1196610Y781980D01*
X1189840Y774570D01*
X1179680Y768220D01*
X1167830Y763990D01*
X1154280Y761870D01*
X1142430D01*
X1132270Y763990D01*
X1120410Y768220D01*
X1110250Y774570D01*
X1103480Y780920D01*
X1098400Y789390D01*
Y796800D01*
X1101790Y805260D01*
X1108560Y811620D01*
G01X1187000Y1745690D02*
Y1775320D01*
X1217480D01*
X1227640Y1766430D01*
X1234410Y1756060D01*
X1237800Y1741250D01*
X1234410Y1726430D01*
X1227640Y1716060D01*
X1217480Y1707170D01*
X1205630Y1701240D01*
X1192080Y1698280D01*
X1180230D01*
X1170070Y1701240D01*
X1158210Y1707170D01*
X1148050Y1716060D01*
X1141280Y1724950D01*
X1136200Y1736800D01*
Y1747170D01*
X1139590Y1759020D01*
X1146360Y1767920D01*
G01X1224260Y2099380D02*
X1232720Y2111240D01*
X1237800Y2124570D01*
Y2136430D01*
X1232720Y2148280D01*
X1224260Y2157170D01*
X1212400Y2161620D01*
X1200550Y2158650D01*
X1190390Y2151240D01*
X1183610Y2137910D01*
X1180230Y2120130D01*
X1173450Y2109760D01*
X1161600Y2105310D01*
X1149750Y2108280D01*
X1141280Y2115680D01*
X1136200Y2126050D01*
Y2136430D01*
X1139590Y2146800D01*
X1148050Y2155690D01*
G01X1329700Y3703500D02*
X1050300D01*
G01Y3576500D02*
X1329700D01*
G01X1050300Y3703500D02*
G03Y3576500I71651J-63500D01*
G01X1339700Y3786500D02*
X1060300D01*
Y3913500D01*
X1339700D01*
G01Y3936500D02*
X1060300D01*
Y4063500D01*
X1339700D01*
G01Y4136500D02*
X1060300D01*
Y4263500D01*
X1339700D01*
G01X1208100Y4530800D02*
X1229270D01*
Y4500320D01*
X1222920Y4490160D01*
X1215510Y4483390D01*
X1204930Y4480000D01*
X1194340Y4483390D01*
X1186930Y4490160D01*
X1180580Y4500320D01*
X1176350Y4512170D01*
X1174230Y4525720D01*
Y4537570D01*
X1176350Y4547730D01*
X1180580Y4559590D01*
X1186930Y4569750D01*
X1193280Y4576520D01*
X1201750Y4581600D01*
X1209160D01*
X1217620Y4578210D01*
X1223980Y4571440D01*
G01X1271100Y427800D02*
Y72200D01*
X1448900D01*
Y427800D01*
X1271100D01*
G01X1291470Y452200D02*
Y553800D01*
X1312630D01*
X1321100Y548720D01*
X1327450Y541950D01*
X1332740Y531790D01*
X1336980Y519930D01*
X1338030Y503000D01*
X1336980Y486070D01*
X1332740Y474210D01*
X1327450Y464050D01*
X1321100Y457280D01*
X1312630Y452200D01*
X1291470D01*
G01X1378460Y536870D02*
X1384810Y547030D01*
X1392220Y552110D01*
X1400690Y553800D01*
X1411270Y550410D01*
X1418680Y541950D01*
X1420800Y531790D01*
X1419740Y521620D01*
X1415500Y513160D01*
X1394340Y496230D01*
X1384810Y484370D01*
X1378460Y467440D01*
X1376340Y452200D01*
X1420800D01*
G01X1410000Y590580D02*
X1308400D01*
Y615980D01*
X1313480Y624450D01*
X1325330Y630800D01*
X1338880Y632920D01*
X1352430Y630800D01*
X1362590Y625510D01*
X1367670Y615980D01*
Y590580D01*
G01X1359200Y701920D02*
Y723090D01*
X1389680D01*
X1399840Y716740D01*
X1406610Y709330D01*
X1410000Y698750D01*
X1406610Y688160D01*
X1399840Y680750D01*
X1389680Y674400D01*
X1377830Y670170D01*
X1364280Y668050D01*
X1352430D01*
X1342270Y670170D01*
X1330410Y674400D01*
X1320250Y680750D01*
X1313480Y687100D01*
X1308400Y695570D01*
Y702980D01*
X1311790Y711440D01*
X1318560Y717800D01*
G01X1320580Y3261600D02*
Y3160000D01*
X1362920D01*
G01X1425570D02*
Y3261600D01*
X1412870Y3241280D01*
G01Y3160000D02*
X1438270D01*
G01X1387760Y3576500D02*
G02Y3703500I73330J63500D01*
G01X1332240D02*
G02Y3576500I-73330J-63500D01*
G01X1339700Y3913500D02*
Y3786500D01*
G01X1377760Y3936500D02*
G02Y4063500I73330J63500D01*
G01X1339700D02*
Y3936500D01*
G01X1377760Y4136500D02*
G02Y4263500I73330J63500D01*
G01X1339700D02*
Y4136500D01*
G01X1499520Y703540D02*
X1507990Y695080D01*
X1517520Y690000D01*
X1525980D01*
X1534450Y695080D01*
X1540800Y703540D01*
X1543980Y715400D01*
X1541860Y727250D01*
X1536570Y737410D01*
X1527040Y744190D01*
X1514340Y747570D01*
X1506930Y754350D01*
X1503760Y766200D01*
X1505880Y778050D01*
X1511170Y786520D01*
X1518570Y791600D01*
X1525980D01*
X1533390Y788210D01*
X1539740Y779750D01*
G01X1573820Y791600D02*
X1588640Y690000D01*
X1605570Y791600D01*
X1622500Y690000D01*
X1637320Y791600D01*
G01X1689390Y690000D02*
Y791600D01*
X1676690Y771280D01*
G01Y690000D02*
X1702090D01*
G01X1390300Y3576500D02*
X1669700D01*
G01Y3703500D02*
X1390300D01*
G01X1659700Y3786500D02*
X1380300D01*
Y3913500D01*
X1659700D01*
G01X1380300Y3936500D02*
X1659700D01*
G01Y4063500D02*
X1380300D01*
G01Y4136500D02*
X1659700D01*
G01Y4263500D02*
X1380300D01*
G01X1425290Y4571600D02*
X1451750Y4470000D01*
X1478210Y4571600D01*
G01X1669700Y3576500D02*
G03Y3703500I-71651J63500D01*
G01X1659700Y3913500D02*
Y3786500D01*
G01X1680580Y3870000D02*
Y3971600D01*
X1707040D01*
X1715510Y3966520D01*
X1720800Y3959750D01*
X1722920Y3946200D01*
X1720800Y3932650D01*
X1714450Y3924190D01*
X1707040Y3919110D01*
X1680580D01*
G01X1707040D02*
X1722920Y3870000D01*
G01X1785570D02*
Y3971600D01*
X1772870Y3951280D01*
G01Y3870000D02*
X1798270D01*
G01X1659700Y3936500D02*
G03Y4063500I-71651J63500D01*
G01X1680580Y4010000D02*
Y4111600D01*
X1707040D01*
X1715510Y4106520D01*
X1720800Y4099750D01*
X1722920Y4086200D01*
X1720800Y4072650D01*
X1714450Y4064190D01*
X1707040Y4059110D01*
X1680580D01*
G01X1707040D02*
X1722920Y4010000D01*
G01X1762290Y4030320D02*
X1768640Y4018460D01*
X1777100Y4011690D01*
X1786630Y4010000D01*
X1795100Y4011690D01*
X1803560Y4020160D01*
X1808850Y4030320D01*
X1809910Y4040480D01*
X1807800Y4052330D01*
X1800390Y4060800D01*
X1792980Y4064190D01*
X1783450D01*
G01X1792980D02*
X1799330Y4069270D01*
X1804620Y4077730D01*
X1806740Y4087890D01*
X1804620Y4098050D01*
X1799330Y4106520D01*
X1789800Y4111600D01*
X1780280Y4109910D01*
X1770750Y4103130D01*
G01X1659700Y4136500D02*
G03Y4263500I-71651J63500D01*
G01X1680580Y4150000D02*
Y4251600D01*
X1707040D01*
X1715510Y4246520D01*
X1720800Y4239750D01*
X1722920Y4226200D01*
X1720800Y4212650D01*
X1714450Y4204190D01*
X1707040Y4199110D01*
X1680580D01*
G01X1707040D02*
X1722920Y4150000D01*
G01X1798270D02*
Y4251600D01*
X1759110Y4178790D01*
X1812030D01*
G01X1621750Y4571600D02*
Y4470000D01*
G01X1597410Y4571600D02*
X1646090D01*
G01X1683340Y4483540D02*
X1691810Y4475080D01*
X1701340Y4470000D01*
X1709800D01*
X1718270Y4475080D01*
X1724620Y4483540D01*
X1727800Y4495400D01*
X1725680Y4507250D01*
X1720390Y4517410D01*
X1710860Y4524190D01*
X1698160Y4527570D01*
X1690750Y4534350D01*
X1687580Y4546200D01*
X1689700Y4558050D01*
X1694990Y4566520D01*
X1702390Y4571600D01*
X1709800D01*
X1717210Y4568210D01*
X1723560Y4559750D01*
G01X1789390Y4571600D02*
Y4470000D01*
G01X1765050Y4571600D02*
X1813730D01*
G01X1880220Y104190D02*
X1884450Y109270D01*
X1887620Y117730D01*
X1889740Y129590D01*
X1887620Y139750D01*
X1883390Y146520D01*
X1875980Y151600D01*
X1847410D01*
Y50000D01*
X1882330D01*
X1889740Y56770D01*
X1893980Y66930D01*
X1896090Y78790D01*
X1893980Y90640D01*
X1887620Y100800D01*
X1880220Y104190D01*
X1847410D01*
G01X1929110Y50000D02*
X1955570Y151600D01*
X1982030Y50000D01*
G01X1972500Y85560D02*
X1938640D01*
G01X2062670Y143130D02*
X2056320Y148210D01*
X2048920Y151600D01*
X2040450D01*
X2030920Y146520D01*
X2023520Y138050D01*
X2018220Y127890D01*
X2013990Y110960D01*
X2012930Y95720D01*
X2015050Y80480D01*
X2018220Y70320D01*
X2024570Y60160D01*
X2031980Y53390D01*
X2039390Y50000D01*
X2046800D01*
X2054210Y53390D01*
X2060560Y58460D01*
X2065850Y65240D01*
G01X2099930Y50000D02*
Y151600D01*
G01X2140140D02*
X2099930Y88940D01*
G01X2146490Y50000D02*
X2117920Y117730D01*
G01X1798470Y1341600D02*
Y1268790D01*
X1802700Y1253540D01*
X1811170Y1243390D01*
X1821750Y1240000D01*
X1832330Y1243390D01*
X1840800Y1253540D01*
X1845030Y1268790D01*
Y1341600D01*
G01X1918270Y1240000D02*
Y1341600D01*
X1879110Y1268790D01*
X1932030D01*
G01X1870580Y3870000D02*
Y3971600D01*
X1897040D01*
X1905510Y3966520D01*
X1910800Y3959750D01*
X1912920Y3946200D01*
X1910800Y3932650D01*
X1904450Y3924190D01*
X1897040Y3919110D01*
X1870580D01*
G01X1897040D02*
X1912920Y3870000D01*
G01X1955460Y3954670D02*
X1961810Y3964830D01*
X1969220Y3969910D01*
X1977690Y3971600D01*
X1988270Y3968210D01*
X1995680Y3959750D01*
X1997800Y3949590D01*
X1996740Y3939420D01*
X1992500Y3930960D01*
X1971340Y3914030D01*
X1961810Y3902170D01*
X1955460Y3885240D01*
X1953340Y3870000D01*
X1997800D01*
G01X1913630Y4101530D02*
X1907280Y4106610D01*
X1899880Y4110000D01*
X1891410D01*
X1881880Y4104920D01*
X1874480Y4096450D01*
X1869180Y4086290D01*
X1864950Y4069360D01*
X1863890Y4054120D01*
X1866010Y4038880D01*
X1869180Y4028720D01*
X1875530Y4018560D01*
X1882940Y4011790D01*
X1890350Y4008400D01*
X1897760D01*
X1905170Y4011790D01*
X1911520Y4016860D01*
X1916810Y4023640D01*
G01X1974170Y4008400D02*
Y4110000D01*
X1961470Y4089680D01*
G01Y4008400D02*
X1986870D01*
G01X1915030Y4243130D02*
X1908680Y4248210D01*
X1901280Y4251600D01*
X1892810D01*
X1883280Y4246520D01*
X1875880Y4238050D01*
X1870580Y4227890D01*
X1866350Y4210960D01*
X1865290Y4195720D01*
X1867410Y4180480D01*
X1870580Y4170320D01*
X1876930Y4160160D01*
X1884340Y4153390D01*
X1891750Y4150000D01*
X1899160D01*
X1906570Y4153390D01*
X1912920Y4158460D01*
X1918210Y4165240D01*
G01X1955460Y4234670D02*
X1961810Y4244830D01*
X1969220Y4249910D01*
X1977690Y4251600D01*
X1988270Y4248210D01*
X1995680Y4239750D01*
X1997800Y4229590D01*
X1996740Y4219420D01*
X1992500Y4210960D01*
X1971340Y4194030D01*
X1961810Y4182170D01*
X1955460Y4165240D01*
X1953340Y4150000D01*
X1997800D01*
G01X1860580Y4470000D02*
Y4571600D01*
X1887040D01*
X1895510Y4566520D01*
X1900800Y4559750D01*
X1902920Y4546200D01*
X1900800Y4532650D01*
X1894450Y4524190D01*
X1887040Y4519110D01*
X1860580D01*
G01X1887040D02*
X1902920Y4470000D01*
G01X1943340Y4483540D02*
X1951810Y4475080D01*
X1961340Y4470000D01*
X1969800D01*
X1978270Y4475080D01*
X1984620Y4483540D01*
X1987800Y4495400D01*
X1985680Y4507250D01*
X1980390Y4517410D01*
X1970860Y4524190D01*
X1958160Y4527570D01*
X1950750Y4534350D01*
X1947580Y4546200D01*
X1949700Y4558050D01*
X1954990Y4566520D01*
X1962390Y4571600D01*
X1969800D01*
X1977210Y4568210D01*
X1983560Y4559750D01*
G01X2049390Y4571600D02*
Y4470000D01*
G01X2025050Y4571600D02*
X2073730D01*
G01X2188470Y4291600D02*
Y4218790D01*
X2192700Y4203540D01*
X2201170Y4193390D01*
X2211750Y4190000D01*
X2222330Y4193390D01*
X2230800Y4203540D01*
X2235030Y4218790D01*
Y4291600D01*
G01X2295570Y4190000D02*
X2302980Y4191690D01*
X2311440Y4196770D01*
X2316740Y4205240D01*
X2318850Y4217090D01*
X2316740Y4228940D01*
X2310390Y4239110D01*
X2300860Y4244190D01*
X2290280D01*
X2283930Y4247570D01*
X2278640Y4256040D01*
X2276520Y4267890D01*
X2279700Y4279750D01*
X2287100Y4288210D01*
X2295570Y4291600D01*
X2304040Y4288210D01*
X2311440Y4279750D01*
X2314620Y4267890D01*
X2312500Y4256040D01*
X2307210Y4247570D01*
X2300860Y4244190D01*
X2290280D01*
X2280750Y4239110D01*
X2274400Y4228940D01*
X2272290Y4217090D01*
X2274400Y4205240D01*
X2279700Y4196770D01*
X2288160Y4191690D01*
X2295570Y4190000D01*
G01X2259520Y763540D02*
X2267990Y755080D01*
X2277520Y750000D01*
X2285980D01*
X2294450Y755080D01*
X2300800Y763540D01*
X2303980Y775400D01*
X2301860Y787250D01*
X2296570Y797410D01*
X2287040Y804190D01*
X2274340Y807570D01*
X2266930Y814350D01*
X2263760Y826200D01*
X2265880Y838050D01*
X2271170Y846520D01*
X2278570Y851600D01*
X2285980D01*
X2293390Y848210D01*
X2299740Y839750D01*
G01X2333820Y851600D02*
X2348640Y750000D01*
X2365570Y851600D01*
X2382500Y750000D01*
X2397320Y851600D01*
G01X2462090Y750000D02*
Y851600D01*
X2422930Y778790D01*
X2475850D01*
G01X2248470Y2271600D02*
Y2198790D01*
X2252700Y2183540D01*
X2261170Y2173390D01*
X2271750Y2170000D01*
X2282330Y2173390D01*
X2290800Y2183540D01*
X2295030Y2198790D01*
Y2271600D01*
G01X2355570Y2170000D02*
Y2271600D01*
X2342870Y2251280D01*
G01Y2170000D02*
X2368270D01*
G01X2439390D02*
Y2271600D01*
X2426690Y2251280D01*
G01Y2170000D02*
X2452090D01*
G01X2419520Y4490000D02*
X2463980Y4591600D01*
G01X2419520D02*
X2463980Y4490000D01*
G01X2525570D02*
Y4591600D01*
X2512870Y4571280D01*
G01Y4490000D02*
X2538270D01*
G01X2798470Y511600D02*
Y438790D01*
X2802700Y423540D01*
X2811170Y413390D01*
X2821750Y410000D01*
X2832330Y413390D01*
X2840800Y423540D01*
X2845030Y438790D01*
Y511600D01*
G01X2884400Y410000D02*
Y511600D01*
X2909800D01*
X2918270Y506520D01*
X2924620Y494670D01*
X2926740Y481120D01*
X2924620Y467570D01*
X2919330Y457410D01*
X2909800Y452330D01*
X2884400D01*
G01X2839520Y1400000D02*
X2883980Y1501600D01*
G01X2839520D02*
X2883980Y1400000D01*
G01X2958270D02*
Y1501600D01*
X2919110Y1428790D01*
X2972030D01*
G01X3148470Y1111600D02*
Y1038790D01*
X3152700Y1023540D01*
X3161170Y1013390D01*
X3171750Y1010000D01*
X3182330Y1013390D01*
X3190800Y1023540D01*
X3195030Y1038790D01*
Y1111600D01*
G01X3232290Y1025240D02*
X3238640Y1016770D01*
X3246040Y1011690D01*
X3255570Y1010000D01*
X3265100Y1013390D01*
X3272500Y1020160D01*
X3277800Y1032010D01*
X3278850Y1045560D01*
X3276740Y1059110D01*
X3271440Y1067570D01*
X3264040Y1074350D01*
X3256630Y1076040D01*
X3249220Y1074350D01*
X3239700Y1067570D01*
X3242870Y1111600D01*
X3271440D01*
G01X3078470Y2271600D02*
Y2198790D01*
X3082700Y2183540D01*
X3091170Y2173390D01*
X3101750Y2170000D01*
X3112330Y2173390D01*
X3120800Y2183540D01*
X3125030Y2198790D01*
Y2271600D01*
G01X3185570Y2170000D02*
Y2271600D01*
X3172870Y2251280D01*
G01Y2170000D02*
X3198270D01*
G01X3282090D02*
Y2271600D01*
X3242930Y2198790D01*
X3295850D01*
G01X3340400Y4546600D02*
Y4267200D01*
X3213400D01*
Y4546600D01*
G01D02*
X3340400D01*
G01X3245820Y690340D02*
X3254290Y681880D01*
X3263820Y676800D01*
X3272280D01*
X3280750Y681880D01*
X3287100Y690340D01*
X3290280Y702200D01*
X3288160Y714050D01*
X3282870Y724210D01*
X3273340Y730990D01*
X3260640Y734370D01*
X3253230Y741150D01*
X3250060Y753000D01*
X3252180Y764850D01*
X3257470Y773320D01*
X3264870Y778400D01*
X3272280D01*
X3279690Y775010D01*
X3286040Y766550D01*
G01X3320120Y778400D02*
X3334940Y676800D01*
X3351870Y778400D01*
X3368800Y676800D01*
X3383620Y778400D01*
G01X3415580Y761470D02*
X3421930Y771630D01*
X3429340Y776710D01*
X3437810Y778400D01*
X3448390Y775010D01*
X3455800Y766550D01*
X3457920Y756390D01*
X3456860Y746220D01*
X3452620Y737760D01*
X3431460Y720830D01*
X3421930Y708970D01*
X3415580Y692040D01*
X3413460Y676800D01*
X3457920D01*
G01X3430000Y3880580D02*
X3328400D01*
Y3907040D01*
X3333480Y3915510D01*
X3340250Y3920800D01*
X3353800Y3922920D01*
X3367350Y3920800D01*
X3375810Y3914450D01*
X3380890Y3907040D01*
Y3880580D01*
G01Y3907040D02*
X3430000Y3922920D01*
G01X3345330Y3965460D02*
X3335170Y3971810D01*
X3330090Y3979220D01*
X3328400Y3987690D01*
X3331790Y3998270D01*
X3340250Y4005680D01*
X3350410Y4007800D01*
X3360580Y4006740D01*
X3369040Y4002500D01*
X3385970Y3981340D01*
X3397830Y3971810D01*
X3414760Y3965460D01*
X3430000Y3963340D01*
Y4007800D01*
G01Y4069390D02*
X3328400D01*
X3348720Y4056690D01*
G01X3430000D02*
Y4082090D01*
G01X3378500Y4267200D02*
X3657900D01*
G01Y4394200D02*
X3378500D01*
G01X3375960Y4267200D02*
G02Y4394200I73330J63500D01*
G01X3378500Y4419600D02*
X3657900D01*
G01Y4546600D02*
X3378500D01*
G01X3375960Y4419600D02*
G02Y4546600I73330J63500D01*
G01X3562920Y30000D02*
X3520580D01*
Y131600D01*
X3562920D01*
G01X3545980Y82490D02*
X3520580D01*
G01X3601230Y30000D02*
Y131600D01*
X3649910Y30000D01*
Y131600D01*
G01X3709390D02*
Y30000D01*
G01X3685050Y131600D02*
X3733730D01*
G01X3814380Y30000D02*
X3772040D01*
Y131600D01*
X3814380D01*
G01X3797440Y82490D02*
X3772040D01*
G01X3855860Y30000D02*
Y131600D01*
X3882320D01*
X3890790Y126520D01*
X3896080Y119750D01*
X3898200Y106200D01*
X3896080Y92650D01*
X3889730Y84190D01*
X3882320Y79110D01*
X3855860D01*
G01X3882320D02*
X3898200Y30000D01*
G01X3528470Y1511600D02*
Y1438790D01*
X3532700Y1423540D01*
X3541170Y1413390D01*
X3551750Y1410000D01*
X3562330Y1413390D01*
X3570800Y1423540D01*
X3575030Y1438790D01*
Y1511600D01*
G01X3635570Y1410000D02*
Y1511600D01*
X3622870Y1491280D01*
G01Y1410000D02*
X3648270D01*
G01X3699280Y1452330D02*
X3706690Y1464190D01*
X3713040Y1470960D01*
X3721510Y1474350D01*
X3728920Y1470960D01*
X3734210Y1464190D01*
X3738440Y1454030D01*
X3739500Y1442170D01*
X3738440Y1432010D01*
X3734210Y1421850D01*
X3727860Y1413390D01*
X3720450Y1410000D01*
X3711980Y1413390D01*
X3704570Y1423540D01*
X3700340Y1438790D01*
X3699280Y1455720D01*
X3701400Y1477730D01*
X3704570Y1489590D01*
X3709860Y1501440D01*
X3717270Y1509910D01*
X3724680Y1511600D01*
X3732090Y1508210D01*
X3737380Y1499750D01*
G01X3534580Y3323900D02*
Y3425500D01*
X3561040D01*
X3569510Y3420420D01*
X3574800Y3413650D01*
X3576920Y3400100D01*
X3574800Y3386550D01*
X3568450Y3378090D01*
X3561040Y3373010D01*
X3534580D01*
G01X3561040D02*
X3576920Y3323900D01*
G01X3652270D02*
Y3425500D01*
X3613110Y3352690D01*
X3666030D01*
G01X3736090Y3323900D02*
Y3425500D01*
X3696930Y3352690D01*
X3749850D01*
G01X3534580Y3476300D02*
Y3577900D01*
X3561040D01*
X3569510Y3572820D01*
X3574800Y3566050D01*
X3576920Y3552500D01*
X3574800Y3538950D01*
X3568450Y3530490D01*
X3561040Y3525410D01*
X3534580D01*
G01X3561040D02*
X3576920Y3476300D01*
G01X3652270D02*
Y3577900D01*
X3613110Y3505090D01*
X3666030D01*
G01X3700110Y3491540D02*
X3706460Y3483070D01*
X3713860Y3477990D01*
X3723390Y3476300D01*
X3732920Y3479690D01*
X3740320Y3486460D01*
X3745620Y3498310D01*
X3746670Y3511860D01*
X3744560Y3525410D01*
X3739260Y3533870D01*
X3731860Y3540650D01*
X3724450Y3542340D01*
X3717040Y3540650D01*
X3707520Y3533870D01*
X3710690Y3577900D01*
X3739260D01*
G01X3541830Y3962230D02*
X3535480Y3967310D01*
X3528080Y3970700D01*
X3519610D01*
X3510080Y3965620D01*
X3502680Y3957150D01*
X3497380Y3946990D01*
X3493150Y3930060D01*
X3492090Y3914820D01*
X3494210Y3899580D01*
X3497380Y3889420D01*
X3503730Y3879260D01*
X3511140Y3872490D01*
X3518550Y3869100D01*
X3525960D01*
X3533370Y3872490D01*
X3539720Y3877560D01*
X3545010Y3884340D01*
G01X3582260Y3953770D02*
X3588610Y3963930D01*
X3596020Y3969010D01*
X3604490Y3970700D01*
X3615070Y3967310D01*
X3622480Y3958850D01*
X3624600Y3948690D01*
X3623540Y3938520D01*
X3619300Y3930060D01*
X3598140Y3913130D01*
X3588610Y3901270D01*
X3582260Y3884340D01*
X3580140Y3869100D01*
X3624600D01*
G01X3662910Y3884340D02*
X3669260Y3875870D01*
X3676660Y3870790D01*
X3686190Y3869100D01*
X3695720Y3872490D01*
X3703120Y3879260D01*
X3708420Y3891110D01*
X3709470Y3904660D01*
X3707360Y3918210D01*
X3702060Y3926670D01*
X3694660Y3933450D01*
X3687250Y3935140D01*
X3679840Y3933450D01*
X3670320Y3926670D01*
X3673490Y3970700D01*
X3702060D01*
G01X3541830Y4114630D02*
X3535480Y4119710D01*
X3528080Y4123100D01*
X3519610D01*
X3510080Y4118020D01*
X3502680Y4109550D01*
X3497380Y4099390D01*
X3493150Y4082460D01*
X3492090Y4067220D01*
X3494210Y4051980D01*
X3497380Y4041820D01*
X3503730Y4031660D01*
X3511140Y4024890D01*
X3518550Y4021500D01*
X3525960D01*
X3533370Y4024890D01*
X3539720Y4029960D01*
X3545010Y4036740D01*
G01X3582260Y4106170D02*
X3588610Y4116330D01*
X3596020Y4121410D01*
X3604490Y4123100D01*
X3615070Y4119710D01*
X3622480Y4111250D01*
X3624600Y4101090D01*
X3623540Y4090920D01*
X3619300Y4082460D01*
X3598140Y4065530D01*
X3588610Y4053670D01*
X3582260Y4036740D01*
X3580140Y4021500D01*
X3624600D01*
G01X3666080Y4063830D02*
X3673490Y4075690D01*
X3679840Y4082460D01*
X3688310Y4085850D01*
X3695720Y4082460D01*
X3701010Y4075690D01*
X3705240Y4065530D01*
X3706300Y4053670D01*
X3705240Y4043510D01*
X3701010Y4033350D01*
X3694660Y4024890D01*
X3687250Y4021500D01*
X3678780Y4024890D01*
X3671370Y4035040D01*
X3667140Y4050290D01*
X3666080Y4067220D01*
X3668200Y4089230D01*
X3671370Y4101090D01*
X3676660Y4112940D01*
X3684070Y4121410D01*
X3691480Y4123100D01*
X3698890Y4119710D01*
X3704180Y4111250D01*
G01X3657900Y4267200D02*
G03Y4394200I-71651J63500D01*
G01Y4419600D02*
G03Y4546600I-71651J63500D01*
G01X3746170Y2263150D02*
Y2190340D01*
X3750400Y2175090D01*
X3758870Y2164940D01*
X3769450Y2161550D01*
X3780030Y2164940D01*
X3788500Y2175090D01*
X3792730Y2190340D01*
Y2263150D01*
G01X3853270Y2161550D02*
Y2263150D01*
X3840570Y2242830D01*
G01Y2161550D02*
X3865970D01*
G01X3937090Y2263150D02*
X3928620Y2259760D01*
X3922270Y2251300D01*
X3918040Y2241140D01*
X3914860Y2227590D01*
X3913810Y2212350D01*
X3914860Y2197110D01*
X3918040Y2183560D01*
X3922270Y2173400D01*
X3928620Y2164940D01*
X3937090Y2161550D01*
X3945560Y2164940D01*
X3951910Y2173400D01*
X3956140Y2183560D01*
X3959320Y2197110D01*
X3960370Y2212350D01*
X3959320Y2227590D01*
X3956140Y2241140D01*
X3951910Y2251300D01*
X3945560Y2259760D01*
X3937090Y2263150D01*
G01X3797300Y3302000D02*
Y3429000D01*
G01D02*
X4076700D01*
Y3302000D01*
X3797300D01*
G01Y3454400D02*
Y3581400D01*
G01D02*
X4076700D01*
Y3454400D01*
X3797300D01*
G01X3959520Y753540D02*
X3967990Y745080D01*
X3977520Y740000D01*
X3985980D01*
X3994450Y745080D01*
X4000800Y753540D01*
X4003980Y765400D01*
X4001860Y777250D01*
X3996570Y787410D01*
X3987040Y794190D01*
X3974340Y797570D01*
X3966930Y804350D01*
X3963760Y816200D01*
X3965880Y828050D01*
X3971170Y836520D01*
X3978570Y841600D01*
X3985980D01*
X3993390Y838210D01*
X3999740Y829750D01*
G01X4033820Y841600D02*
X4048640Y740000D01*
X4065570Y841600D01*
X4082500Y740000D01*
X4097320Y841600D01*
G01X4126110Y755240D02*
X4132460Y746770D01*
X4139860Y741690D01*
X4149390Y740000D01*
X4158920Y743390D01*
X4166320Y750160D01*
X4171620Y762010D01*
X4172670Y775560D01*
X4170560Y789110D01*
X4165260Y797570D01*
X4157860Y804350D01*
X4150450Y806040D01*
X4143040Y804350D01*
X4133520Y797570D01*
X4136690Y841600D01*
X4165260D01*
G01X4138470Y3411600D02*
Y3338790D01*
X4142700Y3323540D01*
X4151170Y3313390D01*
X4161750Y3310000D01*
X4172330Y3313390D01*
X4180800Y3323540D01*
X4185030Y3338790D01*
Y3411600D01*
G01X4245570Y3310000D02*
Y3411600D01*
X4232870Y3391280D01*
G01Y3310000D02*
X4258270D01*
G01X4327270D02*
X4329390Y3332010D01*
X4332570Y3350640D01*
X4336800Y3367570D01*
X4342090Y3386200D01*
X4350560Y3411600D01*
X4308220D01*
G01X4178470Y4111600D02*
Y4038790D01*
X4182700Y4023540D01*
X4191170Y4013390D01*
X4201750Y4010000D01*
X4212330Y4013390D01*
X4220800Y4023540D01*
X4225030Y4038790D01*
Y4111600D01*
G01X4283450Y4010000D02*
X4285570Y4032010D01*
X4288750Y4050640D01*
X4292980Y4067570D01*
X4298270Y4086200D01*
X4306740Y4111600D01*
X4264400D01*
G01X4178470Y4581600D02*
Y4508790D01*
X4182700Y4493540D01*
X4191170Y4483390D01*
X4201750Y4480000D01*
X4212330Y4483390D01*
X4220800Y4493540D01*
X4225030Y4508790D01*
Y4581600D01*
G01X4265460Y4522330D02*
X4272870Y4534190D01*
X4279220Y4540960D01*
X4287690Y4544350D01*
X4295100Y4540960D01*
X4300390Y4534190D01*
X4304620Y4524030D01*
X4305680Y4512170D01*
X4304620Y4502010D01*
X4300390Y4491850D01*
X4294040Y4483390D01*
X4286630Y4480000D01*
X4278160Y4483390D01*
X4270750Y4493540D01*
X4266520Y4508790D01*
X4265460Y4525720D01*
X4267580Y4547730D01*
X4270750Y4559590D01*
X4276040Y4571440D01*
X4283450Y4579910D01*
X4290860Y4581600D01*
X4298270Y4578210D01*
X4303560Y4569750D01*
G01X4418470Y4071600D02*
Y3998790D01*
X4422700Y3983540D01*
X4431170Y3973390D01*
X4441750Y3970000D01*
X4452330Y3973390D01*
X4460800Y3983540D01*
X4465030Y3998790D01*
Y4071600D01*
G01X4505460Y4054670D02*
X4511810Y4064830D01*
X4519220Y4069910D01*
X4527690Y4071600D01*
X4538270Y4068210D01*
X4545680Y4059750D01*
X4547800Y4049590D01*
X4546740Y4039420D01*
X4542500Y4030960D01*
X4521340Y4014030D01*
X4511810Y4002170D01*
X4505460Y3985240D01*
X4503340Y3970000D01*
X4547800D01*
G01X4589280Y4054670D02*
X4595630Y4064830D01*
X4603040Y4069910D01*
X4611510Y4071600D01*
X4622090Y4068210D01*
X4629500Y4059750D01*
X4631620Y4049590D01*
X4630560Y4039420D01*
X4626320Y4030960D01*
X4605160Y4014030D01*
X4595630Y4002170D01*
X4589280Y3985240D01*
X4587160Y3970000D01*
X4631620D01*
G01X4321750Y4260000D02*
X4313280Y4261690D01*
X4305880Y4268460D01*
X4299520Y4278630D01*
X4295290Y4290480D01*
X4293170Y4304030D01*
Y4317570D01*
X4295290Y4331120D01*
X4299520Y4342970D01*
X4305880Y4353130D01*
X4313280Y4359910D01*
X4321750Y4361600D01*
X4330220Y4359910D01*
X4337620Y4353130D01*
X4343980Y4342970D01*
X4348210Y4331120D01*
X4350330Y4317570D01*
Y4304030D01*
X4348210Y4290480D01*
X4343980Y4278630D01*
X4337620Y4268460D01*
X4330220Y4261690D01*
X4321750Y4260000D01*
G01X4330220Y4287090D02*
X4342920Y4260000D01*
G01X4385460Y4344670D02*
X4391810Y4354830D01*
X4399220Y4359910D01*
X4407690Y4361600D01*
X4418270Y4358210D01*
X4425680Y4349750D01*
X4427800Y4339590D01*
X4426740Y4329420D01*
X4422500Y4320960D01*
X4401340Y4304030D01*
X4391810Y4292170D01*
X4385460Y4275240D01*
X4383340Y4260000D01*
X4427800D01*
G01X4428470Y420000D02*
Y521600D01*
X4449630D01*
X4458100Y516520D01*
X4464450Y509750D01*
X4469740Y499590D01*
X4473980Y487730D01*
X4475030Y470800D01*
X4473980Y453870D01*
X4469740Y442010D01*
X4464450Y431850D01*
X4458100Y425080D01*
X4449630Y420000D01*
X4428470D01*
G01X4535570D02*
X4527100Y421690D01*
X4519700Y428460D01*
X4513340Y438630D01*
X4509110Y450480D01*
X4506990Y464030D01*
Y477570D01*
X4509110Y491120D01*
X4513340Y502970D01*
X4519700Y513130D01*
X4527100Y519910D01*
X4535570Y521600D01*
X4544040Y519910D01*
X4551440Y513130D01*
X4557800Y502970D01*
X4562030Y491120D01*
X4564150Y477570D01*
Y464030D01*
X4562030Y450480D01*
X4557800Y438630D01*
X4551440Y428460D01*
X4544040Y421690D01*
X4535570Y420000D01*
G01X4587640Y521600D02*
X4602460Y420000D01*
X4619390Y521600D01*
X4636320Y420000D01*
X4651140Y521600D01*
G01X4678870Y420000D02*
Y521600D01*
X4727550Y420000D01*
Y521600D01*
G01X4512200Y4232200D02*
Y4333800D01*
X4494420Y4313480D01*
G01Y4232200D02*
X4529980D01*
G01X4639200Y4498900D02*
X4524900D01*
Y4333800D01*
X4855100D01*
Y4498900D01*
X4740800D01*
G01X4598470Y2261600D02*
Y2188790D01*
X4602700Y2173540D01*
X4611170Y2163390D01*
X4621750Y2160000D01*
X4632330Y2163390D01*
X4640800Y2173540D01*
X4645030Y2188790D01*
Y2261600D01*
G01X4705570Y2160000D02*
Y2261600D01*
X4692870Y2241280D01*
G01Y2160000D02*
X4718270D01*
G01X4766110Y2180320D02*
X4772460Y2168460D01*
X4780920Y2161690D01*
X4790450Y2160000D01*
X4798920Y2161690D01*
X4807380Y2170160D01*
X4812670Y2180320D01*
X4813730Y2190480D01*
X4811620Y2202330D01*
X4804210Y2210800D01*
X4796800Y2214190D01*
X4787270D01*
G01X4796800D02*
X4803150Y2219270D01*
X4808440Y2227730D01*
X4810560Y2237890D01*
X4808440Y2248050D01*
X4803150Y2256520D01*
X4793620Y2261600D01*
X4784100Y2259910D01*
X4774570Y2253130D01*
G01X4746300Y4531920D02*
X4755190Y4520060D01*
X4767050Y4513290D01*
X4780380Y4511600D01*
X4792240Y4513290D01*
X4804090Y4521760D01*
X4811500Y4531920D01*
X4812980Y4542080D01*
X4810020Y4553930D01*
X4799640Y4562400D01*
X4789270Y4565790D01*
X4775940D01*
G01X4789270D02*
X4798160Y4570870D01*
X4805570Y4579330D01*
X4808530Y4589490D01*
X4805570Y4599650D01*
X4798160Y4608120D01*
X4784830Y4613200D01*
X4771490Y4611510D01*
X4758160Y4604730D01*
G01X4852350Y4316870D02*
X4861240Y4327030D01*
X4871610Y4332110D01*
X4883460Y4333800D01*
X4898280Y4330410D01*
X4908650Y4321950D01*
X4911620Y4311790D01*
X4910130Y4301620D01*
X4904210Y4293160D01*
X4874570Y4276230D01*
X4861240Y4264370D01*
X4852350Y4247440D01*
X4849380Y4232200D01*
X4911620D01*
G01X4960320Y690340D02*
X4968790Y681880D01*
X4978320Y676800D01*
X4986780D01*
X4995250Y681880D01*
X5001600Y690340D01*
X5004780Y702200D01*
X5002660Y714050D01*
X4997370Y724210D01*
X4987840Y730990D01*
X4975140Y734370D01*
X4967730Y741150D01*
X4964560Y753000D01*
X4966680Y764850D01*
X4971970Y773320D01*
X4979370Y778400D01*
X4986780D01*
X4994190Y775010D01*
X5000540Y766550D01*
G01X5034620Y778400D02*
X5049440Y676800D01*
X5066370Y778400D01*
X5083300Y676800D01*
X5098120Y778400D01*
G01X5126910Y697120D02*
X5133260Y685260D01*
X5141720Y678490D01*
X5151250Y676800D01*
X5159720Y678490D01*
X5168180Y686960D01*
X5173470Y697120D01*
X5174530Y707280D01*
X5172420Y719130D01*
X5165010Y727600D01*
X5157600Y730990D01*
X5148070D01*
G01X5157600D02*
X5163950Y736070D01*
X5169240Y744530D01*
X5171360Y754690D01*
X5169240Y764850D01*
X5163950Y773320D01*
X5154420Y778400D01*
X5144900Y776710D01*
X5135370Y769930D01*
G01X5048470Y2671600D02*
Y2598790D01*
X5052700Y2583540D01*
X5061170Y2573390D01*
X5071750Y2570000D01*
X5082330Y2573390D01*
X5090800Y2583540D01*
X5095030Y2598790D01*
Y2671600D01*
G01X5155570Y2570000D02*
Y2671600D01*
X5142870Y2651280D01*
G01Y2570000D02*
X5168270D01*
G01X5221400Y2581850D02*
X5228810Y2573390D01*
X5237270Y2570000D01*
X5245740Y2573390D01*
X5253150Y2583540D01*
X5258440Y2598790D01*
X5260560Y2614030D01*
Y2632650D01*
X5258440Y2647890D01*
X5253150Y2661440D01*
X5246800Y2668210D01*
X5239390Y2671600D01*
X5230920Y2668210D01*
X5224570Y2661440D01*
X5220340Y2651280D01*
X5218220Y2637730D01*
X5220340Y2625880D01*
X5225630Y2614030D01*
X5231980Y2607250D01*
X5239390Y2605560D01*
X5247860Y2608940D01*
X5254210Y2617410D01*
X5260560Y2632650D01*
G01X5028470Y4591600D02*
Y4518790D01*
X5032700Y4503540D01*
X5041170Y4493390D01*
X5051750Y4490000D01*
X5062330Y4493390D01*
X5070800Y4503540D01*
X5075030Y4518790D01*
Y4591600D01*
G01X5135570Y4490000D02*
Y4591600D01*
X5122870Y4571280D01*
G01Y4490000D02*
X5148270D01*
G01X5196110Y4505240D02*
X5202460Y4496770D01*
X5209860Y4491690D01*
X5219390Y4490000D01*
X5228920Y4493390D01*
X5236320Y4500160D01*
X5241620Y4512010D01*
X5242670Y4525560D01*
X5240560Y4539110D01*
X5235260Y4547570D01*
X5227860Y4554350D01*
X5220450Y4556040D01*
X5213040Y4554350D01*
X5203520Y4547570D01*
X5206690Y4591600D01*
X5235260D01*
G01X5284230Y40000D02*
Y141600D01*
X5311750Y56930D01*
X5339270Y141600D01*
Y40000D01*
G01X5416740D02*
X5374400D01*
Y141600D01*
X5416740D01*
G01X5399800Y92490D02*
X5374400D01*
G01X5455050Y40000D02*
Y141600D01*
X5503730Y40000D01*
Y141600D01*
G01X5539930D02*
Y68790D01*
X5544160Y53540D01*
X5552630Y43390D01*
X5563210Y40000D01*
X5573790Y43390D01*
X5582260Y53540D01*
X5586490Y68790D01*
Y141600D01*
G01X5466560Y4544190D02*
X5470790Y4549270D01*
X5473960Y4557730D01*
X5476080Y4569590D01*
X5473960Y4579750D01*
X5469730Y4586520D01*
X5462320Y4591600D01*
X5433750D01*
Y4490000D01*
X5468670D01*
X5476080Y4496770D01*
X5480320Y4506930D01*
X5482430Y4518790D01*
X5480320Y4530640D01*
X5473960Y4540800D01*
X5466560Y4544190D01*
X5433750D01*
G01X5541910Y4490000D02*
Y4591600D01*
X5529210Y4571280D01*
G01Y4490000D02*
X5554610D01*
G01X5553700Y1285400D02*
X5833100D01*
G01X5553700Y1412400D02*
G03Y1285400I71651J-63500D01*
G01X5833100Y1412400D02*
X5553700D01*
G01X5480580Y1440000D02*
Y1541600D01*
X5507040D01*
X5515510Y1536520D01*
X5520800Y1529750D01*
X5522920Y1516200D01*
X5520800Y1502650D01*
X5514450Y1494190D01*
X5507040Y1489110D01*
X5480580D01*
G01X5507040D02*
X5522920Y1440000D01*
G01X5562290Y1455240D02*
X5568640Y1446770D01*
X5576040Y1441690D01*
X5585570Y1440000D01*
X5595100Y1443390D01*
X5602500Y1450160D01*
X5607800Y1462010D01*
X5608850Y1475560D01*
X5606740Y1489110D01*
X5601440Y1497570D01*
X5594040Y1504350D01*
X5586630Y1506040D01*
X5579220Y1504350D01*
X5569700Y1497570D01*
X5572870Y1541600D01*
X5601440D01*
G01X5669390Y1440000D02*
Y1541600D01*
X5656690Y1521280D01*
G01Y1440000D02*
X5682090D01*
G01X5451570Y2158500D02*
Y2085690D01*
X5455800Y2070440D01*
X5464270Y2060290D01*
X5474850Y2056900D01*
X5485430Y2060290D01*
X5493900Y2070440D01*
X5498130Y2085690D01*
Y2158500D01*
G01X5558670Y2056900D02*
Y2158500D01*
X5545970Y2138180D01*
G01Y2056900D02*
X5571370D01*
G01X5622380Y2141570D02*
X5628730Y2151730D01*
X5636140Y2156810D01*
X5644610Y2158500D01*
X5655190Y2155110D01*
X5662600Y2146650D01*
X5664720Y2136490D01*
X5663660Y2126320D01*
X5659420Y2117860D01*
X5638260Y2100930D01*
X5628730Y2089070D01*
X5622380Y2072140D01*
X5620260Y2056900D01*
X5664720D01*
G01X5718800Y1425100D02*
Y1552100D01*
G01D02*
X5998200D01*
Y1425100D01*
X5718800D01*
G01X5835640Y1412400D02*
G02Y1285400I-73330J-63500D01*
G01X5883900D02*
X6163300D01*
G01X5881360D02*
G02Y1412400I73330J63500D01*
G01X6163300D02*
X5883900D01*
G01X6167600Y78100D02*
Y433700D01*
X5989800D01*
Y78100D01*
X6167600D01*
G01X6014170Y463700D02*
Y565300D01*
X6035330D01*
X6043800Y560220D01*
X6050150Y553450D01*
X6055440Y543290D01*
X6059680Y531430D01*
X6060730Y514500D01*
X6059680Y497570D01*
X6055440Y485710D01*
X6050150Y475550D01*
X6043800Y468780D01*
X6035330Y463700D01*
X6014170D01*
G01X6097990Y478940D02*
X6104340Y470470D01*
X6111740Y465390D01*
X6121270Y463700D01*
X6130800Y467090D01*
X6138200Y473860D01*
X6143500Y485710D01*
X6144550Y499260D01*
X6142440Y512810D01*
X6137140Y521270D01*
X6129740Y528050D01*
X6122330Y529740D01*
X6114920Y528050D01*
X6105400Y521270D01*
X6108570Y565300D01*
X6137140D01*
G01X6018400Y600580D02*
X6120000D01*
Y642920D01*
G01Y726740D02*
Y684400D01*
X6018400D01*
Y726740D01*
G01X6067510Y709800D02*
Y684400D01*
G01X6120000Y766110D02*
X6018400D01*
Y787270D01*
X6023480Y795740D01*
X6030250Y802090D01*
X6040410Y807380D01*
X6052270Y811620D01*
X6069200Y812670D01*
X6086130Y811620D01*
X6097990Y807380D01*
X6108150Y802090D01*
X6114920Y795740D01*
X6120000Y787270D01*
Y766110D01*
G01X6018400Y873210D02*
X6021790Y864740D01*
X6030250Y858390D01*
X6040410Y854160D01*
X6053960Y850980D01*
X6069200Y849930D01*
X6084440Y850980D01*
X6097990Y854160D01*
X6108150Y858390D01*
X6116610Y864740D01*
X6120000Y873210D01*
X6116610Y881680D01*
X6108150Y888030D01*
X6097990Y892260D01*
X6084440Y895440D01*
X6069200Y896490D01*
X6053960Y895440D01*
X6040410Y892260D01*
X6030250Y888030D01*
X6021790Y881680D01*
X6018400Y873210D01*
G01X6184900Y1968500D02*
Y1689100D01*
X6057900D01*
Y1968500D01*
G01X6048400Y2000580D02*
X6150000D01*
Y2042920D01*
G01Y2118270D02*
X6048400D01*
X6121210Y2079110D01*
Y2132030D01*
G01X6057900Y1907540D02*
Y1968500D01*
X6184900D01*
Y1907540D01*
G01X5978470Y2581600D02*
Y2508790D01*
X5982700Y2493540D01*
X5991170Y2483390D01*
X6001750Y2480000D01*
X6012330Y2483390D01*
X6020800Y2493540D01*
X6025030Y2508790D01*
Y2581600D01*
G01X6065460Y2564670D02*
X6071810Y2574830D01*
X6079220Y2579910D01*
X6087690Y2581600D01*
X6098270Y2578210D01*
X6105680Y2569750D01*
X6107800Y2559590D01*
X6106740Y2549420D01*
X6102500Y2540960D01*
X6081340Y2524030D01*
X6071810Y2512170D01*
X6065460Y2495240D01*
X6063340Y2480000D01*
X6107800D01*
G01X6169390Y2581600D02*
X6160920Y2578210D01*
X6154570Y2569750D01*
X6150340Y2559590D01*
X6147160Y2546040D01*
X6146110Y2530800D01*
X6147160Y2515560D01*
X6150340Y2502010D01*
X6154570Y2491850D01*
X6160920Y2483390D01*
X6169390Y2480000D01*
X6177860Y2483390D01*
X6184210Y2491850D01*
X6188440Y2502010D01*
X6191620Y2515560D01*
X6192670Y2530800D01*
X6191620Y2546040D01*
X6188440Y2559590D01*
X6184210Y2569750D01*
X6177860Y2578210D01*
X6169390Y2581600D01*
G01X6004230Y4820000D02*
Y4921600D01*
X6031750Y4836930D01*
X6059270Y4921600D01*
Y4820000D01*
G01X6094400D02*
Y4921600D01*
X6119800D01*
X6128270Y4916520D01*
X6134620Y4904670D01*
X6136740Y4891120D01*
X6134620Y4877570D01*
X6129330Y4867410D01*
X6119800Y4862330D01*
X6094400D01*
G01X6179280Y4904670D02*
X6185630Y4914830D01*
X6193040Y4919910D01*
X6201510Y4921600D01*
X6212090Y4918210D01*
X6219500Y4909750D01*
X6221620Y4899590D01*
X6220560Y4889420D01*
X6216320Y4880960D01*
X6195160Y4864030D01*
X6185630Y4852170D01*
X6179280Y4835240D01*
X6177160Y4820000D01*
X6221620D01*
G01X6370800Y78100D02*
Y433700D01*
X6193000D01*
Y78100D01*
X6370800D01*
G01X6217370Y463700D02*
Y565300D01*
X6238530D01*
X6247000Y560220D01*
X6253350Y553450D01*
X6258640Y543290D01*
X6262880Y531430D01*
X6263930Y514500D01*
X6262880Y497570D01*
X6258640Y485710D01*
X6253350Y475550D01*
X6247000Y468780D01*
X6238530Y463700D01*
X6217370D01*
G01X6304360Y506030D02*
X6311770Y517890D01*
X6318120Y524660D01*
X6326590Y528050D01*
X6334000Y524660D01*
X6339290Y517890D01*
X6343520Y507730D01*
X6344580Y495870D01*
X6343520Y485710D01*
X6339290Y475550D01*
X6332940Y467090D01*
X6325530Y463700D01*
X6317060Y467090D01*
X6309650Y477240D01*
X6305420Y492490D01*
X6304360Y509420D01*
X6306480Y531430D01*
X6309650Y543290D01*
X6314940Y555140D01*
X6322350Y563610D01*
X6329760Y565300D01*
X6337170Y561910D01*
X6342460Y553450D01*
G01X6228400Y600580D02*
X6330000D01*
Y642920D01*
G01Y726740D02*
Y684400D01*
X6228400D01*
Y726740D01*
G01X6277510Y709800D02*
Y684400D01*
G01X6330000Y766110D02*
X6228400D01*
Y787270D01*
X6233480Y795740D01*
X6240250Y802090D01*
X6250410Y807380D01*
X6262270Y811620D01*
X6279200Y812670D01*
X6296130Y811620D01*
X6307990Y807380D01*
X6318150Y802090D01*
X6324920Y795740D01*
X6330000Y787270D01*
Y766110D01*
G01Y873210D02*
X6228400D01*
X6248720Y860510D01*
G01X6330000D02*
Y885910D01*
G01X6255030Y1313130D02*
X6248680Y1318210D01*
X6241280Y1321600D01*
X6232810D01*
X6223280Y1316520D01*
X6215880Y1308050D01*
X6210580Y1297890D01*
X6206350Y1280960D01*
X6205290Y1265720D01*
X6207410Y1250480D01*
X6210580Y1240320D01*
X6216930Y1230160D01*
X6224340Y1223390D01*
X6231750Y1220000D01*
X6239160D01*
X6246570Y1223390D01*
X6252920Y1228460D01*
X6258210Y1235240D01*
G01X6295460Y1262330D02*
X6302870Y1274190D01*
X6309220Y1280960D01*
X6317690Y1284350D01*
X6325100Y1280960D01*
X6330390Y1274190D01*
X6334620Y1264030D01*
X6335680Y1252170D01*
X6334620Y1242010D01*
X6330390Y1231850D01*
X6324040Y1223390D01*
X6316630Y1220000D01*
X6308160Y1223390D01*
X6300750Y1233540D01*
X6296520Y1248790D01*
X6295460Y1265720D01*
X6297580Y1287730D01*
X6300750Y1299590D01*
X6306040Y1311440D01*
X6313450Y1319910D01*
X6320860Y1321600D01*
X6328270Y1318210D01*
X6333560Y1309750D01*
G01X6376110Y1240320D02*
X6382460Y1228460D01*
X6390920Y1221690D01*
X6400450Y1220000D01*
X6408920Y1221690D01*
X6417380Y1230160D01*
X6422670Y1240320D01*
X6423730Y1250480D01*
X6421620Y1262330D01*
X6414210Y1270800D01*
X6406800Y1274190D01*
X6397270D01*
G01X6406800D02*
X6413150Y1279270D01*
X6418440Y1287730D01*
X6420560Y1297890D01*
X6418440Y1308050D01*
X6413150Y1316520D01*
X6403620Y1321600D01*
X6394100Y1319910D01*
X6384570Y1313130D01*
G01X6163300Y1285400D02*
G03Y1412400I-71651J63500D01*
G01X6311900Y1597660D02*
Y1536700D01*
X6184900D01*
Y1597660D01*
G01Y1536700D02*
Y1816100D01*
X6311900D01*
Y1536700D01*
G01X6464300Y1841500D02*
X6184900D01*
Y1968500D01*
X6464300D01*
G01X6208180Y2108200D02*
Y2006600D01*
X6250520D01*
G01X6289890Y2026920D02*
X6296240Y2015060D01*
X6304700Y2008290D01*
X6314230Y2006600D01*
X6322700Y2008290D01*
X6331160Y2016760D01*
X6336450Y2026920D01*
X6337510Y2037080D01*
X6335400Y2048930D01*
X6327990Y2057400D01*
X6320580Y2060790D01*
X6311050D01*
G01X6320580D02*
X6326930Y2065870D01*
X6332220Y2074330D01*
X6334340Y2084490D01*
X6332220Y2094650D01*
X6326930Y2103120D01*
X6317400Y2108200D01*
X6307880Y2106510D01*
X6298350Y2099730D01*
G01X6574000Y78100D02*
Y433700D01*
X6396200D01*
Y78100D01*
X6574000D01*
G01X6420570Y463700D02*
Y565300D01*
X6441730D01*
X6450200Y560220D01*
X6456550Y553450D01*
X6461840Y543290D01*
X6466080Y531430D01*
X6467130Y514500D01*
X6466080Y497570D01*
X6461840Y485710D01*
X6456550Y475550D01*
X6450200Y468780D01*
X6441730Y463700D01*
X6420570D01*
G01X6525550D02*
X6527670Y485710D01*
X6530850Y504340D01*
X6535080Y521270D01*
X6540370Y539900D01*
X6548840Y565300D01*
X6506500D01*
G01X6475810Y630220D02*
X6470730Y634450D01*
X6462270Y637620D01*
X6450410Y639740D01*
X6440250Y637620D01*
X6433480Y633390D01*
X6428400Y625980D01*
Y597410D01*
X6530000D01*
Y632330D01*
X6523230Y639740D01*
X6513070Y643980D01*
X6501210Y646090D01*
X6489360Y643980D01*
X6479200Y637620D01*
X6475810Y630220D01*
Y597410D01*
G01X6428400Y705570D02*
X6530000D01*
G01X6428400Y681230D02*
Y729910D01*
G01X6369520Y1060000D02*
X6413980Y1161600D01*
G01X6369520D02*
X6413980Y1060000D01*
G01X6452290Y1075240D02*
X6458640Y1066770D01*
X6466040Y1061690D01*
X6475570Y1060000D01*
X6485100Y1063390D01*
X6492500Y1070160D01*
X6497800Y1082010D01*
X6498850Y1095560D01*
X6496740Y1109110D01*
X6491440Y1117570D01*
X6484040Y1124350D01*
X6476630Y1126040D01*
X6469220Y1124350D01*
X6459700Y1117570D01*
X6462870Y1161600D01*
X6491440D01*
G01X6337300Y1384300D02*
X6616700D01*
G01Y1511300D02*
X6337300D01*
G01X6334760Y1384300D02*
G02Y1511300I73330J63500D01*
G01X6337300Y1536700D02*
X6616700D01*
G01Y1663700D02*
X6337300D01*
G01X6334760Y1536700D02*
G02Y1663700I73330J63500D01*
G01X6338400Y1690580D02*
X6440000D01*
Y1732920D01*
G01X6424760Y1772290D02*
X6433230Y1778640D01*
X6438310Y1786040D01*
X6440000Y1795570D01*
X6436610Y1805100D01*
X6429840Y1812500D01*
X6417990Y1817800D01*
X6404440Y1818850D01*
X6390890Y1816740D01*
X6382430Y1811440D01*
X6375650Y1804040D01*
X6373960Y1796630D01*
X6375650Y1789220D01*
X6382430Y1779700D01*
X6338400Y1782870D01*
Y1811440D01*
G01X6403340Y1968500D02*
X6464300D01*
Y1841500D01*
X6403340D01*
G01X6309050Y4441600D02*
X6334450D01*
G01X6321750D02*
Y4340000D01*
G01X6309050D02*
X6334450D01*
G01X6384400D02*
Y4441600D01*
X6409800D01*
X6418270Y4436520D01*
X6424620Y4424670D01*
X6426740Y4411120D01*
X6424620Y4397570D01*
X6419330Y4387410D01*
X6409800Y4382330D01*
X6384400D01*
G01X6467160Y4340000D02*
X6511620Y4441600D01*
G01X6467160D02*
X6511620Y4340000D01*
G01X6573210D02*
Y4441600D01*
X6560510Y4421280D01*
G01Y4340000D02*
X6585910D01*
G01X6777200Y78100D02*
Y433700D01*
X6599400D01*
Y78100D01*
X6777200D01*
G01X6505030Y1313130D02*
X6498680Y1318210D01*
X6491280Y1321600D01*
X6482810D01*
X6473280Y1316520D01*
X6465880Y1308050D01*
X6460580Y1297890D01*
X6456350Y1280960D01*
X6455290Y1265720D01*
X6457410Y1250480D01*
X6460580Y1240320D01*
X6466930Y1230160D01*
X6474340Y1223390D01*
X6481750Y1220000D01*
X6489160D01*
X6496570Y1223390D01*
X6502920Y1228460D01*
X6508210Y1235240D01*
G01X6545460Y1262330D02*
X6552870Y1274190D01*
X6559220Y1280960D01*
X6567690Y1284350D01*
X6575100Y1280960D01*
X6580390Y1274190D01*
X6584620Y1264030D01*
X6585680Y1252170D01*
X6584620Y1242010D01*
X6580390Y1231850D01*
X6574040Y1223390D01*
X6566630Y1220000D01*
X6558160Y1223390D01*
X6550750Y1233540D01*
X6546520Y1248790D01*
X6545460Y1265720D01*
X6547580Y1287730D01*
X6550750Y1299590D01*
X6556040Y1311440D01*
X6563450Y1319910D01*
X6570860Y1321600D01*
X6578270Y1318210D01*
X6583560Y1309750D01*
G01X6662090Y1220000D02*
Y1321600D01*
X6622930Y1248790D01*
X6675850D01*
G01X6489700Y1841500D02*
X6769100D01*
G01X6487160D02*
G02Y1968500I73330J63500D01*
G01X6565030Y2083130D02*
X6558680Y2088210D01*
X6551280Y2091600D01*
X6542810D01*
X6533280Y2086520D01*
X6525880Y2078050D01*
X6520580Y2067890D01*
X6516350Y2050960D01*
X6515290Y2035720D01*
X6517410Y2020480D01*
X6520580Y2010320D01*
X6526930Y2000160D01*
X6534340Y1993390D01*
X6541750Y1990000D01*
X6549160D01*
X6556570Y1993390D01*
X6562920Y1998460D01*
X6568210Y2005240D01*
G01X6638270Y1990000D02*
Y2091600D01*
X6599110Y2018790D01*
X6652030D01*
G01X6722090Y1990000D02*
Y2091600D01*
X6682930Y2018790D01*
X6735850D01*
G01X6769100Y1968500D02*
X6489700D01*
G01X6590000Y3150580D02*
X6488400D01*
Y3177040D01*
X6493480Y3185510D01*
X6500250Y3190800D01*
X6513800Y3192920D01*
X6527350Y3190800D01*
X6535810Y3184450D01*
X6540890Y3177040D01*
Y3150580D01*
G01Y3177040D02*
X6590000Y3192920D01*
G01Y3268270D02*
X6488400D01*
X6561210Y3229110D01*
Y3282030D01*
G01X6547670Y3319280D02*
X6535810Y3326690D01*
X6529040Y3333040D01*
X6525650Y3341510D01*
X6529040Y3348920D01*
X6535810Y3354210D01*
X6545970Y3358440D01*
X6557830Y3359500D01*
X6567990Y3358440D01*
X6578150Y3354210D01*
X6586610Y3347860D01*
X6590000Y3340450D01*
X6586610Y3331980D01*
X6576460Y3324570D01*
X6561210Y3320340D01*
X6544280Y3319280D01*
X6522270Y3321400D01*
X6510410Y3324570D01*
X6498560Y3329860D01*
X6490090Y3337270D01*
X6488400Y3344680D01*
X6491790Y3352090D01*
X6500250Y3357380D01*
G01X6478400Y3430580D02*
X6580000D01*
Y3472920D01*
G01X6537670Y3515460D02*
X6525810Y3522870D01*
X6519040Y3529220D01*
X6515650Y3537690D01*
X6519040Y3545100D01*
X6525810Y3550390D01*
X6535970Y3554620D01*
X6547830Y3555680D01*
X6557990Y3554620D01*
X6568150Y3550390D01*
X6576610Y3544040D01*
X6580000Y3536630D01*
X6576610Y3528160D01*
X6566460Y3520750D01*
X6551210Y3516520D01*
X6534280Y3515460D01*
X6512270Y3517580D01*
X6500410Y3520750D01*
X6488560Y3526040D01*
X6480090Y3533450D01*
X6478400Y3540860D01*
X6481790Y3548270D01*
X6490250Y3553560D01*
G01X6591300Y3600300D02*
X6464300D01*
G01D02*
Y3879700D01*
X6591300D01*
Y3600300D01*
G01X6626860Y3975100D02*
G02Y4102100I73330J63500D01*
G01X6591300Y3966060D02*
Y3905100D01*
X6464300D01*
Y3966060D01*
G01Y3905100D02*
Y4184500D01*
X6591300D01*
Y3905100D01*
G01X6629400Y4254500D02*
G03Y4127500I71651J-63500D01*
G01X6623770Y463700D02*
Y565300D01*
X6644930D01*
X6653400Y560220D01*
X6659750Y553450D01*
X6665040Y543290D01*
X6669280Y531430D01*
X6670330Y514500D01*
X6669280Y497570D01*
X6665040Y485710D01*
X6659750Y475550D01*
X6653400Y468780D01*
X6644930Y463700D01*
X6623770D01*
G01X6730870D02*
X6738280Y465390D01*
X6746740Y470470D01*
X6752040Y478940D01*
X6754150Y490790D01*
X6752040Y502640D01*
X6745690Y512810D01*
X6736160Y517890D01*
X6725580D01*
X6719230Y521270D01*
X6713940Y529740D01*
X6711820Y541590D01*
X6715000Y553450D01*
X6722400Y561910D01*
X6730870Y565300D01*
X6739340Y561910D01*
X6746740Y553450D01*
X6749920Y541590D01*
X6747800Y529740D01*
X6742510Y521270D01*
X6736160Y517890D01*
X6725580D01*
X6716050Y512810D01*
X6709700Y502640D01*
X6707590Y490790D01*
X6709700Y478940D01*
X6715000Y470470D01*
X6723460Y465390D01*
X6730870Y463700D01*
G01X6689200Y628100D02*
Y649270D01*
X6719680D01*
X6729840Y642920D01*
X6736610Y635510D01*
X6740000Y624930D01*
X6736610Y614340D01*
X6729840Y606930D01*
X6719680Y600580D01*
X6707830Y596350D01*
X6694280Y594230D01*
X6682430D01*
X6672270Y596350D01*
X6660410Y600580D01*
X6650250Y606930D01*
X6643480Y613280D01*
X6638400Y621750D01*
Y629160D01*
X6641790Y637620D01*
X6648560Y643980D01*
G01X6740000Y684400D02*
X6638400D01*
Y709800D01*
X6643480Y718270D01*
X6655330Y724620D01*
X6668880Y726740D01*
X6682430Y724620D01*
X6692590Y719330D01*
X6697670Y709800D01*
Y684400D01*
G01X6726460Y767160D02*
X6734920Y775630D01*
X6740000Y785160D01*
Y793620D01*
X6734920Y802090D01*
X6726460Y808440D01*
X6714600Y811620D01*
X6702750Y809500D01*
X6692590Y804210D01*
X6685810Y794680D01*
X6682430Y781980D01*
X6675650Y774570D01*
X6663800Y771400D01*
X6651950Y773520D01*
X6643480Y778810D01*
X6638400Y786210D01*
Y793620D01*
X6641790Y801030D01*
X6650250Y807380D01*
G01X6720630Y1651730D02*
X6714280Y1656810D01*
X6706880Y1660200D01*
X6698410D01*
X6688880Y1655120D01*
X6681480Y1646650D01*
X6676180Y1636490D01*
X6671950Y1619560D01*
X6670890Y1604320D01*
X6673010Y1589080D01*
X6676180Y1578920D01*
X6682530Y1568760D01*
X6689940Y1561990D01*
X6697350Y1558600D01*
X6704760D01*
X6712170Y1561990D01*
X6718520Y1567060D01*
X6723810Y1573840D01*
G01X6757890D02*
X6764240Y1565370D01*
X6771640Y1560290D01*
X6781170Y1558600D01*
X6790700Y1561990D01*
X6798100Y1568760D01*
X6803400Y1580610D01*
X6804450Y1594160D01*
X6802340Y1607710D01*
X6797040Y1616170D01*
X6789640Y1622950D01*
X6782230Y1624640D01*
X6774820Y1622950D01*
X6765300Y1616170D01*
X6768470Y1660200D01*
X6797040D01*
G01X6864990D02*
X6856520Y1656810D01*
X6850170Y1648350D01*
X6845940Y1638190D01*
X6842760Y1624640D01*
X6841710Y1609400D01*
X6842760Y1594160D01*
X6845940Y1580610D01*
X6850170Y1570450D01*
X6856520Y1561990D01*
X6864990Y1558600D01*
X6873460Y1561990D01*
X6879810Y1570450D01*
X6884040Y1580610D01*
X6887220Y1594160D01*
X6888270Y1609400D01*
X6887220Y1624640D01*
X6884040Y1638190D01*
X6879810Y1648350D01*
X6873460Y1656810D01*
X6864990Y1660200D01*
G01X6720630Y1499330D02*
X6714280Y1504410D01*
X6706880Y1507800D01*
X6698410D01*
X6688880Y1502720D01*
X6681480Y1494250D01*
X6676180Y1484090D01*
X6671950Y1467160D01*
X6670890Y1451920D01*
X6673010Y1436680D01*
X6676180Y1426520D01*
X6682530Y1416360D01*
X6689940Y1409590D01*
X6697350Y1406200D01*
X6704760D01*
X6712170Y1409590D01*
X6718520Y1414660D01*
X6723810Y1421440D01*
G01X6757890D02*
X6764240Y1412970D01*
X6771640Y1407890D01*
X6781170Y1406200D01*
X6790700Y1409590D01*
X6798100Y1416360D01*
X6803400Y1428210D01*
X6804450Y1441760D01*
X6802340Y1455310D01*
X6797040Y1463770D01*
X6789640Y1470550D01*
X6782230Y1472240D01*
X6774820Y1470550D01*
X6765300Y1463770D01*
X6768470Y1507800D01*
X6797040D01*
G01X6864990Y1406200D02*
Y1507800D01*
X6852290Y1487480D01*
G01Y1406200D02*
X6877690D01*
G01X6616700Y1384300D02*
G03Y1511300I-71651J63500D01*
G01Y1536700D02*
G03Y1663700I-71651J63500D01*
G01X6769100Y1841500D02*
G03Y1968500I-71651J63500D01*
G01X6705030Y3783130D02*
X6698680Y3788210D01*
X6691280Y3791600D01*
X6682810D01*
X6673280Y3786520D01*
X6665880Y3778050D01*
X6660580Y3767890D01*
X6656350Y3750960D01*
X6655290Y3735720D01*
X6657410Y3720480D01*
X6660580Y3710320D01*
X6666930Y3700160D01*
X6674340Y3693390D01*
X6681750Y3690000D01*
X6689160D01*
X6696570Y3693390D01*
X6702920Y3698460D01*
X6708210Y3705240D01*
G01X6742290D02*
X6748640Y3696770D01*
X6756040Y3691690D01*
X6765570Y3690000D01*
X6775100Y3693390D01*
X6782500Y3700160D01*
X6787800Y3712010D01*
X6788850Y3725560D01*
X6786740Y3739110D01*
X6781440Y3747570D01*
X6774040Y3754350D01*
X6766630Y3756040D01*
X6759220Y3754350D01*
X6749700Y3747570D01*
X6752870Y3791600D01*
X6781440D01*
G01X6831400Y3701850D02*
X6838810Y3693390D01*
X6847270Y3690000D01*
X6855740Y3693390D01*
X6863150Y3703540D01*
X6868440Y3718790D01*
X6870560Y3734030D01*
Y3752650D01*
X6868440Y3767890D01*
X6863150Y3781440D01*
X6856800Y3788210D01*
X6849390Y3791600D01*
X6840920Y3788210D01*
X6834570Y3781440D01*
X6830340Y3771280D01*
X6828220Y3757730D01*
X6830340Y3745880D01*
X6835630Y3734030D01*
X6841980Y3727250D01*
X6849390Y3725560D01*
X6857860Y3728940D01*
X6864210Y3737410D01*
X6870560Y3752650D01*
G01X6705030Y3923130D02*
X6698680Y3928210D01*
X6691280Y3931600D01*
X6682810D01*
X6673280Y3926520D01*
X6665880Y3918050D01*
X6660580Y3907890D01*
X6656350Y3890960D01*
X6655290Y3875720D01*
X6657410Y3860480D01*
X6660580Y3850320D01*
X6666930Y3840160D01*
X6674340Y3833390D01*
X6681750Y3830000D01*
X6689160D01*
X6696570Y3833390D01*
X6702920Y3838460D01*
X6708210Y3845240D01*
G01X6745460Y3872330D02*
X6752870Y3884190D01*
X6759220Y3890960D01*
X6767690Y3894350D01*
X6775100Y3890960D01*
X6780390Y3884190D01*
X6784620Y3874030D01*
X6785680Y3862170D01*
X6784620Y3852010D01*
X6780390Y3841850D01*
X6774040Y3833390D01*
X6766630Y3830000D01*
X6758160Y3833390D01*
X6750750Y3843540D01*
X6746520Y3858790D01*
X6745460Y3875720D01*
X6747580Y3897730D01*
X6750750Y3909590D01*
X6756040Y3921440D01*
X6763450Y3929910D01*
X6770860Y3931600D01*
X6778270Y3928210D01*
X6783560Y3919750D01*
G01X6829280Y3914670D02*
X6835630Y3924830D01*
X6843040Y3929910D01*
X6851510Y3931600D01*
X6862090Y3928210D01*
X6869500Y3919750D01*
X6871620Y3909590D01*
X6870560Y3899420D01*
X6866320Y3890960D01*
X6845160Y3874030D01*
X6835630Y3862170D01*
X6829280Y3845240D01*
X6827160Y3830000D01*
X6871620D01*
G01X6629400Y3975100D02*
X6908800D01*
G01X6629400Y4127500D02*
X6908800D01*
G01Y4102100D02*
X6629400D01*
G01X6908800Y4254500D02*
X6629400D01*
G01X6664230Y4340000D02*
Y4441600D01*
X6691750Y4356930D01*
X6719270Y4441600D01*
Y4340000D01*
G01X6753340D02*
Y4441600D01*
G01X6797800D02*
Y4340000D01*
G01Y4390800D02*
X6753340D01*
G01X6836110Y4360320D02*
X6842460Y4348460D01*
X6850920Y4341690D01*
X6860450Y4340000D01*
X6868920Y4341690D01*
X6877380Y4350160D01*
X6882670Y4360320D01*
X6883730Y4370480D01*
X6881620Y4382330D01*
X6874210Y4390800D01*
X6866800Y4394190D01*
X6857270D01*
G01X6866800D02*
X6873150Y4399270D01*
X6878440Y4407730D01*
X6880560Y4417890D01*
X6878440Y4428050D01*
X6873150Y4436520D01*
X6863620Y4441600D01*
X6854100Y4439910D01*
X6844570Y4433130D01*
G01X6921500Y1841500D02*
Y2120900D01*
G01X6794500D02*
Y1841500D01*
G01X6921500Y1838960D02*
G02X6794500I-63500J73330D01*
G01X6826870Y2235030D02*
X6821790Y2228680D01*
X6818400Y2221280D01*
Y2212810D01*
X6823480Y2203280D01*
X6831950Y2195880D01*
X6842110Y2190580D01*
X6859040Y2186350D01*
X6874280Y2185290D01*
X6889520Y2187410D01*
X6899680Y2190580D01*
X6909840Y2196930D01*
X6916610Y2204340D01*
X6920000Y2211750D01*
Y2219160D01*
X6916610Y2226570D01*
X6911540Y2232920D01*
X6904760Y2238210D01*
G01X6920000Y2308270D02*
X6818400D01*
X6891210Y2269110D01*
Y2322030D01*
G01X6877670Y2359280D02*
X6865810Y2366690D01*
X6859040Y2373040D01*
X6855650Y2381510D01*
X6859040Y2388920D01*
X6865810Y2394210D01*
X6875970Y2398440D01*
X6887830Y2399500D01*
X6897990Y2398440D01*
X6908150Y2394210D01*
X6916610Y2387860D01*
X6920000Y2380450D01*
X6916610Y2371980D01*
X6906460Y2364570D01*
X6891210Y2360340D01*
X6874280Y2359280D01*
X6852270Y2361400D01*
X6840410Y2364570D01*
X6828560Y2369860D01*
X6820090Y2377270D01*
X6818400Y2384680D01*
X6821790Y2392090D01*
X6830250Y2397380D01*
G01X6921500Y2120900D02*
G03X6794500I-63500J-71651D01*
G01X6958470Y3901600D02*
Y3828790D01*
X6962700Y3813540D01*
X6971170Y3803390D01*
X6981750Y3800000D01*
X6992330Y3803390D01*
X7000800Y3813540D01*
X7005030Y3828790D01*
Y3901600D01*
G01X7045460Y3884670D02*
X7051810Y3894830D01*
X7059220Y3899910D01*
X7067690Y3901600D01*
X7078270Y3898210D01*
X7085680Y3889750D01*
X7087800Y3879590D01*
X7086740Y3869420D01*
X7082500Y3860960D01*
X7061340Y3844030D01*
X7051810Y3832170D01*
X7045460Y3815240D01*
X7043340Y3800000D01*
X7087800D01*
G01X7149390D02*
Y3901600D01*
X7136690Y3881280D01*
G01Y3800000D02*
X7162090D01*
G01X6908800Y3975100D02*
G03Y4102100I-71651J63500D01*
G01X6911340Y4254500D02*
G02Y4127500I-73330J-63500D01*
G01X7140000Y865290D02*
X7038400Y891750D01*
X7140000Y918210D01*
G01X7104440Y908680D02*
Y874820D01*
G01X7140000Y951230D02*
X7038400D01*
X7140000Y999910D01*
X7038400D01*
G01Y1059390D02*
X7140000D01*
G01X7038400Y1035050D02*
Y1083730D01*
G01X7140000Y1143210D02*
X7038400D01*
X7058720Y1130510D01*
G01X7140000D02*
Y1155910D01*
G01X7070000Y3195290D02*
X6968400Y3221750D01*
X7070000Y3248210D01*
G01X7034440Y3238680D02*
Y3204820D01*
G01X7070000Y3281230D02*
X6968400D01*
X7070000Y3329910D01*
X6968400D01*
G01Y3389390D02*
X7070000D01*
G01X6968400Y3365050D02*
Y3413730D01*
G01X6985330Y3453100D02*
X6975170Y3459450D01*
X6970090Y3466860D01*
X6968400Y3475330D01*
X6971790Y3485910D01*
X6980250Y3493320D01*
X6990410Y3495440D01*
X7000580Y3494380D01*
X7009040Y3490140D01*
X7025970Y3468980D01*
X7037830Y3459450D01*
X7054760Y3453100D01*
X7070000Y3450980D01*
Y3495440D01*
G01X7264230Y690000D02*
Y791600D01*
X7291750Y706930D01*
X7319270Y791600D01*
Y690000D01*
G01X7353340D02*
Y791600D01*
G01X7397800D02*
Y690000D01*
G01Y740800D02*
X7353340D01*
G01X7439280Y774670D02*
X7445630Y784830D01*
X7453040Y789910D01*
X7461510Y791600D01*
X7472090Y788210D01*
X7479500Y779750D01*
X7481620Y769590D01*
X7480560Y759420D01*
X7476320Y750960D01*
X7455160Y734030D01*
X7445630Y722170D01*
X7439280Y705240D01*
X7437160Y690000D01*
X7481620D01*
G01X7226300Y3911600D02*
Y3632200D01*
G01D02*
G03X7353300I63500J71651D01*
G01X7226300Y3914140D02*
G02X7353300I63500J-73330D01*
G01Y4229100D02*
Y3949700D01*
X7226300D01*
Y4229100D01*
G01Y4168140D02*
Y4229100D01*
X7353300D01*
Y4168140D01*
G01X7386870Y3735030D02*
X7381790Y3728680D01*
X7378400Y3721280D01*
Y3712810D01*
X7383480Y3703280D01*
X7391950Y3695880D01*
X7402110Y3690580D01*
X7419040Y3686350D01*
X7434280Y3685290D01*
X7449520Y3687410D01*
X7459680Y3690580D01*
X7469840Y3696930D01*
X7476610Y3704340D01*
X7480000Y3711750D01*
Y3719160D01*
X7476610Y3726570D01*
X7471540Y3732920D01*
X7464760Y3738210D01*
G01X7437670Y3775460D02*
X7425810Y3782870D01*
X7419040Y3789220D01*
X7415650Y3797690D01*
X7419040Y3805100D01*
X7425810Y3810390D01*
X7435970Y3814620D01*
X7447830Y3815680D01*
X7457990Y3814620D01*
X7468150Y3810390D01*
X7476610Y3804040D01*
X7480000Y3796630D01*
X7476610Y3788160D01*
X7466460Y3780750D01*
X7451210Y3776520D01*
X7434280Y3775460D01*
X7412270Y3777580D01*
X7400410Y3780750D01*
X7388560Y3786040D01*
X7380090Y3793450D01*
X7378400Y3800860D01*
X7381790Y3808270D01*
X7390250Y3813560D01*
G01X7378400Y3879390D02*
X7381790Y3870920D01*
X7390250Y3864570D01*
X7400410Y3860340D01*
X7413960Y3857160D01*
X7429200Y3856110D01*
X7444440Y3857160D01*
X7457990Y3860340D01*
X7468150Y3864570D01*
X7476610Y3870920D01*
X7480000Y3879390D01*
X7476610Y3887860D01*
X7468150Y3894210D01*
X7457990Y3898440D01*
X7444440Y3901620D01*
X7429200Y3902670D01*
X7413960Y3901620D01*
X7400410Y3898440D01*
X7390250Y3894210D01*
X7381790Y3887860D01*
X7378400Y3879390D01*
G01X7353300Y3632200D02*
Y3911600D01*
G01X7378400Y3990580D02*
X7480000D01*
Y4032920D01*
G01Y4093450D02*
X7457990Y4095570D01*
X7439360Y4098750D01*
X7422430Y4102980D01*
X7403800Y4108270D01*
X7378400Y4116740D01*
Y4074400D01*
G54D11*
G01X478000Y2848000D02*
G03I-30000J0D01*
G01Y3248000D02*
G03I-30000J0D01*
G54D12*
G01X7275200Y1595260D02*
X7353940D01*
Y1570920D01*
X7350000Y1563130D01*
X7344750Y1558260D01*
X7334250Y1556320D01*
X7323760Y1558260D01*
X7317200Y1564110D01*
X7313260Y1570920D01*
Y1595260D01*
G01Y1570920D02*
X7275200Y1556320D01*
G01Y1479520D02*
X7327690D01*
G01X7318510D02*
X7323760Y1483420D01*
X7326380Y1489260D01*
X7327690Y1496080D01*
X7325070Y1502890D01*
X7319820Y1508730D01*
X7311940Y1512630D01*
X7301450Y1514580D01*
X7290950Y1512630D01*
X7283070Y1508730D01*
X7277820Y1502890D01*
X7275200Y1496080D01*
X7276510Y1489260D01*
X7280450Y1483420D01*
X7285700Y1479520D01*
G01X7327690Y1418310D02*
X7275200D01*
G01X7348690D02*
X7350000Y1420260D01*
X7352630D01*
X7353940Y1418310D01*
X7352630Y1416360D01*
X7350000D01*
X7348690Y1418310D01*
G01X7275200Y1356120D02*
X7327690D01*
G01X7314570D02*
X7321130Y1352230D01*
X7326380Y1346390D01*
X7327690Y1338600D01*
X7326380Y1331780D01*
X7321130Y1325940D01*
X7311940Y1323020D01*
X7275200D01*
G01X7285700Y1281280D02*
X7279140Y1273490D01*
X7275200Y1264720D01*
Y1256940D01*
X7279140Y1249150D01*
X7285700Y1243300D01*
X7294890Y1240380D01*
X7304070Y1242330D01*
X7311940Y1247200D01*
X7317200Y1255960D01*
X7319820Y1267650D01*
X7325070Y1274460D01*
X7334250Y1277380D01*
X7343440Y1275430D01*
X7350000Y1270570D01*
X7353940Y1263750D01*
Y1256940D01*
X7351320Y1250120D01*
X7344750Y1244280D01*
G01X7327690Y1198640D02*
X7290950D01*
X7281760Y1194750D01*
X7276510Y1188910D01*
X7275200Y1182090D01*
X7276510Y1175270D01*
X7281760Y1169430D01*
X7290950Y1165540D01*
G01X7275200D02*
X7327690D01*
G01X7275200Y1119900D02*
X7327690D01*
G01X7314570D02*
X7321130Y1116010D01*
X7326380Y1110170D01*
X7327690Y1102380D01*
X7326380Y1095560D01*
X7321130Y1089720D01*
X7311940Y1086800D01*
X7275200D01*
G01X7249800Y3187060D02*
X7328540D01*
Y3162720D01*
X7324600Y3154930D01*
X7319350Y3150060D01*
X7308850Y3148120D01*
X7298360Y3150060D01*
X7291800Y3155910D01*
X7287860Y3162720D01*
Y3187060D01*
G01Y3162720D02*
X7249800Y3148120D01*
G01Y3071320D02*
X7302290D01*
G01X7293110D02*
X7298360Y3075220D01*
X7300980Y3081060D01*
X7302290Y3087880D01*
X7299670Y3094690D01*
X7294420Y3100530D01*
X7286540Y3104430D01*
X7276050Y3106380D01*
X7265550Y3104430D01*
X7257670Y3100530D01*
X7252420Y3094690D01*
X7249800Y3087880D01*
X7251110Y3081060D01*
X7255050Y3075220D01*
X7260300Y3071320D01*
G01X7302290Y3010110D02*
X7249800D01*
G01X7323290D02*
X7324600Y3012060D01*
X7327230D01*
X7328540Y3010110D01*
X7327230Y3008160D01*
X7324600D01*
X7323290Y3010110D01*
G01X7249800Y2947920D02*
X7302290D01*
G01X7289170D02*
X7295730Y2944030D01*
X7300980Y2938190D01*
X7302290Y2930400D01*
X7300980Y2923580D01*
X7295730Y2917740D01*
X7286540Y2914820D01*
X7249800D01*
G01X7260300Y2873080D02*
X7253740Y2865290D01*
X7249800Y2856520D01*
Y2848740D01*
X7253740Y2840950D01*
X7260300Y2835100D01*
X7269490Y2832180D01*
X7278670Y2834130D01*
X7286540Y2839000D01*
X7291800Y2847760D01*
X7294420Y2859450D01*
X7299670Y2866260D01*
X7308850Y2869180D01*
X7318040Y2867230D01*
X7324600Y2862370D01*
X7328540Y2855550D01*
Y2848740D01*
X7325920Y2841920D01*
X7319350Y2836080D01*
G01X7302290Y2790440D02*
X7265550D01*
X7256360Y2786550D01*
X7251110Y2780710D01*
X7249800Y2773890D01*
X7251110Y2767070D01*
X7256360Y2761230D01*
X7265550Y2757340D01*
G01X7249800D02*
X7302290D01*
G01X7249800Y2711700D02*
X7302290D01*
G01X7289170D02*
X7295730Y2707810D01*
X7300980Y2701970D01*
X7302290Y2694180D01*
X7300980Y2687360D01*
X7295730Y2681520D01*
X7286540Y2678600D01*
X7249800D01*
G54D13*
G01X-2000Y3422000D02*
Y2682000D01*
X498000D01*
Y3422000D01*
X-2000D01*
G01X10200Y4038300D02*
Y3758300D01*
X-29800D01*
Y4058300D01*
X10200D01*
Y4038300D01*
G01X70200D02*
Y3778300D01*
X-29800D01*
Y4038300D01*
X70200D01*
G01X38100Y711200D02*
Y1206500D01*
X292100D01*
Y711200D01*
X38100D01*
G01X138000Y3248000D02*
Y2848000D01*
X328000D01*
Y3248000D01*
X138000D01*
G01X328000Y2998000D02*
X138000D01*
G01X328000Y3088000D02*
X138000D01*
G01X70200Y4178300D02*
Y3638300D01*
X420200D01*
Y4178300D01*
X70200D01*
G01X320200Y3978300D02*
Y3838300D01*
G02X290200Y3808300I-30000J0D01*
G01X170200D01*
Y3868300D01*
X260200D01*
Y3948300D01*
X170200D01*
Y4008300D01*
X290200D01*
G02X320200Y3978300I0J-30000D01*
G01X150200Y3908300D02*
G03I-40000J0D01*
G01X330000Y840000D02*
X490000D01*
G01X425200Y3908300D02*
G03I-40000J0D01*
G01X410000Y910000D02*
Y760000D01*
G01X372000Y3422000D02*
Y2691000D01*
G01X1005100Y200000D02*
G03I-165100J0D01*
G01X849000Y779800D02*
G02X929000I40000J0D01*
G01D02*
X1009000D01*
Y1099800D01*
X769000D01*
Y779800D01*
X849000D01*
G01X783800Y1658900D02*
X1253700D01*
Y1481100D01*
X783800D01*
Y1658900D01*
G01X793800Y2378900D02*
X1263700D01*
Y2201100D01*
X793800D01*
Y2378900D01*
G01X939800Y4584700D02*
X965200D01*
Y4305300D01*
X838200D01*
Y4584700D01*
X863600D01*
G01X1050500Y1557300D02*
X1025100D01*
Y1595400D01*
X1012400Y1608100D01*
Y1519200D01*
X987000D01*
Y1620800D01*
X1012400D01*
X1063200Y1570000D01*
X974300Y1481100D01*
Y1658900D01*
X1063200Y1570000D01*
X1025100D01*
G01X1060500Y2277300D02*
X1035100D01*
Y2315400D01*
X1022400Y2328100D01*
Y2239200D01*
X997000D01*
Y2340800D01*
X1022400D01*
X1073200Y2290000D01*
X984300Y2201100D01*
Y2378900D01*
X1073200Y2290000D01*
X1035100D01*
G01X1020000Y2980000D02*
X1200000D01*
Y2740000D01*
X1020000D01*
Y2980000D01*
G01X939800Y4584700D02*
G02X863600I-38100J12700D01*
G01X1063200Y1658900D02*
Y1481100D01*
G01X1073200Y2378900D02*
Y2201100D01*
G01X1169500Y3544300D02*
X1563200D01*
Y3315700D01*
X1156800D01*
Y3544300D01*
X1169500D01*
G01X1070000Y4640000D02*
Y4410000D01*
X2090000D01*
Y4630000D01*
G01X1073000Y4633000D02*
Y4887000D01*
G01X2089000Y4633000D02*
X1073000D01*
G01Y4887000D02*
X2089000D01*
G01X1253700Y1658900D02*
X1291800D01*
Y1481100D01*
X1253700D01*
G01X1263700Y2378900D02*
X1301800D01*
Y2201100D01*
X1263700D01*
G01X1780000Y3120000D02*
X1830000D01*
Y2560000D01*
X1310000D01*
Y3120000D01*
X1780000D01*
G01X1505300Y634000D02*
X2475300D01*
Y284000D01*
X2415300D01*
Y4000D01*
X1565300D01*
Y284000D01*
X1505300D01*
Y634000D01*
G01X1490000Y2850000D02*
G02X1410000I-40000J0D01*
G01X1570000D02*
G02X1490000I-40000J0D01*
G01X5921250Y901700D02*
X5794250D01*
G03X5540250I-127000J2540D01*
G01X4625850D01*
Y1155700D01*
X2898650D01*
Y901700D01*
X1958850D01*
G03X1704850I-127000J2540D01*
G01X1577850D01*
Y4914900D01*
X1704850D01*
G03X1958850I127000J-2540D01*
G01X5540250D01*
G03X5794250I127000J-2540D01*
G01X5921250D01*
G01X1730000Y2850000D02*
G02X1650000I-40000J0D01*
G01D02*
G02X1570000I-40000J0D01*
G01X2197100Y0D02*
Y-100000D01*
X2195500Y-101600D01*
X1790700D01*
Y0D01*
G01X1898100Y1199700D02*
X1923500D01*
Y920300D01*
X1796500D01*
Y1199700D01*
X1821900D01*
G01X1898100D02*
G02X1821900I-38100J12700D01*
G01X1831850Y4406900D02*
X5641850D01*
Y1612900D01*
X1831850D01*
Y4406900D01*
G01X1900000Y490000D02*
G03X1950000Y550000I85884J-20737D01*
G01X1990000Y590000D01*
G01X1950000Y550000D02*
X1990000Y510000D01*
G01X2274850Y1189500D02*
X2655850D01*
Y935500D01*
X2147850D01*
Y1189500D01*
X2274850D01*
G01X2085850Y4152900D02*
X5387850D01*
Y2120900D01*
X2085850D01*
Y4152900D01*
G01X2199700Y3940100D02*
X2079700D01*
Y2740100D01*
X3279700D01*
Y3940100D01*
X2199700D01*
G01X2089000Y4887000D02*
Y4633000D01*
G01X2245000Y1616900D02*
Y2116900D01*
X2335000D01*
G01X2505000Y1616900D02*
X2245000D01*
G01X2335000Y2116900D02*
G03X2415000I40000J4108D01*
G01X2224850Y4892500D02*
X5284850D01*
Y4632500D01*
X2224850D01*
Y4892500D01*
G01X2505000Y1616900D02*
Y2116900D01*
G01X2415000D02*
X2505000D01*
G01X3162000Y767200D02*
Y167200D01*
X2562000D01*
Y767200D01*
X3162000D01*
G01X2633400Y670400D02*
Y264000D01*
G01X3014400Y467200D02*
G03I-152400J0D01*
G01X2583200Y4556900D02*
Y4586900D01*
X3183200D01*
Y4226900D01*
X2583200D01*
Y4556900D01*
G01X2857800Y4521200D02*
X2908600D01*
Y4292600D01*
X2857800D01*
Y4521200D01*
G01X2819700Y4483100D02*
Y4330700D01*
G01X2794300Y4406900D02*
X2819700D01*
G01X3416400Y1333500D02*
X3022700D01*
Y1562100D01*
X3429100D01*
Y1333500D01*
X3416400D01*
G01X2946700Y4483100D02*
Y4330700D01*
G01X2972100Y4406900D02*
X2946700D01*
G01X3090600Y670400D02*
Y264000D01*
G01X3083200Y1616900D02*
Y2116900D01*
X3173200D01*
G01X3343200Y1616900D02*
X3083200D01*
G01X3173200Y2116900D02*
G03X3253200I40000J4108D01*
G01X3232500Y634000D02*
X4202500D01*
Y284000D01*
X4142500D01*
Y4000D01*
X3292500D01*
Y284000D01*
X3232500D01*
Y634000D01*
G01X3343200Y1616900D02*
Y2116900D01*
G01X3253200D02*
X3343200D01*
G01X3924300Y0D02*
Y-100000D01*
X3922700Y-101600D01*
X3517900D01*
Y0D01*
G01X3548100Y1199700D02*
X3573500D01*
Y920300D01*
X3446500D01*
Y1199700D01*
X3471900D01*
G01X3548100D02*
G02X3471900I-38100J12700D01*
G01X3610000Y380000D02*
X3830000D01*
Y500000D01*
X3720000Y610000D01*
X3610000Y500000D01*
Y380000D01*
G01X3820000Y1540000D02*
X4140000D01*
Y1220000D01*
X3820000D01*
Y1540000D01*
G01X3742700Y2086550D02*
X4162700D01*
Y1656550D01*
X3742700D01*
Y2086550D01*
G01X3911900Y3910300D02*
X3886500D01*
Y4189700D01*
X4013500D01*
Y3910300D01*
X3988100D01*
G01X3911900Y4270300D02*
X3886500D01*
Y4549700D01*
X4013500D01*
Y4270300D01*
X3988100D01*
G01X4082700Y1916550D02*
G03I-40000J0D01*
G01X3911900Y3910300D02*
G02X3988100I38100J-12700D01*
G01X3911900Y4270300D02*
G02X3988100I38100J-12700D01*
G01X4267200Y2743200D02*
X4089400D01*
G01X4597400Y3274100D02*
X4089400D01*
Y2743200D01*
G01X4877500Y769900D02*
Y169900D01*
X4277500D01*
Y769900D01*
X4877500D01*
G01X4348900Y673100D02*
Y266700D01*
G01X4432300Y2743200D02*
G03X4254500I-88900J907D01*
G01X4391200Y3431400D02*
Y3931400D01*
X4481200D01*
G01X4651200Y3431400D02*
X4391200D01*
G01X4729900Y469900D02*
G03I-152400J0D01*
G01X4597400Y3274100D02*
Y2743200D01*
X4419600D01*
G01X4481200Y3931400D02*
G03X4561200I40000J4108D01*
G01D02*
X4651200D01*
G01X4594400Y1616900D02*
Y2116900D01*
X4684400D01*
G01X4854400Y1616900D02*
X4594400D01*
G01X4684400Y2116900D02*
G03X4764400I40000J4108D01*
G01X4651200Y3431400D02*
Y3931400D01*
G01X4806100Y673100D02*
Y266700D01*
G01X4979850Y1194500D02*
X5360850D01*
Y940500D01*
X4852850D01*
Y1194500D01*
X4979850D01*
G01X4854400Y1616900D02*
Y2116900D01*
G01X4764400D02*
X4854400D01*
G01X4947000Y634000D02*
X5917000D01*
Y284000D01*
X5857000D01*
Y4000D01*
X5007000D01*
Y284000D01*
X4947000D01*
Y634000D01*
G01X6271100Y2728100D02*
X5031100D01*
Y4348100D01*
X6271100D01*
Y2728100D01*
G01X5638800Y0D02*
Y-100000D01*
X5637200Y-101600D01*
X5232400D01*
Y0D01*
G01X5330000Y550000D02*
X5530000D01*
Y350000D01*
X5330000D01*
Y550000D01*
G01X5400000Y600000D02*
X5580000D01*
Y420000D01*
G01X6171200Y929500D02*
Y899500D01*
X5571200D01*
Y1259500D01*
X6171200D01*
Y929500D01*
G01X5543100Y1736900D02*
Y1656900D01*
X5623100D01*
G01Y2076900D02*
X5543100D01*
Y1996900D01*
G01X5927000Y4633000D02*
X5431700D01*
Y4887000D01*
X5927000D01*
Y4633000D01*
G01X5720000Y4540000D02*
X5880000D01*
G01X5896600Y965200D02*
X5845800D01*
Y1193800D01*
X5896600D01*
Y965200D01*
G01X5807700Y1003300D02*
Y1155700D01*
G01X5934700Y1003300D02*
Y1155700D01*
G01X5927850Y4914900D02*
Y901700D01*
G01X5782300Y1079500D02*
X5807700D01*
G01X5960100D02*
X5934700D01*
G01X5883100Y1656900D02*
X5963100D01*
Y1736900D01*
G01Y1996900D02*
Y2076900D01*
X5883100D01*
G01X5800000Y4610000D02*
Y4460000D01*
G01X6286500Y4622800D02*
G03I-165100J0D01*
G01X6629700Y2136800D02*
X6729700D01*
Y2586800D01*
X6229700D01*
Y2336800D01*
G01X6729700D02*
G03I-240000J0D01*
G01X6591300Y4648200D02*
Y4495800D01*
G01X6464300Y4648200D02*
Y4495800D01*
G01Y4648200D02*
G02X6591300I63500J45861D01*
G01X7179800Y2451800D02*
X7119800D01*
Y3511800D01*
X7179800D01*
G01X7048500Y3999400D02*
X6978500D01*
Y4179400D01*
X7118500D01*
Y3999400D01*
X7048500D01*
G01X7435200Y1995000D02*
X7195200D01*
Y865000D01*
X7435200D01*
Y1995000D01*
G01X7399800Y3511800D02*
X7459800D01*
Y2451800D01*
X7399800D01*
G54D14*
G01X330010Y4940290D02*
X7180010Y4940010D01*
G02X7510000Y4610010I-9J-329999D01*
G01Y330000D01*
G02X7180000Y0I-330000J0D01*
G01X330000D01*
G02X0Y330000I0J330000D01*
G01Y4610290D01*
G02X330010Y4940290I330001J-1D01*
G54D15*
G01X6743700Y4483100D02*
X6311900D01*
G01D02*
Y4889500D01*
G01D02*
X6743700D01*
G01D02*
Y4483100D01*
G54D16*
G01X1096500Y219520D02*
X1160000Y283020D01*
X1223500Y219520D01*
X1096500D01*
X1114280Y237300D01*
X1198100D01*
X1185400Y250000D01*
X1134600D01*
X1147300Y262700D01*
X1172700D01*
G01X1296500Y219520D02*
X1360000Y283020D01*
X1423500Y219520D01*
X1296500D01*
X1314280Y237300D01*
X1398100D01*
X1385400Y250000D01*
X1334600D01*
X1347300Y262700D01*
X1372700D01*
G01X6142200Y286380D02*
X6078700Y222880D01*
X6015200Y286380D01*
X6142200D01*
X6124420Y268600D01*
X6040600D01*
X6053300Y255900D01*
X6104100D01*
X6091400Y243200D01*
X6066000D01*
G01X6345400Y286380D02*
X6281900Y222880D01*
X6218400Y286380D01*
X6345400D01*
X6327620Y268600D01*
X6243800D01*
X6256500Y255900D01*
X6307300D01*
X6294600Y243200D01*
X6269200D01*
G01X6548600Y286380D02*
X6485100Y222880D01*
X6421600Y286380D01*
X6548600D01*
X6530820Y268600D01*
X6447000D01*
X6459700Y255900D01*
X6510500D01*
X6497800Y243200D01*
X6472400D01*
G01X6751800Y286380D02*
X6688300Y222880D01*
X6624800Y286380D01*
X6751800D01*
X6734020Y268600D01*
X6650200D01*
X6662900Y255900D01*
X6713700D01*
X6701000Y243200D01*
X6675600D01*
M02*
