G04 ================== begin FILE IDENTIFICATION RECORD ==================*
G04 Layout Name:  E:/GitHub/39_CUITBIKE/v1.2/PCB/CUITBIKE_V1.1_MSP430.brd*
G04 Film Name:    SolderMask_Top*
G04 File Format:  Gerber RS274X*
G04 File Origin:  Cadence Allegro 16.6-2015-S071*
G04 Origin Date:  Tue Nov 22 19:44:42 2016*
G04 *
G04 Layer:  BOARD GEOMETRY/OUTLINE*
G04 Layer:  PIN/SOLDERMASK_TOP*
G04 Layer:  PACKAGE GEOMETRY/SOLDERMASK_TOP*
G04 Layer:  BOARD GEOMETRY/SOLDERMASK_TOP*
G04 *
G04 Offset:    (0.0000 0.0000)*
G04 Mirror:    No*
G04 Mode:      Positive*
G04 Rotation:  0*
G04 FullContactRelief:  No*
G04 UndefLineWidth:     0.1524*
G04 ================== end FILE IDENTIFICATION RECORD ====================*
%FSLAX55Y55*MOMM*%
%IR0*IPPOS*OFA0.00000B0.00000*MIA0B0*SFA1.00000B1.00000*%
%ADD38R,1.1X.9*%
%ADD37R,.9X1.1*%
%ADD16R,1.7X.4*%
%ADD15R,1.6X.6*%
%ADD30R,1.6X.7*%
%ADD20R,.9X1.5*%
%ADD31R,1.62X.35*%
%ADD32R,.35X1.62*%
%ADD41R,1.9X.9*%
%ADD21R,1.16X.75*%
%ADD39R,2.032X.635*%
%ADD25R,.9144X.9144*%
%ADD22R,1.1684X.8128*%
%ADD40R,.8128X1.1684*%
%ADD17R,1.0668X.6858*%
%ADD46R,1.1X1.1*%
%ADD49R,2.1X1.5*%
%ADD45R,1.2X2.3*%
%ADD50R,1.9X1.1*%
%ADD28R,4.3X1.5*%
%ADD14R,1.1X1.9*%
%ADD13R,2.1X1.9*%
%ADD48O,.9X.3*%
%ADD19R,1.6X1.6*%
%ADD47R,1.8X4.2*%
%ADD36R,.9X.4*%
%ADD43R,2.7X2.7*%
%ADD35R,.4X.9*%
%ADD34R,1.9X2.6*%
%ADD33C,2.5*%
%ADD23R,.9X.35*%
%ADD18C,1.016*%
%ADD42R,.35X.9*%
%ADD27C,2.54*%
%ADD29C,1.524*%
%ADD24R,1.4224X1.2192*%
%ADD10C,6.35*%
%AMMACRO44*
4,1,3,1.3707,1.3707,
-1.3707,-1.3707,
-1.3707,1.3707,
1.3707,1.3707,
0.0*
%
%ADD44MACRO44*%
%ADD12C,1.905*%
%ADD26R,1.651X1.651*%
%ADD11R,1.905X1.905*%
%ADD51C,.17*%
%ADD52C,.254*%
%ADD53C,.1524*%
G75*
%LPD*%
G75*
G36*
G01X990000Y200000D02*
G03I-150000J0D01*
G37*
G36*
G01X6271400Y4622800D02*
G03I-150000J0D01*
G37*
G54D10*
X330200Y330200D03*
Y4610100D03*
X7180000Y330000D03*
Y4610000D03*
G54D11*
X165100Y838200D03*
X5147850Y4764900D03*
X5800000Y4760000D03*
G54D20*
X847300Y1570000D03*
X857300Y2290000D03*
X1192700Y1570000D03*
X1202700Y2290000D03*
G54D12*
X165100Y1092200D03*
X1765300Y254000D03*
X2215300D03*
X2272850Y1064900D03*
X2353850Y4764900D03*
X2526850Y1064900D03*
X2607850Y4764900D03*
X2861850D03*
X3115850D03*
X3369850D03*
X3492500Y254000D03*
X3623850Y4764900D03*
X3942500Y254000D03*
X3877850Y4764900D03*
X4131850D03*
X4385850D03*
X4639850D03*
X4978850Y1064900D03*
X4893850Y4764900D03*
X5207000Y254000D03*
X5232850Y1064900D03*
X5657000Y254000D03*
X5546000Y4760000D03*
G54D21*
X766300Y4350000D03*
Y4445000D03*
Y4540000D03*
X1037100Y4350000D03*
Y4540000D03*
X1724600Y965000D03*
Y1060000D03*
Y1155000D03*
X1995400Y965000D03*
Y1155000D03*
X3374600Y965000D03*
Y1060000D03*
Y1155000D03*
X3645400Y965000D03*
Y1155000D03*
X3814600Y3955000D03*
Y4145000D03*
Y4315000D03*
Y4505000D03*
X4085400Y4050000D03*
Y3955000D03*
Y4145000D03*
Y4410000D03*
Y4315000D03*
Y4505000D03*
G54D30*
X2105000Y1675900D03*
Y1802900D03*
Y1929900D03*
Y2056900D03*
X2645000Y1675900D03*
Y1802900D03*
Y2056900D03*
Y1929900D03*
X2943200Y1675900D03*
Y1802900D03*
Y1929900D03*
Y2056900D03*
X3483200Y1675900D03*
Y1802900D03*
Y2056900D03*
Y1929900D03*
X4251200Y3490400D03*
Y3617400D03*
Y3744400D03*
Y3871400D03*
X4454400Y1675900D03*
Y1802900D03*
Y1929900D03*
Y2056900D03*
X4791200Y3490400D03*
Y3744400D03*
Y3617400D03*
Y3871400D03*
X4994400Y1675900D03*
Y1802900D03*
Y2056900D03*
Y1929900D03*
G54D13*
X238000Y2678000D03*
Y2918000D03*
Y3168000D03*
Y3428000D03*
G54D40*
X4588400Y4283000D03*
X4690000Y4537000D03*
X4791600Y4283000D03*
G54D22*
X933000Y1940000D03*
X1187000Y1838400D03*
Y2041600D03*
G54D31*
X1979700Y2865100D03*
Y2915100D03*
Y2965100D03*
Y3015100D03*
Y3065100D03*
Y3115100D03*
Y3165100D03*
Y3215100D03*
Y3265100D03*
Y3315100D03*
Y3365100D03*
Y3415100D03*
Y3465100D03*
Y3515100D03*
Y3565100D03*
Y3615100D03*
Y3665100D03*
Y3715100D03*
Y3765100D03*
Y3815100D03*
X3379700Y2865100D03*
Y3065100D03*
Y3015100D03*
Y2965100D03*
Y2915100D03*
Y3215100D03*
Y3165100D03*
Y3115100D03*
Y3365100D03*
Y3315100D03*
Y3265100D03*
Y3565100D03*
Y3515100D03*
Y3465100D03*
Y3415100D03*
Y3715100D03*
Y3665100D03*
Y3615100D03*
Y3815100D03*
Y3765100D03*
G54D23*
X1035000Y2785000D03*
Y2835000D03*
Y2885000D03*
Y2935000D03*
X1185000Y2885000D03*
Y2835000D03*
Y2785000D03*
Y2935000D03*
X5553100Y1766900D03*
Y1816900D03*
Y1866900D03*
Y1916900D03*
Y1966900D03*
X5953100Y1866900D03*
Y1816900D03*
Y1766900D03*
Y1966900D03*
Y1916900D03*
G54D14*
X160200Y3638300D03*
Y4178300D03*
X330200Y3638300D03*
Y4178300D03*
X1235000Y3430000D03*
X1485000D03*
X3100900Y1447800D03*
X3350900D03*
G54D50*
X7289800Y2466800D03*
Y3496800D03*
G54D41*
X5039100Y2836100D03*
Y3056100D03*
Y2946100D03*
Y3166100D03*
Y3276100D03*
X5041100Y3578100D03*
Y3688100D03*
Y3908100D03*
Y3798100D03*
Y4018100D03*
Y4238100D03*
Y4128100D03*
X6261100Y2832100D03*
Y2942100D03*
Y3052100D03*
Y3162100D03*
Y3272100D03*
Y3576100D03*
Y3686100D03*
Y3796100D03*
Y3906100D03*
Y4016100D03*
Y4126100D03*
Y4236100D03*
G54D32*
X2204700Y2640100D03*
Y4040100D03*
X2354700Y2640100D03*
X2304700D03*
X2254700D03*
Y4040100D03*
X2304700D03*
X2354700D03*
X2554700Y2640100D03*
X2504700D03*
X2454700D03*
X2404700D03*
Y4040100D03*
X2454700D03*
X2504700D03*
X2554700D03*
X2704700Y2640100D03*
X2654700D03*
X2604700D03*
Y4040100D03*
X2654700D03*
X2704700D03*
X2854700Y2640100D03*
X2804700D03*
X2754700D03*
Y4040100D03*
X2804700D03*
X2854700D03*
X3054700Y2640100D03*
X3004700D03*
X2954700D03*
X2904700D03*
Y4040100D03*
X2954700D03*
X3004700D03*
X3054700D03*
X3154700Y2640100D03*
X3104700D03*
Y4040100D03*
X3154700D03*
G54D51*
G01X478000Y2848000D02*
G03I-30000J0D01*
G01Y3248000D02*
G03I-30000J0D01*
G54D24*
X1160000Y148400D03*
Y351600D03*
X1360000Y148400D03*
Y351600D03*
X6078700Y154300D03*
Y357500D03*
X6281900Y154300D03*
Y357500D03*
X6485100Y154300D03*
Y357500D03*
X6688300Y154300D03*
Y357500D03*
G54D42*
X5753100Y1666900D03*
X5703100D03*
X5653100D03*
Y2066900D03*
X5703100D03*
X5753100D03*
X5853100Y1666900D03*
X5803100D03*
Y2066900D03*
X5853100D03*
G54D33*
X2632000Y147200D03*
Y787200D03*
X3082000Y147200D03*
X3092000Y787200D03*
X4347500Y149900D03*
Y789900D03*
X4797500Y149900D03*
X4807500Y789900D03*
G54D15*
X501000Y3049000D03*
Y2984000D03*
Y2919000D03*
Y3179000D03*
Y3114000D03*
G54D52*
G01X150200Y3908300D02*
G03I-40000J0D01*
G01X425200D02*
G03I-40000J0D01*
G54D34*
X2693200Y4406900D03*
X3073200D03*
X5681200Y1079500D03*
X6061200D03*
G54D43*
X5753100Y1866900D03*
G54D25*
X1113800Y3640000D03*
X1123800Y3850000D03*
Y4000000D03*
Y4200000D03*
X1266200Y3640000D03*
X1276200Y3850000D03*
Y4000000D03*
Y4200000D03*
X1453800Y3640000D03*
X1443800Y3850000D03*
Y4000000D03*
Y4200000D03*
X1606200Y3640000D03*
X1596200Y3850000D03*
Y4000000D03*
Y4200000D03*
X3276900Y4330700D03*
Y4483100D03*
X3442000Y4330700D03*
X3594400D03*
X3442000Y4483100D03*
X3594400D03*
X3860800Y3365500D03*
Y3517900D03*
X4013200Y3365500D03*
Y3517900D03*
X5617200Y1348900D03*
X5769600D03*
X5782300Y1488600D03*
X5947400Y1348900D03*
X5934700Y1488600D03*
X6099800Y1348900D03*
X6121400Y1752600D03*
Y1905000D03*
X6248400Y1600200D03*
Y1905000D03*
Y1752600D03*
X6400800Y1447800D03*
Y1600200D03*
Y1905000D03*
X6553200Y1447800D03*
Y1600200D03*
Y1905000D03*
X6527800Y3663800D03*
Y3816200D03*
Y3968600D03*
Y4121000D03*
X6705600Y1905000D03*
X6692900Y4038600D03*
Y4191000D03*
X6858000Y1905000D03*
Y2057400D03*
X6845300Y4038600D03*
Y4191000D03*
X7289800Y3695700D03*
Y3848100D03*
Y4013200D03*
Y4165600D03*
G54D16*
X659000Y839800D03*
Y889800D03*
Y939800D03*
Y989800D03*
Y1039800D03*
X1119000Y839800D03*
Y989800D03*
Y939800D03*
Y889800D03*
Y1039800D03*
G54D53*
G01X330010Y4940290D02*
X7180010Y4940010D01*
G02X7510000Y4610010I-9J-329999D01*
G01Y330000D01*
G02X7180000Y0I-330000J0D01*
G01X330000D01*
G02X0Y330000I0J330000D01*
G01Y4610290D01*
G02X330010Y4940290I330001J-1D01*
G54D26*
X1200000Y4760000D03*
G54D44*
X6371770Y2439730D03*
G54D35*
X3905000Y1230000D03*
Y1530000D03*
X4055000Y1230000D03*
X4005000D03*
X3955000D03*
Y1530000D03*
X4005000D03*
X4055000D03*
G54D17*
X670780Y3796500D03*
Y3860000D03*
Y3923500D03*
X889220D03*
Y3860000D03*
Y3796500D03*
G54D27*
X1640300Y504000D03*
X2340300D03*
X3367500D03*
X4067500D03*
X5082000D03*
X5782000D03*
G54D18*
X840000Y200000D03*
X6121400Y4622800D03*
G54D36*
X3830000Y1305000D03*
Y1355000D03*
Y1405000D03*
Y1455000D03*
X4130000Y1355000D03*
Y1305000D03*
Y1455000D03*
Y1405000D03*
G54D45*
X6380510Y4699000D03*
X6675090D03*
G54D19*
X889000Y939800D03*
G54D28*
X1570000Y2645000D03*
Y3035000D03*
G54D46*
X6527800Y4548910D03*
Y4826000D03*
G54D37*
X3802700Y1726550D03*
Y2016550D03*
X4102700Y1726550D03*
X3952700D03*
Y2016550D03*
X4102700D03*
G54D29*
X1454000Y4760000D03*
X1708000D03*
X1962000D03*
G54D47*
X6699710Y2361800D03*
G54D38*
X3802700Y1871550D03*
G54D48*
X6998500Y4039400D03*
X7098500D03*
X6998500Y4089400D03*
Y4139400D03*
X7098500D03*
Y4089400D03*
G54D39*
X3947200Y2819400D03*
Y2946400D03*
Y3073400D03*
Y3200400D03*
X4739600Y2819400D03*
Y3073400D03*
Y2946400D03*
Y3200400D03*
G54D49*
X7315200Y955000D03*
Y1905000D03*
M02*
