G04 ================== begin FILE IDENTIFICATION RECORD ==================*
G04 Layout Name:  E:/GitHub/39_CUITBIKE/v1.2/PCB/CUITBIKE_V1.1_MSP430.brd*
G04 Film Name:    SolderMask_Bottom*
G04 File Format:  Gerber RS274X*
G04 File Origin:  Cadence Allegro 16.6-2015-S071*
G04 Origin Date:  Tue Nov 22 19:44:42 2016*
G04 *
G04 Layer:  BOARD GEOMETRY/OUTLINE*
G04 Layer:  PIN/SOLDERMASK_BOTTOM*
G04 Layer:  PACKAGE GEOMETRY/SOLDERMASK_BOTTOM*
G04 Layer:  BOARD GEOMETRY/SOLDERMASK_BOTTOM*
G04 *
G04 Offset:    (0.0000 0.0000)*
G04 Mirror:    No*
G04 Mode:      Positive*
G04 Rotation:  0*
G04 FullContactRelief:  No*
G04 UndefLineWidth:     0.1524*
G04 ================== end FILE IDENTIFICATION RECORD ====================*
%FSLAX55Y55*MOMM*%
%IR0*IPPOS*OFA0.00000B0.00000*MIA0B0*SFA1.00000B1.00000*%
%ADD13R,.9144X.9144*%
%ADD20R,1.9X1.1*%
%ADD15R,1.1X1.9*%
%ADD19C,2.5*%
%ADD17C,2.54*%
%ADD18C,1.524*%
%ADD14R,1.4224X1.4224*%
%ADD10C,6.35*%
%ADD21R,1.2192X1.4224*%
%ADD12C,1.905*%
%ADD16R,1.651X1.651*%
%ADD11R,1.905X1.905*%
%ADD22R,1.2954X1.2954*%
%ADD23C,.17*%
%ADD24C,.254*%
%ADD25C,.1524*%
G75*
%LPD*%
G75*
G36*
G01X810000Y1020000D02*
Y860000D01*
X970000D01*
Y1020000D01*
X810000D01*
G37*
G36*
G01X5620000Y2000000D02*
Y1740000D01*
X5880000D01*
Y2000000D01*
X5620000D01*
G37*
G54D10*
X330200Y330200D03*
Y4610100D03*
X7180000Y330000D03*
Y4610000D03*
G54D11*
X165100Y838200D03*
X5147850Y4764900D03*
X5800000Y4760000D03*
G54D20*
X2711600Y1403100D03*
G54D12*
X165100Y1092200D03*
X1765300Y254000D03*
X2215300D03*
X2272850Y1064900D03*
X2353850Y4764900D03*
X2526850Y1064900D03*
X2607850Y4764900D03*
X2861850D03*
X3115850D03*
X3369850D03*
X3492500Y254000D03*
X3623850Y4764900D03*
X3942500Y254000D03*
X3877850Y4764900D03*
X4131850D03*
X4385850D03*
X4639850D03*
X4978850Y1064900D03*
X4893850Y4764900D03*
X5207000Y254000D03*
X5232850Y1064900D03*
X5657000Y254000D03*
X5546000Y4760000D03*
G54D21*
X4635500Y3263900D03*
X4838700D03*
G54D22*
X5457160Y2415200D03*
X5475860Y4190000D03*
X5665440Y2415200D03*
X5684140Y4190000D03*
G54D13*
X433800Y760000D03*
X423800Y1160000D03*
X586200Y760000D03*
X576200Y1160000D03*
X783800D03*
X723800Y2800000D03*
X876200D03*
X723800Y3010000D03*
X876200D03*
Y3160000D03*
X723800D03*
X783800Y4510000D03*
Y4660000D03*
Y4810000D03*
X927100Y452600D03*
X936200Y1160000D03*
Y4510000D03*
Y4660000D03*
Y4810000D03*
X1079500Y452600D03*
X1226200Y3160000D03*
X1073800D03*
X1113800Y3860000D03*
X1153800Y4360000D03*
Y4510000D03*
X1384300Y452600D03*
X1231900D03*
X1394300Y1003300D03*
X1241900D03*
X1396200Y1160000D03*
X1243800D03*
X1266200Y3860000D03*
X1306200Y4360000D03*
Y4510000D03*
X1683800Y3090000D03*
X1783800Y750000D03*
X1836200Y3090000D03*
X2066200Y420000D03*
X1913800D03*
X2066200Y570000D03*
X1913800D03*
X1936200Y750000D03*
X2113800D03*
X2213800Y3190000D03*
Y3340000D03*
Y3550000D03*
X2266200Y750000D03*
X2366200Y3190000D03*
Y3340000D03*
Y3550000D03*
X2443800Y2750000D03*
X2543800Y3190000D03*
X2596200Y2750000D03*
X2696200Y3190000D03*
X2783800Y420000D03*
Y570000D03*
X2936200Y420000D03*
Y570000D03*
X2963800Y1500000D03*
X2957400Y1651000D03*
Y1803400D03*
Y2057400D03*
X3243800Y960000D03*
X3116200Y1500000D03*
X3109800Y1651000D03*
Y1803400D03*
Y2057400D03*
X3396200Y960000D03*
X3343800Y3290000D03*
X3593800Y960000D03*
X3475600Y1653700D03*
Y1806100D03*
Y2057400D03*
X3496200Y3290000D03*
X3633800Y420000D03*
Y570000D03*
X3746200Y960000D03*
X3628000Y1653700D03*
Y1806100D03*
Y2057400D03*
X3713800Y4100000D03*
Y4490000D03*
X3786200Y420000D03*
Y570000D03*
X3783800Y1510000D03*
X3936200D03*
X3886200Y2819400D03*
X3866200Y4100000D03*
Y4490000D03*
X4038600Y2819400D03*
X4093800Y4100000D03*
X4083800Y4490000D03*
X4219800Y1214500D03*
X4140200Y1714500D03*
X4127500Y1866900D03*
Y2019300D03*
X4246200Y4100000D03*
X4236200Y4490000D03*
X4372200Y1214500D03*
X4292600Y1714500D03*
X4279900Y1866900D03*
Y2019300D03*
X4503800Y420000D03*
Y560000D03*
X4613700Y4339200D03*
Y4491600D03*
X4656200Y420000D03*
Y560000D03*
X4648200Y2933700D03*
Y3086100D03*
X4753800Y3870000D03*
X4766100Y4339200D03*
Y4491600D03*
X4843800Y2020000D03*
X4800600Y2933700D03*
Y3086100D03*
X4906200Y3870000D03*
X4996200Y2020000D03*
X5213800Y1670000D03*
X5353800Y420000D03*
Y570000D03*
X5366200Y1670000D03*
X5459700Y2237400D03*
X5506200Y420000D03*
Y570000D03*
X5612100Y2237400D03*
X5953800Y2240000D03*
Y2390000D03*
X6083800Y430000D03*
Y580000D03*
X6106200Y2240000D03*
Y2390000D03*
X6236200Y430000D03*
Y580000D03*
X6473800Y430000D03*
Y580000D03*
X6626200Y430000D03*
Y580000D03*
G54D23*
G01X478000Y2848000D02*
G03I-30000J0D01*
G01Y3248000D02*
G03I-30000J0D01*
G54D14*
X445860Y990000D03*
X654140D03*
X1164050Y652700D03*
X1163160Y838200D03*
X1095860Y2730000D03*
Y2920000D03*
X1372330Y652700D03*
X1371440Y838200D03*
X1304140Y2730000D03*
Y2920000D03*
X1755860Y920000D03*
Y1100000D03*
X1655860Y2740000D03*
Y2920000D03*
X1665860Y3430000D03*
X1864140Y2740000D03*
Y2920000D03*
X1874140Y3430000D03*
X1964140Y920000D03*
Y1100000D03*
X2225860Y2970000D03*
X2434140D03*
X2505860Y4040000D03*
X2714140D03*
X2945860D03*
X3175860Y1130000D03*
X3154140Y4040000D03*
X3384140Y1130000D03*
X3605860D03*
X3645860Y3930000D03*
Y4320000D03*
X3814140Y1130000D03*
X3854140Y3930000D03*
Y4320000D03*
X4105860Y3930000D03*
X4095860Y4320000D03*
X4155860Y1520000D03*
X4304140Y4320000D03*
X4364140Y1520000D03*
X4314140Y3930000D03*
G54D24*
G01X150200Y3908300D02*
G03I-40000J0D01*
G01X425200D02*
G03I-40000J0D01*
G54D15*
X736600Y2578100D03*
X886600D03*
X2236600Y1278100D03*
X2386600Y2578100D03*
X2536600Y1278100D03*
Y2578100D03*
G54D25*
G01X330010Y4940290D02*
X7180010Y4940010D01*
G02X7510000Y4610010I-9J-329999D01*
G01Y330000D01*
G02X7180000Y0I-330000J0D01*
G01X330000D01*
G02X0Y330000I0J330000D01*
G01Y4610290D01*
G02X330010Y4940290I330001J-1D01*
G54D16*
X1200000Y4760000D03*
G54D17*
X1640300Y504000D03*
X2340300D03*
X3367500D03*
X4067500D03*
X5082000D03*
X5782000D03*
G54D18*
X1454000Y4760000D03*
X1708000D03*
X1962000D03*
G54D19*
X2632000Y147200D03*
Y787200D03*
X3082000Y147200D03*
X3092000Y787200D03*
X4347500Y149900D03*
Y789900D03*
X4797500Y149900D03*
X4807500Y789900D03*
M02*
