G04 ================== begin FILE IDENTIFICATION RECORD ==================*
G04 Layout Name:  F:/Ñ¸À×ÏÂÔØ/39_CUITBIKE/v1.1/PCB_MSP430/CUITBIKE_V1.1_MSP430.brd*
G04 Film Name:    BOTTOM*
G04 File Format:  Gerber RS274X*
G04 File Origin:  Cadence Allegro 16.6-2015-S060*
G04 Origin Date:  Fri Jan 08 17:34:13 2016*
G04 *
G04 Layer:  ETCH/BOTTOM*
G04 Layer:  PIN/BOTTOM*
G04 Layer:  VIA CLASS/BOTTOM*
G04 *
G04 Offset:    (0.0000 0.0000)*
G04 Mirror:    No*
G04 Mode:      Positive*
G04 Rotation:  0*
G04 FullContactRelief:  No*
G04 UndefLineWidth:     0.1524*
G04 ================== end FILE IDENTIFICATION RECORD ====================*
%FSLAX25Y25*MOIN*%
%IR0*IPPOS*OFA0.00000B0.00000*MIA0B0*SFA1.00000B1.00000*%
%ADD20R,.031496X.055118*%
%ADD11C,.02*%
%ADD16C,.03*%
%ADD23R,.059055X.051181*%
%ADD18R,.070866X.03937*%
%ADD14R,.03937X.070866*%
%ADD24R,.070866X.062992*%
%ADD12C,.086614*%
%ADD21C,.062992*%
%ADD22R,.062992X.062992*%
%ADD10C,.25*%
%ADD15C,.075*%
%ADD17R,.03189X.035039*%
%ADD13R,.035039X.03189*%
%ADD19R,.036X.036*%
%ADD25C,.008*%
%ADD26C,.005*%
%ADD27C,.01*%
%ADD28C,.015*%
%ADD29C,.036055*%
G75*
%LPD*%
G75*
G36*
G01X21022Y0D02*
G02X20582Y1469I0J800D01*
G03Y24531I-7582J11531D01*
G02X21022Y26000I440J668D01*
G01X23500D01*
X26000Y28500D01*
Y30500D01*
X49000D01*
Y86500D01*
X26000D01*
Y95500D01*
X48000D01*
Y157500D01*
X44598D01*
G02X43871Y158635I0J800D01*
G03X40129I-1871J865D01*
G02X39402Y157500I-726J-335D01*
G01X27584D01*
G02X26785Y158338I0J800D01*
G03X20582Y170531I-13785J662D01*
G02X21022Y172000I440J668D01*
G01X39493D01*
G02X40264Y170985I0J-800D01*
G03X43736I1736J-485D01*
G02X44507Y172000I771J215D01*
G01X250993D01*
G02X251764Y170985I0J-800D01*
G03X255236I1736J-485D01*
G02X256007Y172000I771J215D01*
G01X274478D01*
G02X274918Y170531I0J-800D01*
G03X268700Y158811I7582J-11531D01*
G02X267901Y158000I-800J-11D01*
G01X256007D01*
G02X255236Y159015I0J800D01*
G03X251764I-1736J485D01*
G02X250993Y158000I-771J-215D01*
G01X250000D01*
Y102500D01*
X269500D01*
Y28500D01*
X272000Y26000D01*
X274478D01*
G02X274918Y24531I0J-800D01*
G03Y1469I7582J-11531D01*
G02X274478Y0I-440J-668D01*
G01X268047D01*
G02X267494Y1378I0J800D01*
G03X259703I-3896J4067D01*
G02X259150Y0I-553J-578D01*
G01X242399D01*
G02X241902Y1427I0J800D01*
G03X243306Y8606I-3500J4411D01*
G02X244003Y9799I697J393D01*
G01X252248D01*
X260372Y17924D01*
X263598D01*
G03X262725Y29119I0J5632D01*
G02X261801Y29909I-124J790D01*
G01Y71246D01*
X259790Y73257D01*
X259769Y73383D01*
G03X259722Y73597I-2269J-383D01*
G02X260494Y74605I773J208D01*
G01X268612D01*
Y80395D01*
X267799D01*
X267360Y80828D01*
Y80841D01*
X267301Y80900D01*
Y82068D01*
G03X267606Y84427I-1801J1432D01*
G02X267950Y85450I732J322D01*
G01Y94450D01*
X261596D01*
X258746Y97301D01*
X230246D01*
X224746Y102801D01*
X182246D01*
X180801Y104246D01*
Y127246D01*
X178290Y129757D01*
X178269Y129883D01*
G03X175617Y127231I-2269J-383D01*
G01X175743Y127210D01*
X177199Y125754D01*
Y125180D01*
X176739D01*
X176681Y125198D01*
G03X174712Y124906I-681J-2198D01*
G01X174601Y124831D01*
X173344Y124895D01*
X167085D01*
G02X166519Y126261I0J800D01*
G01X184661Y144403D01*
Y148646D01*
G02X185372Y148898I400J0D01*
G01X185699Y148496D01*
Y112500D01*
G03X190301I2301J0D01*
G01Y129199D01*
X218246D01*
X222242Y133195D01*
Y163994D01*
X222780Y164605D01*
X227798D01*
X229055Y165699D01*
X230062D01*
X230167Y165625D01*
G03Y169375I1333J1875D01*
G01X230062Y169301D01*
X229055D01*
X227798Y170395D01*
X217388D01*
Y165414D01*
X218640Y163994D01*
Y134687D01*
X216754Y132801D01*
X204637D01*
G02X204072Y134167I0J800D01*
G01X204661Y134756D01*
Y159652D01*
X206509Y161500D01*
X206509Y161501D01*
G03X198644Y167717I-3549J3594D01*
G02X197277I-683J416D01*
G03X188644I-4317J-2623D01*
G02X187277I-683J416D01*
G03X178644I-4317J-2623D01*
G02X177277I-683J416D01*
G03X168644I-4317J-2623D01*
G02X167277I-683J416D01*
G03X158644I-4317J-2623D01*
G02X157277I-683J416D01*
G03X148644I-4317J-2623D01*
G02X147277I-683J416D01*
G03X138644I-4317J-2623D01*
G02X137277I-683J416D01*
G03X128644I-4317J-2623D01*
G02X127277I-683J416D01*
G03X118644I-4317J-2623D01*
G02X117277I-683J416D01*
G03X108644I-4317J-2623D01*
G02X107277I-683J416D01*
G03X98644I-4317J-2623D01*
G02X97277I-683J416D01*
G03Y162472I-4317J-2623D01*
G02X98644I683J-416D01*
G03X107277I4317J2623D01*
G02X108644I683J-416D01*
G03X117277I4317J2623D01*
G02X118644I683J-416D01*
G03X119235Y161684I4316J2624D01*
G02X118645Y160344I-590J-540D01*
G01X118191D01*
Y151718D01*
X118699Y150383D01*
Y149000D01*
G03X123301I2301J0D01*
G01Y149780D01*
X124730Y151483D01*
Y160044D01*
X125465D01*
X126809Y158699D01*
X129199D01*
Y131099D01*
G02X128425Y130300I-800J0D01*
G03X128204Y130281I77J-2299D01*
G02X127301Y131075I-103J793D01*
G01Y145000D01*
G03X122699I-2301J0D01*
G01Y126453D01*
X122315Y126069D01*
G02X121169Y126084I-566J566D01*
G03X119500Y126801I-1669J-1584D01*
G01X115047D01*
X104373Y116127D01*
G03X107627Y112873I1627J-1627D01*
G01X116953Y122199D01*
X117480D01*
G02X117763Y121517I0J-400D01*
G01X98199Y101953D01*
Y96500D01*
G03X100500Y94199I2301J0D01*
G02X101299Y93399I0J-800D01*
G01Y86101D01*
G02X100500Y85301I-800J0D01*
G03X99562Y80899I0J-2301D01*
G01X99799Y80793D01*
Y45340D01*
X99156D01*
X99044Y45556D01*
G03X98602Y46151I-2044J-1055D01*
G01X98600Y46153D01*
X98201Y46553D01*
Y65033D01*
X92033Y71201D01*
X66704D01*
X63701Y74204D01*
Y99321D01*
G02X65067Y99887I800J0D01*
G01X65500Y99453D01*
X65958Y96335D01*
X66253Y96000D01*
X65888Y95586D01*
Y90605D01*
X76298D01*
X77555Y91699D01*
X77746D01*
X80301Y94254D01*
Y109746D01*
X73746Y116301D01*
X68932D01*
G03X67575Y116800I-1432J-1801D01*
G02X66801Y117599I26J800D01*
G01Y123068D01*
G03X64630Y126771I-1801J1432D01*
G02X63701Y127560I-129J790D01*
G01Y149320D01*
X65675Y151446D01*
Y160344D01*
X53231D01*
Y150902D01*
X57620Y149974D01*
X58299Y149296D01*
Y100870D01*
G02X56983Y100259I-800J0D01*
G03X53699Y97068I-1483J-1759D01*
G01Y97024D01*
X52506Y95557D01*
Y90605D01*
X58299D01*
Y72796D01*
X65296Y65799D01*
X81881D01*
G02X82670Y64870I0J-800D01*
G03X86373Y62699I2271J-370D01*
G01X89254D01*
X91199Y60754D01*
Y39432D01*
G03X94500Y36256I1801J-1432D01*
G03X96512Y40243I1500J1745D01*
G01X96201Y40314D01*
Y41399D01*
G02X97000Y42199I800J0D01*
G03X98483Y42741I0J2301D01*
G02X99799Y42130I516J-612D01*
G01Y30204D01*
X97296Y27701D01*
X63728D01*
X61231Y27860D01*
X61132Y27940D01*
G03X53593Y27514I-3534J-4385D01*
G01X51335Y25256D01*
X38665D01*
X36407Y27514D01*
X36406Y27515D01*
G03Y19596I-4005J-3959D01*
G01X36407Y19596D01*
X38665Y21854D01*
X51335D01*
X53593Y19596D01*
G03X63202Y22996I4005J3959D01*
G01X63216Y23139D01*
X64377Y24299D01*
X85572D01*
G02X86146Y22942I0J-800D01*
G03X94088Y16802I3625J-3517D01*
G02X95455I683J-416D01*
G03X104673Y18207I4316J2623D01*
G02X106015Y18580I776J-193D01*
G01X106796Y17799D01*
X117187D01*
X117201Y17414D01*
G03X117799Y15950I2299J86D01*
G01Y14263D01*
X115962Y12427D01*
X112105Y11966D01*
Y6312D01*
X111476Y5801D01*
X111432D01*
G03X111194Y2033I-1432J-1801D01*
G01X111446Y2186D01*
X112913Y888D01*
X117895D01*
Y7204D01*
X118341Y9995D01*
X118739Y10393D01*
G02X120105Y9827I566J-566D01*
G01Y888D01*
X125086D01*
X126506Y2140D01*
X126646D01*
G03X129600Y2347I1354J1860D01*
G02X130809Y2236I556J-575D01*
G03X131553Y1385I4589J3264D01*
G02X131007Y0I-546J-585D01*
G01X96776D01*
G02X96011Y1035I0J800D01*
G03X92989I-1511J465D01*
G02X92224Y0I-765J-235D01*
G01X62047D01*
G02X61494Y1378I0J800D01*
G03X53703I-3896J4067D01*
G02X53150Y0I-553J-578D01*
G01X36399D01*
G02X35902Y1427I0J800D01*
G03X28901I-3500J4411D01*
G02X28404Y0I-497J-627D01*
G01X21022D01*
G37*
G36*
G01X38243Y23838D02*
X35464Y26617D01*
X32302Y23555D01*
X35464Y20493D01*
X38243Y23272D01*
G03Y23838I-283J283D01*
G37*
G36*
G01X51757Y23272D02*
X54536Y20493D01*
X57698Y23555D01*
X54536Y26617D01*
X51757Y23838D01*
G03Y23272I283J-283D01*
G37*
G36*
G01X63698Y26399D02*
X60404Y26610D01*
X57506Y23518D01*
X60661Y22422D01*
X63956Y25717D01*
G03X63698Y26399I-283J283D01*
G37*
G36*
G01X55854Y97439D02*
X56207Y97793D01*
X55500Y98625D01*
X54793Y97793D01*
X55146Y97439D01*
G03X55854I354J354D01*
G37*
G36*
G01X55194Y96800D02*
X53807Y95094D01*
X55561Y93375D01*
X57311Y95094D01*
X55793Y96810D01*
G03X55194Y96800I-293J-405D01*
G37*
G36*
G01X58869Y151531D02*
X58469Y159043D01*
X56322Y155858D01*
X54531Y151957D01*
X58426Y151134D01*
G03X58869Y151531I43J398D01*
G37*
G36*
G01X65354Y123439D02*
X65707Y123793D01*
X65000Y124625D01*
X64293Y123793D01*
X64646Y123439D01*
G03X65354I354J354D01*
G37*
G36*
G01X62256Y149676D02*
X64374Y151957D01*
X62413Y155600D01*
X60437Y151957D01*
X61687Y149735D01*
G03X62256Y149676I313J248D01*
G37*
G36*
G01X73769Y101753D02*
X72307Y100094D01*
X74059Y98375D01*
X75811Y100094D01*
X74350Y101753D01*
G03X73769I-291J-407D01*
G37*
G36*
G01X66689Y100311D02*
X67189Y96906D01*
X69028Y98410D01*
X70693Y100094D01*
X67220Y100810D01*
G03X66689Y100311I-31J-499D01*
G37*
G36*
G01X69231Y95247D02*
X70693Y96906D01*
X68941Y98625D01*
X67189Y96906D01*
X68650Y95247D01*
G03X69231I291J407D01*
G37*
G36*
G01X68650Y96753D02*
X67189Y95094D01*
X68941Y93375D01*
X70693Y95094D01*
X69231Y96753D01*
G03X68650I-291J-407D01*
G37*
G36*
G01X68561Y109854D02*
X68207Y110207D01*
X67375Y109500D01*
X68207Y108793D01*
X68561Y109146D01*
G03Y109854I-354J354D01*
G37*
G36*
G01Y114854D02*
X68207Y115207D01*
X67375Y114500D01*
X68207Y113793D01*
X68561Y114146D01*
G03Y114854I-354J354D01*
G37*
G36*
G01X77317Y93783D02*
X75811Y95094D01*
X73934Y93500D01*
X75811Y91906D01*
X77317Y93217D01*
G03Y93783I-412J283D01*
G37*
G36*
G01X86002Y64854D02*
X85648Y65207D01*
X84816Y64500D01*
X85648Y63793D01*
X86002Y64146D01*
G03Y64854I-354J354D01*
G37*
G36*
G01X92646Y39061D02*
X92293Y38707D01*
X93000Y37875D01*
X93707Y38707D01*
X93354Y39061D01*
G03X92646I-354J-354D01*
G37*
G36*
G01X95000Y38600D02*
Y38000D01*
X96071Y37929D01*
X96000Y39000D01*
X95400D01*
G03X95000Y38600I0J-400D01*
G37*
G36*
G01X96500Y45848D02*
Y45000D01*
X97035Y44406D01*
X97707Y45207D01*
X96783Y46131D01*
X96500Y45848D01*
G37*
G36*
G01X119699Y90453D02*
Y83813D01*
G02X119017Y83530I-400J0D01*
G01X118790Y83757D01*
X118769Y83883D01*
G03X116752Y85787I-2269J-383D01*
G01X116395Y85826D01*
Y90926D01*
X112873Y91115D01*
X112687Y91301D01*
X110432D01*
G03X108963Y87200I-1432J-1801D01*
G01X109129Y87197D01*
X111498Y84737D01*
X111329Y84471D01*
G03X111043Y82647I1939J-1239D01*
G01X111097Y82439D01*
X109888Y81093D01*
Y80986D01*
G02X109268Y80652I-400J0D01*
G03X105758Y79249I-1268J-1920D01*
G01X105732Y79137D01*
X105383Y78789D01*
G02X104701Y79072I-283J283D01*
G01Y98296D01*
X109023Y102618D01*
X110385D01*
X112286Y100715D01*
Y99475D01*
X117199D01*
Y97500D01*
G03X117610Y96188I2301J0D01*
G03X120964Y93056I1563J-1688D01*
G01X120978Y93072D01*
X121897Y93992D01*
G02X122517Y93493I283J-283D01*
G01X122120Y92874D01*
X119699Y90453D01*
G37*
G36*
G01X101500Y82400D02*
Y83000D01*
X100429Y83071D01*
X100500Y82000D01*
X101100D01*
G03X101500Y82400I0J400D01*
G37*
G36*
G01X111061Y4354D02*
X110707Y4707D01*
X109875Y4000D01*
X110707Y3293D01*
X111061Y3646D01*
G03Y4354I-354J354D01*
G37*
G36*
G01X111690Y3707D02*
X113406Y2189D01*
X115125Y3939D01*
X113406Y5693D01*
X111700Y4306D01*
G03X111690Y3707I395J-306D01*
G37*
G36*
G01X125796Y24701D02*
X109704D01*
X107701Y26704D01*
Y72296D01*
X108102Y72697D01*
X108243Y72712D01*
G03X108968Y72913I-243J2288D01*
G02X110105Y72187I337J-726D01*
G01Y69506D01*
X115105D01*
Y65227D01*
X115699Y64496D01*
Y63909D01*
X115108Y63182D01*
X114251Y59504D01*
X109785Y55039D01*
Y28915D01*
G03X114386I2301J0D01*
G01Y33758D01*
X126019D01*
X126863Y33072D01*
X129053Y32753D01*
X129606Y32199D01*
X154000D01*
G03X156267Y34894I0J2301D01*
G02X157055Y35832I788J137D01*
G01X157459D01*
X160725Y32567D01*
G02X160159Y31201I-566J-566D01*
G01X132296D01*
X125796Y24701D01*
G37*
G36*
G01X112734Y75735D02*
X111406Y74311D01*
X113000Y72434D01*
X114594Y74311D01*
X113266Y75735D01*
G03X112734I-266J-424D01*
G37*
G36*
G01X107132Y77732D02*
X108000D01*
X108082Y78789D01*
X107035Y78895D01*
X106767Y78295D01*
G03X107132Y77732I365J-163D01*
G37*
G36*
G01X107400Y74000D02*
X108000D01*
X108071Y75071D01*
X107000Y75000D01*
Y74400D01*
G03X107400Y74000I400J0D01*
G37*
G36*
G01X112965Y82571D02*
X111189Y80594D01*
X112928Y78876D01*
X114693Y80594D01*
X113639Y82508D01*
G03X112965Y82571I-371J-335D01*
G37*
G36*
G01X113231Y75747D02*
X114693Y77406D01*
X112941Y79125D01*
X111189Y77406D01*
X112650Y75747D01*
G03X113231I291J407D01*
G37*
G36*
G01X109006Y89199D02*
X111906Y86189D01*
X113617Y87896D01*
X115094Y89693D01*
X109389Y90000D01*
G03X109006Y89199I17J-500D01*
G37*
G36*
G01X113621Y82172D02*
X113974Y82526D01*
X113268Y83357D01*
X112561Y82526D01*
X112914Y82172D01*
G03X113621I354J354D01*
G37*
G36*
G01X110061Y89854D02*
X109707Y90207D01*
X108875Y89500D01*
X109707Y88793D01*
X110061Y89146D01*
G03Y89854I-354J354D01*
G37*
G36*
G01X110777Y104066D02*
X113587Y101253D01*
X115655Y104319D01*
X113587Y107385D01*
X110777Y104572D01*
G03Y104066I310J-253D01*
G37*
G36*
G01X116752Y11211D02*
X113406Y10811D01*
X114929Y8988D01*
X116594Y7307D01*
X117152Y10793D01*
G03X116752Y11211I-400J18D01*
G37*
G36*
G01X119783Y16369D02*
X120207Y16793D01*
X119500Y17600D01*
X118793Y16793D01*
X119217Y16369D01*
G03X119783I283J283D01*
G37*
G36*
G01X136299Y48204D02*
Y39296D01*
X137428Y38167D01*
G02X136863Y36801I-566J-566D01*
G01X133725D01*
X131524Y38726D01*
X130301Y40171D01*
Y40500D01*
G03X125699I-2301J0D01*
G01Y38360D01*
X114386D01*
Y48905D01*
G02X115138Y49704I800J0D01*
G03X116432Y50199I-138J2297D01*
G01X136363D01*
G02X136928Y48833I0J-800D01*
G01X136299Y48204D01*
G37*
G36*
G01X116061Y52354D02*
X115707Y52707D01*
X114875Y52000D01*
X115707Y51293D01*
X116061Y51646D01*
G03Y52354I-354J354D01*
G37*
G36*
G01X126299Y78950D02*
Y58296D01*
X129428Y55167D01*
G02X128863Y53801I-566J-566D01*
G01X116432D01*
G03X116044Y54050I-1432J-1801D01*
G01X115988Y54079D01*
X115660Y54406D01*
X117874Y56620D01*
X121112Y58694D01*
Y63056D01*
X120360Y63981D01*
Y64569D01*
X120650Y64925D01*
X122380Y67626D01*
X124301Y69547D01*
Y88547D01*
X125004Y89251D01*
X129395Y90275D01*
Y95234D01*
G02X130078Y95517I400J0D01*
G01X130799Y94796D01*
Y82870D01*
G02X129483Y82259I-800J0D01*
G03X126299Y78950I-1484J-1759D01*
G37*
G36*
G01X116606Y57353D02*
X119811Y59406D01*
X118195Y61209D01*
X116307Y62594D01*
X115307Y58307D01*
G03X116606Y57353I1000J0D01*
G37*
G36*
G01X118349Y64158D02*
X119594Y65689D01*
X118000Y67691D01*
X116406Y65689D01*
X117651Y64158D01*
G03X118349I349J937D01*
G37*
G36*
G01X120693Y70193D02*
X116406Y69193D01*
X117791Y67305D01*
X119594Y65689D01*
X121647Y68894D01*
G03X120693Y70193I-954J299D01*
G37*
G36*
G01X117665Y64265D02*
X116307Y62594D01*
X118059Y60750D01*
X119811Y62594D01*
X118453Y64265D01*
G03X117665I-394J-919D01*
G37*
G36*
G01X117717Y75817D02*
X116406Y74311D01*
X118000Y72434D01*
X119594Y74311D01*
X118283Y75817D01*
G03X117717I-283J-412D01*
G37*
G36*
G01X117769Y82253D02*
X116307Y80594D01*
X118059Y78875D01*
X119811Y80594D01*
X118350Y82253D01*
G03X117769I-291J-407D01*
G37*
G36*
G01X118312Y75974D02*
X119767Y77406D01*
X118059Y79125D01*
X116352Y77406D01*
X117806Y75974D01*
G03X118312I253J431D01*
G37*
G36*
G01X117500Y83000D02*
Y83500D01*
X116411Y83589D01*
X116500Y82500D01*
X117000D01*
G03X117500Y83000I0J500D01*
G37*
G36*
G01X120600Y95500D02*
X119173D01*
X119081Y94461D01*
X120000Y94500D01*
X120600Y95100D01*
Y95500D01*
G37*
G36*
G01X121507Y149666D02*
X123429Y151957D01*
X121484Y155749D01*
X119492Y151957D01*
X120312Y149802D01*
G03X121507Y149666I688J726D01*
G37*
G36*
G01X168409Y7358D02*
X169024Y6803D01*
G02X169020Y6206I-268J-297D01*
G01X168513Y5759D01*
X168259Y5926D01*
G03X166513Y6248I-1258J-1926D01*
G02X166041Y6538I-85J391D01*
G03X156411Y1336I-5447J-1432D01*
G02X155817Y0I-594J-535D01*
G01X139788D01*
G02X139242Y1385I0J800D01*
G03X129900Y6719I-3845J4115D01*
G02X128830Y6146I-781J173D01*
G03X126741Y5926I-830J-2146D01*
G01X126487Y5759D01*
X125895Y6280D01*
Y11308D01*
X124701Y12643D01*
Y15950D01*
G03X125299Y17414I-1701J1550D01*
G01X125313Y17799D01*
X127296D01*
X130296Y14799D01*
X160296D01*
X167737Y7358D01*
X168409D01*
G37*
G36*
G01X126253Y4231D02*
X124594Y5693D01*
X122875Y3941D01*
X124594Y2189D01*
X126253Y3650D01*
G03Y4231I-407J291D01*
G37*
G36*
G01X122760Y12325D02*
X121406Y10811D01*
X123000Y8959D01*
X124594Y10811D01*
X123240Y12325D01*
G03X122760I-240J-320D01*
G37*
G36*
G01X123283Y16369D02*
X123707Y16793D01*
X123000Y17600D01*
X122293Y16793D01*
X122717Y16369D01*
G03X123283I283J283D01*
G37*
G36*
G01X125735Y35665D02*
X127406Y34307D01*
X129250Y36059D01*
X127406Y37811D01*
X125735Y36453D01*
G03Y35665I919J-394D01*
G37*
G36*
G01X126151Y96342D02*
X124906Y94811D01*
X126500Y92809D01*
X128094Y94811D01*
X126849Y96342D01*
G03X126151I-349J-937D01*
G37*
G36*
G01X123807Y90307D02*
X128094Y91307D01*
X126709Y93195D01*
X124906Y94811D01*
X122853Y91606D01*
G03X123807Y90307I954J-299D01*
G37*
G36*
G01X122887Y113133D02*
X129604Y119850D01*
X156699Y92754D01*
Y92438D01*
X156625Y92333D01*
G03X159750Y89069I1875J-1333D01*
G03X160486Y88757I1250J1932D01*
G01X160598Y88731D01*
X160962Y88367D01*
X160296Y87701D01*
X143296D01*
X141898Y86303D01*
X141757Y86288D01*
G03X143491Y82248I243J-2288D01*
G02X144009I259J-305D01*
G03X146946Y82210I1491J1752D01*
G01X147056Y82299D01*
X147463D01*
G02X148028Y80933I0J-800D01*
G01X145398Y78303D01*
X145257Y78288D01*
G03X143210Y75774I243J-2288D01*
G02X142506Y74901I-796J-79D01*
G01Y69105D01*
X147798D01*
X149000Y70151D01*
X149623Y69609D01*
X149911Y68980D01*
X149851Y68823D01*
G03X149699Y68000I2149J-822D01*
G02X148899Y67201I-800J0D01*
G01X136204D01*
X134201Y69204D01*
Y96204D01*
X129204Y101201D01*
X125313D01*
X125299Y101586D01*
G03X124801Y102932I-2299J-86D01*
G01Y108068D01*
G03X123336Y111776I-1801J1432D01*
G02X122887Y113133I117J791D01*
G37*
G36*
G01X122646Y102561D02*
X122293Y102207D01*
X123000Y101375D01*
X123707Y102207D01*
X123354Y102561D01*
G03X122646I-354J-354D01*
G37*
G36*
G01X123354Y108439D02*
X123707Y108793D01*
X123000Y109625D01*
X122293Y108793D01*
X122646Y108439D01*
G03X123354I354J354D01*
G37*
G36*
G01X126711Y161844D02*
Y165094D01*
X122872Y165183D01*
X122961Y161344D01*
X126211D01*
G03X126711Y161844I0J500D01*
G37*
G36*
G01X126943Y3534D02*
X127356Y3240D01*
X128125Y4009D01*
X127293Y4707D01*
X126880Y4294D01*
G03X126943Y3534I354J-354D01*
G37*
G36*
G01X129132Y20602D02*
X132573Y20215D01*
X135492Y23250D01*
X132335Y24724D01*
X128894Y21283D01*
G03X129132Y20602I283J-283D01*
G37*
G36*
G01X133725Y35072D02*
X130594Y37811D01*
X128768Y36152D01*
X127406Y34307D01*
X132940Y33501D01*
G03X133725Y35072I-35J999D01*
G37*
G36*
G01X127007Y39521D02*
X127406Y34307D01*
X129072Y35820D01*
X130594Y37811D01*
X128524Y40257D01*
G03X127007Y39521I-524J-852D01*
G37*
G36*
G01X192306Y59000D02*
X192752Y59506D01*
X194550Y61236D01*
X194737Y61214D01*
G03X195000Y61199I262J2286D01*
G02X195799Y60399I0J-800D01*
G01Y52283D01*
X194898Y51381D01*
X194757Y51367D01*
G03X194158Y51220I242J-2288D01*
G01X194088Y51192D01*
X193612D01*
Y51395D01*
X187506D01*
Y46414D01*
X187819Y46060D01*
G02X187519Y45395I-300J-265D01*
G01X183801D01*
Y46246D01*
X182111Y47936D01*
X180681Y51395D01*
X174815D01*
X174227Y51506D01*
G02X174301Y52299I74J393D01*
G01X176327D01*
X176380Y52284D01*
G03X175349Y56102I620J2216D01*
G01X175347Y56100D01*
X174947Y55701D01*
X168101D01*
G02X167301Y56500I0J800D01*
G03X164086Y58611I-2301J0D01*
G01X163851Y58509D01*
X162310Y59895D01*
X157006D01*
Y55701D01*
X133704D01*
X129701Y59704D01*
Y62963D01*
G02X131067Y63528I800J0D01*
G01X132296Y62299D01*
X159204D01*
X164701Y67796D01*
Y73296D01*
X166650Y75244D01*
X166932Y74981D01*
G03X169932Y74865I1568J1684D01*
G01X171089D01*
X172199Y73754D01*
Y68254D01*
X179199Y61254D01*
Y60438D01*
X179125Y60333D01*
G03X183287Y58748I1875J-1334D01*
G01X183326Y59105D01*
X187019D01*
G02X187319Y58440I0J-400D01*
G01X187006Y58086D01*
Y53105D01*
X193112D01*
Y58086D01*
X192306Y59000D01*
G37*
G36*
G01X130283Y76869D02*
X130707Y77293D01*
X130000Y78100D01*
X129293Y77293D01*
X129717Y76869D01*
G03X130283I283J283D01*
G37*
G36*
G01X128283Y79369D02*
X128707Y79793D01*
X128000Y80600D01*
X127293Y79793D01*
X127717Y79369D01*
G03X128283I283J283D01*
G37*
G36*
G01X133314Y160145D02*
X135612Y162443D01*
X132961Y165220D01*
X130309Y162443D01*
X132607Y160145D01*
G03X133314I354J354D01*
G37*
G36*
G01X141239Y23499D02*
X138460Y26279D01*
X135298Y23217D01*
X138460Y20154D01*
X141239Y22934D01*
G03Y23499I-283J283D01*
G37*
G36*
G01X163799Y95296D02*
Y91840D01*
X163156D01*
X163044Y92056D01*
G03X162801Y92432I-2044J-1056D01*
G01Y94782D01*
X138731Y118851D01*
G02X138704Y119954I566J566D01*
G03X137383Y123769I-1704J1546D01*
G01X137257Y123790D01*
X136801Y124246D01*
Y125699D01*
X141547D01*
X147101Y120145D01*
X148130Y114899D01*
X153293D01*
X154461Y115933D01*
X154687Y115848D01*
G03X155870Y115729I813J2152D01*
G02X156799Y114940I129J-790D01*
G01Y102296D01*
X163799Y95296D01*
G37*
G36*
G01X136000Y122000D02*
Y121500D01*
X137089Y121411D01*
X137000Y122500D01*
X136500D01*
G03X136000Y122000I0J-500D01*
G37*
G36*
G01X155870Y120271D02*
G03X154687Y120152I-370J-2271D01*
G01X154461Y120067D01*
X153624Y120808D01*
X150872Y122882D01*
X143453Y130301D01*
X136801D01*
Y146254D01*
X140246Y149699D01*
X141216D01*
Y149277D01*
X141213Y149255D01*
G03X141199Y149000I2287J-255D01*
G01Y144107D01*
X141140Y144048D01*
Y142981D01*
X140388Y142056D01*
Y137944D01*
X141155Y137000D01*
X140388Y136056D01*
Y131105D01*
X146220D01*
X146758Y130494D01*
Y128695D01*
X149254Y126199D01*
X151068D01*
G03X151167Y129875I1432J1801D01*
G01X151062Y129801D01*
X150746D01*
X150216Y130330D01*
X151612Y131914D01*
Y136895D01*
X146482D01*
G02X146172Y137548I0J400D01*
G01X146494Y137944D01*
Y142056D01*
X146155Y142473D01*
X146630Y142859D01*
X146833Y142798D01*
G03X147500Y142699I666J2202D01*
G01X158506D01*
Y137914D01*
X158819Y137560D01*
G02X158519Y136895I-300J-265D01*
G01X153388D01*
Y131427D01*
X156799Y130442D01*
Y121060D01*
G02X155870Y120271I-800J0D01*
G37*
G36*
G01X136127Y150674D02*
G02X134761Y151239I-566J566D01*
G01Y159753D01*
X136474Y161466D01*
X136476Y161469D01*
G03X137277Y162472I-3515J3627D01*
G02X138644I683J-416D01*
G03X147277I4317J2623D01*
G02X148644I683J-416D01*
G03X157277I4317J2623D01*
G02X158644I683J-416D01*
G03X159631Y161297I4316J2623D01*
G02X159104Y159895I-527J-602D01*
G01X158506D01*
Y154944D01*
X158828Y154548D01*
G02X158518Y153895I-310J-252D01*
G01X154460D01*
X152824Y153301D01*
X138754D01*
X136127Y150674D01*
G37*
G36*
G01X145854Y45939D02*
X146207Y46293D01*
X145500Y47125D01*
X144793Y46293D01*
X145146Y45939D01*
G03X145854I354J354D01*
G37*
G36*
G01X145183Y47291D02*
X142689Y44594D01*
X144408Y42880D01*
X146193Y44594D01*
X145979Y47049D01*
G03X145183Y47291I-479J-144D01*
G37*
G36*
G01X148817Y72283D02*
X147311Y73594D01*
X145434Y72000D01*
X147311Y70406D01*
X148817Y71717D01*
G03Y72283I-412J283D01*
G37*
G36*
G01X146100Y77000D02*
X145500D01*
X145429Y75929D01*
X146500Y76000D01*
Y76600D01*
G03X146100Y77000I-400J0D01*
G37*
G36*
G01X146631Y84283D02*
X146207Y84707D01*
X145400Y84000D01*
X146207Y83293D01*
X146631Y83717D01*
G03Y84283I-283J283D01*
G37*
G36*
G01X142600Y85000D02*
X142000D01*
X141929Y83929D01*
X143000Y84000D01*
Y84600D01*
G03X142600Y85000I-400J0D01*
G37*
G36*
G01X143047Y137265D02*
X141689Y135594D01*
X143441Y133750D01*
X145193Y135594D01*
X143835Y137265D01*
G03X143047I-394J-919D01*
G37*
G36*
G01X143835Y136735D02*
X145193Y138406D01*
X143441Y140250D01*
X141689Y138406D01*
X143047Y136735D01*
G03X143835I394J919D01*
G37*
G36*
G01X143047Y143265D02*
X141689Y141594D01*
X143441Y139750D01*
X145193Y141594D01*
X143835Y143265D01*
G03X143047I-394J-919D01*
G37*
G36*
G01X153175Y42760D02*
X154689Y41406D01*
X156541Y43000D01*
X154689Y44594D01*
X153175Y43240D01*
G03Y42760I320J-240D01*
G37*
G36*
G01X152993Y47100D02*
X158193Y47406D01*
X156533Y49040D01*
X155219Y50284D01*
X152687Y47749D01*
G03X152993Y47100I313J-249D01*
G37*
G36*
G01X151646Y69061D02*
X151293Y68707D01*
X152000Y67875D01*
X152707Y68707D01*
X152354Y69061D01*
G03X151646I-354J-354D01*
G37*
G36*
G01X152306Y68317D02*
X154193Y70406D01*
X152457Y72124D01*
X150689Y70406D01*
X151605Y68407D01*
G03X152306Y68317I395J306D01*
G37*
G36*
G01X149183Y71717D02*
X150689Y70406D01*
X152566Y72000D01*
X150689Y73594D01*
X149183Y72283D01*
G03Y71717I412J-283D01*
G37*
G36*
G01X153131Y77783D02*
X152707Y78207D01*
X151900Y77500D01*
X152707Y76793D01*
X153131Y77217D01*
G03Y77783I-283J283D01*
G37*
G36*
G01X154505Y118293D02*
X152800Y119800D01*
X150875Y118000D01*
X152800Y116200D01*
X154505Y117707D01*
G03Y118293I-406J293D01*
G37*
G36*
G01X148200Y121300D02*
X149200Y116200D01*
X151120Y117781D01*
X152800Y119800D01*
X149585Y122223D01*
G03X148200Y121300I-385J-923D01*
G37*
G36*
G01X148850Y130747D02*
X150311Y132406D01*
X148559Y134125D01*
X146807Y132406D01*
X148269Y130747D01*
G03X148850I291J407D01*
G37*
G36*
G01X151439Y127646D02*
X151793Y127293D01*
X152625Y128000D01*
X151793Y128707D01*
X151439Y128354D01*
G03Y127646I354J-354D01*
G37*
G36*
G01X152697Y151197D02*
X154689Y149406D01*
X156565Y150981D01*
X154689Y152594D01*
X152812Y151912D01*
G03X152697Y151197I283J-412D01*
G37*
G36*
G01X154753Y22934D02*
X157532Y20154D01*
X160694Y23217D01*
X157532Y26279D01*
X154753Y23499D01*
G03Y22934I283J-283D01*
G37*
G36*
G01X163803Y56803D02*
X161811Y58594D01*
X159935Y57019D01*
X161811Y55406D01*
X163688Y56088D01*
G03X163803Y56803I-283J412D01*
G37*
G36*
G01X159091Y75760D02*
X155807Y73594D01*
X157501Y71889D01*
X159311Y70406D01*
X159811Y75311D01*
G03X159091Y75760I-500J0D01*
G37*
G36*
G01X158146Y92061D02*
X157793Y91707D01*
X158500Y90875D01*
X159207Y91707D01*
X158854Y92061D01*
G03X158146I-354J-354D01*
G37*
G36*
G01X154439Y117646D02*
X154793Y117293D01*
X155625Y118000D01*
X154793Y118707D01*
X154439Y118354D01*
G03Y117646I354J-354D01*
G37*
G36*
G01X158593Y131807D02*
X158193Y135594D01*
X156378Y134078D01*
X154689Y132406D01*
X158126Y131413D01*
G03X158593Y131807I67J394D01*
G37*
G36*
G01X161269Y137253D02*
X159807Y135594D01*
X161559Y133875D01*
X163311Y135594D01*
X161850Y137253D01*
G03X161269I-291J-407D01*
G37*
G36*
G01X161850Y136747D02*
X163311Y138406D01*
X161559Y140125D01*
X159807Y138406D01*
X161269Y136747D01*
G03X161850I291J407D01*
G37*
G36*
G01X161165Y154265D02*
X159807Y152594D01*
X161559Y150750D01*
X163311Y152594D01*
X161953Y154265D01*
G03X161165I-394J-919D01*
G37*
G36*
G01X165757Y150524D02*
X163311Y152594D01*
X161320Y151072D01*
X159807Y149406D01*
X165021Y149007D01*
G03X165757Y150524I-116J993D01*
G37*
G36*
G01X161953Y153735D02*
X163311Y155406D01*
X161559Y157250D01*
X159807Y155406D01*
X161165Y153735D01*
G03X161953I394J919D01*
G37*
G36*
G01X165372Y0D02*
G02X164778Y1336I0J800D01*
G03X165245Y1931I-4183J3770D01*
G02X165787Y2045I330J-225D01*
G03X168354Y2140I1213J1955D01*
G01X168494D01*
X169914Y888D01*
X174895D01*
Y11308D01*
X173701Y12643D01*
Y14963D01*
G02X175067Y15528I800J0D01*
G01X187296Y3299D01*
X198839D01*
G02X199565Y2163I0J-800D01*
G03X199489Y1035I1435J-664D01*
G02X198724Y0I-765J-235D01*
G01X165372D01*
G37*
G36*
G01X174459Y25577D02*
X161298Y38739D01*
G02X161863Y40105I566J566D01*
G01X162502D01*
G02X163298Y39226I0J-800D01*
G03X167089Y37256I2290J-226D01*
G02X167611I261J-303D01*
G03X169656Y41235I1501J1744D01*
G01X169351Y41310D01*
Y45605D01*
X174289D01*
G02X175080Y44687I0J-800D01*
G01X174620Y41608D01*
X174199Y41187D01*
Y40432D01*
G03X178301Y38970I1801J-1432D01*
G01X178305Y39298D01*
X179251Y39476D01*
G02X180199Y38690I148J-786D01*
G01Y33746D01*
X179510Y33057D01*
X177697D01*
X174627Y36127D01*
G03X171373Y32873I-1627J-1627D01*
G01X175825Y28421D01*
Y26143D01*
G02X174459Y25577I-800J0D01*
G37*
G36*
G01X166338Y40000D02*
X165588D01*
X165544Y38956D01*
X166588Y39000D01*
Y39750D01*
G03X166338Y40000I-250J0D01*
G37*
G36*
G01X164126Y43133D02*
X163311Y43957D01*
X161496Y43000D01*
X163311Y42043D01*
X164126Y42867D01*
G03Y43133I-211J133D01*
G37*
G36*
G01Y49133D02*
X163311Y49957D01*
X161496Y49000D01*
X163311Y48043D01*
X164126Y48867D01*
G03Y49133I-211J133D01*
G37*
G36*
G01X163939Y56146D02*
X164293Y55793D01*
X165125Y56500D01*
X164293Y57207D01*
X163939Y56854D01*
G03Y56146I354J-354D01*
G37*
G36*
G01X160646Y92061D02*
X160293Y91707D01*
X161000Y90875D01*
X161707Y91707D01*
X161354Y92061D01*
G03X160646I-354J-354D01*
G37*
G36*
G01X166731Y112747D02*
X168193Y114406D01*
X166441Y116125D01*
X164689Y114406D01*
X166150Y112747D01*
G03X166731I291J407D01*
G37*
G36*
G01X168593Y107807D02*
X168193Y111594D01*
X166378Y110078D01*
X164689Y108406D01*
X168126Y107413D01*
G03X168593Y107807I67J394D01*
G37*
G36*
G01X166150Y113253D02*
X164689Y111594D01*
X166441Y109875D01*
X168193Y111594D01*
X166731Y113253D01*
G03X166150I-291J-407D01*
G37*
G36*
G01X166731Y118747D02*
X168193Y120406D01*
X166441Y122125D01*
X164689Y120406D01*
X166150Y118747D01*
G03X166731I291J407D01*
G37*
G36*
G01X166150Y119253D02*
X164689Y117594D01*
X166441Y115875D01*
X168193Y117594D01*
X166731Y119253D01*
G03X166150I-291J-407D01*
G37*
G36*
G01X164817Y134283D02*
X163311Y135594D01*
X161434Y134000D01*
X163311Y132406D01*
X164817Y133717D01*
G03Y134283I-412J283D01*
G37*
G36*
G01X165439Y133646D02*
X165793Y133293D01*
X166625Y134000D01*
X165793Y134707D01*
X165439Y134354D01*
G03Y133646I354J-354D01*
G37*
G36*
G01X177299Y147935D02*
G02X176241Y147178I-800J0D01*
G03X175500Y147301I-742J-2178D01*
G01X168451D01*
G02X167819Y148591I0J800D01*
G03X166000Y152301I-1819J1409D01*
G01X165671D01*
X164244Y153509D01*
X163845Y154000D01*
X164236Y154481D01*
X164504Y154699D01*
X165496D01*
X166227Y154105D01*
X171494D01*
Y159282D01*
G02X172385Y160077I800J0D01*
G03X172961Y160044I577J5018D01*
G01X175606D01*
X177299Y158351D01*
Y147935D01*
G37*
G36*
G01X164842Y157349D02*
X163311Y158594D01*
X161309Y157000D01*
X163311Y155406D01*
X164842Y156651D01*
G03Y157349I-937J349D01*
G37*
G36*
G01X165158Y156651D02*
X166689Y155406D01*
X168691Y157000D01*
X166689Y158594D01*
X165158Y157349D01*
G03Y156651I937J-349D01*
G37*
G36*
G01X168120Y4294D02*
X167707Y4707D01*
X166875Y4009D01*
X167644Y3240D01*
X168057Y3534D01*
G03X168120Y4294I-291J407D01*
G37*
G36*
G01X168747Y3650D02*
X170406Y2189D01*
X172125Y3941D01*
X170406Y5693D01*
X168747Y4231D01*
G03Y3650I407J-291D01*
G37*
G36*
G01X168737Y8815D02*
X170406Y7307D01*
X172100Y9059D01*
X170406Y10811D01*
X168737Y9304D01*
G03Y8815I317J-244D01*
G37*
G36*
G01X171760Y12325D02*
X170406Y10811D01*
X172000Y8959D01*
X173594Y10811D01*
X172240Y12325D01*
G03X171760I-240J-320D01*
G37*
G36*
G01X172283Y16869D02*
X172707Y17293D01*
X172000Y18100D01*
X171293Y17293D01*
X171717Y16869D01*
G03X172283I283J283D01*
G37*
G36*
G01X168111Y39750D02*
Y39000D01*
X169156Y38956D01*
X169111Y40000D01*
X168361D01*
G03X168111Y39750I0J-250D01*
G37*
G36*
G01X168380Y51646D02*
X168764Y51264D01*
X169595Y51965D01*
X168794Y52706D01*
X168411Y52382D01*
G03X168380Y51646I323J-382D01*
G37*
G36*
G01X170470Y51470D02*
Y51970D01*
X169382Y52059D01*
X169470Y50970D01*
X169970D01*
G03X170470Y51470I0J500D01*
G37*
G36*
G01X170689Y50252D02*
X171189Y46906D01*
X173030Y48411D01*
X174693Y50094D01*
X171211Y50752D01*
G03X170689Y50252I-22J-500D01*
G37*
G36*
G01X169561Y77019D02*
X169207Y77372D01*
X168375Y76665D01*
X169207Y75959D01*
X169561Y76312D01*
G03Y77019I-354J354D01*
G37*
G36*
G01X170717Y94131D02*
X170293Y93707D01*
X171000Y92900D01*
X171707Y93707D01*
X171283Y94131D01*
G03X170717I-283J-283D01*
G37*
G36*
G01X173783Y94369D02*
X174207Y94793D01*
X173500Y95600D01*
X172793Y94793D01*
X173217Y94369D01*
G03X173783I283J283D01*
G37*
G36*
G01X174817Y110283D02*
X173311Y111594D01*
X171434Y110000D01*
X173311Y108406D01*
X174817Y109717D01*
G03Y110283I-412J283D01*
G37*
G36*
G01X173594Y118094D02*
X169807Y117594D01*
X171461Y115923D01*
X173311Y114406D01*
X174093Y117550D01*
G03X173594Y118094I-498J44D01*
G37*
G36*
G01X175542Y123481D02*
X173311Y123594D01*
X171438Y121969D01*
X173311Y120406D01*
X175794Y122686D01*
G03X175542Y123481I-389J314D01*
G37*
G36*
G01X176711Y161744D02*
Y165094D01*
X172890Y165165D01*
X172961Y161344D01*
X176311D01*
G03X176711Y161744I0J400D01*
G37*
G36*
G01X188836Y11201D02*
X176459Y23578D01*
G02X177025Y24943I566J566D01*
G01X181576D01*
Y30030D01*
X182274Y30728D01*
G02X183640Y30162I566J-566D01*
G01Y29813D01*
X186254Y27199D01*
X186772D01*
X188699Y25420D01*
Y25199D01*
X188939D01*
X189216Y24943D01*
X193965D01*
X194044Y24907D01*
G03X194282Y24814I955J2093D01*
G02X194315Y24067I-125J-380D01*
G03X200624Y16802I1992J-4641D01*
G02X201991I683J-416D01*
G03X209063Y15193I4316J2623D01*
G02X210299Y14522I437J-670D01*
G01Y13204D01*
X208296Y11201D01*
X203554D01*
G02X202769Y12154I0J800D01*
G03X199231I-1769J346D01*
G02X198446Y11201I-785J-154D01*
G01X188836D01*
G37*
G36*
G01X175646Y40061D02*
X175293Y39707D01*
X176000Y38875D01*
X176707Y39707D01*
X176354Y40061D01*
G03X175646I-354J-354D01*
G37*
G36*
G01X176330Y40248D02*
X179811Y40906D01*
X178148Y42589D01*
X176307Y44094D01*
X175807Y40748D01*
G03X176330Y40248I500J0D01*
G37*
G36*
G01X181080Y47025D02*
X179811Y50094D01*
X177953Y48567D01*
X176307Y46906D01*
X180594Y46406D01*
G03X181080Y47025I0J500D01*
G37*
G36*
G01X175652Y54000D02*
X176500D01*
X177094Y54535D01*
X176293Y55207D01*
X175369Y54283D01*
X175652Y54000D01*
G37*
G36*
G01X179078Y80036D02*
X177626Y78256D01*
X179180Y75251D01*
X180776Y78256D01*
X180065Y79955D01*
G03X179078Y80036I-565J-825D01*
G37*
G36*
G01X175369Y83717D02*
X175793Y83293D01*
X176600Y84000D01*
X175793Y84707D01*
X175369Y84283D01*
G03Y83717I283J-283D01*
G37*
G36*
G01X177232Y109646D02*
X178646Y108232D01*
X179125Y109500D01*
Y110500D01*
X178646Y111768D01*
X177232Y110354D01*
G03Y109646I354J-354D01*
G37*
G36*
G01X174939Y117646D02*
X175293Y117293D01*
X176125Y118000D01*
X175293Y118707D01*
X174939Y118354D01*
G03Y117646I354J-354D01*
G37*
G36*
G01Y122646D02*
X175293Y122293D01*
X176125Y123000D01*
X175293Y123707D01*
X174939Y123354D01*
G03Y122646I354J-354D01*
G37*
G36*
G01X177000Y129000D02*
Y129500D01*
X175911Y129589D01*
X176000Y128500D01*
X176500D01*
G03X177000Y129000I0J500D01*
G37*
G36*
G01X185731Y33247D02*
X187193Y34906D01*
X185441Y36625D01*
X183689Y34906D01*
X185150Y33247D01*
G03X185731I291J407D01*
G37*
G36*
G01X185150Y39753D02*
X183689Y38094D01*
X185441Y36375D01*
X187193Y38094D01*
X185731Y39753D01*
G03X185150I-291J-407D01*
G37*
G36*
G01X185731Y39247D02*
X187193Y40906D01*
X185441Y42625D01*
X183689Y40906D01*
X185150Y39247D01*
G03X185731I291J407D01*
G37*
G36*
G01X180646Y60061D02*
X180293Y59707D01*
X181000Y58875D01*
X181707Y59707D01*
X181354Y60061D01*
G03X180646I-354J-354D01*
G37*
G36*
G01X180000Y66100D02*
Y65500D01*
X181071Y65429D01*
X181000Y66500D01*
X180400D01*
G03X180000Y66100I0J-400D01*
G37*
G36*
G01X184650Y65253D02*
X183189Y63594D01*
X184941Y61875D01*
X186693Y63594D01*
X185231Y65253D01*
G03X184650I-291J-407D01*
G37*
G36*
G01X185231Y64747D02*
X186693Y66406D01*
X184941Y68125D01*
X183189Y66406D01*
X184650Y64747D01*
G03X185231I291J407D01*
G37*
G36*
G01X183140Y74187D02*
Y71506D01*
X182588Y70880D01*
G02X181888Y71145I-300J264D01*
G01Y71843D01*
X182076D01*
Y78517D01*
X181801Y79176D01*
Y95500D01*
G03X181702Y96167I-2301J0D01*
G02X182468Y97199I766J232D01*
G01X205032D01*
G02X205798Y96167I0J-800D01*
G03X206299Y93950I2202J-667D01*
G01Y86204D01*
X204296Y84201D01*
X203935D01*
G02X203178Y85259I0J800D01*
G03X203301Y86000I-2178J742D01*
G01Y88332D01*
X203276Y88356D01*
X203252Y88473D01*
G03X199568Y89801I-2252J-473D01*
G01X198432D01*
G03X195568I-1432J-1801D01*
G01X194432D01*
G03X191568I-1432J-1801D01*
G01X190668D01*
X189199Y88332D01*
Y79080D01*
X187272Y77301D01*
X186254D01*
X183140Y74187D01*
G37*
G36*
G01X184650Y71253D02*
X183189Y69594D01*
X184941Y67875D01*
X186693Y69594D01*
X185231Y71253D01*
G03X184650I-291J-407D01*
G37*
G36*
G01X188349Y148158D02*
X189594Y149689D01*
X188000Y151691D01*
X186406Y149689D01*
X187651Y148158D01*
G03X188349I349J937D01*
G37*
G36*
G01X191462Y137553D02*
G02X190301Y138267I-361J714D01*
G01Y148496D01*
X190895Y149227D01*
Y154494D01*
X184661D01*
Y159652D01*
X186509Y161500D01*
G03X187277Y162472I-3547J3595D01*
G02X188644I683J-416D01*
G03X193392Y160062I4316J2623D01*
G02X194260Y159265I68J-797D01*
G01Y138448D01*
G02X193212Y137688I-800J0D01*
G03X191462Y137553I-712J-2188D01*
G37*
G36*
G01X183243Y160074D02*
X185612Y162443D01*
X182961Y165194D01*
X180309Y162443D01*
X182678Y160074D01*
G03X183243I283J283D01*
G37*
G36*
G01X189500Y32000D02*
X196000D01*
Y26000D01*
X189500D01*
Y32000D01*
G37*
G36*
G01X187082Y28683D02*
X189724Y26244D01*
X191424Y29000D01*
X189724Y31756D01*
X187082Y29317D01*
G03Y28683I387J-317D01*
G37*
G36*
G01X190850Y39247D02*
X192311Y40906D01*
X190559Y42625D01*
X188807Y40906D01*
X190269Y39247D01*
G03X190850I291J407D01*
G37*
G36*
G01X190269Y39753D02*
X188807Y38094D01*
X190559Y36375D01*
X192311Y38094D01*
X190850Y39753D01*
G03X190269I-291J-407D01*
G37*
G36*
G01X192327Y45854D02*
X190913Y47268D01*
X190434Y46000D01*
Y45000D01*
X190913Y43732D01*
X192327Y45146D01*
G03Y45854I-354J354D01*
G37*
G36*
G01X190269Y45753D02*
X188807Y44094D01*
X190559Y42375D01*
X192311Y44094D01*
X190850Y45753D01*
G03X190269I-291J-407D01*
G37*
G36*
G01X190850Y45247D02*
X192311Y46906D01*
X190559Y48625D01*
X188807Y46906D01*
X190269Y45247D01*
G03X190850I291J407D01*
G37*
G36*
G01X190350Y58747D02*
X191811Y60406D01*
X190059Y62125D01*
X188307Y60406D01*
X189769Y58747D01*
G03X190350I291J407D01*
G37*
G36*
G01X189769Y59253D02*
X188307Y57594D01*
X190059Y55875D01*
X191811Y57594D01*
X190350Y59253D01*
G03X189769I-291J-407D01*
G37*
G36*
G01X190350Y64747D02*
X191811Y66406D01*
X190059Y68125D01*
X188307Y66406D01*
X189769Y64747D01*
G03X190350I291J407D01*
G37*
G36*
G01X189769Y65253D02*
X188307Y63594D01*
X190059Y61875D01*
X191811Y63594D01*
X190350Y65253D01*
G03X189769I-291J-407D01*
G37*
G36*
G01X194319Y64000D02*
X188307Y63594D01*
X189941Y61958D01*
X191811Y60406D01*
X194700Y63186D01*
G03X194319Y64000I-389J314D01*
G37*
G36*
G01X190000Y72500D02*
Y88000D01*
X191000Y89000D01*
X201500D01*
X202500Y88000D01*
Y86000D01*
X201500Y85000D01*
X195500D01*
X193500Y83000D01*
Y80905D01*
X193299Y80704D01*
Y72500D01*
X190000D01*
G37*
G36*
G01X187582Y75183D02*
X190224Y72744D01*
X191924Y75500D01*
X190224Y78256D01*
X187582Y75817D01*
G03Y75183I387J-317D01*
G37*
G36*
G01X190061Y131354D02*
X188354Y133061D01*
X187875Y131500D01*
Y130500D01*
X188354Y128939D01*
X190061Y130646D01*
G03Y131354I-354J354D01*
G37*
G36*
G01X193500Y134900D02*
Y135500D01*
X192429Y135571D01*
X192500Y134500D01*
X193100D01*
G03X193500Y134900I0J400D01*
G37*
G36*
G01X196361Y162094D02*
X196360Y164744D01*
X192890Y165165D01*
X193311Y161695D01*
X195961Y161694D01*
G03X196361Y162094I0J400D01*
G37*
G36*
G01X201991Y22048D02*
G02X200624I-683J416D01*
G03X197135Y24407I-4316J-2623D01*
G01X196801Y24463D01*
Y25562D01*
X196875Y25667D01*
G03X197301Y27000I-1875J1334D01*
G01Y39500D01*
G03X194563Y41759I-2301J0D01*
G02X193612Y42544I-152J785D01*
G01Y43699D01*
X196068D01*
G03X197912Y47763I1432J1801D01*
G02X197267Y48687I143J787D01*
G03X197288Y48836I-2268J388D01*
G01X197303Y48976D01*
X199201Y50874D01*
Y65704D01*
X196701Y68204D01*
Y73605D01*
X200519D01*
G02X200819Y72940I0J-400D01*
G01X200506Y72586D01*
Y68414D01*
X201543Y67238D01*
X201428Y66999D01*
G03X205607Y66924I2072J-999D01*
G01X205505Y67158D01*
X206612Y68414D01*
Y72586D01*
X205806Y73500D01*
X206612Y74414D01*
Y78199D01*
X225699D01*
Y57552D01*
G02X224925Y56752I-800J0D01*
G03X223450Y56153I74J-2300D01*
G01X220748D01*
X217299Y52704D01*
Y37704D01*
X210299Y30704D01*
Y24328D01*
G02X209063Y23658I-800J0D01*
G03X201991Y22048I-2756J-4233D01*
G37*
G36*
G01X196439Y45146D02*
X196793Y44793D01*
X197625Y45500D01*
X196793Y46207D01*
X196439Y45854D01*
G03Y45146I354J-354D01*
G37*
G36*
G01X195600Y50079D02*
X195000D01*
X194929Y49008D01*
X196000Y49079D01*
Y49679D01*
G03X195600Y50079I-400J0D01*
G37*
G36*
G01X193939Y63146D02*
X194293Y62793D01*
X195125Y63500D01*
X194293Y64207D01*
X193939Y63854D01*
G03Y63146I354J-354D01*
G37*
G36*
G01X200109Y79186D02*
X196689Y78094D01*
X198363Y76402D01*
X200193Y74906D01*
X200693Y78693D01*
G03X200109Y79186I-500J0D01*
G37*
G36*
G01X195643Y136630D02*
X195276Y136148D01*
X196024Y135382D01*
X196725Y136189D01*
X196243Y136671D01*
G03X195643Y136630I-283J-283D01*
G37*
G36*
G01X203276Y0D02*
G02X202511Y1035I0J800D01*
G03X202435Y2163I-1511J464D01*
G02X203161Y3299I726J336D01*
G01X212204D01*
X218704Y9799D01*
X219383D01*
G02X220086Y8619I0J-800D01*
G03X227914I3914J-2119D01*
G02X228617Y9799I704J381D01*
G01X232800D01*
G02X233497Y8606I0J-800D01*
G03X234901Y1427I4905J-2767D01*
G02X234404Y0I-497J-627D01*
G01X203276D01*
G37*
G36*
G01X203206Y67120D02*
X202793Y66707D01*
X203491Y65875D01*
X204260Y66644D01*
X203966Y67057D01*
G03X203206Y67120I-407J-291D01*
G37*
G36*
G01X203269Y73753D02*
X201807Y72094D01*
X203559Y70375D01*
X205311Y72094D01*
X203850Y73753D01*
G03X203269I-291J-407D01*
G37*
G36*
G01X203850Y67247D02*
X205311Y68906D01*
X203559Y70625D01*
X201807Y68906D01*
X203269Y67247D01*
G03X203850I291J407D01*
G37*
G36*
G01Y73247D02*
X205311Y74906D01*
X203559Y76625D01*
X201807Y74906D01*
X203269Y73247D01*
G03X203850I291J407D01*
G37*
G36*
G01X203243Y160074D02*
X205612Y162443D01*
X202961Y165194D01*
X200309Y162443D01*
X202678Y160074D01*
G03X203243I283J283D01*
G37*
G36*
G01X210968Y97199D02*
X221754D01*
X225699Y93254D01*
Y81801D01*
X208637D01*
G02X208072Y83167I0J800D01*
G01X209701Y84796D01*
Y93950D01*
G03X210202Y96167I-1701J1550D01*
G02X210968Y97199I766J232D01*
G37*
G36*
G01X208283Y94369D02*
X208707Y94793D01*
X208000Y95600D01*
X207293Y94793D01*
X207717Y94369D01*
G03X208283I283J283D01*
G37*
G36*
G01X235246Y16801D02*
X227746Y24301D01*
X218432D01*
G03X216161Y24642I-1432J-1801D01*
G02X215069Y25387I-292J745D01*
G01Y28729D01*
X222069Y35729D01*
Y50729D01*
X222157Y50817D01*
X222778D01*
X223343Y50252D01*
X223472D01*
X223582Y50163D01*
G03X225011Y49652I1446J1790D01*
G02X225230Y48918I-3J-400D01*
G03X225068Y48801I1271J-1918D01*
G01X224199D01*
Y41199D01*
X225068D01*
G03X227328Y40854I1432J1801D01*
G01X227398Y40880D01*
X234699D01*
Y31432D01*
G03X234620Y28674I1801J-1432D01*
G02X234518Y27633I-654J-461D01*
G03X243452Y26045I3883J-4078D01*
G02X244170Y27199I718J354D01*
G01X254332D01*
X256801Y29668D01*
Y36332D01*
X255776Y37356D01*
X255752Y37473D01*
G03X253973Y39252I-2252J-473D01*
G01X253856Y39276D01*
X253709Y39423D01*
G02X253846Y40665I566J566D01*
G03X251665Y42846I-846J1335D01*
G02X250423Y42709I-676J428D01*
G01X246844Y46289D01*
Y47939D01*
X238301D01*
Y50061D01*
X246844D01*
Y50699D01*
X249332D01*
X251301Y52668D01*
Y55795D01*
G02X252403Y56536I800J0D01*
G03Y59464I597J1464D01*
G02X251301Y60205I-302J741D01*
G01Y67332D01*
X249332Y69301D01*
X239668D01*
X237699Y67332D01*
Y60332D01*
X236747Y59380D01*
X236254Y59584D01*
Y59620D01*
X229301D01*
Y85998D01*
G02X230619Y86608I800J0D01*
G03X237210Y92457I2881J3392D01*
G02X237877Y93699I667J442D01*
G01X239123D01*
G02X239790Y92457I0J-800D01*
G03X247210I3710J-2457D01*
G02X247877Y93699I667J442D01*
G01X249123D01*
G02X249790Y92457I0J-800D01*
G03X256762Y93027I3710J-2458D01*
G01X256656Y93142D01*
Y93699D01*
X257254D01*
X259050Y91904D01*
Y85550D01*
X262662D01*
G02X263394Y84427I0J-800D01*
G03X263699Y82068I2106J-927D01*
G01Y80770D01*
X263319Y80395D01*
X258460D01*
X256824Y79801D01*
X247932D01*
G03Y76199I-1432J-1801D01*
G01X256417D01*
X257126Y75562D01*
X256792Y75191D01*
X256700Y75157D01*
G03X257117Y70731I800J-2157D01*
G01X257243Y70710D01*
X258199Y69754D01*
Y29746D01*
X245254Y16801D01*
X235246D01*
G37*
G36*
G01X218061Y22854D02*
X217707Y23207D01*
X216875Y22500D01*
X217707Y21793D01*
X218061Y22146D01*
G03Y22854I-354J354D01*
G37*
G36*
G01X220731Y164247D02*
X222193Y165906D01*
X220441Y167625D01*
X218689Y165906D01*
X220150Y164247D01*
G03X220731I291J407D01*
G37*
G36*
G01X225000Y42000D02*
Y48000D01*
X234699D01*
Y42000D01*
X225000D01*
G37*
G36*
G01X227000Y48000D02*
X226500D01*
X226411Y46911D01*
X227500Y47000D01*
Y47500D01*
G03X227000Y48000I-500J0D01*
G37*
G36*
G01X223482Y52518D02*
X224048Y51952D01*
X225122Y51918D01*
X224994Y52918D01*
X223482Y52918D01*
Y52518D01*
G37*
G36*
G01X225732Y79646D02*
X227146Y78232D01*
X227625Y79500D01*
Y80500D01*
X227146Y81768D01*
X225732Y80354D01*
G03Y79646I354J-354D01*
G37*
G36*
G01X228817Y167783D02*
X227311Y169094D01*
X225434Y167500D01*
X227311Y165906D01*
X228817Y167217D01*
G03Y167783I-412J283D01*
G37*
G36*
G01X249000Y51500D02*
X230500D01*
X229301Y52699D01*
Y58500D01*
X237000D01*
X238500Y60000D01*
Y67000D01*
X240000Y68500D01*
X249000D01*
X250500Y67000D01*
Y53000D01*
X249000Y51500D01*
G37*
G36*
G01X230439Y167146D02*
X230793Y166793D01*
X231625Y167500D01*
X230793Y168207D01*
X230439Y167854D01*
G03Y167146I354J-354D01*
G37*
G36*
G01X236146Y31061D02*
X235793Y30707D01*
X236500Y29875D01*
X237207Y30707D01*
X236854Y31061D01*
G03X236146I-354J-354D01*
G37*
G36*
G01X254000Y28000D02*
X242000D01*
X238500Y31500D01*
Y46500D01*
X245500D01*
X256000Y36000D01*
Y30000D01*
X254000Y28000D01*
G37*
G36*
G01X247561Y78354D02*
X247207Y78707D01*
X246375Y78000D01*
X247207Y77293D01*
X247561Y77646D01*
G03Y78354I-354J354D01*
G37*
G36*
G01X259668Y19224D02*
X263598D01*
X263669Y23626D01*
X259268Y23555D01*
Y19624D01*
G03X259668Y19224I400J0D01*
G37*
G36*
G01X258500Y72500D02*
Y73000D01*
X257411Y73089D01*
X257500Y72000D01*
X258000D01*
G03X258500Y72500I0J500D01*
G37*
G36*
G01X256697Y77697D02*
X258689Y75906D01*
X260565Y77481D01*
X258689Y79094D01*
X256812Y78412D01*
G03X256697Y77697I283J-412D01*
G37*
G36*
G01X265306Y80526D02*
X263852Y79094D01*
X265559Y77375D01*
X267267Y79094D01*
X265812Y80526D01*
G03X265306I-253J-431D01*
G37*
G36*
G01X265854Y82439D02*
X266207Y82793D01*
X265500Y83625D01*
X264793Y82793D01*
X265146Y82439D01*
G03X265854I354J354D01*
G37*
%LPC*%
G75*
G36*
G01X80112Y72105D02*
X69682D01*
X68333Y73344D01*
X68119Y73284D01*
G02X66139Y77355I-619J2216D01*
G03Y78645I-473J645D01*
G02X68119Y82716I1361J1855D01*
G01X68333Y82656D01*
X69682Y83895D01*
X79273D01*
X80004Y83301D01*
X81248D01*
X82574Y84627D01*
G02X85090Y85122I1627J-1627D01*
G03X86199Y85860I309J738D01*
G01Y124754D01*
X83754Y127199D01*
X76932D01*
G02Y130801I-1432J1801D01*
G01X85246D01*
X86833Y129213D01*
G03X88199Y129779I566J566D01*
G01Y130754D01*
X83254Y135699D01*
X76932D01*
G02Y139301I-1432J1801D01*
G01X84746D01*
X91801Y132246D01*
Y86246D01*
X92757Y85290D01*
X92883Y85269D01*
G02X94795Y83165I-383J-2269D01*
G03X95165Y82795I399J29D01*
G02X93568Y78699I-165J-2295D01*
G01X89254D01*
X86485Y81469D01*
G03X85906Y81455I-283J-283D01*
G02X85828Y81373I-1701J1549D01*
G01X83154Y78699D01*
X80004D01*
X79736Y78481D01*
X79345Y78000D01*
X80112Y77056D01*
Y72105D01*
G37*
G36*
G01X207815Y70420D02*
X207931Y73895D01*
X213994D01*
Y68855D01*
X211787Y66715D01*
X211764Y66588D01*
G02X207699Y68432I-2264J412D01*
G01Y70305D01*
X207815Y70420D01*
G37*
G36*
G01X203115Y33429D02*
X201006Y33827D01*
Y39395D01*
X206932D01*
X207498Y35608D01*
X207801Y35305D01*
Y33432D01*
G02X203749Y32477I-1801J-1432D01*
G03X203115Y33429I-783J166D01*
G37*
G36*
G01X229568Y28299D02*
X222550D01*
G02X222296Y31901I-1550J1701D01*
G01X229568D01*
G02Y28299I1432J-1801D01*
G37*
G54D29*
X94500Y12500D03*
%LPD*%
G75*
G36*
G01X68631Y75783D02*
X68207Y76207D01*
X67400Y75500D01*
X68207Y74793D01*
X68631Y75217D01*
G03Y75783I-283J283D01*
G37*
G36*
G01X68184Y75248D02*
X70189Y73406D01*
X72040Y74986D01*
X70189Y76594D01*
X68278Y75836D01*
G03X68184Y75248I217J-336D01*
G37*
G36*
G01X68631Y80783D02*
X68207Y81207D01*
X67400Y80500D01*
X68207Y79793D01*
X68631Y80217D01*
G03Y80783I-283J283D01*
G37*
G36*
G01X68278Y80164D02*
X70189Y79406D01*
X72040Y81014D01*
X70189Y82594D01*
X68184Y80752D01*
G03X68278Y80164I311J-251D01*
G37*
G36*
G01X77453Y77735D02*
X78811Y79406D01*
X77059Y81250D01*
X75307Y79406D01*
X76665Y77735D01*
G03X77453I394J919D01*
G37*
G36*
G01X80342Y81349D02*
X78811Y82594D01*
X76809Y81000D01*
X78811Y79406D01*
X80342Y80651D01*
G03Y81349I-937J349D01*
G37*
G36*
G01X76665Y78265D02*
X75307Y76594D01*
X77059Y74750D01*
X78811Y76594D01*
X77453Y78265D01*
G03X76665I-394J-919D01*
G37*
G36*
G01X76561Y129354D02*
X76207Y129707D01*
X75375Y129000D01*
X76207Y128293D01*
X76561Y128646D01*
G03Y129354I-354J354D01*
G37*
G36*
G01Y137854D02*
X76207Y138207D01*
X75375Y137500D01*
X76207Y136793D01*
X76561Y137146D01*
G03Y137854I-354J354D01*
G37*
G36*
G01X91500Y83500D02*
Y83000D01*
X92589Y82911D01*
X92500Y84000D01*
X92000D01*
G03X91500Y83500I0J-500D01*
G37*
G36*
G01X93939Y80146D02*
X94293Y79793D01*
X95125Y80500D01*
X94293Y81207D01*
X93939Y80854D01*
G03Y80146I354J-354D01*
G37*
G36*
G01X205646Y33061D02*
X205293Y32707D01*
X206000Y31875D01*
X206707Y32707D01*
X206354Y33061D01*
G03X205646I-354J-354D01*
G37*
G36*
G01X206311Y34748D02*
X205811Y38094D01*
X203970Y36589D01*
X202307Y34906D01*
X205789Y34248D01*
G03X206311Y34748I22J500D01*
G37*
G36*
G01X209801Y66601D02*
X212693Y69406D01*
X210983Y71118D01*
X209189Y72594D01*
X209001Y66972D01*
G03X209801Y66601I499J28D01*
G37*
G36*
G01X209146Y68061D02*
X208793Y67707D01*
X209500Y66875D01*
X210207Y67707D01*
X209854Y68061D01*
G03X209146I-354J-354D01*
G37*
G36*
G01X222051Y30537D02*
X221597Y30790D01*
X220876Y29985D01*
X221707Y29293D01*
X222161Y29746D01*
G03X222051Y30537I-354J354D01*
G37*
G36*
G01X229939Y29746D02*
X230293Y29393D01*
X231125Y30100D01*
X230293Y30807D01*
X229939Y30454D01*
G03Y29746I354J-354D01*
G37*
G54D10*
X13000Y13000D03*
Y159000D03*
X282500Y13000D03*
Y159000D03*
G54D11*
G01X13000Y13000D02*
X27500D01*
G01X13000D02*
X23500Y23500D01*
G01X13000Y13000D02*
X23500Y2500D01*
G01X13000Y159000D02*
X23500Y169500D01*
G01X13000Y159000D02*
X27500D01*
G01X77059Y81000D02*
Y75000D01*
G01X84201Y83000D02*
X82201Y81000D01*
X77059D01*
G01X125000Y145000D02*
Y125500D01*
X100500Y101000D01*
Y96500D01*
G01X106000Y114500D02*
X116000Y124500D01*
X119500D01*
G01X112085Y36000D02*
Y28915D01*
G01X129000Y36059D02*
X112144D01*
X112085Y36000D01*
G01X118059Y61000D02*
Y60059D01*
X112085Y54085D01*
Y36000D01*
G01X126500Y93059D02*
X125559D01*
X122000Y89500D01*
Y70500D01*
X118941Y67441D01*
X118000D01*
G01D02*
Y64154D01*
X118059Y64094D01*
Y61000D01*
G01X119500Y97500D02*
Y113000D01*
X128500Y122000D01*
Y128000D01*
G01X121000Y149000D02*
Y155039D01*
X121461Y155500D01*
G01X128000Y40500D02*
Y37059D01*
X129000Y36059D01*
G01X126500Y97500D02*
Y93059D01*
G01X154000Y34500D02*
X130559D01*
X129000Y36059D01*
G01X137000Y128000D02*
X142500D01*
X151000Y119500D01*
Y118000D01*
G01X143441Y140000D02*
Y134000D01*
G01X143500Y149000D02*
Y143154D01*
X143441Y143094D01*
Y140000D01*
G01X175500Y145000D02*
X147500D01*
G01X161559Y157000D02*
Y151000D01*
G01X166000Y150000D02*
X162559D01*
X161559Y151000D01*
G01X168441Y157000D02*
X161559D01*
G01X173000Y34500D02*
X177799Y29701D01*
X178701D01*
G01X179500Y95500D02*
Y77000D01*
X179201Y76701D01*
Y75500D01*
G01X188000Y131000D02*
Y112500D01*
G01Y145500D02*
Y131000D01*
G01Y145500D02*
Y151441D01*
G01X195000Y33500D02*
Y27000D01*
G01Y39500D02*
Y33500D01*
G01X282500Y159000D02*
X267500D01*
G01X282500Y13000D02*
X272000Y2500D01*
G01X282500Y13000D02*
X268000D01*
G01X282500D02*
X272000Y23500D01*
G01X282500Y159000D02*
X272000Y169500D01*
X23500D03*
X28000Y29000D03*
X30500Y88000D03*
X28000D03*
X33000D03*
Y94000D03*
X28000D03*
X30500D03*
X40500Y4000D03*
Y29000D03*
X38000D03*
X35500Y88000D03*
X38000D03*
X40500D03*
Y94000D03*
X35500D03*
X38000D03*
X41500Y14500D03*
X45500Y29000D03*
X43000D03*
Y88000D03*
X45500D03*
X43000Y94000D03*
X45500D03*
X42000Y164000D03*
X48000Y4000D03*
X49000Y14500D03*
X53000Y34000D03*
X48000Y29000D03*
X50500D03*
Y34000D03*
Y31500D03*
Y60000D03*
Y55000D03*
Y57500D03*
X54500Y66000D03*
X50500Y67500D03*
Y62500D03*
Y65000D03*
X54500Y70000D03*
X50500D03*
Y72500D03*
X52000Y106000D03*
X49500D03*
Y128000D03*
Y130500D03*
Y133000D03*
Y135500D03*
Y138000D03*
Y140500D03*
Y145500D03*
Y143000D03*
Y153000D03*
Y150500D03*
Y148000D03*
Y155500D03*
X60500Y34000D03*
X58000D03*
X55500D03*
X59000Y45500D03*
Y42000D03*
X56500Y45500D03*
Y42000D03*
X59000Y66000D03*
Y70000D03*
X55500Y98500D03*
X54500Y106000D03*
X57000Y138000D03*
X59500Y167000D03*
X67500Y4000D03*
X65000Y14500D03*
X65500Y34000D03*
X63000D03*
X61500Y45500D03*
Y42000D03*
X64000Y45500D03*
Y42000D03*
X63500Y66000D03*
X67500Y75500D03*
Y80500D03*
X65500Y88000D03*
X67500Y109500D03*
Y114500D03*
X65000Y124500D03*
Y138000D03*
X66500Y167000D03*
X72500Y14500D03*
X70500Y34000D03*
X68000D03*
X73000Y38500D03*
Y36000D03*
X69000Y157500D03*
X75000Y4000D03*
X76000Y22500D03*
X75500Y129000D03*
Y137500D03*
X74500Y143000D03*
X76500Y157500D03*
X77500Y167000D03*
X83500Y22500D03*
X84941Y64500D03*
X84201Y83000D03*
X82000Y143000D03*
X84000Y157500D03*
X84500Y167000D03*
X91000Y5000D03*
X93000Y38000D03*
X92500Y83000D03*
X94000Y106500D03*
X93500Y133500D03*
X89000Y147500D03*
X91500Y157500D03*
X98500Y5000D03*
X96000Y38000D03*
X97000Y44500D03*
X95000Y80500D03*
X100500Y83000D03*
Y96500D03*
X98000Y106500D03*
X94500Y137500D03*
Y143000D03*
X96500Y147500D03*
X106000Y97000D03*
Y114500D03*
X101500Y129000D03*
X102000Y137500D03*
Y143000D03*
X110000Y4000D03*
X112000Y25500D03*
X112085Y28915D03*
X108500Y35000D03*
X109000Y64000D03*
Y71500D03*
X108000Y78732D03*
Y75000D03*
X113268Y83232D03*
X109000Y89500D03*
X110500Y101500D03*
X109000Y129000D03*
X119500Y17500D03*
X115000Y52000D03*
X116500Y83500D03*
X119500Y97500D03*
X119173Y94500D03*
X119500Y124500D03*
X123000Y17500D03*
X121000Y27500D03*
X125500Y73500D03*
X126500Y97500D03*
X123000Y101500D03*
Y109500D03*
X125000Y145000D03*
X121000Y149000D03*
X128000Y4000D03*
Y40500D03*
Y49000D03*
Y55000D03*
X130000Y78000D03*
X128000Y80500D03*
X129500Y84000D03*
X128500Y133000D03*
Y128000D03*
X135500Y49000D03*
X137500Y58500D03*
X136500Y84000D03*
X137000Y121500D03*
Y128000D03*
X139500Y142000D03*
X144000Y3500D03*
Y12000D03*
X145500Y47000D03*
X145000Y57500D03*
Y61000D03*
X145500Y76000D03*
Y84000D03*
X142000D03*
X147500Y145000D03*
X143500Y149000D03*
X151500Y3500D03*
Y12000D03*
X154000Y34500D03*
X151000Y57500D03*
Y61000D03*
X149000Y68000D03*
X152000D03*
Y77500D03*
X152500Y128000D03*
X158500Y91000D03*
X155500Y113000D03*
Y118000D03*
X167000Y4000D03*
X162500Y39000D03*
X165588D03*
X165000Y56500D03*
X166000Y69500D03*
X161000Y91000D03*
Y97500D03*
X166500Y134000D03*
X166000Y150000D03*
X172000Y18000D03*
X169111Y39000D03*
X173000Y34500D03*
X169470Y51970D03*
X169500Y56500D03*
X170500Y69500D03*
X168500Y76665D03*
X171000Y93000D03*
X173500Y95500D03*
X168500Y153000D03*
X177500Y3000D03*
X176000Y39000D03*
X174500Y57000D03*
X177500Y58000D03*
X177000Y54500D03*
X176500Y84000D03*
X179500Y95500D03*
X176000Y118000D03*
Y123000D03*
Y129500D03*
X175500Y145000D03*
X185000Y3000D03*
X183500Y23500D03*
X181000Y59000D03*
Y65500D03*
X183000Y85500D03*
Y88000D03*
X183500Y96000D03*
X184500Y134500D03*
X191000Y23500D03*
X193000Y86000D03*
Y88000D03*
X190000Y96000D03*
X188000Y112500D03*
X192500Y139000D03*
Y135500D03*
X188000Y145500D03*
X197000Y2000D03*
X195000Y27000D03*
Y33500D03*
Y39500D03*
X197500Y45500D03*
X195000Y49079D03*
Y63500D03*
X197000Y86000D03*
Y88000D03*
Y96000D03*
X198000Y111500D03*
Y116500D03*
X196018Y135482D03*
X204500Y2000D03*
X206000Y32000D03*
X203500Y66000D03*
X201000Y86000D03*
Y88000D03*
X202500Y96000D03*
X204500Y111500D03*
Y116500D03*
X209500Y67000D03*
X210000Y83000D03*
X208000Y95500D03*
X209500Y169500D03*
X217000Y22500D03*
Y86500D03*
X220500Y96000D03*
X215000D03*
X216148Y118144D03*
Y126644D03*
Y136644D03*
Y146644D03*
X216500Y159000D03*
X221000Y30000D03*
X226500Y47000D03*
Y45000D03*
Y43000D03*
X225028Y51952D03*
X225000Y54452D03*
X224500Y86500D03*
X226148Y118144D03*
Y126644D03*
Y136644D03*
Y146644D03*
X225500Y159000D03*
X231000Y30100D03*
X233000Y99000D03*
X230500D03*
Y110500D03*
X231500Y113000D03*
X233500Y115000D03*
X232000Y159000D03*
X231500Y167500D03*
X236500Y30000D03*
X240500Y99000D03*
X238000D03*
X235500D03*
X238500Y116000D03*
X236000D03*
X236148Y126644D03*
Y136644D03*
Y146644D03*
X236000Y169500D03*
X247000Y4000D03*
X245500Y33500D03*
Y30000D03*
Y37000D03*
X241000Y66500D03*
Y64000D03*
Y61500D03*
X246500Y71000D03*
Y74500D03*
Y78000D03*
X243000Y99000D03*
X242500Y102500D03*
Y105000D03*
Y108000D03*
X246000Y116000D03*
X241000D03*
X243500D03*
X244648Y126644D03*
Y136644D03*
Y146644D03*
X244500Y157500D03*
X253500Y33500D03*
X249500D03*
Y30000D03*
X253500D03*
Y37000D03*
X249500D03*
X253000Y67000D03*
X248500Y61500D03*
Y64000D03*
Y66500D03*
X253000Y74500D03*
Y83500D03*
X248500Y116500D03*
Y119000D03*
Y124000D03*
Y126500D03*
Y121500D03*
Y134000D03*
Y131500D03*
Y129000D03*
Y139000D03*
Y136500D03*
Y144000D03*
Y146500D03*
Y141500D03*
Y149000D03*
Y151500D03*
Y154000D03*
Y156500D03*
X253500Y166000D03*
X254500Y4000D03*
X258500Y12500D03*
X257500Y73000D03*
X260500Y83500D03*
Y97000D03*
Y101000D03*
X258000D03*
X266000Y12500D03*
X267000Y31500D03*
Y39000D03*
Y46500D03*
Y54000D03*
Y61000D03*
Y68500D03*
X265500Y83500D03*
Y101000D03*
X263000D03*
X268000Y97000D03*
Y101000D03*
X269500Y169500D03*
G54D20*
X178701Y29000D03*
X179201Y75500D03*
X191299Y29000D03*
X191799Y75500D03*
G54D21*
X224000Y6500D03*
X233500Y90000D03*
X243500D03*
X253500D03*
G54D12*
X32402Y5839D03*
Y23555D03*
X57598Y5445D03*
Y23555D03*
X135398Y5500D03*
Y23217D03*
X160594Y5106D03*
Y23217D03*
X238402Y5839D03*
Y23555D03*
X263598Y5445D03*
Y23555D03*
G54D13*
X50441Y93500D03*
X55559D03*
X71941Y75000D03*
Y81000D03*
X74059Y93500D03*
X68941D03*
X74059Y98500D03*
X68941D03*
X77059Y75000D03*
Y81000D03*
X112941Y61000D03*
Y79000D03*
X118059Y61000D03*
Y79000D03*
X140441Y72000D03*
X144441Y43000D03*
X145559Y72000D03*
X143441Y134000D03*
X148559D03*
Y140000D03*
X143441D03*
X149559Y43000D03*
X154941Y57000D03*
X152441Y72000D03*
X161559Y43000D03*
X156441D03*
X161559Y49000D03*
X156441D03*
X160059Y57000D03*
X157559Y72000D03*
X156441Y134000D03*
X161559D03*
Y140000D03*
X156441D03*
X161559Y151000D03*
X156441D03*
Y157000D03*
X161559D03*
X166441Y110000D03*
Y116000D03*
Y122000D03*
X168441Y157000D03*
X172941Y42500D03*
Y48500D03*
X171559Y110000D03*
Y116000D03*
Y122000D03*
X173559Y157000D03*
X178059Y42500D03*
Y48500D03*
X185441Y36500D03*
Y48500D03*
Y42500D03*
X184941Y56000D03*
Y62000D03*
Y68000D03*
X190559Y36500D03*
Y48500D03*
Y42500D03*
X190059Y56000D03*
Y62000D03*
Y68000D03*
X198941Y36500D03*
X198441Y70500D03*
Y76500D03*
X204059Y36500D03*
X203559Y70500D03*
Y76500D03*
X210941Y71000D03*
X216059D03*
X220441Y167500D03*
X225559D03*
X260441Y77500D03*
X265559D03*
G54D22*
X224000Y16500D03*
X263500Y90000D03*
G54D14*
X56500Y155500D03*
X62406D03*
X115555Y104319D03*
X121461Y155500D03*
X127366Y104319D03*
Y155500D03*
G54D23*
X232000Y37260D03*
Y44740D03*
Y55760D03*
Y63240D03*
G54D15*
X89772Y19425D03*
X92961Y165094D03*
X99772Y19425D03*
X102961Y165094D03*
X112961D03*
X122961D03*
X132961D03*
X142961D03*
X152961D03*
X162961D03*
X172961D03*
X182961D03*
X196307Y19425D03*
X192961Y165094D03*
X202961D03*
X206307Y19425D03*
G54D24*
X242000Y43488D03*
Y54512D03*
G54D25*
G01X57598Y23555D02*
X32402D01*
G01X100500Y83000D02*
X101500Y82000D01*
Y29500D01*
X98000Y26000D01*
X60043D01*
X57598Y23555D01*
G01X96000Y38000D02*
X94500Y39500D01*
Y63500D01*
X90500Y67500D01*
X66000D01*
X60000Y73500D01*
Y150000D01*
X56500Y153500D01*
Y155500D01*
G01X97000Y44500D02*
X96500Y45000D01*
Y64329D01*
X91329Y69500D01*
X66000D01*
X62000Y73500D01*
Y155094D01*
X62406Y155500D01*
G01X67500Y75500D02*
X71441D01*
X71941Y75000D01*
G01X67500Y80500D02*
X71441D01*
X71941Y81000D01*
G01X172000Y9059D02*
X168441D01*
X161000Y16500D01*
X131000D01*
X128000Y19500D01*
X107500D01*
X103000Y24000D01*
Y99000D01*
X108319Y104319D01*
X115555D01*
G01X135398Y23217D02*
X133181Y21000D01*
X108500D01*
X104500Y25000D01*
Y75500D01*
X107732Y78732D01*
X108000D01*
G01X263598Y23555D02*
X251543Y11500D01*
X218000D01*
X211500Y5000D01*
X188000D01*
X163500Y29500D01*
X133000D01*
X126500Y23000D01*
X109000D01*
X106000Y26000D01*
Y73000D01*
X108000Y75000D01*
G01X119500Y17500D02*
Y13559D01*
X115000Y9059D01*
G01X119173Y94500D02*
X120000D01*
X125000Y99500D01*
X128500D01*
X132500Y95500D01*
Y68500D01*
X135500Y65500D01*
X157500D01*
X161500Y69500D01*
Y75000D01*
X170500Y84000D01*
X176500D01*
G01X123000Y17500D02*
Y9059D01*
G01X177000Y54500D02*
X176500Y54000D01*
X133000D01*
X128000Y59000D01*
Y80500D01*
G01X130000Y78000D02*
Y67000D01*
X133000Y64000D01*
X158500D01*
X163000Y68500D01*
Y74000D01*
X168000Y79000D01*
X174000D01*
X176000Y77000D01*
Y70500D01*
X181000Y65500D01*
G01X135398Y23217D02*
X160594D01*
G01X225028Y51952D02*
X224048D01*
X223482Y52518D01*
X221453D01*
X220368Y51433D01*
Y36433D01*
X213368Y29433D01*
Y11933D01*
X209567Y8132D01*
X187565D01*
X158164Y37533D01*
X140467D01*
X138000Y40000D01*
Y47500D01*
X141000Y50500D01*
X150000D01*
X153000Y47500D01*
X154941D01*
X156441Y49000D01*
G01X150000Y43000D02*
X152000Y45000D01*
Y46565D01*
X149565Y49000D01*
X141435D01*
X139368Y46933D01*
Y40567D01*
X141034Y38901D01*
X158731D01*
X188131Y9500D01*
X209000D01*
X212000Y12500D01*
Y30000D01*
X219000Y37000D01*
Y52000D01*
X221452Y54452D01*
X225000D01*
G01X145500Y76000D02*
X151500Y82000D01*
X161500D01*
X168500Y89000D01*
Y99500D01*
X162310Y105690D01*
Y124457D01*
X182961Y145107D01*
Y165094D01*
G01X145500Y84000D02*
X161000D01*
X167000Y90000D01*
Y98500D01*
X160500Y105000D01*
Y124500D01*
X179000Y143000D01*
Y159055D01*
X172961Y165094D01*
G01X142000Y84000D02*
X144000Y86000D01*
X161000D01*
X165500Y90500D01*
Y96000D01*
X158500Y103000D01*
Y131500D01*
X156441Y133559D01*
Y134000D01*
G01X149559Y43000D02*
X150000D01*
G01X156441D02*
X150000D01*
G01X173500Y95500D02*
Y92000D01*
X159000Y77500D01*
X152000D01*
G01X160500Y88500D02*
X160000Y88000D01*
G01X163500Y92500D02*
Y90500D01*
X161500Y88500D01*
X160500D01*
G01X171000Y93000D02*
Y105000D01*
X166441Y109559D01*
Y110000D01*
G01X172000Y18000D02*
Y9059D01*
G01X202961Y165094D02*
Y135461D01*
X200500Y133000D01*
X195000D01*
X192500Y135500D01*
G01X196018Y135482D02*
X195961Y135539D01*
Y162094D01*
X192961Y165094D01*
G01X195000Y49079D02*
X197500Y51579D01*
Y65000D01*
X195000Y67500D01*
Y80000D01*
X197500Y82500D01*
X205000D01*
X208000Y85500D01*
Y95500D01*
G54D16*
X83000Y48000D03*
X86000D03*
X83000Y45000D03*
X86000D03*
X204500Y51000D03*
X207500D03*
X204500Y54000D03*
X207500D03*
Y57000D03*
X204500D03*
X210500Y51000D03*
Y54000D03*
Y57000D03*
G54D26*
G01X165588Y39000D02*
X166500Y39912D01*
Y44850D01*
X166000Y45350D01*
X164915D01*
X164415Y44850D01*
Y43500D01*
X163915Y43000D01*
X161559D01*
G01X169111Y39000D02*
X167800Y40311D01*
Y45389D01*
X166539Y46650D01*
X164915D01*
X164415Y47150D01*
Y48500D01*
X163915Y49000D01*
X161559D01*
G54D17*
X115000Y3941D03*
Y9059D03*
X113000Y67441D03*
Y72559D03*
X113500Y87941D03*
Y93059D03*
X118000Y67441D03*
Y72559D03*
X123000Y3941D03*
Y9059D03*
X126500Y87941D03*
Y93059D03*
X129000Y30941D03*
Y36059D03*
X172000Y3941D03*
Y9059D03*
X188000Y151441D03*
Y156559D03*
G54D27*
G01X55500Y98500D02*
Y93559D01*
X55559Y93500D01*
G01X65000Y124500D02*
Y102500D01*
X68941Y98559D01*
Y98500D01*
G01Y93500D02*
Y98500D01*
G01X67500Y109500D02*
X72500D01*
X74059Y107941D01*
Y98500D01*
G01X67500Y114500D02*
X73000D01*
X78500Y109000D01*
Y95000D01*
X77000Y93500D01*
X74059D01*
G01X75500Y129000D02*
X84500D01*
X88000Y125500D01*
Y82500D01*
X90000Y80500D01*
X95000D01*
G01X75500Y137500D02*
X84000D01*
X90000Y131500D01*
Y85500D01*
X92500Y83000D01*
G01X93000Y38000D02*
Y61500D01*
X90000Y64500D01*
X84941D01*
G01X99000Y42000D02*
Y47500D01*
G01X110000Y4000D02*
X114941D01*
X115000Y3941D01*
G01X112941Y79000D02*
Y75370D01*
X113000Y75311D01*
Y72559D01*
G01X113268Y83232D02*
Y79327D01*
X112941Y79000D01*
G01X109000Y89500D02*
X111941D01*
X113500Y87941D01*
G01X115000Y52000D02*
X169441D01*
X169470Y51970D01*
G01X118000Y72559D02*
Y76346D01*
X118059Y76406D01*
Y79000D01*
G01D02*
Y81941D01*
X116500Y83500D01*
G01X128000Y4000D02*
X127941Y3941D01*
X123000D01*
G01Y109500D02*
Y101500D01*
G01X158500Y91000D02*
Y93500D01*
X131000Y121000D01*
Y159500D01*
X130000Y160500D01*
X127555D01*
X122961Y165094D01*
G01X161000Y91000D02*
Y94036D01*
X132961Y122075D01*
Y165094D01*
G01X137000Y121500D02*
X135000Y123500D01*
Y147000D01*
X139500Y151500D01*
X155941D01*
X156441Y151000D01*
G01X145500Y47000D02*
Y44059D01*
X144441Y43000D01*
G01X145559Y72000D02*
X152441D01*
G01X152000Y68000D02*
Y71559D01*
X152441Y72000D01*
G01X155500Y118000D02*
X151000D01*
G01X152500Y128000D02*
X150000D01*
X148559Y129441D01*
Y134000D01*
G01X165000Y56500D02*
X160559D01*
X160059Y57000D01*
G01X157559Y72000D02*
Y73559D01*
X176500Y92500D01*
Y96500D01*
X179000Y99000D01*
X222500D01*
X227500Y94000D01*
Y80000D01*
G01X167000Y4000D02*
X167059Y3941D01*
X172000D01*
G01X166441Y116000D02*
Y110000D01*
G01Y122000D02*
Y116000D01*
G01X161559Y134000D02*
X166500D01*
G01X161559Y140000D02*
Y134000D01*
G01X169470Y51970D02*
X172941Y48500D01*
G01X168500Y76665D02*
X171835D01*
X174000Y74500D01*
Y69000D01*
X181000Y62000D01*
Y59000D01*
G01X179000Y110000D02*
X171559D01*
G01X176000Y118000D02*
X174000D01*
X172000Y116000D01*
X171559D01*
G01X176000Y123000D02*
X172559D01*
X171559Y122000D01*
G01X175000Y26000D02*
X177000Y24000D01*
G01X178059Y48500D02*
X179000D01*
X182000Y45500D01*
Y33000D01*
X178701Y29701D01*
G01D02*
Y29000D01*
G01X176000Y39000D02*
Y40441D01*
X178059Y42500D01*
G01X179000Y110000D02*
Y103500D01*
X181500Y101000D01*
X224000D01*
X229500Y95500D01*
X258000D01*
X263500Y90000D01*
G01X176000Y129500D02*
X179000Y126500D01*
Y110000D01*
G01X191299Y29000D02*
X187000D01*
X185441Y30559D01*
Y36500D01*
G01Y42500D02*
Y36500D01*
G01X184941Y62000D02*
Y68000D01*
G01X191799Y75500D02*
X187000D01*
X184941Y73441D01*
Y68000D01*
G01X190559Y42500D02*
Y36500D01*
G01Y48500D02*
Y45500D01*
G01X197500D02*
X190559D01*
G01D02*
Y42500D01*
G01X190059Y56000D02*
Y62000D01*
G01D02*
Y68000D01*
G01X195000Y63500D02*
X191559D01*
X190059Y62000D01*
G01X220441Y167500D02*
Y133941D01*
X217500Y131000D01*
X188000D01*
G01X198441Y76500D02*
Y76941D01*
X201500Y80000D01*
X227500D01*
G01X206000Y32000D02*
Y34559D01*
X204059Y36500D01*
G01X203500Y66000D02*
X203559Y66059D01*
Y70500D01*
G01Y76500D02*
Y70500D01*
G01X209500Y67000D02*
Y69559D01*
X210941Y71000D01*
G01X217000Y22500D02*
X227000D01*
X234500Y15000D01*
X246000D01*
X260000Y29000D01*
Y70500D01*
X257500Y73000D01*
G01X231000Y30100D02*
X221100D01*
X221000Y30000D01*
G01X227500Y48000D02*
X226500Y47000D01*
G01X225559Y167500D02*
X231500D01*
G01X227500Y80000D02*
Y48000D01*
G01X236500Y30000D02*
Y52500D01*
G01X246500Y78000D02*
X259941D01*
X260441Y77500D01*
G01X265500Y83500D02*
Y80154D01*
X265559Y80094D01*
Y77500D01*
G54D18*
X134256Y109240D03*
G54D28*
G01X26370Y5839D02*
X32402D01*
G01D02*
Y11870D01*
G01Y5839D02*
X38433D01*
G01X51567Y5445D02*
X57598D01*
G01D02*
Y11476D01*
G01Y5445D02*
X63630D01*
G01X84321Y19425D02*
X89772D01*
G01Y13974D02*
Y19425D01*
G01X99772Y13974D02*
Y19425D01*
G01X135398Y5500D02*
Y11531D01*
G01Y5500D02*
X141429D01*
G01X152961Y159644D02*
Y165094D01*
G01D02*
Y170545D01*
G01X160594Y5106D02*
Y11138D01*
G01X154563Y5106D02*
X160594D01*
G01X190856Y19425D02*
X196307D01*
G01Y13974D02*
Y19425D01*
G01X206307Y13974D02*
Y19425D01*
G01D02*
Y24876D01*
G01X219150Y6500D02*
X224000D01*
G01Y1650D02*
Y6500D01*
G01D02*
X228850D01*
G01X232370Y5839D02*
X238402D01*
G01D02*
X244433D01*
G01X253500Y85150D02*
Y90000D01*
G01X248650D02*
X253500D01*
G01D02*
X258350D01*
G01X257567Y5445D02*
X263598D01*
G01D02*
Y11476D01*
G01Y5445D02*
X269630D01*
G54D19*
X145000Y118000D03*
X151000D03*
M02*
