G04 ================== begin FILE IDENTIFICATION RECORD ==================*
G04 Layout Name:  F:/Ñ¸À×ÏÂÔØ/39_CUITBIKE/v1.1/PCB_MSP430/CUITBIKE_V1.1_MSP430.brd*
G04 Film Name:    SilkScreen_Bottom*
G04 File Format:  Gerber RS274X*
G04 File Origin:  Cadence Allegro 16.6-2015-S060*
G04 Origin Date:  Fri Jan 08 17:34:13 2016*
G04 *
G04 Layer:  REF DES/SILKSCREEN_BOTTOM*
G04 Layer:  PACKAGE GEOMETRY/SILKSCREEN_BOTTOM*
G04 Layer:  BOARD GEOMETRY/SILKSCREEN_BOTTOM*
G04 *
G04 Offset:    (0.0000 0.0000)*
G04 Mirror:    No*
G04 Mode:      Positive*
G04 Rotation:  0*
G04 FullContactRelief:  No*
G04 UndefLineWidth:     0.1524*
G04 ================== end FILE IDENTIFICATION RECORD ====================*
%FSLAX25Y25*MOIN*%
%IR0*IPPOS*OFA0.00000B0.00000*MIA0B0*SFA1.00000B1.00000*%
%ADD10C,.008*%
%ADD11C,.005*%
%ADD12C,.01*%
%ADD13C,.007*%
G75*
%LPD*%
G75*
G36*
G01X47500Y155500D02*
Y104500D01*
X134000D01*
Y155500D01*
X47500D01*
G37*
G54D10*
G01X142400Y120500D02*
G03Y115500I2887J-2500D01*
G01X153500D02*
X142500D01*
G01Y120500D02*
X153500D01*
G01D02*
G02Y115500I-2821J-2500D01*
G54D11*
G01X31300Y42800D02*
Y43200D01*
G01X31200Y42700D02*
Y46700D01*
G01X31100Y42600D02*
Y46700D01*
G01X31000Y42500D02*
Y46600D01*
G01X30900Y42500D02*
Y43600D01*
G01Y44200D02*
Y46500D01*
G01X30800Y42500D02*
Y43000D01*
G01Y45200D02*
Y46500D01*
G01X30700Y42500D02*
Y42700D01*
G01Y45800D02*
Y46400D01*
G01X30600Y46100D02*
Y46200D01*
G01X32400Y48200D02*
Y48500D01*
G01X32300Y48200D02*
Y48600D01*
G01X32200Y48200D02*
Y48600D01*
G01X32100Y48100D02*
Y48500D01*
G01Y49200D02*
Y49700D01*
G01Y50000D02*
Y51400D01*
G01X32000Y48100D02*
Y48500D01*
G01Y49100D02*
Y51700D01*
G01Y53300D02*
Y56300D01*
G01X31900Y47500D02*
Y51700D01*
G01Y53200D02*
Y56300D01*
G01X31800Y47500D02*
Y49400D01*
G01Y49800D02*
Y50200D01*
G01Y50400D02*
Y50800D01*
G01Y50900D02*
Y51600D01*
G01Y53200D02*
Y53800D01*
G01X31700Y47500D02*
Y49000D01*
G01Y49800D02*
Y50100D01*
G01Y50400D02*
Y50700D01*
G01Y51300D02*
Y51400D01*
G01X31600Y47500D02*
Y47600D01*
G01Y47900D02*
Y48300D01*
G01Y49800D02*
Y50100D01*
G01Y50400D02*
Y50700D01*
G01X31500Y47900D02*
Y48200D01*
G01Y48400D02*
Y48600D01*
G01Y49200D02*
Y49300D01*
G01Y49800D02*
Y50200D01*
G01Y50400D02*
Y50800D01*
G01Y51100D02*
Y51200D01*
G01X31400Y47800D02*
Y48200D01*
G01Y48300D02*
Y48600D01*
G01Y49100D02*
Y51300D01*
G01X31300Y47800D02*
Y48100D01*
G01Y48300D02*
Y48600D01*
G01Y49100D02*
Y51400D01*
G01X31200Y47700D02*
Y48100D01*
G01Y48300D02*
Y48600D01*
G01Y49200D02*
Y49600D01*
G01Y49800D02*
Y51400D01*
G01X31100Y47700D02*
Y48700D01*
G01Y49200D02*
Y49500D01*
G01Y49800D02*
Y50100D01*
G01Y50400D02*
Y50700D01*
G01Y51000D02*
Y51400D01*
G01X31000Y47600D02*
Y49100D01*
G01Y49200D02*
Y49500D01*
G01Y49800D02*
Y50100D01*
G01Y50400D02*
Y50700D01*
G01Y51000D02*
Y51400D01*
G01X30900Y47600D02*
Y49100D01*
G01Y49200D02*
Y49500D01*
G01Y49800D02*
Y50100D01*
G01Y50400D02*
Y50700D01*
G01Y51000D02*
Y51400D01*
G01X30800Y47600D02*
Y47900D01*
G01Y48300D02*
Y48700D01*
G01Y49200D02*
Y49500D01*
G01Y49700D02*
Y50100D01*
G01Y50300D02*
Y50700D01*
G01Y51000D02*
Y51400D01*
G01X30700Y48300D02*
Y48600D01*
G01Y49200D02*
Y49500D01*
G01Y49700D02*
Y50800D01*
G01Y51000D02*
Y51400D01*
G01X30600Y48300D02*
Y48600D01*
G01Y49200D02*
Y49500D01*
G01Y49600D02*
Y49900D01*
G01Y50100D02*
Y50900D01*
G01Y51000D02*
Y51400D01*
G01Y52900D02*
Y53100D01*
G01X30500Y48200D02*
Y48800D01*
G01Y49200D02*
Y49800D01*
G01Y50200D02*
Y50500D01*
G01Y50700D02*
Y51400D01*
G01Y52800D02*
Y57000D01*
G01X30400Y47500D02*
Y49000D01*
G01Y49200D02*
Y49700D01*
G01Y50100D02*
Y50400D01*
G01Y50800D02*
Y51400D01*
G01Y52700D02*
Y57000D01*
G01X30300Y47400D02*
Y48800D01*
G01Y49200D02*
Y49500D01*
G01Y50000D02*
Y50400D01*
G01Y51000D02*
Y51400D01*
G01Y52600D02*
Y56900D01*
G01X30200Y47300D02*
Y47800D01*
G01Y48300D02*
Y48600D01*
G01Y49100D02*
Y49500D01*
G01Y50000D02*
Y50300D01*
G01Y51000D02*
Y51400D01*
G01Y52600D02*
Y53400D01*
G01Y53500D02*
Y53600D01*
G01X30100Y48300D02*
Y48600D01*
G01Y49100D02*
Y49400D01*
G01Y49900D02*
Y50100D01*
G01Y51000D02*
Y51400D01*
G01Y52600D02*
Y52900D01*
G01X30000Y48300D02*
Y48600D01*
G01Y49000D02*
Y49400D01*
G01Y51000D02*
Y51400D01*
G01X29900Y48300D02*
Y48600D01*
G01Y48900D02*
Y49400D01*
G01Y51000D02*
Y51400D01*
G01X29800Y48300D02*
Y48600D01*
G01Y48800D02*
Y49300D01*
G01Y51000D02*
Y51400D01*
G01X29700Y48300D02*
Y48600D01*
G01Y48800D02*
Y49100D01*
G01Y51000D02*
Y51400D01*
G01X29600Y48300D02*
Y48600D01*
G01Y51000D02*
Y51300D01*
G01X32400Y54600D02*
Y54900D01*
G01X32300Y54600D02*
Y55000D01*
G01X32200Y54500D02*
Y55000D01*
G01X32100Y54500D02*
Y55000D01*
G01X31800Y54300D02*
Y54800D01*
G01X31700Y54300D02*
Y54700D01*
G01X31600Y54200D02*
Y54500D01*
G01Y54600D02*
Y55000D01*
G01X31500Y54100D02*
Y54400D01*
G01Y54600D02*
Y55100D01*
G01X31400Y54000D02*
Y54300D01*
G01Y54600D02*
Y55100D01*
G01X31300Y53800D02*
Y54200D01*
G01Y54600D02*
Y55100D01*
G01X31200Y53700D02*
Y54100D01*
G01Y54600D02*
Y55100D01*
G01X31100Y53600D02*
Y54200D01*
G01Y54600D02*
Y55500D01*
G01X31000Y53600D02*
Y56100D01*
G01X30900Y53600D02*
Y56100D01*
G01X30800Y53700D02*
Y54100D01*
G01Y54600D02*
Y55100D01*
G01X30700Y54600D02*
Y55100D01*
G01X30600Y54600D02*
Y55100D01*
G01X30200Y54600D02*
Y55100D01*
G01Y55700D02*
Y56800D01*
G01X30100Y54600D02*
Y55100D01*
G01Y56200D02*
Y56700D01*
G01X30000Y54600D02*
Y55100D01*
G01X29900Y54600D02*
Y55100D01*
G01X29800Y54600D02*
Y55100D01*
G01X29700Y54600D02*
Y55100D01*
G01X29600Y54600D02*
Y55100D01*
G01X31300Y62300D02*
Y62700D01*
G01Y66900D02*
Y68100D01*
G01X31200Y62200D02*
Y66200D01*
G01Y66900D02*
Y67900D01*
G01X31100Y62100D02*
Y66200D01*
G01X31000Y62000D02*
Y66100D01*
G01X30900Y62000D02*
Y63100D01*
G01Y63800D02*
Y66000D01*
G01X30800Y62000D02*
Y62500D01*
G01Y64700D02*
Y66000D01*
G01X30700Y62000D02*
Y62300D01*
G01Y65300D02*
Y65900D01*
G01X32400Y68900D02*
Y69200D01*
G01X32300Y68800D02*
Y69300D01*
G01X32200Y68700D02*
Y69200D01*
G01X32100Y68500D02*
Y69200D01*
G01Y73000D02*
Y73300D01*
G01X32000Y68400D02*
Y69400D01*
G01Y73000D02*
Y73400D01*
G01X31900Y68300D02*
Y69700D01*
G01Y73000D02*
Y73400D01*
G01X31800Y68100D02*
Y68900D01*
G01Y69100D02*
Y70000D01*
G01Y73000D02*
Y73400D01*
G01X31700Y67900D02*
Y68800D01*
G01Y69300D02*
Y70300D01*
G01Y73000D02*
Y73400D01*
G01X31600Y67800D02*
Y68600D01*
G01Y69500D02*
Y70600D01*
G01Y73000D02*
Y73400D01*
G01X31500Y67500D02*
Y68400D01*
G01Y68800D02*
Y69200D01*
G01Y69700D02*
Y70900D01*
G01Y72300D02*
Y76300D01*
G01X31400Y67000D02*
Y68300D01*
G01Y68700D02*
Y69200D01*
G01Y69800D02*
Y71300D01*
G01Y72200D02*
Y76600D01*
G01X31300Y68700D02*
Y69300D01*
G01Y70000D02*
Y71300D01*
G01Y72200D02*
Y76600D01*
G01X31200Y68700D02*
Y69300D01*
G01Y70200D02*
Y71200D01*
G01Y72100D02*
Y73400D01*
G01X31100Y67100D02*
Y67700D01*
G01Y68700D02*
Y69200D01*
G01Y70300D02*
Y71200D01*
G01Y72200D02*
Y72400D01*
G01Y73000D02*
Y73400D01*
G01X31000Y67200D02*
Y67400D01*
G01Y68700D02*
Y69200D01*
G01Y70500D02*
Y71100D01*
G01Y73000D02*
Y73400D01*
G01X30900Y68700D02*
Y69200D01*
G01Y70600D02*
Y70900D01*
G01Y73000D02*
Y73400D01*
G01X30800Y68700D02*
Y69300D01*
G01Y73100D02*
Y73400D01*
G01X30700Y68700D02*
Y69300D01*
G01Y73100D02*
Y73400D01*
G01X30600Y68700D02*
Y69300D01*
G01Y73100D02*
Y73500D01*
G01X30500Y68800D02*
Y69300D01*
G01Y73100D02*
Y73500D01*
G01X30400Y68800D02*
Y69300D01*
G01Y73100D02*
Y73500D01*
G01X30300Y68800D02*
Y69300D01*
G01Y73100D02*
Y73500D01*
G01X30200Y68800D02*
Y69300D01*
G01Y73100D02*
Y73500D01*
G01X30100Y68800D02*
Y69300D01*
G01Y73100D02*
Y73600D01*
G01X30000Y68800D02*
Y69300D01*
G01Y73000D02*
Y75900D01*
G01X29900Y68800D02*
Y69300D01*
G01Y73000D02*
Y75900D01*
G01X29800Y68700D02*
Y69300D01*
G01Y73000D02*
Y75900D01*
G01X29700Y68700D02*
Y69300D01*
G01Y73100D02*
Y73300D01*
G01X29600Y68700D02*
Y69200D01*
G01X29500Y68800D02*
Y69200D01*
G01X32400Y75000D02*
Y75100D01*
G01Y78200D02*
Y78500D01*
G01X32300Y73900D02*
Y74200D01*
G01Y74900D02*
Y75300D01*
G01Y78100D02*
Y79100D01*
G01Y79300D02*
Y79400D01*
G01Y79500D02*
Y80600D01*
G01X32200Y73900D02*
Y74300D01*
G01Y74800D02*
Y75300D01*
G01Y78100D02*
Y80600D01*
G01X32100Y73900D02*
Y74300D01*
G01Y74800D02*
Y75300D01*
G01Y78100D02*
Y78500D01*
G01Y79200D02*
Y79600D01*
G01Y80200D02*
Y80600D01*
G01X32000Y73900D02*
Y74300D01*
G01Y74900D02*
Y75300D01*
G01Y78100D02*
Y78500D01*
G01Y79200D02*
Y79600D01*
G01Y80200D02*
Y80600D01*
G01X31900Y73900D02*
Y74300D01*
G01Y74900D02*
Y75300D01*
G01Y78100D02*
Y78600D01*
G01Y79000D02*
Y79700D01*
G01Y80100D02*
Y80600D01*
G01X31800Y73900D02*
Y74300D01*
G01Y74900D02*
Y75300D01*
G01Y78100D02*
Y80600D01*
G01X31700Y73900D02*
Y74300D01*
G01Y74900D02*
Y75300D01*
G01Y78200D02*
Y80600D01*
G01X31600Y73900D02*
Y74300D01*
G01Y74900D02*
Y75300D01*
G01Y78200D02*
Y78600D01*
G01Y79200D02*
Y79600D01*
G01Y80200D02*
Y80600D01*
G01X31500Y78200D02*
Y78600D01*
G01Y79200D02*
Y79600D01*
G01Y80200D02*
Y80500D01*
G01X31400Y78200D02*
Y80500D01*
G01X31300Y78200D02*
Y80500D01*
G01X31200Y73900D02*
Y74300D01*
G01Y74800D02*
Y76500D01*
G01Y78300D02*
Y78700D01*
G01Y78900D02*
Y79900D01*
G01Y80100D02*
Y80500D01*
G01X31100Y73900D02*
Y74300D01*
G01Y74900D02*
Y75300D01*
G01Y75700D02*
Y76400D01*
G01Y78800D02*
Y79300D01*
G01Y79600D02*
Y80100D01*
G01X31000Y73900D02*
Y74300D01*
G01Y74900D02*
Y75300D01*
G01Y76000D02*
Y76200D01*
G01Y78600D02*
Y79200D01*
G01Y79700D02*
Y80400D01*
G01X30900Y73900D02*
Y74300D01*
G01Y74900D02*
Y75300D01*
G01Y78400D02*
Y79000D01*
G01Y80000D02*
Y80600D01*
G01X30800Y73900D02*
Y74300D01*
G01Y74800D02*
Y75300D01*
G01Y78000D02*
Y78900D01*
G01Y80100D02*
Y81000D01*
G01X30700Y73900D02*
Y74500D01*
G01Y74600D02*
Y75300D01*
G01Y77300D02*
Y79100D01*
G01Y79800D02*
Y80100D01*
G01X30600Y74000D02*
Y75300D01*
G01Y77200D02*
Y78500D01*
G01Y78800D02*
Y79100D01*
G01Y79700D02*
Y80200D01*
G01X30500Y74000D02*
Y75300D01*
G01Y77200D02*
Y78300D01*
G01Y78700D02*
Y79200D01*
G01Y79700D02*
Y80200D01*
G01X30400Y74000D02*
Y74300D01*
G01Y74900D02*
Y75200D01*
G01Y77300D02*
Y78000D01*
G01Y78700D02*
Y79100D01*
G01Y79700D02*
Y80200D01*
G01X30300Y78700D02*
Y79100D01*
G01Y79700D02*
Y80200D01*
G01X30200Y78700D02*
Y79100D01*
G01Y79800D02*
Y80200D01*
G01X30100Y78600D02*
Y79100D01*
G01Y79800D02*
Y80100D01*
G01X30000Y78500D02*
Y79000D01*
G01Y79700D02*
Y80200D01*
G01X29900Y78400D02*
Y79000D01*
G01Y79700D02*
Y80200D01*
G01X29800Y77900D02*
Y78900D01*
G01Y79700D02*
Y80200D01*
G01X29700Y73900D02*
Y75700D01*
G01Y77900D02*
Y78700D01*
G01Y79700D02*
Y80200D01*
G01X29600Y78200D02*
Y78400D01*
G01Y79700D02*
Y80200D01*
G01X29500Y79800D02*
Y80100D01*
G01X30700Y80300D02*
Y81400D01*
G01X30600Y80500D02*
Y81600D01*
G01X30500Y80600D02*
Y81600D01*
G01X30400Y80800D02*
Y81600D01*
G01X30300Y80900D02*
Y81500D01*
G01X30200Y81100D02*
Y81400D01*
G01X40200Y29800D02*
Y30500D01*
G01Y31300D02*
Y32500D01*
G01Y32900D02*
Y33400D01*
G01Y33500D02*
Y34300D01*
G01X40100Y29800D02*
Y30400D01*
G01Y31200D02*
Y32600D01*
G01Y32900D02*
Y34300D01*
G01X40000Y29800D02*
Y30400D01*
G01Y31000D02*
Y32600D01*
G01Y32900D02*
Y34200D01*
G01X39900Y29800D02*
Y30500D01*
G01Y30900D02*
Y32600D01*
G01Y33000D02*
Y34100D01*
G01X39800Y29800D02*
Y30500D01*
G01Y30800D02*
Y32600D01*
G01Y33000D02*
Y34100D01*
G01X39700Y29800D02*
Y32600D01*
G01Y33100D02*
Y34000D01*
G01X39600Y29800D02*
Y32600D01*
G01Y33100D02*
Y34000D01*
G01X39500Y29700D02*
Y32600D01*
G01Y33100D02*
Y33900D01*
G01X39400Y29700D02*
Y31600D01*
G01Y31800D02*
Y32500D01*
G01Y33100D02*
Y33800D01*
G01X39300Y29700D02*
Y29900D01*
G01Y30000D02*
Y31500D01*
G01Y31800D02*
Y32500D01*
G01Y33000D02*
Y33800D01*
G01X39200Y29600D02*
Y29900D01*
G01Y30000D02*
Y30800D01*
G01Y31000D02*
Y31400D01*
G01Y31700D02*
Y32500D01*
G01Y33000D02*
Y33800D01*
G01X39100Y29600D02*
Y29900D01*
G01Y30000D02*
Y30600D01*
G01Y30700D02*
Y30900D01*
G01Y31700D02*
Y32400D01*
G01Y32900D02*
Y33900D01*
G01X39000Y29600D02*
Y29900D01*
G01Y30000D02*
Y30600D01*
G01Y30700D02*
Y31000D01*
G01Y31700D02*
Y32400D01*
G01Y32800D02*
Y33900D01*
G01X38900Y29600D02*
Y29900D01*
G01Y30000D02*
Y30600D01*
G01Y30700D02*
Y31000D01*
G01Y31700D02*
Y32400D01*
G01Y32700D02*
Y34000D01*
G01X38800Y29600D02*
Y29900D01*
G01Y30000D02*
Y30600D01*
G01Y30800D02*
Y31100D01*
G01Y31700D02*
Y32400D01*
G01Y32700D02*
Y34000D01*
G01X38700Y29600D02*
Y29900D01*
G01Y30000D02*
Y30600D01*
G01Y30800D02*
Y31300D01*
G01Y31600D02*
Y32300D01*
G01Y32500D02*
Y33400D01*
G01Y33500D02*
Y34100D01*
G01X38600Y29500D02*
Y29900D01*
G01Y30000D02*
Y30600D01*
G01Y30900D02*
Y31400D01*
G01Y31600D02*
Y33200D01*
G01X38500Y29500D02*
Y29900D01*
G01Y30000D02*
Y30600D01*
G01Y30900D02*
Y33100D01*
G01X38400Y29600D02*
Y30600D01*
G01Y31000D02*
Y32600D01*
G01X38300Y29600D02*
Y30600D01*
G01Y31000D02*
Y32200D01*
G01X38200Y29600D02*
Y30600D01*
G01Y31100D02*
Y32200D01*
G01X38100Y29600D02*
Y30600D01*
G01Y31100D02*
Y32100D01*
G01X38000Y29600D02*
Y30500D01*
G01Y31200D02*
Y32100D01*
G01X37900Y29700D02*
Y30500D01*
G01Y31200D02*
Y32000D01*
G01X37800Y29700D02*
Y30500D01*
G01Y31200D02*
Y31900D01*
G01X37700Y29700D02*
Y30500D01*
G01Y31300D02*
Y31900D01*
G01X37600Y29700D02*
Y30400D01*
G01Y31400D02*
Y31800D01*
G01X37500Y29700D02*
Y30300D01*
G01Y31400D02*
Y31700D01*
G01X37400Y29800D02*
Y30200D01*
G01X37300Y29800D02*
Y30100D01*
G01X37200Y29900D02*
Y30100D01*
G01X40200Y38600D02*
Y39600D01*
G01Y40000D02*
Y40600D01*
G01X40100Y38600D02*
Y39500D01*
G01Y40000D02*
Y40600D01*
G01X40000Y38600D02*
Y39400D01*
G01Y40000D02*
Y40600D01*
G01X39900Y38600D02*
Y39300D01*
G01Y40000D02*
Y40600D01*
G01X39800Y38700D02*
Y39300D01*
G01Y40000D02*
Y40600D01*
G01X39700Y38700D02*
Y39100D01*
G01Y40000D02*
Y40600D01*
G01X39600Y38700D02*
Y39000D01*
G01Y40000D02*
Y40600D01*
G01X39500Y40000D02*
Y40600D01*
G01X39400Y40000D02*
Y40600D01*
G01X39300Y40000D02*
Y40600D01*
G01X39200Y40000D02*
Y40600D01*
G01X39100Y40000D02*
Y40600D01*
G01X39000Y40000D02*
Y40600D01*
G01X38900Y40000D02*
Y40600D01*
G01X38800Y40000D02*
Y40600D01*
G01X38700Y40000D02*
Y40600D01*
G01X38600Y33600D02*
Y34100D01*
G01Y40000D02*
Y40600D01*
G01X38500Y33600D02*
Y34200D01*
G01Y40000D02*
Y40600D01*
G01X38400Y33600D02*
Y34200D01*
G01Y39900D02*
Y40600D01*
G01X38300Y33700D02*
Y34300D01*
G01Y39900D02*
Y40600D01*
G01X38200Y33700D02*
Y34400D01*
G01Y39900D02*
Y40600D01*
G01X38100Y33800D02*
Y34400D01*
G01Y39900D02*
Y40600D01*
G01X38000Y33800D02*
Y34500D01*
G01Y39900D02*
Y40600D01*
G01X37900Y33900D02*
Y34500D01*
G01Y35500D02*
Y35700D01*
G01Y39900D02*
Y40600D01*
G01X37800Y33900D02*
Y34600D01*
G01Y35500D02*
Y35700D01*
G01Y39900D02*
Y40500D01*
G01X37700Y34000D02*
Y34700D01*
G01Y35500D02*
Y35700D01*
G01Y39800D02*
Y40500D01*
G01X37600Y34100D02*
Y34700D01*
G01Y35500D02*
Y35700D01*
G01Y39800D02*
Y40500D01*
G01X37500Y34100D02*
Y34800D01*
G01Y35500D02*
Y35700D01*
G01Y39800D02*
Y40500D01*
G01X37400Y34200D02*
Y34900D01*
G01Y35400D02*
Y35700D01*
G01Y39800D02*
Y40500D01*
G01X37300Y34200D02*
Y34900D01*
G01Y35400D02*
Y35700D01*
G01Y39800D02*
Y40500D01*
G01X37200Y34300D02*
Y35000D01*
G01Y35400D02*
Y35700D01*
G01Y39800D02*
Y40500D01*
G01X37100Y34400D02*
Y35100D01*
G01Y35300D02*
Y35700D01*
G01Y39800D02*
Y40500D01*
G01X37000Y34400D02*
Y35800D01*
G01Y39900D02*
Y40500D01*
G01X36900Y34500D02*
Y35800D01*
G01Y39900D02*
Y40500D01*
G01X36800Y34600D02*
Y35800D01*
G01Y40000D02*
Y40500D01*
G01X36700Y34700D02*
Y35800D01*
G01Y40000D02*
Y40500D01*
G01X36600Y34800D02*
Y35800D01*
G01Y40100D02*
Y40500D01*
G01X36500Y34800D02*
Y35800D01*
G01Y40100D02*
Y40400D01*
G01X36400Y34900D02*
Y35800D01*
G01Y40200D02*
Y40400D01*
G01X36300Y35000D02*
Y35800D01*
G01X36200Y35200D02*
Y35800D01*
G01X36100Y35300D02*
Y35800D01*
G01X36000Y35400D02*
Y35800D01*
G01X35900Y35600D02*
Y35800D01*
G01X40200Y42600D02*
Y43700D01*
G01X40100Y42900D02*
Y43600D01*
G01Y44100D02*
Y44600D01*
G01X40000Y42700D02*
Y43500D01*
G01Y43800D02*
Y44700D01*
G01X39900Y42500D02*
Y44800D01*
G01X39800Y42300D02*
Y44900D01*
G01X39700Y41900D02*
Y44900D01*
G01X39600Y41800D02*
Y44800D01*
G01X39500Y41700D02*
Y44700D01*
G01X39400Y41700D02*
Y44000D01*
G01X39300Y41700D02*
Y43400D01*
G01Y43600D02*
Y43800D01*
G01X39200Y41800D02*
Y43200D01*
G01X39100Y41900D02*
Y42900D01*
G01X39000Y42000D02*
Y42800D01*
G01Y43900D02*
Y44300D01*
G01X38900Y42200D02*
Y42600D01*
G01Y43800D02*
Y44600D01*
G01X38800Y42200D02*
Y42400D01*
G01Y43400D02*
Y44700D01*
G01X38700Y42200D02*
Y42400D01*
G01Y43100D02*
Y44800D01*
G01X38600Y42100D02*
Y42400D01*
G01Y42800D02*
Y44900D01*
G01X38500Y42100D02*
Y44900D01*
G01X38400Y42100D02*
Y44900D01*
G01X38300Y42100D02*
Y45000D01*
G01X38200Y42100D02*
Y43800D01*
G01Y44000D02*
Y44900D01*
G01X38100Y42100D02*
Y43500D01*
G01Y44000D02*
Y44900D01*
G01X38000Y42100D02*
Y43300D01*
G01Y44000D02*
Y44800D01*
G01X37900Y42200D02*
Y42900D01*
G01Y44000D02*
Y44800D01*
G01X37800Y42200D02*
Y42900D01*
G01Y44000D02*
Y44800D01*
G01X37700Y42200D02*
Y42900D01*
G01Y43900D02*
Y44700D01*
G01X37600Y42200D02*
Y42900D01*
G01Y43800D02*
Y44700D01*
G01X37500Y42300D02*
Y42900D01*
G01Y43700D02*
Y44600D01*
G01X37400Y42300D02*
Y42900D01*
G01Y43600D02*
Y44600D01*
G01X37300Y42300D02*
Y44600D01*
G01X37200Y42300D02*
Y44600D01*
G01X37100Y42300D02*
Y44700D01*
G01X37000Y42400D02*
Y44800D01*
G01X36900Y42400D02*
Y44800D01*
G01X36800Y42400D02*
Y44700D01*
G01X36700Y42500D02*
Y43500D01*
G01Y44000D02*
Y44600D01*
G01X36600Y42500D02*
Y43200D01*
G01X36500Y42600D02*
Y43000D01*
G01X36400Y42700D02*
Y43000D01*
G01X40200Y50200D02*
Y52900D01*
G01X40100Y50200D02*
Y52800D01*
G01X40000Y50300D02*
Y51500D01*
G01Y51600D02*
Y52800D01*
G01X39900Y50400D02*
Y51300D01*
G01Y51500D02*
Y52700D01*
G01X39800Y50500D02*
Y51100D01*
G01Y51400D02*
Y52700D01*
G01X39700Y50700D02*
Y50800D01*
G01Y51300D02*
Y52700D01*
G01X39600Y51100D02*
Y52700D01*
G01X39500Y51000D02*
Y54600D01*
G01X39400Y50800D02*
Y54700D01*
G01X39300Y50600D02*
Y54800D01*
G01X39200Y50300D02*
Y54900D01*
G01X39100Y50000D02*
Y54900D01*
G01X39000Y49700D02*
Y55000D01*
G01X38900Y49400D02*
Y52600D01*
G01Y53300D02*
Y55000D01*
G01X38800Y49200D02*
Y51600D01*
G01Y51800D02*
Y52600D01*
G01X38700Y48700D02*
Y51100D01*
G01Y51900D02*
Y52600D01*
G01X38600Y48600D02*
Y50800D01*
G01Y51800D02*
Y52600D01*
G01X38500Y48600D02*
Y50500D01*
G01Y51800D02*
Y52600D01*
G01X38400Y48600D02*
Y50300D01*
G01Y51800D02*
Y52600D01*
G01X38300Y48600D02*
Y50100D01*
G01Y51800D02*
Y52600D01*
G01X38200Y48700D02*
Y49800D01*
G01Y51800D02*
Y52600D01*
G01X38100Y48700D02*
Y49700D01*
G01Y51800D02*
Y52600D01*
G01X38000Y48900D02*
Y49500D01*
G01Y51800D02*
Y52600D01*
G01X37900Y49200D02*
Y49300D01*
G01Y51800D02*
Y52600D01*
G01X37800Y51800D02*
Y52600D01*
G01X37700Y51800D02*
Y52600D01*
G01X37600Y51800D02*
Y52500D01*
G01X37500Y51800D02*
Y52500D01*
G01X37400Y51800D02*
Y52500D01*
G01X37300Y51800D02*
Y52500D01*
G01X37200Y51800D02*
Y52500D01*
G01X37100Y51800D02*
Y52500D01*
G01X37000Y51800D02*
Y52500D01*
G01X36900Y51800D02*
Y52500D01*
G01X36800Y51900D02*
Y52400D01*
G01X36700Y51900D02*
Y52400D01*
G01X36600Y51900D02*
Y52400D01*
G01X36500Y51900D02*
Y52400D01*
G01X36400Y51900D02*
Y52400D01*
G01X36300Y51900D02*
Y52300D01*
G01X36200Y51900D02*
Y52300D01*
G01X36100Y51900D02*
Y52300D01*
G01X36000Y52000D02*
Y52300D01*
G01X35900Y52000D02*
Y52200D01*
G01X35800Y52000D02*
Y52200D01*
G01X35700Y52000D02*
Y52200D01*
G01X40200Y57900D02*
Y59900D01*
G01X40100Y57900D02*
Y59900D01*
G01X40000Y57900D02*
Y59900D01*
G01X39900Y57900D02*
Y59800D01*
G01X39800Y57900D02*
Y59800D01*
G01X39700Y57900D02*
Y58500D01*
G01Y58700D02*
Y59800D01*
G01X39600Y57900D02*
Y58500D01*
G01Y58800D02*
Y59800D01*
G01X39500Y57900D02*
Y58500D01*
G01Y58900D02*
Y59700D01*
G01Y60200D02*
Y61100D01*
G01X39400Y57900D02*
Y58500D01*
G01Y58900D02*
Y59600D01*
G01Y60200D02*
Y61100D01*
G01X39300Y57900D02*
Y58500D01*
G01Y59000D02*
Y59600D01*
G01Y60100D02*
Y61000D01*
G01X39200Y57900D02*
Y58500D01*
G01Y59000D02*
Y59500D01*
G01Y60100D02*
Y61000D01*
G01X39100Y57900D02*
Y58500D01*
G01Y58900D02*
Y59400D01*
G01Y60000D02*
Y60900D01*
G01X39000Y57900D02*
Y58500D01*
G01Y58900D02*
Y59300D01*
G01Y60000D02*
Y60800D01*
G01X38900Y57900D02*
Y58500D01*
G01Y58800D02*
Y59200D01*
G01Y59900D02*
Y60700D01*
G01X38800Y53900D02*
Y55000D01*
G01Y57800D02*
Y58400D01*
G01Y58800D02*
Y59200D01*
G01Y59800D02*
Y60700D01*
G01X38700Y54200D02*
Y55000D01*
G01Y57800D02*
Y58400D01*
G01Y58700D02*
Y59100D01*
G01Y59700D02*
Y60600D01*
G01X38600Y54400D02*
Y55000D01*
G01Y57800D02*
Y58400D01*
G01Y58700D02*
Y59100D01*
G01Y59700D02*
Y60500D01*
G01X38500Y57900D02*
Y58400D01*
G01Y58600D02*
Y59000D01*
G01Y59600D02*
Y60300D01*
G01X38400Y57900D02*
Y58400D01*
G01Y58600D02*
Y59000D01*
G01Y59500D02*
Y60200D01*
G01X38300Y57900D02*
Y58400D01*
G01Y58500D02*
Y59000D01*
G01Y59300D02*
Y60000D01*
G01X38200Y57900D02*
Y58900D01*
G01Y59200D02*
Y59900D01*
G01X38100Y57900D02*
Y58900D01*
G01Y59200D02*
Y59700D01*
G01X38000Y57900D02*
Y58900D01*
G01X37900Y57900D02*
Y58900D01*
G01X37800Y57900D02*
Y58900D01*
G01X37700Y57900D02*
Y58900D01*
G01X37600Y57900D02*
Y58800D01*
G01X37500Y57900D02*
Y58800D01*
G01X37400Y57900D02*
Y58800D01*
G01X37300Y58000D02*
Y58800D01*
G01X37200Y58000D02*
Y58800D01*
G01X37100Y58000D02*
Y58800D01*
G01X37000Y58100D02*
Y58800D01*
G01X36900Y58100D02*
Y58800D01*
G01X36800Y58200D02*
Y58800D01*
G01X36700Y58300D02*
Y58800D01*
G01X36600Y58300D02*
Y58800D01*
G01X36500Y58400D02*
Y58800D01*
G01X36400Y58600D02*
Y58800D01*
G01X40200Y60600D02*
Y62700D01*
G01X40100Y60600D02*
Y62800D01*
G01X40000Y60500D02*
Y63000D01*
G01X39900Y60500D02*
Y63100D01*
G01X39800Y60400D02*
Y61300D01*
G01Y62000D02*
Y63200D01*
G01X39700Y60400D02*
Y61200D01*
G01Y62200D02*
Y63400D01*
G01X39600Y60300D02*
Y61200D01*
G01Y62400D02*
Y63500D01*
G01X39500Y62500D02*
Y63600D01*
G01X39400Y62500D02*
Y63800D01*
G01X39300Y62600D02*
Y63900D01*
G01X39200Y62700D02*
Y64100D01*
G01X39100Y62800D02*
Y64300D01*
G01X39000Y62800D02*
Y64500D01*
G01X38900Y62900D02*
Y64700D01*
G01X38800Y63000D02*
Y64900D01*
G01X38700Y63100D02*
Y65100D01*
G01X38600Y63200D02*
Y65400D01*
G01X38500Y63300D02*
Y65700D01*
G01X38400Y63300D02*
Y65800D01*
G01X38300Y63400D02*
Y65900D01*
G01X38200Y63500D02*
Y66000D01*
G01X38100Y63600D02*
Y66000D01*
G01X38000Y63700D02*
Y66100D01*
G01X37900Y63800D02*
Y66000D01*
G01X37800Y63900D02*
Y66000D01*
G01X37700Y64000D02*
Y65800D01*
G01X37600Y64200D02*
Y65400D01*
G01X37500Y64300D02*
Y64500D01*
G01X40200Y68500D02*
Y69100D01*
G01Y70200D02*
Y71900D01*
G01Y73000D02*
Y73700D01*
G01X40100Y68400D02*
Y69000D01*
G01Y70000D02*
Y72000D01*
G01Y73000D02*
Y73700D01*
G01X40000Y68400D02*
Y69000D01*
G01Y70000D02*
Y72100D01*
G01Y73000D02*
Y73700D01*
G01X39900Y68300D02*
Y69000D01*
G01Y69900D02*
Y72200D01*
G01Y73000D02*
Y73700D01*
G01X39800Y68300D02*
Y68900D01*
G01Y69900D02*
Y70800D01*
G01Y71300D02*
Y72200D01*
G01Y73000D02*
Y73700D01*
G01X39700Y68300D02*
Y68900D01*
G01Y69800D02*
Y70600D01*
G01Y71400D02*
Y72300D01*
G01Y73000D02*
Y73700D01*
G01X39600Y68200D02*
Y68900D01*
G01Y69800D02*
Y70600D01*
G01Y71500D02*
Y72100D01*
G01Y73000D02*
Y73700D01*
G01X39500Y68200D02*
Y68800D01*
G01Y69700D02*
Y70500D01*
G01Y73000D02*
Y73700D01*
G01X39400Y68200D02*
Y68800D01*
G01Y69700D02*
Y70500D01*
G01Y73000D02*
Y73700D01*
G01X39300Y68100D02*
Y68800D01*
G01Y69700D02*
Y70500D01*
G01Y73000D02*
Y73700D01*
G01X39200Y68100D02*
Y68800D01*
G01Y69700D02*
Y70500D01*
G01Y73000D02*
Y73700D01*
G01X39100Y68100D02*
Y68800D01*
G01Y69700D02*
Y70500D01*
G01Y73000D02*
Y73700D01*
G01X39000Y68100D02*
Y68800D01*
G01Y69700D02*
Y70500D01*
G01Y73000D02*
Y73700D01*
G01X38900Y68100D02*
Y68800D01*
G01Y69700D02*
Y70500D01*
G01Y71500D02*
Y71700D01*
G01Y73000D02*
Y73700D01*
G01X38800Y68100D02*
Y68800D01*
G01Y69700D02*
Y70500D01*
G01Y71500D02*
Y71900D01*
G01Y73000D02*
Y73700D01*
G01X38700Y68100D02*
Y68800D01*
G01Y69700D02*
Y70500D01*
G01Y71500D02*
Y72300D01*
G01Y73000D02*
Y73700D01*
G01X38600Y68100D02*
Y68800D01*
G01Y69800D02*
Y70600D01*
G01Y71400D02*
Y72300D01*
G01Y73000D02*
Y73800D01*
G01X38500Y68100D02*
Y68800D01*
G01Y69800D02*
Y70600D01*
G01Y71300D02*
Y72200D01*
G01Y73000D02*
Y73800D01*
G01X38400Y68100D02*
Y68800D01*
G01Y69900D02*
Y70800D01*
G01Y71200D02*
Y72200D01*
G01Y73000D02*
Y73900D01*
G01X38300Y68100D02*
Y68800D01*
G01Y69900D02*
Y72100D01*
G01Y73100D02*
Y75200D01*
G01X38200Y68100D02*
Y68800D01*
G01Y70000D02*
Y72100D01*
G01Y73100D02*
Y75200D01*
G01X38100Y68200D02*
Y68800D01*
G01Y70100D02*
Y72000D01*
G01Y73200D02*
Y75100D01*
G01X38000Y68200D02*
Y68800D01*
G01Y70200D02*
Y71900D01*
G01Y73300D02*
Y75000D01*
G01X37900Y68200D02*
Y68800D01*
G01Y70300D02*
Y71700D01*
G01Y73500D02*
Y74900D01*
G01X37800Y68300D02*
Y68900D01*
G01Y70700D02*
Y71500D01*
G01X37700Y68300D02*
Y68900D01*
G01X37600Y68300D02*
Y68900D01*
G01X37500Y68400D02*
Y69000D01*
G01X37400Y68400D02*
Y69000D01*
G01X37300Y68500D02*
Y69000D01*
G01X37200Y68500D02*
Y69100D01*
G01X37100Y68600D02*
Y69100D01*
G01X37000Y68900D02*
Y69000D01*
G01X40200Y74600D02*
Y75400D01*
G01Y76200D02*
Y77000D01*
G01Y77500D02*
Y80000D01*
G01X40100Y74600D02*
Y75400D01*
G01Y76200D02*
Y77000D01*
G01Y77500D02*
Y80000D01*
G01X40000Y74600D02*
Y75400D01*
G01Y76200D02*
Y77000D01*
G01Y77500D02*
Y80000D01*
G01X39900Y74600D02*
Y75400D01*
G01Y76200D02*
Y77000D01*
G01Y77600D02*
Y80000D01*
G01X39800Y74600D02*
Y75400D01*
G01Y76200D02*
Y77000D01*
G01Y78400D02*
Y79200D01*
G01X39700Y74600D02*
Y75400D01*
G01Y76200D02*
Y77000D01*
G01Y78400D02*
Y79200D01*
G01X39600Y74600D02*
Y75400D01*
G01Y76200D02*
Y77000D01*
G01Y78400D02*
Y79200D01*
G01X39500Y74600D02*
Y75400D01*
G01Y76200D02*
Y77000D01*
G01Y78400D02*
Y79200D01*
G01X39400Y74600D02*
Y75400D01*
G01Y76200D02*
Y77000D01*
G01Y78400D02*
Y79200D01*
G01X39300Y74600D02*
Y75400D01*
G01Y76200D02*
Y77000D01*
G01Y78400D02*
Y79200D01*
G01X39200Y74600D02*
Y75400D01*
G01Y76200D02*
Y77000D01*
G01Y78400D02*
Y79200D01*
G01X39100Y74600D02*
Y75400D01*
G01Y76200D02*
Y77000D01*
G01Y78400D02*
Y79200D01*
G01Y80200D02*
Y83900D01*
G01X39000Y74600D02*
Y75400D01*
G01Y76200D02*
Y77000D01*
G01Y78400D02*
Y79200D01*
G01Y80200D02*
Y80600D01*
G01X38900Y74600D02*
Y75400D01*
G01Y76200D02*
Y77000D01*
G01Y78400D02*
Y79200D01*
G01X38800Y74600D02*
Y75400D01*
G01Y76200D02*
Y77000D01*
G01Y78400D02*
Y79200D01*
G01X38700Y74600D02*
Y75400D01*
G01Y76200D02*
Y77000D01*
G01Y78400D02*
Y79200D01*
G01X38600Y74500D02*
Y75300D01*
G01Y76200D02*
Y77000D01*
G01Y78400D02*
Y79200D01*
G01X38500Y74500D02*
Y75300D01*
G01Y76200D02*
Y77000D01*
G01Y78400D02*
Y79200D01*
G01X38400Y74400D02*
Y75300D01*
G01Y76200D02*
Y77000D01*
G01Y78400D02*
Y79200D01*
G01X38300Y76200D02*
Y77000D01*
G01Y78400D02*
Y79200D01*
G01X38200Y76200D02*
Y77000D01*
G01Y78400D02*
Y79200D01*
G01X38100Y76200D02*
Y77000D01*
G01Y78400D02*
Y79200D01*
G01X38000Y76200D02*
Y77000D01*
G01Y78400D02*
Y79200D01*
G01X37900Y76200D02*
Y77000D01*
G01Y78400D02*
Y79200D01*
G01X37800Y73700D02*
Y74600D01*
G01Y76200D02*
Y77000D01*
G01Y78400D02*
Y79200D01*
G01X40200Y84100D02*
Y86300D01*
G01X40100Y84100D02*
Y86400D01*
G01X40000Y84100D02*
Y86400D01*
G01X39900Y84100D02*
Y86400D01*
G01X39800Y84100D02*
Y84900D01*
G01Y85600D02*
Y86400D01*
G01X39700Y84100D02*
Y84900D01*
G01Y85600D02*
Y86400D01*
G01X39600Y84100D02*
Y84900D01*
G01Y85700D02*
Y86400D01*
G01X39500Y84100D02*
Y84900D01*
G01Y85600D02*
Y86400D01*
G01X39400Y84100D02*
Y85000D01*
G01Y85200D02*
Y85300D01*
G01Y85500D02*
Y86300D01*
G01X39300Y84100D02*
Y86300D01*
G01X39200Y84100D02*
Y86100D01*
G01X39100Y84100D02*
Y86200D01*
G01X39000Y80700D02*
Y83300D01*
G01Y83500D02*
Y83700D01*
G01Y84100D02*
Y86300D01*
G01X38900Y84100D02*
Y86400D01*
G01X38800Y84100D02*
Y84900D01*
G01Y85600D02*
Y86500D01*
G01X38700Y84100D02*
Y84900D01*
G01Y85700D02*
Y86500D01*
G01X38600Y84100D02*
Y84900D01*
G01Y85800D02*
Y86500D01*
G01X38500Y84100D02*
Y84900D01*
G01Y85700D02*
Y86500D01*
G01X38400Y84100D02*
Y84900D01*
G01Y85600D02*
Y86500D01*
G01X38300Y84100D02*
Y86500D01*
G01X38200Y84100D02*
Y86500D01*
G01X38100Y84100D02*
Y86400D01*
G01X38000Y84100D02*
Y86300D01*
G01X37900Y84100D02*
Y86200D01*
G01X37800Y84100D02*
Y85900D01*
G01X40200Y87200D02*
Y88000D01*
G01Y88800D02*
Y89600D01*
G01Y90300D02*
Y91400D01*
G01Y92200D02*
Y94300D01*
G01X40100Y87200D02*
Y88000D01*
G01Y88800D02*
Y89600D01*
G01Y90200D02*
Y91300D01*
G01Y92200D02*
Y94300D01*
G01X40000Y87200D02*
Y88000D01*
G01Y88800D02*
Y89600D01*
G01Y90100D02*
Y91100D01*
G01Y92200D02*
Y94300D01*
G01X39900Y87200D02*
Y88000D01*
G01Y88800D02*
Y89600D01*
G01Y90000D02*
Y91000D01*
G01Y92200D02*
Y94300D01*
G01X39800Y87200D02*
Y88000D01*
G01Y88800D02*
Y89600D01*
G01Y89900D02*
Y91000D01*
G01Y92200D02*
Y92900D01*
G01X39700Y87200D02*
Y88000D01*
G01Y88800D02*
Y89600D01*
G01Y89800D02*
Y90800D01*
G01Y92200D02*
Y92900D01*
G01X39600Y87200D02*
Y88000D01*
G01Y88800D02*
Y89600D01*
G01Y89800D02*
Y90700D01*
G01Y92200D02*
Y92900D01*
G01X39500Y87200D02*
Y88000D01*
G01Y88800D02*
Y89600D01*
G01Y89700D02*
Y90600D01*
G01Y92200D02*
Y92900D01*
G01X39400Y87200D02*
Y88000D01*
G01Y88800D02*
Y90600D01*
G01Y92200D02*
Y93000D01*
G01Y93300D02*
Y93600D01*
G01X39300Y87200D02*
Y88000D01*
G01Y88800D02*
Y90600D01*
G01Y92200D02*
Y94200D01*
G01X39200Y87200D02*
Y88000D01*
G01Y88800D02*
Y90700D01*
G01Y92200D02*
Y94200D01*
G01X39100Y87200D02*
Y88000D01*
G01Y88800D02*
Y90700D01*
G01Y92200D02*
Y94200D01*
G01X39000Y87200D02*
Y88000D01*
G01Y88800D02*
Y90800D01*
G01Y92200D02*
Y94200D01*
G01X38900Y87200D02*
Y88000D01*
G01Y88800D02*
Y90000D01*
G01Y90100D02*
Y90900D01*
G01Y92200D02*
Y94200D01*
G01X38800Y87200D02*
Y88000D01*
G01Y88800D02*
Y89900D01*
G01Y90200D02*
Y90900D01*
G01Y92200D02*
Y93000D01*
G01X38700Y87200D02*
Y88000D01*
G01Y88800D02*
Y89800D01*
G01Y90200D02*
Y91000D01*
G01Y92200D02*
Y92900D01*
G01X38600Y87200D02*
Y88000D01*
G01Y88800D02*
Y89700D01*
G01Y90300D02*
Y91100D01*
G01Y92200D02*
Y92900D01*
G01X38500Y87200D02*
Y88000D01*
G01Y88800D02*
Y89600D01*
G01Y90300D02*
Y91100D01*
G01Y92200D02*
Y92900D01*
G01X38400Y87200D02*
Y88000D01*
G01Y88800D02*
Y89600D01*
G01Y90400D02*
Y91200D01*
G01Y92200D02*
Y93000D01*
G01X38300Y87200D02*
Y88000D01*
G01Y88800D02*
Y89600D01*
G01Y90500D02*
Y91300D01*
G01Y92200D02*
Y94300D01*
G01X38200Y87200D02*
Y88000D01*
G01Y88800D02*
Y89600D01*
G01Y90500D02*
Y91300D01*
G01Y92200D02*
Y94300D01*
G01X38100Y87200D02*
Y88000D01*
G01Y88800D02*
Y89600D01*
G01Y90600D02*
Y91400D01*
G01Y92200D02*
Y94300D01*
G01X38000Y87200D02*
Y88000D01*
G01Y88800D02*
Y89600D01*
G01Y90600D02*
Y91400D01*
G01Y92200D02*
Y94300D01*
G01X37900Y87200D02*
Y88000D01*
G01Y88800D02*
Y89600D01*
G01Y90700D02*
Y91500D01*
G01Y92200D02*
Y94300D01*
G01X37800Y87200D02*
Y88000D01*
G01Y88800D02*
Y89600D01*
G01Y90700D02*
Y91600D01*
G01Y92200D02*
Y94300D01*
G01X40200Y95000D02*
Y95600D01*
G01X40100Y95100D02*
Y95600D01*
G01X40000Y95100D02*
Y95700D01*
G01X39900Y95100D02*
Y95700D01*
G01X39800Y95100D02*
Y95800D01*
G01X39700Y95200D02*
Y95800D01*
G01X39600Y95200D02*
Y95900D01*
G01X39500Y95200D02*
Y95900D01*
G01X39400Y94000D02*
Y94100D01*
G01Y95300D02*
Y95900D01*
G01X39300Y95300D02*
Y96000D01*
G01X39200Y95300D02*
Y96000D01*
G01X39100Y95300D02*
Y96000D01*
G01X39000Y95300D02*
Y96000D01*
G01X38900Y95300D02*
Y96000D01*
G01X38800Y95300D02*
Y96000D01*
G01X38700Y95300D02*
Y96000D01*
G01X38600Y95300D02*
Y96000D01*
G01X38500Y95300D02*
Y96000D01*
G01X38400Y95300D02*
Y96000D01*
G01X38300Y95300D02*
Y96000D01*
G01X38200Y95300D02*
Y95900D01*
G01X38100Y95300D02*
Y95900D01*
G01X38000Y95200D02*
Y95900D01*
G01X37900Y95200D02*
Y95900D01*
G01X37800Y95200D02*
Y95800D01*
G01X37700Y95200D02*
Y95800D01*
G01X37600Y95100D02*
Y95800D01*
G01X37500Y95100D02*
Y95700D01*
G01X37400Y95100D02*
Y95700D01*
G01X37300Y95000D02*
Y95600D01*
G01X37200Y95000D02*
Y95500D01*
G01X37100Y95000D02*
Y95500D01*
G01X37000Y95000D02*
Y95400D01*
G01X43900Y30600D02*
Y30900D01*
G01X43800Y30600D02*
Y31000D01*
G01X43700Y30600D02*
Y31600D01*
G01X43600Y30700D02*
Y31800D01*
G01X43500Y30800D02*
Y32000D01*
G01X43400Y30900D02*
Y32100D01*
G01X43300Y31000D02*
Y32200D01*
G01Y33500D02*
Y34200D01*
G01X43200Y31200D02*
Y32300D01*
G01Y33200D02*
Y34300D01*
G01X43100Y31300D02*
Y32300D01*
G01Y33200D02*
Y34400D01*
G01X43000Y31400D02*
Y32400D01*
G01Y33300D02*
Y34500D01*
G01X42900Y31600D02*
Y32400D01*
G01Y33500D02*
Y34600D01*
G01X42800Y31700D02*
Y32500D01*
G01X42700Y31800D02*
Y32500D01*
G01X42600Y31800D02*
Y32500D01*
G01Y32900D02*
Y33100D01*
G01X42500Y31900D02*
Y32600D01*
G01Y32700D02*
Y33300D01*
G01X42400Y32000D02*
Y33500D01*
G01X42300Y32000D02*
Y33600D01*
G01X42200Y32100D02*
Y33700D01*
G01X42100Y32000D02*
Y33700D01*
G01X42000Y30000D02*
Y30100D01*
G01Y31800D02*
Y33700D01*
G01X41900Y30000D02*
Y30200D01*
G01Y31600D02*
Y33700D01*
G01X41800Y30000D02*
Y30200D01*
G01Y31500D02*
Y33500D01*
G01X41700Y30000D02*
Y30300D01*
G01Y31300D02*
Y33300D01*
G01X41600Y29900D02*
Y30400D01*
G01Y31200D02*
Y33100D01*
G01X41500Y29900D02*
Y30400D01*
G01Y31100D02*
Y33000D01*
G01X41400Y29900D02*
Y30400D01*
G01Y30900D02*
Y32900D01*
G01X41300Y29800D02*
Y30500D01*
G01Y30800D02*
Y33000D01*
G01X41200Y29800D02*
Y30500D01*
G01Y30700D02*
Y32300D01*
G01Y32500D02*
Y33000D01*
G01X41100Y29800D02*
Y30900D01*
G01Y31100D02*
Y32200D01*
G01Y32500D02*
Y33000D01*
G01X41000Y29800D02*
Y30700D01*
G01Y31400D02*
Y32000D01*
G01Y32600D02*
Y33100D01*
G01X40900Y29800D02*
Y30600D01*
G01Y31600D02*
Y31800D01*
G01Y32600D02*
Y33100D01*
G01X40800Y29800D02*
Y30700D01*
G01Y32600D02*
Y33100D01*
G01X40700Y29800D02*
Y30700D01*
G01Y32700D02*
Y33200D01*
G01X40600Y29800D02*
Y30700D01*
G01Y31700D02*
Y32000D01*
G01Y32700D02*
Y33200D01*
G01X40500Y29800D02*
Y30600D01*
G01Y31600D02*
Y32300D01*
G01Y32700D02*
Y33200D01*
G01X40400Y29800D02*
Y30600D01*
G01Y31500D02*
Y32400D01*
G01Y32800D02*
Y33300D01*
G01X40300Y29800D02*
Y30500D01*
G01Y31400D02*
Y32500D01*
G01Y32800D02*
Y33300D01*
G01Y33500D02*
Y34400D01*
G01X42800Y33600D02*
Y34700D01*
G01Y40200D02*
Y41300D01*
G01X42700Y33700D02*
Y34700D01*
G01Y40200D02*
Y41300D01*
G01X42600Y33900D02*
Y34700D01*
G01Y40200D02*
Y41300D01*
G01X42500Y33900D02*
Y34700D01*
G01Y40100D02*
Y41200D01*
G01X42400Y34100D02*
Y34600D01*
G01Y40000D02*
Y41200D01*
G01X42300Y40000D02*
Y41100D01*
G01X42200Y39900D02*
Y41000D01*
G01X42100Y39900D02*
Y41000D01*
G01X42000Y39800D02*
Y40900D01*
G01X41900Y39700D02*
Y40800D01*
G01X41800Y39700D02*
Y40800D01*
G01X41700Y39600D02*
Y40700D01*
G01X41600Y39500D02*
Y40600D01*
G01X41500Y39500D02*
Y40600D01*
G01X41400Y39400D02*
Y40500D01*
G01X41300Y39300D02*
Y40500D01*
G01X41200Y33700D02*
Y33900D01*
G01Y39200D02*
Y40400D01*
G01X41100Y33600D02*
Y34200D01*
G01Y39200D02*
Y40300D01*
G01X41000Y33600D02*
Y34200D01*
G01Y39100D02*
Y40300D01*
G01X40900Y33700D02*
Y34300D01*
G01Y38900D02*
Y40400D01*
G01X40800Y33700D02*
Y34400D01*
G01Y38700D02*
Y40500D01*
G01X40700Y33700D02*
Y34400D01*
G01Y38700D02*
Y40500D01*
G01X40600Y33600D02*
Y34400D01*
G01Y38600D02*
Y40500D01*
G01X40500Y33600D02*
Y34400D01*
G01Y38600D02*
Y40600D01*
G01X40400Y33600D02*
Y34400D01*
G01Y38600D02*
Y40600D01*
G01X40300Y38600D02*
Y39700D01*
G01Y39900D02*
Y40600D01*
G01X43600Y40300D02*
Y40500D01*
G01Y42600D02*
Y42800D01*
G01Y42900D02*
Y43500D01*
G01X43500Y40300D02*
Y40800D01*
G01Y42500D02*
Y43700D01*
G01X43400Y40300D02*
Y40900D01*
G01Y42500D02*
Y43900D01*
G01X43300Y40400D02*
Y41100D01*
G01Y42600D02*
Y44000D01*
G01X43200Y40400D02*
Y41100D01*
G01Y42700D02*
Y44000D01*
G01X43100Y40400D02*
Y41200D01*
G01Y42700D02*
Y44100D01*
G01X43000Y40300D02*
Y41300D01*
G01Y42800D02*
Y44100D01*
G01X42900Y40300D02*
Y41300D01*
G01Y42900D02*
Y44200D01*
G01X42800Y43000D02*
Y44100D01*
G01X42700Y43000D02*
Y44100D01*
G01X42600Y43100D02*
Y44100D01*
G01X42500Y43100D02*
Y44100D01*
G01Y44600D02*
Y45400D01*
G01X42400Y43000D02*
Y45600D01*
G01X42300Y42800D02*
Y45600D01*
G01X42200Y42700D02*
Y45700D01*
G01X42100Y42500D02*
Y45700D01*
G01X42000Y42300D02*
Y45800D01*
G01X41900Y42000D02*
Y43900D01*
G01Y44300D02*
Y45800D01*
G01X41800Y41800D02*
Y43700D01*
G01Y44200D02*
Y45800D01*
G01X41700Y41600D02*
Y43400D01*
G01Y44000D02*
Y45700D01*
G01X41600Y41100D02*
Y43200D01*
G01Y43800D02*
Y45200D01*
G01X41500Y41000D02*
Y43000D01*
G01Y43600D02*
Y44800D01*
G01X41400Y41000D02*
Y42800D01*
G01Y43400D02*
Y44400D01*
G01X41300Y41100D02*
Y42600D01*
G01Y43200D02*
Y44200D01*
G01X41200Y41200D02*
Y42500D01*
G01Y43000D02*
Y43500D01*
G01Y43600D02*
Y44200D01*
G01X41100Y41300D02*
Y42300D01*
G01Y43600D02*
Y44400D01*
G01X41000Y41400D02*
Y42200D01*
G01Y43300D02*
Y44500D01*
G01X40900Y43000D02*
Y44500D01*
G01X40800Y42700D02*
Y44600D01*
G01X40700Y42100D02*
Y44500D01*
G01X40600Y42100D02*
Y44500D01*
G01X40500Y42100D02*
Y44300D01*
G01X40400Y42100D02*
Y44100D01*
G01X40300Y42300D02*
Y43900D01*
G01X44100Y52000D02*
Y52300D01*
G01X44000Y51800D02*
Y52400D01*
G01X43900Y51700D02*
Y52600D01*
G01X43800Y51600D02*
Y52700D01*
G01X43700Y51600D02*
Y52800D01*
G01X43600Y51500D02*
Y52200D01*
G01Y52500D02*
Y52900D01*
G01X43500Y51500D02*
Y52100D01*
G01Y52600D02*
Y53000D01*
G01X43400Y51400D02*
Y52100D01*
G01Y52700D02*
Y53100D01*
G01X43300Y51400D02*
Y52100D01*
G01Y52700D02*
Y53200D01*
G01X43200Y51400D02*
Y52100D01*
G01Y52800D02*
Y53300D01*
G01X43100Y51300D02*
Y52100D01*
G01Y52800D02*
Y53400D01*
G01X43000Y51300D02*
Y52200D01*
G01Y52400D02*
Y53500D01*
G01X42900Y51300D02*
Y53600D01*
G01X42800Y49800D02*
Y49900D01*
G01Y51200D02*
Y53700D01*
G01X42700Y49700D02*
Y53700D01*
G01X42600Y49800D02*
Y53800D01*
G01X42500Y49900D02*
Y53700D01*
G01X42400Y50000D02*
Y53500D01*
G01X42300Y50100D02*
Y53300D01*
G01X42200Y50200D02*
Y52900D01*
G01X42100Y50300D02*
Y52400D01*
G01X42000Y50400D02*
Y52200D01*
G01X41900Y50700D02*
Y52000D01*
G01X41800Y50800D02*
Y51900D01*
G01Y52100D02*
Y52500D01*
G01X41700Y50800D02*
Y51800D01*
G01Y52000D02*
Y52600D01*
G01X41600Y50700D02*
Y51800D01*
G01Y52000D02*
Y52700D01*
G01X41500Y50600D02*
Y51700D01*
G01Y52000D02*
Y52700D01*
G01X41400Y50500D02*
Y51700D01*
G01Y52000D02*
Y52700D01*
G01X41300Y50400D02*
Y51600D01*
G01Y52000D02*
Y52900D01*
G01X41200Y50300D02*
Y51600D01*
G01Y52000D02*
Y53000D01*
G01X41100Y50200D02*
Y51500D01*
G01Y52000D02*
Y53200D01*
G01X41000Y50200D02*
Y51500D01*
G01Y51800D02*
Y53300D01*
G01X40900Y50200D02*
Y53400D01*
G01X40800Y50100D02*
Y53400D01*
G01X40700Y50100D02*
Y53400D01*
G01X40600Y50100D02*
Y53300D01*
G01X40500Y50100D02*
Y53200D01*
G01X40400Y50100D02*
Y53100D01*
G01X40300Y50200D02*
Y53000D01*
G01X43300Y59100D02*
Y59200D01*
G01X43200Y59000D02*
Y59400D01*
G01X43100Y58900D02*
Y59600D01*
G01X43000Y58900D02*
Y59800D01*
G01X42900Y58800D02*
Y59900D01*
G01X42800Y58600D02*
Y59900D01*
G01X42700Y58500D02*
Y59900D01*
G01X42600Y58400D02*
Y59900D01*
G01X42500Y58200D02*
Y59900D01*
G01X42400Y58100D02*
Y59900D01*
G01X42300Y57900D02*
Y59800D01*
G01X42200Y58000D02*
Y59800D01*
G01X42100Y58100D02*
Y59700D01*
G01X42000Y58200D02*
Y59700D01*
G01X41900Y58400D02*
Y59700D01*
G01X41800Y58900D02*
Y59600D01*
G01X41700Y58900D02*
Y59600D01*
G01X41600Y57900D02*
Y58100D01*
G01Y58900D02*
Y59600D01*
G01X41500Y57800D02*
Y58200D01*
G01Y58900D02*
Y59600D01*
G01X41400Y57800D02*
Y58300D01*
G01Y58900D02*
Y59700D01*
G01Y60200D02*
Y60400D01*
G01X41300Y57900D02*
Y58300D01*
G01Y58900D02*
Y59700D01*
G01Y60200D02*
Y60400D01*
G01X41200Y57900D02*
Y58400D01*
G01Y59000D02*
Y59700D01*
G01Y60100D02*
Y60300D01*
G01X41100Y57900D02*
Y58400D01*
G01Y59000D02*
Y59800D01*
G01Y60000D02*
Y60300D01*
G01X41000Y57900D02*
Y58500D01*
G01Y59100D02*
Y59800D01*
G01Y60000D02*
Y60200D01*
G01X40900Y57900D02*
Y58500D01*
G01Y59100D02*
Y60200D01*
G01X40800Y57900D02*
Y58500D01*
G01Y59200D02*
Y60100D01*
G01X40700Y57900D02*
Y58500D01*
G01Y59200D02*
Y60000D01*
G01X40600Y57900D02*
Y58600D01*
G01Y59300D02*
Y60000D01*
G01X40500Y57900D02*
Y58700D01*
G01Y59300D02*
Y60000D01*
G01X40400Y57900D02*
Y58700D01*
G01Y59200D02*
Y59900D01*
G01X40300Y57900D02*
Y59900D01*
G01X42900Y61200D02*
Y61600D01*
G01X42800Y61000D02*
Y61900D01*
G01X42700Y60900D02*
Y61100D01*
G01Y61500D02*
Y62000D01*
G01X42600Y60900D02*
Y61000D01*
G01Y61600D02*
Y62200D01*
G01X42500Y60800D02*
Y60900D01*
G01Y61600D02*
Y62200D01*
G01X42400Y60700D02*
Y60800D01*
G01Y61600D02*
Y62300D01*
G01X42300Y60700D02*
Y60800D01*
G01Y61600D02*
Y62400D01*
G01X42200Y60600D02*
Y60800D01*
G01Y61600D02*
Y62400D01*
G01X42100Y60600D02*
Y60800D01*
G01Y61600D02*
Y62400D01*
G01X42000Y60500D02*
Y60700D01*
G01Y61500D02*
Y62400D01*
G01X41900Y60500D02*
Y60600D01*
G01Y61500D02*
Y62400D01*
G01X41800Y60400D02*
Y60600D01*
G01Y61400D02*
Y62300D01*
G01X41700Y60400D02*
Y60600D01*
G01Y61400D02*
Y62200D01*
G01X41600Y60300D02*
Y60500D01*
G01Y61400D02*
Y62200D01*
G01X41500Y60300D02*
Y60500D01*
G01Y61300D02*
Y62100D01*
G01X41400Y61300D02*
Y62100D01*
G01X41300Y61200D02*
Y62000D01*
G01X41200Y61200D02*
Y62000D01*
G01X41100Y61100D02*
Y62000D01*
G01X41000Y61100D02*
Y61900D01*
G01X40900Y61000D02*
Y61900D01*
G01X40800Y61000D02*
Y61800D01*
G01X40700Y60900D02*
Y61800D01*
G01X40600Y60800D02*
Y62000D01*
G01X40500Y60800D02*
Y62200D01*
G01X40400Y60700D02*
Y62300D01*
G01X40300Y60700D02*
Y62500D01*
G01X40400Y68600D02*
Y69100D01*
G01Y70600D02*
Y71500D01*
G01Y73000D02*
Y73700D01*
G01X40300Y68500D02*
Y69100D01*
G01Y70300D02*
Y71800D01*
G01Y73000D02*
Y73700D01*
G01X40400Y74600D02*
Y75400D01*
G01Y76200D02*
Y77000D01*
G01Y77500D02*
Y80000D01*
G01X40300Y74600D02*
Y75400D01*
G01Y76200D02*
Y77000D01*
G01Y77500D02*
Y80000D01*
G01X40400Y84100D02*
Y86000D01*
G01X40300Y84100D02*
Y86200D01*
G01X40400Y87200D02*
Y88000D01*
G01Y88800D02*
Y89600D01*
G01Y90500D02*
Y91500D01*
G01Y92200D02*
Y94300D01*
G01X40300Y87200D02*
Y88000D01*
G01Y88800D02*
Y89600D01*
G01Y90400D02*
Y91500D01*
G01Y92200D02*
Y94300D01*
G01X40400Y95000D02*
Y95400D01*
G01X40300Y95000D02*
Y95500D01*
G01X53500Y45000D02*
Y46000D01*
G01X53400Y45000D02*
Y46000D01*
G01X53300Y45000D02*
Y46000D01*
G01X53200Y45000D02*
Y46000D01*
G01X53100Y45000D02*
Y46100D01*
G01X53000Y45100D02*
Y46100D01*
G01X52900Y45100D02*
Y46100D01*
G01X52800Y45100D02*
Y46100D01*
G01X52700Y45100D02*
Y46100D01*
G01X52600Y45100D02*
Y46100D01*
G01X52500Y45100D02*
Y46100D01*
G01X52400Y45100D02*
Y46100D01*
G01X52300Y45200D02*
Y46200D01*
G01X52200Y45200D02*
Y46200D01*
G01X52100Y45300D02*
Y46200D01*
G01X52000Y45300D02*
Y46300D01*
G01X51900Y45400D02*
Y46300D01*
G01X51800Y45400D02*
Y46300D01*
G01X51700Y45400D02*
Y46500D01*
G01X51600Y45500D02*
Y46500D01*
G01X51500Y45500D02*
Y46500D01*
G01X51400Y45600D02*
Y46600D01*
G01X51300Y45600D02*
Y46700D01*
G01X51200Y45700D02*
Y46800D01*
G01X51100Y45800D02*
Y46800D01*
G01X51000Y45800D02*
Y46900D01*
G01X50900Y45900D02*
Y47000D01*
G01X50800Y46000D02*
Y47000D01*
G01X50700Y46100D02*
Y47200D01*
G01X50600Y46100D02*
Y47300D01*
G01X50500Y46300D02*
Y47500D01*
G01X50400Y46300D02*
Y47600D01*
G01X50300Y46500D02*
Y47800D01*
G01X50200Y46500D02*
Y47900D01*
G01X50100Y46700D02*
Y48200D01*
G01X50000Y46800D02*
Y48400D01*
G01X51200Y53500D02*
Y54600D01*
G01X51100Y53400D02*
Y54600D01*
G01X51000Y53300D02*
Y54400D01*
G01X50900Y53200D02*
Y54400D01*
G01X50800Y53100D02*
Y54300D01*
G01X50700Y52900D02*
Y54100D01*
G01X50600Y52800D02*
Y54100D01*
G01X50500Y52600D02*
Y53900D01*
G01X50400Y52500D02*
Y53800D01*
G01X50300Y52200D02*
Y53700D01*
G01X50200Y52100D02*
Y53500D01*
G01X50100Y51800D02*
Y54900D01*
G01X50000Y51600D02*
Y53300D01*
G01Y53400D02*
Y54700D01*
G01X49900Y47000D02*
Y48900D01*
G01Y51000D02*
Y54500D01*
G01X49800Y47100D02*
Y49300D01*
G01Y50800D02*
Y54300D01*
G01X49700Y47400D02*
Y54000D01*
G01X49600Y47500D02*
Y53800D01*
G01X49500Y47600D02*
Y53600D01*
G01X49400Y47900D02*
Y53200D01*
G01X49300Y48100D02*
Y53000D01*
G01X49200Y48600D02*
Y52400D01*
G01X49100Y48900D02*
Y51900D01*
G01X49000Y49200D02*
Y51400D01*
G01X53500Y54800D02*
Y55800D01*
G01Y56200D02*
Y56800D01*
G01X53400Y54700D02*
Y55800D01*
G01Y56200D02*
Y56700D01*
G01X53300Y54700D02*
Y55800D01*
G01Y56100D02*
Y56700D01*
G01X53200Y54600D02*
Y55700D01*
G01Y56100D02*
Y56600D01*
G01X53100Y54600D02*
Y55700D01*
G01Y56000D02*
Y56600D01*
G01X53000Y54600D02*
Y55700D01*
G01Y56000D02*
Y56600D01*
G01X52900Y54600D02*
Y55600D01*
G01Y55900D02*
Y56500D01*
G01X52800Y54600D02*
Y55500D01*
G01Y55900D02*
Y56400D01*
G01Y57100D02*
Y57400D01*
G01X52700Y54500D02*
Y55500D01*
G01Y55900D02*
Y56400D01*
G01Y57100D02*
Y57300D01*
G01X52600Y54500D02*
Y55500D01*
G01Y55800D02*
Y56400D01*
G01Y57100D02*
Y57300D01*
G01X52500Y54400D02*
Y55500D01*
G01Y55800D02*
Y56300D01*
G01Y56900D02*
Y57300D01*
G01X52400Y54400D02*
Y55400D01*
G01Y55700D02*
Y56200D01*
G01Y56900D02*
Y57200D01*
G01X52300Y54400D02*
Y55400D01*
G01Y55700D02*
Y56200D01*
G01Y56800D02*
Y57100D01*
G01X52200Y54300D02*
Y55300D01*
G01Y55600D02*
Y56200D01*
G01Y56700D02*
Y57100D01*
G01X52100Y54200D02*
Y55300D01*
G01Y55500D02*
Y56100D01*
G01Y56600D02*
Y57000D01*
G01X52000Y54100D02*
Y55200D01*
G01Y55500D02*
Y56000D01*
G01Y56500D02*
Y56900D01*
G01X51900Y54100D02*
Y55100D01*
G01Y55400D02*
Y55900D01*
G01Y56400D02*
Y56900D01*
G01X51800Y54000D02*
Y55100D01*
G01Y55300D02*
Y55800D01*
G01Y56300D02*
Y56800D01*
G01X51700Y53900D02*
Y55000D01*
G01Y55300D02*
Y55800D01*
G01Y56200D02*
Y56600D01*
G01X51600Y53900D02*
Y55000D01*
G01Y55200D02*
Y55700D01*
G01Y56100D02*
Y56600D01*
G01X51500Y53800D02*
Y54900D01*
G01Y55100D02*
Y55600D01*
G01Y56000D02*
Y56500D01*
G01X51400Y53700D02*
Y54800D01*
G01Y55000D02*
Y55500D01*
G01Y55900D02*
Y56400D01*
G01X51300Y53700D02*
Y54700D01*
G01Y54900D02*
Y55400D01*
G01Y55800D02*
Y56300D01*
G01X51200Y54800D02*
Y55300D01*
G01Y55600D02*
Y56200D01*
G01X51100Y54800D02*
Y55300D01*
G01Y55500D02*
Y56200D01*
G01X51000Y54600D02*
Y55100D01*
G01Y55300D02*
Y56000D01*
G01X50900Y54600D02*
Y55000D01*
G01Y55200D02*
Y55900D01*
G01X50800Y54400D02*
Y54900D01*
G01Y55100D02*
Y55800D01*
G01X50700Y54300D02*
Y55700D01*
G01X50600Y54200D02*
Y54700D01*
G01Y54800D02*
Y55600D01*
G01X50500Y54100D02*
Y55400D01*
G01X50400Y53900D02*
Y55300D01*
G01X50300Y53800D02*
Y55100D01*
G01X50200Y53700D02*
Y55000D01*
G01X53500Y64100D02*
Y65400D01*
G01Y66600D02*
Y67700D01*
G01X53400Y64200D02*
Y65400D01*
G01Y66600D02*
Y67700D01*
G01X53300Y64300D02*
Y65400D01*
G01Y66700D02*
Y67700D01*
G01X53200Y64300D02*
Y65600D01*
G01Y66700D02*
Y67700D01*
G01X53100Y64300D02*
Y65600D01*
G01Y66700D02*
Y67700D01*
G01X53000Y64500D02*
Y65800D01*
G01Y66700D02*
Y67700D01*
G01X52900Y64500D02*
Y65900D01*
G01Y66700D02*
Y67700D01*
G01X52800Y64600D02*
Y66000D01*
G01Y66700D02*
Y67700D01*
G01X52700Y64700D02*
Y66100D01*
G01Y66700D02*
Y67700D01*
G01X52600Y64700D02*
Y66300D01*
G01Y66700D02*
Y67700D01*
G01X52500Y64900D02*
Y66500D01*
G01Y66800D02*
Y67700D01*
G01X52400Y65000D02*
Y66600D01*
G01Y66700D02*
Y67800D01*
G01X52300Y65200D02*
Y67800D01*
G01X52200Y65300D02*
Y67800D01*
G01X52100Y65400D02*
Y67900D01*
G01X52000Y65600D02*
Y67900D01*
G01X51900Y65800D02*
Y68400D01*
G01X51800Y66100D02*
Y68700D01*
G01X51700Y66400D02*
Y70100D01*
G01X51600Y66600D02*
Y70400D01*
G01X51500Y66800D02*
Y70400D01*
G01X51400Y67200D02*
Y70300D01*
G01X51300Y67300D02*
Y68400D01*
G01Y68500D02*
Y69400D01*
G01X51200Y67400D02*
Y68400D01*
G01X51100Y67400D02*
Y68400D01*
G01X51000Y67400D02*
Y68600D01*
G01X50900Y67500D02*
Y68600D01*
G01X50800Y67600D02*
Y68700D01*
G01X50700Y67700D02*
Y68800D01*
G01X50600Y67800D02*
Y69000D01*
G01X50500Y67900D02*
Y69100D01*
G01X50400Y67900D02*
Y69300D01*
G01X50300Y68100D02*
Y69500D01*
G01X50200Y68200D02*
Y69600D01*
G01X50100Y68300D02*
Y69800D01*
G01Y73400D02*
Y75000D01*
G01X50000Y68400D02*
Y70100D01*
G01Y73200D02*
Y74900D01*
G01X49900Y68600D02*
Y70500D01*
G01Y72700D02*
Y74600D01*
G01X49800Y68700D02*
Y70800D01*
G01Y72300D02*
Y74600D01*
G01X49700Y69000D02*
Y75700D01*
G01X49600Y69100D02*
Y75600D01*
G01X49500Y69200D02*
Y75400D01*
G01X49400Y69500D02*
Y75000D01*
G01X49300Y69700D02*
Y74700D01*
G01X49200Y70100D02*
Y74200D01*
G01X49100Y70400D02*
Y73700D01*
G01X49000Y70800D02*
Y73100D01*
G01X53500Y76400D02*
Y77400D01*
G01X53400Y76400D02*
Y77400D01*
G01X53300Y76400D02*
Y77400D01*
G01X53200Y76300D02*
Y77400D01*
G01X53100Y76200D02*
Y77400D01*
G01X53000Y76200D02*
Y77300D01*
G01X52900Y76200D02*
Y77200D01*
G01Y79000D02*
Y79100D01*
G01X52800Y76200D02*
Y77200D01*
G01Y78900D02*
Y79200D01*
G01X52700Y76200D02*
Y77200D01*
G01Y78800D02*
Y79200D01*
G01X52600Y76100D02*
Y77100D01*
G01Y78700D02*
Y79000D01*
G01X52500Y76100D02*
Y77100D01*
G01Y78700D02*
Y79000D01*
G01X52400Y76000D02*
Y77100D01*
G01Y78600D02*
Y78900D01*
G01X52300Y76000D02*
Y77000D01*
G01Y78400D02*
Y78800D01*
G01X52200Y75900D02*
Y76900D01*
G01Y78400D02*
Y78800D01*
G01X52100Y75800D02*
Y76900D01*
G01Y78300D02*
Y78700D01*
G01X52000Y75800D02*
Y76900D01*
G01Y78200D02*
Y78700D01*
G01X51900Y75700D02*
Y76800D01*
G01Y78100D02*
Y78500D01*
G01X51800Y75700D02*
Y76700D01*
G01Y78000D02*
Y78400D01*
G01X51700Y75600D02*
Y76700D01*
G01Y77900D02*
Y78300D01*
G01X51600Y75500D02*
Y76600D01*
G01Y77800D02*
Y78300D01*
G01X51500Y75500D02*
Y76500D01*
G01Y77700D02*
Y78200D01*
G01X51400Y75400D02*
Y76400D01*
G01Y77600D02*
Y78100D01*
G01X51300Y75300D02*
Y76400D01*
G01Y77500D02*
Y78000D01*
G01X51200Y75100D02*
Y76200D01*
G01Y77300D02*
Y77900D01*
G01X51100Y75100D02*
Y76200D01*
G01Y77200D02*
Y77800D01*
G01X51000Y74900D02*
Y76100D01*
G01Y77000D02*
Y77700D01*
G01X50900Y74900D02*
Y76000D01*
G01Y76900D02*
Y77600D01*
G01X50800Y74700D02*
Y76000D01*
G01Y76800D02*
Y77500D01*
G01X50700Y74600D02*
Y75800D01*
G01Y76600D02*
Y77400D01*
G01X50600Y74400D02*
Y75700D01*
G01Y76500D02*
Y77300D01*
G01X50500Y74200D02*
Y75600D01*
G01Y76300D02*
Y77100D01*
G01X50400Y74100D02*
Y75500D01*
G01Y76100D02*
Y77000D01*
G01X50300Y73800D02*
Y75300D01*
G01Y75800D02*
Y76800D01*
G01X50200Y73700D02*
Y75300D01*
G01Y75700D02*
Y76700D01*
G01X50100Y75300D02*
Y76600D01*
G01X50000Y75200D02*
Y76400D01*
G01X49900Y74800D02*
Y76200D01*
G01X49800Y74700D02*
Y76000D01*
G01X60200Y46700D02*
Y49300D01*
G01X60100Y46600D02*
Y49200D01*
G01X60000Y46500D02*
Y49000D01*
G01X59900Y46500D02*
Y49000D01*
G01X59800Y46400D02*
Y48900D01*
G01X59700Y46300D02*
Y48800D01*
G01X59600Y46300D02*
Y48800D01*
G01X59500Y46200D02*
Y48600D01*
G01X59400Y46100D02*
Y48600D01*
G01X59300Y46100D02*
Y48400D01*
G01X59200Y46000D02*
Y48400D01*
G01X59100Y45900D02*
Y48300D01*
G01X59000Y45800D02*
Y48200D01*
G01X58900Y45800D02*
Y48100D01*
G01X58800Y45700D02*
Y48100D01*
G01X58700Y45700D02*
Y48000D01*
G01X58600Y45600D02*
Y47400D01*
G01X58500Y45600D02*
Y47800D01*
G01X58400Y45500D02*
Y47300D01*
G01X58300Y45500D02*
Y47200D01*
G01X58200Y45400D02*
Y47100D01*
G01X58100Y45400D02*
Y47000D01*
G01X58000Y45300D02*
Y46900D01*
G01X57900Y45200D02*
Y46900D01*
G01X57800Y45200D02*
Y46800D01*
G01X57700Y45100D02*
Y46700D01*
G01X57600Y45100D02*
Y46700D01*
G01X57500Y45100D02*
Y46500D01*
G01X57400Y45000D02*
Y45900D01*
G01Y46000D02*
Y46500D01*
G01Y46900D02*
Y48900D01*
G01X57300Y45000D02*
Y45800D01*
G01Y46000D02*
Y46300D01*
G01Y46800D02*
Y48600D01*
G01X57200Y45000D02*
Y45800D01*
G01Y45900D02*
Y46300D01*
G01Y46700D02*
Y48500D01*
G01X57100Y45000D02*
Y46300D01*
G01Y46600D02*
Y48300D01*
G01X57000Y44900D02*
Y45700D01*
G01Y45800D02*
Y46200D01*
G01Y46500D02*
Y48100D01*
G01X56900Y44900D02*
Y45600D01*
G01Y45800D02*
Y46100D01*
G01Y46400D02*
Y48000D01*
G01X56800Y44900D02*
Y45600D01*
G01Y45700D02*
Y46100D01*
G01Y46300D02*
Y47800D01*
G01X56700Y44800D02*
Y46000D01*
G01Y46200D02*
Y47700D01*
G01X56600Y44800D02*
Y45500D01*
G01Y45700D02*
Y45800D01*
G01Y46100D02*
Y47600D01*
G01X56500Y44800D02*
Y45500D01*
G01Y45700D02*
Y45800D01*
G01Y46100D02*
Y47500D01*
G01X56400Y44800D02*
Y45400D01*
G01Y46100D02*
Y47400D01*
G01X56300Y44800D02*
Y45400D01*
G01Y45900D02*
Y47300D01*
G01X56200Y44800D02*
Y45400D01*
G01Y45800D02*
Y47200D01*
G01X56100Y44800D02*
Y45300D01*
G01Y45800D02*
Y47000D01*
G01X56000Y44800D02*
Y45200D01*
G01Y45700D02*
Y47000D01*
G01X55900Y44800D02*
Y45200D01*
G01Y45700D02*
Y46900D01*
G01X55800Y44800D02*
Y45200D01*
G01Y45600D02*
Y46800D01*
G01X55700Y44800D02*
Y45100D01*
G01Y45600D02*
Y46800D01*
G01X55600Y44800D02*
Y45100D01*
G01Y45600D02*
Y46800D01*
G01X55500Y44800D02*
Y45100D01*
G01Y45400D02*
Y46600D01*
G01X55400Y44800D02*
Y45100D01*
G01Y45400D02*
Y46600D01*
G01X55300Y44800D02*
Y45100D01*
G01Y45400D02*
Y46500D01*
G01X55200Y44800D02*
Y45000D01*
G01Y45400D02*
Y46500D01*
G01X55100Y44800D02*
Y45000D01*
G01Y45400D02*
Y46400D01*
G01X55000Y45300D02*
Y46300D01*
G01X54900Y45200D02*
Y46300D01*
G01X54800Y45200D02*
Y46300D01*
G01X54700Y45200D02*
Y46200D01*
G01X54600Y45100D02*
Y46200D01*
G01X54500Y45100D02*
Y46200D01*
G01X54400Y45100D02*
Y46100D01*
G01X54300Y45100D02*
Y46100D01*
G01X54200Y45100D02*
Y46100D01*
G01X54100Y45100D02*
Y46100D01*
G01X54000Y45100D02*
Y46100D01*
G01X53900Y45000D02*
Y46100D01*
G01X53800Y45000D02*
Y46100D01*
G01X53700Y45000D02*
Y46100D01*
G01X53600Y45000D02*
Y46100D01*
G01X58900Y50100D02*
Y51800D01*
G01X58800Y49500D02*
Y52500D01*
G01X58700Y49100D02*
Y49200D01*
G01Y49300D02*
Y52800D01*
G01X58600Y47500D02*
Y47800D01*
G01Y48900D02*
Y53000D01*
G01X58500Y48700D02*
Y53200D01*
G01X58400Y47400D02*
Y47800D01*
G01Y48400D02*
Y53400D01*
G01X58300Y47400D02*
Y47700D01*
G01Y48200D02*
Y53600D01*
G01X58200Y47300D02*
Y47600D01*
G01Y48000D02*
Y53800D01*
G01X58100Y47200D02*
Y47600D01*
G01Y47800D02*
Y53900D01*
G01X58000Y47200D02*
Y47500D01*
G01Y47600D02*
Y54100D01*
G01X57900Y47100D02*
Y47400D01*
G01Y47500D02*
Y54200D01*
G01X57800Y47400D02*
Y54300D01*
G01X57700Y47200D02*
Y49900D01*
G01Y51700D02*
Y54500D01*
G01X57600Y47200D02*
Y49500D01*
G01Y52000D02*
Y54600D01*
G01X57500Y47000D02*
Y49100D01*
G01Y52500D02*
Y54700D01*
G01X57400Y52600D02*
Y54700D01*
G01X57300Y52900D02*
Y54800D01*
G01X57200Y53100D02*
Y54900D01*
G01X57100Y53200D02*
Y55000D01*
G01X57000Y53400D02*
Y55100D01*
G01X56900Y53500D02*
Y55100D01*
G01X57700Y55200D02*
Y55500D01*
G01X57600Y55200D02*
Y55600D01*
G01X57500Y55300D02*
Y55800D01*
G01X57400Y55400D02*
Y56000D01*
G01X57300Y55500D02*
Y56400D01*
G01X57200Y55600D02*
Y56600D01*
G01X57100Y55600D02*
Y56900D01*
G01X57000Y55700D02*
Y57500D01*
G01Y59700D02*
Y62400D01*
G01X56900Y55800D02*
Y57800D01*
G01Y59300D02*
Y62300D01*
G01X56800Y53600D02*
Y55200D01*
G01Y55800D02*
Y62100D01*
G01X56700Y53700D02*
Y55300D01*
G01Y55900D02*
Y62000D01*
G01X56600Y53800D02*
Y55300D01*
G01Y55900D02*
Y61800D01*
G01X56500Y53900D02*
Y55400D01*
G01Y56000D02*
Y61600D01*
G01X56400Y54000D02*
Y55500D01*
G01Y56000D02*
Y61500D01*
G01X56300Y54100D02*
Y55500D01*
G01Y56100D02*
Y61200D01*
G01X56200Y54100D02*
Y55500D01*
G01Y56200D02*
Y61000D01*
G01X56100Y54200D02*
Y55500D01*
G01Y56200D02*
Y60800D01*
G01X56000Y54300D02*
Y55600D01*
G01Y56200D02*
Y60500D01*
G01X55900Y54400D02*
Y55700D01*
G01Y56200D02*
Y60200D01*
G01X55800Y54400D02*
Y55700D01*
G01Y56200D02*
Y60000D01*
G01X55700Y54400D02*
Y55700D01*
G01Y56300D02*
Y58200D01*
G01X55600Y54500D02*
Y55800D01*
G01Y56300D02*
Y58300D01*
G01Y60200D02*
Y61100D01*
G01X55500Y54600D02*
Y55800D01*
G01Y56300D02*
Y60900D01*
G01X55400Y54600D02*
Y55800D01*
G01Y56300D02*
Y60800D01*
G01X55300Y54600D02*
Y55800D01*
G01Y56300D02*
Y60600D01*
G01X55200Y54600D02*
Y55800D01*
G01Y56400D02*
Y60300D01*
G01X55100Y54600D02*
Y55800D01*
G01Y56400D02*
Y60200D01*
G01X55000Y54700D02*
Y55900D01*
G01Y56400D02*
Y59900D01*
G01X54900Y54700D02*
Y55900D01*
G01Y56400D02*
Y59600D01*
G01X54800Y54800D02*
Y55900D01*
G01Y56400D02*
Y59100D01*
G01X54700Y54800D02*
Y55900D01*
G01Y56400D02*
Y57800D01*
G01Y58200D02*
Y58800D01*
G01Y59800D02*
Y60000D01*
G01X54600Y54800D02*
Y55900D01*
G01Y56400D02*
Y57800D01*
G01Y59500D02*
Y60000D01*
G01X54500Y54800D02*
Y55900D01*
G01Y56300D02*
Y58400D01*
G01Y59000D02*
Y59900D01*
G01X54400Y54800D02*
Y55900D01*
G01Y56300D02*
Y59700D01*
G01X54300Y54800D02*
Y55900D01*
G01Y56300D02*
Y59500D01*
G01X54200Y54800D02*
Y55900D01*
G01Y56300D02*
Y59300D01*
G01X54100Y54800D02*
Y55900D01*
G01Y56300D02*
Y58900D01*
G01X54000Y54800D02*
Y55800D01*
G01Y56300D02*
Y58800D01*
G01X53900Y54800D02*
Y55900D01*
G01Y56300D02*
Y58400D01*
G01X53800Y54800D02*
Y55800D01*
G01Y56200D02*
Y57800D01*
G01X53700Y54800D02*
Y55800D01*
G01Y56200D02*
Y56900D01*
G01X53600Y54800D02*
Y55800D01*
G01Y56200D02*
Y56800D01*
G01X59000Y64300D02*
Y64400D01*
G01X58900Y64200D02*
Y64500D01*
G01X58800Y64000D02*
Y64400D01*
G01X58700Y63900D02*
Y64300D01*
G01X58600Y63700D02*
Y64200D01*
G01Y66900D02*
Y69200D01*
G01X58500Y63600D02*
Y64100D01*
G01Y66800D02*
Y69200D01*
G01X58400Y63400D02*
Y64000D01*
G01Y66700D02*
Y69100D01*
G01X58300Y63200D02*
Y63900D01*
G01Y66500D02*
Y69000D01*
G01X58200Y63000D02*
Y63800D01*
G01Y66300D02*
Y69000D01*
G01X58100Y62800D02*
Y63700D01*
G01Y66100D02*
Y68900D01*
G01X58000Y62500D02*
Y63600D01*
G01Y65900D02*
Y68800D01*
G01X57900Y62400D02*
Y63500D01*
G01Y65700D02*
Y68700D01*
G01X57800Y62300D02*
Y63400D01*
G01Y65600D02*
Y68600D01*
G01X57700Y62000D02*
Y63300D01*
G01Y65400D02*
Y68400D01*
G01X57600Y61800D02*
Y63200D01*
G01Y65300D02*
Y68300D01*
G01X57500Y61500D02*
Y63000D01*
G01Y65200D02*
Y68000D01*
G01X57400Y61300D02*
Y62900D01*
G01Y65100D02*
Y67900D01*
G01X57300Y60900D02*
Y62800D01*
G01Y64900D02*
Y67600D01*
G01X57200Y60700D02*
Y62700D01*
G01Y64900D02*
Y67500D01*
G01X57100Y60400D02*
Y62600D01*
G01Y64800D02*
Y67400D01*
G01X57000Y64700D02*
Y67200D01*
G01X56900Y64600D02*
Y67000D01*
G01X56800Y64500D02*
Y66900D01*
G01X56700Y64500D02*
Y66800D01*
G01X56600Y64400D02*
Y66600D01*
G01X56500Y64300D02*
Y66500D01*
G01X56400Y64300D02*
Y66400D01*
G01X56300Y64200D02*
Y66300D01*
G01X56200Y61600D02*
Y61800D01*
G01Y64200D02*
Y66100D01*
G01X56100Y61400D02*
Y61800D01*
G01Y64100D02*
Y66100D01*
G01X56000Y61200D02*
Y61600D01*
G01Y64100D02*
Y66000D01*
G01X55900Y61000D02*
Y61600D01*
G01Y64100D02*
Y65900D01*
G01X55800Y60900D02*
Y61500D01*
G01Y64100D02*
Y65800D01*
G01X55700Y60500D02*
Y61200D01*
G01Y64000D02*
Y65700D01*
G01X55600Y64000D02*
Y65600D01*
G01X55500Y63900D02*
Y65500D01*
G01X55400Y63900D02*
Y65500D01*
G01X55300Y63900D02*
Y65400D01*
G01X55200Y63900D02*
Y65400D01*
G01X55100Y63900D02*
Y65400D01*
G01Y66900D02*
Y68100D01*
G01X55000Y63900D02*
Y65300D01*
G01Y66900D02*
Y68000D01*
G01X54900Y63900D02*
Y65300D01*
G01Y66900D02*
Y68000D01*
G01X54800Y63900D02*
Y65200D01*
G01Y66800D02*
Y67900D01*
G01X54700Y63900D02*
Y65200D01*
G01Y66800D02*
Y67900D01*
G01X54600Y63900D02*
Y65200D01*
G01Y66800D02*
Y67900D01*
G01X54500Y63900D02*
Y65200D01*
G01Y66700D02*
Y67800D01*
G01X54400Y63900D02*
Y65200D01*
G01Y66700D02*
Y67800D01*
G01X54300Y63900D02*
Y65200D01*
G01Y66700D02*
Y67700D01*
G01X54200Y64000D02*
Y65200D01*
G01Y66700D02*
Y67700D01*
G01X54100Y64000D02*
Y65200D01*
G01Y66700D02*
Y67700D01*
G01X54000Y64000D02*
Y65200D01*
G01Y66700D02*
Y67700D01*
G01X53900Y64000D02*
Y65200D01*
G01Y66700D02*
Y67700D01*
G01X53800Y64100D02*
Y65200D01*
G01Y66700D02*
Y67700D01*
G01X53700Y64100D02*
Y65300D01*
G01Y66600D02*
Y67700D01*
G01X53600Y64100D02*
Y65300D01*
G01Y66600D02*
Y67700D01*
G01X60200Y67600D02*
Y69500D01*
G01X60100Y67600D02*
Y69500D01*
G01X60000Y67700D02*
Y69500D01*
G01X59900Y67700D02*
Y69500D01*
G01X59800Y67600D02*
Y69500D01*
G01X59700Y67600D02*
Y69500D01*
G01X59600Y67600D02*
Y69500D01*
G01X59500Y67500D02*
Y69500D01*
G01X59400Y67500D02*
Y69500D01*
G01X59300Y67400D02*
Y69500D01*
G01X59200Y67400D02*
Y69400D01*
G01X59100Y67300D02*
Y69400D01*
G01X59000Y67300D02*
Y69400D01*
G01X58900Y67200D02*
Y69400D01*
G01Y71700D02*
Y73600D01*
G01X58800Y67100D02*
Y69300D01*
G01Y71100D02*
Y74100D01*
G01X58700Y67000D02*
Y69200D01*
G01Y70700D02*
Y70800D01*
G01Y70900D02*
Y74300D01*
G01X58600Y70500D02*
Y74700D01*
G01X58500Y70300D02*
Y74900D01*
G01X58400Y70000D02*
Y75100D01*
G01X58300Y69900D02*
Y75300D01*
G01X58200Y69600D02*
Y75500D01*
G01X58100Y69400D02*
Y75600D01*
G01X58000Y69200D02*
Y75700D01*
G01X57900Y69200D02*
Y75900D01*
G01X57800Y69100D02*
Y76000D01*
G01X57700Y68800D02*
Y71500D01*
G01Y73400D02*
Y76100D01*
G01X57600Y68700D02*
Y71200D01*
G01X57500Y68600D02*
Y70800D01*
G01X57400Y68500D02*
Y70600D01*
G01X57300Y68400D02*
Y70300D01*
G01X57200Y68300D02*
Y70100D01*
G01X57100Y68200D02*
Y70000D01*
G01X57000Y68100D02*
Y69700D01*
G01X56900Y68000D02*
Y69700D01*
G01X56800Y67900D02*
Y69400D01*
G01X56700Y67900D02*
Y69400D01*
G01X56600Y67700D02*
Y69200D01*
G01X56500Y67700D02*
Y69100D01*
G01X56400Y67700D02*
Y69000D01*
G01X56300Y67600D02*
Y68900D01*
G01X56200Y67500D02*
Y68800D01*
G01X56100Y67400D02*
Y68700D01*
G01X56000Y67400D02*
Y68600D01*
G01X55900Y67300D02*
Y68600D01*
G01X55800Y67300D02*
Y68500D01*
G01X55700Y67200D02*
Y68400D01*
G01X55600Y67200D02*
Y68400D01*
G01X55500Y67100D02*
Y68300D01*
G01X55400Y67000D02*
Y68200D01*
G01X55300Y67000D02*
Y68100D01*
G01X55200Y67000D02*
Y68100D01*
G01X58700Y74400D02*
Y74500D01*
G01X57600Y73600D02*
Y76200D01*
G01X57500Y74100D02*
Y76300D01*
G01X57400Y74200D02*
Y76400D01*
G01X57300Y74600D02*
Y76500D01*
G01X57200Y74600D02*
Y76600D01*
G01X57100Y74800D02*
Y76700D01*
G01X57000Y75000D02*
Y76700D01*
G01X56900Y75100D02*
Y76800D01*
G01X56800Y75300D02*
Y76900D01*
G01X56700Y75400D02*
Y76900D01*
G01X56600Y75500D02*
Y77000D01*
G01X56500Y75500D02*
Y77000D01*
G01X56400Y75600D02*
Y77100D01*
G01X56300Y75700D02*
Y77100D01*
G01X56200Y75800D02*
Y77200D01*
G01X56100Y75900D02*
Y77200D01*
G01X56000Y76000D02*
Y77200D01*
G01X55900Y76000D02*
Y77300D01*
G01X55800Y76000D02*
Y77400D01*
G01X55700Y76100D02*
Y77400D01*
G01X55600Y76100D02*
Y77400D01*
G01X55500Y76200D02*
Y77400D01*
G01X55400Y76200D02*
Y77400D01*
G01X55300Y76200D02*
Y77400D01*
G01X55200Y76200D02*
Y77500D01*
G01X55100Y76300D02*
Y77500D01*
G01X55000Y76300D02*
Y77500D01*
G01X54900Y76400D02*
Y77500D01*
G01X54800Y76400D02*
Y77500D01*
G01X54700Y76400D02*
Y77500D01*
G01X54600Y76400D02*
Y77600D01*
G01X54500Y76400D02*
Y77600D01*
G01X54400Y76400D02*
Y77600D01*
G01X54300Y76400D02*
Y77500D01*
G01X54200Y76400D02*
Y77500D01*
G01X54100Y76400D02*
Y77500D01*
G01X54000Y76400D02*
Y77500D01*
G01X53900Y76400D02*
Y77500D01*
G01X53800Y76400D02*
Y77500D01*
G01X53700Y76400D02*
Y77500D01*
G01X53600Y76400D02*
Y77400D01*
G01X65500Y46900D02*
Y52100D01*
G01X65400Y46800D02*
Y51800D01*
G01X65300Y46700D02*
Y51600D01*
G01X65200Y46500D02*
Y51400D01*
G01X65100Y46400D02*
Y51100D01*
G01X65000Y46400D02*
Y51000D01*
G01X64900Y46300D02*
Y50800D01*
G01X64800Y46300D02*
Y50600D01*
G01X64700Y46100D02*
Y50400D01*
G01X64600Y46100D02*
Y50200D01*
G01X64500Y46000D02*
Y50000D01*
G01X64400Y46000D02*
Y49900D01*
G01X64300Y45900D02*
Y49700D01*
G01X64200Y45800D02*
Y49600D01*
G01X64100Y45800D02*
Y49500D01*
G01X64000Y45800D02*
Y49300D01*
G01X63900Y45800D02*
Y49200D01*
G01X63800Y45700D02*
Y49000D01*
G01X63700Y45600D02*
Y48900D01*
G01X63600Y45600D02*
Y48700D01*
G01X63500Y45600D02*
Y48600D01*
G01X63400Y45600D02*
Y48600D01*
G01X63300Y45600D02*
Y48400D01*
G01X63200Y45600D02*
Y48300D01*
G01X63100Y45500D02*
Y48100D01*
G01X63000Y45500D02*
Y48100D01*
G01X62900Y45500D02*
Y48000D01*
G01X62800Y45500D02*
Y47900D01*
G01X62700Y45500D02*
Y47800D01*
G01X62600Y45500D02*
Y47800D01*
G01X62500Y45500D02*
Y47700D01*
G01X62400Y45500D02*
Y47600D01*
G01X62300Y45500D02*
Y47500D01*
G01X62200Y45500D02*
Y47400D01*
G01X62100Y45500D02*
Y47400D01*
G01X62000Y45600D02*
Y47300D01*
G01X61900Y45600D02*
Y47300D01*
G01X61800Y45600D02*
Y47200D01*
G01X61700Y45700D02*
Y47200D01*
G01X61600Y45800D02*
Y47100D01*
G01X61500Y45800D02*
Y47000D01*
G01X61400Y45900D02*
Y47000D01*
G01X61300Y46100D02*
Y46800D01*
G01X61200Y46200D02*
Y46700D01*
G01X60500Y46900D02*
Y49600D01*
G01X60400Y46800D02*
Y49500D01*
G01X60300Y46800D02*
Y49400D01*
G01X66900Y49600D02*
Y52900D01*
G01X66800Y49300D02*
Y52500D01*
G01X66700Y49100D02*
Y52200D01*
G01X66600Y48900D02*
Y52100D01*
G01X66500Y48600D02*
Y51600D01*
G01Y52400D02*
Y53000D01*
G01X66400Y48500D02*
Y51400D01*
G01Y52000D02*
Y53100D01*
G01X66300Y48300D02*
Y51100D01*
G01Y51200D02*
Y52700D01*
G01X66200Y48000D02*
Y52600D01*
G01Y53100D02*
Y55100D01*
G01X66100Y47800D02*
Y52100D01*
G01Y52400D02*
Y54400D01*
G01X66000Y47700D02*
Y51900D01*
G01Y52100D02*
Y54100D01*
G01X65900Y47600D02*
Y51800D01*
G01Y51900D02*
Y53600D01*
G01X65800Y47400D02*
Y53000D01*
G01X65700Y47200D02*
Y52800D01*
G01X65600Y47000D02*
Y52500D01*
G01X65000Y53200D02*
Y57300D01*
G01X64900Y53100D02*
Y56700D01*
G01X64800Y52800D02*
Y56400D01*
G01X64700Y52500D02*
Y55900D01*
G01X64600Y52400D02*
Y55700D01*
G01X64500Y52100D02*
Y55400D01*
G01X64400Y51900D02*
Y55100D01*
G01X64300Y51600D02*
Y54800D01*
G01X64200Y51500D02*
Y54700D01*
G01X64100Y51400D02*
Y54600D01*
G01X64000Y51100D02*
Y54200D01*
G01X63900Y51000D02*
Y54100D01*
G01X63800Y50800D02*
Y53900D01*
G01X63700Y50700D02*
Y53700D01*
G01X63600Y50500D02*
Y53500D01*
G01X63500Y50300D02*
Y53400D01*
G01X63400Y50300D02*
Y53300D01*
G01X63300Y50100D02*
Y53000D01*
G01X63200Y49900D02*
Y52900D01*
G01X63100Y49700D02*
Y52700D01*
G01X63000Y49600D02*
Y52600D01*
G01X62900Y49500D02*
Y52400D01*
G01X62800Y49400D02*
Y52300D01*
G01X62700Y49300D02*
Y52100D01*
G01X62600Y49100D02*
Y52000D01*
G01X62500Y48900D02*
Y51800D01*
G01X62400Y48800D02*
Y51700D01*
G01X62300Y48700D02*
Y51500D01*
G01X62200Y48600D02*
Y51500D01*
G01X62100Y48500D02*
Y51400D01*
G01X62000Y48300D02*
Y51200D01*
G01X61900Y48300D02*
Y51100D01*
G01X61800Y48100D02*
Y51000D01*
G01X61700Y48100D02*
Y50900D01*
G01X61600Y48000D02*
Y50800D01*
G01X61500Y47800D02*
Y50600D01*
G01X61400Y47800D02*
Y50600D01*
G01X61300Y47600D02*
Y50400D01*
G01X61200Y47600D02*
Y50300D01*
G01X61100Y47400D02*
Y50100D01*
G01X61000Y47400D02*
Y50100D01*
G01X60900Y47300D02*
Y50000D01*
G01X60800Y47200D02*
Y49900D01*
G01X60700Y47100D02*
Y49800D01*
G01X60600Y47000D02*
Y49600D01*
G01X66300Y53700D02*
Y55100D01*
G01X65900Y58300D02*
Y58900D01*
G01X65800Y56600D02*
Y60700D01*
G01X65700Y56200D02*
Y61100D01*
G01X65600Y55400D02*
Y61900D01*
G01X65500Y55100D02*
Y62300D01*
G01X65400Y54400D02*
Y62600D01*
G01X65300Y54300D02*
Y62900D01*
G01X65200Y54000D02*
Y63000D01*
G01X65100Y53600D02*
Y57600D01*
G01X65000Y57800D02*
Y58000D01*
G01Y58300D02*
Y59800D01*
G01X64900Y57300D02*
Y60900D01*
G01X64800Y56900D02*
Y61400D01*
G01X64700Y56100D02*
Y62200D01*
G01X64600Y56000D02*
Y62200D01*
G01X64500Y55600D02*
Y56900D01*
G01X64400Y55600D02*
Y56300D01*
G01X65200Y63100D02*
Y63200D01*
G01X65100Y60300D02*
Y63500D01*
G01X65000Y60300D02*
Y63900D01*
G01X64900Y61500D02*
Y64000D01*
G01X64800Y61900D02*
Y64200D01*
G01X64700Y62400D02*
Y64500D01*
G01X64600Y62600D02*
Y64600D01*
G01X64500Y60300D02*
Y62700D01*
G01Y63100D02*
Y64900D01*
G01X64400Y60900D02*
Y62900D01*
G01Y63300D02*
Y65100D01*
G01X64300Y61600D02*
Y63300D01*
G01Y63600D02*
Y65400D01*
G01X64200Y61900D02*
Y63400D01*
G01Y63800D02*
Y65500D01*
G01X64100Y62200D02*
Y63600D01*
G01Y64000D02*
Y65600D01*
G01X64000Y62700D02*
Y64000D01*
G01Y64300D02*
Y65900D01*
G01X63900Y62800D02*
Y64100D01*
G01Y64400D02*
Y66100D01*
G01X63800Y63200D02*
Y64400D01*
G01Y64600D02*
Y66300D01*
G01X63700Y63400D02*
Y64600D01*
G01Y64700D02*
Y66300D01*
G01X63600Y63700D02*
Y64800D01*
G01Y64900D02*
Y66600D01*
G01X63500Y63900D02*
Y64900D01*
G01Y65100D02*
Y66700D01*
G01X63400Y64000D02*
Y65000D01*
G01Y65200D02*
Y66800D01*
G01X63300Y64200D02*
Y65200D01*
G01Y65400D02*
Y67000D01*
G01X63200Y64400D02*
Y67200D01*
G01X63100Y64600D02*
Y65500D01*
G01Y65600D02*
Y67300D01*
G01X63000Y64700D02*
Y65600D01*
G01Y65800D02*
Y67400D01*
G01X62900Y64900D02*
Y65700D01*
G01Y65900D02*
Y67600D01*
G01X62800Y65000D02*
Y65800D01*
G01Y66000D02*
Y67700D01*
G01X62700Y65200D02*
Y65900D01*
G01Y66100D02*
Y67900D01*
G01X62600Y65400D02*
Y66000D01*
G01Y66200D02*
Y67900D01*
G01X62500Y65500D02*
Y66100D01*
G01Y66300D02*
Y68000D01*
G01X62400Y65600D02*
Y66100D01*
G01Y66400D02*
Y68100D01*
G01X62300Y65700D02*
Y66200D01*
G01Y66500D02*
Y68300D01*
G01X62200Y65800D02*
Y66200D01*
G01Y66600D02*
Y68400D01*
G01X62100Y65900D02*
Y66100D01*
G01Y66600D02*
Y68400D01*
G01X62000Y66700D02*
Y68600D01*
G01X61900Y66800D02*
Y68600D01*
G01X61800Y66900D02*
Y68700D01*
G01X61700Y67000D02*
Y68800D01*
G01X61600Y67000D02*
Y68800D01*
G01X61500Y67200D02*
Y68900D01*
G01X61400Y67200D02*
Y69000D01*
G01X61300Y67300D02*
Y69100D01*
G01X61200Y67400D02*
Y69100D01*
G01X61100Y67400D02*
Y69200D01*
G01X61000Y67400D02*
Y69200D01*
G01X60900Y67400D02*
Y69200D01*
G01X60800Y67500D02*
Y69300D01*
G01X60700Y67600D02*
Y69400D01*
G01X60600Y67600D02*
Y69400D01*
G01X60500Y67600D02*
Y69400D01*
G01X60400Y67700D02*
Y69400D01*
G01X60300Y67700D02*
Y69400D01*
G01X67700Y53200D02*
Y57800D01*
G01X67600Y52400D02*
Y57500D01*
G01X67500Y52100D02*
Y56400D01*
G01X67400Y51400D02*
Y55300D01*
G01X67300Y51000D02*
Y54800D01*
G01X67200Y50500D02*
Y54400D01*
G01X67100Y50300D02*
Y53800D01*
G01X67000Y49900D02*
Y53400D01*
G01X67800Y54300D02*
Y57800D01*
G54D12*
G01X54531Y104319D02*
X27957D01*
Y155500D01*
X134256D01*
Y104319D01*
X54531D01*
G01X44500Y109500D02*
X30500D01*
Y115500D01*
X36500D01*
Y121500D01*
X30500D01*
Y127500D01*
X36500D01*
Y133500D01*
X30500D01*
Y139500D01*
X36500D01*
Y145500D01*
X30500D01*
Y151500D01*
G01X48984Y90823D02*
G02Y96177I781J2677D01*
G01X51661Y90823D02*
X48984D01*
G01Y96177D02*
X51661D01*
G01X47642Y155500D02*
Y104319D01*
G01X57016Y90823D02*
G03Y96177I-781J2677D01*
G01Y90823D02*
X54339D01*
G01Y96177D02*
X57016D01*
G01X70500Y96000D02*
X66000D01*
Y91000D01*
X70500D01*
G01Y101000D02*
X66000D01*
Y96000D01*
X70500D01*
G01X73500Y77500D02*
X69000D01*
Y72500D01*
X73500D01*
G01Y83500D02*
X69000D01*
Y78500D01*
X73500D01*
G01X72500Y91000D02*
X77000D01*
Y96000D01*
X72500D01*
G01D02*
X77000D01*
Y101000D01*
X72500D01*
G01X75500Y72500D02*
X80000D01*
Y77500D01*
X75500D01*
G01Y78500D02*
X80000D01*
Y83500D01*
X75500D01*
G01X112500Y5500D02*
Y1000D01*
X117500D01*
Y5500D01*
G01Y7500D02*
Y12000D01*
X112500D01*
Y7500D01*
G01X111484Y58323D02*
G02Y63677I781J2677D01*
G01X114161Y58323D02*
X111484D01*
G01X110500Y69000D02*
Y64500D01*
X115500D01*
Y69000D01*
G01X111484Y63677D02*
X114161D01*
G01X115500Y71000D02*
Y75500D01*
X110500D01*
Y71000D01*
G01X111484Y76323D02*
G02Y81677I781J2677D01*
G01X114161Y76323D02*
X111484D01*
G01X110823Y86484D02*
G03X116177I2677J781D01*
G01X110823D02*
Y89161D01*
G01X111484Y81677D02*
X114161D01*
G01X110823Y91839D02*
Y94516D01*
G01D02*
G02X116177I2677J-781D01*
G01X119516Y58323D02*
G03Y63677I-781J2677D01*
G01Y58323D02*
X116839D01*
G01X115500Y69000D02*
Y64500D01*
X120500D01*
Y69000D01*
G01X116839Y63677D02*
X119516D01*
G01X120500Y71000D02*
Y75500D01*
X115500D01*
Y71000D01*
G01X119516Y76323D02*
G03Y81677I-781J2677D01*
G01Y76323D02*
X116839D01*
G01X116177Y89161D02*
Y86484D01*
G01X116839Y81677D02*
X119516D01*
G01X116177Y94516D02*
Y91839D01*
G01X120500Y5500D02*
Y1000D01*
X125500D01*
Y5500D01*
G01Y7500D02*
Y12000D01*
X120500D01*
Y7500D01*
G01X131677Y29484D02*
G02X126323I-2677J781D01*
G01D02*
Y32161D01*
G01X131677Y37516D02*
G03X126323I-2677J-781D01*
G01Y34839D02*
Y37516D01*
G01X129177Y86484D02*
G02X123823I-2677J781D01*
G01D02*
Y89161D01*
G01Y91839D02*
Y94516D01*
G01X129177D02*
G03X123823I-2677J-781D01*
G01X131677Y32161D02*
Y29484D01*
G01Y37516D02*
Y34839D01*
G01X129177Y89161D02*
Y86484D01*
G01Y94516D02*
Y91839D01*
G01X142000Y74500D02*
X137500D01*
Y69500D01*
X142000D01*
G01X141984Y137323D02*
G02Y142677I781J2677D01*
G01X146000Y45500D02*
X141500D01*
Y40500D01*
X146000D01*
G01X144000Y69500D02*
X148500D01*
Y74500D01*
X144000D01*
G01X140800Y131600D02*
X151200D01*
G01Y136400D02*
X140800D01*
G01X144661Y137323D02*
X141984D01*
G01Y142677D02*
X144661D01*
G01X158000Y51500D02*
X153500D01*
Y46500D01*
X158000D01*
G01Y45500D02*
X153500D01*
Y40500D01*
X158000D01*
G01X148000D02*
X152500D01*
Y45500D01*
X148000D01*
G01X153484Y59677D02*
G03Y54323I781J-2677D01*
G01Y59677D02*
X156161D01*
G01Y54323D02*
X153484D01*
G01X154000Y74500D02*
X149500D01*
Y69500D01*
X154000D01*
G01X158000Y136500D02*
X153500D01*
Y131500D01*
X158000D01*
G01Y142500D02*
X153500D01*
Y137500D01*
X158000D01*
G01X150016Y137323D02*
G03Y142677I-781J2677D01*
G01Y137323D02*
X147339D01*
G01Y142677D02*
X150016D01*
G01X158000Y153500D02*
X153500D01*
Y148500D01*
X158000D01*
G01Y159500D02*
X153500D01*
Y154500D01*
X158000D01*
G01X160000Y46500D02*
X164500D01*
Y51500D01*
X160000D01*
G01Y40500D02*
X164500D01*
Y45500D01*
X160000D01*
G01X161516Y54323D02*
X158839D01*
G01Y59677D02*
X161516D01*
G01X156000Y69500D02*
X160500D01*
Y74500D01*
X156000D01*
G01X160000Y131500D02*
X164500D01*
Y136500D01*
X160000D01*
G01Y137500D02*
X164500D01*
Y142500D01*
X160000D01*
G01Y148500D02*
X164500D01*
Y153500D01*
X160000D01*
G01Y154500D02*
X164500D01*
Y159500D01*
X160000D01*
G01X161516Y59677D02*
G02Y54323I-781J-2677D01*
G01X168000Y112500D02*
X163500D01*
Y107500D01*
X168000D01*
G01Y118500D02*
X163500D01*
Y113500D01*
X168000D01*
G01Y124500D02*
X163500D01*
Y119500D01*
X168000D01*
G01X166984Y159677D02*
G03Y154323I781J-2677D01*
G01Y159677D02*
X169661D01*
G01Y154323D02*
X166984D01*
G01X169500Y5500D02*
Y1000D01*
X174500D01*
Y5500D01*
G01Y7500D02*
Y12000D01*
X169500D01*
Y7500D01*
G01X174500Y45000D02*
X170000D01*
Y40000D01*
X174500D01*
G01Y51000D02*
X170000D01*
Y46000D01*
X174500D01*
G01X170000Y107500D02*
X174500D01*
Y112500D01*
X170000D01*
G01Y113500D02*
X174500D01*
Y118500D01*
X170000D01*
G01Y119500D02*
X174500D01*
Y124500D01*
X170000D01*
G01X175016Y154323D02*
X172339D01*
G01Y159677D02*
X175016D01*
G01X193465Y32740D02*
X176339D01*
Y25260D01*
X193465D01*
Y32740D01*
G01X176500Y40000D02*
X181000D01*
Y45000D01*
X176500D01*
G01Y46000D02*
X181000D01*
Y51000D01*
X176500D01*
G01X193965Y79240D02*
X176839D01*
Y71760D01*
X193965D01*
Y79240D01*
G01X175016Y159677D02*
G02Y154323I-781J-2677D01*
G01X181063Y32740D02*
Y25260D01*
G01X187000Y39000D02*
X182500D01*
Y34000D01*
X187000D01*
G01X183984Y45177D02*
G03Y39823I781J-2677D01*
G01X186661D02*
X183984D01*
G01X187000Y51000D02*
X182500D01*
Y46000D01*
X187000D01*
G01X183984Y45177D02*
X186661D01*
G01X186500Y58500D02*
X182000D01*
Y53500D01*
X186500D01*
G01Y64500D02*
X182000D01*
Y59500D01*
X186500D01*
G01X183484Y70677D02*
G03Y65323I781J-2677D01*
G01X186161D02*
X183484D01*
G01X181563Y79240D02*
Y71760D01*
G01X183484Y70677D02*
X186161D01*
G01X185323Y149984D02*
G03X190677I2677J781D01*
G01X185323D02*
Y152661D01*
G01Y158016D02*
G02X190677I2677J-781D01*
G01X185323Y155339D02*
Y158016D01*
G01X189000Y34000D02*
X193500D01*
Y39000D01*
X189000D01*
G01X192016Y45177D02*
G02Y39823I-781J-2677D01*
G01D02*
X189339D01*
G01X189000Y46000D02*
X193500D01*
Y51000D01*
X189000D01*
G01X189339Y45177D02*
X192016D01*
G01X188500Y53500D02*
X193000D01*
Y58500D01*
X188500D01*
G01Y59500D02*
X193000D01*
Y64500D01*
X188500D01*
G01X191516Y70677D02*
G02Y65323I-781J-2677D01*
G01D02*
X188839D01*
G01Y70677D02*
X191516D01*
G01X190677Y152661D02*
Y149984D01*
G01Y158016D02*
Y155339D01*
G01X197484Y33823D02*
G02Y39177I781J2677D01*
G01X200161Y33823D02*
X197484D01*
G01Y39177D02*
X200161D01*
G01X200000Y73000D02*
X195500D01*
Y68000D01*
X200000D01*
G01Y79000D02*
X195500D01*
Y74000D01*
X200000D01*
G01X205516Y33823D02*
G03Y39177I-781J2677D01*
G01Y33823D02*
X202839D01*
G01Y39177D02*
X205516D01*
G01X202000Y68000D02*
X206500D01*
Y73000D01*
X202000D01*
G01Y74000D02*
X206500D01*
Y79000D01*
X202000D01*
G01X209484Y73677D02*
G03Y68323I781J-2677D01*
G01Y73677D02*
X212161D01*
G01Y68323D02*
X209484D01*
G01X217516Y73677D02*
G02Y68323I-781J-2677D01*
G01D02*
X214839D01*
G01Y73677D02*
X217516D01*
G01X222000Y170000D02*
X217500D01*
Y165000D01*
X222000D01*
G01X224000D02*
X228500D01*
Y170000D01*
X224000D01*
G01X227984Y38992D02*
Y34307D01*
G03X236016I4016J3012D01*
G01Y38992D01*
G01Y43008D02*
Y47693D01*
G03X227984I-4016J-2900D01*
G01Y43008D01*
G01Y57492D02*
Y52807D01*
G03X236016I4016J2900D01*
G01Y57492D01*
G01Y61508D02*
Y66193D01*
G03X227984I-4016J-3012D01*
G01Y61508D01*
G01X246600Y39200D02*
Y58800D01*
X237400D01*
Y39200D01*
X246600D01*
G01X262000Y80000D02*
X257500D01*
Y75000D01*
X262000D01*
G01X264000D02*
X268500D01*
Y80000D01*
X264000D01*
G54D13*
G01X22500Y155167D02*
X25367D01*
X25967Y155000D01*
X26367Y154667D01*
X26500Y154250D01*
X26367Y153833D01*
X25967Y153500D01*
X25367Y153333D01*
X22500D01*
G01X26500Y150950D02*
X22500D01*
X23300Y151450D01*
G01X26500D02*
Y150450D01*
G01X23167Y148442D02*
X22767Y148192D01*
X22567Y147900D01*
X22500Y147567D01*
X22633Y147150D01*
X22967Y146858D01*
X23367Y146775D01*
X23767Y146817D01*
X24100Y146983D01*
X24767Y147817D01*
X25233Y148192D01*
X25900Y148442D01*
X26500Y148525D01*
Y146775D01*
G01X55833Y101167D02*
X56083Y101367D01*
X56375Y101500D01*
X56708D01*
X57083Y101300D01*
X57375Y100967D01*
X57583Y100567D01*
X57750Y99900D01*
X57792Y99300D01*
X57708Y98700D01*
X57583Y98300D01*
X57333Y97900D01*
X57042Y97633D01*
X56750Y97500D01*
X56458D01*
X56167Y97633D01*
X55917Y97833D01*
X55708Y98100D01*
G01X54242Y100833D02*
X53992Y101233D01*
X53700Y101433D01*
X53367Y101500D01*
X52950Y101367D01*
X52658Y101033D01*
X52575Y100633D01*
X52617Y100233D01*
X52783Y99900D01*
X53617Y99233D01*
X53992Y98767D01*
X54242Y98100D01*
X54325Y97500D01*
X52575D01*
G01X51067Y98300D02*
X50817Y97833D01*
X50483Y97567D01*
X50108Y97500D01*
X49775Y97567D01*
X49442Y97900D01*
X49233Y98300D01*
X49192Y98700D01*
X49275Y99167D01*
X49567Y99500D01*
X49858Y99633D01*
X50233D01*
G01X49858D02*
X49608Y99833D01*
X49400Y100167D01*
X49317Y100567D01*
X49400Y100967D01*
X49608Y101300D01*
X49983Y101500D01*
X50358Y101433D01*
X50733Y101167D01*
G01X87583Y91500D02*
Y95500D01*
X86542D01*
X86208Y95300D01*
X86000Y95033D01*
X85917Y94500D01*
X86000Y93967D01*
X86250Y93633D01*
X86542Y93433D01*
X87583D01*
G01X86542D02*
X85917Y91500D01*
G01X84242Y94833D02*
X83992Y95233D01*
X83700Y95433D01*
X83367Y95500D01*
X82950Y95367D01*
X82658Y95033D01*
X82575Y94633D01*
X82617Y94233D01*
X82783Y93900D01*
X83617Y93233D01*
X83992Y92767D01*
X84242Y92100D01*
X84325Y91500D01*
X82575D01*
G01X79650D02*
Y95500D01*
X81192Y92633D01*
X79108D01*
G01X87583Y96500D02*
Y100500D01*
X86542D01*
X86208Y100300D01*
X86000Y100033D01*
X85917Y99500D01*
X86000Y98967D01*
X86250Y98633D01*
X86542Y98433D01*
X87583D01*
G01X86542D02*
X85917Y96500D01*
G01X84242Y99833D02*
X83992Y100233D01*
X83700Y100433D01*
X83367Y100500D01*
X82950Y100367D01*
X82658Y100033D01*
X82575Y99633D01*
X82617Y99233D01*
X82783Y98900D01*
X83617Y98233D01*
X83992Y97767D01*
X84242Y97100D01*
X84325Y96500D01*
X82575D01*
G01X81067Y97100D02*
X80817Y96767D01*
X80525Y96567D01*
X80150Y96500D01*
X79775Y96633D01*
X79483Y96900D01*
X79275Y97367D01*
X79233Y97900D01*
X79317Y98433D01*
X79525Y98767D01*
X79817Y99033D01*
X80108Y99100D01*
X80400Y99033D01*
X80775Y98767D01*
X80650Y100500D01*
X79525D01*
G01X89583Y72000D02*
Y76000D01*
X88542D01*
X88208Y75800D01*
X88000Y75533D01*
X87917Y75000D01*
X88000Y74467D01*
X88250Y74133D01*
X88542Y73933D01*
X89583D01*
G01X88542D02*
X87917Y72000D01*
G01X86242Y75333D02*
X85992Y75733D01*
X85700Y75933D01*
X85367Y76000D01*
X84950Y75867D01*
X84658Y75533D01*
X84575Y75133D01*
X84617Y74733D01*
X84783Y74400D01*
X85617Y73733D01*
X85992Y73267D01*
X86242Y72600D01*
X86325Y72000D01*
X84575D01*
G01X82233D02*
X82150Y72867D01*
X82025Y73600D01*
X81858Y74267D01*
X81650Y75000D01*
X81317Y76000D01*
X82983D01*
G01X89583Y78000D02*
Y82000D01*
X88542D01*
X88208Y81800D01*
X88000Y81533D01*
X87917Y81000D01*
X88000Y80467D01*
X88250Y80133D01*
X88542Y79933D01*
X89583D01*
G01X88542D02*
X87917Y78000D01*
G01X86242Y81333D02*
X85992Y81733D01*
X85700Y81933D01*
X85367Y82000D01*
X84950Y81867D01*
X84658Y81533D01*
X84575Y81133D01*
X84617Y80733D01*
X84783Y80400D01*
X85617Y79733D01*
X85992Y79267D01*
X86242Y78600D01*
X86325Y78000D01*
X84575D01*
G01X82942Y79667D02*
X82650Y80133D01*
X82400Y80400D01*
X82067Y80533D01*
X81775Y80400D01*
X81567Y80133D01*
X81400Y79733D01*
X81358Y79267D01*
X81400Y78867D01*
X81567Y78467D01*
X81817Y78133D01*
X82108Y78000D01*
X82442Y78133D01*
X82733Y78533D01*
X82900Y79133D01*
X82942Y79800D01*
X82858Y80667D01*
X82733Y81133D01*
X82525Y81600D01*
X82233Y81933D01*
X81942Y82000D01*
X81650Y81867D01*
X81442Y81533D01*
G01X117500Y21583D02*
X113500D01*
Y20542D01*
X113700Y20208D01*
X113967Y20000D01*
X114500Y19917D01*
X115033Y20000D01*
X115367Y20250D01*
X115567Y20542D01*
Y21583D01*
G01Y20542D02*
X117500Y19917D01*
G01X114167Y18242D02*
X113767Y17992D01*
X113567Y17700D01*
X113500Y17367D01*
X113633Y16950D01*
X113967Y16658D01*
X114367Y16575D01*
X114767Y16617D01*
X115100Y16783D01*
X115767Y17617D01*
X116233Y17992D01*
X116900Y18242D01*
X117500Y18325D01*
Y16575D01*
G01X113500Y14150D02*
X113633Y14483D01*
X113967Y14733D01*
X114367Y14900D01*
X114900Y15025D01*
X115500Y15067D01*
X116100Y15025D01*
X116633Y14900D01*
X117033Y14733D01*
X117367Y14483D01*
X117500Y14150D01*
X117367Y13817D01*
X117033Y13567D01*
X116633Y13400D01*
X116100Y13275D01*
X115500Y13233D01*
X114900Y13275D01*
X114367Y13400D01*
X113967Y13567D01*
X113633Y13817D01*
X113500Y14150D01*
G01X117833Y91333D02*
X117633Y91583D01*
X117500Y91875D01*
Y92208D01*
X117700Y92583D01*
X118033Y92875D01*
X118433Y93083D01*
X119100Y93250D01*
X119700Y93292D01*
X120300Y93208D01*
X120700Y93083D01*
X121100Y92833D01*
X121367Y92542D01*
X121500Y92250D01*
Y91958D01*
X121367Y91667D01*
X121167Y91417D01*
X120900Y91208D01*
G01X118167Y89742D02*
X117767Y89492D01*
X117567Y89200D01*
X117500Y88867D01*
X117633Y88450D01*
X117967Y88158D01*
X118367Y88075D01*
X118767Y88117D01*
X119100Y88283D01*
X119767Y89117D01*
X120233Y89492D01*
X120900Y89742D01*
X121500Y89825D01*
Y88075D01*
G01X117500Y85650D02*
X117633Y85983D01*
X117967Y86233D01*
X118367Y86400D01*
X118900Y86525D01*
X119500Y86567D01*
X120100Y86525D01*
X120633Y86400D01*
X121033Y86233D01*
X121367Y85983D01*
X121500Y85650D01*
X121367Y85317D01*
X121033Y85067D01*
X120633Y84900D01*
X120100Y84775D01*
X119500Y84733D01*
X118900Y84775D01*
X118367Y84900D01*
X117967Y85067D01*
X117633Y85317D01*
X117500Y85650D01*
G01X125500Y21583D02*
X121500D01*
Y20542D01*
X121700Y20208D01*
X121967Y20000D01*
X122500Y19917D01*
X123033Y20000D01*
X123367Y20250D01*
X123567Y20542D01*
Y21583D01*
G01Y20542D02*
X125500Y19917D01*
G01X122167Y18242D02*
X121767Y17992D01*
X121567Y17700D01*
X121500Y17367D01*
X121633Y16950D01*
X121967Y16658D01*
X122367Y16575D01*
X122767Y16617D01*
X123100Y16783D01*
X123767Y17617D01*
X124233Y17992D01*
X124900Y18242D01*
X125500Y18325D01*
Y16575D01*
G01Y14150D02*
X121500D01*
X122300Y14650D01*
G01X125500D02*
Y13650D01*
G01X121333Y35833D02*
X121133Y36083D01*
X121000Y36375D01*
Y36708D01*
X121200Y37083D01*
X121533Y37375D01*
X121933Y37583D01*
X122600Y37750D01*
X123200Y37792D01*
X123800Y37708D01*
X124200Y37583D01*
X124600Y37333D01*
X124867Y37042D01*
X125000Y36750D01*
Y36458D01*
X124867Y36167D01*
X124667Y35917D01*
X124400Y35708D01*
G01X125000Y33450D02*
X121000D01*
X121800Y33950D01*
G01X125000D02*
Y32950D01*
G01Y30150D02*
X124933Y29858D01*
X124733Y29525D01*
X124400Y29317D01*
X123933Y29233D01*
X123467Y29317D01*
X123067Y29567D01*
X122867Y29942D01*
Y30358D01*
X122733Y30608D01*
X122400Y30817D01*
X121933Y30900D01*
X121467Y30775D01*
X121133Y30483D01*
X121000Y30150D01*
X121133Y29817D01*
X121467Y29525D01*
X121933Y29400D01*
X122400Y29483D01*
X122733Y29692D01*
X122867Y29942D01*
Y30358D01*
X123067Y30733D01*
X123467Y30983D01*
X123933Y31067D01*
X124400Y30983D01*
X124733Y30775D01*
X124933Y30442D01*
X125000Y30150D01*
G01X129333Y62667D02*
X129583Y62867D01*
X129875Y63000D01*
X130208D01*
X130583Y62800D01*
X130875Y62467D01*
X131083Y62067D01*
X131250Y61400D01*
X131292Y60800D01*
X131208Y60200D01*
X131083Y59800D01*
X130833Y59400D01*
X130542Y59133D01*
X130250Y59000D01*
X129958D01*
X129667Y59133D01*
X129417Y59333D01*
X129208Y59600D01*
G01X126950Y59000D02*
Y63000D01*
X127450Y62200D01*
G01Y59000D02*
X126450D01*
G01X124442Y60667D02*
X124150Y61133D01*
X123900Y61400D01*
X123567Y61533D01*
X123275Y61400D01*
X123067Y61133D01*
X122900Y60733D01*
X122858Y60267D01*
X122900Y59867D01*
X123067Y59467D01*
X123317Y59133D01*
X123608Y59000D01*
X123942Y59133D01*
X124233Y59533D01*
X124400Y60133D01*
X124442Y60800D01*
X124358Y61667D01*
X124233Y62133D01*
X124025Y62600D01*
X123733Y62933D01*
X123442Y63000D01*
X123150Y62867D01*
X122942Y62533D01*
G01X125500Y74083D02*
X121500D01*
Y73042D01*
X121700Y72708D01*
X121967Y72500D01*
X122500Y72417D01*
X123033Y72500D01*
X123367Y72750D01*
X123567Y73042D01*
Y74083D01*
G01Y73042D02*
X125500Y72417D01*
G01Y69950D02*
X121500D01*
X122300Y70450D01*
G01X125500D02*
Y69450D01*
G01X125033Y67358D02*
X125367Y67067D01*
X125500Y66733D01*
X125367Y66400D01*
X124967Y66108D01*
X124367Y65900D01*
X123767Y65817D01*
X123033D01*
X122433Y65900D01*
X121900Y66108D01*
X121633Y66358D01*
X121500Y66650D01*
X121633Y66983D01*
X121900Y67233D01*
X122300Y67400D01*
X122833Y67483D01*
X123300Y67400D01*
X123767Y67192D01*
X124033Y66942D01*
X124100Y66650D01*
X123967Y66317D01*
X123633Y66067D01*
X123033Y65817D01*
G01X130500Y74083D02*
X126500D01*
Y73042D01*
X126700Y72708D01*
X126967Y72500D01*
X127500Y72417D01*
X128033Y72500D01*
X128367Y72750D01*
X128567Y73042D01*
Y74083D01*
G01Y73042D02*
X130500Y72417D01*
G01Y69950D02*
X126500D01*
X127300Y70450D01*
G01X130500D02*
Y69450D01*
G01Y66650D02*
X130433Y66358D01*
X130233Y66025D01*
X129900Y65817D01*
X129433Y65733D01*
X128967Y65817D01*
X128567Y66067D01*
X128367Y66442D01*
Y66858D01*
X128233Y67108D01*
X127900Y67317D01*
X127433Y67400D01*
X126967Y67275D01*
X126633Y66983D01*
X126500Y66650D01*
X126633Y66317D01*
X126967Y66025D01*
X127433Y65900D01*
X127900Y65983D01*
X128233Y66192D01*
X128367Y66442D01*
Y66858D01*
X128567Y67233D01*
X128967Y67483D01*
X129433Y67567D01*
X129900Y67483D01*
X130233Y67275D01*
X130433Y66942D01*
X130500Y66650D01*
G01X128833Y80667D02*
X129083Y80867D01*
X129375Y81000D01*
X129708D01*
X130083Y80800D01*
X130375Y80467D01*
X130583Y80067D01*
X130750Y79400D01*
X130792Y78800D01*
X130708Y78200D01*
X130583Y77800D01*
X130333Y77400D01*
X130042Y77133D01*
X129750Y77000D01*
X129458D01*
X129167Y77133D01*
X128917Y77333D01*
X128708Y77600D01*
G01X126450Y77000D02*
Y81000D01*
X126950Y80200D01*
G01Y77000D02*
X125950D01*
G01X123858Y77467D02*
X123567Y77133D01*
X123233Y77000D01*
X122900Y77133D01*
X122608Y77533D01*
X122400Y78133D01*
X122317Y78733D01*
Y79467D01*
X122400Y80067D01*
X122608Y80600D01*
X122858Y80867D01*
X123150Y81000D01*
X123483Y80867D01*
X123733Y80600D01*
X123900Y80200D01*
X123983Y79667D01*
X123900Y79200D01*
X123692Y78733D01*
X123442Y78467D01*
X123150Y78400D01*
X122817Y78533D01*
X122567Y78867D01*
X122317Y79467D01*
G01X130833Y91333D02*
X130633Y91583D01*
X130500Y91875D01*
Y92208D01*
X130700Y92583D01*
X131033Y92875D01*
X131433Y93083D01*
X132100Y93250D01*
X132700Y93292D01*
X133300Y93208D01*
X133700Y93083D01*
X134100Y92833D01*
X134367Y92542D01*
X134500Y92250D01*
Y91958D01*
X134367Y91667D01*
X134167Y91417D01*
X133900Y91208D01*
G01X134500Y88950D02*
X130500D01*
X131300Y89450D01*
G01X134500D02*
Y88450D01*
G01Y85733D02*
X133633Y85650D01*
X132900Y85525D01*
X132233Y85358D01*
X131500Y85150D01*
X130500Y84817D01*
Y86483D01*
G01X148083Y75500D02*
Y79500D01*
X147042D01*
X146708Y79300D01*
X146500Y79033D01*
X146417Y78500D01*
X146500Y77967D01*
X146750Y77633D01*
X147042Y77433D01*
X148083D01*
G01X147042D02*
X146417Y75500D01*
G01X143950D02*
Y79500D01*
X144450Y78700D01*
G01Y75500D02*
X143450D01*
G01X141442Y77167D02*
X141150Y77633D01*
X140900Y77900D01*
X140567Y78033D01*
X140275Y77900D01*
X140067Y77633D01*
X139900Y77233D01*
X139858Y76767D01*
X139900Y76367D01*
X140067Y75967D01*
X140317Y75633D01*
X140608Y75500D01*
X140942Y75633D01*
X141233Y76033D01*
X141400Y76633D01*
X141442Y77300D01*
X141358Y78167D01*
X141233Y78633D01*
X141025Y79100D01*
X140733Y79433D01*
X140442Y79500D01*
X140150Y79367D01*
X139942Y79033D01*
G01X151583Y35000D02*
Y39000D01*
X150542D01*
X150208Y38800D01*
X150000Y38533D01*
X149917Y38000D01*
X150000Y37467D01*
X150250Y37133D01*
X150542Y36933D01*
X151583D01*
G01X150542D02*
X149917Y35000D01*
G01X147450D02*
Y39000D01*
X147950Y38200D01*
G01Y35000D02*
X146950D01*
G01X144150Y39000D02*
X144483Y38867D01*
X144733Y38533D01*
X144900Y38133D01*
X145025Y37600D01*
X145067Y37000D01*
X145025Y36400D01*
X144900Y35867D01*
X144733Y35467D01*
X144483Y35133D01*
X144150Y35000D01*
X143817Y35133D01*
X143567Y35467D01*
X143400Y35867D01*
X143275Y36400D01*
X143233Y37000D01*
X143275Y37600D01*
X143400Y38133D01*
X143567Y38533D01*
X143817Y38867D01*
X144150Y39000D01*
G01X150333Y114167D02*
X150583Y114367D01*
X150875Y114500D01*
X151208D01*
X151583Y114300D01*
X151875Y113967D01*
X152083Y113567D01*
X152250Y112900D01*
X152292Y112300D01*
X152208Y111700D01*
X152083Y111300D01*
X151833Y110900D01*
X151542Y110633D01*
X151250Y110500D01*
X150958D01*
X150667Y110633D01*
X150417Y110833D01*
X150208Y111100D01*
G01X148867D02*
X148617Y110767D01*
X148325Y110567D01*
X147950Y110500D01*
X147575Y110633D01*
X147283Y110900D01*
X147075Y111367D01*
X147033Y111900D01*
X147117Y112433D01*
X147325Y112767D01*
X147617Y113033D01*
X147908Y113100D01*
X148200Y113033D01*
X148575Y112767D01*
X148450Y114500D01*
X147325D01*
G01X145442Y113833D02*
X145192Y114233D01*
X144900Y114433D01*
X144567Y114500D01*
X144150Y114367D01*
X143858Y114033D01*
X143775Y113633D01*
X143817Y113233D01*
X143983Y112900D01*
X144817Y112233D01*
X145192Y111767D01*
X145442Y111100D01*
X145525Y110500D01*
X143775D01*
G01X150083Y130500D02*
Y126500D01*
X148417D01*
G01X145950D02*
Y130500D01*
X146450Y129700D01*
G01Y126500D02*
X145450D01*
G01X143442Y129833D02*
X143192Y130233D01*
X142900Y130433D01*
X142567Y130500D01*
X142150Y130367D01*
X141858Y130033D01*
X141775Y129633D01*
X141817Y129233D01*
X141983Y128900D01*
X142817Y128233D01*
X143192Y127767D01*
X143442Y127100D01*
X143525Y126500D01*
X141775D01*
G01X147833Y147167D02*
X148083Y147367D01*
X148375Y147500D01*
X148708D01*
X149083Y147300D01*
X149375Y146967D01*
X149583Y146567D01*
X149750Y145900D01*
X149792Y145300D01*
X149708Y144700D01*
X149583Y144300D01*
X149333Y143900D01*
X149042Y143633D01*
X148750Y143500D01*
X148458D01*
X148167Y143633D01*
X147917Y143833D01*
X147708Y144100D01*
G01X144950Y143500D02*
Y147500D01*
X146492Y144633D01*
X144408D01*
G01X142942Y146833D02*
X142692Y147233D01*
X142400Y147433D01*
X142067Y147500D01*
X141650Y147367D01*
X141358Y147033D01*
X141275Y146633D01*
X141317Y146233D01*
X141483Y145900D01*
X142317Y145233D01*
X142692Y144767D01*
X142942Y144100D01*
X143025Y143500D01*
X141275D01*
G01X151583Y154500D02*
Y158500D01*
X150542D01*
X150208Y158300D01*
X150000Y158033D01*
X149917Y157500D01*
X150000Y156967D01*
X150250Y156633D01*
X150542Y156433D01*
X151583D01*
G01X150542D02*
X149917Y154500D01*
G01X148367Y155300D02*
X148117Y154833D01*
X147783Y154567D01*
X147408Y154500D01*
X147075Y154567D01*
X146742Y154900D01*
X146533Y155300D01*
X146492Y155700D01*
X146575Y156167D01*
X146867Y156500D01*
X147158Y156633D01*
X147533D01*
G01X147158D02*
X146908Y156833D01*
X146700Y157167D01*
X146617Y157567D01*
X146700Y157967D01*
X146908Y158300D01*
X147283Y158500D01*
X147658Y158433D01*
X148033Y158167D01*
G01X145067Y155300D02*
X144817Y154833D01*
X144483Y154567D01*
X144108Y154500D01*
X143775Y154567D01*
X143442Y154900D01*
X143233Y155300D01*
X143192Y155700D01*
X143275Y156167D01*
X143567Y156500D01*
X143858Y156633D01*
X144233D01*
G01X143858D02*
X143608Y156833D01*
X143400Y157167D01*
X143317Y157567D01*
X143400Y157967D01*
X143608Y158300D01*
X143983Y158500D01*
X144358Y158433D01*
X144733Y158167D01*
G01X151583Y149000D02*
Y153000D01*
X150542D01*
X150208Y152800D01*
X150000Y152533D01*
X149917Y152000D01*
X150000Y151467D01*
X150250Y151133D01*
X150542Y150933D01*
X151583D01*
G01X150542D02*
X149917Y149000D01*
G01X148367Y149800D02*
X148117Y149333D01*
X147783Y149067D01*
X147408Y149000D01*
X147075Y149067D01*
X146742Y149400D01*
X146533Y149800D01*
X146492Y150200D01*
X146575Y150667D01*
X146867Y151000D01*
X147158Y151133D01*
X147533D01*
G01X147158D02*
X146908Y151333D01*
X146700Y151667D01*
X146617Y152067D01*
X146700Y152467D01*
X146908Y152800D01*
X147283Y153000D01*
X147658Y152933D01*
X148033Y152667D01*
G01X144942Y152333D02*
X144692Y152733D01*
X144400Y152933D01*
X144067Y153000D01*
X143650Y152867D01*
X143358Y152533D01*
X143275Y152133D01*
X143317Y151733D01*
X143483Y151400D01*
X144317Y150733D01*
X144692Y150267D01*
X144942Y149600D01*
X145025Y149000D01*
X143275D01*
G01X159833Y64667D02*
X160083Y64867D01*
X160375Y65000D01*
X160708D01*
X161083Y64800D01*
X161375Y64467D01*
X161583Y64067D01*
X161750Y63400D01*
X161792Y62800D01*
X161708Y62200D01*
X161583Y61800D01*
X161333Y61400D01*
X161042Y61133D01*
X160750Y61000D01*
X160458D01*
X160167Y61133D01*
X159917Y61333D01*
X159708Y61600D01*
G01X157450Y61000D02*
Y65000D01*
X157950Y64200D01*
G01Y61000D02*
X156950D01*
G01X154942Y64333D02*
X154692Y64733D01*
X154400Y64933D01*
X154067Y65000D01*
X153650Y64867D01*
X153358Y64533D01*
X153275Y64133D01*
X153317Y63733D01*
X153483Y63400D01*
X154317Y62733D01*
X154692Y62267D01*
X154942Y61600D01*
X155025Y61000D01*
X153275D01*
G01X160083Y75500D02*
Y79500D01*
X159042D01*
X158708Y79300D01*
X158500Y79033D01*
X158417Y78500D01*
X158500Y77967D01*
X158750Y77633D01*
X159042Y77433D01*
X160083D01*
G01X159042D02*
X158417Y75500D01*
G01X155950D02*
Y79500D01*
X156450Y78700D01*
G01Y75500D02*
X155450D01*
G01X153567Y76100D02*
X153317Y75767D01*
X153025Y75567D01*
X152650Y75500D01*
X152275Y75633D01*
X151983Y75900D01*
X151775Y76367D01*
X151733Y76900D01*
X151817Y77433D01*
X152025Y77767D01*
X152317Y78033D01*
X152608Y78100D01*
X152900Y78033D01*
X153275Y77767D01*
X153150Y79500D01*
X152025D01*
G01X162583Y35000D02*
Y39000D01*
X161542D01*
X161208Y38800D01*
X161000Y38533D01*
X160917Y38000D01*
X161000Y37467D01*
X161250Y37133D01*
X161542Y36933D01*
X162583D01*
G01X161542D02*
X160917Y35000D01*
G01X158450D02*
Y39000D01*
X158950Y38200D01*
G01Y35000D02*
X157950D01*
G01X155942Y38333D02*
X155692Y38733D01*
X155400Y38933D01*
X155067Y39000D01*
X154650Y38867D01*
X154358Y38533D01*
X154275Y38133D01*
X154317Y37733D01*
X154483Y37400D01*
X155317Y36733D01*
X155692Y36267D01*
X155942Y35600D01*
X156025Y35000D01*
X154275D01*
G01X162583Y29000D02*
Y33000D01*
X161542D01*
X161208Y32800D01*
X161000Y32533D01*
X160917Y32000D01*
X161000Y31467D01*
X161250Y31133D01*
X161542Y30933D01*
X162583D01*
G01X161542D02*
X160917Y29000D01*
G01X158450D02*
Y33000D01*
X158950Y32200D01*
G01Y29000D02*
X157950D01*
G01X155150D02*
Y33000D01*
X155650Y32200D01*
G01Y29000D02*
X154650D01*
G01X172083Y34000D02*
Y38000D01*
X171042D01*
X170708Y37800D01*
X170500Y37533D01*
X170417Y37000D01*
X170500Y36467D01*
X170750Y36133D01*
X171042Y35933D01*
X172083D01*
G01X171042D02*
X170417Y34000D01*
G01X168742Y35667D02*
X168450Y36133D01*
X168200Y36400D01*
X167867Y36533D01*
X167575Y36400D01*
X167367Y36133D01*
X167200Y35733D01*
X167158Y35267D01*
X167200Y34867D01*
X167367Y34467D01*
X167617Y34133D01*
X167908Y34000D01*
X168242Y34133D01*
X168533Y34533D01*
X168700Y35133D01*
X168742Y35800D01*
X168658Y36667D01*
X168533Y37133D01*
X168325Y37600D01*
X168033Y37933D01*
X167742Y38000D01*
X167450Y37867D01*
X167242Y37533D01*
G01X169583Y52000D02*
Y56000D01*
X168542D01*
X168208Y55800D01*
X168000Y55533D01*
X167917Y55000D01*
X168000Y54467D01*
X168250Y54133D01*
X168542Y53933D01*
X169583D01*
G01X168542D02*
X167917Y52000D01*
G01X165450D02*
Y56000D01*
X165950Y55200D01*
G01Y52000D02*
X164950D01*
G01X175583Y137500D02*
Y141500D01*
X174542D01*
X174208Y141300D01*
X174000Y141033D01*
X173917Y140500D01*
X174000Y139967D01*
X174250Y139633D01*
X174542Y139433D01*
X175583D01*
G01X174542D02*
X173917Y137500D01*
G01X172367Y138300D02*
X172117Y137833D01*
X171783Y137567D01*
X171408Y137500D01*
X171075Y137567D01*
X170742Y137900D01*
X170533Y138300D01*
X170492Y138700D01*
X170575Y139167D01*
X170867Y139500D01*
X171158Y139633D01*
X171533D01*
G01X171158D02*
X170908Y139833D01*
X170700Y140167D01*
X170617Y140567D01*
X170700Y140967D01*
X170908Y141300D01*
X171283Y141500D01*
X171658Y141433D01*
X172033Y141167D01*
G01X168233Y137500D02*
X168150Y138367D01*
X168025Y139100D01*
X167858Y139767D01*
X167650Y140500D01*
X167317Y141500D01*
X168983D01*
G01X173333Y152667D02*
X173583Y152867D01*
X173875Y153000D01*
X174208D01*
X174583Y152800D01*
X174875Y152467D01*
X175083Y152067D01*
X175250Y151400D01*
X175292Y150800D01*
X175208Y150200D01*
X175083Y149800D01*
X174833Y149400D01*
X174542Y149133D01*
X174250Y149000D01*
X173958D01*
X173667Y149133D01*
X173417Y149333D01*
X173208Y149600D01*
G01X171867Y149800D02*
X171617Y149333D01*
X171283Y149067D01*
X170908Y149000D01*
X170575Y149067D01*
X170242Y149400D01*
X170033Y149800D01*
X169992Y150200D01*
X170075Y150667D01*
X170367Y151000D01*
X170658Y151133D01*
X171033D01*
G01X170658D02*
X170408Y151333D01*
X170200Y151667D01*
X170117Y152067D01*
X170200Y152467D01*
X170408Y152800D01*
X170783Y153000D01*
X171158Y152933D01*
X171533Y152667D01*
G01X167733Y149000D02*
X167650Y149867D01*
X167525Y150600D01*
X167358Y151267D01*
X167150Y152000D01*
X166817Y153000D01*
X168483D01*
G01X174000Y22083D02*
X170000D01*
Y21042D01*
X170200Y20708D01*
X170467Y20500D01*
X171000Y20417D01*
X171533Y20500D01*
X171867Y20750D01*
X172067Y21042D01*
Y22083D01*
G01Y21042D02*
X174000Y20417D01*
G01X173200Y18867D02*
X173667Y18617D01*
X173933Y18283D01*
X174000Y17908D01*
X173933Y17575D01*
X173600Y17242D01*
X173200Y17033D01*
X172800Y16992D01*
X172333Y17075D01*
X172000Y17367D01*
X171867Y17658D01*
Y18033D01*
G01Y17658D02*
X171667Y17408D01*
X171333Y17200D01*
X170933Y17117D01*
X170533Y17200D01*
X170200Y17408D01*
X170000Y17783D01*
X170067Y18158D01*
X170333Y18533D01*
G01X172333Y15442D02*
X171867Y15150D01*
X171600Y14900D01*
X171467Y14567D01*
X171600Y14275D01*
X171867Y14067D01*
X172267Y13900D01*
X172733Y13858D01*
X173133Y13900D01*
X173533Y14067D01*
X173867Y14317D01*
X174000Y14608D01*
X173867Y14942D01*
X173467Y15233D01*
X172867Y15400D01*
X172200Y15442D01*
X171333Y15358D01*
X170867Y15233D01*
X170400Y15025D01*
X170067Y14733D01*
X170000Y14442D01*
X170133Y14150D01*
X170467Y13942D01*
G01X180583Y52000D02*
Y56000D01*
X179542D01*
X179208Y55800D01*
X179000Y55533D01*
X178917Y55000D01*
X179000Y54467D01*
X179250Y54133D01*
X179542Y53933D01*
X180583D01*
G01X179542D02*
X178917Y52000D01*
G01X176450D02*
Y56000D01*
X176950Y55200D01*
G01Y52000D02*
X175950D01*
G01X172650D02*
Y56000D01*
X174192Y53133D01*
X172108D01*
G01X176083Y132000D02*
Y136000D01*
X175042D01*
X174708Y135800D01*
X174500Y135533D01*
X174417Y135000D01*
X174500Y134467D01*
X174750Y134133D01*
X175042Y133933D01*
X176083D01*
G01X175042D02*
X174417Y132000D01*
G01X172867Y132800D02*
X172617Y132333D01*
X172283Y132067D01*
X171908Y132000D01*
X171575Y132067D01*
X171242Y132400D01*
X171033Y132800D01*
X170992Y133200D01*
X171075Y133667D01*
X171367Y134000D01*
X171658Y134133D01*
X172033D01*
G01X171658D02*
X171408Y134333D01*
X171200Y134667D01*
X171117Y135067D01*
X171200Y135467D01*
X171408Y135800D01*
X171783Y136000D01*
X172158Y135933D01*
X172533Y135667D01*
G01X168650Y132000D02*
X168358Y132067D01*
X168025Y132267D01*
X167817Y132600D01*
X167733Y133067D01*
X167817Y133533D01*
X168067Y133933D01*
X168442Y134133D01*
X168858D01*
X169108Y134267D01*
X169317Y134600D01*
X169400Y135067D01*
X169275Y135533D01*
X168983Y135867D01*
X168650Y136000D01*
X168317Y135867D01*
X168025Y135533D01*
X167900Y135067D01*
X167983Y134600D01*
X168192Y134267D01*
X168442Y134133D01*
X168858D01*
X169233Y133933D01*
X169483Y133533D01*
X169567Y133067D01*
X169483Y132600D01*
X169275Y132267D01*
X168942Y132067D01*
X168650Y132000D01*
G01X178333Y37667D02*
X178583Y37867D01*
X178875Y38000D01*
X179208D01*
X179583Y37800D01*
X179875Y37467D01*
X180083Y37067D01*
X180250Y36400D01*
X180292Y35800D01*
X180208Y35200D01*
X180083Y34800D01*
X179833Y34400D01*
X179542Y34133D01*
X179250Y34000D01*
X178958D01*
X178667Y34133D01*
X178417Y34333D01*
X178208Y34600D01*
G01X175950Y34000D02*
X175658Y34067D01*
X175325Y34267D01*
X175117Y34600D01*
X175033Y35067D01*
X175117Y35533D01*
X175367Y35933D01*
X175742Y36133D01*
X176158D01*
X176408Y36267D01*
X176617Y36600D01*
X176700Y37067D01*
X176575Y37533D01*
X176283Y37867D01*
X175950Y38000D01*
X175617Y37867D01*
X175325Y37533D01*
X175200Y37067D01*
X175283Y36600D01*
X175492Y36267D01*
X175742Y36133D01*
X176158D01*
X176533Y35933D01*
X176783Y35533D01*
X176867Y35067D01*
X176783Y34600D01*
X176575Y34267D01*
X176242Y34067D01*
X175950Y34000D01*
G01X179083Y57000D02*
Y61000D01*
X178042D01*
X177708Y60800D01*
X177500Y60533D01*
X177417Y60000D01*
X177500Y59467D01*
X177750Y59133D01*
X178042Y58933D01*
X179083D01*
G01X178042D02*
X177417Y57000D01*
G01X175658Y57467D02*
X175367Y57133D01*
X175033Y57000D01*
X174700Y57133D01*
X174408Y57533D01*
X174200Y58133D01*
X174117Y58733D01*
Y59467D01*
X174200Y60067D01*
X174408Y60600D01*
X174658Y60867D01*
X174950Y61000D01*
X175283Y60867D01*
X175533Y60600D01*
X175700Y60200D01*
X175783Y59667D01*
X175700Y59200D01*
X175492Y58733D01*
X175242Y58467D01*
X174950Y58400D01*
X174617Y58533D01*
X174367Y58867D01*
X174117Y59467D01*
G01X179083Y62000D02*
Y66000D01*
X178042D01*
X177708Y65800D01*
X177500Y65533D01*
X177417Y65000D01*
X177500Y64467D01*
X177750Y64133D01*
X178042Y63933D01*
X179083D01*
G01X178042D02*
X177417Y62000D01*
G01X175867Y62600D02*
X175617Y62267D01*
X175325Y62067D01*
X174950Y62000D01*
X174575Y62133D01*
X174283Y62400D01*
X174075Y62867D01*
X174033Y63400D01*
X174117Y63933D01*
X174325Y64267D01*
X174617Y64533D01*
X174908Y64600D01*
X175200Y64533D01*
X175575Y64267D01*
X175450Y66000D01*
X174325D01*
G01X177333Y70667D02*
X177583Y70867D01*
X177875Y71000D01*
X178208D01*
X178583Y70800D01*
X178875Y70467D01*
X179083Y70067D01*
X179250Y69400D01*
X179292Y68800D01*
X179208Y68200D01*
X179083Y67800D01*
X178833Y67400D01*
X178542Y67133D01*
X178250Y67000D01*
X177958D01*
X177667Y67133D01*
X177417Y67333D01*
X177208Y67600D01*
G01X175867D02*
X175617Y67267D01*
X175325Y67067D01*
X174950Y67000D01*
X174575Y67133D01*
X174283Y67400D01*
X174075Y67867D01*
X174033Y68400D01*
X174117Y68933D01*
X174325Y69267D01*
X174617Y69533D01*
X174908Y69600D01*
X175200Y69533D01*
X175575Y69267D01*
X175450Y71000D01*
X174325D01*
G01X185583Y108000D02*
Y112000D01*
X184542D01*
X184208Y111800D01*
X184000Y111533D01*
X183917Y111000D01*
X184000Y110467D01*
X184250Y110133D01*
X184542Y109933D01*
X185583D01*
G01X184542D02*
X183917Y108000D01*
G01X180950D02*
Y112000D01*
X182492Y109133D01*
X180408D01*
G01X178150Y112000D02*
X178483Y111867D01*
X178733Y111533D01*
X178900Y111133D01*
X179025Y110600D01*
X179067Y110000D01*
X179025Y109400D01*
X178900Y108867D01*
X178733Y108467D01*
X178483Y108133D01*
X178150Y108000D01*
X177817Y108133D01*
X177567Y108467D01*
X177400Y108867D01*
X177275Y109400D01*
X177233Y110000D01*
X177275Y110600D01*
X177400Y111133D01*
X177567Y111533D01*
X177817Y111867D01*
X178150Y112000D01*
G01X185583Y114000D02*
Y118000D01*
X184542D01*
X184208Y117800D01*
X184000Y117533D01*
X183917Y117000D01*
X184000Y116467D01*
X184250Y116133D01*
X184542Y115933D01*
X185583D01*
G01X184542D02*
X183917Y114000D01*
G01X180950D02*
Y118000D01*
X182492Y115133D01*
X180408D01*
G01X179067Y114600D02*
X178817Y114267D01*
X178525Y114067D01*
X178150Y114000D01*
X177775Y114133D01*
X177483Y114400D01*
X177275Y114867D01*
X177233Y115400D01*
X177317Y115933D01*
X177525Y116267D01*
X177817Y116533D01*
X178108Y116600D01*
X178400Y116533D01*
X178775Y116267D01*
X178650Y118000D01*
X177525D01*
G01X185583Y120000D02*
Y124000D01*
X184542D01*
X184208Y123800D01*
X184000Y123533D01*
X183917Y123000D01*
X184000Y122467D01*
X184250Y122133D01*
X184542Y121933D01*
X185583D01*
G01X184542D02*
X183917Y120000D01*
G01X180950D02*
Y124000D01*
X182492Y121133D01*
X180408D01*
G01X177650Y120000D02*
Y124000D01*
X179192Y121133D01*
X177108D01*
G01X189167Y20000D02*
Y24000D01*
X188333D01*
X188000Y23800D01*
X187750Y23533D01*
X187542Y23133D01*
X187375Y22667D01*
X187333Y22000D01*
X187375Y21333D01*
X187542Y20867D01*
X187750Y20467D01*
X188000Y20200D01*
X188333Y20000D01*
X189167D01*
G01X185742Y21667D02*
X185450Y22133D01*
X185200Y22400D01*
X184867Y22533D01*
X184575Y22400D01*
X184367Y22133D01*
X184200Y21733D01*
X184158Y21267D01*
X184200Y20867D01*
X184367Y20467D01*
X184617Y20133D01*
X184908Y20000D01*
X185242Y20133D01*
X185533Y20533D01*
X185700Y21133D01*
X185742Y21800D01*
X185658Y22667D01*
X185533Y23133D01*
X185325Y23600D01*
X185033Y23933D01*
X184742Y24000D01*
X184450Y23867D01*
X184242Y23533D01*
G01X190667Y80500D02*
Y84500D01*
X189833D01*
X189500Y84300D01*
X189250Y84033D01*
X189042Y83633D01*
X188875Y83167D01*
X188833Y82500D01*
X188875Y81833D01*
X189042Y81367D01*
X189250Y80967D01*
X189500Y80700D01*
X189833Y80500D01*
X190667D01*
G01X186533D02*
X186450Y81367D01*
X186325Y82100D01*
X186158Y82767D01*
X185950Y83500D01*
X185617Y84500D01*
X187283D01*
G01X192333Y156833D02*
X192133Y157083D01*
X192000Y157375D01*
Y157708D01*
X192200Y158083D01*
X192533Y158375D01*
X192933Y158583D01*
X193600Y158750D01*
X194200Y158792D01*
X194800Y158708D01*
X195200Y158583D01*
X195600Y158333D01*
X195867Y158042D01*
X196000Y157750D01*
Y157458D01*
X195867Y157167D01*
X195667Y156917D01*
X195400Y156708D01*
G01X195200Y155367D02*
X195667Y155117D01*
X195933Y154783D01*
X196000Y154408D01*
X195933Y154075D01*
X195600Y153742D01*
X195200Y153533D01*
X194800Y153492D01*
X194333Y153575D01*
X194000Y153867D01*
X193867Y154158D01*
Y154533D01*
G01Y154158D02*
X193667Y153908D01*
X193333Y153700D01*
X192933Y153617D01*
X192533Y153700D01*
X192200Y153908D01*
X192000Y154283D01*
X192067Y154658D01*
X192333Y155033D01*
G01X196000Y151150D02*
X195933Y150858D01*
X195733Y150525D01*
X195400Y150317D01*
X194933Y150233D01*
X194467Y150317D01*
X194067Y150567D01*
X193867Y150942D01*
Y151358D01*
X193733Y151608D01*
X193400Y151817D01*
X192933Y151900D01*
X192467Y151775D01*
X192133Y151483D01*
X192000Y151150D01*
X192133Y150817D01*
X192467Y150525D01*
X192933Y150400D01*
X193400Y150483D01*
X193733Y150692D01*
X193867Y150942D01*
Y151358D01*
X194067Y151733D01*
X194467Y151983D01*
X194933Y152067D01*
X195400Y151983D01*
X195733Y151775D01*
X195933Y151442D01*
X196000Y151150D01*
G01X204583Y29000D02*
Y33000D01*
X203542D01*
X203208Y32800D01*
X203000Y32533D01*
X202917Y32000D01*
X203000Y31467D01*
X203250Y31133D01*
X203542Y30933D01*
X204583D01*
G01X203542D02*
X202917Y29000D01*
G01X200450D02*
X200158Y29067D01*
X199825Y29267D01*
X199617Y29600D01*
X199533Y30067D01*
X199617Y30533D01*
X199867Y30933D01*
X200242Y31133D01*
X200658D01*
X200908Y31267D01*
X201117Y31600D01*
X201200Y32067D01*
X201075Y32533D01*
X200783Y32867D01*
X200450Y33000D01*
X200117Y32867D01*
X199825Y32533D01*
X199700Y32067D01*
X199783Y31600D01*
X199992Y31267D01*
X200242Y31133D01*
X200658D01*
X201033Y30933D01*
X201283Y30533D01*
X201367Y30067D01*
X201283Y29600D01*
X201075Y29267D01*
X200742Y29067D01*
X200450Y29000D01*
G01X205083Y80500D02*
Y84500D01*
X204042D01*
X203708Y84300D01*
X203500Y84033D01*
X203417Y83500D01*
X203500Y82967D01*
X203750Y82633D01*
X204042Y82433D01*
X205083D01*
G01X204042D02*
X203417Y80500D01*
G01X200950D02*
Y84500D01*
X201450Y83700D01*
G01Y80500D02*
X200450D01*
G01X198567Y81300D02*
X198317Y80833D01*
X197983Y80567D01*
X197608Y80500D01*
X197275Y80567D01*
X196942Y80900D01*
X196733Y81300D01*
X196692Y81700D01*
X196775Y82167D01*
X197067Y82500D01*
X197358Y82633D01*
X197733D01*
G01X197358D02*
X197108Y82833D01*
X196900Y83167D01*
X196817Y83567D01*
X196900Y83967D01*
X197108Y84300D01*
X197483Y84500D01*
X197858Y84433D01*
X198233Y84167D01*
G01X205083Y86000D02*
Y90000D01*
X204042D01*
X203708Y89800D01*
X203500Y89533D01*
X203417Y89000D01*
X203500Y88467D01*
X203750Y88133D01*
X204042Y87933D01*
X205083D01*
G01X204042D02*
X203417Y86000D01*
G01X201033D02*
X200950Y86867D01*
X200825Y87600D01*
X200658Y88267D01*
X200450Y89000D01*
X200117Y90000D01*
X201783D01*
G01X210333Y32667D02*
X210583Y32867D01*
X210875Y33000D01*
X211208D01*
X211583Y32800D01*
X211875Y32467D01*
X212083Y32067D01*
X212250Y31400D01*
X212292Y30800D01*
X212208Y30200D01*
X212083Y29800D01*
X211833Y29400D01*
X211542Y29133D01*
X211250Y29000D01*
X210958D01*
X210667Y29133D01*
X210417Y29333D01*
X210208Y29600D01*
G01X207450Y29000D02*
Y33000D01*
X208992Y30133D01*
X206908D01*
G01X216333Y78667D02*
X216583Y78867D01*
X216875Y79000D01*
X217208D01*
X217583Y78800D01*
X217875Y78467D01*
X218083Y78067D01*
X218250Y77400D01*
X218292Y76800D01*
X218208Y76200D01*
X218083Y75800D01*
X217833Y75400D01*
X217542Y75133D01*
X217250Y75000D01*
X216958D01*
X216667Y75133D01*
X216417Y75333D01*
X216208Y75600D01*
G01X214867Y75800D02*
X214617Y75333D01*
X214283Y75067D01*
X213908Y75000D01*
X213575Y75067D01*
X213242Y75400D01*
X213033Y75800D01*
X212992Y76200D01*
X213075Y76667D01*
X213367Y77000D01*
X213658Y77133D01*
X214033D01*
G01X213658D02*
X213408Y77333D01*
X213200Y77667D01*
X213117Y78067D01*
X213200Y78467D01*
X213408Y78800D01*
X213783Y79000D01*
X214158Y78933D01*
X214533Y78667D01*
G01X224833Y38667D02*
X225083Y38867D01*
X225375Y39000D01*
X225708D01*
X226083Y38800D01*
X226375Y38467D01*
X226583Y38067D01*
X226750Y37400D01*
X226792Y36800D01*
X226708Y36200D01*
X226583Y35800D01*
X226333Y35400D01*
X226042Y35133D01*
X225750Y35000D01*
X225458D01*
X225167Y35133D01*
X224917Y35333D01*
X224708Y35600D01*
G01X222450Y35000D02*
Y39000D01*
X222950Y38200D01*
G01Y35000D02*
X221950D01*
G01X219150D02*
Y39000D01*
X219650Y38200D01*
G01Y35000D02*
X218650D01*
G01X227083Y160000D02*
Y164000D01*
X226042D01*
X225708Y163800D01*
X225500Y163533D01*
X225417Y163000D01*
X225500Y162467D01*
X225750Y162133D01*
X226042Y161933D01*
X227083D01*
G01X226042D02*
X225417Y160000D01*
G01X223867Y160800D02*
X223617Y160333D01*
X223283Y160067D01*
X222908Y160000D01*
X222575Y160067D01*
X222242Y160400D01*
X222033Y160800D01*
X221992Y161200D01*
X222075Y161667D01*
X222367Y162000D01*
X222658Y162133D01*
X223033D01*
G01X222658D02*
X222408Y162333D01*
X222200Y162667D01*
X222117Y163067D01*
X222200Y163467D01*
X222408Y163800D01*
X222783Y164000D01*
X223158Y163933D01*
X223533Y163667D01*
G01X219150Y160000D02*
Y164000D01*
X220692Y161133D01*
X218608D01*
G01X224333Y65167D02*
X224583Y65367D01*
X224875Y65500D01*
X225208D01*
X225583Y65300D01*
X225875Y64967D01*
X226083Y64567D01*
X226250Y63900D01*
X226292Y63300D01*
X226208Y62700D01*
X226083Y62300D01*
X225833Y61900D01*
X225542Y61633D01*
X225250Y61500D01*
X224958D01*
X224667Y61633D01*
X224417Y61833D01*
X224208Y62100D01*
G01X221950Y61500D02*
Y65500D01*
X222450Y64700D01*
G01Y61500D02*
X221450D01*
G01X252542Y51000D02*
Y55000D01*
X250958D01*
G01X251542Y53067D02*
X252542D01*
G01X248450Y51000D02*
Y55000D01*
X248950Y54200D01*
G01Y51000D02*
X247950D01*
G01X265583Y69500D02*
Y73500D01*
X264542D01*
X264208Y73300D01*
X264000Y73033D01*
X263917Y72500D01*
X264000Y71967D01*
X264250Y71633D01*
X264542Y71433D01*
X265583D01*
G01X264542D02*
X263917Y69500D01*
G01X262242Y72833D02*
X261992Y73233D01*
X261700Y73433D01*
X261367Y73500D01*
X260950Y73367D01*
X260658Y73033D01*
X260575Y72633D01*
X260617Y72233D01*
X260783Y71900D01*
X261617Y71233D01*
X261992Y70767D01*
X262242Y70100D01*
X262325Y69500D01*
X260575D01*
M02*
