G04 ================== begin FILE IDENTIFICATION RECORD ==================*
G04 Layout Name:  F:/Ñ¸À×ÏÂÔØ/39_CUITBIKE/v1.1/PCB_MSP430/CUITBIKE_V1.1_MSP430.brd*
G04 Film Name:    SilkScreen_Top*
G04 File Format:  Gerber RS274X*
G04 File Origin:  Cadence Allegro 16.6-2015-S060*
G04 Origin Date:  Fri Jan 08 17:34:13 2016*
G04 *
G04 Layer:  REF DES/SILKSCREEN_TOP*
G04 Layer:  PACKAGE GEOMETRY/SILKSCREEN_TOP*
G04 Layer:  BOARD GEOMETRY/SILKSCREEN_TOP*
G04 *
G04 Offset:    (0.0000 0.0000)*
G04 Mirror:    No*
G04 Mode:      Positive*
G04 Rotation:  0*
G04 FullContactRelief:  No*
G04 UndefLineWidth:     0.1524*
G04 ================== end FILE IDENTIFICATION RECORD ====================*
%FSLAX25Y25*MOIN*%
%IR0*IPPOS*OFA0.00000B0.00000*MIA0B0*SFA1.00000B1.00000*%
%ADD10C,.008*%
%ADD11C,.005*%
%ADD12C,.01*%
%ADD13C,.007*%
%ADD14C,.006*%
G75*
%LPD*%
G75*
G36*
G01X33678Y44887D02*
G03I-2178J0D01*
G37*
G36*
G01X55414Y94000D02*
G03I-1414J0D01*
G37*
G36*
G01Y128000D02*
G03I-1414J0D01*
G37*
G36*
G01X71118Y148500D02*
G03I-1118J0D01*
G37*
G36*
G01X96500Y42500D02*
G03I-1000J0D01*
G37*
G36*
G01X152640Y83059D02*
G03I-1581J0D01*
G37*
G36*
G01X150914Y126500D02*
G03I-1414J0D01*
G37*
G36*
G01X179500Y153500D02*
Y104500D01*
X243500D01*
Y153500D01*
X179500D01*
G37*
G36*
G01X203563Y42583D02*
G03I-787J0D01*
G37*
G36*
G01X246500Y48500D02*
G03I-1000J0D01*
G37*
G36*
G01X264178Y121087D02*
G03I-2178J0D01*
G37*
G36*
G01X184966Y112087D02*
G03I-1623J0D01*
G37*
G54D10*
G01X111500Y15000D02*
Y1000D01*
X118500D01*
Y15000D01*
X111500D01*
G01X119500D02*
Y1000D01*
X126500D01*
Y15000D01*
X119500D01*
G01X168500D02*
Y1000D01*
X175500D01*
Y15000D01*
X168500D01*
G01X216000Y164000D02*
X230000D01*
Y171000D01*
X216000D01*
Y164000D01*
G01X254500Y75000D02*
X268500D01*
Y82000D01*
X254500D01*
Y75000D01*
G54D11*
G01X220100Y24800D02*
X194900D01*
G01Y41200D02*
X220100D01*
G01X220600Y68300D02*
X195400D01*
G01Y84700D02*
X220600D01*
G54D12*
G01X27012Y40162D02*
Y72761D01*
X35988D01*
Y40162D01*
X27012D01*
G01X56811Y2689D02*
X33189D01*
Y26311D01*
X56811D01*
Y2689D01*
G01X51000Y172000D02*
X32496D01*
Y158220D01*
X51000D01*
Y172000D01*
G01X53000Y5500D02*
X37000D01*
G01X51000Y14500D02*
G03I-6000J0D01*
G01X53000Y23500D02*
X37000D01*
G01X47000Y172000D02*
X36764D01*
Y175937D01*
X36827Y176000D01*
X47000D01*
Y172000D01*
G01X50484Y35323D02*
G02Y40677I781J2677D01*
G01Y35323D02*
X53161D01*
G01X49323Y43484D02*
G03X54677I2677J781D01*
G01X49323Y46161D02*
Y43484D01*
G01X53161Y40677D02*
X50484D01*
G01X49323Y51516D02*
G02X54677I2677J-781D01*
G01X49323D02*
Y48839D01*
G01X64000Y94000D02*
X49000D01*
Y103000D01*
X64000D01*
Y94000D01*
G01X58516Y35323D02*
G03Y40677I-781J2677D01*
G01X55839Y35323D02*
X58516D01*
G01X65700Y47100D02*
X55300D01*
G01X54677Y43484D02*
Y46161D01*
G01X58516Y40677D02*
X55839D01*
G01X55300Y51900D02*
X65700D01*
G01X54823Y54984D02*
G03X60177I2677J781D01*
G01X54677Y48839D02*
Y51516D01*
G01X54823Y63016D02*
Y60339D01*
G01X60177D02*
Y63016D01*
G01Y54984D02*
Y57661D01*
G01X54823D02*
Y54984D01*
G01X60323D02*
G03X65677I2677J781D01*
G01X60323Y63016D02*
Y60339D01*
G01Y57661D02*
Y54984D01*
G01X54823Y63016D02*
G02X60177I2677J-781D01*
G01X60323D02*
G02X65677I2677J-781D01*
G01X69000Y73000D02*
X59000D01*
G01D02*
Y93000D01*
G01D02*
X62500D01*
G01X69000Y107000D02*
X59000D01*
G01D02*
Y127000D01*
G01D02*
X62500D01*
G01X72500Y146500D02*
Y130000D01*
X55500D01*
Y146500D01*
X72500D01*
G01X61207Y135500D02*
G03I-707J0D01*
G01X56984Y149323D02*
G02Y154677I781J2677D01*
G01Y149323D02*
X59661D01*
G01Y154677D02*
X56984D01*
G01X233409Y13000D02*
X228409D01*
G03X218409I-5000J100D01*
G01X182409D01*
Y23000D01*
X114409D01*
Y13000D01*
X77409D01*
G03X67409I-5000J100D01*
G01X62409D01*
Y171000D01*
X67409D01*
G03X77409I5000J-100D01*
G01X218409D01*
G03X228409I5000J-100D01*
G01X233409D01*
G01X68000Y25000D02*
X63500D01*
Y30000D01*
X68000D01*
G01X60800Y40400D02*
X71200D01*
G01Y35600D02*
X60800D01*
G01X66100Y41800D02*
Y52200D01*
G01X65677Y60339D02*
Y63016D01*
G01Y54984D02*
Y57661D01*
G01X80469Y57063D02*
X67083D01*
Y64937D01*
X80469D01*
Y57063D01*
G01X65500Y93000D02*
X69000D01*
G01X62500D02*
G03X65500I1500J0D01*
G01X67484Y95823D02*
G02Y101177I781J2677D01*
G01X65500Y127000D02*
X69000D01*
G01X62500D02*
G03X65500I1500J0D01*
G01X65016Y149323D02*
G03Y154677I-781J2677D01*
G01X62339Y149323D02*
X65016D01*
G01Y154677D02*
X62339D01*
G01X70000Y30000D02*
X74500D01*
Y25000D01*
X70000D01*
G01X70900Y52200D02*
Y41800D01*
G01X72409Y151000D02*
X222409D01*
Y41000D01*
X72409D01*
Y151000D01*
G01X69000Y93000D02*
Y73000D01*
G01X67484Y95823D02*
X70161D01*
G01X72839D02*
X75516D01*
G01X70161Y101177D02*
X67484D01*
G01X75516D02*
X72839D01*
G01X69000Y127000D02*
Y107000D01*
G01X78984Y35677D02*
G03Y30323I781J-2677D01*
G01D02*
X81661D01*
G01Y35677D02*
X78984D01*
G01X76500Y41500D02*
Y38500D01*
X79500D01*
G01X76500Y51500D02*
Y54500D01*
X79500D01*
G01X75516Y95823D02*
G03Y101177I-781J2677D01*
G01X81984Y127177D02*
G03Y121823I781J-2677D01*
G01X90700Y149600D02*
X80300D01*
G01Y154400D02*
X90700D01*
G01X85500Y0D02*
X104004D01*
Y13780D01*
X85500D01*
Y0D01*
G01X87016Y35677D02*
G02Y30323I-781J-2677D01*
G01X84339D02*
X87016D01*
G01Y35677D02*
X84339D01*
G01X83484Y62677D02*
G03Y57323I781J-2677D01*
G01D02*
X86161D01*
G01Y62677D02*
X83484D01*
G01X82409Y141000D02*
X212409D01*
Y61000D01*
X82409D01*
Y141000D01*
G01X86563Y84260D02*
Y91740D01*
G01X98965Y84260D02*
X81839D01*
Y91740D01*
X98965D01*
Y84260D01*
G01X86563Y92760D02*
Y100240D01*
G01X98965Y92760D02*
X81839D01*
Y100240D01*
X98965D01*
Y92760D01*
G01X91200Y116100D02*
X80800D01*
G01Y120900D02*
X91200D01*
G01X81984Y121823D02*
X84661D01*
G01X87000Y134000D02*
X91500D01*
Y129000D01*
X87000D01*
G01X85000D02*
X80500D01*
Y134000D01*
X85000D01*
G01X84661Y127177D02*
X81984D01*
G01X87000Y140000D02*
X91500D01*
Y135000D01*
X87000D01*
G01X85000D02*
X80500D01*
Y140000D01*
X85000D01*
G01X89500Y0D02*
X99736D01*
Y-3937D01*
X99673Y-4000D01*
X89500D01*
Y0D01*
G01X100700Y25100D02*
X90300D01*
G01Y29900D02*
X100700D01*
G01X91484Y35677D02*
G03Y30323I781J-2677D01*
G01D02*
X94161D01*
G01Y35677D02*
X91484D01*
G01X92500Y41500D02*
Y38500D01*
X89500D01*
G01Y54500D02*
X92500D01*
Y51500D01*
G01X91516Y62677D02*
G02Y57323I-781J-2677D01*
G01X88839D02*
X91516D01*
G01Y62677D02*
X88839D01*
G01X90016Y127177D02*
G02Y121823I-781J-2677D01*
G01X87339D02*
X90016D01*
G01Y127177D02*
X87339D01*
G01X99516Y35677D02*
G02Y30323I-781J-2677D01*
G01X96839D02*
X99516D01*
G01Y35677D02*
X96839D01*
G01X106559Y85622D02*
Y38378D01*
X153803D01*
Y85622D01*
X106559D01*
G01X101500Y106200D02*
Y127800D01*
X112000D01*
G01X125500Y106200D02*
X101500D01*
G01X113700Y130600D02*
X103300D01*
G01Y135400D02*
X113700D01*
G01X112000Y127800D02*
G03X115000I1500J0D01*
G01X117984Y130323D02*
G02Y135677I781J2677D01*
G01Y130323D02*
X120661D01*
G01X125500Y106200D02*
Y127800D01*
X118500D01*
G01X115000D02*
X118500D01*
G01X120661Y135677D02*
X117984D01*
G01X126016Y130323D02*
G03Y135677I-781J2677D01*
G01X123339Y130323D02*
X126016D01*
G01Y135677D02*
X123339D01*
G01X159807Y2350D02*
X136185D01*
Y25972D01*
X159807D01*
Y2350D01*
G01X155996Y5161D02*
X139996D01*
G01X155996Y23161D02*
X139996D01*
G01X137484Y159677D02*
G03Y154323I781J-2677D01*
G01D02*
X140161D01*
G01Y159677D02*
X137484D01*
G01X153996Y14161D02*
G03I-6000J0D01*
G01X145516Y159677D02*
G02Y154323I-781J-2677D01*
G01Y159677D02*
X142839D01*
G01Y154323D02*
X145516D01*
G01X148500Y131400D02*
Y144600D01*
X164500D01*
Y131400D01*
X148500D01*
G01Y146400D02*
Y159600D01*
X164500D01*
Y146400D01*
X148500D01*
G01X164500Y105500D02*
X154500D01*
G01D02*
Y125500D01*
G01D02*
X158000D01*
G01D02*
G03X161000I1500J0D01*
G01X176969Y60063D02*
X163583D01*
Y67937D01*
X176969D01*
Y60063D01*
G01X164500Y125500D02*
Y105500D01*
G01X161000Y125500D02*
X164500D01*
G01X179240Y153465D02*
Y136339D01*
X171760D01*
Y153465D01*
X179240D01*
G01Y141063D02*
X171760D01*
G01X183492Y24984D02*
X178807D01*
G02Y33016I3012J4016D01*
G01X183492D01*
G01Y32984D02*
X178807D01*
G02Y41016I3012J4016D01*
G01X183492D01*
G01Y67984D02*
X178807D01*
G02Y76016I3012J4016D01*
G01X183492D01*
G01Y75984D02*
X178807D01*
G02Y84016I3012J4016D01*
G01X183492D01*
G01X179406Y104606D02*
Y153425D01*
X243185D01*
Y104606D01*
X179406D01*
G01X192000Y0D02*
X210504D01*
Y13780D01*
X192000D01*
Y0D01*
G01X187508Y33016D02*
X192193D01*
G02Y24984I-2900J-4016D01*
G01X187508D01*
G01Y41016D02*
X192193D01*
G02Y32984I-2900J-4016D01*
G01X187508D01*
G01Y76016D02*
X192193D01*
G02Y67984I-2900J-4016D01*
G01X187508D01*
G01Y84016D02*
X192193D01*
G02Y75984I-2900J-4016D01*
G01X187508D01*
G01X196000Y0D02*
X206236D01*
Y-3937D01*
X206173Y-4000D01*
X196000D01*
Y0D01*
G01X199626Y46126D02*
X215374D01*
Y61874D01*
X199626D01*
Y46126D01*
G01X229000Y1500D02*
X219000D01*
Y21500D01*
X229000D01*
Y1500D01*
G01X222000Y25500D02*
X226000D01*
G01X224000Y23500D02*
Y27500D01*
G01X226000Y79000D02*
X221500D01*
Y84000D01*
X226000D01*
G01X233669Y171000D02*
Y13000D01*
G01X233400Y44700D02*
X228800D01*
Y38300D01*
X239200D01*
Y44700D01*
X233400D01*
G01X238000Y46500D02*
X244000D01*
Y58500D01*
X229000D01*
Y46500D01*
X238000D01*
G01X246465Y60260D02*
X229339D01*
Y67740D01*
X246465D01*
Y60260D01*
G01X235992Y68984D02*
X231307D01*
G02Y77016I2900J4016D01*
G01X235992D01*
G01X228000Y84000D02*
X232500D01*
Y79000D01*
X228000D01*
G01X238000D02*
X233500D01*
Y84000D01*
X238000D01*
G01X268500Y85000D02*
X228500D01*
Y95000D01*
X268500D01*
Y85000D01*
G01X262811Y2689D02*
X239189D01*
Y26311D01*
X262811D01*
Y2689D01*
G01X234063Y60260D02*
Y67740D01*
G01X240008Y77016D02*
X244693D01*
G02Y68984I-3012J-4016D01*
G01X240008D01*
G01X240000Y84000D02*
X244500D01*
Y79000D01*
X240000D01*
G01X259000Y5500D02*
X243000D01*
G01X257000Y14500D02*
G03I-6000J0D01*
G01X259000Y23500D02*
X243000D01*
G01X244323Y98984D02*
G03X249677I2677J781D01*
G01X244323Y101661D02*
Y98984D01*
G01Y107016D02*
G02X249677I2677J-781D01*
G01X244323D02*
Y104339D01*
G01X255200Y109600D02*
X244800D01*
G01Y114400D02*
X255200D01*
G01X262500Y172000D02*
X243996D01*
Y158220D01*
X262500D01*
Y172000D01*
G01X270579Y35276D02*
Y64409D01*
X250894D01*
Y35276D01*
X270579D01*
G01X249677Y98984D02*
Y101661D01*
G01X250823Y98984D02*
G03X256177I2677J781D01*
G01X250823Y101661D02*
Y98984D01*
G01X249677Y104339D02*
Y107016D01*
G01X250823D02*
G02X256177I2677J-781D01*
G01X250823D02*
Y104339D01*
G01X258500Y172000D02*
X248264D01*
Y175937D01*
X248327Y176000D01*
X258500D01*
Y172000D01*
G01X255854Y35276D02*
Y64055D01*
G01X265067Y42126D02*
Y57874D01*
X257587D01*
Y42126D01*
X265067D01*
G01X257587Y51969D02*
X265067D01*
G01X257587Y48425D02*
X265067D01*
G01X256177Y98984D02*
Y101661D01*
G01Y104339D02*
Y107016D01*
G01X255500Y109000D02*
Y156500D01*
X268500D01*
Y109000D01*
X255500D01*
G54D13*
G01X8167Y20500D02*
Y24500D01*
X9250Y21167D01*
X10333Y24500D01*
Y20500D01*
G01X11675D02*
Y24500D01*
G01X13425D02*
Y20500D01*
G01Y22500D02*
X11675D01*
G01X15058Y23833D02*
X15308Y24233D01*
X15600Y24433D01*
X15933Y24500D01*
X16350Y24367D01*
X16642Y24033D01*
X16725Y23633D01*
X16683Y23233D01*
X16517Y22900D01*
X15683Y22233D01*
X15308Y21767D01*
X15058Y21100D01*
X14975Y20500D01*
X16725D01*
G01X9167Y166000D02*
Y170000D01*
X10250Y166667D01*
X11333Y170000D01*
Y166000D01*
G01X12675D02*
Y170000D01*
G01X14425D02*
Y166000D01*
G01Y168000D02*
X12675D01*
G01X16850Y166000D02*
Y170000D01*
X16350Y169200D01*
G01Y166000D02*
X17350D01*
G01X27208Y31000D02*
X28250Y35000D01*
X29292Y31000D01*
G01X28917Y32400D02*
X27583D01*
G01X30592Y31000D02*
Y35000D01*
X32508Y31000D01*
Y35000D01*
G01X34850D02*
Y31000D01*
G01X33892Y35000D02*
X35808D01*
G01X38150Y31000D02*
Y35000D01*
X37650Y34200D01*
G01Y31000D02*
X38650D01*
G01X33000Y48917D02*
X29000D01*
Y49958D01*
X29200Y50292D01*
X29467Y50500D01*
X30000Y50583D01*
X30533Y50500D01*
X30867Y50250D01*
X31067Y49958D01*
Y48917D01*
G01Y49958D02*
X33000Y50583D01*
G01Y53800D02*
X30333D01*
G01X30800D02*
X30533Y53633D01*
X30400Y53383D01*
X30333Y53092D01*
X30467Y52800D01*
X30733Y52550D01*
X31133Y52383D01*
X31667Y52300D01*
X32200Y52383D01*
X32600Y52550D01*
X32867Y52800D01*
X33000Y53092D01*
X32933Y53383D01*
X32733Y53633D01*
X32467Y53800D01*
G01X30333Y56350D02*
X33000D01*
G01X29267D02*
X29200Y56267D01*
X29067D01*
X29000Y56350D01*
X29067Y56433D01*
X29200D01*
X29267Y56350D01*
G01X33000Y58942D02*
X30333D01*
G01X31000D02*
X30667Y59108D01*
X30400Y59358D01*
X30333Y59692D01*
X30400Y59983D01*
X30667Y60233D01*
X31133Y60358D01*
X33000D01*
G01X32533Y62325D02*
X32800Y62533D01*
X33000Y62825D01*
Y63075D01*
X32867Y63325D01*
X32667Y63492D01*
X32400Y63575D01*
X32000Y63533D01*
X31800Y63367D01*
X31400Y62617D01*
X30933Y62450D01*
X30600Y62533D01*
X30400Y62700D01*
X30333Y62950D01*
X30400Y63200D01*
X30600Y63450D01*
G01X30333Y65542D02*
X32200D01*
X32667Y65708D01*
X32933Y65958D01*
X33000Y66250D01*
X32933Y66542D01*
X32667Y66792D01*
X32200Y66958D01*
G01X33000D02*
X30333D01*
G01X33000Y68842D02*
X30333D01*
G01X31000D02*
X30667Y69008D01*
X30400Y69258D01*
X30333Y69592D01*
X30400Y69883D01*
X30667Y70133D01*
X31133Y70258D01*
X33000D01*
G01X35000Y154167D02*
X39000D01*
Y153333D01*
X38800Y153000D01*
X38533Y152750D01*
X38133Y152542D01*
X37667Y152375D01*
X37000Y152333D01*
X36333Y152375D01*
X35867Y152542D01*
X35467Y152750D01*
X35200Y153000D01*
X35000Y153333D01*
Y154167D01*
G01Y150992D02*
X39000Y149950D01*
X35000Y148908D01*
G01X36400Y149283D02*
Y150617D01*
G01X39000Y146650D02*
X35000D01*
G01X39000Y147608D02*
Y145692D01*
G01X35000Y142517D02*
Y144183D01*
X39000D01*
Y142517D01*
G01X37067Y143183D02*
Y144183D01*
G01X34867Y140050D02*
X34933Y140133D01*
X35067D01*
X35133Y140050D01*
X35067Y139967D01*
X34933D01*
X34867Y140050D01*
G01X36667D02*
X36733Y140133D01*
X36867D01*
X36933Y140050D01*
X36867Y139967D01*
X36733D01*
X36667Y140050D01*
G01X38333Y137542D02*
X38733Y137292D01*
X38933Y137000D01*
X39000Y136667D01*
X38867Y136250D01*
X38533Y135958D01*
X38133Y135875D01*
X37733Y135917D01*
X37400Y136083D01*
X36733Y136917D01*
X36267Y137292D01*
X35600Y137542D01*
X35000Y137625D01*
Y135875D01*
G01X39000Y133450D02*
X38867Y133783D01*
X38533Y134033D01*
X38133Y134200D01*
X37600Y134325D01*
X37000Y134367D01*
X36400Y134325D01*
X35867Y134200D01*
X35467Y134033D01*
X35133Y133783D01*
X35000Y133450D01*
X35133Y133117D01*
X35467Y132867D01*
X35867Y132700D01*
X36400Y132575D01*
X37000Y132533D01*
X37600Y132575D01*
X38133Y132700D01*
X38533Y132867D01*
X38867Y133117D01*
X39000Y133450D01*
G01X35000Y130150D02*
X39000D01*
X38200Y130650D01*
G01X35000D02*
Y129650D01*
G01X36667Y127642D02*
X37133Y127350D01*
X37400Y127100D01*
X37533Y126767D01*
X37400Y126475D01*
X37133Y126267D01*
X36733Y126100D01*
X36267Y126058D01*
X35867Y126100D01*
X35467Y126267D01*
X35133Y126517D01*
X35000Y126808D01*
X35133Y127142D01*
X35533Y127433D01*
X36133Y127600D01*
X36800Y127642D01*
X37667Y127558D01*
X38133Y127433D01*
X38600Y127225D01*
X38933Y126933D01*
X39000Y126642D01*
X38867Y126350D01*
X38533Y126142D01*
G01X33667Y124800D02*
Y122300D01*
G01X39000Y120250D02*
X38867Y120583D01*
X38533Y120833D01*
X38133Y121000D01*
X37600Y121125D01*
X37000Y121167D01*
X36400Y121125D01*
X35867Y121000D01*
X35467Y120833D01*
X35133Y120583D01*
X35000Y120250D01*
X35133Y119917D01*
X35467Y119667D01*
X35867Y119500D01*
X36400Y119375D01*
X37000Y119333D01*
X37600Y119375D01*
X38133Y119500D01*
X38533Y119667D01*
X38867Y119917D01*
X39000Y120250D01*
G01X35000Y116950D02*
X39000D01*
X38200Y117450D01*
G01X35000D02*
Y116450D01*
G01X33667Y114900D02*
Y112400D01*
G01X39000Y110350D02*
X38867Y110683D01*
X38533Y110933D01*
X38133Y111100D01*
X37600Y111225D01*
X37000Y111267D01*
X36400Y111225D01*
X35867Y111100D01*
X35467Y110933D01*
X35133Y110683D01*
X35000Y110350D01*
X35133Y110017D01*
X35467Y109767D01*
X35867Y109600D01*
X36400Y109475D01*
X37000Y109433D01*
X37600Y109475D01*
X38133Y109600D01*
X38533Y109767D01*
X38867Y110017D01*
X39000Y110350D01*
G01X35000Y107050D02*
X35067Y106758D01*
X35267Y106425D01*
X35600Y106217D01*
X36067Y106133D01*
X36533Y106217D01*
X36933Y106467D01*
X37133Y106842D01*
Y107258D01*
X37267Y107508D01*
X37600Y107717D01*
X38067Y107800D01*
X38533Y107675D01*
X38867Y107383D01*
X39000Y107050D01*
X38867Y106717D01*
X38533Y106425D01*
X38067Y106300D01*
X37600Y106383D01*
X37267Y106592D01*
X37133Y106842D01*
Y107258D01*
X36933Y107633D01*
X36533Y107883D01*
X36067Y107967D01*
X35600Y107883D01*
X35267Y107675D01*
X35067Y107342D01*
X35000Y107050D01*
G01X31133Y152917D02*
X31333Y152750D01*
X31667Y152625D01*
X32133Y152542D01*
X32533Y152625D01*
X32800Y152792D01*
X33000Y153083D01*
Y154208D01*
X29000D01*
Y152833D01*
X29267Y152542D01*
X29667Y152375D01*
X30133Y152292D01*
X30600Y152375D01*
X31000Y152625D01*
X31133Y152917D01*
Y154208D01*
G01X29000Y149950D02*
X30800D01*
X33000Y150783D01*
G01Y149117D02*
X30800Y149950D01*
G01X28867Y146650D02*
X28933Y146733D01*
X29067D01*
X29133Y146650D01*
X29067Y146567D01*
X28933D01*
X28867Y146650D01*
G01X30667D02*
X30733Y146733D01*
X30867D01*
X30933Y146650D01*
X30867Y146567D01*
X30733D01*
X30667Y146650D01*
G01X29000Y144225D02*
X33000Y142475D01*
G01Y144225D02*
X29000Y142475D01*
G01Y140925D02*
X33000Y139175D01*
G01Y140925D02*
X29000Y139175D01*
G01Y137625D02*
X33000Y135875D01*
G01Y137625D02*
X29000Y135875D01*
G01X33000Y134283D02*
X29000D01*
Y132617D01*
G01X33000Y130942D02*
Y129358D01*
X29000Y130942D01*
Y129358D01*
G01X29800Y127683D02*
X29400Y127475D01*
X29133Y127225D01*
X29000Y126933D01*
X29133Y126600D01*
X29400Y126350D01*
X29800Y126100D01*
X30333Y126017D01*
X33000D01*
G01X29000Y124425D02*
X33000Y122675D01*
G01Y124425D02*
X29000Y122675D01*
G01Y121125D02*
X33000Y119375D01*
G01Y121125D02*
X29000Y119375D01*
G01Y117825D02*
X33000Y116075D01*
G01Y117825D02*
X29000Y116075D01*
G01X40417Y58500D02*
Y54500D01*
X42083D01*
G01X44550D02*
Y58500D01*
X44050Y57700D01*
G01Y54500D02*
X45050D01*
G01X47850Y58500D02*
X47517Y58367D01*
X47267Y58033D01*
X47100Y57633D01*
X46975Y57100D01*
X46933Y56500D01*
X46975Y55900D01*
X47100Y55367D01*
X47267Y54967D01*
X47517Y54633D01*
X47850Y54500D01*
X48183Y54633D01*
X48433Y54967D01*
X48600Y55367D01*
X48725Y55900D01*
X48767Y56500D01*
X48725Y57100D01*
X48600Y57633D01*
X48433Y58033D01*
X48183Y58367D01*
X47850Y58500D01*
G01X39733Y62067D02*
X39533Y61817D01*
X39400Y61525D01*
Y61192D01*
X39600Y60817D01*
X39933Y60525D01*
X40333Y60317D01*
X41000Y60150D01*
X41600Y60108D01*
X42200Y60192D01*
X42600Y60317D01*
X43000Y60567D01*
X43267Y60858D01*
X43400Y61150D01*
Y61442D01*
X43267Y61733D01*
X43067Y61983D01*
X42800Y62192D01*
G01X42600Y63533D02*
X43067Y63783D01*
X43333Y64117D01*
X43400Y64492D01*
X43333Y64825D01*
X43000Y65158D01*
X42600Y65367D01*
X42200Y65408D01*
X41733Y65325D01*
X41400Y65033D01*
X41267Y64742D01*
Y64367D01*
G01Y64742D02*
X41067Y64992D01*
X40733Y65200D01*
X40333Y65283D01*
X39933Y65200D01*
X39600Y64992D01*
X39400Y64617D01*
X39467Y64242D01*
X39733Y63867D01*
G01X42800Y66833D02*
X43133Y67083D01*
X43333Y67375D01*
X43400Y67750D01*
X43267Y68125D01*
X43000Y68417D01*
X42533Y68625D01*
X42000Y68667D01*
X41467Y68583D01*
X41133Y68375D01*
X40867Y68083D01*
X40800Y67792D01*
X40867Y67500D01*
X41133Y67125D01*
X39400Y67250D01*
Y68375D01*
G01X41000Y154208D02*
X45000D01*
X41000Y152292D01*
X45000D01*
G01X41000Y150992D02*
X45000Y149950D01*
X41000Y148908D01*
G01X42400Y149283D02*
Y150617D01*
G01X41000Y147733D02*
X45000D01*
X41667Y146650D01*
X45000Y145567D01*
X41000D01*
G01Y142517D02*
Y144183D01*
X45000D01*
Y142517D01*
G01X43067Y143183D02*
Y144183D01*
G01X40867Y140050D02*
X40933Y140133D01*
X41067D01*
X41133Y140050D01*
X41067Y139967D01*
X40933D01*
X40867Y140050D01*
G01X42667D02*
X42733Y140133D01*
X42867D01*
X42933Y140050D01*
X42867Y139967D01*
X42733D01*
X42667Y140050D01*
G01X44667Y135833D02*
X44867Y136083D01*
X45000Y136375D01*
Y136708D01*
X44800Y137083D01*
X44467Y137375D01*
X44067Y137583D01*
X43400Y137750D01*
X42800Y137792D01*
X42200Y137708D01*
X41800Y137583D01*
X41400Y137333D01*
X41133Y137042D01*
X41000Y136750D01*
Y136458D01*
X41133Y136167D01*
X41333Y135917D01*
X41600Y135708D01*
G01X45000Y134367D02*
X42133D01*
X41533Y134200D01*
X41133Y133867D01*
X41000Y133450D01*
X41133Y133033D01*
X41533Y132700D01*
X42133Y132533D01*
X45000D01*
G01Y130650D02*
Y129650D01*
G01Y130150D02*
X41000D01*
G01Y130650D02*
Y129650D01*
G01X45000Y126850D02*
X41000D01*
G01X45000Y127808D02*
Y125892D01*
G01X43133Y123217D02*
X43333Y123050D01*
X43667Y122925D01*
X44133Y122842D01*
X44533Y122925D01*
X44800Y123092D01*
X45000Y123383D01*
Y124508D01*
X41000D01*
Y123133D01*
X41267Y122842D01*
X41667Y122675D01*
X42133Y122592D01*
X42600Y122675D01*
X43000Y122925D01*
X43133Y123217D01*
Y124508D01*
G01X45000Y120750D02*
Y119750D01*
G01Y120250D02*
X41000D01*
G01Y120750D02*
Y119750D01*
G01Y117867D02*
X45000D01*
G01Y116283D02*
X42533Y117867D01*
G01X41000Y116033D02*
X43667Y117158D01*
G01X41000Y112817D02*
Y114483D01*
X45000D01*
Y112817D01*
G01X43067Y113483D02*
Y114483D01*
G01X39667Y111600D02*
Y109100D01*
G01X45000Y108092D02*
X41000Y107050D01*
X45000Y106008D01*
G01X41000Y103750D02*
X45000D01*
X44200Y104250D01*
G01X41000D02*
Y103250D01*
G01X40867Y100450D02*
X40933Y100533D01*
X41067D01*
X41133Y100450D01*
X41067Y100367D01*
X40933D01*
X40867Y100450D01*
G01X41000Y97150D02*
X45000D01*
X44200Y97650D01*
G01X41000D02*
Y96650D01*
G01X39667Y95100D02*
Y92600D01*
G01X41000Y91633D02*
X45000D01*
X41667Y90550D01*
X45000Y89467D01*
X41000D01*
G01X41533Y88125D02*
X41200Y87792D01*
X41000Y87417D01*
Y87083D01*
X41200Y86750D01*
X41533Y86500D01*
X42000Y86375D01*
X42467Y86458D01*
X42867Y86667D01*
X43133Y87042D01*
X43267Y87542D01*
X43533Y87833D01*
X44000Y87958D01*
X44467Y87875D01*
X44800Y87667D01*
X45000Y87375D01*
Y87083D01*
X44867Y86792D01*
X44533Y86542D01*
G01X41000Y84783D02*
X45000D01*
Y83783D01*
X44800Y83450D01*
X44333Y83200D01*
X43800Y83117D01*
X43267Y83200D01*
X42867Y83408D01*
X42667Y83783D01*
Y84783D01*
G01X41000Y80150D02*
X45000D01*
X42133Y81692D01*
Y79608D01*
G01X41800Y78267D02*
X41333Y78017D01*
X41067Y77683D01*
X41000Y77308D01*
X41067Y76975D01*
X41400Y76642D01*
X41800Y76433D01*
X42200Y76392D01*
X42667Y76475D01*
X43000Y76767D01*
X43133Y77058D01*
Y77433D01*
G01Y77058D02*
X43333Y76808D01*
X43667Y76600D01*
X44067Y76517D01*
X44467Y76600D01*
X44800Y76808D01*
X45000Y77183D01*
X44933Y77558D01*
X44667Y77933D01*
G01X45000Y74050D02*
X44867Y74383D01*
X44533Y74633D01*
X44133Y74800D01*
X43600Y74925D01*
X43000Y74967D01*
X42400Y74925D01*
X41867Y74800D01*
X41467Y74633D01*
X41133Y74383D01*
X41000Y74050D01*
X41133Y73717D01*
X41467Y73467D01*
X41867Y73300D01*
X42400Y73175D01*
X43000Y73133D01*
X43600Y73175D01*
X44133Y73300D01*
X44533Y73467D01*
X44867Y73717D01*
X45000Y74050D01*
G01X44333Y45667D02*
X44133Y45417D01*
X44000Y45125D01*
Y44792D01*
X44200Y44417D01*
X44533Y44125D01*
X44933Y43917D01*
X45600Y43750D01*
X46200Y43708D01*
X46800Y43792D01*
X47200Y43917D01*
X47600Y44167D01*
X47867Y44458D01*
X48000Y44750D01*
Y45042D01*
X47867Y45333D01*
X47667Y45583D01*
X47400Y45792D01*
G01X44667Y47258D02*
X44267Y47508D01*
X44067Y47800D01*
X44000Y48133D01*
X44133Y48550D01*
X44467Y48842D01*
X44867Y48925D01*
X45267Y48883D01*
X45600Y48717D01*
X46267Y47883D01*
X46733Y47508D01*
X47400Y47258D01*
X48000Y47175D01*
Y48925D01*
G01X47533Y50642D02*
X47867Y50933D01*
X48000Y51267D01*
X47867Y51600D01*
X47467Y51892D01*
X46867Y52100D01*
X46267Y52183D01*
X45533D01*
X44933Y52100D01*
X44400Y51892D01*
X44133Y51642D01*
X44000Y51350D01*
X44133Y51017D01*
X44400Y50767D01*
X44800Y50600D01*
X45333Y50517D01*
X45800Y50600D01*
X46267Y50808D01*
X46533Y51058D01*
X46600Y51350D01*
X46467Y51683D01*
X46133Y51933D01*
X45533Y52183D01*
G01X45233Y62067D02*
X45033Y61817D01*
X44900Y61525D01*
Y61192D01*
X45100Y60817D01*
X45433Y60525D01*
X45833Y60317D01*
X46500Y60150D01*
X47100Y60108D01*
X47700Y60192D01*
X48100Y60317D01*
X48500Y60567D01*
X48767Y60858D01*
X48900Y61150D01*
Y61442D01*
X48767Y61733D01*
X48567Y61983D01*
X48300Y62192D01*
G01X48100Y63533D02*
X48567Y63783D01*
X48833Y64117D01*
X48900Y64492D01*
X48833Y64825D01*
X48500Y65158D01*
X48100Y65367D01*
X47700Y65408D01*
X47233Y65325D01*
X46900Y65033D01*
X46767Y64742D01*
Y64367D01*
G01Y64742D02*
X46567Y64992D01*
X46233Y65200D01*
X45833Y65283D01*
X45433Y65200D01*
X45100Y64992D01*
X44900Y64617D01*
X44967Y64242D01*
X45233Y63867D01*
G01X48900Y68250D02*
X44900D01*
X47767Y66708D01*
Y68792D01*
G01X53167Y34667D02*
X52917Y34867D01*
X52625Y35000D01*
X52292D01*
X51917Y34800D01*
X51625Y34467D01*
X51417Y34067D01*
X51250Y33400D01*
X51208Y32800D01*
X51292Y32200D01*
X51417Y31800D01*
X51667Y31400D01*
X51958Y31133D01*
X52250Y31000D01*
X52542D01*
X52833Y31133D01*
X53083Y31333D01*
X53292Y31600D01*
G01X54758Y34333D02*
X55008Y34733D01*
X55300Y34933D01*
X55633Y35000D01*
X56050Y34867D01*
X56342Y34533D01*
X56425Y34133D01*
X56383Y33733D01*
X56217Y33400D01*
X55383Y32733D01*
X55008Y32267D01*
X54758Y31600D01*
X54675Y31000D01*
X56425D01*
G01X58850D02*
X59142Y31067D01*
X59475Y31267D01*
X59683Y31600D01*
X59767Y32067D01*
X59683Y32533D01*
X59433Y32933D01*
X59058Y33133D01*
X58642D01*
X58392Y33267D01*
X58183Y33600D01*
X58100Y34067D01*
X58225Y34533D01*
X58517Y34867D01*
X58850Y35000D01*
X59183Y34867D01*
X59475Y34533D01*
X59600Y34067D01*
X59517Y33600D01*
X59308Y33267D01*
X59058Y33133D01*
X58642D01*
X58267Y32933D01*
X58017Y32533D01*
X57933Y32067D01*
X58017Y31600D01*
X58225Y31267D01*
X58558Y31067D01*
X58850Y31000D01*
G01X50000Y54417D02*
X54000D01*
Y56083D01*
G01X53533Y57842D02*
X53867Y58133D01*
X54000Y58467D01*
X53867Y58800D01*
X53467Y59092D01*
X52867Y59300D01*
X52267Y59383D01*
X51533D01*
X50933Y59300D01*
X50400Y59092D01*
X50133Y58842D01*
X50000Y58550D01*
X50133Y58217D01*
X50400Y57967D01*
X50800Y57800D01*
X51333Y57717D01*
X51800Y57800D01*
X52267Y58008D01*
X52533Y58258D01*
X52600Y58550D01*
X52467Y58883D01*
X52133Y59133D01*
X51533Y59383D01*
G01X51875Y103500D02*
X53625Y107500D01*
G01X51875D02*
X53625Y103500D01*
G01X55133Y104300D02*
X55383Y103833D01*
X55717Y103567D01*
X56092Y103500D01*
X56425Y103567D01*
X56758Y103900D01*
X56967Y104300D01*
X57008Y104700D01*
X56925Y105167D01*
X56633Y105500D01*
X56342Y105633D01*
X55967D01*
G01X56342D02*
X56592Y105833D01*
X56800Y106167D01*
X56883Y106567D01*
X56800Y106967D01*
X56592Y107300D01*
X56217Y107500D01*
X55842Y107433D01*
X55467Y107167D01*
G01X56875Y167033D02*
X57208Y166700D01*
X57583Y166500D01*
X57917D01*
X58250Y166700D01*
X58500Y167033D01*
X58625Y167500D01*
X58542Y167967D01*
X58333Y168367D01*
X57958Y168633D01*
X57458Y168767D01*
X57167Y169033D01*
X57042Y169500D01*
X57125Y169967D01*
X57333Y170300D01*
X57625Y170500D01*
X57917D01*
X58208Y170367D01*
X58458Y170033D01*
G01X59800Y170500D02*
X60383Y166500D01*
X61050Y170500D01*
X61717Y166500D01*
X62300Y170500D01*
G01X63558Y169833D02*
X63808Y170233D01*
X64100Y170433D01*
X64433Y170500D01*
X64850Y170367D01*
X65142Y170033D01*
X65225Y169633D01*
X65183Y169233D01*
X65017Y168900D01*
X64183Y168233D01*
X63808Y167767D01*
X63558Y167100D01*
X63475Y166500D01*
X65225D01*
G01X63875Y2033D02*
X64208Y1700D01*
X64583Y1500D01*
X64917D01*
X65250Y1700D01*
X65500Y2033D01*
X65625Y2500D01*
X65542Y2967D01*
X65333Y3367D01*
X64958Y3633D01*
X64458Y3767D01*
X64167Y4033D01*
X64042Y4500D01*
X64125Y4967D01*
X64333Y5300D01*
X64625Y5500D01*
X64917D01*
X65208Y5367D01*
X65458Y5033D01*
G01X66800Y5500D02*
X67383Y1500D01*
X68050Y5500D01*
X68717Y1500D01*
X69300Y5500D01*
G01X70433Y2300D02*
X70683Y1833D01*
X71017Y1567D01*
X71392Y1500D01*
X71725Y1567D01*
X72058Y1900D01*
X72267Y2300D01*
X72308Y2700D01*
X72225Y3167D01*
X71933Y3500D01*
X71642Y3633D01*
X71267D01*
G01X71642D02*
X71892Y3833D01*
X72100Y4167D01*
X72183Y4567D01*
X72100Y4967D01*
X71892Y5300D01*
X71517Y5500D01*
X71142Y5433D01*
X70767Y5167D01*
G01X65417Y19500D02*
Y23500D01*
X66458D01*
X66792Y23300D01*
X67000Y23033D01*
X67083Y22500D01*
X67000Y21967D01*
X66750Y21633D01*
X66458Y21433D01*
X65417D01*
G01X66458D02*
X67083Y19500D01*
G01X68633Y20300D02*
X68883Y19833D01*
X69217Y19567D01*
X69592Y19500D01*
X69925Y19567D01*
X70258Y19900D01*
X70467Y20300D01*
X70508Y20700D01*
X70425Y21167D01*
X70133Y21500D01*
X69842Y21633D01*
X69467D01*
G01X69842D02*
X70092Y21833D01*
X70300Y22167D01*
X70383Y22567D01*
X70300Y22967D01*
X70092Y23300D01*
X69717Y23500D01*
X69342Y23433D01*
X68967Y23167D01*
G01X72850Y19500D02*
Y23500D01*
X72350Y22700D01*
G01Y19500D02*
X73350D01*
G01X62917Y35000D02*
Y31000D01*
X64583D01*
G01X67050D02*
X67342Y31067D01*
X67675Y31267D01*
X67883Y31600D01*
X67967Y32067D01*
X67883Y32533D01*
X67633Y32933D01*
X67258Y33133D01*
X66842D01*
X66592Y33267D01*
X66383Y33600D01*
X66300Y34067D01*
X66425Y34533D01*
X66717Y34867D01*
X67050Y35000D01*
X67383Y34867D01*
X67675Y34533D01*
X67800Y34067D01*
X67717Y33600D01*
X67508Y33267D01*
X67258Y33133D01*
X66842D01*
X66467Y32933D01*
X66217Y32533D01*
X66133Y32067D01*
X66217Y31600D01*
X66425Y31267D01*
X66758Y31067D01*
X67050Y31000D01*
G01X71875Y8033D02*
X72208Y7700D01*
X72583Y7500D01*
X72917D01*
X73250Y7700D01*
X73500Y8033D01*
X73625Y8500D01*
X73542Y8967D01*
X73333Y9367D01*
X72958Y9633D01*
X72458Y9767D01*
X72167Y10033D01*
X72042Y10500D01*
X72125Y10967D01*
X72333Y11300D01*
X72625Y11500D01*
X72917D01*
X73208Y11367D01*
X73458Y11033D01*
G01X74800Y11500D02*
X75383Y7500D01*
X76050Y11500D01*
X76717Y7500D01*
X77300Y11500D01*
G01X79267Y7500D02*
X79350Y8367D01*
X79475Y9100D01*
X79642Y9767D01*
X79850Y10500D01*
X80183Y11500D01*
X78517D01*
G01X70375Y66500D02*
X72125Y70500D01*
G01X70375D02*
X72125Y66500D01*
G01X75050D02*
Y70500D01*
X73508Y67633D01*
X75592D01*
G01X71667Y106167D02*
X71417Y106367D01*
X71125Y106500D01*
X70792D01*
X70417Y106300D01*
X70125Y105967D01*
X69917Y105567D01*
X69750Y104900D01*
X69708Y104300D01*
X69792Y103700D01*
X69917Y103300D01*
X70167Y102900D01*
X70458Y102633D01*
X70750Y102500D01*
X71042D01*
X71333Y102633D01*
X71583Y102833D01*
X71792Y103100D01*
G01X73258Y105833D02*
X73508Y106233D01*
X73800Y106433D01*
X74133Y106500D01*
X74550Y106367D01*
X74842Y106033D01*
X74925Y105633D01*
X74883Y105233D01*
X74717Y104900D01*
X73883Y104233D01*
X73508Y103767D01*
X73258Y103100D01*
X73175Y102500D01*
X74925D01*
G01X77350D02*
Y106500D01*
X76850Y105700D01*
G01Y102500D02*
X77850D01*
G01X73833Y131000D02*
Y128133D01*
X74000Y127533D01*
X74333Y127133D01*
X74750Y127000D01*
X75167Y127133D01*
X75500Y127533D01*
X75667Y128133D01*
Y131000D01*
G01X77133Y127600D02*
X77383Y127267D01*
X77675Y127067D01*
X78050Y127000D01*
X78425Y127133D01*
X78717Y127400D01*
X78925Y127867D01*
X78967Y128400D01*
X78883Y128933D01*
X78675Y129267D01*
X78383Y129533D01*
X78092Y129600D01*
X77800Y129533D01*
X77425Y129267D01*
X77550Y131000D01*
X78675D01*
G01X70167Y156167D02*
X69917Y156367D01*
X69625Y156500D01*
X69292D01*
X68917Y156300D01*
X68625Y155967D01*
X68417Y155567D01*
X68250Y154900D01*
X68208Y154300D01*
X68292Y153700D01*
X68417Y153300D01*
X68667Y152900D01*
X68958Y152633D01*
X69250Y152500D01*
X69542D01*
X69833Y152633D01*
X70083Y152833D01*
X70292Y153100D01*
G01X71758Y155833D02*
X72008Y156233D01*
X72300Y156433D01*
X72633Y156500D01*
X73050Y156367D01*
X73342Y156033D01*
X73425Y155633D01*
X73383Y155233D01*
X73217Y154900D01*
X72383Y154233D01*
X72008Y153767D01*
X71758Y153100D01*
X71675Y152500D01*
X73425D01*
G01X76350D02*
Y156500D01*
X74808Y153633D01*
X76892D01*
G01X67833Y165000D02*
Y162133D01*
X68000Y161533D01*
X68333Y161133D01*
X68750Y161000D01*
X69167Y161133D01*
X69500Y161533D01*
X69667Y162133D01*
Y165000D01*
G01X72050Y161000D02*
Y165000D01*
X71550Y164200D01*
G01Y161000D02*
X72550D01*
G01X75350Y165000D02*
X75017Y164867D01*
X74767Y164533D01*
X74600Y164133D01*
X74475Y163600D01*
X74433Y163000D01*
X74475Y162400D01*
X74600Y161867D01*
X74767Y161467D01*
X75017Y161133D01*
X75350Y161000D01*
X75683Y161133D01*
X75933Y161467D01*
X76100Y161867D01*
X76225Y162400D01*
X76267Y163000D01*
X76225Y163600D01*
X76100Y164133D01*
X75933Y164533D01*
X75683Y164867D01*
X75350Y165000D01*
G01X80667Y28667D02*
X80417Y28867D01*
X80125Y29000D01*
X79792D01*
X79417Y28800D01*
X79125Y28467D01*
X78917Y28067D01*
X78750Y27400D01*
X78708Y26800D01*
X78792Y26200D01*
X78917Y25800D01*
X79167Y25400D01*
X79458Y25133D01*
X79750Y25000D01*
X80042D01*
X80333Y25133D01*
X80583Y25333D01*
X80792Y25600D01*
G01X82258Y28333D02*
X82508Y28733D01*
X82800Y28933D01*
X83133Y29000D01*
X83550Y28867D01*
X83842Y28533D01*
X83925Y28133D01*
X83883Y27733D01*
X83717Y27400D01*
X82883Y26733D01*
X82508Y26267D01*
X82258Y25600D01*
X82175Y25000D01*
X83925D01*
G01X85433Y25600D02*
X85683Y25267D01*
X85975Y25067D01*
X86350Y25000D01*
X86725Y25133D01*
X87017Y25400D01*
X87225Y25867D01*
X87267Y26400D01*
X87183Y26933D01*
X86975Y27267D01*
X86683Y27533D01*
X86392Y27600D01*
X86100Y27533D01*
X85725Y27267D01*
X85850Y29000D01*
X86975D01*
G01X74333Y149000D02*
Y146133D01*
X74500Y145533D01*
X74833Y145133D01*
X75250Y145000D01*
X75667Y145133D01*
X76000Y145533D01*
X76167Y146133D01*
Y149000D01*
G01X79050Y145000D02*
Y149000D01*
X77508Y146133D01*
X79592D01*
G01X84167Y70167D02*
X83917Y70367D01*
X83625Y70500D01*
X83292D01*
X82917Y70300D01*
X82625Y69967D01*
X82417Y69567D01*
X82250Y68900D01*
X82208Y68300D01*
X82292Y67700D01*
X82417Y67300D01*
X82667Y66900D01*
X82958Y66633D01*
X83250Y66500D01*
X83542D01*
X83833Y66633D01*
X84083Y66833D01*
X84292Y67100D01*
G01X85633Y67300D02*
X85883Y66833D01*
X86217Y66567D01*
X86592Y66500D01*
X86925Y66567D01*
X87258Y66900D01*
X87467Y67300D01*
X87508Y67700D01*
X87425Y68167D01*
X87133Y68500D01*
X86842Y68633D01*
X86467D01*
G01X86842D02*
X87092Y68833D01*
X87300Y69167D01*
X87383Y69567D01*
X87300Y69967D01*
X87092Y70300D01*
X86717Y70500D01*
X86342Y70433D01*
X85967Y70167D01*
G01X88933Y67300D02*
X89183Y66833D01*
X89517Y66567D01*
X89892Y66500D01*
X90225Y66567D01*
X90558Y66900D01*
X90767Y67300D01*
X90808Y67700D01*
X90725Y68167D01*
X90433Y68500D01*
X90142Y68633D01*
X89767D01*
G01X90142D02*
X90392Y68833D01*
X90600Y69167D01*
X90683Y69567D01*
X90600Y69967D01*
X90392Y70300D01*
X90017Y70500D01*
X89642Y70433D01*
X89267Y70167D01*
G01X81333Y78500D02*
Y75633D01*
X81500Y75033D01*
X81833Y74633D01*
X82250Y74500D01*
X82667Y74633D01*
X83000Y75033D01*
X83167Y75633D01*
Y78500D01*
G01X84758Y76167D02*
X85050Y76633D01*
X85300Y76900D01*
X85633Y77033D01*
X85925Y76900D01*
X86133Y76633D01*
X86300Y76233D01*
X86342Y75767D01*
X86300Y75367D01*
X86133Y74967D01*
X85883Y74633D01*
X85592Y74500D01*
X85258Y74633D01*
X84967Y75033D01*
X84800Y75633D01*
X84758Y76300D01*
X84842Y77167D01*
X84967Y77633D01*
X85175Y78100D01*
X85467Y78433D01*
X85758Y78500D01*
X86050Y78367D01*
X86258Y78033D01*
G01X93333Y57500D02*
Y54633D01*
X93500Y54033D01*
X93833Y53633D01*
X94250Y53500D01*
X94667Y53633D01*
X95000Y54033D01*
X95167Y54633D01*
Y57500D01*
G01X96842Y53967D02*
X97133Y53633D01*
X97467Y53500D01*
X97800Y53633D01*
X98092Y54033D01*
X98300Y54633D01*
X98383Y55233D01*
Y55967D01*
X98300Y56567D01*
X98092Y57100D01*
X97842Y57367D01*
X97550Y57500D01*
X97217Y57367D01*
X96967Y57100D01*
X96800Y56700D01*
X96717Y56167D01*
X96800Y55700D01*
X97008Y55233D01*
X97258Y54967D01*
X97550Y54900D01*
X97883Y55033D01*
X98133Y55367D01*
X98383Y55967D01*
G01X95667Y138667D02*
X95417Y138867D01*
X95125Y139000D01*
X94792D01*
X94417Y138800D01*
X94125Y138467D01*
X93917Y138067D01*
X93750Y137400D01*
X93708Y136800D01*
X93792Y136200D01*
X93917Y135800D01*
X94167Y135400D01*
X94458Y135133D01*
X94750Y135000D01*
X95042D01*
X95333Y135133D01*
X95583Y135333D01*
X95792Y135600D01*
G01X97258Y138333D02*
X97508Y138733D01*
X97800Y138933D01*
X98133Y139000D01*
X98550Y138867D01*
X98842Y138533D01*
X98925Y138133D01*
X98883Y137733D01*
X98717Y137400D01*
X97883Y136733D01*
X97508Y136267D01*
X97258Y135600D01*
X97175Y135000D01*
X98925D01*
G01X100558Y138333D02*
X100808Y138733D01*
X101100Y138933D01*
X101433Y139000D01*
X101850Y138867D01*
X102142Y138533D01*
X102225Y138133D01*
X102183Y137733D01*
X102017Y137400D01*
X101183Y136733D01*
X100808Y136267D01*
X100558Y135600D01*
X100475Y135000D01*
X102225D01*
G01X93917Y140000D02*
Y144000D01*
X94958D01*
X95292Y143800D01*
X95500Y143533D01*
X95583Y143000D01*
X95500Y142467D01*
X95250Y142133D01*
X94958Y141933D01*
X93917D01*
G01X94958D02*
X95583Y140000D01*
G01X97258Y143333D02*
X97508Y143733D01*
X97800Y143933D01*
X98133Y144000D01*
X98550Y143867D01*
X98842Y143533D01*
X98925Y143133D01*
X98883Y142733D01*
X98717Y142400D01*
X97883Y141733D01*
X97508Y141267D01*
X97258Y140600D01*
X97175Y140000D01*
X98925D01*
G01X100433Y140800D02*
X100683Y140333D01*
X101017Y140067D01*
X101392Y140000D01*
X101725Y140067D01*
X102058Y140400D01*
X102267Y140800D01*
X102308Y141200D01*
X102225Y141667D01*
X101933Y142000D01*
X101642Y142133D01*
X101267D01*
G01X101642D02*
X101892Y142333D01*
X102100Y142667D01*
X102183Y143067D01*
X102100Y143467D01*
X101892Y143800D01*
X101517Y144000D01*
X101142Y143933D01*
X100767Y143667D01*
G01X93917Y145000D02*
Y149000D01*
X94958D01*
X95292Y148800D01*
X95500Y148533D01*
X95583Y148000D01*
X95500Y147467D01*
X95250Y147133D01*
X94958Y146933D01*
X93917D01*
G01X94958D02*
X95583Y145000D01*
G01X97258Y148333D02*
X97508Y148733D01*
X97800Y148933D01*
X98133Y149000D01*
X98550Y148867D01*
X98842Y148533D01*
X98925Y148133D01*
X98883Y147733D01*
X98717Y147400D01*
X97883Y146733D01*
X97508Y146267D01*
X97258Y145600D01*
X97175Y145000D01*
X98925D01*
G01X100558Y148333D02*
X100808Y148733D01*
X101100Y148933D01*
X101433Y149000D01*
X101850Y148867D01*
X102142Y148533D01*
X102225Y148133D01*
X102183Y147733D01*
X102017Y147400D01*
X101183Y146733D01*
X100808Y146267D01*
X100558Y145600D01*
X100475Y145000D01*
X102225D01*
G01X93917Y157500D02*
Y153500D01*
X95583D01*
G01X97133Y154300D02*
X97383Y153833D01*
X97717Y153567D01*
X98092Y153500D01*
X98425Y153567D01*
X98758Y153900D01*
X98967Y154300D01*
X99008Y154700D01*
X98925Y155167D01*
X98633Y155500D01*
X98342Y155633D01*
X97967D01*
G01X98342D02*
X98592Y155833D01*
X98800Y156167D01*
X98883Y156567D01*
X98800Y156967D01*
X98592Y157300D01*
X98217Y157500D01*
X97842Y157433D01*
X97467Y157167D01*
G01X98667Y40667D02*
X98417Y40867D01*
X98125Y41000D01*
X97792D01*
X97417Y40800D01*
X97125Y40467D01*
X96917Y40067D01*
X96750Y39400D01*
X96708Y38800D01*
X96792Y38200D01*
X96917Y37800D01*
X97167Y37400D01*
X97458Y37133D01*
X97750Y37000D01*
X98042D01*
X98333Y37133D01*
X98583Y37333D01*
X98792Y37600D01*
G01X100258Y40333D02*
X100508Y40733D01*
X100800Y40933D01*
X101133Y41000D01*
X101550Y40867D01*
X101842Y40533D01*
X101925Y40133D01*
X101883Y39733D01*
X101717Y39400D01*
X100883Y38733D01*
X100508Y38267D01*
X100258Y37600D01*
X100175Y37000D01*
X101925D01*
G01X104267D02*
X104350Y37867D01*
X104475Y38600D01*
X104642Y39267D01*
X104850Y40000D01*
X105183Y41000D01*
X103517D01*
G01X94417Y134000D02*
Y130000D01*
X96083D01*
G01X99050D02*
Y134000D01*
X97508Y131133D01*
X99592D01*
G01X102417Y29500D02*
Y25500D01*
X104083D01*
G01X105633Y26100D02*
X105883Y25767D01*
X106175Y25567D01*
X106550Y25500D01*
X106925Y25633D01*
X107217Y25900D01*
X107425Y26367D01*
X107467Y26900D01*
X107383Y27433D01*
X107175Y27767D01*
X106883Y28033D01*
X106592Y28100D01*
X106300Y28033D01*
X105925Y27767D01*
X106050Y29500D01*
X107175D01*
G01X101333Y86500D02*
Y90500D01*
X102167D01*
X102500Y90300D01*
X102750Y90033D01*
X102958Y89633D01*
X103125Y89167D01*
X103167Y88500D01*
X103125Y87833D01*
X102958Y87367D01*
X102750Y86967D01*
X102500Y86700D01*
X102167Y86500D01*
X101333D01*
G01X104758Y89833D02*
X105008Y90233D01*
X105300Y90433D01*
X105633Y90500D01*
X106050Y90367D01*
X106342Y90033D01*
X106425Y89633D01*
X106383Y89233D01*
X106217Y88900D01*
X105383Y88233D01*
X105008Y87767D01*
X104758Y87100D01*
X104675Y86500D01*
X106425D01*
G01X101333Y94500D02*
Y98500D01*
X102167D01*
X102500Y98300D01*
X102750Y98033D01*
X102958Y97633D01*
X103125Y97167D01*
X103167Y96500D01*
X103125Y95833D01*
X102958Y95367D01*
X102750Y94967D01*
X102500Y94700D01*
X102167Y94500D01*
X101333D01*
G01X106050D02*
Y98500D01*
X104508Y95633D01*
X106592D01*
G01X106417Y141000D02*
Y137000D01*
X108083D01*
G01X109758Y138667D02*
X110050Y139133D01*
X110300Y139400D01*
X110633Y139533D01*
X110925Y139400D01*
X111133Y139133D01*
X111300Y138733D01*
X111342Y138267D01*
X111300Y137867D01*
X111133Y137467D01*
X110883Y137133D01*
X110592Y137000D01*
X110258Y137133D01*
X109967Y137533D01*
X109800Y138133D01*
X109758Y138800D01*
X109842Y139667D01*
X109967Y140133D01*
X110175Y140600D01*
X110467Y140933D01*
X110758Y141000D01*
X111050Y140867D01*
X111258Y140533D01*
G01X113500Y7000D02*
X116500D01*
X115000Y8500D01*
X113500Y7000D01*
X114000D01*
X114500Y7500D01*
X115500D01*
X115000Y8000D01*
X114500Y7500D01*
G01X112500Y6800D02*
X117500D01*
X115000Y9300D01*
X112500Y6800D01*
G01X113000Y16417D02*
X117000D01*
Y18083D01*
G01Y21383D02*
Y19717D01*
X113000D01*
Y21383D01*
G01X114933Y20717D02*
Y19717D01*
G01X117000Y22933D02*
X113000D01*
Y23767D01*
X113200Y24100D01*
X113467Y24350D01*
X113867Y24558D01*
X114333Y24725D01*
X115000Y24767D01*
X115667Y24725D01*
X116133Y24558D01*
X116533Y24350D01*
X116800Y24100D01*
X117000Y23767D01*
Y22933D01*
G01X113667Y26358D02*
X113267Y26608D01*
X113067Y26900D01*
X113000Y27233D01*
X113133Y27650D01*
X113467Y27942D01*
X113867Y28025D01*
X114267Y27983D01*
X114600Y27817D01*
X115267Y26983D01*
X115733Y26608D01*
X116400Y26358D01*
X117000Y26275D01*
Y28025D01*
G01X120267Y140567D02*
X120017Y140767D01*
X119725Y140900D01*
X119392D01*
X119017Y140700D01*
X118725Y140367D01*
X118517Y139967D01*
X118350Y139300D01*
X118308Y138700D01*
X118392Y138100D01*
X118517Y137700D01*
X118767Y137300D01*
X119058Y137033D01*
X119350Y136900D01*
X119642D01*
X119933Y137033D01*
X120183Y137233D01*
X120392Y137500D01*
G01X121858Y140233D02*
X122108Y140633D01*
X122400Y140833D01*
X122733Y140900D01*
X123150Y140767D01*
X123442Y140433D01*
X123525Y140033D01*
X123483Y139633D01*
X123317Y139300D01*
X122483Y138633D01*
X122108Y138167D01*
X121858Y137500D01*
X121775Y136900D01*
X123525D01*
G01X125158Y138567D02*
X125450Y139033D01*
X125700Y139300D01*
X126033Y139433D01*
X126325Y139300D01*
X126533Y139033D01*
X126700Y138633D01*
X126742Y138167D01*
X126700Y137767D01*
X126533Y137367D01*
X126283Y137033D01*
X125992Y136900D01*
X125658Y137033D01*
X125367Y137433D01*
X125200Y138033D01*
X125158Y138700D01*
X125242Y139567D01*
X125367Y140033D01*
X125575Y140500D01*
X125867Y140833D01*
X126158Y140900D01*
X126450Y140767D01*
X126658Y140433D01*
G01X121500Y7000D02*
X124500D01*
X123000Y8500D01*
X121500Y7000D01*
X122000D01*
X122500Y7500D01*
X123500D01*
X123000Y8000D01*
X122500Y7500D01*
G01X120500Y6800D02*
X125500D01*
X123000Y9300D01*
X120500Y6800D01*
G01X121000Y16417D02*
X125000D01*
Y18083D01*
G01Y21383D02*
Y19717D01*
X121000D01*
Y21383D01*
G01X122933Y20717D02*
Y19717D01*
G01X125000Y22933D02*
X121000D01*
Y23767D01*
X121200Y24100D01*
X121467Y24350D01*
X121867Y24558D01*
X122333Y24725D01*
X123000Y24767D01*
X123667Y24725D01*
X124133Y24558D01*
X124533Y24350D01*
X124800Y24100D01*
X125000Y23767D01*
Y22933D01*
G01X124200Y26233D02*
X124667Y26483D01*
X124933Y26817D01*
X125000Y27192D01*
X124933Y27525D01*
X124600Y27858D01*
X124200Y28067D01*
X123800Y28108D01*
X123333Y28025D01*
X123000Y27733D01*
X122867Y27442D01*
Y27067D01*
G01Y27442D02*
X122667Y27692D01*
X122333Y27900D01*
X121933Y27983D01*
X121533Y27900D01*
X121200Y27692D01*
X121000Y27317D01*
X121067Y26942D01*
X121333Y26567D01*
G01X135833Y127000D02*
Y124133D01*
X136000Y123533D01*
X136333Y123133D01*
X136750Y123000D01*
X137167Y123133D01*
X137500Y123533D01*
X137667Y124133D01*
Y127000D01*
G01X140050Y123000D02*
X140342Y123067D01*
X140675Y123267D01*
X140883Y123600D01*
X140967Y124067D01*
X140883Y124533D01*
X140633Y124933D01*
X140258Y125133D01*
X139842D01*
X139592Y125267D01*
X139383Y125600D01*
X139300Y126067D01*
X139425Y126533D01*
X139717Y126867D01*
X140050Y127000D01*
X140383Y126867D01*
X140675Y126533D01*
X140800Y126067D01*
X140717Y125600D01*
X140508Y125267D01*
X140258Y125133D01*
X139842D01*
X139467Y124933D01*
X139217Y124533D01*
X139133Y124067D01*
X139217Y123600D01*
X139425Y123267D01*
X139758Y123067D01*
X140050Y123000D01*
G01X139167Y152667D02*
X138917Y152867D01*
X138625Y153000D01*
X138292D01*
X137917Y152800D01*
X137625Y152467D01*
X137417Y152067D01*
X137250Y151400D01*
X137208Y150800D01*
X137292Y150200D01*
X137417Y149800D01*
X137667Y149400D01*
X137958Y149133D01*
X138250Y149000D01*
X138542D01*
X138833Y149133D01*
X139083Y149333D01*
X139292Y149600D01*
G01X140633Y149800D02*
X140883Y149333D01*
X141217Y149067D01*
X141592Y149000D01*
X141925Y149067D01*
X142258Y149400D01*
X142467Y149800D01*
X142508Y150200D01*
X142425Y150667D01*
X142133Y151000D01*
X141842Y151133D01*
X141467D01*
G01X141842D02*
X142092Y151333D01*
X142300Y151667D01*
X142383Y152067D01*
X142300Y152467D01*
X142092Y152800D01*
X141717Y153000D01*
X141342Y152933D01*
X140967Y152667D01*
G01X144058Y150667D02*
X144350Y151133D01*
X144600Y151400D01*
X144933Y151533D01*
X145225Y151400D01*
X145433Y151133D01*
X145600Y150733D01*
X145642Y150267D01*
X145600Y149867D01*
X145433Y149467D01*
X145183Y149133D01*
X144892Y149000D01*
X144558Y149133D01*
X144267Y149533D01*
X144100Y150133D01*
X144058Y150800D01*
X144142Y151667D01*
X144267Y152133D01*
X144475Y152600D01*
X144767Y152933D01*
X145058Y153000D01*
X145350Y152867D01*
X145558Y152533D01*
G01X143875Y27533D02*
X144208Y27200D01*
X144583Y27000D01*
X144917D01*
X145250Y27200D01*
X145500Y27533D01*
X145625Y28000D01*
X145542Y28467D01*
X145333Y28867D01*
X144958Y29133D01*
X144458Y29267D01*
X144167Y29533D01*
X144042Y30000D01*
X144125Y30467D01*
X144333Y30800D01*
X144625Y31000D01*
X144917D01*
X145208Y30867D01*
X145458Y30533D01*
G01X146800Y31000D02*
X147383Y27000D01*
X148050Y31000D01*
X148717Y27000D01*
X149300Y31000D01*
G01X151850Y27000D02*
Y31000D01*
X150308Y28133D01*
X152392D01*
G01X143833Y98000D02*
Y95133D01*
X144000Y94533D01*
X144333Y94133D01*
X144750Y94000D01*
X145167Y94133D01*
X145500Y94533D01*
X145667Y95133D01*
Y98000D01*
G01X147133Y94800D02*
X147383Y94333D01*
X147717Y94067D01*
X148092Y94000D01*
X148425Y94067D01*
X148758Y94400D01*
X148967Y94800D01*
X149008Y95200D01*
X148925Y95667D01*
X148633Y96000D01*
X148342Y96133D01*
X147967D01*
G01X148342D02*
X148592Y96333D01*
X148800Y96667D01*
X148883Y97067D01*
X148800Y97467D01*
X148592Y97800D01*
X148217Y98000D01*
X147842Y97933D01*
X147467Y97667D01*
G01X155287Y133988D02*
Y134822D01*
X156487D01*
X156887Y134572D01*
X157154Y134280D01*
X157287Y133863D01*
X157154Y133446D01*
X156887Y133155D01*
X156487Y132905D01*
X156021Y132738D01*
X155487Y132655D01*
X155021D01*
X154621Y132738D01*
X154154Y132905D01*
X153754Y133155D01*
X153487Y133405D01*
X153287Y133738D01*
Y134030D01*
X153421Y134363D01*
X153687Y134613D01*
G01X152957Y141483D02*
X148957D01*
Y142316D01*
X149157Y142650D01*
X149423Y142900D01*
X149823Y143108D01*
X150290Y143275D01*
X150957Y143316D01*
X151623Y143275D01*
X152090Y143108D01*
X152490Y142900D01*
X152757Y142650D01*
X152957Y142316D01*
Y141483D01*
G01X156754Y141131D02*
X157087Y141464D01*
X157287Y141839D01*
Y142172D01*
X157087Y142506D01*
X156754Y142756D01*
X156287Y142881D01*
X155821Y142798D01*
X155421Y142589D01*
X155154Y142214D01*
X155021Y141714D01*
X154754Y141422D01*
X154287Y141298D01*
X153821Y141381D01*
X153487Y141589D01*
X153287Y141881D01*
Y142172D01*
X153421Y142464D01*
X153754Y142714D01*
G01X155287Y148988D02*
Y149822D01*
X156487D01*
X156887Y149572D01*
X157154Y149280D01*
X157287Y148863D01*
X157154Y148446D01*
X156887Y148155D01*
X156487Y147905D01*
X156021Y147738D01*
X155487Y147655D01*
X155021D01*
X154621Y147738D01*
X154154Y147905D01*
X153754Y148155D01*
X153487Y148405D01*
X153287Y148738D01*
Y149030D01*
X153421Y149363D01*
X153687Y149613D01*
G01X152957Y156483D02*
X148957D01*
Y157316D01*
X149157Y157650D01*
X149423Y157900D01*
X149823Y158108D01*
X150290Y158275D01*
X150957Y158316D01*
X151623Y158275D01*
X152090Y158108D01*
X152490Y157900D01*
X152757Y157650D01*
X152957Y157316D01*
Y156483D01*
G01X156754Y156131D02*
X157087Y156464D01*
X157287Y156839D01*
Y157172D01*
X157087Y157506D01*
X156754Y157756D01*
X156287Y157881D01*
X155821Y157798D01*
X155421Y157589D01*
X155154Y157214D01*
X155021Y156714D01*
X154754Y156422D01*
X154287Y156298D01*
X153821Y156381D01*
X153487Y156589D01*
X153287Y156881D01*
Y157172D01*
X153421Y157464D01*
X153754Y157714D01*
G01X154833Y130500D02*
Y127633D01*
X155000Y127033D01*
X155333Y126633D01*
X155750Y126500D01*
X156167Y126633D01*
X156500Y127033D01*
X156667Y127633D01*
Y130500D01*
G01X159050Y126500D02*
Y130500D01*
X158550Y129700D01*
G01Y126500D02*
X159550D01*
G01X161558Y128167D02*
X161850Y128633D01*
X162100Y128900D01*
X162433Y129033D01*
X162725Y128900D01*
X162933Y128633D01*
X163100Y128233D01*
X163142Y127767D01*
X163100Y127367D01*
X162933Y126967D01*
X162683Y126633D01*
X162392Y126500D01*
X162058Y126633D01*
X161767Y127033D01*
X161600Y127633D01*
X161558Y128300D01*
X161642Y129167D01*
X161767Y129633D01*
X161975Y130100D01*
X162267Y130433D01*
X162558Y130500D01*
X162850Y130367D01*
X163058Y130033D01*
G01X163375Y70500D02*
X165125Y74500D01*
G01X163375D02*
X165125Y70500D01*
G01X167550D02*
Y74500D01*
X167050Y73700D01*
G01Y70500D02*
X168050D01*
G01X166750Y135500D02*
X166417Y135567D01*
X166125Y135833D01*
X165875Y136233D01*
X165708Y136700D01*
X165625Y137233D01*
Y137767D01*
X165708Y138300D01*
X165875Y138767D01*
X166125Y139167D01*
X166417Y139433D01*
X166750Y139500D01*
X167083Y139433D01*
X167375Y139167D01*
X167625Y138767D01*
X167792Y138300D01*
X167875Y137767D01*
Y137233D01*
X167792Y136700D01*
X167625Y136233D01*
X167375Y135833D01*
X167083Y135567D01*
X166750Y135500D01*
G01X167083Y136567D02*
X167583Y135500D01*
G01X169258Y138833D02*
X169508Y139233D01*
X169800Y139433D01*
X170133Y139500D01*
X170550Y139367D01*
X170842Y139033D01*
X170925Y138633D01*
X170883Y138233D01*
X170717Y137900D01*
X169883Y137233D01*
X169508Y136767D01*
X169258Y136100D01*
X169175Y135500D01*
X170925D01*
G01X166750Y151000D02*
X166417Y151067D01*
X166125Y151333D01*
X165875Y151733D01*
X165708Y152200D01*
X165625Y152733D01*
Y153267D01*
X165708Y153800D01*
X165875Y154267D01*
X166125Y154667D01*
X166417Y154933D01*
X166750Y155000D01*
X167083Y154933D01*
X167375Y154667D01*
X167625Y154267D01*
X167792Y153800D01*
X167875Y153267D01*
Y152733D01*
X167792Y152200D01*
X167625Y151733D01*
X167375Y151333D01*
X167083Y151067D01*
X166750Y151000D01*
G01X167083Y152067D02*
X167583Y151000D01*
G01X170050D02*
Y155000D01*
X169550Y154200D01*
G01Y151000D02*
X170550D01*
G01X170500Y7000D02*
X173500D01*
X172000Y8500D01*
X170500Y7000D01*
X171000D01*
X171500Y7500D01*
X172500D01*
X172000Y8000D01*
X171500Y7500D01*
G01X169500Y6800D02*
X174500D01*
X172000Y9300D01*
X169500Y6800D01*
G01X170000Y16417D02*
X174000D01*
Y18083D01*
G01Y21383D02*
Y19717D01*
X170000D01*
Y21383D01*
G01X171933Y20717D02*
Y19717D01*
G01X174000Y22933D02*
X170000D01*
Y23767D01*
X170200Y24100D01*
X170467Y24350D01*
X170867Y24558D01*
X171333Y24725D01*
X172000Y24767D01*
X172667Y24725D01*
X173133Y24558D01*
X173533Y24350D01*
X173800Y24100D01*
X174000Y23767D01*
Y22933D01*
G01X172333Y26358D02*
X171867Y26650D01*
X171600Y26900D01*
X171467Y27233D01*
X171600Y27525D01*
X171867Y27733D01*
X172267Y27900D01*
X172733Y27942D01*
X173133Y27900D01*
X173533Y27733D01*
X173867Y27483D01*
X174000Y27192D01*
X173867Y26858D01*
X173467Y26567D01*
X172867Y26400D01*
X172200Y26358D01*
X171333Y26442D01*
X170867Y26567D01*
X170400Y26775D01*
X170067Y27067D01*
X170000Y27358D01*
X170133Y27650D01*
X170467Y27858D01*
G01X169267Y32867D02*
X169017Y33067D01*
X168725Y33200D01*
X168392D01*
X168017Y33000D01*
X167725Y32667D01*
X167517Y32267D01*
X167350Y31600D01*
X167308Y31000D01*
X167392Y30400D01*
X167517Y30000D01*
X167767Y29600D01*
X168058Y29333D01*
X168350Y29200D01*
X168642D01*
X168933Y29333D01*
X169183Y29533D01*
X169392Y29800D01*
G01X171650Y29200D02*
Y33200D01*
X171150Y32400D01*
G01Y29200D02*
X172150D01*
G01X174950Y33200D02*
X174617Y33067D01*
X174367Y32733D01*
X174200Y32333D01*
X174075Y31800D01*
X174033Y31200D01*
X174075Y30600D01*
X174200Y30067D01*
X174367Y29667D01*
X174617Y29333D01*
X174950Y29200D01*
X175283Y29333D01*
X175533Y29667D01*
X175700Y30067D01*
X175825Y30600D01*
X175867Y31200D01*
X175825Y31800D01*
X175700Y32333D01*
X175533Y32733D01*
X175283Y33067D01*
X174950Y33200D01*
G01X171667Y40167D02*
X171417Y40367D01*
X171125Y40500D01*
X170792D01*
X170417Y40300D01*
X170125Y39967D01*
X169917Y39567D01*
X169750Y38900D01*
X169708Y38300D01*
X169792Y37700D01*
X169917Y37300D01*
X170167Y36900D01*
X170458Y36633D01*
X170750Y36500D01*
X171042D01*
X171333Y36633D01*
X171583Y36833D01*
X171792Y37100D01*
G01X173342Y36967D02*
X173633Y36633D01*
X173967Y36500D01*
X174300Y36633D01*
X174592Y37033D01*
X174800Y37633D01*
X174883Y38233D01*
Y38967D01*
X174800Y39567D01*
X174592Y40100D01*
X174342Y40367D01*
X174050Y40500D01*
X173717Y40367D01*
X173467Y40100D01*
X173300Y39700D01*
X173217Y39167D01*
X173300Y38700D01*
X173508Y38233D01*
X173758Y37967D01*
X174050Y37900D01*
X174383Y38033D01*
X174633Y38367D01*
X174883Y38967D01*
G01X172267Y74367D02*
X172017Y74567D01*
X171725Y74700D01*
X171392D01*
X171017Y74500D01*
X170725Y74167D01*
X170517Y73767D01*
X170350Y73100D01*
X170308Y72500D01*
X170392Y71900D01*
X170517Y71500D01*
X170767Y71100D01*
X171058Y70833D01*
X171350Y70700D01*
X171642D01*
X171933Y70833D01*
X172183Y71033D01*
X172392Y71300D01*
G01X173858Y72367D02*
X174150Y72833D01*
X174400Y73100D01*
X174733Y73233D01*
X175025Y73100D01*
X175233Y72833D01*
X175400Y72433D01*
X175442Y71967D01*
X175400Y71567D01*
X175233Y71167D01*
X174983Y70833D01*
X174692Y70700D01*
X174358Y70833D01*
X174067Y71233D01*
X173900Y71833D01*
X173858Y72500D01*
X173942Y73367D01*
X174067Y73833D01*
X174275Y74300D01*
X174567Y74633D01*
X174858Y74700D01*
X175150Y74567D01*
X175358Y74233D01*
G01X172267Y82367D02*
X172017Y82567D01*
X171725Y82700D01*
X171392D01*
X171017Y82500D01*
X170725Y82167D01*
X170517Y81767D01*
X170350Y81100D01*
X170308Y80500D01*
X170392Y79900D01*
X170517Y79500D01*
X170767Y79100D01*
X171058Y78833D01*
X171350Y78700D01*
X171642D01*
X171933Y78833D01*
X172183Y79033D01*
X172392Y79300D01*
G01X174567Y78700D02*
X174650Y79567D01*
X174775Y80300D01*
X174942Y80967D01*
X175150Y81700D01*
X175483Y82700D01*
X173817D01*
G01X172833Y131000D02*
Y135000D01*
X173667D01*
X174000Y134800D01*
X174250Y134533D01*
X174458Y134133D01*
X174625Y133667D01*
X174667Y133000D01*
X174625Y132333D01*
X174458Y131867D01*
X174250Y131467D01*
X174000Y131200D01*
X173667Y131000D01*
X172833D01*
G01X176133Y131600D02*
X176383Y131267D01*
X176675Y131067D01*
X177050Y131000D01*
X177425Y131133D01*
X177717Y131400D01*
X177925Y131867D01*
X177967Y132400D01*
X177883Y132933D01*
X177675Y133267D01*
X177383Y133533D01*
X177092Y133600D01*
X176800Y133533D01*
X176425Y133267D01*
X176550Y135000D01*
X177675D01*
G01X177875Y5533D02*
X178208Y5200D01*
X178583Y5000D01*
X178917D01*
X179250Y5200D01*
X179500Y5533D01*
X179625Y6000D01*
X179542Y6467D01*
X179333Y6867D01*
X178958Y7133D01*
X178458Y7267D01*
X178167Y7533D01*
X178042Y8000D01*
X178125Y8467D01*
X178333Y8800D01*
X178625Y9000D01*
X178917D01*
X179208Y8867D01*
X179458Y8533D01*
G01X180800Y9000D02*
X181383Y5000D01*
X182050Y9000D01*
X182717Y5000D01*
X183300Y9000D01*
G01X184558Y6667D02*
X184850Y7133D01*
X185100Y7400D01*
X185433Y7533D01*
X185725Y7400D01*
X185933Y7133D01*
X186100Y6733D01*
X186142Y6267D01*
X186100Y5867D01*
X185933Y5467D01*
X185683Y5133D01*
X185392Y5000D01*
X185058Y5133D01*
X184767Y5533D01*
X184600Y6133D01*
X184558Y6800D01*
X184642Y7667D01*
X184767Y8133D01*
X184975Y8600D01*
X185267Y8933D01*
X185558Y9000D01*
X185850Y8867D01*
X186058Y8533D01*
G01X185250Y51500D02*
Y47500D01*
G01X184292Y51500D02*
X186208D01*
G01X187717Y47500D02*
Y51500D01*
X188717D01*
X189050Y51300D01*
X189300Y50833D01*
X189383Y50300D01*
X189300Y49767D01*
X189092Y49367D01*
X188717Y49167D01*
X187717D01*
G01X191058Y50833D02*
X191308Y51233D01*
X191600Y51433D01*
X191933Y51500D01*
X192350Y51367D01*
X192642Y51033D01*
X192725Y50633D01*
X192683Y50233D01*
X192517Y49900D01*
X191683Y49233D01*
X191308Y48767D01*
X191058Y48100D01*
X190975Y47500D01*
X192725D01*
G01X186250Y94500D02*
Y90500D01*
G01X185292Y94500D02*
X187208D01*
G01X188717Y90500D02*
Y94500D01*
X189717D01*
X190050Y94300D01*
X190300Y93833D01*
X190383Y93300D01*
X190300Y92767D01*
X190092Y92367D01*
X189717Y92167D01*
X188717D01*
G01X192850Y90500D02*
Y94500D01*
X192350Y93700D01*
G01Y90500D02*
X193350D01*
G01X191780Y44000D02*
G03I-2280J0D01*
G01Y87500D02*
G03I-2280J0D01*
G01X196833Y67500D02*
Y64633D01*
X197000Y64033D01*
X197333Y63633D01*
X197750Y63500D01*
X198167Y63633D01*
X198500Y64033D01*
X198667Y64633D01*
Y67500D01*
G01X201050Y63500D02*
Y67500D01*
X200550Y66700D01*
G01Y63500D02*
X201550D01*
G01X214917Y89500D02*
Y85500D01*
X216583D01*
G01X219050D02*
Y89500D01*
X218550Y88700D01*
G01Y85500D02*
X219550D01*
G01X217417Y163000D02*
Y159000D01*
X219083D01*
G01X222383D02*
X220717D01*
Y163000D01*
X222383D01*
G01X221717Y161067D02*
X220717D01*
G01X223933Y159000D02*
Y163000D01*
X224767D01*
X225100Y162800D01*
X225350Y162533D01*
X225558Y162133D01*
X225725Y161667D01*
X225767Y161000D01*
X225725Y160333D01*
X225558Y159867D01*
X225350Y159467D01*
X225100Y159200D01*
X224767Y159000D01*
X223933D01*
G01X227233Y159600D02*
X227483Y159267D01*
X227775Y159067D01*
X228150Y159000D01*
X228525Y159133D01*
X228817Y159400D01*
X229025Y159867D01*
X229067Y160400D01*
X228983Y160933D01*
X228775Y161267D01*
X228483Y161533D01*
X228192Y161600D01*
X227900Y161533D01*
X227525Y161267D01*
X227650Y163000D01*
X228775D01*
G01X220917Y36000D02*
Y32000D01*
X222583D01*
G01X224258Y35333D02*
X224508Y35733D01*
X224800Y35933D01*
X225133Y36000D01*
X225550Y35867D01*
X225842Y35533D01*
X225925Y35133D01*
X225883Y34733D01*
X225717Y34400D01*
X224883Y33733D01*
X224508Y33267D01*
X224258Y32600D01*
X224175Y32000D01*
X225925D01*
G01X222917Y38300D02*
X223125Y37900D01*
X223375Y37633D01*
X223667Y37500D01*
X224000Y37633D01*
X224250Y37900D01*
X224500Y38300D01*
X224583Y38833D01*
Y41500D01*
G01X227050Y37500D02*
Y41500D01*
X226550Y40700D01*
G01Y37500D02*
X227550D01*
G01X222333Y59500D02*
Y56633D01*
X222500Y56033D01*
X222833Y55633D01*
X223250Y55500D01*
X223667Y55633D01*
X224000Y56033D01*
X224167Y56633D01*
Y59500D01*
G01X225758Y58833D02*
X226008Y59233D01*
X226300Y59433D01*
X226633Y59500D01*
X227050Y59367D01*
X227342Y59033D01*
X227425Y58633D01*
X227383Y58233D01*
X227217Y57900D01*
X226383Y57233D01*
X226008Y56767D01*
X225758Y56100D01*
X225675Y55500D01*
X227425D01*
G01X222833Y62000D02*
Y66000D01*
X223667D01*
X224000Y65800D01*
X224250Y65533D01*
X224458Y65133D01*
X224625Y64667D01*
X224667Y64000D01*
X224625Y63333D01*
X224458Y62867D01*
X224250Y62467D01*
X224000Y62200D01*
X223667Y62000D01*
X222833D01*
G01X227050D02*
Y66000D01*
X226550Y65200D01*
G01Y62000D02*
X227550D01*
G01X224667Y71167D02*
X224417Y71367D01*
X224125Y71500D01*
X223792D01*
X223417Y71300D01*
X223125Y70967D01*
X222917Y70567D01*
X222750Y69900D01*
X222708Y69300D01*
X222792Y68700D01*
X222917Y68300D01*
X223167Y67900D01*
X223458Y67633D01*
X223750Y67500D01*
X224042D01*
X224333Y67633D01*
X224583Y67833D01*
X224792Y68100D01*
G01X226258Y70833D02*
X226508Y71233D01*
X226800Y71433D01*
X227133Y71500D01*
X227550Y71367D01*
X227842Y71033D01*
X227925Y70633D01*
X227883Y70233D01*
X227717Y69900D01*
X226883Y69233D01*
X226508Y68767D01*
X226258Y68100D01*
X226175Y67500D01*
X227925D01*
G01X223417Y73000D02*
Y77000D01*
X224458D01*
X224792Y76800D01*
X225000Y76533D01*
X225083Y76000D01*
X225000Y75467D01*
X224750Y75133D01*
X224458Y74933D01*
X223417D01*
G01X224458D02*
X225083Y73000D01*
G01X228050D02*
Y77000D01*
X226508Y74133D01*
X228592D01*
G01X224000Y166000D02*
Y169000D01*
X222500Y167500D01*
X224000Y166000D01*
Y166500D01*
X223500Y167000D01*
Y168000D01*
X223000Y167500D01*
X223500Y167000D01*
G01X224200Y165000D02*
Y170000D01*
X221700Y167500D01*
X224200Y165000D01*
G01X233220Y21216D02*
X233420Y21049D01*
X233753Y20924D01*
X234220Y20841D01*
X234620Y20924D01*
X234887Y21091D01*
X235087Y21383D01*
Y22507D01*
X231087D01*
Y21133D01*
X231353Y20841D01*
X231753Y20674D01*
X232220Y20591D01*
X232687Y20674D01*
X233087Y20924D01*
X233220Y21216D01*
Y22507D01*
G01X231087Y19291D02*
X235087Y18249D01*
X231087Y17207D01*
G01X232487Y17583D02*
Y18916D01*
G01X235087Y14949D02*
X231087D01*
G01X235087Y15907D02*
Y13991D01*
G01X231087Y11649D02*
X235087D01*
X234287Y12149D01*
G01X231087D02*
Y11149D01*
G01X238833Y37000D02*
Y34133D01*
X239000Y33533D01*
X239333Y33133D01*
X239750Y33000D01*
X240167Y33133D01*
X240500Y33533D01*
X240667Y34133D01*
Y37000D01*
G01X242175Y33533D02*
X242508Y33200D01*
X242883Y33000D01*
X243217D01*
X243550Y33200D01*
X243800Y33533D01*
X243925Y34000D01*
X243842Y34467D01*
X243633Y34867D01*
X243258Y35133D01*
X242758Y35267D01*
X242467Y35533D01*
X242342Y36000D01*
X242425Y36467D01*
X242633Y36800D01*
X242925Y37000D01*
X243217D01*
X243508Y36867D01*
X243758Y36533D01*
G01X246683Y35133D02*
X246850Y35333D01*
X246975Y35667D01*
X247058Y36133D01*
X246975Y36533D01*
X246808Y36800D01*
X246517Y37000D01*
X245392D01*
Y33000D01*
X246767D01*
X247058Y33267D01*
X247225Y33667D01*
X247308Y34133D01*
X247225Y34600D01*
X246975Y35000D01*
X246683Y35133D01*
X245392D01*
G01X249650Y33000D02*
Y37000D01*
X249150Y36200D01*
G01Y33000D02*
X250150D01*
G01X245875Y28033D02*
X246208Y27700D01*
X246583Y27500D01*
X246917D01*
X247250Y27700D01*
X247500Y28033D01*
X247625Y28500D01*
X247542Y28967D01*
X247333Y29367D01*
X246958Y29633D01*
X246458Y29767D01*
X246167Y30033D01*
X246042Y30500D01*
X246125Y30967D01*
X246333Y31300D01*
X246625Y31500D01*
X246917D01*
X247208Y31367D01*
X247458Y31033D01*
G01X248800Y31500D02*
X249383Y27500D01*
X250050Y31500D01*
X250717Y27500D01*
X251300Y31500D01*
G01X252433Y28100D02*
X252683Y27767D01*
X252975Y27567D01*
X253350Y27500D01*
X253725Y27633D01*
X254017Y27900D01*
X254225Y28367D01*
X254267Y28900D01*
X254183Y29433D01*
X253975Y29767D01*
X253683Y30033D01*
X253392Y30100D01*
X253100Y30033D01*
X252725Y29767D01*
X252850Y31500D01*
X253975D01*
G01X245917Y79500D02*
Y83500D01*
X246958D01*
X247292Y83300D01*
X247500Y83033D01*
X247583Y82500D01*
X247500Y81967D01*
X247250Y81633D01*
X246958Y81433D01*
X245917D01*
G01X246958D02*
X247583Y79500D01*
G01X249133Y80300D02*
X249383Y79833D01*
X249717Y79567D01*
X250092Y79500D01*
X250425Y79567D01*
X250758Y79900D01*
X250967Y80300D01*
X251008Y80700D01*
X250925Y81167D01*
X250633Y81500D01*
X250342Y81633D01*
X249967D01*
G01X250342D02*
X250592Y81833D01*
X250800Y82167D01*
X250883Y82567D01*
X250800Y82967D01*
X250592Y83300D01*
X250217Y83500D01*
X249842Y83433D01*
X249467Y83167D01*
G01X244733Y119067D02*
X244533Y118817D01*
X244400Y118525D01*
Y118192D01*
X244600Y117817D01*
X244933Y117525D01*
X245333Y117317D01*
X246000Y117150D01*
X246600Y117108D01*
X247200Y117192D01*
X247600Y117317D01*
X248000Y117567D01*
X248267Y117858D01*
X248400Y118150D01*
Y118442D01*
X248267Y118733D01*
X248067Y118983D01*
X247800Y119192D01*
G01X248400Y121950D02*
X244400D01*
X247267Y120408D01*
Y122492D01*
G01X247600Y123833D02*
X248067Y124083D01*
X248333Y124417D01*
X248400Y124792D01*
X248333Y125125D01*
X248000Y125458D01*
X247600Y125667D01*
X247200Y125708D01*
X246733Y125625D01*
X246400Y125333D01*
X246267Y125042D01*
Y124667D01*
G01Y125042D02*
X246067Y125292D01*
X245733Y125500D01*
X245333Y125583D01*
X244933Y125500D01*
X244600Y125292D01*
X244400Y124917D01*
X244467Y124542D01*
X244733Y124167D01*
G01X244917Y132000D02*
Y128000D01*
X246583D01*
G01X249050D02*
Y132000D01*
X248550Y131200D01*
G01Y128000D02*
X249550D01*
G01X251433Y128800D02*
X251683Y128333D01*
X252017Y128067D01*
X252392Y128000D01*
X252725Y128067D01*
X253058Y128400D01*
X253267Y128800D01*
X253308Y129200D01*
X253225Y129667D01*
X252933Y130000D01*
X252642Y130133D01*
X252267D01*
G01X252642D02*
X252892Y130333D01*
X253100Y130667D01*
X253183Y131067D01*
X253100Y131467D01*
X252892Y131800D01*
X252517Y132000D01*
X252142Y131933D01*
X251767Y131667D01*
G01X244833Y151500D02*
Y148633D01*
X245000Y148033D01*
X245333Y147633D01*
X245750Y147500D01*
X246167Y147633D01*
X246500Y148033D01*
X246667Y148633D01*
Y151500D01*
G01X249050Y147500D02*
Y151500D01*
X248550Y150700D01*
G01Y147500D02*
X249550D01*
G01X252350D02*
Y151500D01*
X251850Y150700D01*
G01Y147500D02*
X252850D01*
G01X244875Y153533D02*
X245208Y153200D01*
X245583Y153000D01*
X245917D01*
X246250Y153200D01*
X246500Y153533D01*
X246625Y154000D01*
X246542Y154467D01*
X246333Y154867D01*
X245958Y155133D01*
X245458Y155267D01*
X245167Y155533D01*
X245042Y156000D01*
X245125Y156467D01*
X245333Y156800D01*
X245625Y157000D01*
X245917D01*
X246208Y156867D01*
X246458Y156533D01*
G01X247800Y157000D02*
X248383Y153000D01*
X249050Y157000D01*
X249717Y153000D01*
X250300Y157000D01*
G01X252350Y153000D02*
Y157000D01*
X251850Y156200D01*
G01Y153000D02*
X252850D01*
G01X250333Y119167D02*
X250133Y118917D01*
X250000Y118625D01*
Y118292D01*
X250200Y117917D01*
X250533Y117625D01*
X250933Y117417D01*
X251600Y117250D01*
X252200Y117208D01*
X252800Y117292D01*
X253200Y117417D01*
X253600Y117667D01*
X253867Y117958D01*
X254000Y118250D01*
Y118542D01*
X253867Y118833D01*
X253667Y119083D01*
X253400Y119292D01*
G01X254000Y122050D02*
X250000D01*
X252867Y120508D01*
Y122592D01*
G01X254000Y125350D02*
X250000D01*
X252867Y123808D01*
Y125892D01*
G01X254000Y134208D02*
X250000Y135250D01*
X254000Y136292D01*
G01X252600Y135917D02*
Y134583D01*
G01X254000Y137592D02*
X250000D01*
X254000Y139508D01*
X250000D01*
G01Y141850D02*
X254000D01*
G01X250000Y140892D02*
Y142808D01*
G01X250667Y144358D02*
X250267Y144608D01*
X250067Y144900D01*
X250000Y145233D01*
X250133Y145650D01*
X250467Y145942D01*
X250867Y146025D01*
X251267Y145983D01*
X251600Y145817D01*
X252267Y144983D01*
X252733Y144608D01*
X253400Y144358D01*
X254000Y144275D01*
Y146025D01*
G01X255917Y74000D02*
Y70000D01*
X257583D01*
G01X260883D02*
X259217D01*
Y74000D01*
X260883D01*
G01X260217Y72067D02*
X259217D01*
G01X262433Y70000D02*
Y74000D01*
X263267D01*
X263600Y73800D01*
X263850Y73533D01*
X264058Y73133D01*
X264225Y72667D01*
X264267Y72000D01*
X264225Y71333D01*
X264058Y70867D01*
X263850Y70467D01*
X263600Y70200D01*
X263267Y70000D01*
X262433D01*
G01X266650D02*
Y74000D01*
X266150Y73200D01*
G01Y70000D02*
X267150D01*
G01X262700Y76000D02*
Y81000D01*
X260200Y78500D01*
X262700Y76000D01*
G01X263417Y126228D02*
X259417D01*
Y127269D01*
X259617Y127603D01*
X259884Y127811D01*
X260417Y127894D01*
X260951Y127811D01*
X261284Y127561D01*
X261484Y127269D01*
Y126228D01*
G01Y127269D02*
X263417Y127894D01*
G01Y131111D02*
X260751D01*
G01X261217D02*
X260951Y130944D01*
X260817Y130694D01*
X260751Y130403D01*
X260884Y130111D01*
X261151Y129861D01*
X261551Y129694D01*
X262084Y129611D01*
X262617Y129694D01*
X263017Y129861D01*
X263284Y130111D01*
X263417Y130403D01*
X263351Y130694D01*
X263151Y130944D01*
X262884Y131111D01*
G01X260751Y133661D02*
X263417D01*
G01X259684D02*
X259617Y133578D01*
X259484D01*
X259417Y133661D01*
X259484Y133744D01*
X259617D01*
X259684Y133661D01*
G01X263417Y136253D02*
X260751D01*
G01X261417D02*
X261084Y136419D01*
X260817Y136669D01*
X260751Y137003D01*
X260817Y137294D01*
X261084Y137544D01*
X261551Y137669D01*
X263417D01*
G01X262951Y139636D02*
X263217Y139844D01*
X263417Y140136D01*
Y140386D01*
X263284Y140636D01*
X263084Y140803D01*
X262817Y140886D01*
X262417Y140844D01*
X262217Y140678D01*
X261817Y139928D01*
X261351Y139761D01*
X261017Y139844D01*
X260817Y140011D01*
X260751Y140261D01*
X260817Y140511D01*
X261017Y140761D01*
G01X260751Y142853D02*
X262617D01*
X263084Y143019D01*
X263351Y143269D01*
X263417Y143561D01*
X263351Y143853D01*
X263084Y144103D01*
X262617Y144269D01*
G01X263417D02*
X260751D01*
G01X263417Y146153D02*
X260751D01*
G01X261417D02*
X261084Y146319D01*
X260817Y146569D01*
X260751Y146903D01*
X260817Y147194D01*
X261084Y147444D01*
X261551Y147569D01*
X263417D01*
G01X262500Y77000D02*
Y80000D01*
X261000Y78500D01*
X262500Y77000D01*
Y77500D01*
X262000Y78000D01*
Y79000D01*
X261500Y78500D01*
X262000Y78000D01*
G01X261917Y96800D02*
X262125Y96400D01*
X262375Y96133D01*
X262667Y96000D01*
X263000Y96133D01*
X263250Y96400D01*
X263500Y96800D01*
X263583Y97333D01*
Y100000D01*
G01X265258Y99333D02*
X265508Y99733D01*
X265800Y99933D01*
X266133Y100000D01*
X266550Y99867D01*
X266842Y99533D01*
X266925Y99133D01*
X266883Y98733D01*
X266717Y98400D01*
X265883Y97733D01*
X265508Y97267D01*
X265258Y96600D01*
X265175Y96000D01*
X266925D01*
G01X278167Y20000D02*
Y24000D01*
X279250Y20667D01*
X280333Y24000D01*
Y20000D01*
G01X281675D02*
Y24000D01*
G01X283425D02*
Y20000D01*
G01Y22000D02*
X281675D01*
G01X284933Y20800D02*
X285183Y20333D01*
X285517Y20067D01*
X285892Y20000D01*
X286225Y20067D01*
X286558Y20400D01*
X286767Y20800D01*
X286808Y21200D01*
X286725Y21667D01*
X286433Y22000D01*
X286142Y22133D01*
X285767D01*
G01X286142D02*
X286392Y22333D01*
X286600Y22667D01*
X286683Y23067D01*
X286600Y23467D01*
X286392Y23800D01*
X286017Y24000D01*
X285642Y23933D01*
X285267Y23667D01*
G01X278167Y166000D02*
Y170000D01*
X279250Y166667D01*
X280333Y170000D01*
Y166000D01*
G01X281675D02*
Y170000D01*
G01X283425D02*
Y166000D01*
G01Y168000D02*
X281675D01*
G01X286350Y166000D02*
Y170000D01*
X284808Y167133D01*
X286892D01*
G54D14*
G01X55414Y94000D02*
G03I-1414J0D01*
G01Y128000D02*
G03I-1414J0D01*
G01X150914Y126500D02*
G03I-1414J0D01*
M02*
