G04 Layer_Color=2752767*
%FSLAX24Y24*%
%MOIN*%
G70*
G01*
G75*
%ADD36C,0.0100*%
%ADD77C,0.0080*%
%ADD145C,0.0050*%
%ADD146C,0.0067*%
%ADD147C,0.0160*%
D36*
X23139Y8950D02*
X23239Y9050D01*
X23439D01*
X23539Y8950D01*
Y8850D01*
X23439Y8750D01*
X23539Y8650D01*
Y8550D01*
X23439Y8450D01*
X23239D01*
X23139Y8550D01*
Y8650D01*
X23239Y8750D01*
X23139Y8850D01*
Y8950D01*
X23239Y8750D02*
X23439D01*
X23739Y8550D02*
X23839Y8450D01*
X24038D01*
X24138Y8550D01*
Y8950D01*
X24038Y9050D01*
X23839D01*
X23739Y8950D01*
Y8850D01*
X23839Y8750D01*
X24138D01*
X30497Y8450D02*
X30097D01*
X30497Y8850D01*
Y8950D01*
X30397Y9050D01*
X30197D01*
X30097Y8950D01*
X30697D02*
X30797Y9050D01*
X30997D01*
X31097Y8950D01*
Y8550D01*
X30997Y8450D01*
X30797D01*
X30697Y8550D01*
Y8950D01*
X31297Y8450D02*
Y8850D01*
X31396D01*
X31496Y8750D01*
Y8450D01*
Y8750D01*
X31596Y8850D01*
X31696Y8750D01*
Y8450D01*
X31896D02*
X32096D01*
X31996D01*
Y8850D01*
X31896D01*
X32396Y8450D02*
X32596D01*
X32496D01*
Y9050D01*
X32396D01*
X33696Y8450D02*
X33496Y8650D01*
Y8850D01*
X33696Y9050D01*
X33996Y8950D02*
X34096Y9050D01*
X34296D01*
X34395Y8950D01*
Y8550D01*
X34296Y8450D01*
X34096D01*
X33996Y8550D01*
Y8950D01*
X34595Y8450D02*
Y8550D01*
X34695D01*
Y8450D01*
X34595D01*
X35495Y9050D02*
X35095D01*
Y8750D01*
X35295Y8850D01*
X35395D01*
X35495Y8750D01*
Y8550D01*
X35395Y8450D01*
X35195D01*
X35095Y8550D01*
X35695Y8950D02*
X35795Y9050D01*
X35995D01*
X36095Y8950D01*
Y8550D01*
X35995Y8450D01*
X35795D01*
X35695Y8550D01*
Y8950D01*
X36295D02*
X36395Y9050D01*
X36595D01*
X36695Y8950D01*
Y8850D01*
X36595Y8750D01*
X36695Y8650D01*
Y8550D01*
X36595Y8450D01*
X36395D01*
X36295Y8550D01*
Y8650D01*
X36395Y8750D01*
X36295Y8850D01*
Y8950D01*
X36395Y8750D02*
X36595D01*
X36895Y8450D02*
Y8850D01*
X36995D01*
X37095Y8750D01*
Y8450D01*
Y8750D01*
X37195Y8850D01*
X37295Y8750D01*
Y8450D01*
X37494D02*
Y8850D01*
X37594D01*
X37694Y8750D01*
Y8450D01*
Y8750D01*
X37794Y8850D01*
X37894Y8750D01*
Y8450D01*
X38094D02*
X38294Y8650D01*
Y8850D01*
X38094Y9050D01*
X43533Y8450D02*
Y9050D01*
X43833D01*
X43933Y8950D01*
Y8750D01*
X43833Y8650D01*
X43533D01*
X44133Y9050D02*
X44533D01*
X44333D01*
Y8450D01*
X44733Y9050D02*
Y8450D01*
Y8750D01*
X45132D01*
Y9050D01*
Y8450D01*
X48572D02*
Y9050D01*
X48872D01*
X48972Y8950D01*
Y8750D01*
X48872Y8650D01*
X48572D01*
X48772D02*
X48972Y8450D01*
X49271D02*
X49471D01*
X49571Y8550D01*
Y8750D01*
X49471Y8850D01*
X49271D01*
X49172Y8750D01*
Y8550D01*
X49271Y8450D01*
X49771Y8850D02*
Y8550D01*
X49871Y8450D01*
X50171D01*
Y8850D01*
X50371Y8450D02*
Y8850D01*
X50671D01*
X50771Y8750D01*
Y8450D01*
X51371Y9050D02*
Y8450D01*
X51071D01*
X50971Y8550D01*
Y8750D01*
X51071Y8850D01*
X51371D01*
X23439Y7250D02*
Y7850D01*
X23139Y7550D01*
X23539D01*
X30497Y7250D02*
X30097D01*
X30497Y7650D01*
Y7750D01*
X30397Y7850D01*
X30197D01*
X30097Y7750D01*
X30697D02*
X30797Y7850D01*
X30997D01*
X31097Y7750D01*
Y7650D01*
X30997Y7550D01*
X30897D01*
X30997D01*
X31097Y7450D01*
Y7350D01*
X30997Y7250D01*
X30797D01*
X30697Y7350D01*
X31297Y7250D02*
Y7650D01*
X31396D01*
X31496Y7550D01*
Y7250D01*
Y7550D01*
X31596Y7650D01*
X31696Y7550D01*
Y7250D01*
X31896D02*
X32096D01*
X31996D01*
Y7650D01*
X31896D01*
X32396Y7250D02*
X32596D01*
X32496D01*
Y7850D01*
X32396D01*
X33696Y7250D02*
X33496Y7450D01*
Y7650D01*
X33696Y7850D01*
X33996Y7750D02*
X34096Y7850D01*
X34296D01*
X34395Y7750D01*
Y7350D01*
X34296Y7250D01*
X34096D01*
X33996Y7350D01*
Y7750D01*
X34595Y7250D02*
Y7350D01*
X34695D01*
Y7250D01*
X34595D01*
X35495Y7850D02*
X35095D01*
Y7550D01*
X35295Y7650D01*
X35395D01*
X35495Y7550D01*
Y7350D01*
X35395Y7250D01*
X35195D01*
X35095Y7350D01*
X35695Y7750D02*
X35795Y7850D01*
X35995D01*
X36095Y7750D01*
Y7650D01*
X35995Y7550D01*
X36095Y7450D01*
Y7350D01*
X35995Y7250D01*
X35795D01*
X35695Y7350D01*
Y7450D01*
X35795Y7550D01*
X35695Y7650D01*
Y7750D01*
X35795Y7550D02*
X35995D01*
X36595Y7250D02*
Y7850D01*
X36295Y7550D01*
X36695D01*
X37295Y7250D02*
X36895D01*
X37295Y7650D01*
Y7750D01*
X37195Y7850D01*
X36995D01*
X36895Y7750D01*
X37494Y7250D02*
Y7650D01*
X37594D01*
X37694Y7550D01*
Y7250D01*
Y7550D01*
X37794Y7650D01*
X37894Y7550D01*
Y7250D01*
X38094D02*
Y7650D01*
X38194D01*
X38294Y7550D01*
Y7250D01*
Y7550D01*
X38394Y7650D01*
X38494Y7550D01*
Y7250D01*
X38694D02*
X38894Y7450D01*
Y7650D01*
X38694Y7850D01*
X43533Y7250D02*
Y7850D01*
X43833D01*
X43933Y7750D01*
Y7550D01*
X43833Y7450D01*
X43533D01*
X44133Y7850D02*
X44533D01*
X44333D01*
Y7250D01*
X44733Y7850D02*
Y7250D01*
Y7550D01*
X45132D01*
Y7850D01*
Y7250D01*
X48572D02*
Y7850D01*
X48872D01*
X48972Y7750D01*
Y7550D01*
X48872Y7450D01*
X48572D01*
X48772D02*
X48972Y7250D01*
X49271D02*
X49471D01*
X49571Y7350D01*
Y7550D01*
X49471Y7650D01*
X49271D01*
X49172Y7550D01*
Y7350D01*
X49271Y7250D01*
X49771Y7650D02*
Y7350D01*
X49871Y7250D01*
X50171D01*
Y7650D01*
X50371Y7250D02*
Y7650D01*
X50671D01*
X50771Y7550D01*
Y7250D01*
X51371Y7850D02*
Y7250D01*
X51071D01*
X50971Y7350D01*
Y7550D01*
X51071Y7650D01*
X51371D01*
X23439Y6050D02*
Y6650D01*
X23139Y6350D01*
X23539D01*
X30097Y6550D02*
X30197Y6650D01*
X30397D01*
X30497Y6550D01*
Y6450D01*
X30397Y6350D01*
X30297D01*
X30397D01*
X30497Y6250D01*
Y6150D01*
X30397Y6050D01*
X30197D01*
X30097Y6150D01*
X31097Y6650D02*
X30697D01*
Y6350D01*
X30897Y6450D01*
X30997D01*
X31097Y6350D01*
Y6150D01*
X30997Y6050D01*
X30797D01*
X30697Y6150D01*
X31297Y6050D02*
Y6450D01*
X31396D01*
X31496Y6350D01*
Y6050D01*
Y6350D01*
X31596Y6450D01*
X31696Y6350D01*
Y6050D01*
X31896D02*
X32096D01*
X31996D01*
Y6450D01*
X31896D01*
X32396Y6050D02*
X32596D01*
X32496D01*
Y6650D01*
X32396D01*
X33696Y6050D02*
X33496Y6250D01*
Y6450D01*
X33696Y6650D01*
X33996Y6550D02*
X34096Y6650D01*
X34296D01*
X34395Y6550D01*
Y6150D01*
X34296Y6050D01*
X34096D01*
X33996Y6150D01*
Y6550D01*
X34595Y6050D02*
Y6150D01*
X34695D01*
Y6050D01*
X34595D01*
X35095Y6550D02*
X35195Y6650D01*
X35395D01*
X35495Y6550D01*
Y6450D01*
X35395Y6350D01*
X35495Y6250D01*
Y6150D01*
X35395Y6050D01*
X35195D01*
X35095Y6150D01*
Y6250D01*
X35195Y6350D01*
X35095Y6450D01*
Y6550D01*
X35195Y6350D02*
X35395D01*
X35695Y6550D02*
X35795Y6650D01*
X35995D01*
X36095Y6550D01*
Y6450D01*
X35995Y6350D01*
X36095Y6250D01*
Y6150D01*
X35995Y6050D01*
X35795D01*
X35695Y6150D01*
Y6250D01*
X35795Y6350D01*
X35695Y6450D01*
Y6550D01*
X35795Y6350D02*
X35995D01*
X36295Y6150D02*
X36395Y6050D01*
X36595D01*
X36695Y6150D01*
Y6550D01*
X36595Y6650D01*
X36395D01*
X36295Y6550D01*
Y6450D01*
X36395Y6350D01*
X36695D01*
X36895Y6050D02*
Y6450D01*
X36995D01*
X37095Y6350D01*
Y6050D01*
Y6350D01*
X37195Y6450D01*
X37295Y6350D01*
Y6050D01*
X37494D02*
Y6450D01*
X37594D01*
X37694Y6350D01*
Y6050D01*
Y6350D01*
X37794Y6450D01*
X37894Y6350D01*
Y6050D01*
X38094D02*
X38294Y6250D01*
Y6450D01*
X38094Y6650D01*
X43533Y6050D02*
Y6650D01*
X43933Y6050D01*
Y6650D01*
X44133Y6050D02*
Y6650D01*
X44433D01*
X44533Y6550D01*
Y6350D01*
X44433Y6250D01*
X44133D01*
X44733Y6650D02*
X45132D01*
X44932D01*
Y6050D01*
X45332Y6650D02*
Y6050D01*
Y6350D01*
X45732D01*
Y6650D01*
Y6050D01*
X48572D02*
Y6650D01*
X48872D01*
X48972Y6550D01*
Y6350D01*
X48872Y6250D01*
X48572D01*
X48772D02*
X48972Y6050D01*
X49271D02*
X49471D01*
X49571Y6150D01*
Y6350D01*
X49471Y6450D01*
X49271D01*
X49172Y6350D01*
Y6150D01*
X49271Y6050D01*
X49771Y6450D02*
Y6150D01*
X49871Y6050D01*
X50171D01*
Y6450D01*
X50371Y6050D02*
Y6450D01*
X50671D01*
X50771Y6350D01*
Y6050D01*
X51371Y6650D02*
Y6050D01*
X51071D01*
X50971Y6150D01*
Y6350D01*
X51071Y6450D01*
X51371D01*
X23139Y5350D02*
X23239Y5450D01*
X23439D01*
X23539Y5350D01*
Y5250D01*
X23439Y5150D01*
X23339D01*
X23439D01*
X23539Y5050D01*
Y4950D01*
X23439Y4850D01*
X23239D01*
X23139Y4950D01*
X23739D02*
X23839Y4850D01*
X24038D01*
X24138Y4950D01*
Y5350D01*
X24038Y5450D01*
X23839D01*
X23739Y5350D01*
Y5250D01*
X23839Y5150D01*
X24138D01*
X30097Y5350D02*
X30197Y5450D01*
X30397D01*
X30497Y5350D01*
Y5250D01*
X30397Y5150D01*
X30297D01*
X30397D01*
X30497Y5050D01*
Y4950D01*
X30397Y4850D01*
X30197D01*
X30097Y4950D01*
X31097Y5450D02*
X30697D01*
Y5150D01*
X30897Y5250D01*
X30997D01*
X31097Y5150D01*
Y4950D01*
X30997Y4850D01*
X30797D01*
X30697Y4950D01*
X31297Y4850D02*
Y5250D01*
X31396D01*
X31496Y5150D01*
Y4850D01*
Y5150D01*
X31596Y5250D01*
X31696Y5150D01*
Y4850D01*
X31896D02*
X32096D01*
X31996D01*
Y5250D01*
X31896D01*
X32396Y4850D02*
X32596D01*
X32496D01*
Y5450D01*
X32396D01*
X33696Y4850D02*
X33496Y5050D01*
Y5250D01*
X33696Y5450D01*
X33996Y5350D02*
X34096Y5450D01*
X34296D01*
X34395Y5350D01*
Y4950D01*
X34296Y4850D01*
X34096D01*
X33996Y4950D01*
Y5350D01*
X34595Y4850D02*
Y4950D01*
X34695D01*
Y4850D01*
X34595D01*
X35095Y5350D02*
X35195Y5450D01*
X35395D01*
X35495Y5350D01*
Y5250D01*
X35395Y5150D01*
X35495Y5050D01*
Y4950D01*
X35395Y4850D01*
X35195D01*
X35095Y4950D01*
Y5050D01*
X35195Y5150D01*
X35095Y5250D01*
Y5350D01*
X35195Y5150D02*
X35395D01*
X35695Y5350D02*
X35795Y5450D01*
X35995D01*
X36095Y5350D01*
Y5250D01*
X35995Y5150D01*
X36095Y5050D01*
Y4950D01*
X35995Y4850D01*
X35795D01*
X35695Y4950D01*
Y5050D01*
X35795Y5150D01*
X35695Y5250D01*
Y5350D01*
X35795Y5150D02*
X35995D01*
X36295Y4950D02*
X36395Y4850D01*
X36595D01*
X36695Y4950D01*
Y5350D01*
X36595Y5450D01*
X36395D01*
X36295Y5350D01*
Y5250D01*
X36395Y5150D01*
X36695D01*
X36895Y4850D02*
Y5250D01*
X36995D01*
X37095Y5150D01*
Y4850D01*
Y5150D01*
X37195Y5250D01*
X37295Y5150D01*
Y4850D01*
X37494D02*
Y5250D01*
X37594D01*
X37694Y5150D01*
Y4850D01*
Y5150D01*
X37794Y5250D01*
X37894Y5150D01*
Y4850D01*
X38094D02*
X38294Y5050D01*
Y5250D01*
X38094Y5450D01*
X43533Y4850D02*
Y5450D01*
X43833D01*
X43933Y5350D01*
Y5150D01*
X43833Y5050D01*
X43533D01*
X44133Y5450D02*
X44533D01*
X44333D01*
Y4850D01*
X44733Y5450D02*
Y4850D01*
Y5150D01*
X45132D01*
Y5450D01*
Y4850D01*
X48572D02*
Y5450D01*
X48872D01*
X48972Y5350D01*
Y5150D01*
X48872Y5050D01*
X48572D01*
X48772D02*
X48972Y4850D01*
X49271D02*
X49471D01*
X49571Y4950D01*
Y5150D01*
X49471Y5250D01*
X49271D01*
X49172Y5150D01*
Y4950D01*
X49271Y4850D01*
X49771Y5250D02*
Y4950D01*
X49871Y4850D01*
X50171D01*
Y5250D01*
X50371Y4850D02*
Y5250D01*
X50671D01*
X50771Y5150D01*
Y4850D01*
X51371Y5450D02*
Y4850D01*
X51071D01*
X50971Y4950D01*
Y5150D01*
X51071Y5250D01*
X51371D01*
X23539Y3650D02*
X23139D01*
X23539Y4050D01*
Y4150D01*
X23439Y4250D01*
X23239D01*
X23139Y4150D01*
X30097D02*
X30197Y4250D01*
X30397D01*
X30497Y4150D01*
Y4050D01*
X30397Y3950D01*
X30297D01*
X30397D01*
X30497Y3850D01*
Y3750D01*
X30397Y3650D01*
X30197D01*
X30097Y3750D01*
X31097Y4250D02*
X30697D01*
Y3950D01*
X30897Y4050D01*
X30997D01*
X31097Y3950D01*
Y3750D01*
X30997Y3650D01*
X30797D01*
X30697Y3750D01*
X31297Y3650D02*
Y3750D01*
X31396D01*
Y3650D01*
X31297D01*
X32096D02*
Y4250D01*
X31796Y3950D01*
X32196D01*
X32396Y4150D02*
X32496Y4250D01*
X32696D01*
X32796Y4150D01*
Y4050D01*
X32696Y3950D01*
X32596D01*
X32696D01*
X32796Y3850D01*
Y3750D01*
X32696Y3650D01*
X32496D01*
X32396Y3750D01*
X32996Y4150D02*
X33096Y4250D01*
X33296D01*
X33396Y4150D01*
Y4050D01*
X33296Y3950D01*
X33196D01*
X33296D01*
X33396Y3850D01*
Y3750D01*
X33296Y3650D01*
X33096D01*
X32996Y3750D01*
X33596Y3650D02*
Y4050D01*
X33696D01*
X33796Y3950D01*
Y3650D01*
Y3950D01*
X33896Y4050D01*
X33996Y3950D01*
Y3650D01*
X34196D02*
X34395D01*
X34296D01*
Y4050D01*
X34196D01*
X34695Y3650D02*
X34895D01*
X34795D01*
Y4250D01*
X34695D01*
X35995Y3650D02*
X35795Y3850D01*
Y4050D01*
X35995Y4250D01*
X36295Y4150D02*
X36395Y4250D01*
X36595D01*
X36695Y4150D01*
Y3750D01*
X36595Y3650D01*
X36395D01*
X36295Y3750D01*
Y4150D01*
X36895Y3650D02*
Y3750D01*
X36995D01*
Y3650D01*
X36895D01*
X37395Y3750D02*
X37494Y3650D01*
X37694D01*
X37794Y3750D01*
Y4150D01*
X37694Y4250D01*
X37494D01*
X37395Y4150D01*
Y4050D01*
X37494Y3950D01*
X37794D01*
X37994Y3650D02*
Y4050D01*
X38094D01*
X38194Y3950D01*
Y3650D01*
Y3950D01*
X38294Y4050D01*
X38394Y3950D01*
Y3650D01*
X38594D02*
Y4050D01*
X38694D01*
X38794Y3950D01*
Y3650D01*
Y3950D01*
X38894Y4050D01*
X38994Y3950D01*
Y3650D01*
X39194D02*
X39394Y3850D01*
Y4050D01*
X39194Y4250D01*
X43533Y3650D02*
Y4250D01*
X43833D01*
X43933Y4150D01*
Y3950D01*
X43833Y3850D01*
X43533D01*
X44133Y4250D02*
X44533D01*
X44333D01*
Y3650D01*
X44733Y4250D02*
Y3650D01*
Y3950D01*
X45132D01*
Y4250D01*
Y3650D01*
X48572D02*
Y4250D01*
X48872D01*
X48972Y4150D01*
Y3950D01*
X48872Y3850D01*
X48572D01*
X48772D02*
X48972Y3650D01*
X49271D02*
X49471D01*
X49571Y3750D01*
Y3950D01*
X49471Y4050D01*
X49271D01*
X49172Y3950D01*
Y3750D01*
X49271Y3650D01*
X49771Y4050D02*
Y3750D01*
X49871Y3650D01*
X50171D01*
Y4050D01*
X50371Y3650D02*
Y4050D01*
X50671D01*
X50771Y3950D01*
Y3650D01*
X51371Y4250D02*
Y3650D01*
X51071D01*
X50971Y3750D01*
Y3950D01*
X51071Y4050D01*
X51371D01*
X23139Y2450D02*
X23339D01*
X23239D01*
Y3050D01*
X23139Y2950D01*
X24038Y3050D02*
X23839Y2950D01*
X23639Y2750D01*
Y2550D01*
X23739Y2450D01*
X23939D01*
X24038Y2550D01*
Y2650D01*
X23939Y2750D01*
X23639D01*
X30397Y2450D02*
Y3050D01*
X30097Y2750D01*
X30497D01*
X30697Y2950D02*
X30797Y3050D01*
X30997D01*
X31097Y2950D01*
Y2550D01*
X30997Y2450D01*
X30797D01*
X30697Y2550D01*
Y2950D01*
X31297Y2450D02*
Y2850D01*
X31396D01*
X31496Y2750D01*
Y2450D01*
Y2750D01*
X31596Y2850D01*
X31696Y2750D01*
Y2450D01*
X31896D02*
X32096D01*
X31996D01*
Y2850D01*
X31896D01*
X32396Y2450D02*
X32596D01*
X32496D01*
Y3050D01*
X32396D01*
X33696Y2450D02*
X33496Y2650D01*
Y2850D01*
X33696Y3050D01*
X33996Y2450D02*
X34196D01*
X34096D01*
Y3050D01*
X33996Y2950D01*
X34495Y2450D02*
Y2550D01*
X34595D01*
Y2450D01*
X34495D01*
X34995Y2950D02*
X35095Y3050D01*
X35295D01*
X35395Y2950D01*
Y2550D01*
X35295Y2450D01*
X35095D01*
X34995Y2550D01*
Y2950D01*
X35595Y2450D02*
X35795D01*
X35695D01*
Y3050D01*
X35595Y2950D01*
X36495Y3050D02*
X36295Y2950D01*
X36095Y2750D01*
Y2550D01*
X36195Y2450D01*
X36395D01*
X36495Y2550D01*
Y2650D01*
X36395Y2750D01*
X36095D01*
X36695Y2450D02*
Y2850D01*
X36795D01*
X36895Y2750D01*
Y2450D01*
Y2750D01*
X36995Y2850D01*
X37095Y2750D01*
Y2450D01*
X37295D02*
Y2850D01*
X37395D01*
X37494Y2750D01*
Y2450D01*
Y2750D01*
X37594Y2850D01*
X37694Y2750D01*
Y2450D01*
X37894D02*
X38094Y2650D01*
Y2850D01*
X37894Y3050D01*
X43533Y2450D02*
Y3050D01*
X43833D01*
X43933Y2950D01*
Y2750D01*
X43833Y2650D01*
X43533D01*
X44133Y3050D02*
X44533D01*
X44333D01*
Y2450D01*
X44733Y3050D02*
Y2450D01*
Y2750D01*
X45132D01*
Y3050D01*
Y2450D01*
X48572D02*
Y3050D01*
X48872D01*
X48972Y2950D01*
Y2750D01*
X48872Y2650D01*
X48572D01*
X48772D02*
X48972Y2450D01*
X49271D02*
X49471D01*
X49571Y2550D01*
Y2750D01*
X49471Y2850D01*
X49271D01*
X49172Y2750D01*
Y2550D01*
X49271Y2450D01*
X49771Y2850D02*
Y2550D01*
X49871Y2450D01*
X50171D01*
Y2850D01*
X50371Y2450D02*
Y2850D01*
X50671D01*
X50771Y2750D01*
Y2450D01*
X51371Y3050D02*
Y2450D01*
X51071D01*
X50971Y2550D01*
Y2750D01*
X51071Y2850D01*
X51371D01*
X23139Y1250D02*
X23339D01*
X23239D01*
Y1850D01*
X23139Y1750D01*
X30497Y1850D02*
X30097D01*
Y1550D01*
X30297Y1650D01*
X30397D01*
X30497Y1550D01*
Y1350D01*
X30397Y1250D01*
X30197D01*
X30097Y1350D01*
X30697Y1750D02*
X30797Y1850D01*
X30997D01*
X31097Y1750D01*
Y1350D01*
X30997Y1250D01*
X30797D01*
X30697Y1350D01*
Y1750D01*
X31297Y1250D02*
Y1650D01*
X31396D01*
X31496Y1550D01*
Y1250D01*
Y1550D01*
X31596Y1650D01*
X31696Y1550D01*
Y1250D01*
X31896D02*
X32096D01*
X31996D01*
Y1650D01*
X31896D01*
X32396Y1250D02*
X32596D01*
X32496D01*
Y1850D01*
X32396D01*
X33696Y1250D02*
X33496Y1450D01*
Y1650D01*
X33696Y1850D01*
X33996Y1250D02*
X34196D01*
X34096D01*
Y1850D01*
X33996Y1750D01*
X34495Y1250D02*
Y1350D01*
X34595D01*
Y1250D01*
X34495D01*
X35395D02*
X34995D01*
X35395Y1650D01*
Y1750D01*
X35295Y1850D01*
X35095D01*
X34995Y1750D01*
X35595Y1850D02*
X35995D01*
Y1750D01*
X35595Y1350D01*
Y1250D01*
X36195D02*
Y1650D01*
X36295D01*
X36395Y1550D01*
Y1250D01*
Y1550D01*
X36495Y1650D01*
X36595Y1550D01*
Y1250D01*
X36795D02*
Y1650D01*
X36895D01*
X36995Y1550D01*
Y1250D01*
Y1550D01*
X37095Y1650D01*
X37195Y1550D01*
Y1250D01*
X37395D02*
X37594Y1450D01*
Y1650D01*
X37395Y1850D01*
X43533Y1250D02*
Y1850D01*
X43933Y1250D01*
Y1850D01*
X44133Y1250D02*
Y1850D01*
X44433D01*
X44533Y1750D01*
Y1550D01*
X44433Y1450D01*
X44133D01*
X44733Y1850D02*
X45132D01*
X44932D01*
Y1250D01*
X45332Y1850D02*
Y1250D01*
Y1550D01*
X45732D01*
Y1850D01*
Y1250D01*
X48572D02*
Y1850D01*
X48872D01*
X48972Y1750D01*
Y1550D01*
X48872Y1450D01*
X48572D01*
X48772D02*
X48972Y1250D01*
X49271D02*
X49471D01*
X49571Y1350D01*
Y1550D01*
X49471Y1650D01*
X49271D01*
X49172Y1550D01*
Y1350D01*
X49271Y1250D01*
X49771Y1650D02*
Y1350D01*
X49871Y1250D01*
X50171D01*
Y1650D01*
X50371Y1250D02*
Y1650D01*
X50671D01*
X50771Y1550D01*
Y1250D01*
X51371Y1850D02*
Y1250D01*
X51071D01*
X50971Y1350D01*
Y1550D01*
X51071Y1650D01*
X51371D01*
X23139Y50D02*
X23339D01*
X23239D01*
Y650D01*
X23139Y550D01*
X24038Y650D02*
X23639D01*
Y350D01*
X23839Y450D01*
X23939D01*
X24038Y350D01*
Y150D01*
X23939Y50D01*
X23739D01*
X23639Y150D01*
X24638Y650D02*
X24238D01*
Y350D01*
X24438Y450D01*
X24538D01*
X24638Y350D01*
Y150D01*
X24538Y50D01*
X24338D01*
X24238Y150D01*
X25718Y650D02*
X26118D01*
X25918D01*
Y50D01*
X26418D02*
X26618D01*
X26718Y150D01*
Y350D01*
X26618Y450D01*
X26418D01*
X26318Y350D01*
Y150D01*
X26418Y50D01*
X27018Y550D02*
Y450D01*
X26918D01*
X27118D01*
X27018D01*
Y150D01*
X27118Y50D01*
X27518Y450D02*
X27718D01*
X27818Y350D01*
Y50D01*
X27518D01*
X27418Y150D01*
X27518Y250D01*
X27818D01*
X28018Y50D02*
X28217D01*
X28117D01*
Y650D01*
X28018D01*
D77*
X18580Y1550D02*
G03*
X18580Y1550I-240J0D01*
G01*
D145*
X1900Y24950D02*
Y25350D01*
X2300D01*
Y24950D01*
X1900D01*
Y25950D02*
Y26350D01*
X2300D01*
Y25950D01*
X1900D01*
X900D02*
Y26350D01*
X1300D01*
Y25950D01*
X900D01*
Y24950D02*
Y25350D01*
X1300D01*
Y24950D01*
X900D01*
X12050Y22200D02*
Y22600D01*
X12450D01*
Y22200D01*
X12050D01*
X11050D02*
Y22600D01*
X11450D01*
Y22200D01*
X11050D01*
X15500Y23900D02*
Y24300D01*
X15900D01*
Y23900D01*
X15500D01*
X16500D02*
Y24300D01*
X16900D01*
Y23900D01*
X16500D01*
X550Y33350D02*
X350Y33750D01*
X750D01*
X550Y33350D01*
X560Y32356D02*
X360Y32756D01*
X760D01*
X560Y32356D01*
Y31362D02*
X360Y31762D01*
X760D01*
X560Y31362D01*
X550Y30348D02*
X350Y30748D01*
X750D01*
X550Y30348D01*
X6900Y28100D02*
X7000Y28200D01*
X7100D01*
X7000Y28300D01*
X7100Y28400D01*
X7000D01*
X6900Y28500D01*
X6800Y28400D01*
X6700D01*
X6800Y28300D01*
X6700Y28200D01*
X6800D01*
X6900Y28100D01*
X7900D02*
X8000Y28200D01*
X8100D01*
X8000Y28300D01*
X8100Y28400D01*
X8000D01*
X7900Y28500D01*
X7800Y28400D01*
X7700D01*
X7800Y28300D01*
X7700Y28200D01*
X7800D01*
X7900Y28100D01*
X6900Y27100D02*
X7000Y27200D01*
X7100D01*
X7000Y27300D01*
X7100Y27400D01*
X7000D01*
X6900Y27500D01*
X6800Y27400D01*
X6700D01*
X6800Y27300D01*
X6700Y27200D01*
X6800D01*
X6900Y27100D01*
X7900D02*
X8000Y27200D01*
X8100D01*
X8000Y27300D01*
X8100Y27400D01*
X8000D01*
X7900Y27500D01*
X7800Y27400D01*
X7700D01*
X7800Y27300D01*
X7700Y27200D01*
X7800D01*
X7900Y27100D01*
X6900Y26100D02*
X7000Y26200D01*
X7100D01*
X7000Y26300D01*
X7100Y26400D01*
X7000D01*
X6900Y26500D01*
X6800Y26400D01*
X6700D01*
X6800Y26300D01*
X6700Y26200D01*
X6800D01*
X6900Y26100D01*
X7900D02*
X8000Y26200D01*
X8100D01*
X8000Y26300D01*
X8100Y26400D01*
X8000D01*
X7900Y26500D01*
X7800Y26400D01*
X7700D01*
X7800Y26300D01*
X7700Y26200D01*
X7800D01*
X7900Y26100D01*
X6900Y25100D02*
X7000Y25200D01*
X7100D01*
X7000Y25300D01*
X7100Y25400D01*
X7000D01*
X6900Y25500D01*
X6800Y25400D01*
X6700D01*
X6800Y25300D01*
X6700Y25200D01*
X6800D01*
X6900Y25100D01*
X7900D02*
X8000Y25200D01*
X8100D01*
X8000Y25300D01*
X8100Y25400D01*
X8000D01*
X7900Y25500D01*
X7800Y25400D01*
X7700D01*
X7800Y25300D01*
X7700Y25200D01*
X7800D01*
X7900Y25100D01*
X1700Y37550D02*
Y37950D01*
X2100D01*
Y37550D01*
X1700D01*
Y38550D02*
Y38950D01*
X2100D01*
Y38550D01*
X1700D01*
X15550Y8850D02*
X15650Y9050D01*
X15550Y9250D01*
X15750Y9150D01*
X15950Y9250D01*
X15850Y9050D01*
X15950Y8850D01*
X15750Y8950D01*
X15550Y8850D01*
X16550D02*
X16650Y9050D01*
X16550Y9250D01*
X16750Y9150D01*
X16950Y9250D01*
X16850Y9050D01*
X16950Y8850D01*
X16750Y8950D01*
X16550Y8850D01*
X1000Y10236D02*
Y10636D01*
X1400D01*
Y10236D01*
X1000D01*
Y11250D02*
Y11650D01*
X1400D01*
Y11250D01*
X1000D01*
Y12224D02*
Y12624D01*
X1400D01*
Y12224D01*
X1000D01*
X550Y38400D02*
X650Y38500D01*
X750D01*
X650Y38600D01*
X750Y38700D01*
X650D01*
X550Y38800D01*
X450Y38700D01*
X350D01*
X450Y38600D01*
X350Y38500D01*
X450D01*
X550Y38400D01*
Y37400D02*
X650Y37500D01*
X750D01*
X650Y37600D01*
X750Y37700D01*
X650D01*
X550Y37800D01*
X450Y37700D01*
X350D01*
X450Y37600D01*
X350Y37500D01*
X450D01*
X550Y37400D01*
Y36400D02*
X650Y36500D01*
X750D01*
X650Y36600D01*
X750Y36700D01*
X650D01*
X550Y36800D01*
X450Y36700D01*
X350D01*
X450Y36600D01*
X350Y36500D01*
X450D01*
X550Y36400D01*
Y35400D02*
X650Y35500D01*
X750D01*
X650Y35600D01*
X750Y35700D01*
X650D01*
X550Y35800D01*
X450Y35700D01*
X350D01*
X450Y35600D01*
X350Y35500D01*
X450D01*
X550Y35400D01*
X13400Y23900D02*
Y24300D01*
X13800D01*
Y23900D01*
X13400D01*
X14400D02*
Y24300D01*
X14800D01*
Y23900D01*
X14400D01*
X3650D02*
Y24300D01*
X4050D01*
Y23900D01*
X3650D01*
X2650D02*
Y24300D01*
X3050D01*
Y23900D01*
X2650D01*
X3050Y38350D02*
Y38750D01*
X3450D01*
Y38350D01*
X3050D01*
X4050D02*
Y38750D01*
X4450D01*
Y38350D01*
X4050D01*
X5050D02*
Y38750D01*
X5450D01*
Y38350D01*
X5050D01*
X6050D02*
Y38750D01*
X6450D01*
Y38350D01*
X6050D01*
X7050D02*
Y38750D01*
X7450D01*
Y38350D01*
X7050D01*
X8050D02*
Y38750D01*
X8450D01*
Y38350D01*
X8050D01*
X9050D02*
Y38750D01*
X9450D01*
Y38350D01*
X9050D01*
X10050D02*
Y38750D01*
X10450D01*
Y38350D01*
X10050D01*
X13400Y7750D02*
Y8150D01*
X13800D01*
Y7750D01*
X13400D01*
X14400D02*
Y8150D01*
X14800D01*
Y7750D01*
X14400D01*
X3650D02*
Y8150D01*
X4050D01*
Y7750D01*
X3650D01*
X2650D02*
Y8150D01*
X3050D01*
Y7750D01*
X2650D01*
X3050Y22200D02*
Y22600D01*
X3450D01*
Y22200D01*
X3050D01*
X4050D02*
Y22600D01*
X4450D01*
Y22200D01*
X4050D01*
X5050D02*
Y22600D01*
X5450D01*
Y22200D01*
X5050D01*
X6050D02*
Y22600D01*
X6450D01*
Y22200D01*
X6050D01*
X7050D02*
Y22600D01*
X7450D01*
Y22200D01*
X7050D01*
X8050D02*
Y22600D01*
X8450D01*
Y22200D01*
X8050D01*
X9050D02*
Y22600D01*
X9450D01*
Y22200D01*
X9050D01*
X10050D02*
Y22600D01*
X10450D01*
Y22200D01*
X10050D01*
X11050Y38350D02*
Y38750D01*
X11450D01*
Y38350D01*
X11050D01*
X12050D02*
Y38750D01*
X12450D01*
Y38350D01*
X12050D01*
X1750Y29650D02*
Y29550D01*
X1950D01*
Y29650D01*
X2050D01*
Y29850D01*
X1950D01*
Y29950D01*
X1750D01*
Y29850D01*
X1650D01*
Y29650D01*
X1750D01*
Y29200D02*
Y29100D01*
X1950D01*
Y29200D01*
X2050D01*
Y29400D01*
X1950D01*
Y29500D01*
X1750D01*
Y29400D01*
X1650D01*
Y29200D01*
X1750D01*
Y28750D02*
Y28650D01*
X1950D01*
Y28750D01*
X2050D01*
Y28950D01*
X1950D01*
Y29050D01*
X1750D01*
Y28950D01*
X1650D01*
Y28750D01*
X1750D01*
X5500Y28350D02*
Y28250D01*
X5700D01*
Y28350D01*
X5800D01*
Y28550D01*
X5700D01*
Y28650D01*
X5500D01*
Y28550D01*
X5400D01*
Y28350D01*
X5500D01*
X1750Y31050D02*
Y30950D01*
X1950D01*
Y31050D01*
X2050D01*
Y31250D01*
X1950D01*
Y31350D01*
X1750D01*
Y31250D01*
X1650D01*
Y31050D01*
X1750D01*
X1550Y32100D02*
Y32000D01*
X1750D01*
Y32100D01*
X1850D01*
Y32300D01*
X1750D01*
Y32400D01*
X1550D01*
Y32300D01*
X1450D01*
Y32100D01*
X1550D01*
X2000D02*
Y32000D01*
X2200D01*
Y32100D01*
X2300D01*
Y32300D01*
X2200D01*
Y32400D01*
X2000D01*
Y32300D01*
X1900D01*
Y32100D01*
X2000D01*
Y32550D02*
Y32450D01*
X2200D01*
Y32550D01*
X2300D01*
Y32750D01*
X2200D01*
Y32850D01*
X2000D01*
Y32750D01*
X1900D01*
Y32550D01*
X2000D01*
Y33000D02*
Y32900D01*
X2200D01*
Y33000D01*
X2300D01*
Y33200D01*
X2200D01*
Y33300D01*
X2000D01*
Y33200D01*
X1900D01*
Y33000D01*
X2000D01*
Y33650D02*
Y33550D01*
X2200D01*
Y33650D01*
X2300D01*
Y33850D01*
X2200D01*
Y33950D01*
X2000D01*
Y33850D01*
X1900D01*
Y33650D01*
X2000D01*
X11950Y5900D02*
Y5800D01*
X12150D01*
Y5900D01*
X12250D01*
Y6100D01*
X12150D01*
Y6200D01*
X11950D01*
Y6100D01*
X11850D01*
Y5900D01*
X11950D01*
X800Y21850D02*
Y21750D01*
X1000D01*
Y21850D01*
X1100D01*
Y22050D01*
X1000D01*
Y22150D01*
X800D01*
Y22050D01*
X700D01*
Y21850D01*
X800D01*
X900Y17450D02*
Y17350D01*
X1100D01*
Y17450D01*
X1200D01*
Y17650D01*
X1100D01*
Y17750D01*
X900D01*
Y17650D01*
X800D01*
Y17450D01*
X900D01*
X5550Y26850D02*
Y26750D01*
X5750D01*
Y26850D01*
X5850D01*
Y27050D01*
X5750D01*
Y27150D01*
X5550D01*
Y27050D01*
X5450D01*
Y26850D01*
X5550D01*
Y25150D02*
Y25050D01*
X5750D01*
Y25150D01*
X5850D01*
Y25350D01*
X5750D01*
Y25450D01*
X5550D01*
Y25350D01*
X5450D01*
Y25150D01*
X5550D01*
X4906Y19644D02*
Y19544D01*
X5106D01*
Y19644D01*
X5206D01*
Y19844D01*
X5106D01*
Y19944D01*
X4906D01*
Y19844D01*
X4806D01*
Y19644D01*
X4906D01*
X11050Y10500D02*
Y10400D01*
X11250D01*
Y10500D01*
X11350D01*
Y10700D01*
X11250D01*
Y10800D01*
X11050D01*
Y10700D01*
X10950D01*
Y10500D01*
X11050D01*
X5900Y16300D02*
Y16200D01*
X6100D01*
Y16300D01*
X6200D01*
Y16500D01*
X6100D01*
Y16600D01*
X5900D01*
Y16500D01*
X5800D01*
Y16300D01*
X5900D01*
X12450Y8850D02*
Y8750D01*
X12650D01*
Y8850D01*
X12750D01*
Y9050D01*
X12650D01*
Y9150D01*
X12450D01*
Y9050D01*
X12350D01*
Y8850D01*
X12450D01*
X4950Y15050D02*
Y14950D01*
X5150D01*
Y15050D01*
X5250D01*
Y15250D01*
X5150D01*
Y15350D01*
X4950D01*
Y15250D01*
X4850D01*
Y15050D01*
X4950D01*
X8300Y18400D02*
Y18300D01*
X8500D01*
Y18400D01*
X8600D01*
Y18600D01*
X8500D01*
Y18700D01*
X8300D01*
Y18600D01*
X8200D01*
Y18400D01*
X8300D01*
X7800D02*
Y18300D01*
X8000D01*
Y18400D01*
X8100D01*
Y18600D01*
X8000D01*
Y18700D01*
X7800D01*
Y18600D01*
X7700D01*
Y18400D01*
X7800D01*
X5600Y20600D02*
Y20500D01*
X5800D01*
Y20600D01*
X5900D01*
Y20800D01*
X5800D01*
Y20900D01*
X5600D01*
Y20800D01*
X5500D01*
Y20600D01*
X5600D01*
X3755Y32534D02*
X3855D01*
X3955Y32634D01*
X4055Y32534D01*
X4155D01*
Y32634D01*
X4055Y32734D01*
X4155Y32834D01*
Y32934D01*
X4055D01*
X3955Y32834D01*
X3855Y32934D01*
X3755D01*
Y32834D01*
X3855Y32734D01*
X3755Y32634D01*
Y32534D01*
Y31784D02*
X3855D01*
X3955Y31884D01*
X4055Y31784D01*
X4155D01*
Y31884D01*
X4055Y31984D01*
X4155Y32084D01*
Y32184D01*
X4055D01*
X3955Y32084D01*
X3855Y32184D01*
X3755D01*
Y32084D01*
X3855Y31984D01*
X3755Y31884D01*
Y31784D01*
X4505D02*
X4605D01*
X4705Y31884D01*
X4805Y31784D01*
X4905D01*
Y31884D01*
X4805Y31984D01*
X4905Y32084D01*
Y32184D01*
X4805D01*
X4705Y32084D01*
X4605Y32184D01*
X4505D01*
Y32084D01*
X4605Y31984D01*
X4505Y31884D01*
Y31784D01*
Y32534D02*
X4605D01*
X4705Y32634D01*
X4805Y32534D01*
X4905D01*
Y32634D01*
X4805Y32734D01*
X4905Y32834D01*
Y32934D01*
X4805D01*
X4705Y32834D01*
X4605Y32934D01*
X4505D01*
Y32834D01*
X4605Y32734D01*
X4505Y32634D01*
Y32534D01*
X6200Y18300D02*
X6300Y18400D01*
X6400D01*
X6300Y18500D01*
X6400Y18600D01*
X6300D01*
X6200Y18700D01*
X6100Y18600D01*
X6000D01*
X6100Y18500D01*
X6000Y18400D01*
X6100D01*
X6200Y18300D01*
X4250Y18200D02*
Y18100D01*
X4450D01*
Y18200D01*
X4550D01*
Y18400D01*
X4450D01*
Y18500D01*
X4250D01*
Y18400D01*
X4150D01*
Y18200D01*
X4250D01*
X4500Y17850D02*
Y17750D01*
X4700D01*
Y17850D01*
X4800D01*
Y18050D01*
X4700D01*
Y18150D01*
X4500D01*
Y18050D01*
X4400D01*
Y17850D01*
X4500D01*
X4250Y25800D02*
Y25700D01*
X4450D01*
Y25800D01*
X4550D01*
Y26000D01*
X4450D01*
Y26100D01*
X4250D01*
Y26000D01*
X4150D01*
Y25800D01*
X4250D01*
X4700D02*
Y25700D01*
X4900D01*
Y25800D01*
X5000D01*
Y26000D01*
X4900D01*
Y26100D01*
X4700D01*
Y26000D01*
X4600D01*
Y25800D01*
X4700D01*
X3350Y31350D02*
Y31250D01*
X3550D01*
Y31350D01*
X3650D01*
Y31550D01*
X3550D01*
Y31650D01*
X3350D01*
Y31550D01*
X3250D01*
Y31350D01*
X3350D01*
X1600Y34850D02*
Y34750D01*
X1800D01*
Y34850D01*
X1900D01*
Y35050D01*
X1800D01*
Y35150D01*
X1600D01*
Y35050D01*
X1500D01*
Y34850D01*
X1600D01*
Y35300D02*
Y35200D01*
X1800D01*
Y35300D01*
X1900D01*
Y35500D01*
X1800D01*
Y35600D01*
X1600D01*
Y35500D01*
X1500D01*
Y35300D01*
X1600D01*
Y35750D02*
Y35650D01*
X1800D01*
Y35750D01*
X1900D01*
Y35950D01*
X1800D01*
Y36050D01*
X1600D01*
Y35950D01*
X1500D01*
Y35750D01*
X1600D01*
X11900Y30900D02*
Y30800D01*
X12100D01*
Y30900D01*
X12200D01*
Y31100D01*
X12100D01*
Y31200D01*
X11900D01*
Y31100D01*
X11800D01*
Y30900D01*
X11900D01*
X11400Y26250D02*
Y26150D01*
X11600D01*
Y26250D01*
X11700D01*
Y26450D01*
X11600D01*
Y26550D01*
X11400D01*
Y26450D01*
X11300D01*
Y26250D01*
X11400D01*
X15800Y27750D02*
Y27650D01*
X16000D01*
Y27750D01*
X16100D01*
Y27950D01*
X16000D01*
Y28050D01*
X15800D01*
Y27950D01*
X15700D01*
Y27750D01*
X15800D01*
X9050Y4350D02*
Y4250D01*
X9250D01*
Y4350D01*
X9350D01*
Y4550D01*
X9250D01*
Y4650D01*
X9050D01*
Y4550D01*
X8950D01*
Y4350D01*
X9050D01*
X15350D02*
Y4250D01*
X15550D01*
Y4350D01*
X15650D01*
Y4550D01*
X15550D01*
Y4650D01*
X15350D01*
Y4550D01*
X15250D01*
Y4350D01*
X15350D01*
X12200Y2800D02*
Y2700D01*
X12400D01*
Y2800D01*
X12500D01*
Y3000D01*
X12400D01*
Y3100D01*
X12200D01*
Y3000D01*
X12100D01*
Y2800D01*
X12200D01*
X14750Y38250D02*
X14850Y38350D01*
X14950D01*
X14850Y38450D01*
X14950Y38550D01*
X14850D01*
X14750Y38650D01*
X14650Y38550D01*
X14550D01*
X14650Y38450D01*
X14550Y38350D01*
X14650D01*
X14750Y38250D01*
X15750D02*
X15850Y38350D01*
X15950D01*
X15850Y38450D01*
X15950Y38550D01*
X15850D01*
X15750Y38650D01*
X15650Y38550D01*
X15550D01*
X15650Y38450D01*
X15550Y38350D01*
X15650D01*
X15750Y38250D01*
X13750D02*
X13850Y38350D01*
X13950D01*
X13850Y38450D01*
X13950Y38550D01*
X13850D01*
X13750Y38650D01*
X13650Y38550D01*
X13550D01*
X13650Y38450D01*
X13550Y38350D01*
X13650D01*
X13750Y38250D01*
X8600Y36500D02*
Y36400D01*
X8800D01*
Y36500D01*
X8900D01*
Y36700D01*
X8800D01*
Y36800D01*
X8600D01*
Y36700D01*
X8500D01*
Y36500D01*
X8600D01*
X13500Y18100D02*
Y18000D01*
X13700D01*
Y18100D01*
X13800D01*
Y18300D01*
X13700D01*
Y18400D01*
X13500D01*
Y18300D01*
X13400D01*
Y18100D01*
X13500D01*
X1600Y36950D02*
Y36850D01*
X1800D01*
Y36950D01*
X1900D01*
Y37150D01*
X1800D01*
Y37250D01*
X1600D01*
Y37150D01*
X1500D01*
Y36950D01*
X1600D01*
Y36500D02*
Y36400D01*
X1800D01*
Y36500D01*
X1900D01*
Y36700D01*
X1800D01*
Y36800D01*
X1600D01*
Y36700D01*
X1500D01*
Y36500D01*
X1600D01*
X5000Y33100D02*
Y33000D01*
X5200D01*
Y33100D01*
X5300D01*
Y33300D01*
X5200D01*
Y33400D01*
X5000D01*
Y33300D01*
X4900D01*
Y33100D01*
X5000D01*
X4600D02*
Y33000D01*
X4800D01*
Y33100D01*
X4900D01*
Y33300D01*
X4800D01*
Y33400D01*
X4600D01*
Y33300D01*
X4500D01*
Y33100D01*
X4600D01*
X4200D02*
Y33000D01*
X4400D01*
Y33100D01*
X4500D01*
Y33300D01*
X4400D01*
Y33400D01*
X4200D01*
Y33300D01*
X4100D01*
Y33100D01*
X4200D01*
X3800D02*
Y33000D01*
X4000D01*
Y33100D01*
X4100D01*
Y33300D01*
X4000D01*
Y33400D01*
X3800D01*
Y33300D01*
X3700D01*
Y33100D01*
X3800D01*
X4250Y36050D02*
Y35950D01*
X4450D01*
Y36050D01*
X4550D01*
Y36250D01*
X4450D01*
Y36350D01*
X4250D01*
Y36250D01*
X4150D01*
Y36050D01*
X4250D01*
X5050Y35450D02*
Y35350D01*
X5250D01*
Y35450D01*
X5350D01*
Y35650D01*
X5250D01*
Y35750D01*
X5050D01*
Y35650D01*
X4950D01*
Y35450D01*
X5050D01*
X4900Y35000D02*
Y34900D01*
X5100D01*
Y35000D01*
X5200D01*
Y35200D01*
X5100D01*
Y35300D01*
X4900D01*
Y35200D01*
X4800D01*
Y35000D01*
X4900D01*
X5100Y25150D02*
Y25050D01*
X5300D01*
Y25150D01*
X5400D01*
Y25350D01*
X5300D01*
Y25450D01*
X5100D01*
Y25350D01*
X5000D01*
Y25150D01*
X5100D01*
Y26850D02*
Y26750D01*
X5300D01*
Y26850D01*
X5400D01*
Y27050D01*
X5300D01*
Y27150D01*
X5100D01*
Y27050D01*
X5000D01*
Y26850D01*
X5100D01*
X1900Y7700D02*
Y7600D01*
X2100D01*
Y7700D01*
X2200D01*
Y7900D01*
X2100D01*
Y8000D01*
X1900D01*
Y7900D01*
X1800D01*
Y7700D01*
X1900D01*
X2550Y10450D02*
Y10350D01*
X2750D01*
Y10450D01*
X2850D01*
Y10650D01*
X2750D01*
Y10750D01*
X2550D01*
Y10650D01*
X2450D01*
Y10450D01*
X2550D01*
X2900Y10100D02*
Y10000D01*
X3100D01*
Y10100D01*
X3200D01*
Y10300D01*
X3100D01*
Y10400D01*
X2900D01*
Y10300D01*
X2800D01*
Y10100D01*
X2900D01*
X3850Y8750D02*
Y8650D01*
X4050D01*
Y8750D01*
X4150D01*
Y8950D01*
X4050D01*
Y9050D01*
X3850D01*
Y8950D01*
X3750D01*
Y8750D01*
X3850D01*
X6550Y11450D02*
Y11350D01*
X6750D01*
Y11450D01*
X6850D01*
Y11650D01*
X6750D01*
Y11750D01*
X6550D01*
Y11650D01*
X6450D01*
Y11450D01*
X6550D01*
X3500Y20700D02*
Y20600D01*
X3700D01*
Y20700D01*
X3800D01*
Y20900D01*
X3700D01*
Y21000D01*
X3500D01*
Y20900D01*
X3400D01*
Y20700D01*
X3500D01*
X3000Y13050D02*
Y12950D01*
X3200D01*
Y13050D01*
X3300D01*
Y13250D01*
X3200D01*
Y13350D01*
X3000D01*
Y13250D01*
X2900D01*
Y13050D01*
X3000D01*
X3900Y10750D02*
Y10650D01*
X4100D01*
Y10750D01*
X4200D01*
Y10950D01*
X4100D01*
Y11050D01*
X3900D01*
Y10950D01*
X3800D01*
Y10750D01*
X3900D01*
X7050Y16900D02*
Y16800D01*
X7250D01*
Y16900D01*
X7350D01*
Y17100D01*
X7250D01*
Y17200D01*
X7050D01*
Y17100D01*
X6950D01*
Y16900D01*
X7050D01*
Y15400D02*
Y15300D01*
X7250D01*
Y15400D01*
X7350D01*
Y15600D01*
X7250D01*
Y15700D01*
X7050D01*
Y15600D01*
X6950D01*
Y15400D01*
X7050D01*
X7800Y19250D02*
Y19150D01*
X8000D01*
Y19250D01*
X8100D01*
Y19450D01*
X8000D01*
Y19550D01*
X7800D01*
Y19450D01*
X7700D01*
Y19250D01*
X7800D01*
X10750D02*
Y19150D01*
X10950D01*
Y19250D01*
X11050D01*
Y19450D01*
X10950D01*
Y19550D01*
X10750D01*
Y19450D01*
X10650D01*
Y19250D01*
X10750D01*
X4950Y12150D02*
Y12050D01*
X5150D01*
Y12150D01*
X5250D01*
Y12350D01*
X5150D01*
Y12450D01*
X4950D01*
Y12350D01*
X4850D01*
Y12150D01*
X4950D01*
X450Y7700D02*
Y7600D01*
X650D01*
Y7700D01*
X750D01*
Y7900D01*
X650D01*
Y8000D01*
X450D01*
Y7900D01*
X350D01*
Y7700D01*
X450D01*
X4400Y19000D02*
Y18900D01*
X4600D01*
Y19000D01*
X4700D01*
Y19200D01*
X4600D01*
Y19300D01*
X4400D01*
Y19200D01*
X4300D01*
Y19000D01*
X4400D01*
X200Y27300D02*
Y27200D01*
X400D01*
Y27300D01*
X500D01*
Y27500D01*
X400D01*
Y27600D01*
X200D01*
Y27500D01*
X100D01*
Y27300D01*
X200D01*
X2800Y27700D02*
Y27600D01*
X3000D01*
Y27700D01*
X3100D01*
Y27900D01*
X3000D01*
Y28000D01*
X2800D01*
Y27900D01*
X2700D01*
Y27700D01*
X2800D01*
X3350Y27900D02*
Y27800D01*
X3550D01*
Y27900D01*
X3650D01*
Y28100D01*
X3550D01*
Y28200D01*
X3350D01*
Y28100D01*
X3250D01*
Y27900D01*
X3350D01*
X10200Y32050D02*
Y31950D01*
X10400D01*
Y32050D01*
X10500D01*
Y32250D01*
X10400D01*
Y32350D01*
X10200D01*
Y32250D01*
X10100D01*
Y32050D01*
X10200D01*
Y32550D02*
Y32450D01*
X10400D01*
Y32550D01*
X10500D01*
Y32750D01*
X10400D01*
Y32850D01*
X10200D01*
Y32750D01*
X10100D01*
Y32550D01*
X10200D01*
X9050Y3350D02*
Y3250D01*
X9250D01*
Y3350D01*
X9350D01*
Y3550D01*
X9250D01*
Y3650D01*
X9050D01*
Y3550D01*
X8950D01*
Y3350D01*
X9050D01*
X11150Y24500D02*
Y24400D01*
X11350D01*
Y24500D01*
X11450D01*
Y24700D01*
X11350D01*
Y24800D01*
X11150D01*
Y24700D01*
X11050D01*
Y24500D01*
X11150D01*
X9050Y27200D02*
Y27100D01*
X9250D01*
Y27200D01*
X9350D01*
Y27400D01*
X9250D01*
Y27500D01*
X9050D01*
Y27400D01*
X8950D01*
Y27200D01*
X9050D01*
X9550D02*
Y27100D01*
X9750D01*
Y27200D01*
X9850D01*
Y27400D01*
X9750D01*
Y27500D01*
X9550D01*
Y27400D01*
X9450D01*
Y27200D01*
X9550D01*
X11700Y24500D02*
Y24400D01*
X11900D01*
Y24500D01*
X12000D01*
Y24700D01*
X11900D01*
Y24800D01*
X11700D01*
Y24700D01*
X11600D01*
Y24500D01*
X11700D01*
X8600Y23900D02*
Y23800D01*
X8800D01*
Y23900D01*
X8900D01*
Y24100D01*
X8800D01*
Y24200D01*
X8600D01*
Y24100D01*
X8500D01*
Y23900D01*
X8600D01*
X7750Y35850D02*
Y35750D01*
X7950D01*
Y35850D01*
X8050D01*
Y36050D01*
X7950D01*
Y36150D01*
X7750D01*
Y36050D01*
X7650D01*
Y35850D01*
X7750D01*
X6600Y29200D02*
Y29100D01*
X6800D01*
Y29200D01*
X6900D01*
Y29400D01*
X6800D01*
Y29500D01*
X6600D01*
Y29400D01*
X6500D01*
Y29200D01*
X6600D01*
X250Y6700D02*
Y6600D01*
X450D01*
Y6700D01*
X550D01*
Y6900D01*
X450D01*
Y7000D01*
X250D01*
Y6900D01*
X150D01*
Y6700D01*
X250D01*
Y600D02*
Y500D01*
X450D01*
Y600D01*
X550D01*
Y800D01*
X450D01*
Y900D01*
X250D01*
Y800D01*
X150D01*
Y600D01*
X250D01*
X14700Y4350D02*
Y4250D01*
X14900D01*
Y4350D01*
X15000D01*
Y4550D01*
X14900D01*
Y4650D01*
X14700D01*
Y4550D01*
X14600D01*
Y4350D01*
X14700D01*
X8350Y9450D02*
Y9350D01*
X8550D01*
Y9450D01*
X8650D01*
Y9650D01*
X8550D01*
Y9750D01*
X8350D01*
Y9650D01*
X8250D01*
Y9450D01*
X8350D01*
X10200Y34800D02*
Y34700D01*
X10400D01*
Y34800D01*
X10500D01*
Y35000D01*
X10400D01*
Y35100D01*
X10200D01*
Y35000D01*
X10100D01*
Y34800D01*
X10200D01*
X11650D02*
Y34700D01*
X11850D01*
Y34800D01*
X11950D01*
Y35000D01*
X11850D01*
Y35100D01*
X11650D01*
Y35000D01*
X11550D01*
Y34800D01*
X11650D01*
X11900Y32050D02*
Y31950D01*
X12100D01*
Y32050D01*
X12200D01*
Y32250D01*
X12100D01*
Y32350D01*
X11900D01*
Y32250D01*
X11800D01*
Y32050D01*
X11900D01*
X13200Y27250D02*
Y27150D01*
X13400D01*
Y27250D01*
X13500D01*
Y27450D01*
X13400D01*
Y27550D01*
X13200D01*
Y27450D01*
X13100D01*
Y27250D01*
X13200D01*
X11400Y25800D02*
Y25700D01*
X11600D01*
Y25800D01*
X11700D01*
Y26000D01*
X11600D01*
Y26100D01*
X11400D01*
Y26000D01*
X11300D01*
Y25800D01*
X11400D01*
X9500Y28500D02*
Y28400D01*
X9700D01*
Y28500D01*
X9800D01*
Y28700D01*
X9700D01*
Y28800D01*
X9500D01*
Y28700D01*
X9400D01*
Y28500D01*
X9500D01*
X650Y28000D02*
Y27900D01*
X850D01*
Y28000D01*
X950D01*
Y28200D01*
X850D01*
Y28300D01*
X650D01*
Y28200D01*
X550D01*
Y28000D01*
X650D01*
X18220Y8630D02*
Y8510D01*
X18460D01*
Y8630D01*
X18580D01*
Y8870D01*
X18460D01*
Y8990D01*
X18220D01*
Y8870D01*
X18100D01*
Y8630D01*
X18220D01*
X18100Y7310D02*
X18220D01*
X18340Y7430D01*
X18460Y7310D01*
X18580D01*
Y7430D01*
X18460Y7550D01*
X18580Y7670D01*
Y7790D01*
X18460D01*
X18340Y7670D01*
X18220Y7790D01*
X18100D01*
Y7670D01*
X18220Y7550D01*
X18100Y7430D01*
Y7310D01*
X18340Y6110D02*
X18100Y6590D01*
X18580D01*
X18340Y6110D01*
X18100Y4910D02*
Y5390D01*
X18580D01*
Y4910D01*
X18100D01*
Y3710D02*
X18220Y3950D01*
X18100Y4190D01*
X18340Y4070D01*
X18580Y4190D01*
X18460Y3950D01*
X18580Y3710D01*
X18340Y3830D01*
X18100Y3710D01*
X18340Y2510D02*
X18460Y2630D01*
X18580D01*
X18460Y2750D01*
X18580Y2870D01*
X18460D01*
X18340Y2990D01*
X18220Y2870D01*
X18100D01*
X18220Y2750D01*
X18100Y2630D01*
X18220D01*
X18340Y2510D01*
D146*
X16577Y26750D02*
G03*
X16577Y26750I-200J0D01*
G01*
D147*
X18580Y10490D02*
X18460Y10610D01*
X18220D01*
X18100Y10490D01*
Y10370D01*
X18220Y10250D01*
X18460D01*
X18580Y10130D01*
Y10010D01*
X18460Y9890D01*
X18220D01*
X18100Y10010D01*
X18820Y10370D02*
Y10010D01*
X18940Y9890D01*
X19300D01*
Y9770D01*
X19180Y9650D01*
X19060D01*
X19300Y9890D02*
Y10370D01*
X19540Y9890D02*
Y10370D01*
X19659D01*
X19779Y10250D01*
Y9890D01*
Y10250D01*
X19899Y10370D01*
X20019Y10250D01*
Y9890D01*
X20259Y10610D02*
Y9890D01*
X20619D01*
X20739Y10010D01*
Y10130D01*
Y10250D01*
X20619Y10370D01*
X20259D01*
X21099Y9890D02*
X21339D01*
X21459Y10010D01*
Y10250D01*
X21339Y10370D01*
X21099D01*
X20979Y10250D01*
Y10010D01*
X21099Y9890D01*
X21699D02*
X21939D01*
X21819D01*
Y10610D01*
X21699D01*
X23139D02*
Y9890D01*
Y10250D01*
X23619D01*
Y10610D01*
Y9890D01*
X23859D02*
X24098D01*
X23978D01*
Y10370D01*
X23859D01*
X24578Y10490D02*
Y10370D01*
X24458D01*
X24698D01*
X24578D01*
Y10010D01*
X24698Y9890D01*
X26258Y10490D02*
X26138Y10610D01*
X25898D01*
X25778Y10490D01*
Y10010D01*
X25898Y9890D01*
X26138D01*
X26258Y10010D01*
X26618Y9890D02*
X26858D01*
X26978Y10010D01*
Y10250D01*
X26858Y10370D01*
X26618D01*
X26498Y10250D01*
Y10010D01*
X26618Y9890D01*
X27217Y10370D02*
Y10010D01*
X27337Y9890D01*
X27697D01*
Y10370D01*
X27937Y9890D02*
Y10370D01*
X28297D01*
X28417Y10250D01*
Y9890D01*
X28777Y10490D02*
Y10370D01*
X28657D01*
X28897D01*
X28777D01*
Y10010D01*
X28897Y9890D01*
X30577Y10610D02*
X30097D01*
Y10250D01*
X30337D01*
X30097D01*
Y9890D01*
X30817D02*
X31057D01*
X30937D01*
Y10370D01*
X30817D01*
X31416Y9890D02*
Y10370D01*
X31776D01*
X31896Y10250D01*
Y9890D01*
X32136D02*
X32376D01*
X32256D01*
Y10370D01*
X32136D01*
X32736Y9890D02*
X33096D01*
X33216Y10010D01*
X33096Y10130D01*
X32856D01*
X32736Y10250D01*
X32856Y10370D01*
X33216D01*
X33456Y10610D02*
Y9890D01*
Y10250D01*
X33576Y10370D01*
X33816D01*
X33936Y10250D01*
Y9890D01*
X34535D02*
X34296D01*
X34176Y10010D01*
Y10250D01*
X34296Y10370D01*
X34535D01*
X34655Y10250D01*
Y10130D01*
X34176D01*
X35375Y10610D02*
Y9890D01*
X35015D01*
X34895Y10010D01*
Y10250D01*
X35015Y10370D01*
X35375D01*
X36335Y10610D02*
Y9890D01*
Y10250D01*
X36815D01*
Y10610D01*
Y9890D01*
X37175D02*
X37415D01*
X37534Y10010D01*
Y10250D01*
X37415Y10370D01*
X37175D01*
X37055Y10250D01*
Y10010D01*
X37175Y9890D01*
X37774D02*
X38014D01*
X37894D01*
Y10610D01*
X37774D01*
X38734Y9890D02*
X38494D01*
X38374Y10010D01*
Y10250D01*
X38494Y10370D01*
X38734D01*
X38854Y10250D01*
Y10130D01*
X38374D01*
X40294Y10490D02*
X40174Y10610D01*
X39934D01*
X39814Y10490D01*
Y10370D01*
X39934Y10250D01*
X40174D01*
X40294Y10130D01*
Y10010D01*
X40174Y9890D01*
X39934D01*
X39814Y10010D01*
X40534Y9890D02*
X40773D01*
X40653D01*
Y10370D01*
X40534D01*
X41133D02*
X41613D01*
X41133Y9890D01*
X41613D01*
X42213D02*
X41973D01*
X41853Y10010D01*
Y10250D01*
X41973Y10370D01*
X42213D01*
X42333Y10250D01*
Y10130D01*
X41853D01*
X43533Y9890D02*
Y10610D01*
X43893D01*
X44013Y10490D01*
Y10250D01*
X43893Y10130D01*
X43533D01*
X44253Y9890D02*
X44493D01*
X44373D01*
Y10610D01*
X44253D01*
X44972Y10370D02*
X45212D01*
X45332Y10250D01*
Y9890D01*
X44972D01*
X44853Y10010D01*
X44972Y10130D01*
X45332D01*
X45692Y10490D02*
Y10370D01*
X45572D01*
X45812D01*
X45692D01*
Y10010D01*
X45812Y9890D01*
X46532D02*
X46292D01*
X46172Y10010D01*
Y10250D01*
X46292Y10370D01*
X46532D01*
X46652Y10250D01*
Y10130D01*
X46172D01*
X47372Y10610D02*
Y9890D01*
X47012D01*
X46892Y10010D01*
Y10250D01*
X47012Y10370D01*
X47372D01*
X48572Y10610D02*
Y9890D01*
Y10250D01*
X49052D01*
Y10610D01*
Y9890D01*
X49411D02*
X49651D01*
X49771Y10010D01*
Y10250D01*
X49651Y10370D01*
X49411D01*
X49291Y10250D01*
Y10010D01*
X49411Y9890D01*
X50011D02*
X50251D01*
X50131D01*
Y10610D01*
X50011D01*
X50971Y9890D02*
X50731D01*
X50611Y10010D01*
Y10250D01*
X50731Y10370D01*
X50971D01*
X51091Y10250D01*
Y10130D01*
X50611D01*
X52051Y10610D02*
X52530D01*
X52290D01*
Y9890D01*
X52770Y10370D02*
Y10010D01*
X52890Y9890D01*
X53250D01*
Y9770D01*
X53130Y9650D01*
X53010D01*
X53250Y9890D02*
Y10370D01*
X53490Y9650D02*
Y10370D01*
X53850D01*
X53970Y10250D01*
Y10010D01*
X53850Y9890D01*
X53490D01*
X54570D02*
X54330D01*
X54210Y10010D01*
Y10250D01*
X54330Y10370D01*
X54570D01*
X54690Y10250D01*
Y10130D01*
X54210D01*
X17220Y10970D02*
X55890D01*
X17220Y9350D02*
X55890D01*
X17220Y10970D02*
Y-250D01*
X55890Y10970D02*
Y-250D01*
X22699Y10970D02*
Y-250D01*
X29657Y10970D02*
Y-250D01*
X43093Y10970D02*
Y-250D01*
X48132Y10970D02*
Y-250D01*
X17220Y950D02*
X55890D01*
X17220Y-250D02*
X55890D01*
M02*
