G04 Layer_Physical_Order=2*
G04 Layer_Color=16711680*
%FSLAX24Y24*%
%MOIN*%
G70*
G01*
G75*
%ADD10C,0.0150*%
%ADD11R,0.1181X0.0591*%
%ADD12R,0.0600X0.0500*%
%ADD15R,0.0500X0.0500*%
%ADD21R,0.0500X0.0600*%
%ADD30R,0.0591X0.1181*%
%ADD36C,0.0100*%
%ADD37C,0.0300*%
%ADD38C,0.0200*%
%ADD39C,0.0350*%
%ADD46R,0.1050X0.1450*%
%ADD47C,0.0750*%
%ADD48O,0.0700X0.0750*%
%ADD49R,0.0750X0.0750*%
%ADD50C,0.0750*%
%ADD51R,0.0750X0.0750*%
%ADD52O,0.0650X0.0750*%
%ADD53O,0.0800X0.0700*%
%ADD54R,0.0800X0.0700*%
%ADD55C,0.0800*%
%ADD56C,0.0300*%
%ADD57C,0.0400*%
%ADD58C,0.0500*%
%ADD59R,0.0800X0.0600*%
%ADD60R,0.1100X0.1100*%
%ADD61R,0.0591X0.0630*%
G04:AMPARAMS|DCode=62|XSize=75mil|YSize=25mil|CornerRadius=6.3mil|HoleSize=0mil|Usage=FLASHONLY|Rotation=0.000|XOffset=0mil|YOffset=0mil|HoleType=Round|Shape=RoundedRectangle|*
%AMROUNDEDRECTD62*
21,1,0.0750,0.0125,0,0,0.0*
21,1,0.0625,0.0250,0,0,0.0*
1,1,0.0125,0.0313,-0.0063*
1,1,0.0125,-0.0313,-0.0063*
1,1,0.0125,-0.0313,0.0063*
1,1,0.0125,0.0313,0.0063*
%
%ADD62ROUNDEDRECTD62*%
%ADD63R,0.0750X0.0250*%
%ADD64R,0.0787X0.1300*%
%ADD65R,0.1300X0.0787*%
%ADD66R,0.0787X0.1100*%
%ADD67R,0.0600X0.0200*%
%ADD68C,0.0800*%
%ADD69R,0.0800X0.1650*%
%ADD70R,0.0800X0.1950*%
%ADD71R,0.0800X0.2200*%
G36*
X3568Y28095D02*
X3579Y28085D01*
X3591Y28077D01*
X3603Y28070D01*
X3615Y28064D01*
X3628Y28059D01*
X3641Y28055D01*
X3654Y28052D01*
X3668Y28051D01*
X3681Y28050D01*
Y27950D01*
X3668Y27949D01*
X3654Y27948D01*
X3641Y27945D01*
X3628Y27941D01*
X3615Y27936D01*
X3603Y27930D01*
X3591Y27923D01*
X3579Y27915D01*
X3568Y27905D01*
X3557Y27895D01*
Y28105D01*
X3568Y28095D01*
D02*
G37*
G36*
X3051Y27796D02*
X3054Y27786D01*
X3058Y27778D01*
X3064Y27770D01*
X3072Y27764D01*
X3080Y27759D01*
X3091Y27755D01*
X3103Y27752D01*
X3116Y27751D01*
X3131Y27750D01*
X3102Y27650D01*
X2928Y27653D01*
X3050Y27807D01*
X3051Y27796D01*
D02*
G37*
G36*
X14353Y28432D02*
X14364Y28423D01*
X14483Y28308D01*
X14562Y28229D01*
X14425Y28084D01*
X14384Y28124D01*
X14310Y28186D01*
X14277Y28209D01*
X14247Y28226D01*
X14220Y28238D01*
X14197Y28243D01*
X14176Y28243D01*
X14157Y28238D01*
X14142Y28226D01*
X14345Y28436D01*
X14347Y28437D01*
X14353Y28432D01*
D02*
G37*
G36*
X11389Y28230D02*
X11381Y28234D01*
X11370Y28237D01*
X11356Y28240D01*
X11338Y28243D01*
X11293Y28247D01*
X11201Y28250D01*
X11164Y28250D01*
Y28450D01*
X11201Y28450D01*
X11356Y28460D01*
X11370Y28463D01*
X11381Y28466D01*
X11389Y28470D01*
Y28230D01*
D02*
G37*
G36*
X10800Y28531D02*
X10806Y28514D01*
X10816Y28499D01*
X10830Y28486D01*
X10848Y28475D01*
X10870Y28466D01*
X10896Y28459D01*
X10926Y28454D01*
X10961Y28451D01*
X10999Y28450D01*
Y28250D01*
X10961Y28249D01*
X10926Y28246D01*
X10896Y28241D01*
X10870Y28234D01*
X10848Y28225D01*
X10830Y28214D01*
X10816Y28201D01*
X10806Y28186D01*
X10800Y28169D01*
X10798Y28150D01*
Y28550D01*
X10800Y28531D01*
D02*
G37*
G36*
X16258Y27550D02*
X16255Y27579D01*
X16246Y27604D01*
X16231Y27627D01*
X16210Y27646D01*
X16183Y27663D01*
X16150Y27676D01*
X16111Y27687D01*
X16066Y27694D01*
X16014Y27699D01*
X15957Y27700D01*
Y28000D01*
X16014Y28002D01*
X16066Y28006D01*
X16111Y28014D01*
X16150Y28024D01*
X16183Y28038D01*
X16210Y28054D01*
X16231Y28074D01*
X16246Y28096D01*
X16255Y28122D01*
X16258Y28150D01*
Y27550D01*
D02*
G37*
G36*
X9300Y27283D02*
X9302Y27269D01*
X9304Y27255D01*
X9307Y27241D01*
X9312Y27228D01*
X9317Y27216D01*
X9324Y27204D01*
X9331Y27193D01*
X9340Y27182D01*
X9349Y27172D01*
X9278Y27101D01*
X9268Y27110D01*
X9257Y27119D01*
X9246Y27126D01*
X9234Y27133D01*
X9222Y27138D01*
X9209Y27143D01*
X9195Y27146D01*
X9181Y27148D01*
X9167Y27150D01*
X9151Y27150D01*
X9300Y27299D01*
X9300Y27283D01*
D02*
G37*
G36*
X9800Y27098D02*
X9700Y27069D01*
X9699Y27084D01*
X9698Y27097D01*
X9695Y27109D01*
X9691Y27120D01*
X9686Y27128D01*
X9680Y27136D01*
X9672Y27142D01*
X9664Y27146D01*
X9654Y27149D01*
X9643Y27150D01*
X9797Y27272D01*
X9800Y27098D01*
D02*
G37*
G36*
X11558Y27226D02*
X11543Y27238D01*
X11524Y27243D01*
X11503Y27243D01*
X11480Y27238D01*
X11453Y27226D01*
X11423Y27209D01*
X11390Y27186D01*
X11355Y27158D01*
X11275Y27084D01*
X11138Y27229D01*
X11355Y27436D01*
X11558Y27226D01*
D02*
G37*
G36*
X11906Y27724D02*
X11889Y27718D01*
X11874Y27708D01*
X11861Y27694D01*
X11850Y27676D01*
X11841Y27654D01*
X11834Y27628D01*
X11829Y27600D01*
X11834Y27572D01*
X11841Y27546D01*
X11850Y27524D01*
X11861Y27506D01*
X11874Y27492D01*
X11889Y27482D01*
X11906Y27476D01*
X11925Y27474D01*
X11525D01*
X11544Y27476D01*
X11561Y27482D01*
X11576Y27492D01*
X11589Y27506D01*
X11600Y27524D01*
X11609Y27546D01*
X11616Y27572D01*
X11621Y27600D01*
X11616Y27628D01*
X11609Y27654D01*
X11600Y27676D01*
X11589Y27694D01*
X11576Y27708D01*
X11561Y27718D01*
X11544Y27724D01*
X11525Y27726D01*
X11925D01*
X11906Y27724D01*
D02*
G37*
G36*
X10301Y27699D02*
Y27400D01*
X10299Y27419D01*
X10293Y27436D01*
X10283Y27451D01*
X10269Y27464D01*
X10251Y27475D01*
X10229Y27484D01*
X10203Y27491D01*
X10173Y27496D01*
X10139Y27499D01*
X10101Y27500D01*
Y27700D01*
X10301Y27699D01*
D02*
G37*
G36*
X12581Y28800D02*
X12564Y28794D01*
X12549Y28784D01*
X12536Y28770D01*
X12525Y28752D01*
X12516Y28730D01*
X12509Y28704D01*
X12504Y28674D01*
X12501Y28639D01*
X12500Y28601D01*
X12300D01*
X12299Y28639D01*
X12296Y28674D01*
X12291Y28704D01*
X12284Y28730D01*
X12275Y28752D01*
X12264Y28770D01*
X12251Y28784D01*
X12236Y28794D01*
X12219Y28800D01*
X12200Y28802D01*
X12600D01*
X12581Y28800D01*
D02*
G37*
G36*
X2049Y29428D02*
X2040Y29418D01*
X2031Y29407D01*
X2024Y29396D01*
X2017Y29384D01*
X2012Y29372D01*
X2007Y29359D01*
X2004Y29345D01*
X2002Y29331D01*
X2000Y29317D01*
X2000Y29302D01*
X1851Y29450D01*
X1867Y29450D01*
X1881Y29452D01*
X1895Y29454D01*
X1909Y29457D01*
X1922Y29462D01*
X1934Y29467D01*
X1946Y29474D01*
X1957Y29481D01*
X1968Y29490D01*
X1978Y29499D01*
X2049Y29428D01*
D02*
G37*
G36*
X8761Y29595D02*
Y29300D01*
X8759Y29319D01*
X8753Y29336D01*
X8743Y29351D01*
X8729Y29364D01*
X8711Y29375D01*
X8689Y29384D01*
X8663Y29391D01*
X8633Y29396D01*
X8599Y29399D01*
X8561Y29400D01*
Y29600D01*
X8761Y29595D01*
D02*
G37*
G36*
X15081Y29780D02*
X15064Y29774D01*
X15049Y29764D01*
X15036Y29750D01*
X15025Y29732D01*
X15016Y29710D01*
X15009Y29684D01*
X15004Y29654D01*
X15001Y29619D01*
X15000Y29581D01*
X14800D01*
X14799Y29619D01*
X14796Y29654D01*
X14791Y29684D01*
X14784Y29710D01*
X14775Y29732D01*
X14764Y29750D01*
X14751Y29764D01*
X14736Y29774D01*
X14719Y29780D01*
X14700Y29782D01*
X15100D01*
X15081Y29780D01*
D02*
G37*
G36*
X8148Y30007D02*
X8141Y29990D01*
X8140Y29970D01*
X8145Y29947D01*
X8156Y29920D01*
X8174Y29890D01*
X8197Y29857D01*
X8227Y29820D01*
X8304Y29738D01*
X8119Y29640D01*
X8080Y29678D01*
X8009Y29737D01*
X7977Y29759D01*
X7947Y29776D01*
X7920Y29788D01*
X7895Y29794D01*
X7873Y29796D01*
X7853Y29792D01*
X7836Y29782D01*
X8161Y30020D01*
X8148Y30007D01*
D02*
G37*
G36*
X13947Y32287D02*
Y29450D01*
X12204D01*
X12185Y29496D01*
X12384Y29696D01*
X12476D01*
Y29630D01*
X13564D01*
Y31230D01*
X12476D01*
Y30104D01*
X12472Y30104D01*
X12300D01*
X12222Y30088D01*
X12156Y30044D01*
X11860Y29748D01*
X11814Y29767D01*
Y30764D01*
X11864Y30790D01*
X11902Y30765D01*
X12000Y30745D01*
X12098Y30765D01*
X12180Y30820D01*
X12235Y30902D01*
X12255Y31000D01*
X12235Y31098D01*
X12180Y31180D01*
X12098Y31235D01*
X12000Y31255D01*
X11902Y31235D01*
X11864Y31210D01*
X11814Y31230D01*
Y31230D01*
X11814Y31230D01*
X11423D01*
Y33530D01*
X11411Y33589D01*
X11378Y33638D01*
X10815Y34201D01*
X10835Y34247D01*
X11987D01*
X13947Y32287D01*
D02*
G37*
G36*
X15001Y29461D02*
X15004Y29427D01*
X15009Y29397D01*
X15016Y29371D01*
X15025Y29349D01*
X15036Y29331D01*
X15049Y29317D01*
X15064Y29307D01*
X15081Y29301D01*
X15100Y29299D01*
X14751D01*
X14760Y29301D01*
X14769Y29307D01*
X14776Y29317D01*
X14782Y29331D01*
X14788Y29349D01*
X14792Y29371D01*
X14796Y29397D01*
X14800Y29461D01*
X14800Y29499D01*
X15000D01*
X15001Y29461D01*
D02*
G37*
G36*
X2049Y28978D02*
X2040Y28968D01*
X2031Y28957D01*
X2024Y28946D01*
X2017Y28934D01*
X2012Y28922D01*
X2007Y28909D01*
X2004Y28895D01*
X2002Y28881D01*
X2000Y28867D01*
X2000Y28851D01*
X1851Y29000D01*
X1867Y29000D01*
X1881Y29002D01*
X1895Y29004D01*
X1909Y29007D01*
X1922Y29012D01*
X1934Y29017D01*
X1946Y29024D01*
X1957Y29031D01*
X1968Y29040D01*
X1978Y29049D01*
X2049Y28978D01*
D02*
G37*
G36*
X13481Y28800D02*
X13464Y28794D01*
X13449Y28784D01*
X13436Y28770D01*
X13425Y28752D01*
X13416Y28730D01*
X13409Y28704D01*
X13404Y28674D01*
X13401Y28639D01*
X13400Y28601D01*
X13200D01*
X13199Y28639D01*
X13196Y28674D01*
X13191Y28704D01*
X13184Y28730D01*
X13175Y28752D01*
X13164Y28770D01*
X13151Y28784D01*
X13136Y28794D01*
X13119Y28800D01*
X13100Y28802D01*
X13500D01*
X13481Y28800D01*
D02*
G37*
G36*
X10800Y29380D02*
X10802Y29362D01*
X10804Y29347D01*
X10808Y29334D01*
X10812Y29323D01*
X10818Y29314D01*
X10824Y29307D01*
X10832Y29302D01*
X10841Y29299D01*
X10850Y29298D01*
X10650D01*
X10659Y29299D01*
X10668Y29302D01*
X10675Y29307D01*
X10682Y29314D01*
X10687Y29323D01*
X10692Y29334D01*
X10696Y29347D01*
X10698Y29362D01*
X10699Y29380D01*
X10700Y29399D01*
X10800D01*
X10800Y29380D01*
D02*
G37*
G36*
X14151Y29380D02*
X14152Y29363D01*
X14154Y29348D01*
X14158Y29335D01*
X14162Y29324D01*
X14168Y29315D01*
X14174Y29308D01*
X14182Y29303D01*
X14190Y29300D01*
X14200Y29299D01*
X14000D01*
X14009Y29300D01*
X14018Y29303D01*
X14025Y29308D01*
X14032Y29315D01*
X14037Y29324D01*
X14042Y29335D01*
X14045Y29348D01*
X14048Y29363D01*
X14049Y29380D01*
X14050Y29399D01*
X14150D01*
X14151Y29380D01*
D02*
G37*
G36*
X11849Y29299D02*
X11416Y29298D01*
X11444Y29299D01*
X11472Y29303D01*
X11500Y29311D01*
X11529Y29321D01*
X11557Y29333D01*
X11585Y29349D01*
X11614Y29368D01*
X11642Y29389D01*
X11670Y29413D01*
X11699Y29440D01*
X11982D01*
X11849Y29299D01*
D02*
G37*
G36*
X16448Y24596D02*
X16472Y24577D01*
X16500Y24559D01*
X16530Y24543D01*
X16563Y24527D01*
X16598Y24513D01*
X16636Y24500D01*
X16721Y24478D01*
X16767Y24469D01*
X16332Y24174D01*
X16339Y24215D01*
X16343Y24255D01*
X16343Y24292D01*
X16341Y24327D01*
X16334Y24361D01*
X16325Y24393D01*
X16313Y24423D01*
X16297Y24452D01*
X16278Y24478D01*
X16256Y24503D01*
X16426Y24616D01*
X16448Y24596D01*
D02*
G37*
G36*
X10120Y24199D02*
X10097Y24176D01*
X10063Y24136D01*
X10051Y24119D01*
X10042Y24104D01*
X10036Y24091D01*
X10034Y24079D01*
X10035Y24070D01*
X10040Y24063D01*
X10048Y24057D01*
X9857Y24148D01*
X9867Y24144D01*
X9878Y24143D01*
X9890Y24145D01*
X9903Y24148D01*
X9916Y24154D01*
X9931Y24163D01*
X9946Y24173D01*
X9963Y24186D01*
X9980Y24202D01*
X9999Y24220D01*
X10120Y24199D01*
D02*
G37*
G36*
X11351Y23611D02*
X11350Y23616D01*
X11345Y23620D01*
X11338Y23623D01*
X11327Y23626D01*
X11314Y23629D01*
X11297Y23631D01*
X11255Y23634D01*
X11201Y23635D01*
Y23785D01*
X11230Y23785D01*
X11314Y23791D01*
X11327Y23794D01*
X11338Y23797D01*
X11345Y23800D01*
X11350Y23804D01*
X11351Y23809D01*
Y23611D01*
D02*
G37*
G36*
X11143Y24495D02*
X11132Y24505D01*
X11121Y24515D01*
X11109Y24523D01*
X11097Y24530D01*
X11085Y24536D01*
X11072Y24541D01*
X11059Y24545D01*
X11046Y24548D01*
X11032Y24549D01*
X11019Y24550D01*
Y24650D01*
X11032Y24651D01*
X11046Y24652D01*
X11059Y24655D01*
X11072Y24659D01*
X11085Y24664D01*
X11097Y24670D01*
X11109Y24677D01*
X11121Y24685D01*
X11132Y24695D01*
X11143Y24705D01*
Y24495D01*
D02*
G37*
G36*
X15367Y24576D02*
X15441Y24513D01*
X15474Y24490D01*
X15503Y24473D01*
X15530Y24462D01*
X15554Y24456D01*
X15575Y24456D01*
X15594Y24461D01*
X15609Y24473D01*
X15327Y24191D01*
X15339Y24206D01*
X15344Y24225D01*
X15344Y24246D01*
X15338Y24270D01*
X15327Y24297D01*
X15310Y24326D01*
X15287Y24359D01*
X15259Y24394D01*
X15185Y24474D01*
X15326Y24615D01*
X15367Y24576D01*
D02*
G37*
G36*
X13339Y24625D02*
X13368Y24601D01*
X13398Y24580D01*
X13428Y24561D01*
X13460Y24544D01*
X13493Y24530D01*
X13526Y24519D01*
X13560Y24509D01*
X13595Y24503D01*
X13631Y24499D01*
X13202Y24139D01*
X13204Y24175D01*
X13203Y24209D01*
X13198Y24243D01*
X13191Y24276D01*
X13180Y24309D01*
X13166Y24341D01*
X13149Y24371D01*
X13128Y24402D01*
X13105Y24431D01*
X13078Y24460D01*
X13311Y24651D01*
X13339Y24625D01*
D02*
G37*
G36*
X2564Y23820D02*
X2538Y23845D01*
X2511Y23867D01*
X2482Y23886D01*
X2451Y23903D01*
X2419Y23918D01*
X2386Y23929D01*
X2351Y23938D01*
X2315Y23945D01*
X2278Y23949D01*
X2239Y23950D01*
Y24250D01*
X2278Y24251D01*
X2315Y24255D01*
X2351Y24262D01*
X2386Y24271D01*
X2419Y24283D01*
X2451Y24297D01*
X2482Y24314D01*
X2511Y24333D01*
X2538Y24355D01*
X2564Y24380D01*
Y23820D01*
D02*
G37*
G36*
X10949Y23846D02*
X10954Y23833D01*
X10961Y23822D01*
X10972Y23812D01*
X10986Y23804D01*
X11002Y23797D01*
X11022Y23792D01*
X11044Y23788D01*
X11070Y23786D01*
X11099Y23785D01*
Y23635D01*
X10949Y23651D01*
X10948Y23860D01*
X10949Y23846D01*
D02*
G37*
G36*
X8593Y23895D02*
X8582Y23905D01*
X8571Y23915D01*
X8559Y23923D01*
X8547Y23930D01*
X8535Y23936D01*
X8522Y23941D01*
X8509Y23945D01*
X8496Y23948D01*
X8482Y23949D01*
X8469Y23950D01*
Y24050D01*
X8482Y24051D01*
X8496Y24052D01*
X8509Y24055D01*
X8522Y24059D01*
X8535Y24064D01*
X8547Y24070D01*
X8559Y24077D01*
X8571Y24085D01*
X8582Y24095D01*
X8593Y24105D01*
Y23895D01*
D02*
G37*
G36*
X8299Y24090D02*
X8302Y24082D01*
X8307Y24074D01*
X8314Y24068D01*
X8323Y24063D01*
X8334Y24058D01*
X8347Y24055D01*
X8362Y24052D01*
X8380Y24051D01*
X8399Y24050D01*
Y23950D01*
X8380Y23949D01*
X8362Y23948D01*
X8347Y23946D01*
X8334Y23942D01*
X8323Y23938D01*
X8314Y23932D01*
X8307Y23925D01*
X8302Y23918D01*
X8299Y23909D01*
X8298Y23900D01*
Y24100D01*
X8299Y24090D01*
D02*
G37*
G36*
X6802Y23900D02*
X6801Y23909D01*
X6798Y23918D01*
X6793Y23925D01*
X6786Y23932D01*
X6777Y23938D01*
X6766Y23942D01*
X6753Y23946D01*
X6738Y23948D01*
X6720Y23949D01*
X6701Y23950D01*
Y24050D01*
X6720Y24051D01*
X6738Y24052D01*
X6753Y24055D01*
X6766Y24058D01*
X6777Y24063D01*
X6786Y24068D01*
X6793Y24074D01*
X6798Y24082D01*
X6801Y24090D01*
X6802Y24100D01*
Y23900D01*
D02*
G37*
G36*
X6515Y25799D02*
X6629Y25703D01*
X6678Y25668D01*
X6723Y25642D01*
X6763Y25625D01*
X6798Y25617D01*
X6829Y25618D01*
X6854Y25629D01*
X6875Y25648D01*
X6502Y25175D01*
X6517Y25200D01*
X6524Y25229D01*
X6522Y25262D01*
X6513Y25299D01*
X6496Y25340D01*
X6470Y25384D01*
X6437Y25432D01*
X6396Y25484D01*
X6346Y25539D01*
X6289Y25599D01*
X6451Y25861D01*
X6515Y25799D01*
D02*
G37*
G36*
X10644Y26805D02*
X10647Y26804D01*
X10653Y26803D01*
X10660Y26802D01*
X10695Y26801D01*
X10750Y26800D01*
Y26600D01*
X10643Y26594D01*
Y26806D01*
X10644Y26805D01*
D02*
G37*
G36*
X12551Y26642D02*
X12559Y26546D01*
X12566Y26507D01*
X12575Y26474D01*
X12586Y26447D01*
X12598Y26426D01*
X12613Y26411D01*
X12630Y26402D01*
X12649Y26399D01*
X12151D01*
X12170Y26402D01*
X12187Y26411D01*
X12202Y26426D01*
X12214Y26447D01*
X12225Y26474D01*
X12234Y26507D01*
X12241Y26546D01*
X12246Y26591D01*
X12250Y26699D01*
X12550D01*
X12551Y26642D01*
D02*
G37*
G36*
X5295Y26832D02*
X5285Y26821D01*
X5277Y26809D01*
X5270Y26797D01*
X5264Y26785D01*
X5259Y26772D01*
X5255Y26759D01*
X5252Y26746D01*
X5251Y26732D01*
X5250Y26719D01*
X5150D01*
X5149Y26732D01*
X5148Y26746D01*
X5145Y26759D01*
X5141Y26772D01*
X5136Y26785D01*
X5130Y26797D01*
X5123Y26809D01*
X5115Y26821D01*
X5105Y26832D01*
X5095Y26843D01*
X5305D01*
X5295Y26832D01*
D02*
G37*
G36*
X5093Y26845D02*
X5082Y26855D01*
X5071Y26865D01*
X5059Y26873D01*
X5047Y26880D01*
X5035Y26886D01*
X5022Y26891D01*
X5009Y26895D01*
X4996Y26898D01*
X4982Y26899D01*
X4969Y26900D01*
Y27000D01*
X4982Y27001D01*
X4996Y27002D01*
X5009Y27005D01*
X5022Y27009D01*
X5035Y27014D01*
X5047Y27020D01*
X5059Y27027D01*
X5071Y27035D01*
X5082Y27045D01*
X5093Y27055D01*
Y26845D01*
D02*
G37*
G36*
X5745Y26832D02*
X5735Y26821D01*
X5727Y26809D01*
X5720Y26797D01*
X5714Y26785D01*
X5709Y26772D01*
X5705Y26759D01*
X5702Y26746D01*
X5701Y26732D01*
X5700Y26719D01*
X5600D01*
X5599Y26732D01*
X5598Y26746D01*
X5595Y26759D01*
X5591Y26772D01*
X5586Y26785D01*
X5580Y26797D01*
X5573Y26809D01*
X5565Y26821D01*
X5555Y26832D01*
X5545Y26843D01*
X5755D01*
X5745Y26832D01*
D02*
G37*
G36*
X4895Y25782D02*
X4885Y25771D01*
X4877Y25759D01*
X4870Y25747D01*
X4864Y25735D01*
X4859Y25722D01*
X4855Y25709D01*
X4852Y25696D01*
X4851Y25682D01*
X4850Y25669D01*
X4750D01*
X4749Y25682D01*
X4748Y25696D01*
X4745Y25709D01*
X4741Y25722D01*
X4736Y25735D01*
X4730Y25747D01*
X4723Y25759D01*
X4715Y25771D01*
X4705Y25782D01*
X4695Y25793D01*
X4905D01*
X4895Y25782D01*
D02*
G37*
G36*
X5701Y25468D02*
X5702Y25454D01*
X5705Y25441D01*
X5709Y25428D01*
X5714Y25415D01*
X5720Y25403D01*
X5727Y25391D01*
X5735Y25379D01*
X5745Y25368D01*
X5755Y25357D01*
X5545D01*
X5555Y25368D01*
X5565Y25379D01*
X5573Y25391D01*
X5580Y25403D01*
X5586Y25415D01*
X5591Y25428D01*
X5595Y25441D01*
X5598Y25454D01*
X5599Y25468D01*
X5600Y25481D01*
X5700D01*
X5701Y25468D01*
D02*
G37*
G36*
X5251D02*
X5252Y25454D01*
X5255Y25441D01*
X5259Y25428D01*
X5264Y25415D01*
X5270Y25403D01*
X5277Y25391D01*
X5285Y25379D01*
X5295Y25368D01*
X5305Y25357D01*
X5095D01*
X5105Y25368D01*
X5115Y25379D01*
X5123Y25391D01*
X5130Y25403D01*
X5136Y25415D01*
X5141Y25428D01*
X5145Y25441D01*
X5148Y25454D01*
X5149Y25468D01*
X5150Y25481D01*
X5250D01*
X5251Y25468D01*
D02*
G37*
G36*
X12630Y25898D02*
X12613Y25889D01*
X12598Y25874D01*
X12586Y25853D01*
X12575Y25826D01*
X12566Y25793D01*
X12559Y25754D01*
X12554Y25709D01*
X12550Y25601D01*
X12250D01*
X12249Y25658D01*
X12241Y25754D01*
X12234Y25793D01*
X12225Y25826D01*
X12214Y25853D01*
X12202Y25874D01*
X12187Y25889D01*
X12170Y25898D01*
X12151Y25901D01*
X12649D01*
X12630Y25898D01*
D02*
G37*
G36*
X4445Y25782D02*
X4435Y25771D01*
X4427Y25759D01*
X4420Y25747D01*
X4414Y25735D01*
X4409Y25722D01*
X4405Y25709D01*
X4402Y25696D01*
X4401Y25682D01*
X4400Y25669D01*
X4300D01*
X4299Y25682D01*
X4298Y25696D01*
X4295Y25709D01*
X4291Y25722D01*
X4286Y25735D01*
X4280Y25747D01*
X4273Y25759D01*
X4265Y25771D01*
X4255Y25782D01*
X4245Y25793D01*
X4455D01*
X4445Y25782D01*
D02*
G37*
G36*
X11200Y26796D02*
Y26575D01*
X11296D01*
X11297Y26575D01*
X11297Y26574D01*
X11310Y26549D01*
X11316Y26525D01*
X11264Y26448D01*
X11245Y26350D01*
X11264Y26252D01*
X11320Y26170D01*
X11402Y26115D01*
X11500Y26095D01*
X11598Y26115D01*
X11680Y26170D01*
X11735Y26252D01*
X11755Y26350D01*
X11735Y26448D01*
X11684Y26525D01*
X11690Y26549D01*
X11703Y26574D01*
X11703Y26575D01*
X11704Y26575D01*
X11960D01*
X12000Y26550D01*
Y25750D01*
X12128D01*
X12140Y25701D01*
X12105Y25655D01*
X10975D01*
X10948Y25657D01*
X10912Y25663D01*
X10895Y25668D01*
Y26091D01*
X10795D01*
Y26505D01*
X10828Y26512D01*
X10894Y26556D01*
X11154Y26815D01*
X11200Y26796D01*
D02*
G37*
G36*
X675Y35112D02*
X681Y35113D01*
X802Y35163D01*
X907Y35243D01*
X947Y35296D01*
X997Y35279D01*
Y34700D01*
X1009Y34641D01*
X1042Y34592D01*
X1292Y34342D01*
X1341Y34309D01*
X1400Y34297D01*
X1515D01*
X1535Y34251D01*
X1242Y33958D01*
X1209Y33909D01*
X1197Y33850D01*
Y32500D01*
X1209Y32441D01*
X1242Y32392D01*
X1386Y32248D01*
X1389Y32244D01*
X1391Y32239D01*
X1393Y32235D01*
X1395Y32230D01*
X1396Y32224D01*
X1397Y32218D01*
X1398Y32213D01*
X1395Y32200D01*
X1415Y32102D01*
X1470Y32020D01*
X1552Y31964D01*
X1650Y31945D01*
X1748Y31964D01*
X1830Y32020D01*
X1850Y32049D01*
X1900D01*
X1920Y32020D01*
X2002Y31964D01*
X2100Y31945D01*
X2198Y31964D01*
X2280Y32020D01*
X2335Y32102D01*
X2347Y32161D01*
X2397Y32156D01*
Y30513D01*
X1898Y30014D01*
X1894Y30011D01*
X1889Y30009D01*
X1885Y30007D01*
X1880Y30005D01*
X1874Y30004D01*
X1868Y30003D01*
X1863Y30002D01*
X1850Y30005D01*
X1752Y29985D01*
X1670Y29930D01*
X1615Y29848D01*
X1595Y29750D01*
X1615Y29652D01*
X1670Y29570D01*
X1699Y29550D01*
Y29500D01*
X1670Y29480D01*
X1615Y29398D01*
X1595Y29300D01*
X1615Y29202D01*
X1670Y29120D01*
X1699Y29100D01*
Y29050D01*
X1670Y29030D01*
X1615Y28948D01*
X1595Y28850D01*
X1615Y28752D01*
X1670Y28670D01*
X1752Y28614D01*
X1850Y28595D01*
X1948Y28614D01*
X2030Y28670D01*
X2085Y28752D01*
X2105Y28850D01*
X2102Y28863D01*
X2103Y28868D01*
X2104Y28874D01*
X2105Y28880D01*
X2107Y28885D01*
X2109Y28889D01*
X2111Y28894D01*
X2114Y28898D01*
X3058Y29842D01*
X3091Y29891D01*
X3103Y29950D01*
Y32937D01*
X3213Y33047D01*
X3649D01*
X3680Y33010D01*
Y32460D01*
X4330D01*
Y32360D01*
X4430D01*
Y31710D01*
X4897D01*
Y28913D01*
X4437Y28453D01*
X1513D01*
X1403Y28563D01*
Y29737D01*
X1958Y30292D01*
X1991Y30341D01*
X2003Y30400D01*
Y30930D01*
X2004Y30934D01*
X2005Y30939D01*
X2007Y30944D01*
X2009Y30948D01*
X2012Y30953D01*
X2016Y30958D01*
X2019Y30963D01*
X2030Y30970D01*
X2085Y31052D01*
X2105Y31150D01*
X2085Y31248D01*
X2030Y31330D01*
X1948Y31386D01*
X1850Y31405D01*
X1752Y31386D01*
X1670Y31330D01*
X1615Y31248D01*
X1595Y31150D01*
X1615Y31052D01*
X1670Y30970D01*
X1681Y30963D01*
X1684Y30958D01*
X1688Y30953D01*
X1691Y30948D01*
X1693Y30944D01*
X1695Y30939D01*
X1696Y30934D01*
X1697Y30930D01*
Y30463D01*
X1142Y29908D01*
X1109Y29859D01*
X1097Y29800D01*
Y28500D01*
X1109Y28441D01*
X1142Y28392D01*
X1342Y28192D01*
X1391Y28159D01*
X1450Y28147D01*
X3195D01*
X3218Y28103D01*
X3214Y28098D01*
X3195Y28000D01*
X3214Y27902D01*
X3218Y27897D01*
X3195Y27853D01*
X3144D01*
X3135Y27898D01*
X3080Y27980D01*
X2998Y28036D01*
X2900Y28055D01*
X2802Y28036D01*
X2720Y27980D01*
X2664Y27898D01*
X2645Y27800D01*
X2664Y27705D01*
X2664Y27696D01*
X2639Y27655D01*
X505D01*
X504Y27715D01*
Y29366D01*
X1294Y30156D01*
X1338Y30222D01*
X1354Y30300D01*
X1354Y30300D01*
Y31966D01*
X1338Y32044D01*
X1294Y32110D01*
X1100Y32304D01*
X1090Y32318D01*
X1078Y32338D01*
X1068Y32360D01*
X1058Y32385D01*
X1058Y32386D01*
X1071Y32419D01*
X1089Y32556D01*
X1071Y32693D01*
X1018Y32821D01*
X934Y32930D01*
X825Y33015D01*
X799Y33025D01*
X809Y33075D01*
X1025D01*
Y33425D01*
X550D01*
Y33550D01*
X425D01*
Y34025D01*
X153D01*
Y35221D01*
X203Y35236D01*
X298Y35163D01*
X419Y35113D01*
X425Y35112D01*
Y35600D01*
X675D01*
Y35112D01*
D02*
G37*
G36*
X4934Y34965D02*
X4920Y34972D01*
X4892Y34983D01*
X4878Y34988D01*
X4851Y34994D01*
X4838Y34997D01*
X4811Y35000D01*
X4798Y35000D01*
X4760Y35100D01*
X4774Y35101D01*
X4788Y35103D01*
X4801Y35106D01*
X4812Y35110D01*
X4823Y35116D01*
X4833Y35123D01*
X4842Y35131D01*
X4850Y35141D01*
X4858Y35151D01*
X4864Y35163D01*
X4934Y34965D01*
D02*
G37*
G36*
X1899Y35078D02*
X1890Y35068D01*
X1881Y35057D01*
X1874Y35046D01*
X1867Y35034D01*
X1862Y35022D01*
X1857Y35009D01*
X1854Y34995D01*
X1852Y34981D01*
X1850Y34967D01*
X1850Y34952D01*
X1701Y35100D01*
X1717Y35100D01*
X1731Y35102D01*
X1745Y35104D01*
X1759Y35107D01*
X1772Y35112D01*
X1784Y35117D01*
X1796Y35124D01*
X1807Y35131D01*
X1818Y35140D01*
X1828Y35149D01*
X1899Y35078D01*
D02*
G37*
G36*
X1818Y35945D02*
X1829Y35935D01*
X1841Y35927D01*
X1853Y35920D01*
X1865Y35914D01*
X1878Y35909D01*
X1891Y35905D01*
X1904Y35902D01*
X1918Y35901D01*
X1931Y35900D01*
Y35800D01*
X1918Y35799D01*
X1904Y35798D01*
X1891Y35795D01*
X1878Y35791D01*
X1865Y35786D01*
X1853Y35780D01*
X1841Y35773D01*
X1829Y35765D01*
X1818Y35755D01*
X1807Y35745D01*
Y35955D01*
X1818Y35945D01*
D02*
G37*
G36*
X5043Y35445D02*
X5035Y35452D01*
X5027Y35457D01*
X5018Y35460D01*
X5009Y35461D01*
X5000Y35460D01*
X4990Y35457D01*
X4981Y35453D01*
X4970Y35446D01*
X4959Y35438D01*
X4948Y35428D01*
X4901Y35522D01*
X5029Y35639D01*
X5043Y35445D01*
D02*
G37*
G36*
X1899Y35528D02*
X1890Y35518D01*
X1881Y35507D01*
X1874Y35496D01*
X1867Y35484D01*
X1862Y35472D01*
X1857Y35459D01*
X1854Y35445D01*
X1852Y35431D01*
X1850Y35417D01*
X1850Y35402D01*
X1701Y35550D01*
X1717Y35550D01*
X1731Y35552D01*
X1745Y35554D01*
X1759Y35557D01*
X1772Y35562D01*
X1784Y35567D01*
X1796Y35574D01*
X1807Y35581D01*
X1818Y35590D01*
X1828Y35599D01*
X1899Y35528D01*
D02*
G37*
G36*
X17297Y153D02*
X8503D01*
Y1750D01*
X8491Y1809D01*
X8458Y1858D01*
X8409Y1891D01*
X8350Y1903D01*
X4950D01*
X4891Y1891D01*
X4842Y1858D01*
X4809Y1809D01*
X4797Y1750D01*
Y153D01*
X3352D01*
Y482D01*
X3354Y500D01*
Y1000D01*
X3352Y1018D01*
Y2050D01*
X3344Y2089D01*
X3322Y2122D01*
X3289Y2144D01*
X3250Y2152D01*
X3054D01*
Y3366D01*
X3284Y3596D01*
X8716D01*
X8903Y3408D01*
X8915Y3352D01*
X8970Y3270D01*
X9052Y3214D01*
X9150Y3195D01*
X9248Y3214D01*
X9330Y3270D01*
X9385Y3352D01*
X9405Y3450D01*
X9385Y3548D01*
X9330Y3630D01*
X9248Y3686D01*
X9194Y3696D01*
X9176Y3713D01*
X9063Y3825D01*
X9082Y3872D01*
X11076D01*
X12038Y2909D01*
X12040Y2907D01*
X12045Y2901D01*
X12045Y2900D01*
X12045Y2900D01*
X12064Y2802D01*
X12120Y2720D01*
X12202Y2664D01*
X12300Y2645D01*
X12398Y2664D01*
X12480Y2720D01*
X12536Y2802D01*
X12555Y2900D01*
X12536Y2998D01*
X12480Y3080D01*
X12398Y3135D01*
X12300Y3155D01*
X12300Y3155D01*
X12299Y3155D01*
X12294Y3159D01*
X12289Y3163D01*
X11276Y4176D01*
X11218Y4215D01*
X11150Y4228D01*
X9352D01*
X9336Y4278D01*
X9385Y4352D01*
X9405Y4450D01*
X9385Y4548D01*
X9330Y4630D01*
X9248Y4685D01*
X9150Y4705D01*
X9052Y4685D01*
X9007Y4655D01*
X8983Y4654D01*
X2854D01*
X2850Y4654D01*
Y5100D01*
X1750D01*
Y4318D01*
X1704Y4299D01*
X1450Y4552D01*
Y5100D01*
X350D01*
Y4200D01*
X1298D01*
X1574Y3924D01*
X1632Y3885D01*
X1700Y3872D01*
X2918D01*
X2937Y3825D01*
X2706Y3594D01*
X2662Y3528D01*
X2646Y3450D01*
Y2152D01*
X2450D01*
X2411Y2144D01*
X2378Y2122D01*
X2356Y2089D01*
X2348Y2050D01*
Y1018D01*
X2346Y1000D01*
Y500D01*
X2348Y482D01*
Y153D01*
X2003D01*
Y1000D01*
X1991Y1059D01*
X1958Y1108D01*
X1909Y1141D01*
X1850Y1153D01*
X850D01*
X791Y1141D01*
X742Y1108D01*
X709Y1059D01*
X697Y1000D01*
Y153D01*
X153D01*
Y7050D01*
X17297D01*
Y153D01*
D02*
G37*
G36*
X2311Y33191D02*
X2302Y33181D01*
X2294Y33170D01*
X2286Y33159D01*
X2278Y33148D01*
X2271Y33136D01*
X2265Y33123D01*
X2260Y33110D01*
X2250Y33081D01*
X2246Y33066D01*
X2137Y33245D01*
X2151Y33243D01*
X2164Y33241D01*
X2177Y33241D01*
X2190Y33242D01*
X2202Y33245D01*
X2214Y33249D01*
X2226Y33255D01*
X2237Y33262D01*
X2248Y33270D01*
X2259Y33280D01*
X2311Y33191D01*
D02*
G37*
G36*
X4619Y33402D02*
X4630Y33394D01*
X4640Y33386D01*
X4652Y33378D01*
X4664Y33371D01*
X4677Y33365D01*
X4690Y33360D01*
X4719Y33350D01*
X4734Y33346D01*
X4555Y33237D01*
X4557Y33251D01*
X4559Y33264D01*
X4559Y33277D01*
X4558Y33290D01*
X4555Y33302D01*
X4551Y33314D01*
X4545Y33326D01*
X4538Y33337D01*
X4530Y33348D01*
X4520Y33359D01*
X4609Y33411D01*
X4619Y33402D01*
D02*
G37*
G36*
X4219D02*
X4230Y33394D01*
X4241Y33386D01*
X4252Y33378D01*
X4264Y33371D01*
X4277Y33365D01*
X4290Y33360D01*
X4319Y33350D01*
X4334Y33346D01*
X4155Y33237D01*
X4157Y33251D01*
X4159Y33264D01*
X4159Y33277D01*
X4158Y33290D01*
X4155Y33302D01*
X4151Y33314D01*
X4145Y33326D01*
X4138Y33337D01*
X4130Y33348D01*
X4120Y33359D01*
X4209Y33411D01*
X4219Y33402D01*
D02*
G37*
G36*
X12209Y3097D02*
X12231Y3079D01*
X12242Y3071D01*
X12252Y3064D01*
X12262Y3059D01*
X12272Y3055D01*
X12281Y3052D01*
X12290Y3050D01*
X12299Y3050D01*
X12150Y2901D01*
X12149Y2910D01*
X12148Y2919D01*
X12145Y2928D01*
X12141Y2938D01*
X12136Y2948D01*
X12129Y2958D01*
X12121Y2969D01*
X12113Y2980D01*
X12091Y3002D01*
X12198Y3109D01*
X12209Y3097D01*
D02*
G37*
G36*
X2312Y33791D02*
X2302Y33781D01*
X2276Y33751D01*
X2268Y33740D01*
X2247Y33707D01*
X2241Y33696D01*
X2235Y33685D01*
X2172Y33882D01*
X2183Y33876D01*
X2195Y33872D01*
X2206Y33870D01*
X2217Y33870D01*
X2229Y33871D01*
X2240Y33875D01*
X2251Y33879D01*
X2262Y33886D01*
X2273Y33894D01*
X2283Y33904D01*
X2312Y33791D01*
D02*
G37*
G36*
X9148Y3600D02*
X9000Y3451D01*
X8999Y3453D01*
X8997Y3457D01*
X8994Y3461D01*
X8984Y3473D01*
X8949Y3510D01*
X8937Y3522D01*
X9078Y3663D01*
X9148Y3600D01*
D02*
G37*
G36*
X6246Y38150D02*
X6184Y38150D01*
X6026Y38138D01*
X5982Y38130D01*
X5943Y38121D01*
X5909Y38109D01*
X5880Y38096D01*
X5855Y38081D01*
X5835Y38064D01*
X5764Y38135D01*
X5781Y38155D01*
X5796Y38180D01*
X5809Y38209D01*
X5821Y38243D01*
X5830Y38282D01*
X5838Y38326D01*
X5844Y38374D01*
X5850Y38484D01*
X5850Y38546D01*
X6246Y38150D01*
D02*
G37*
G36*
X4317Y38156D02*
X4250Y38144D01*
X4037Y38093D01*
X3997Y38080D01*
X3964Y38067D01*
X3936Y38053D01*
X3913Y38039D01*
X3896Y38025D01*
X3812Y38083D01*
X3831Y38105D01*
X3846Y38131D01*
X3859Y38161D01*
X3868Y38194D01*
X3874Y38231D01*
X3877Y38272D01*
X3876Y38317D01*
X3873Y38366D01*
X3867Y38419D01*
X3857Y38475D01*
X4317Y38156D01*
D02*
G37*
G36*
X3486Y38220D02*
X3383Y38100D01*
X3358Y38064D01*
X3337Y38030D01*
X3321Y37998D01*
X3309Y37967D01*
X3302Y37939D01*
X3300Y37913D01*
X3200D01*
X3198Y37939D01*
X3191Y37967D01*
X3179Y37998D01*
X3163Y38030D01*
X3142Y38064D01*
X3117Y38100D01*
X3087Y38138D01*
X3014Y38220D01*
X2970Y38264D01*
X3530D01*
X3486Y38220D01*
D02*
G37*
G36*
X2952Y2048D02*
X2979Y1696D01*
X2996Y1600D01*
X3016Y1515D01*
X3040Y1441D01*
X3067Y1377D01*
X3098Y1325D01*
X3133Y1283D01*
X2567D01*
X2602Y1325D01*
X2633Y1377D01*
X2660Y1441D01*
X2684Y1515D01*
X2704Y1600D01*
X2721Y1696D01*
X2743Y1920D01*
X2748Y2048D01*
X2750Y2187D01*
X2950D01*
X2952Y2048D01*
D02*
G37*
G36*
X5291Y38201D02*
X5279Y38202D01*
X5266Y38201D01*
X5253Y38198D01*
X5239Y38194D01*
X5225Y38187D01*
X5211Y38179D01*
X5196Y38169D01*
X5181Y38158D01*
X5166Y38144D01*
X5150Y38129D01*
X5026Y38146D01*
X5041Y38162D01*
X5053Y38176D01*
X5062Y38189D01*
X5068Y38201D01*
X5072Y38210D01*
X5073Y38219D01*
X5070Y38226D01*
X5065Y38231D01*
X5057Y38235D01*
X5046Y38238D01*
X5291Y38201D01*
D02*
G37*
G36*
X7246Y38150D02*
X7184Y38150D01*
X7026Y38138D01*
X6982Y38130D01*
X6943Y38121D01*
X6909Y38109D01*
X6880Y38096D01*
X6855Y38081D01*
X6835Y38064D01*
X6764Y38135D01*
X6781Y38155D01*
X6796Y38180D01*
X6809Y38209D01*
X6821Y38243D01*
X6830Y38282D01*
X6838Y38326D01*
X6844Y38374D01*
X6850Y38484D01*
X6850Y38546D01*
X7246Y38150D01*
D02*
G37*
G36*
X1818Y37145D02*
X1829Y37135D01*
X1841Y37127D01*
X1853Y37120D01*
X1865Y37114D01*
X1878Y37109D01*
X1891Y37105D01*
X1904Y37102D01*
X1918Y37101D01*
X1931Y37100D01*
Y37000D01*
X1918Y36999D01*
X1904Y36998D01*
X1891Y36995D01*
X1878Y36991D01*
X1865Y36986D01*
X1853Y36980D01*
X1841Y36973D01*
X1829Y36965D01*
X1818Y36955D01*
X1807Y36945D01*
Y37155D01*
X1818Y37145D01*
D02*
G37*
G36*
X6090Y36551D02*
X6082Y36548D01*
X6074Y36543D01*
X6068Y36536D01*
X6062Y36527D01*
X6058Y36516D01*
X6054Y36503D01*
X6052Y36488D01*
X6050Y36470D01*
X6050Y36451D01*
X5950D01*
X5949Y36470D01*
X5948Y36488D01*
X5945Y36503D01*
X5942Y36516D01*
X5938Y36527D01*
X5932Y36536D01*
X5925Y36543D01*
X5918Y36548D01*
X5909Y36551D01*
X5900Y36552D01*
X6100D01*
X6090Y36551D01*
D02*
G37*
G36*
X17297Y35144D02*
X16670D01*
Y34650D01*
Y34156D01*
X17297D01*
Y33334D01*
X16670D01*
Y32840D01*
Y32346D01*
X17297D01*
Y31574D01*
X16119D01*
X16093Y31595D01*
X10944Y36744D01*
X10878Y36788D01*
X10800Y36804D01*
X8845D01*
X8798Y36835D01*
X8700Y36855D01*
X8602Y36835D01*
X8520Y36780D01*
X8464Y36698D01*
X8445Y36600D01*
X8464Y36502D01*
X8520Y36420D01*
X8602Y36365D01*
X8700Y36345D01*
X8798Y36365D01*
X8843Y36395D01*
X8867Y36396D01*
X10716D01*
X15745Y31367D01*
X15770Y31340D01*
Y30486D01*
X16432D01*
X16437Y30470D01*
X16443Y30433D01*
X16445Y30407D01*
Y29480D01*
X16443Y29450D01*
X16350D01*
Y28650D01*
X16354D01*
X16387Y28600D01*
X16384Y28591D01*
X16106D01*
Y28118D01*
X16089Y28113D01*
X16053Y28107D01*
X16026Y28105D01*
X15900D01*
X15802Y28085D01*
X15720Y28030D01*
X15664Y27948D01*
X15645Y27850D01*
X15664Y27752D01*
X15720Y27670D01*
X15802Y27615D01*
X15900Y27595D01*
X16026D01*
X16053Y27593D01*
X16089Y27587D01*
X16106Y27582D01*
Y27109D01*
X16107D01*
X16124Y27059D01*
X16092Y27035D01*
X16028Y26952D01*
X15988Y26854D01*
X15974Y26750D01*
X15988Y26645D01*
X16028Y26548D01*
X16092Y26465D01*
X16176Y26400D01*
X16273Y26360D01*
X16377Y26346D01*
X16482Y26360D01*
X16579Y26400D01*
X16663Y26465D01*
X16727Y26548D01*
X16767Y26645D01*
X16781Y26750D01*
X16767Y26854D01*
X16727Y26952D01*
X16663Y27035D01*
X16631Y27059D01*
X16648Y27109D01*
X16996D01*
Y28591D01*
X16996D01*
X16989Y28601D01*
X17004Y28638D01*
X17016Y28650D01*
X17150D01*
Y29450D01*
X16968D01*
X16963Y29467D01*
X16957Y29504D01*
X16955Y29530D01*
Y30407D01*
X16957Y30433D01*
X16963Y30470D01*
X16968Y30486D01*
X17297D01*
Y23350D01*
X153D01*
Y24121D01*
X199Y24140D01*
X420Y23920D01*
X502Y23865D01*
X600Y23845D01*
X2288D01*
X2301Y23844D01*
X2329Y23839D01*
X2356Y23832D01*
X2367Y23828D01*
X2370Y23823D01*
X2458Y23708D01*
X2573Y23620D01*
X2706Y23564D01*
X2850Y23545D01*
X2994Y23564D01*
X3127Y23620D01*
X3242Y23708D01*
X3330Y23823D01*
X3352Y23875D01*
X3402D01*
X3413Y23848D01*
X3493Y23743D01*
X3598Y23663D01*
X3719Y23613D01*
X3725Y23612D01*
Y24100D01*
Y24588D01*
X3719Y24587D01*
X3598Y24537D01*
X3493Y24457D01*
X3413Y24352D01*
X3402Y24325D01*
X3352D01*
X3330Y24377D01*
X3242Y24492D01*
X3127Y24580D01*
X2994Y24636D01*
X2850Y24655D01*
X2706Y24636D01*
X2573Y24580D01*
X2458Y24492D01*
X2370Y24377D01*
X2367Y24372D01*
X2356Y24368D01*
X2329Y24361D01*
X2301Y24356D01*
X2288Y24355D01*
X706D01*
X555Y24506D01*
Y24963D01*
X605Y24973D01*
X641Y24885D01*
X726Y24776D01*
X835Y24691D01*
X963Y24639D01*
X1100Y24620D01*
X1237Y24639D01*
X1365Y24691D01*
X1474Y24776D01*
X1559Y24885D01*
X1575Y24925D01*
X1625D01*
X1641Y24885D01*
X1726Y24776D01*
X1835Y24691D01*
X1963Y24639D01*
X2100Y24620D01*
X2237Y24639D01*
X2365Y24691D01*
X2474Y24776D01*
X2559Y24885D01*
X2611Y25013D01*
X2630Y25150D01*
X2611Y25287D01*
X2559Y25415D01*
X2474Y25524D01*
X2365Y25609D01*
X2323Y25626D01*
Y25676D01*
X2352Y25688D01*
X2457Y25768D01*
X2537Y25873D01*
X2587Y25994D01*
X2604Y26125D01*
Y26175D01*
X2587Y26306D01*
X2537Y26427D01*
X2457Y26532D01*
X2352Y26612D01*
X2231Y26662D01*
X2100Y26679D01*
X1969Y26662D01*
X1848Y26612D01*
X1743Y26532D01*
X1663Y26427D01*
X1627Y26340D01*
X1573D01*
X1537Y26427D01*
X1457Y26532D01*
X1352Y26612D01*
X1231Y26662D01*
X1100Y26679D01*
X969Y26662D01*
X848Y26612D01*
X743Y26532D01*
X663Y26427D01*
X613Y26306D01*
X605Y26245D01*
X555Y26248D01*
Y27145D01*
X4306D01*
X4311Y27095D01*
X4291Y27091D01*
X4242Y27058D01*
X3892Y26708D01*
X3859Y26659D01*
X3847Y26600D01*
Y25350D01*
X3859Y25291D01*
X3892Y25242D01*
X5242Y23892D01*
X5291Y23859D01*
X5350Y23847D01*
X6650D01*
Y23500D01*
X8450D01*
Y23784D01*
X8494Y23826D01*
X8517Y23825D01*
X8520Y23820D01*
X8602Y23765D01*
X8700Y23745D01*
X8798Y23765D01*
X8880Y23820D01*
X8935Y23902D01*
X8955Y24000D01*
X8935Y24098D01*
X8902Y24147D01*
X8929Y24197D01*
X9300D01*
Y23500D01*
X11100D01*
Y23532D01*
X11200D01*
Y23460D01*
X12100D01*
Y23840D01*
Y24340D01*
X11982D01*
X11962Y24372D01*
X11955Y24389D01*
X11957Y24394D01*
X11959Y24398D01*
X11962Y24403D01*
X11966Y24409D01*
X11969Y24413D01*
X11980Y24420D01*
X12035Y24502D01*
X12055Y24600D01*
X12035Y24698D01*
X11980Y24780D01*
X11898Y24836D01*
X11800Y24855D01*
X11702Y24836D01*
X11620Y24780D01*
X11565Y24698D01*
X11550Y24627D01*
X11500D01*
X11485Y24698D01*
X11430Y24780D01*
X11348Y24836D01*
X11250Y24855D01*
X11152Y24836D01*
X11070Y24780D01*
X11063Y24769D01*
X11058Y24766D01*
X11053Y24762D01*
X11048Y24759D01*
X11044Y24757D01*
X11039Y24755D01*
X11034Y24754D01*
X11030Y24753D01*
X10895D01*
Y25132D01*
X10912Y25137D01*
X10948Y25143D01*
X10975Y25145D01*
X12244D01*
X13038Y24352D01*
X13046Y24341D01*
X13062Y24318D01*
X13074Y24295D01*
X13080Y24282D01*
X13064Y24244D01*
X13045Y24100D01*
X13064Y23956D01*
X13120Y23823D01*
X13208Y23708D01*
X13323Y23620D01*
X13456Y23564D01*
X13600Y23545D01*
X13744Y23564D01*
X13877Y23620D01*
X13992Y23708D01*
X14080Y23823D01*
X14102Y23875D01*
X14152D01*
X14163Y23848D01*
X14243Y23743D01*
X14348Y23663D01*
X14469Y23613D01*
X14475Y23612D01*
Y24100D01*
Y24588D01*
X14469Y24587D01*
X14348Y24537D01*
X14243Y24457D01*
X14163Y24352D01*
X14152Y24325D01*
X14102D01*
X14080Y24377D01*
X13992Y24492D01*
X13877Y24580D01*
X13744Y24636D01*
X13600Y24655D01*
X13495Y24641D01*
X13479Y24649D01*
X13454Y24664D01*
X13430Y24682D01*
X13422Y24689D01*
X12655Y25456D01*
Y25680D01*
X12656Y25702D01*
X12660Y25740D01*
X12662Y25750D01*
X12800D01*
Y26550D01*
X12662D01*
X12660Y26559D01*
X12655Y26622D01*
Y27144D01*
X13106Y27595D01*
X13539D01*
X13566Y27550D01*
X13566Y27547D01*
X13564Y27542D01*
X13545Y27530D01*
X13509Y27476D01*
X13504Y27450D01*
X13975D01*
Y27250D01*
X13504D01*
X13509Y27224D01*
X13545Y27170D01*
X13564Y27158D01*
X13565Y27155D01*
X13561Y27100D01*
X13509Y27066D01*
X13462Y26995D01*
X13446Y26913D01*
Y26788D01*
X13462Y26705D01*
X13509Y26634D01*
X13580Y26587D01*
X13662Y26571D01*
X14046D01*
Y25550D01*
X14062Y25472D01*
X14106Y25406D01*
X15148Y24364D01*
X15175Y24335D01*
Y23575D01*
X16225D01*
Y23774D01*
X16275Y23791D01*
X16326Y23726D01*
X16435Y23641D01*
X16563Y23589D01*
X16700Y23570D01*
X16837Y23589D01*
X16965Y23641D01*
X17074Y23726D01*
X17159Y23835D01*
X17211Y23963D01*
X17230Y24100D01*
X17211Y24237D01*
X17159Y24365D01*
X17074Y24474D01*
X16965Y24559D01*
X16837Y24611D01*
X16700Y24630D01*
X16611Y24618D01*
X16603Y24621D01*
X16576Y24634D01*
X16552Y24647D01*
X16531Y24660D01*
X16518Y24670D01*
X14854Y26334D01*
Y27150D01*
X15093D01*
Y27840D01*
Y28531D01*
X14798D01*
Y28211D01*
X14748Y28191D01*
X14499Y28440D01*
X14488Y28495D01*
X14441Y28566D01*
X14389Y28600D01*
X14405Y28650D01*
X15500D01*
Y28700D01*
X15750D01*
Y29050D01*
Y29400D01*
X15500D01*
Y29450D01*
X15104D01*
X15104Y29454D01*
Y29626D01*
X15104Y29630D01*
X15314D01*
Y31230D01*
X14253D01*
Y32350D01*
X14241Y32409D01*
X14208Y32458D01*
X12158Y34508D01*
X12109Y34541D01*
X12050Y34553D01*
X5735D01*
X5715Y34599D01*
X7416Y36300D01*
X8294D01*
Y37900D01*
X7206D01*
Y36523D01*
X6154Y35470D01*
X6115Y35502D01*
X6141Y35541D01*
X6153Y35600D01*
Y36400D01*
X6544D01*
Y37697D01*
X6550D01*
X6609Y37709D01*
X6658Y37742D01*
X6913Y37996D01*
X6915Y37998D01*
X6927Y38006D01*
X6946Y38014D01*
X6972Y38023D01*
X7003Y38030D01*
X7038Y38037D01*
X7050Y38037D01*
X7106Y38014D01*
X7250Y37995D01*
X7394Y38014D01*
X7527Y38070D01*
X7642Y38158D01*
X7721Y38260D01*
X7737Y38264D01*
X7763D01*
X7779Y38260D01*
X7858Y38158D01*
X7973Y38070D01*
X8106Y38014D01*
X8250Y37995D01*
X8394Y38014D01*
X8527Y38070D01*
X8642Y38158D01*
X8730Y38273D01*
X8752Y38325D01*
X8802D01*
X8813Y38298D01*
X8893Y38193D01*
X8998Y38113D01*
X9119Y38063D01*
X9125Y38062D01*
Y38550D01*
Y39038D01*
X9119Y39037D01*
X8998Y38987D01*
X8893Y38907D01*
X8813Y38802D01*
X8802Y38775D01*
X8752D01*
X8730Y38827D01*
X8642Y38942D01*
X8527Y39030D01*
X8394Y39086D01*
X8250Y39105D01*
X8106Y39086D01*
X7973Y39030D01*
X7858Y38942D01*
X7779Y38840D01*
X7763Y38836D01*
X7737D01*
X7721Y38840D01*
X7642Y38942D01*
X7527Y39030D01*
X7394Y39086D01*
X7250Y39105D01*
X7106Y39086D01*
X6973Y39030D01*
X6858Y38942D01*
X6779Y38840D01*
X6763Y38836D01*
X6737D01*
X6721Y38840D01*
X6642Y38942D01*
X6527Y39030D01*
X6394Y39086D01*
X6250Y39105D01*
X6106Y39086D01*
X5973Y39030D01*
X5858Y38942D01*
X5775Y38834D01*
X5745Y38828D01*
X5716Y38829D01*
X5657Y38907D01*
X5552Y38987D01*
X5431Y39037D01*
X5300Y39054D01*
X5200D01*
X5069Y39037D01*
X4948Y38987D01*
X4843Y38907D01*
X4784Y38829D01*
X4755Y38828D01*
X4725Y38834D01*
X4642Y38942D01*
X4527Y39030D01*
X4394Y39086D01*
X4250Y39105D01*
X4106Y39086D01*
X3973Y39030D01*
X3858Y38942D01*
X3779Y38840D01*
X3763Y38836D01*
X3737D01*
X3721Y38840D01*
X3642Y38942D01*
X3527Y39030D01*
X3394Y39086D01*
X3250Y39105D01*
X3106Y39086D01*
X2973Y39030D01*
X2858Y38942D01*
X2770Y38827D01*
X2714Y38694D01*
X2695Y38550D01*
X2714Y38406D01*
X2770Y38273D01*
X2858Y38158D01*
X2973Y38070D01*
X3030Y38046D01*
X3035Y38039D01*
X3057Y38008D01*
X3074Y37980D01*
X3086Y37956D01*
X3087Y37953D01*
X2471Y37337D01*
X2425Y37357D01*
Y38275D01*
X2125D01*
X2115Y38325D01*
X2140Y38335D01*
X2239Y38411D01*
X2315Y38510D01*
X2362Y38625D01*
X1438D01*
X1485Y38510D01*
X1561Y38411D01*
X1660Y38335D01*
X1685Y38325D01*
X1675Y38275D01*
X1375D01*
Y37225D01*
X1463D01*
X1487Y37181D01*
X1464Y37148D01*
X1459Y37120D01*
X1411Y37105D01*
X1161Y37355D01*
X1155Y37365D01*
X1147Y37381D01*
X1096Y37534D01*
X1105Y37600D01*
X1086Y37744D01*
X1030Y37877D01*
X942Y37992D01*
X840Y38071D01*
X836Y38087D01*
Y38113D01*
X840Y38129D01*
X942Y38208D01*
X1030Y38323D01*
X1086Y38456D01*
X1105Y38600D01*
X1086Y38744D01*
X1030Y38877D01*
X942Y38992D01*
X827Y39080D01*
X694Y39136D01*
X608Y39147D01*
X612Y39197D01*
X1620D01*
X1637Y39147D01*
X1561Y39089D01*
X1485Y38990D01*
X1438Y38875D01*
X2362D01*
X2315Y38990D01*
X2239Y39089D01*
X2163Y39147D01*
X2180Y39197D01*
X13098D01*
Y37800D01*
X13106Y37761D01*
X13128Y37728D01*
X13161Y37706D01*
X13200Y37698D01*
X14206D01*
Y36300D01*
X15294D01*
Y37698D01*
X16300D01*
X16339Y37706D01*
X16372Y37728D01*
X16394Y37761D01*
X16402Y37800D01*
Y39197D01*
X17297D01*
Y35144D01*
D02*
G37*
G36*
X4441Y36451D02*
X4432Y36448D01*
X4424Y36443D01*
X4418Y36436D01*
X4412Y36427D01*
X4408Y36416D01*
X4405Y36403D01*
X4402Y36388D01*
X4401Y36370D01*
X4400Y36369D01*
X4401Y36368D01*
X4402Y36354D01*
X4405Y36341D01*
X4409Y36328D01*
X4414Y36315D01*
X4420Y36303D01*
X4427Y36291D01*
X4435Y36279D01*
X4445Y36268D01*
X4455Y36257D01*
X4245D01*
X4255Y36268D01*
X4265Y36279D01*
X4273Y36291D01*
X4280Y36303D01*
X4286Y36315D01*
X4291Y36328D01*
X4295Y36341D01*
X4298Y36354D01*
X4299Y36368D01*
X4300Y36369D01*
X4299Y36370D01*
X4298Y36388D01*
X4295Y36403D01*
X4292Y36416D01*
X4288Y36427D01*
X4282Y36436D01*
X4275Y36443D01*
X4268Y36448D01*
X4259Y36451D01*
X4250Y36452D01*
X4450D01*
X4441Y36451D01*
D02*
G37*
G36*
X8809Y36704D02*
X8812Y36703D01*
X8818Y36702D01*
X8833Y36701D01*
X8885Y36700D01*
X8902Y36700D01*
Y36500D01*
X8807Y36495D01*
Y36705D01*
X8809Y36704D01*
D02*
G37*
G36*
X1818Y36695D02*
X1829Y36685D01*
X1841Y36677D01*
X1853Y36670D01*
X1865Y36664D01*
X1878Y36659D01*
X1891Y36655D01*
X1904Y36652D01*
X1918Y36651D01*
X1931Y36650D01*
Y36550D01*
X1918Y36549D01*
X1904Y36548D01*
X1891Y36545D01*
X1878Y36541D01*
X1865Y36536D01*
X1853Y36530D01*
X1841Y36523D01*
X1829Y36515D01*
X1818Y36505D01*
X1807Y36495D01*
Y36705D01*
X1818Y36695D01*
D02*
G37*
G36*
X7493Y36451D02*
X7485Y36457D01*
X7476Y36460D01*
X7466Y36460D01*
X7454Y36458D01*
X7440Y36452D01*
X7425Y36443D01*
X7409Y36432D01*
X7391Y36418D01*
X7351Y36380D01*
X7287Y36458D01*
X7306Y36478D01*
X7337Y36514D01*
X7348Y36530D01*
X7357Y36545D01*
X7362Y36559D01*
X7365Y36571D01*
X7365Y36581D01*
X7363Y36591D01*
X7357Y36599D01*
X7493Y36451D01*
D02*
G37*
G36*
X1945Y31032D02*
X1935Y31021D01*
X1927Y31009D01*
X1920Y30997D01*
X1914Y30985D01*
X1909Y30972D01*
X1905Y30959D01*
X1902Y30946D01*
X1901Y30932D01*
X1900Y30919D01*
X1800D01*
X1799Y30932D01*
X1798Y30946D01*
X1795Y30959D01*
X1791Y30972D01*
X1786Y30985D01*
X1780Y30997D01*
X1773Y31009D01*
X1765Y31021D01*
X1755Y31032D01*
X1745Y31043D01*
X1955D01*
X1945Y31032D01*
D02*
G37*
G36*
X1532Y32390D02*
X1543Y32381D01*
X1554Y32374D01*
X1566Y32367D01*
X1578Y32362D01*
X1591Y32357D01*
X1605Y32354D01*
X1619Y32352D01*
X1633Y32350D01*
X1648Y32350D01*
X1500Y32201D01*
X1500Y32217D01*
X1498Y32231D01*
X1496Y32245D01*
X1493Y32259D01*
X1488Y32272D01*
X1483Y32284D01*
X1476Y32296D01*
X1469Y32307D01*
X1460Y32318D01*
X1451Y32328D01*
X1522Y32399D01*
X1532Y32390D01*
D02*
G37*
G36*
X17297Y7200D02*
X153D01*
Y23200D01*
X17297D01*
Y7200D01*
D02*
G37*
G36*
X11664Y31073D02*
X11667Y31068D01*
X11672Y31064D01*
X11679Y31060D01*
X11688Y31057D01*
X11698Y31055D01*
X11711Y31053D01*
X11726Y31051D01*
X11762Y31050D01*
Y30950D01*
X11743Y30949D01*
X11726Y30948D01*
X11711Y30945D01*
X11698Y30942D01*
X11687Y30938D01*
X11678Y30932D01*
X11671Y30926D01*
X11665Y30918D01*
X11662Y30910D01*
X11661Y30900D01*
X11662Y31079D01*
X11664Y31073D01*
D02*
G37*
G36*
X936Y32508D02*
X939Y32466D01*
X944Y32426D01*
X951Y32389D01*
X961Y32353D01*
X973Y32320D01*
X988Y32290D01*
X1005Y32262D01*
X1024Y32236D01*
X1045Y32212D01*
X904Y32071D01*
X880Y32092D01*
X854Y32111D01*
X826Y32128D01*
X795Y32142D01*
X762Y32154D01*
X727Y32164D01*
X690Y32172D01*
X650Y32177D01*
X608Y32180D01*
X564Y32181D01*
X935Y32552D01*
X936Y32508D01*
D02*
G37*
G36*
X16016Y31527D02*
X16086Y31468D01*
X16118Y31446D01*
X16147Y31430D01*
X16174Y31418D01*
X16199Y31411D01*
X16222Y31410D01*
X16242Y31414D01*
X16260Y31423D01*
X15921Y31196D01*
X15935Y31209D01*
X15943Y31225D01*
X15944Y31245D01*
X15939Y31268D01*
X15928Y31295D01*
X15911Y31325D01*
X15888Y31358D01*
X15858Y31395D01*
X15780Y31479D01*
X15977Y31564D01*
X16016Y31527D01*
D02*
G37*
G36*
X10597Y32106D02*
Y29450D01*
X10200D01*
Y28750D01*
X10150D01*
Y28389D01*
X10100Y28388D01*
X10100Y28388D01*
X10100Y28388D01*
X8619D01*
Y27498D01*
X8921D01*
X8948Y27448D01*
X8914Y27398D01*
X8895Y27300D01*
X8914Y27202D01*
X8970Y27120D01*
X9052Y27065D01*
X9150Y27045D01*
X9163Y27048D01*
X9168Y27047D01*
X9174Y27046D01*
X9180Y27045D01*
X9185Y27043D01*
X9189Y27041D01*
X9194Y27039D01*
X9198Y27036D01*
X9273Y26961D01*
X9253Y26915D01*
X9190D01*
Y26500D01*
X9090D01*
Y26400D01*
X8695D01*
Y26085D01*
X9397D01*
Y26031D01*
X8696D01*
Y25440D01*
X9092D01*
Y25240D01*
X8696D01*
Y24703D01*
X5513D01*
X5255Y24961D01*
X5270Y25009D01*
X5298Y25015D01*
X5380Y25070D01*
X5400Y25099D01*
X5450D01*
X5470Y25070D01*
X5552Y25015D01*
X5650Y24995D01*
X5748Y25015D01*
X5830Y25070D01*
X5885Y25152D01*
X5905Y25250D01*
X5885Y25348D01*
X5830Y25430D01*
X5819Y25437D01*
X5816Y25442D01*
X5812Y25447D01*
X5809Y25452D01*
X5807Y25456D01*
X5805Y25461D01*
X5804Y25466D01*
X5803Y25470D01*
Y25956D01*
X5853Y25961D01*
X5864Y25902D01*
X5920Y25820D01*
X6288Y25452D01*
X6318Y25418D01*
X6350Y25377D01*
Y24800D01*
X7450D01*
Y25000D01*
X7500Y25017D01*
X7529Y24979D01*
X7623Y24907D01*
X7733Y24862D01*
X7775Y24856D01*
Y25300D01*
X7900D01*
Y25425D01*
X8385D01*
X8343Y25527D01*
X8271Y25621D01*
X8177Y25693D01*
X8067Y25738D01*
X7983Y25750D01*
Y25800D01*
X8081Y25813D01*
X8202Y25863D01*
X8307Y25943D01*
X8387Y26048D01*
X8437Y26169D01*
X8454Y26300D01*
X8437Y26431D01*
X8387Y26552D01*
X8307Y26657D01*
X8202Y26737D01*
X8115Y26773D01*
Y26827D01*
X8202Y26863D01*
X8307Y26943D01*
X8387Y27048D01*
X8437Y27169D01*
X8454Y27300D01*
X8437Y27431D01*
X8387Y27552D01*
X8307Y27657D01*
X8202Y27737D01*
X8115Y27773D01*
Y27827D01*
X8202Y27863D01*
X8307Y27943D01*
X8387Y28048D01*
X8437Y28169D01*
X8454Y28300D01*
X8437Y28431D01*
X8387Y28552D01*
X8307Y28657D01*
X8202Y28737D01*
X8081Y28787D01*
X7950Y28804D01*
X7850D01*
X7719Y28787D01*
X7598Y28737D01*
X7493Y28657D01*
X7430Y28574D01*
X7427Y28573D01*
X7373D01*
X7370Y28574D01*
X7307Y28657D01*
X7202Y28737D01*
X7081Y28787D01*
X6950Y28804D01*
X6850D01*
X6719Y28787D01*
X6598Y28737D01*
X6493Y28657D01*
X6413Y28552D01*
X6363Y28431D01*
X6346Y28300D01*
X6363Y28169D01*
X6413Y28048D01*
X6493Y27943D01*
X6598Y27863D01*
X6685Y27827D01*
Y27773D01*
X6598Y27737D01*
X6493Y27657D01*
X6413Y27552D01*
X6363Y27431D01*
X6348Y27319D01*
X6296Y27306D01*
X6280Y27330D01*
X6030Y27580D01*
X5948Y27636D01*
X5855Y27654D01*
Y28450D01*
X5835Y28548D01*
X5780Y28630D01*
X5698Y28686D01*
X5643Y28696D01*
X5603Y28750D01*
Y29630D01*
X6564D01*
Y31230D01*
X6607Y31247D01*
X7183D01*
X7226Y31230D01*
X7226Y31197D01*
Y29630D01*
X7978D01*
X8002Y29610D01*
X8256Y29356D01*
X8256Y29356D01*
X8322Y29312D01*
X8400Y29296D01*
X8400Y29296D01*
X8605D01*
X8609Y29296D01*
Y28856D01*
X10091D01*
Y29746D01*
X8609D01*
Y29704D01*
X8484D01*
X8339Y29849D01*
X8314Y29877D01*
Y31197D01*
X8314Y31230D01*
X8357Y31247D01*
X9550D01*
X9609Y31259D01*
X9658Y31292D01*
X10252Y31886D01*
X10256Y31889D01*
X10261Y31891D01*
X10265Y31893D01*
X10270Y31895D01*
X10276Y31896D01*
X10282Y31897D01*
X10287Y31898D01*
X10300Y31895D01*
X10398Y31915D01*
X10480Y31970D01*
X10535Y32052D01*
X10547Y32111D01*
X10597Y32106D01*
D02*
G37*
G36*
X10299Y32000D02*
X10283Y32000D01*
X10269Y31998D01*
X10255Y31996D01*
X10241Y31993D01*
X10228Y31988D01*
X10216Y31983D01*
X10204Y31976D01*
X10193Y31969D01*
X10182Y31960D01*
X10172Y31951D01*
X10101Y32022D01*
X10110Y32032D01*
X10119Y32043D01*
X10126Y32054D01*
X10133Y32066D01*
X10138Y32078D01*
X10143Y32091D01*
X10146Y32105D01*
X10148Y32119D01*
X10150Y32133D01*
X10150Y32149D01*
X10299Y32000D01*
D02*
G37*
G36*
X11321Y31160D02*
X11322Y31142D01*
X11324Y31127D01*
X11328Y31114D01*
X11332Y31103D01*
X11338Y31094D01*
X11344Y31087D01*
X11352Y31082D01*
X11360Y31079D01*
X11370Y31078D01*
X11170D01*
X11179Y31079D01*
X11188Y31082D01*
X11195Y31087D01*
X11202Y31094D01*
X11207Y31103D01*
X11212Y31114D01*
X11215Y31127D01*
X11218Y31142D01*
X11219Y31160D01*
X11220Y31179D01*
X11320D01*
X11321Y31160D01*
D02*
G37*
G36*
X1982Y32390D02*
X1993Y32381D01*
X2004Y32374D01*
X2016Y32367D01*
X2028Y32362D01*
X2041Y32357D01*
X2055Y32354D01*
X2069Y32352D01*
X2083Y32350D01*
X2098Y32350D01*
X1950Y32201D01*
X1950Y32217D01*
X1948Y32231D01*
X1946Y32245D01*
X1943Y32259D01*
X1938Y32272D01*
X1933Y32284D01*
X1926Y32296D01*
X1919Y32307D01*
X1910Y32318D01*
X1901Y32328D01*
X1972Y32399D01*
X1982Y32390D01*
D02*
G37*
G36*
X5163Y33064D02*
X5151Y33058D01*
X5141Y33050D01*
X5131Y33042D01*
X5123Y33033D01*
X5116Y33023D01*
X5110Y33012D01*
X5106Y33001D01*
X5103Y32988D01*
X5101Y32974D01*
X5100Y32960D01*
X5000Y32998D01*
X5000Y33011D01*
X4997Y33038D01*
X4994Y33051D01*
X4988Y33078D01*
X4983Y33092D01*
X4972Y33120D01*
X4965Y33134D01*
X5163Y33064D01*
D02*
G37*
G36*
X1982Y32840D02*
X1993Y32831D01*
X2004Y32824D01*
X2016Y32817D01*
X2028Y32812D01*
X2041Y32807D01*
X2055Y32804D01*
X2069Y32802D01*
X2083Y32800D01*
X2098Y32800D01*
X1950Y32652D01*
X1950Y32667D01*
X1948Y32681D01*
X1946Y32695D01*
X1943Y32709D01*
X1938Y32722D01*
X1933Y32734D01*
X1926Y32746D01*
X1919Y32757D01*
X1910Y32768D01*
X1901Y32778D01*
X1972Y32849D01*
X1982Y32840D01*
D02*
G37*
G36*
X3793Y33095D02*
X3782Y33105D01*
X3771Y33115D01*
X3759Y33123D01*
X3747Y33130D01*
X3735Y33136D01*
X3722Y33141D01*
X3709Y33145D01*
X3696Y33148D01*
X3682Y33149D01*
X3669Y33150D01*
Y33250D01*
X3682Y33251D01*
X3696Y33252D01*
X3709Y33255D01*
X3722Y33259D01*
X3735Y33264D01*
X3747Y33270D01*
X3759Y33277D01*
X3771Y33285D01*
X3782Y33295D01*
X3793Y33305D01*
Y33095D01*
D02*
G37*
G36*
X2049Y29878D02*
X2040Y29868D01*
X2031Y29857D01*
X2024Y29846D01*
X2017Y29834D01*
X2012Y29822D01*
X2007Y29809D01*
X2004Y29795D01*
X2002Y29781D01*
X2000Y29767D01*
X2000Y29752D01*
X1851Y29900D01*
X1867Y29900D01*
X1881Y29902D01*
X1895Y29904D01*
X1909Y29907D01*
X1922Y29912D01*
X1934Y29917D01*
X1946Y29924D01*
X1957Y29931D01*
X1968Y29940D01*
X1978Y29949D01*
X2049Y29878D01*
D02*
G37*
G36*
X10193Y32545D02*
X10182Y32555D01*
X10171Y32565D01*
X10159Y32573D01*
X10147Y32580D01*
X10135Y32586D01*
X10122Y32591D01*
X10109Y32595D01*
X10096Y32598D01*
X10082Y32599D01*
X10069Y32600D01*
Y32700D01*
X10082Y32701D01*
X10096Y32702D01*
X10109Y32705D01*
X10122Y32709D01*
X10135Y32714D01*
X10147Y32720D01*
X10159Y32727D01*
X10171Y32735D01*
X10182Y32745D01*
X10193Y32755D01*
Y32545D01*
D02*
G37*
G36*
X11893Y30895D02*
X11882Y30905D01*
X11871Y30915D01*
X11859Y30923D01*
X11847Y30930D01*
X11835Y30936D01*
X11822Y30941D01*
X11809Y30945D01*
X11796Y30948D01*
X11782Y30949D01*
X11769Y30950D01*
Y31050D01*
X11782Y31051D01*
X11796Y31052D01*
X11809Y31055D01*
X11822Y31059D01*
X11835Y31064D01*
X11847Y31070D01*
X11859Y31077D01*
X11871Y31085D01*
X11882Y31095D01*
X11893Y31105D01*
Y30895D01*
D02*
G37*
G36*
X1294Y4647D02*
X1293Y4630D01*
X1296Y4612D01*
X1302Y4592D01*
X1311Y4572D01*
X1323Y4550D01*
X1339Y4527D01*
X1357Y4503D01*
X1380Y4478D01*
X1405Y4451D01*
X1399Y4245D01*
X1363Y4279D01*
X1302Y4332D01*
X1276Y4351D01*
X1253Y4364D01*
X1234Y4372D01*
X1217Y4375D01*
X1204Y4373D01*
X1194Y4365D01*
X1187Y4352D01*
X1298Y4663D01*
X1294Y4647D01*
D02*
G37*
G36*
X12627Y29781D02*
X12625Y29785D01*
X12619Y29788D01*
X12609Y29791D01*
X12595Y29793D01*
X12577Y29795D01*
X12499Y29799D01*
X12427Y29800D01*
Y30000D01*
X12465Y30001D01*
X12499Y30004D01*
X12529Y30009D01*
X12555Y30016D01*
X12577Y30025D01*
X12595Y30036D01*
X12609Y30049D01*
X12619Y30064D01*
X12625Y30081D01*
X12627Y30100D01*
Y29781D01*
D02*
G37*
%LPC*%
G36*
X4338Y7825D02*
X3975D01*
Y7462D01*
X3981Y7463D01*
X4102Y7513D01*
X4207Y7593D01*
X4287Y7698D01*
X4337Y7819D01*
X4338Y7825D01*
D02*
G37*
G36*
X12450Y23600D02*
X12150D01*
Y23500D01*
X12450D01*
Y23600D01*
D02*
G37*
G36*
X12950D02*
X12650D01*
Y23500D01*
X12950D01*
Y23600D01*
D02*
G37*
G36*
X4338Y23975D02*
X3975D01*
Y23612D01*
X3981Y23613D01*
X4102Y23663D01*
X4207Y23743D01*
X4287Y23848D01*
X4337Y23969D01*
X4338Y23975D01*
D02*
G37*
G36*
X13600Y18455D02*
X13502Y18435D01*
X13420Y18380D01*
X13364Y18298D01*
X13345Y18200D01*
Y8512D01*
X13344Y8499D01*
X13339Y8471D01*
X13332Y8444D01*
X13328Y8433D01*
X13323Y8430D01*
X13208Y8342D01*
X13120Y8227D01*
X13064Y8094D01*
X13045Y7950D01*
X13064Y7806D01*
X13120Y7673D01*
X13208Y7558D01*
X13323Y7470D01*
X13456Y7414D01*
X13600Y7395D01*
X13744Y7414D01*
X13877Y7470D01*
X13992Y7558D01*
X14080Y7673D01*
X14102Y7725D01*
X14152D01*
X14163Y7698D01*
X14243Y7593D01*
X14348Y7513D01*
X14469Y7463D01*
X14475Y7462D01*
Y7950D01*
Y8438D01*
X14469Y8437D01*
X14348Y8387D01*
X14243Y8307D01*
X14163Y8202D01*
X14152Y8175D01*
X14102D01*
X14080Y8227D01*
X13992Y8342D01*
X13877Y8430D01*
X13872Y8433D01*
X13868Y8444D01*
X13861Y8471D01*
X13856Y8499D01*
X13855Y8512D01*
Y18200D01*
X13836Y18298D01*
X13780Y18380D01*
X13698Y18435D01*
X13600Y18455D01*
D02*
G37*
G36*
X15088Y7825D02*
X14725D01*
Y7462D01*
X14731Y7463D01*
X14852Y7513D01*
X14957Y7593D01*
X15037Y7698D01*
X15087Y7819D01*
X15088Y7825D01*
D02*
G37*
G36*
X5800Y9800D02*
X5709Y9788D01*
X5625Y9753D01*
X5553Y9697D01*
X5497Y9625D01*
X5462Y9541D01*
X5450Y9450D01*
X5462Y9359D01*
X5497Y9275D01*
X5553Y9203D01*
X5625Y9147D01*
X5709Y9112D01*
X5800Y9100D01*
X5891Y9112D01*
X5975Y9147D01*
X6047Y9203D01*
X6103Y9275D01*
X6138Y9359D01*
X6150Y9450D01*
X6138Y9541D01*
X6103Y9625D01*
X6047Y9697D01*
X5975Y9753D01*
X5891Y9788D01*
X5800Y9800D01*
D02*
G37*
G36*
X7500D02*
X7409Y9788D01*
X7325Y9753D01*
X7253Y9697D01*
X7197Y9625D01*
X7162Y9541D01*
X7150Y9450D01*
X7162Y9359D01*
X7197Y9275D01*
X7253Y9203D01*
X7325Y9147D01*
X7409Y9112D01*
X7500Y9100D01*
X7591Y9112D01*
X7675Y9147D01*
X7747Y9203D01*
X7803Y9275D01*
X7838Y9359D01*
X7850Y9450D01*
X7838Y9541D01*
X7803Y9625D01*
X7747Y9697D01*
X7675Y9753D01*
X7591Y9788D01*
X7500Y9800D01*
D02*
G37*
G36*
X16875Y9512D02*
Y9175D01*
X17212D01*
X17165Y9290D01*
X17089Y9389D01*
X16990Y9465D01*
X16875Y9512D01*
D02*
G37*
G36*
X6000Y16655D02*
X5902Y16636D01*
X5820Y16580D01*
X5765Y16498D01*
X5745Y16400D01*
Y12850D01*
X5765Y12752D01*
X5820Y12670D01*
X6636Y11853D01*
X6620Y11799D01*
X6552Y11786D01*
X6470Y11730D01*
X6415Y11648D01*
X6395Y11550D01*
X6395Y11550D01*
X6395Y11549D01*
X6391Y11544D01*
X6387Y11539D01*
X3959Y9112D01*
X3957Y9110D01*
X3951Y9105D01*
X3950Y9105D01*
X3950Y9105D01*
X3852Y9085D01*
X3770Y9030D01*
X3715Y8948D01*
X3695Y8850D01*
X3715Y8752D01*
X3770Y8670D01*
X3852Y8615D01*
X3950Y8595D01*
X4048Y8615D01*
X4130Y8670D01*
X4186Y8752D01*
X4205Y8850D01*
X4205Y8850D01*
X4205Y8851D01*
X4209Y8856D01*
X4213Y8861D01*
X6641Y11288D01*
X6643Y11290D01*
X6649Y11295D01*
X6650Y11295D01*
X6650Y11295D01*
X6748Y11315D01*
X6830Y11370D01*
X6885Y11452D01*
X6899Y11520D01*
X6953Y11536D01*
X9720Y8770D01*
X9802Y8715D01*
X9900Y8695D01*
X12550D01*
X12648Y8715D01*
X12730Y8770D01*
X12786Y8852D01*
X12805Y8950D01*
X12786Y9048D01*
X12730Y9130D01*
X12648Y9185D01*
X12550Y9205D01*
X10006D01*
X6255Y12956D01*
Y16400D01*
X6235Y16498D01*
X6180Y16580D01*
X6098Y16636D01*
X6000Y16655D01*
D02*
G37*
G36*
X13550Y6528D02*
X1800D01*
X1732Y6515D01*
X1674Y6476D01*
X1674Y6476D01*
X1298Y6100D01*
X350D01*
Y5200D01*
X1450D01*
Y5748D01*
X1704Y6001D01*
X1750Y5982D01*
Y5200D01*
X2850D01*
Y5472D01*
X11700D01*
X11768Y5485D01*
X11826Y5524D01*
X12041Y5738D01*
X12043Y5740D01*
X12049Y5745D01*
X12050Y5745D01*
X12050Y5745D01*
X12148Y5765D01*
X12230Y5820D01*
X12285Y5902D01*
X12305Y6000D01*
X12285Y6098D01*
X12265Y6127D01*
X12289Y6172D01*
X13476D01*
X15188Y4459D01*
X15190Y4457D01*
X15195Y4451D01*
X15195Y4450D01*
X15195Y4450D01*
X15215Y4352D01*
X15270Y4270D01*
X15352Y4214D01*
X15450Y4195D01*
X15548Y4214D01*
X15630Y4270D01*
X15685Y4352D01*
X15705Y4450D01*
X15685Y4548D01*
X15630Y4630D01*
X15548Y4685D01*
X15450Y4705D01*
X15450Y4705D01*
X15449Y4705D01*
X15444Y4709D01*
X15439Y4713D01*
X13676Y6476D01*
X13618Y6515D01*
X13550Y6528D01*
D02*
G37*
G36*
X17212Y8925D02*
X16875D01*
Y8588D01*
X16990Y8635D01*
X17089Y8711D01*
X17165Y8810D01*
X17212Y8925D01*
D02*
G37*
G36*
X8100Y18953D02*
X7750D01*
X7691Y18941D01*
X7642Y18908D01*
X5292Y16558D01*
X5259Y16509D01*
X5247Y16450D01*
Y15379D01*
X5197Y15352D01*
X5148Y15386D01*
X5050Y15405D01*
X5037Y15402D01*
X5032Y15403D01*
X5026Y15404D01*
X5020Y15405D01*
X5015Y15407D01*
X5011Y15409D01*
X5006Y15411D01*
X5002Y15414D01*
X4753Y15663D01*
Y17730D01*
X4754Y17734D01*
X4755Y17739D01*
X4757Y17744D01*
X4759Y17748D01*
X4762Y17753D01*
X4766Y17759D01*
X4769Y17763D01*
X4780Y17770D01*
X4836Y17852D01*
X4855Y17950D01*
X4836Y18048D01*
X4780Y18130D01*
X4698Y18185D01*
X4632Y18199D01*
X4600Y18205D01*
X4596Y18253D01*
X4605Y18300D01*
X4586Y18398D01*
X4530Y18480D01*
X4448Y18535D01*
X4350Y18555D01*
X4252Y18535D01*
X4170Y18480D01*
X4163Y18469D01*
X4159Y18466D01*
X4153Y18462D01*
X4148Y18459D01*
X4144Y18457D01*
X4139Y18455D01*
X4134Y18454D01*
X4130Y18453D01*
X1150D01*
X1091Y18441D01*
X1042Y18408D01*
X392Y17758D01*
X359Y17709D01*
X347Y17650D01*
Y8700D01*
X359Y8641D01*
X392Y8592D01*
X1292Y7692D01*
X1341Y7659D01*
X1400Y7647D01*
X1780D01*
X1784Y7646D01*
X1789Y7645D01*
X1794Y7643D01*
X1798Y7641D01*
X1803Y7638D01*
X1808Y7634D01*
X1813Y7631D01*
X1820Y7620D01*
X1902Y7565D01*
X2000Y7545D01*
X2098Y7565D01*
X2180Y7620D01*
X2235Y7702D01*
X2255Y7800D01*
X2235Y7898D01*
X2180Y7980D01*
X2098Y8035D01*
X2000Y8055D01*
X1902Y8035D01*
X1820Y7980D01*
X1813Y7969D01*
X1808Y7966D01*
X1803Y7962D01*
X1798Y7959D01*
X1794Y7957D01*
X1789Y7955D01*
X1784Y7954D01*
X1780Y7953D01*
X1463D01*
X653Y8763D01*
Y9870D01*
X675Y9911D01*
X703Y9911D01*
X1725D01*
Y10961D01*
X1508D01*
X1491Y11011D01*
X1574Y11076D01*
X1659Y11185D01*
X1711Y11313D01*
X1730Y11450D01*
X1711Y11587D01*
X1659Y11715D01*
X1574Y11824D01*
X1465Y11909D01*
X1456Y11912D01*
Y11962D01*
X1465Y11966D01*
X1574Y12050D01*
X1659Y12160D01*
X1711Y12287D01*
X1730Y12424D01*
X1711Y12561D01*
X1659Y12689D01*
X1574Y12799D01*
X1465Y12883D01*
X1337Y12936D01*
X1200Y12954D01*
X1063Y12936D01*
X935Y12883D01*
X826Y12799D01*
X741Y12689D01*
X703Y12596D01*
X653Y12606D01*
Y17576D01*
X678Y17595D01*
X725Y17569D01*
X723Y17550D01*
Y15650D01*
X732Y15578D01*
X760Y15511D01*
X804Y15454D01*
X1923Y14335D01*
Y10200D01*
Y8600D01*
X1932Y8528D01*
X1960Y8461D01*
X2004Y8404D01*
X2240Y8167D01*
X2255Y8152D01*
X2276Y8127D01*
X2295Y8102D01*
X2310Y8079D01*
X2312Y8076D01*
X2295Y7950D01*
X2314Y7806D01*
X2370Y7673D01*
X2458Y7558D01*
X2573Y7470D01*
X2706Y7414D01*
X2850Y7395D01*
X2994Y7414D01*
X3127Y7470D01*
X3242Y7558D01*
X3330Y7673D01*
X3352Y7725D01*
X3402D01*
X3413Y7698D01*
X3493Y7593D01*
X3598Y7513D01*
X3719Y7463D01*
X3725Y7462D01*
Y7950D01*
Y8438D01*
X3719Y8437D01*
X3598Y8387D01*
X3493Y8307D01*
X3413Y8202D01*
X3402Y8175D01*
X3352D01*
X3330Y8227D01*
X3242Y8342D01*
X3127Y8430D01*
X2994Y8486D01*
X2850Y8505D01*
X2724Y8488D01*
X2721Y8490D01*
X2698Y8505D01*
X2673Y8524D01*
X2648Y8545D01*
X2633Y8560D01*
X2477Y8715D01*
Y10010D01*
X2634Y10022D01*
X2808D01*
X2812Y10021D01*
X2819Y10020D01*
X2820Y10020D01*
X2820Y10020D01*
X2902Y9965D01*
X3000Y9945D01*
X3098Y9965D01*
X3180Y10020D01*
X3235Y10102D01*
X3255Y10200D01*
X3235Y10298D01*
X3180Y10380D01*
X3098Y10436D01*
X3000Y10455D01*
X2934Y10442D01*
X2892Y10484D01*
X2905Y10550D01*
X2902Y10563D01*
X2903Y10568D01*
X2904Y10574D01*
X2905Y10580D01*
X2907Y10585D01*
X2909Y10589D01*
X2911Y10594D01*
X2914Y10598D01*
X5508Y13192D01*
X5541Y13241D01*
X5553Y13300D01*
Y16387D01*
X7611Y18445D01*
X7659Y18430D01*
X7665Y18402D01*
X7720Y18320D01*
X7731Y18313D01*
X7734Y18309D01*
X7738Y18303D01*
X7741Y18298D01*
X7743Y18294D01*
X7745Y18289D01*
X7746Y18284D01*
X7747Y18280D01*
Y12000D01*
X7759Y11941D01*
X7792Y11892D01*
X9192Y10492D01*
X9241Y10459D01*
X9300Y10447D01*
X10930D01*
X10934Y10446D01*
X10939Y10445D01*
X10944Y10443D01*
X10948Y10441D01*
X10953Y10438D01*
X10958Y10434D01*
X10963Y10431D01*
X10970Y10420D01*
X11052Y10365D01*
X11150Y10345D01*
X11248Y10365D01*
X11330Y10420D01*
X11386Y10502D01*
X11405Y10600D01*
X11386Y10698D01*
X11330Y10780D01*
X11248Y10835D01*
X11150Y10855D01*
X11052Y10835D01*
X10970Y10780D01*
X10963Y10769D01*
X10958Y10766D01*
X10953Y10762D01*
X10948Y10759D01*
X10944Y10757D01*
X10939Y10755D01*
X10934Y10754D01*
X10930Y10753D01*
X9363D01*
X8053Y12063D01*
Y15450D01*
X10450D01*
Y17750D01*
X8053D01*
Y18280D01*
X8054Y18284D01*
X8055Y18289D01*
X8057Y18294D01*
X8059Y18298D01*
X8062Y18303D01*
X8066Y18309D01*
X8069Y18313D01*
X8080Y18320D01*
X8122Y18382D01*
X8178D01*
X8220Y18320D01*
X8302Y18264D01*
X8400Y18245D01*
X8498Y18264D01*
X8580Y18320D01*
X8635Y18402D01*
X8655Y18500D01*
X8635Y18598D01*
X8580Y18680D01*
X8498Y18736D01*
X8400Y18755D01*
X8387Y18752D01*
X8382Y18753D01*
X8376Y18754D01*
X8370Y18755D01*
X8365Y18757D01*
X8361Y18759D01*
X8356Y18761D01*
X8352Y18764D01*
X8208Y18908D01*
X8159Y18941D01*
X8100Y18953D01*
D02*
G37*
G36*
X3975Y8438D02*
Y8075D01*
X4338D01*
X4337Y8081D01*
X4287Y8202D01*
X4207Y8307D01*
X4102Y8387D01*
X3981Y8437D01*
X3975Y8438D01*
D02*
G37*
G36*
X10250Y22955D02*
X10106Y22936D01*
X9973Y22880D01*
X9858Y22792D01*
X9770Y22677D01*
X9748Y22625D01*
X9698D01*
X9687Y22652D01*
X9607Y22757D01*
X9502Y22837D01*
X9381Y22887D01*
X9375Y22888D01*
Y22400D01*
Y21912D01*
X9381Y21913D01*
X9502Y21963D01*
X9607Y22043D01*
X9687Y22148D01*
X9698Y22175D01*
X9748D01*
X9770Y22123D01*
X9858Y22008D01*
X9973Y21920D01*
X10106Y21864D01*
X10250Y21845D01*
X10394Y21864D01*
X10451Y21888D01*
X10479Y21846D01*
X9487Y20853D01*
X5920D01*
X5916Y20854D01*
X5911Y20855D01*
X5906Y20857D01*
X5902Y20859D01*
X5897Y20862D01*
X5892Y20866D01*
X5887Y20870D01*
X5880Y20880D01*
X5798Y20935D01*
X5700Y20955D01*
X5602Y20935D01*
X5520Y20880D01*
X5465Y20798D01*
X5445Y20700D01*
X5465Y20602D01*
X5520Y20520D01*
X5602Y20464D01*
X5700Y20445D01*
X5798Y20464D01*
X5880Y20520D01*
X5887Y20531D01*
X5892Y20534D01*
X5897Y20538D01*
X5902Y20541D01*
X5906Y20543D01*
X5911Y20545D01*
X5916Y20546D01*
X5920Y20547D01*
X9550D01*
X9609Y20559D01*
X9658Y20592D01*
X10941Y21875D01*
X10943Y21876D01*
X10954Y21883D01*
X10971Y21891D01*
X10995Y21899D01*
X11023Y21906D01*
X11056Y21912D01*
X11113Y21889D01*
X11250Y21870D01*
X11387Y21889D01*
X11515Y21941D01*
X11624Y22026D01*
X11709Y22135D01*
X11725Y22175D01*
X11775D01*
X11791Y22135D01*
X11876Y22026D01*
X11985Y21941D01*
X12113Y21889D01*
X12250Y21870D01*
X12387Y21889D01*
X12515Y21941D01*
X12624Y22026D01*
X12709Y22135D01*
X12761Y22263D01*
X12780Y22400D01*
X12761Y22537D01*
X12709Y22665D01*
X12624Y22774D01*
X12515Y22859D01*
X12387Y22911D01*
X12250Y22930D01*
X12113Y22911D01*
X11985Y22859D01*
X11876Y22774D01*
X11791Y22665D01*
X11775Y22625D01*
X11725D01*
X11709Y22665D01*
X11624Y22774D01*
X11515Y22859D01*
X11387Y22911D01*
X11250Y22930D01*
X11113Y22911D01*
X10985Y22859D01*
X10876Y22774D01*
X10791Y22665D01*
X10789Y22658D01*
X10739Y22658D01*
X10730Y22677D01*
X10642Y22792D01*
X10527Y22880D01*
X10394Y22936D01*
X10250Y22955D01*
D02*
G37*
G36*
X8250D02*
X8106Y22936D01*
X7973Y22880D01*
X7858Y22792D01*
X7779Y22690D01*
X7763Y22686D01*
X7737D01*
X7721Y22690D01*
X7642Y22792D01*
X7527Y22880D01*
X7394Y22936D01*
X7250Y22955D01*
X7106Y22936D01*
X6973Y22880D01*
X6858Y22792D01*
X6779Y22690D01*
X6763Y22686D01*
X6737D01*
X6721Y22690D01*
X6642Y22792D01*
X6527Y22880D01*
X6394Y22936D01*
X6250Y22955D01*
X6106Y22936D01*
X5973Y22880D01*
X5858Y22792D01*
X5775Y22684D01*
X5745Y22678D01*
X5716Y22679D01*
X5657Y22757D01*
X5552Y22837D01*
X5431Y22887D01*
X5300Y22904D01*
X5200D01*
X5069Y22887D01*
X4948Y22837D01*
X4843Y22757D01*
X4784Y22679D01*
X4755Y22678D01*
X4725Y22684D01*
X4642Y22792D01*
X4527Y22880D01*
X4394Y22936D01*
X4250Y22955D01*
X4106Y22936D01*
X3973Y22880D01*
X3858Y22792D01*
X3779Y22690D01*
X3763Y22686D01*
X3737D01*
X3721Y22690D01*
X3642Y22792D01*
X3527Y22880D01*
X3394Y22936D01*
X3250Y22955D01*
X3106Y22936D01*
X2973Y22880D01*
X2858Y22792D01*
X2770Y22677D01*
X2714Y22544D01*
X2695Y22400D01*
X2714Y22256D01*
X2770Y22123D01*
X2858Y22008D01*
X2973Y21920D01*
X3106Y21864D01*
X3250Y21845D01*
X3394Y21864D01*
X3527Y21920D01*
X3642Y22008D01*
X3721Y22110D01*
X3737Y22114D01*
X3763D01*
X3779Y22110D01*
X3858Y22008D01*
X3973Y21920D01*
X4106Y21864D01*
X4250Y21845D01*
X4394Y21864D01*
X4527Y21920D01*
X4642Y22008D01*
X4725Y22116D01*
X4755Y22122D01*
X4784Y22121D01*
X4843Y22043D01*
X4948Y21963D01*
X5069Y21913D01*
X5200Y21896D01*
X5300D01*
X5431Y21913D01*
X5552Y21963D01*
X5657Y22043D01*
X5716Y22121D01*
X5745Y22122D01*
X5775Y22116D01*
X5858Y22008D01*
X5973Y21920D01*
X6106Y21864D01*
X6250Y21845D01*
X6394Y21864D01*
X6527Y21920D01*
X6642Y22008D01*
X6721Y22110D01*
X6737Y22114D01*
X6763D01*
X6779Y22110D01*
X6858Y22008D01*
X6973Y21920D01*
X7106Y21864D01*
X7250Y21845D01*
X7394Y21864D01*
X7527Y21920D01*
X7642Y22008D01*
X7721Y22110D01*
X7737Y22114D01*
X7763D01*
X7779Y22110D01*
X7858Y22008D01*
X7973Y21920D01*
X8106Y21864D01*
X8250Y21845D01*
X8394Y21864D01*
X8527Y21920D01*
X8642Y22008D01*
X8730Y22123D01*
X8752Y22175D01*
X8802D01*
X8813Y22148D01*
X8893Y22043D01*
X8998Y21963D01*
X9119Y21913D01*
X9125Y21912D01*
Y22400D01*
Y22888D01*
X9119Y22887D01*
X8998Y22837D01*
X8893Y22757D01*
X8813Y22652D01*
X8802Y22625D01*
X8752D01*
X8730Y22677D01*
X8642Y22792D01*
X8527Y22880D01*
X8394Y22936D01*
X8250Y22955D01*
D02*
G37*
G36*
X900Y22205D02*
X802Y22185D01*
X720Y22130D01*
X665Y22048D01*
X645Y21950D01*
X665Y21852D01*
X720Y21770D01*
X730Y21763D01*
X734Y21758D01*
X738Y21753D01*
X741Y21748D01*
X743Y21744D01*
X745Y21739D01*
X746Y21734D01*
X747Y21730D01*
Y19950D01*
X759Y19891D01*
X792Y19842D01*
X998Y19636D01*
X1047Y19603D01*
X1106Y19591D01*
X4785D01*
X4790Y19590D01*
X4795Y19589D01*
X4799Y19587D01*
X4804Y19585D01*
X4809Y19582D01*
X4814Y19578D01*
X4818Y19575D01*
X4826Y19564D01*
X4908Y19509D01*
X5006Y19489D01*
X5103Y19509D01*
X5186Y19564D01*
X5241Y19647D01*
X5261Y19744D01*
X5241Y19842D01*
X5186Y19924D01*
X5103Y19980D01*
X5006Y19999D01*
X4908Y19980D01*
X4826Y19924D01*
X4818Y19914D01*
X4814Y19910D01*
X4809Y19907D01*
X4804Y19904D01*
X4799Y19901D01*
X4795Y19900D01*
X4790Y19898D01*
X4785Y19897D01*
X1169D01*
X1053Y20013D01*
Y21730D01*
X1054Y21734D01*
X1055Y21739D01*
X1057Y21744D01*
X1059Y21748D01*
X1062Y21753D01*
X1066Y21758D01*
X1069Y21763D01*
X1080Y21770D01*
X1135Y21852D01*
X1155Y21950D01*
X1135Y22048D01*
X1080Y22130D01*
X998Y22185D01*
X900Y22205D01*
D02*
G37*
G36*
X16275Y9575D02*
X15225D01*
Y8525D01*
X16275D01*
Y8825D01*
X16325Y8835D01*
X16335Y8810D01*
X16411Y8711D01*
X16510Y8635D01*
X16625Y8588D01*
Y9050D01*
Y9512D01*
X16510Y9465D01*
X16411Y9389D01*
X16335Y9290D01*
X16325Y9265D01*
X16275Y9275D01*
Y9575D01*
D02*
G37*
G36*
X14725Y8438D02*
Y8075D01*
X15088D01*
X15087Y8081D01*
X15037Y8202D01*
X14957Y8307D01*
X14852Y8387D01*
X14731Y8437D01*
X14725Y8438D01*
D02*
G37*
G36*
X15088Y23975D02*
X14725D01*
Y23612D01*
X14731Y23613D01*
X14852Y23663D01*
X14957Y23743D01*
X15037Y23848D01*
X15087Y23969D01*
X15088Y23975D01*
D02*
G37*
G36*
X15588Y28531D02*
X15293D01*
Y27940D01*
X15588D01*
Y28531D01*
D02*
G37*
G36*
X3450Y31705D02*
X3352Y31686D01*
X3270Y31630D01*
X3214Y31548D01*
X3195Y31450D01*
X3214Y31352D01*
X3270Y31270D01*
X3280Y31263D01*
X3284Y31258D01*
X3288Y31253D01*
X3291Y31248D01*
X3293Y31244D01*
X3295Y31239D01*
X3296Y31234D01*
X3297Y31230D01*
Y29500D01*
X2800D01*
Y28700D01*
X4600D01*
Y29500D01*
X4454D01*
X4454Y29504D01*
Y29626D01*
X4454Y29630D01*
X4814D01*
Y31230D01*
X3726D01*
Y29630D01*
X4046D01*
X4046Y29626D01*
Y29504D01*
X4046Y29500D01*
X3603D01*
Y31230D01*
X3604Y31234D01*
X3605Y31239D01*
X3607Y31244D01*
X3609Y31248D01*
X3612Y31253D01*
X3616Y31259D01*
X3619Y31263D01*
X3630Y31270D01*
X3685Y31352D01*
X3705Y31450D01*
X3685Y31548D01*
X3630Y31630D01*
X3548Y31686D01*
X3450Y31705D01*
D02*
G37*
G36*
X16200Y28950D02*
X15950D01*
Y28700D01*
X16200D01*
Y28950D01*
D02*
G37*
G36*
X15588Y27740D02*
X15293D01*
Y27150D01*
X15588D01*
Y27740D01*
D02*
G37*
G36*
X13200Y26500D02*
X12950D01*
Y26250D01*
X13200D01*
Y26500D01*
D02*
G37*
G36*
X13650D02*
X13400D01*
Y26250D01*
X13650D01*
Y26500D01*
D02*
G37*
G36*
X8990Y26915D02*
X8695D01*
Y26600D01*
X8990D01*
Y26915D01*
D02*
G37*
G36*
X16200Y29400D02*
X15950D01*
Y29150D01*
X16200D01*
Y29400D01*
D02*
G37*
G36*
X16470Y34550D02*
X15820D01*
Y34156D01*
X16470D01*
Y34550D01*
D02*
G37*
G36*
Y35144D02*
X15820D01*
Y34750D01*
X16470D01*
Y35144D01*
D02*
G37*
G36*
X10250Y39105D02*
X10106Y39086D01*
X9973Y39030D01*
X9858Y38942D01*
X9770Y38827D01*
X9748Y38775D01*
X9698D01*
X9687Y38802D01*
X9607Y38907D01*
X9502Y38987D01*
X9381Y39037D01*
X9375Y39038D01*
Y38550D01*
Y38062D01*
X9381Y38063D01*
X9502Y38113D01*
X9607Y38193D01*
X9687Y38298D01*
X9698Y38325D01*
X9748D01*
X9770Y38273D01*
X9858Y38158D01*
X9973Y38070D01*
X10106Y38014D01*
X10250Y37995D01*
X10394Y38014D01*
X10527Y38070D01*
X10642Y38158D01*
X10730Y38273D01*
X10739Y38292D01*
X10789Y38292D01*
X10791Y38285D01*
X10876Y38176D01*
X10985Y38091D01*
X11113Y38039D01*
X11250Y38020D01*
X11387Y38039D01*
X11515Y38091D01*
X11624Y38176D01*
X11709Y38285D01*
X11725Y38325D01*
X11775D01*
X11791Y38285D01*
X11876Y38176D01*
X11985Y38091D01*
X12113Y38039D01*
X12250Y38020D01*
X12387Y38039D01*
X12515Y38091D01*
X12624Y38176D01*
X12709Y38285D01*
X12761Y38413D01*
X12780Y38550D01*
X12761Y38687D01*
X12709Y38815D01*
X12624Y38924D01*
X12515Y39009D01*
X12387Y39061D01*
X12250Y39080D01*
X12113Y39061D01*
X11985Y39009D01*
X11876Y38924D01*
X11791Y38815D01*
X11775Y38775D01*
X11725D01*
X11709Y38815D01*
X11624Y38924D01*
X11515Y39009D01*
X11387Y39061D01*
X11250Y39080D01*
X11113Y39061D01*
X10985Y39009D01*
X10876Y38924D01*
X10791Y38815D01*
X10789Y38808D01*
X10739Y38808D01*
X10730Y38827D01*
X10642Y38942D01*
X10527Y39030D01*
X10394Y39086D01*
X10250Y39105D01*
D02*
G37*
G36*
X1025Y34025D02*
X675D01*
Y33675D01*
X1025D01*
Y34025D01*
D02*
G37*
G36*
X4230Y32260D02*
X3680D01*
Y31710D01*
X4230D01*
Y32260D01*
D02*
G37*
G36*
X16470Y32740D02*
X15820D01*
Y32346D01*
X16470D01*
Y32740D01*
D02*
G37*
G36*
Y33334D02*
X15820D01*
Y32940D01*
X16470D01*
Y33334D01*
D02*
G37*
G36*
X13650Y26050D02*
X13400D01*
Y25800D01*
X13650D01*
Y26050D01*
D02*
G37*
G36*
X14725Y24588D02*
Y24225D01*
X15088D01*
X15087Y24231D01*
X15037Y24352D01*
X14957Y24457D01*
X14852Y24537D01*
X14731Y24587D01*
X14725Y24588D01*
D02*
G37*
G36*
X8385Y25175D02*
X8025D01*
Y24856D01*
X8067Y24862D01*
X8177Y24907D01*
X8271Y24979D01*
X8343Y25073D01*
X8385Y25175D01*
D02*
G37*
G36*
X13200Y26050D02*
X12950D01*
Y25800D01*
X13200D01*
Y26050D01*
D02*
G37*
G36*
X3975Y24588D02*
Y24225D01*
X4338D01*
X4337Y24231D01*
X4287Y24352D01*
X4207Y24457D01*
X4102Y24537D01*
X3981Y24587D01*
X3975Y24588D01*
D02*
G37*
G36*
X12950Y23980D02*
X12150D01*
Y23880D01*
Y23800D01*
X12950D01*
Y23880D01*
Y23980D01*
D02*
G37*
G36*
X12450Y24280D02*
X12150D01*
Y24180D01*
X12450D01*
Y24280D01*
D02*
G37*
G36*
X12950D02*
X12650D01*
Y24180D01*
X12950D01*
Y24280D01*
D02*
G37*
%LPD*%
G36*
X4431Y29780D02*
X4414Y29774D01*
X4399Y29764D01*
X4386Y29750D01*
X4375Y29732D01*
X4366Y29710D01*
X4359Y29684D01*
X4354Y29654D01*
X4351Y29619D01*
X4350Y29581D01*
X4150D01*
X4149Y29619D01*
X4146Y29654D01*
X4141Y29684D01*
X4134Y29710D01*
X4125Y29732D01*
X4114Y29750D01*
X4101Y29764D01*
X4086Y29774D01*
X4069Y29780D01*
X4050Y29782D01*
X4450D01*
X4431Y29780D01*
D02*
G37*
G36*
X4351Y29511D02*
X4354Y29477D01*
X4359Y29447D01*
X4366Y29421D01*
X4375Y29399D01*
X4386Y29381D01*
X4398Y29367D01*
X4413Y29357D01*
X4430Y29351D01*
X4449Y29349D01*
X4050D01*
X4069Y29351D01*
X4086Y29357D01*
X4101Y29367D01*
X4114Y29381D01*
X4125Y29399D01*
X4134Y29421D01*
X4141Y29447D01*
X4146Y29477D01*
X4149Y29511D01*
X4150Y29549D01*
X4350D01*
X4351Y29511D01*
D02*
G37*
G36*
X2580Y8469D02*
X2609Y8444D01*
X2639Y8422D01*
X2669Y8402D01*
X2698Y8386D01*
X2728Y8373D01*
X2758Y8363D01*
X2787Y8355D01*
X2817Y8351D01*
X2846Y8350D01*
X2450Y7954D01*
X2449Y7983D01*
X2445Y8013D01*
X2437Y8042D01*
X2427Y8072D01*
X2414Y8102D01*
X2398Y8131D01*
X2378Y8161D01*
X2356Y8191D01*
X2331Y8220D01*
X2302Y8250D01*
X2550Y8498D01*
X2580Y8469D01*
D02*
G37*
G36*
X1893Y7695D02*
X1882Y7705D01*
X1871Y7715D01*
X1859Y7723D01*
X1847Y7730D01*
X1835Y7736D01*
X1822Y7741D01*
X1809Y7745D01*
X1796Y7748D01*
X1782Y7749D01*
X1769Y7750D01*
Y7850D01*
X1782Y7851D01*
X1796Y7852D01*
X1809Y7855D01*
X1822Y7859D01*
X1835Y7864D01*
X1847Y7870D01*
X1859Y7877D01*
X1871Y7885D01*
X1882Y7895D01*
X1893Y7905D01*
Y7695D01*
D02*
G37*
G36*
X3545Y31332D02*
X3535Y31321D01*
X3527Y31309D01*
X3520Y31297D01*
X3514Y31285D01*
X3509Y31272D01*
X3505Y31259D01*
X3502Y31246D01*
X3501Y31233D01*
X3500Y31219D01*
X3400D01*
X3399Y31233D01*
X3398Y31246D01*
X3395Y31259D01*
X3391Y31272D01*
X3386Y31285D01*
X3380Y31297D01*
X3373Y31309D01*
X3365Y31321D01*
X3355Y31332D01*
X3345Y31343D01*
X3555D01*
X3545Y31332D01*
D02*
G37*
G36*
X2699Y5786D02*
X2704Y5773D01*
X2711Y5762D01*
X2722Y5752D01*
X2735Y5744D01*
X2752Y5737D01*
X2772Y5732D01*
X2794Y5728D01*
X2820Y5726D01*
X2849Y5725D01*
Y5575D01*
X2820Y5574D01*
X2794Y5572D01*
X2772Y5568D01*
X2752Y5563D01*
X2735Y5556D01*
X2722Y5548D01*
X2711Y5538D01*
X2704Y5527D01*
X2699Y5514D01*
X2698Y5500D01*
Y5800D01*
X2699Y5786D01*
D02*
G37*
G36*
X15359Y4647D02*
X15381Y4629D01*
X15392Y4621D01*
X15402Y4614D01*
X15412Y4609D01*
X15422Y4605D01*
X15431Y4602D01*
X15440Y4600D01*
X15448Y4600D01*
X15300Y4451D01*
X15300Y4460D01*
X15298Y4469D01*
X15295Y4478D01*
X15291Y4488D01*
X15286Y4498D01*
X15279Y4508D01*
X15272Y4519D01*
X15263Y4530D01*
X15241Y4552D01*
X15348Y4659D01*
X15359Y4647D01*
D02*
G37*
G36*
X12048Y5850D02*
X12040Y5849D01*
X12031Y5848D01*
X12022Y5845D01*
X12012Y5841D01*
X12002Y5836D01*
X11992Y5829D01*
X11981Y5821D01*
X11970Y5813D01*
X11948Y5791D01*
X11841Y5898D01*
X11853Y5909D01*
X11872Y5931D01*
X11879Y5942D01*
X11886Y5952D01*
X11891Y5962D01*
X11895Y5972D01*
X11898Y5981D01*
X11899Y5990D01*
X11900Y5998D01*
X12048Y5850D01*
D02*
G37*
G36*
X11246Y22025D02*
X11189Y22025D01*
X11087Y22019D01*
X11042Y22013D01*
X11002Y22006D01*
X10966Y21997D01*
X10934Y21986D01*
X10906Y21973D01*
X10883Y21959D01*
X10863Y21943D01*
X10793Y22013D01*
X10809Y22033D01*
X10823Y22056D01*
X10836Y22084D01*
X10847Y22116D01*
X10856Y22152D01*
X10863Y22192D01*
X10869Y22237D01*
X10875Y22339D01*
X10875Y22396D01*
X11246Y22025D01*
D02*
G37*
G36*
X1405Y5849D02*
X1380Y5822D01*
X1339Y5773D01*
X1323Y5750D01*
X1311Y5728D01*
X1302Y5708D01*
X1296Y5688D01*
X1293Y5670D01*
X1294Y5653D01*
X1298Y5637D01*
X1187Y5948D01*
X1194Y5935D01*
X1204Y5927D01*
X1217Y5925D01*
X1234Y5928D01*
X1253Y5936D01*
X1276Y5949D01*
X1302Y5968D01*
X1331Y5992D01*
X1399Y6055D01*
X1405Y5849D01*
D02*
G37*
G36*
X2893Y10095D02*
X2886Y10101D01*
X2879Y10106D01*
X2870Y10110D01*
X2861Y10114D01*
X2850Y10117D01*
X2838Y10120D01*
X2825Y10122D01*
X2811Y10124D01*
X2780Y10125D01*
Y10275D01*
X2796Y10275D01*
X2825Y10278D01*
X2838Y10280D01*
X2850Y10282D01*
X2861Y10286D01*
X2870Y10290D01*
X2879Y10294D01*
X2886Y10299D01*
X2893Y10305D01*
Y10095D01*
D02*
G37*
G36*
X11043Y10495D02*
X11032Y10505D01*
X11021Y10515D01*
X11009Y10523D01*
X10997Y10530D01*
X10985Y10536D01*
X10972Y10541D01*
X10959Y10545D01*
X10946Y10548D01*
X10932Y10549D01*
X10919Y10550D01*
Y10650D01*
X10932Y10651D01*
X10946Y10652D01*
X10959Y10655D01*
X10972Y10659D01*
X10985Y10664D01*
X10997Y10670D01*
X11009Y10677D01*
X11021Y10685D01*
X11032Y10695D01*
X11043Y10705D01*
Y10495D01*
D02*
G37*
G36*
X4695Y17832D02*
X4685Y17821D01*
X4677Y17809D01*
X4670Y17797D01*
X4664Y17785D01*
X4659Y17772D01*
X4655Y17759D01*
X4652Y17746D01*
X4651Y17732D01*
X4650Y17719D01*
X4550D01*
X4549Y17732D01*
X4548Y17746D01*
X4545Y17759D01*
X4541Y17772D01*
X4536Y17785D01*
X4530Y17797D01*
X4523Y17809D01*
X4515Y17821D01*
X4505Y17832D01*
X4495Y17843D01*
X4705D01*
X4695Y17832D01*
D02*
G37*
G36*
X2336Y10315D02*
X2355Y10306D01*
X2379Y10299D01*
X2409Y10293D01*
X2444Y10287D01*
X2533Y10279D01*
X2644Y10275D01*
X2708Y10275D01*
Y10125D01*
X2644Y10125D01*
X2409Y10107D01*
X2379Y10101D01*
X2355Y10094D01*
X2336Y10085D01*
X2324Y10076D01*
Y10324D01*
X2336Y10315D01*
D02*
G37*
G36*
X6648Y11400D02*
X6640Y11400D01*
X6631Y11398D01*
X6622Y11395D01*
X6612Y11391D01*
X6602Y11386D01*
X6592Y11379D01*
X6581Y11372D01*
X6570Y11363D01*
X6548Y11341D01*
X6441Y11448D01*
X6453Y11459D01*
X6471Y11481D01*
X6479Y11492D01*
X6486Y11502D01*
X6491Y11512D01*
X6495Y11522D01*
X6498Y11531D01*
X6500Y11540D01*
X6500Y11549D01*
X6648Y11400D01*
D02*
G37*
G36*
X4932Y15340D02*
X4943Y15331D01*
X4954Y15324D01*
X4966Y15317D01*
X4978Y15312D01*
X4991Y15307D01*
X5005Y15304D01*
X5019Y15302D01*
X5033Y15300D01*
X5048Y15300D01*
X4900Y15151D01*
X4900Y15167D01*
X4898Y15181D01*
X4896Y15195D01*
X4893Y15209D01*
X4888Y15222D01*
X4883Y15234D01*
X4876Y15246D01*
X4869Y15257D01*
X4860Y15268D01*
X4851Y15278D01*
X4922Y15349D01*
X4932Y15340D01*
D02*
G37*
G36*
X2849Y10678D02*
X2840Y10668D01*
X2831Y10657D01*
X2824Y10646D01*
X2817Y10634D01*
X2812Y10622D01*
X2807Y10609D01*
X2804Y10595D01*
X2802Y10581D01*
X2800Y10567D01*
X2800Y10552D01*
X2652Y10700D01*
X2667Y10700D01*
X2681Y10702D01*
X2695Y10704D01*
X2709Y10707D01*
X2722Y10712D01*
X2734Y10717D01*
X2746Y10724D01*
X2757Y10731D01*
X2768Y10740D01*
X2778Y10749D01*
X2849Y10678D01*
D02*
G37*
G36*
X4134Y18146D02*
X4139Y18145D01*
X4144Y18143D01*
X4148Y18141D01*
X4153Y18138D01*
X4159Y18134D01*
X4163Y18131D01*
X4170Y18120D01*
X4252Y18065D01*
X4318Y18051D01*
X4350Y18045D01*
X4354Y17997D01*
X4345Y17950D01*
X4365Y17852D01*
X4400Y17800D01*
X4373Y17750D01*
X1850D01*
Y15450D01*
X4450D01*
Y15465D01*
X4468Y15476D01*
X4500Y15484D01*
X4786Y15198D01*
X4789Y15194D01*
X4791Y15189D01*
X4793Y15185D01*
X4795Y15180D01*
X4796Y15174D01*
X4797Y15168D01*
X4798Y15163D01*
X4795Y15150D01*
X4814Y15052D01*
X4870Y14970D01*
X4952Y14914D01*
X5050Y14895D01*
X5148Y14914D01*
X5197Y14948D01*
X5247Y14921D01*
Y13363D01*
X2698Y10814D01*
X2694Y10811D01*
X2689Y10809D01*
X2685Y10807D01*
X2680Y10805D01*
X2674Y10804D01*
X2668Y10803D01*
X2663Y10802D01*
X2650Y10805D01*
X2552Y10785D01*
X2521Y10765D01*
X2477Y10788D01*
Y14450D01*
X2468Y14522D01*
X2440Y14589D01*
X2396Y14646D01*
X1277Y15765D01*
Y17550D01*
X1268Y17622D01*
X1240Y17689D01*
X1196Y17746D01*
X1139Y17790D01*
X1072Y17818D01*
X1000Y17827D01*
X959Y17822D01*
X936Y17869D01*
X1213Y18147D01*
X4130D01*
X4134Y18146D01*
D02*
G37*
G36*
X13751Y8522D02*
X13755Y8485D01*
X13762Y8449D01*
X13771Y8414D01*
X13783Y8381D01*
X13797Y8349D01*
X13814Y8318D01*
X13833Y8289D01*
X13855Y8262D01*
X13880Y8236D01*
X13320D01*
X13345Y8262D01*
X13367Y8289D01*
X13386Y8318D01*
X13403Y8349D01*
X13418Y8381D01*
X13429Y8414D01*
X13438Y8449D01*
X13445Y8485D01*
X13449Y8522D01*
X13450Y8561D01*
X13750D01*
X13751Y8522D01*
D02*
G37*
G36*
X4899Y19639D02*
X4888Y19650D01*
X4876Y19659D01*
X4865Y19667D01*
X4853Y19674D01*
X4841Y19681D01*
X4828Y19685D01*
X4815Y19689D01*
X4802Y19692D01*
X4788Y19694D01*
X4774Y19694D01*
Y19794D01*
X4788Y19795D01*
X4802Y19796D01*
X4815Y19799D01*
X4828Y19803D01*
X4841Y19808D01*
X4853Y19814D01*
X4865Y19821D01*
X4876Y19829D01*
X4888Y19839D01*
X4899Y19849D01*
Y19639D01*
D02*
G37*
G36*
X995Y21832D02*
X985Y21821D01*
X977Y21809D01*
X970Y21797D01*
X964Y21785D01*
X959Y21772D01*
X955Y21759D01*
X952Y21746D01*
X951Y21732D01*
X950Y21719D01*
X850D01*
X849Y21732D01*
X848Y21746D01*
X845Y21759D01*
X841Y21772D01*
X836Y21785D01*
X830Y21797D01*
X823Y21809D01*
X815Y21821D01*
X805Y21832D01*
X795Y21843D01*
X1005D01*
X995Y21832D01*
D02*
G37*
G36*
X5818Y20795D02*
X5829Y20785D01*
X5841Y20777D01*
X5853Y20770D01*
X5865Y20764D01*
X5878Y20759D01*
X5891Y20755D01*
X5904Y20752D01*
X5918Y20751D01*
X5931Y20750D01*
Y20650D01*
X5918Y20649D01*
X5904Y20648D01*
X5891Y20645D01*
X5878Y20641D01*
X5865Y20636D01*
X5853Y20630D01*
X5841Y20623D01*
X5829Y20615D01*
X5818Y20605D01*
X5807Y20595D01*
Y20805D01*
X5818Y20795D01*
D02*
G37*
G36*
X7995Y18382D02*
X7985Y18371D01*
X7977Y18359D01*
X7970Y18347D01*
X7964Y18335D01*
X7959Y18322D01*
X7955Y18309D01*
X7952Y18296D01*
X7951Y18282D01*
X7950Y18269D01*
X7850D01*
X7849Y18282D01*
X7848Y18296D01*
X7845Y18309D01*
X7841Y18322D01*
X7836Y18335D01*
X7830Y18347D01*
X7823Y18359D01*
X7815Y18371D01*
X7805Y18382D01*
X7795Y18393D01*
X8005D01*
X7995Y18382D01*
D02*
G37*
G36*
X4243Y18195D02*
X4232Y18205D01*
X4221Y18215D01*
X4209Y18223D01*
X4197Y18230D01*
X4185Y18236D01*
X4172Y18241D01*
X4159Y18245D01*
X4146Y18248D01*
X4132Y18249D01*
X4119Y18250D01*
Y18350D01*
X4132Y18351D01*
X4146Y18352D01*
X4159Y18355D01*
X4172Y18359D01*
X4185Y18364D01*
X4197Y18370D01*
X4209Y18377D01*
X4221Y18385D01*
X4232Y18395D01*
X4243Y18405D01*
Y18195D01*
D02*
G37*
G36*
X8282Y18690D02*
X8293Y18681D01*
X8304Y18674D01*
X8316Y18667D01*
X8328Y18662D01*
X8341Y18657D01*
X8355Y18654D01*
X8369Y18652D01*
X8383Y18650D01*
X8399Y18650D01*
X8250Y18501D01*
X8250Y18517D01*
X8248Y18531D01*
X8246Y18545D01*
X8243Y18559D01*
X8238Y18572D01*
X8233Y18584D01*
X8226Y18596D01*
X8219Y18607D01*
X8210Y18618D01*
X8201Y18628D01*
X8272Y18699D01*
X8282Y18690D01*
D02*
G37*
G36*
X4159Y8952D02*
X4147Y8941D01*
X4128Y8919D01*
X4121Y8908D01*
X4114Y8898D01*
X4109Y8888D01*
X4105Y8878D01*
X4102Y8869D01*
X4101Y8860D01*
X4100Y8852D01*
X3952Y9000D01*
X3960Y9000D01*
X3969Y9002D01*
X3978Y9005D01*
X3988Y9009D01*
X3998Y9014D01*
X4008Y9021D01*
X4019Y9028D01*
X4030Y9037D01*
X4052Y9059D01*
X4159Y8952D01*
D02*
G37*
D10*
X2300Y5650D02*
X11700D01*
X2100D02*
X2300D01*
X11700D02*
X12050Y6000D01*
X13550Y6350D02*
X15450Y4450D01*
X1800Y6350D02*
X13550D01*
X1100Y5650D02*
X1800Y6350D01*
X11150Y4050D02*
X12300Y2900D01*
X1700Y4050D02*
X11150D01*
X1100Y4650D02*
X1700Y4050D01*
X2200Y10200D02*
X3000D01*
X3950Y8850D02*
X6650Y11550D01*
X10840Y23710D02*
X11650D01*
X10650Y23900D02*
X10840Y23710D01*
D11*
X9350Y29301D02*
D03*
X9360Y27943D02*
D03*
D12*
X8000Y23900D02*
D03*
X7100D02*
D03*
X10650D02*
D03*
X9750D02*
D03*
X14150Y29050D02*
D03*
X11550D02*
D03*
X10650D02*
D03*
X3250Y29100D02*
D03*
X4150D02*
D03*
X15050Y29050D02*
D03*
X12400D02*
D03*
X13300D02*
D03*
D15*
X16750D02*
D03*
X15850D02*
D03*
X12400Y26150D02*
D03*
X13300D02*
D03*
D21*
X10550Y27400D02*
D03*
Y28300D02*
D03*
D30*
X16551Y27850D02*
D03*
X15193Y27840D02*
D03*
X10450Y25350D02*
D03*
X9092Y25340D02*
D03*
D36*
X11800Y24090D02*
Y24600D01*
X4350Y36900D02*
X4400Y36950D01*
X550Y36750D02*
X1150Y36150D01*
X550Y37750D02*
X1350Y36950D01*
X3440Y29310D02*
X3500Y29250D01*
X11500Y26350D02*
Y26850D01*
X1850Y30400D02*
Y31150D01*
X1250Y29800D02*
X1850Y30400D01*
X1250Y28500D02*
Y29800D01*
X1450Y28300D02*
X4500D01*
X1250Y28500D02*
X1450Y28300D01*
X2550Y30450D02*
Y33200D01*
X1850Y29750D02*
X2550Y30450D01*
X2750Y30200D02*
Y33100D01*
X1850Y29300D02*
X2750Y30200D01*
X1850Y28850D02*
X2950Y29950D01*
X4500Y28300D02*
X5050Y28850D01*
X2950Y33000D02*
X3150Y33200D01*
X2950Y29950D02*
Y33000D01*
X2750Y33100D02*
X3200Y33550D01*
X2550Y33200D02*
X3150Y33800D01*
X5050Y28850D02*
Y33150D01*
X5250Y28800D02*
Y32350D01*
X4450Y28000D02*
X5250Y28800D01*
X3450Y28000D02*
X4450D01*
X5450Y28750D02*
Y31200D01*
X4400Y27700D02*
X5450Y28750D01*
X3000Y27700D02*
X4400D01*
X1350Y32500D02*
X1650Y32200D01*
X1350Y32500D02*
Y33850D01*
X1750Y34250D01*
X2100D01*
X1850Y34050D02*
X2200D01*
X1550Y33750D02*
X1850Y34050D01*
X1550Y32750D02*
Y33750D01*
Y32750D02*
X2100Y32200D01*
X1750Y33000D02*
X2100Y32650D01*
X1750Y33000D02*
Y33200D01*
X2000Y33450D01*
X2200D01*
X2150Y33100D02*
X3050Y34000D01*
X2100Y33100D02*
X2150D01*
X2200Y33750D02*
X2850Y34400D01*
X2100Y33750D02*
X2200D01*
X7750Y18800D02*
X8100D01*
X5400Y16450D02*
X7750Y18800D01*
X8100D02*
X8400Y18500D01*
X9550Y20700D02*
X11250Y22400D01*
X5700Y20700D02*
X9550D01*
X1106Y19744D02*
X5006D01*
X900Y19950D02*
X1106Y19744D01*
X900Y19950D02*
Y21950D01*
X5650Y25250D02*
Y26950D01*
X9300Y10600D02*
X11150D01*
X7900Y12000D02*
X9300Y10600D01*
X7900Y12000D02*
Y18500D01*
X4600Y15600D02*
X5050Y15150D01*
X4600Y15600D02*
Y17950D01*
X3350Y29100D02*
X3500Y29250D01*
X3440Y29310D02*
X3450Y29320D01*
Y31450D01*
X5500Y37850D02*
X6550D01*
X7250Y38550D01*
X5400Y38050D02*
X5750D01*
X6250Y38550D01*
X5400Y37750D02*
X5500Y37850D01*
X5200D02*
X5400Y38050D01*
X5250Y38300D02*
Y38550D01*
X5000Y38050D02*
X5250Y38300D01*
X11270Y31050D02*
X11320Y31000D01*
X12000D01*
X11270Y30430D02*
Y31050D01*
X14100Y29100D02*
X14150Y29050D01*
X14100Y29100D02*
Y32350D01*
X4250Y37100D02*
X4400Y36950D01*
X4250Y38450D02*
Y38550D01*
Y38400D02*
Y38450D01*
X3250Y37900D02*
Y38550D01*
X1350Y34750D02*
Y36950D01*
X1700Y37050D02*
X2400D01*
X3250Y37900D01*
X1700Y36600D02*
X2400D01*
X4250Y38450D01*
X1700Y35400D02*
X1950Y35650D01*
X1700Y34950D02*
X2200Y35450D01*
X1350Y34750D02*
X1450Y34650D01*
X1900D01*
X2500Y35250D01*
X2000Y34450D02*
X2600Y35050D01*
X1150Y34700D02*
Y36150D01*
Y34700D02*
X1400Y34450D01*
X2000D01*
X7750Y36850D02*
Y37100D01*
X11270Y31050D02*
Y33530D01*
X2100Y34250D02*
X2650Y34800D01*
X2200Y34050D02*
X2750Y34600D01*
X5500D01*
X7750Y36850D01*
X2850Y34400D02*
X12050D01*
X14100Y32350D01*
X2200Y33450D02*
X2950Y34200D01*
X10600D01*
X11270Y33530D01*
X3050Y34000D02*
X9900D01*
X5100Y33200D02*
Y33250D01*
X4700Y33200D02*
Y33250D01*
X4150Y33800D02*
X4700Y33250D01*
X4300Y33200D02*
Y33250D01*
X4350Y36150D02*
Y36900D01*
X1700Y35850D02*
X4500D01*
X5000Y36350D01*
Y38050D01*
X1950Y35650D02*
X4550D01*
X5200Y36300D01*
Y37850D01*
X2200Y35450D02*
X4600D01*
X5400Y36250D01*
Y37750D01*
X2500Y35250D02*
X4700D01*
X5000Y35550D01*
X5150D01*
X4950Y35050D02*
X5000Y35100D01*
X2600Y35050D02*
X4950D01*
X2650Y34800D02*
X5200D01*
X6000Y35600D01*
Y37100D01*
X3150Y33800D02*
X4150D01*
X3150Y33200D02*
X3900D01*
X3200Y33550D02*
X4000D01*
X4300Y33250D01*
X5200Y25250D02*
Y26850D01*
X4800Y25200D02*
Y25900D01*
X4350Y25400D02*
Y25900D01*
X1150Y18300D02*
X4350D01*
X1400Y7800D02*
X2000D01*
X500Y8700D02*
X1400Y7800D01*
X500Y8700D02*
Y17650D01*
X1150Y18300D01*
X2650Y10550D02*
X5400Y13300D01*
Y16450D01*
X5050Y33150D02*
X5100Y33200D01*
X2900Y27800D02*
X3000Y27700D01*
X5450Y31200D02*
X5650Y31400D01*
X10650Y29050D02*
X10750Y29150D01*
Y33150D01*
X9900Y34000D02*
X10750Y33150D01*
X9550Y31400D02*
X10300Y32150D01*
X5650Y31400D02*
X9550D01*
X4000Y25350D02*
Y26600D01*
X4350Y26950D01*
X5200D01*
X9150Y27300D02*
X9550Y26900D01*
X9650Y27300D02*
X9750Y27200D01*
X5450Y24550D02*
X9400D01*
X9550Y24700D01*
X4800Y25200D02*
X5450Y24550D01*
X9550Y24700D02*
Y26900D01*
X5400Y24350D02*
X9500D01*
X9750Y24600D01*
X4350Y25400D02*
X5400Y24350D01*
X9750Y24600D02*
Y27200D01*
X5350Y24000D02*
X7000D01*
X7100Y23900D01*
X4000Y25350D02*
X5350Y24000D01*
X8100D02*
X8700D01*
X8000Y23900D02*
X8100Y24000D01*
X9750Y23900D02*
X10450Y24600D01*
X11250D01*
X5250Y32350D02*
X5550Y32650D01*
X10300D01*
D37*
X16700Y27999D02*
Y30900D01*
X10450Y25400D02*
X12400D01*
X300Y27350D02*
X350Y27400D01*
X5600Y27500D02*
Y28450D01*
X5500Y27400D02*
X5600Y27500D01*
X13975Y27850D02*
X14050D01*
X16551D02*
X16700Y27999D01*
X15900Y27850D02*
X16551D01*
X6800Y25300D02*
X6900D01*
X6100Y26000D02*
X6800Y25300D01*
X12400Y25350D02*
X13600Y24150D01*
Y24100D02*
Y24150D01*
X12400Y25400D02*
Y26150D01*
Y27250D01*
X13000Y27850D01*
X13975D01*
X13600Y7950D02*
Y18200D01*
X6000Y12850D02*
Y16400D01*
Y12850D02*
X9900Y8950D01*
X12550D01*
X6100Y26000D02*
Y27150D01*
X350Y27400D02*
X5500D01*
X5850D01*
X6100Y27150D01*
X600Y24100D02*
X2850D01*
X300Y24400D02*
X600Y24100D01*
X300Y24400D02*
Y27350D01*
Y27400D01*
X10450Y25150D02*
Y25350D01*
Y25400D01*
D38*
X2300Y4450D02*
X9150D01*
X2100Y4650D02*
X2300Y4450D01*
X14250Y25550D02*
Y26850D01*
X15600Y24100D02*
Y24200D01*
X2850Y1000D02*
Y3450D01*
X3200Y3800D02*
X8800D01*
X2850Y3450D02*
X3200Y3800D01*
X1150Y30300D02*
Y31966D01*
X300Y29450D02*
X1150Y30300D01*
X300Y27400D02*
Y29450D01*
X560Y32556D02*
X1150Y31966D01*
X14300Y28350D02*
X14650Y28000D01*
X13975Y26850D02*
X14250D01*
X13975Y28350D02*
X14300D01*
X12300Y29900D02*
X12950D01*
X11550Y29150D02*
X12300Y29900D01*
X11550Y29050D02*
Y29150D01*
X11725Y27350D02*
Y27850D01*
X13300Y28550D02*
Y29050D01*
Y28550D02*
X13500Y28350D01*
X13975D01*
X12400Y28600D02*
Y29050D01*
X12150Y28350D02*
X12400Y28600D01*
X11725Y28350D02*
X12150D01*
X10600D02*
X11725D01*
X14900Y29200D02*
Y30300D01*
Y29200D02*
X15050Y29050D01*
X4250Y29100D02*
Y30410D01*
X16370Y31030D02*
X16570D01*
X14650Y26250D02*
Y28000D01*
Y26250D02*
X16600Y24300D01*
X14250Y25550D02*
X15600Y24200D01*
X8700Y36600D02*
X10800D01*
X16370Y31030D01*
X9950Y27600D02*
X10350D01*
X10550Y27400D01*
X11400Y27350D02*
X11725D01*
X8800Y3800D02*
X9150Y3450D01*
X9151Y29500D02*
X9350Y29301D01*
X8400Y29500D02*
X9151D01*
X7770Y30130D02*
X8400Y29500D01*
X7770Y30130D02*
Y30430D01*
X9700Y27850D02*
X9950Y27600D01*
X10750Y26700D02*
X11400Y27350D01*
X10500Y26700D02*
X10750D01*
D39*
X1000Y15650D02*
Y17550D01*
X2200Y8600D02*
X2850Y7950D01*
X1000Y15650D02*
X2200Y14450D01*
Y8600D02*
Y10200D01*
Y14450D01*
D46*
X15775Y38525D02*
D03*
X13725D02*
D03*
D47*
X2100Y25150D02*
D03*
X1100D02*
D03*
X12250Y22400D02*
D03*
X11250D02*
D03*
X11250Y38550D02*
D03*
X12250D02*
D03*
D48*
X2100Y26150D02*
D03*
X1100D02*
D03*
D49*
X15700Y24100D02*
D03*
X15750Y9050D02*
D03*
D50*
X16700Y24100D02*
D03*
X560Y32556D02*
D03*
X1900Y38750D02*
D03*
X16750Y9050D02*
D03*
X1200Y11450D02*
D03*
Y12424D02*
D03*
D51*
X550Y33550D02*
D03*
X1900Y37750D02*
D03*
X1200Y10436D02*
D03*
D52*
X560Y31562D02*
D03*
X550Y30548D02*
D03*
D53*
X6900Y28300D02*
D03*
X7900D02*
D03*
X6900Y27300D02*
D03*
X7900D02*
D03*
X6900Y26300D02*
D03*
X7900D02*
D03*
Y25300D02*
D03*
X5250Y38550D02*
D03*
X5250Y22400D02*
D03*
D54*
X6900Y25300D02*
D03*
D55*
X550Y38600D02*
D03*
Y37600D02*
D03*
Y36600D02*
D03*
Y35600D02*
D03*
X13600Y24100D02*
D03*
X14600D02*
D03*
X3850D02*
D03*
X2850D02*
D03*
X3250Y38550D02*
D03*
X4250D02*
D03*
X6250D02*
D03*
X7250D02*
D03*
X8250D02*
D03*
X9250D02*
D03*
X10250D02*
D03*
X13600Y7950D02*
D03*
X14600D02*
D03*
X3850D02*
D03*
X2850D02*
D03*
X3250Y22400D02*
D03*
X4250D02*
D03*
X6250D02*
D03*
X7250D02*
D03*
X8250D02*
D03*
X9250D02*
D03*
X10250D02*
D03*
D56*
X1850Y29750D02*
D03*
Y29300D02*
D03*
Y28850D02*
D03*
X5600Y28450D02*
D03*
X1850Y31150D02*
D03*
X1650Y32200D02*
D03*
X2100D02*
D03*
Y32650D02*
D03*
Y33100D02*
D03*
Y33750D02*
D03*
X12050Y6000D02*
D03*
X900Y21950D02*
D03*
X1000Y17550D02*
D03*
X5650Y26950D02*
D03*
Y25250D02*
D03*
X5006Y19744D02*
D03*
X11150Y10600D02*
D03*
X6000Y16400D02*
D03*
X12550Y8950D02*
D03*
X5050Y15150D02*
D03*
X8400Y18500D02*
D03*
X7900D02*
D03*
X5700Y20700D02*
D03*
X4350Y18300D02*
D03*
X4600Y17950D02*
D03*
X4350Y25900D02*
D03*
X4800D02*
D03*
X3450Y31450D02*
D03*
X1700Y34950D02*
D03*
Y35400D02*
D03*
Y35850D02*
D03*
X12000Y31000D02*
D03*
X11500Y26350D02*
D03*
X15900Y27850D02*
D03*
X9150Y4450D02*
D03*
X15450D02*
D03*
X12300Y2900D02*
D03*
X8700Y36600D02*
D03*
X13600Y18200D02*
D03*
X1700Y37050D02*
D03*
Y36600D02*
D03*
X5100Y33200D02*
D03*
X4700D02*
D03*
X4300D02*
D03*
X3900D02*
D03*
X4350Y36150D02*
D03*
X5150Y35550D02*
D03*
X5000Y35100D02*
D03*
X5200Y25250D02*
D03*
Y26950D02*
D03*
X2000Y7800D02*
D03*
X2650Y10550D02*
D03*
X3000Y10200D02*
D03*
X3950Y8850D02*
D03*
X6650Y11550D02*
D03*
X3600Y20800D02*
D03*
X3100Y13150D02*
D03*
X4000Y10850D02*
D03*
X7150Y17000D02*
D03*
Y15500D02*
D03*
X7900Y19350D02*
D03*
X10850D02*
D03*
X5050Y12250D02*
D03*
X550Y7800D02*
D03*
X4500Y19100D02*
D03*
X300Y27400D02*
D03*
X2900Y27800D02*
D03*
X3450Y28000D02*
D03*
X10300Y32150D02*
D03*
Y32650D02*
D03*
X9150Y3450D02*
D03*
X11250Y24600D02*
D03*
X9150Y27300D02*
D03*
X9650D02*
D03*
X11800Y24600D02*
D03*
X8700Y24000D02*
D03*
X7850Y35950D02*
D03*
X6700Y29300D02*
D03*
X350Y6800D02*
D03*
Y700D02*
D03*
X14800Y4450D02*
D03*
X8450Y9550D02*
D03*
X10300Y34900D02*
D03*
X11750D02*
D03*
X12000Y32150D02*
D03*
X13300Y27350D02*
D03*
X11500Y25900D02*
D03*
X9600Y28600D02*
D03*
X750Y28100D02*
D03*
D57*
X3955Y32734D02*
D03*
Y31984D02*
D03*
X4705D02*
D03*
Y32734D02*
D03*
D58*
X6200Y18500D02*
D03*
X14750Y38450D02*
D03*
X15750D02*
D03*
X13750D02*
D03*
D59*
X2300Y4650D02*
D03*
X900D02*
D03*
X2300Y5650D02*
D03*
X900D02*
D03*
D60*
X4330Y32360D02*
D03*
D61*
X9090Y26500D02*
D03*
X10350D02*
D03*
D62*
X13975Y28350D02*
D03*
Y27850D02*
D03*
Y26850D02*
D03*
X11725Y27350D02*
D03*
Y27850D02*
D03*
Y28350D02*
D03*
X13975Y27350D02*
D03*
D63*
X11725Y26850D02*
D03*
D64*
X4270Y30430D02*
D03*
X6020D02*
D03*
X7770D02*
D03*
X11270D02*
D03*
X13020D02*
D03*
X14770D02*
D03*
X14750Y37100D02*
D03*
X7750D02*
D03*
X4250D02*
D03*
D65*
X16570Y31030D02*
D03*
Y32840D02*
D03*
Y34650D02*
D03*
D66*
X6000Y37100D02*
D03*
D67*
X11650Y24090D02*
D03*
Y23710D02*
D03*
X12550Y23700D02*
D03*
Y24080D02*
D03*
D68*
X2850Y500D02*
Y1000D01*
D69*
X3850Y925D02*
D03*
D70*
X2850Y1075D02*
D03*
D71*
X14750Y38150D02*
D03*
M02*
