M48
;Layer_Color=9474304
;FILE_FORMAT=2:4
INCH,TZ
;TYPE=PLATED
T1F00S00C0.0200
T2F00S00C0.0230
T3F00S00C0.0350
T4F00S00C0.0354
T5F00S00C0.0400
;TYPE=NON_PLATED
T6F00S00C0.0350
T7F00S00C0.0500
%
T01
X9150Y3450
X12300Y2900
X350Y700
Y6800
X550Y7800
X2000
X3950Y8850
X4000Y10850
X3000Y10200
X2650Y10550
X3100Y13150
X5050Y12250
Y15150
X4600Y17950
X4350Y18300
X4500Y19100
X5006Y19744
X1000Y17550
X6000Y16400
X7150Y17000
Y15500
X7900Y18500
X8400
X7900Y19350
X10850
X13600Y18200
X11150Y10600
X12550Y8950
X12050Y6000
X14800Y4450
X15450
X9150
X8450Y9550
X6650Y11550
X5700Y20700
X5650Y25250
Y26950
X6700Y29300
X9600Y28600
X9650Y27300
X9150
X11500Y26350
X11500Y25900
X11250Y24600
X11800
X8700Y24000
X13300Y27350
X15900Y27850
X12000Y31000
X12000Y32150
X10300Y32150
Y32650
X10300Y34900
X11750
X5000Y35100
X5150Y35550
X5100Y33200
X4700
X4300
X3900
X2100Y33100
Y32650
Y32200
X1650
X1850Y31150
Y29750
Y29300
Y28850
X750Y28100
X300Y27400
X2900Y27800
X3450Y28000
X5600Y28450
X5200Y26950
X4800Y25900
X4350
X5200Y25250
X3600Y20800
X900Y21950
X3450Y31450
X2100Y33750
X1700Y34950
Y35400
Y35850
Y36600
Y37050
X4350Y36150
X7850Y35950
X8700Y36600
T02
X3955Y31984
X4705
Y32734
X3955
T03
X2850Y7950
X3850
X1200Y10436
Y11450
Y12424
X13600Y7950
X14600
X14600Y24100
X13600
X15700
X16700
X12250Y22400
X11250
X10250
X9250
X8250
X7250
X6250
X5250
X4250
X3250
X2850Y24100
X3850
X2100Y25150
X1100
Y26150
X2100
X1900Y37750
Y38750
X3250Y38550
X4250
X5250
X6250
X7250
X8250
X9250
X10250
X11250
X12250
T04
X15750Y9050
X16750
T05
X6200Y18500
X6900Y25300
X7900
Y26300
X6900
Y27300
X7900
Y28300
X6900
X550Y35600
Y36600
Y37600
Y38600
X13750Y38450
X14750
X15750
T06
X550Y30548
X560Y31562
Y32556
X550Y33550
T07
X16377Y26750
M30
