G04 Layer_Color=8388736*
%FSLAX24Y24*%
%MOIN*%
G70*
G01*
G75*
%ADD45R,0.0800X0.1450*%
%ADD46R,0.1050X0.1450*%
%ADD82R,0.1261X0.0671*%
%ADD83R,0.0680X0.0580*%
%ADD84R,0.0631X0.0480*%
%ADD85R,0.0080X0.0080*%
%ADD86R,0.0480X0.0680*%
%ADD87R,0.0080X0.0080*%
%ADD88R,0.0580X0.0580*%
%ADD89R,0.0867X0.0671*%
%ADD90R,0.0237X0.0474*%
%ADD91R,0.0580X0.0580*%
%ADD92R,0.0380X0.0552*%
%ADD93R,0.0356X0.0710*%
%ADD94R,0.0580X0.0680*%
%ADD95R,0.1180X0.1180*%
%ADD96O,0.0592X0.0178*%
%ADD97O,0.0178X0.0592*%
%ADD98R,0.0280X0.0680*%
%ADD99R,0.1064X0.2245*%
%ADD100R,0.0671X0.0867*%
%ADD101R,0.1064X0.1180*%
%ADD102R,0.1497X0.0789*%
%ADD103R,0.0671X0.1261*%
%ADD104R,0.1025X0.1025*%
%ADD105O,0.0178X0.0680*%
%ADD106O,0.0680X0.0178*%
%ADD107R,0.0780X0.1080*%
%ADD108R,0.0277X0.1300*%
%ADD109C,0.0830*%
%ADD110O,0.0780X0.0830*%
%ADD111C,0.0080*%
%ADD112R,0.0830X0.0830*%
%ADD113C,0.0830*%
%ADD114R,0.0830X0.0830*%
%ADD115O,0.0730X0.0830*%
%ADD116O,0.0880X0.0780*%
%ADD117R,0.0880X0.0780*%
%ADD118C,0.0880*%
%ADD119C,0.0080*%
%ADD120C,0.0380*%
%ADD121C,0.0480*%
%ADD122C,0.0580*%
D45*
X14750Y38525D02*
D03*
D46*
X15775D02*
D03*
X13725D02*
D03*
D82*
X3300Y37400D02*
D03*
X3290Y36042D02*
D03*
X5490Y27693D02*
D03*
X5500Y29051D02*
D03*
X990Y16793D02*
D03*
X1000Y18151D02*
D03*
X13740Y9092D02*
D03*
X13750Y10450D02*
D03*
X11340Y16792D02*
D03*
X11350Y18150D02*
D03*
D83*
X5400Y37550D02*
D03*
X4500D02*
D03*
X7050Y35950D02*
D03*
X6150D02*
D03*
X2950Y19100D02*
D03*
X3850D02*
D03*
X7500Y12350D02*
D03*
X8400D02*
D03*
X3100Y14100D02*
D03*
X4000D02*
D03*
X3200Y9600D02*
D03*
X2300D02*
D03*
Y8850D02*
D03*
X3200D02*
D03*
D84*
X8888Y25632D02*
D03*
D85*
X8908Y26223D02*
D03*
Y26813D02*
D03*
Y27404D02*
D03*
Y27994D02*
D03*
Y28585D02*
D03*
Y29175D02*
D03*
X8888Y29766D02*
D03*
D86*
X16584Y30150D02*
D03*
X15993D02*
D03*
X10678D02*
D03*
X10088D02*
D03*
X9497D02*
D03*
X9497Y25241D02*
D03*
X10678D02*
D03*
X11269D02*
D03*
D87*
X15993Y25250D02*
D03*
X16584D02*
D03*
X15403Y30150D02*
D03*
X14812D02*
D03*
X14222D02*
D03*
X13631D02*
D03*
X13041D02*
D03*
X12450D02*
D03*
X11859D02*
D03*
X11269D02*
D03*
X10088Y25241D02*
D03*
X11859D02*
D03*
X12450D02*
D03*
X13041D02*
D03*
X13631D02*
D03*
X14222D02*
D03*
X14812D02*
D03*
X15403D02*
D03*
D88*
X9450Y31000D02*
D03*
X10350D02*
D03*
X6700Y30100D02*
D03*
X5800D02*
D03*
X3800Y18200D02*
D03*
X2900D02*
D03*
X7500Y11600D02*
D03*
X8400D02*
D03*
D89*
X10700Y4450D02*
D03*
X7629D02*
D03*
X13821Y6000D02*
D03*
X10750D02*
D03*
X13821Y2900D02*
D03*
X10750D02*
D03*
X16921Y4450D02*
D03*
X13850D02*
D03*
D90*
X12050Y4798D02*
D03*
X11715D02*
D03*
X12719Y4050D02*
D03*
X12385D02*
D03*
X12050D02*
D03*
X11715D02*
D03*
X12719Y4798D02*
D03*
X12385D02*
D03*
D91*
X8350Y35150D02*
D03*
Y34250D02*
D03*
X7650Y35150D02*
D03*
Y34250D02*
D03*
X6800D02*
D03*
Y35150D02*
D03*
X2150Y18200D02*
D03*
Y19100D02*
D03*
X10000Y18200D02*
D03*
Y19100D02*
D03*
X9200D02*
D03*
Y18200D02*
D03*
X1200Y29650D02*
D03*
Y28750D02*
D03*
D92*
X8341Y33300D02*
D03*
X7159D02*
D03*
D93*
X7300Y31950D02*
D03*
X7800D02*
D03*
X8300D02*
D03*
D94*
X6100Y34250D02*
D03*
Y35150D02*
D03*
X12550Y10600D02*
D03*
Y9700D02*
D03*
X11800D02*
D03*
Y10600D02*
D03*
X2900Y20800D02*
D03*
Y19900D02*
D03*
X2150D02*
D03*
Y20800D02*
D03*
X9200D02*
D03*
Y19900D02*
D03*
X9950D02*
D03*
Y20800D02*
D03*
X10100Y14900D02*
D03*
Y14000D02*
D03*
X9350Y14900D02*
D03*
Y14000D02*
D03*
X6300Y20450D02*
D03*
Y21350D02*
D03*
X7550Y20450D02*
D03*
Y21350D02*
D03*
X5050Y20450D02*
D03*
Y21350D02*
D03*
X450Y29650D02*
D03*
Y28750D02*
D03*
D95*
X4327Y32364D02*
D03*
D96*
X5750Y33444D02*
D03*
Y33247D02*
D03*
Y33050D02*
D03*
Y32853D02*
D03*
Y32656D02*
D03*
Y32459D02*
D03*
Y32263D02*
D03*
Y32066D02*
D03*
Y31869D02*
D03*
Y31672D02*
D03*
Y31475D02*
D03*
Y31278D02*
D03*
X2910D02*
D03*
Y31475D02*
D03*
Y31672D02*
D03*
Y31869D02*
D03*
Y32066D02*
D03*
Y32263D02*
D03*
Y32459D02*
D03*
Y32656D02*
D03*
Y32853D02*
D03*
Y33050D02*
D03*
Y33247D02*
D03*
Y33444D02*
D03*
D97*
X5410Y30944D02*
D03*
X5213D02*
D03*
X5016D02*
D03*
X4819D02*
D03*
X4623D02*
D03*
X4426D02*
D03*
X4229D02*
D03*
X4032D02*
D03*
X3835D02*
D03*
X3638D02*
D03*
X3441D02*
D03*
X3245D02*
D03*
X3240Y33784D02*
D03*
X3437D02*
D03*
X3634D02*
D03*
X3831D02*
D03*
X4027D02*
D03*
X4224D02*
D03*
X4421D02*
D03*
X4618D02*
D03*
X4815D02*
D03*
X5012D02*
D03*
X5209D02*
D03*
X5405D02*
D03*
D98*
X1150Y7800D02*
D03*
X1530D02*
D03*
X1520Y8700D02*
D03*
X1140D02*
D03*
D99*
X2422Y16600D02*
D03*
X3878D02*
D03*
X9900D02*
D03*
X8443D02*
D03*
D100*
X900Y22671D02*
D03*
Y19600D02*
D03*
D101*
X6650Y13650D02*
D03*
X8200D02*
D03*
D102*
X9750Y11550D02*
D03*
X9740Y13017D02*
D03*
D103*
X642Y14460D02*
D03*
X2000Y14450D02*
D03*
D104*
X6200Y18500D02*
D03*
D105*
X5706Y19470D02*
D03*
X5903D02*
D03*
X6099D02*
D03*
X6296D02*
D03*
X6493D02*
D03*
X6690D02*
D03*
X6692Y17543D02*
D03*
X6495D02*
D03*
X6298D02*
D03*
X6102D02*
D03*
X5905D02*
D03*
X5708D02*
D03*
D106*
X7160Y18994D02*
D03*
Y18797D02*
D03*
Y18601D02*
D03*
Y18404D02*
D03*
Y18207D02*
D03*
Y18010D02*
D03*
X5230D02*
D03*
Y18207D02*
D03*
Y18404D02*
D03*
Y18601D02*
D03*
Y18797D02*
D03*
Y18994D02*
D03*
D107*
X8450Y8150D02*
D03*
X4850D02*
D03*
X8450Y10350D02*
D03*
X4850D02*
D03*
D108*
X6020Y10500D02*
D03*
X6340D02*
D03*
X6970D02*
D03*
X6650D02*
D03*
X7280D02*
D03*
D109*
X2100Y25150D02*
D03*
X1100D02*
D03*
X12250Y22400D02*
D03*
X11250D02*
D03*
X11250Y38550D02*
D03*
X12250D02*
D03*
D110*
X2100Y26150D02*
D03*
X1100D02*
D03*
D111*
X16377Y26750D02*
D03*
D112*
X15700Y24100D02*
D03*
X15750Y9050D02*
D03*
D113*
X16700Y24100D02*
D03*
X560Y32556D02*
D03*
X1900Y38750D02*
D03*
X16750Y9050D02*
D03*
X1200Y11450D02*
D03*
Y12424D02*
D03*
D114*
X550Y33550D02*
D03*
X1900Y37750D02*
D03*
X1200Y10436D02*
D03*
D115*
X560Y31562D02*
D03*
X550Y30548D02*
D03*
D116*
X6900Y28300D02*
D03*
X7900D02*
D03*
X6900Y27300D02*
D03*
X7900D02*
D03*
X6900Y26300D02*
D03*
X7900D02*
D03*
Y25300D02*
D03*
X5250Y38550D02*
D03*
X5250Y22400D02*
D03*
D117*
X6900Y25300D02*
D03*
D118*
X550Y38600D02*
D03*
Y37600D02*
D03*
Y36600D02*
D03*
Y35600D02*
D03*
X13600Y24100D02*
D03*
X14600D02*
D03*
X3850D02*
D03*
X2850D02*
D03*
X3250Y38550D02*
D03*
X4250D02*
D03*
X6250D02*
D03*
X7250D02*
D03*
X8250D02*
D03*
X9250D02*
D03*
X10250D02*
D03*
X13600Y7950D02*
D03*
X14600D02*
D03*
X3850D02*
D03*
X2850D02*
D03*
X3250Y22400D02*
D03*
X4250D02*
D03*
X6250D02*
D03*
X7250D02*
D03*
X8250D02*
D03*
X9250D02*
D03*
X10250D02*
D03*
D119*
X550Y34600D02*
D03*
X11250Y38550D02*
D03*
X12250D02*
D03*
X13250D02*
D03*
X14250D02*
D03*
X11250Y22400D02*
D03*
X12250D02*
D03*
X13250D02*
D03*
X14250D02*
D03*
D120*
X1850Y29750D02*
D03*
Y29300D02*
D03*
Y28850D02*
D03*
X5600Y28450D02*
D03*
X1850Y31150D02*
D03*
X1650Y32200D02*
D03*
X2100D02*
D03*
Y32650D02*
D03*
Y33100D02*
D03*
Y33750D02*
D03*
X12050Y6000D02*
D03*
X900Y21950D02*
D03*
X1000Y17550D02*
D03*
X5650Y26950D02*
D03*
Y25250D02*
D03*
X5006Y19744D02*
D03*
X11150Y10600D02*
D03*
X6000Y16400D02*
D03*
X12550Y8950D02*
D03*
X5050Y15150D02*
D03*
X8400Y18500D02*
D03*
X7900D02*
D03*
X5700Y20700D02*
D03*
X4350Y18300D02*
D03*
X4600Y17950D02*
D03*
X4350Y25900D02*
D03*
X4800D02*
D03*
X3450Y31450D02*
D03*
X1700Y34950D02*
D03*
Y35400D02*
D03*
Y35850D02*
D03*
X12000Y31000D02*
D03*
X11500Y26350D02*
D03*
X15900Y27850D02*
D03*
X9150Y4450D02*
D03*
X15450D02*
D03*
X12300Y2900D02*
D03*
X8700Y36600D02*
D03*
X13600Y18200D02*
D03*
X1700Y37050D02*
D03*
Y36600D02*
D03*
X5100Y33200D02*
D03*
X4700D02*
D03*
X4300D02*
D03*
X3900D02*
D03*
X4350Y36150D02*
D03*
X5150Y35550D02*
D03*
X5000Y35100D02*
D03*
X5200Y25250D02*
D03*
Y26950D02*
D03*
X2000Y7800D02*
D03*
X2650Y10550D02*
D03*
X3000Y10200D02*
D03*
X3950Y8850D02*
D03*
X6650Y11550D02*
D03*
X3600Y20800D02*
D03*
X3100Y13150D02*
D03*
X4000Y10850D02*
D03*
X7150Y17000D02*
D03*
Y15500D02*
D03*
X7900Y19350D02*
D03*
X10850D02*
D03*
X5050Y12250D02*
D03*
X550Y7800D02*
D03*
X4500Y19100D02*
D03*
X300Y27400D02*
D03*
X2900Y27800D02*
D03*
X3450Y28000D02*
D03*
X10300Y32150D02*
D03*
Y32650D02*
D03*
X9150Y3450D02*
D03*
X11250Y24600D02*
D03*
X9150Y27300D02*
D03*
X9650D02*
D03*
X11800Y24600D02*
D03*
X8700Y24000D02*
D03*
X7850Y35950D02*
D03*
X6700Y29300D02*
D03*
X350Y6800D02*
D03*
Y700D02*
D03*
X14800Y4450D02*
D03*
X8450Y9550D02*
D03*
X10300Y34900D02*
D03*
X11750D02*
D03*
X12000Y32150D02*
D03*
X13300Y27350D02*
D03*
X11500Y25900D02*
D03*
X9600Y28600D02*
D03*
X750Y28100D02*
D03*
D121*
X3955Y32734D02*
D03*
Y31984D02*
D03*
X4705D02*
D03*
Y32734D02*
D03*
D122*
X6200Y18500D02*
D03*
X14750Y38450D02*
D03*
X15750D02*
D03*
X13750D02*
D03*
M02*
